<?xml version="1.0" encoding="utf-8"?>
<!-- Generator: Adobe Illustrator 22.0.1, SVG Export Plug-In . SVG Version: 6.00 Build 0)  -->
<svg version="1.1" id="Layer_1" xmlns="http://www.w3.org/2000/svg" xmlns:xlink="http://www.w3.org/1999/xlink" x="0px" y="0px"
	 viewBox="0 0 1162.6 1158" style="enable-background:new 0 0 1162.6 1158;" xml:space="preserve">
<style type="text/css">
	.st0{fill:#50C6DF;}
	.st1{opacity:0.5;fill:#50C6DF;enable-background:new    ;}
	.st2{fill:#2E3192;}
	.st3{clip-path:url(#SVGID_2_);}
	.st4{fill:url(#SVGID_3_);}
	.st5{fill:url(#SVGID_4_);}
	.st6{opacity:0.5;fill:#2E3192;enable-background:new    ;}
	.st7{opacity:0.5;fill:url(#SVGID_5_);enable-background:new    ;}
	.st8{opacity:0.3;}
	.st9{fill:#FEF8C0;}
	.st10{fill:#FFE381;}
	.st11{fill:#F78D36;}
	.st12{opacity:0.75;fill:#2E3192;enable-background:new    ;}
	.st13{opacity:0.5;fill:url(#SVGID_6_);enable-background:new    ;}
	.st14{opacity:0.5;fill:url(#SVGID_7_);enable-background:new    ;}
	.st15{fill:url(#SVGID_8_);stroke:#FFE381;stroke-width:2.7;stroke-miterlimit:10;}
	.st16{clip-path:url(#SVGID_10_);}
	.st17{fill:url(#SVGID_11_);}
	.st18{opacity:0.5;fill:#F78D36;enable-background:new    ;}
	.st19{opacity:0.5;fill:#FFE381;enable-background:new    ;}
	.st20{opacity:0.85;fill:url(#SVGID_12_);enable-background:new    ;}
	.st21{fill:url(#SVGID_13_);}
	.st22{fill:url(#SVGID_14_);}
	.st23{opacity:0.25;fill:#FEF8C0;enable-background:new    ;}
	.st24{opacity:0.75;fill:#FEF8C0;enable-background:new    ;}
	.st25{opacity:0.5;fill:#FEF8C0;enable-background:new    ;}
	.st26{fill:none;}
	.st27{opacity:0.3;fill:url(#background_30_1_);enable-background:new    ;}
	.st28{fill:url(#SVGID_15_);}
	.st29{fill:url(#SVGID_16_);}
	.st30{opacity:0.5;fill:url(#SVGID_17_);enable-background:new    ;}
	.st31{fill:url(#SVGID_18_);}
</style>
<rect class="st0" width="1162.6" height="1158"/>
<path class="st1" d="M1162.6-256c0,82.9-228.2-0.5-307.1,25.1c-48.7,15.8-139.7,88.5-188.1,105.1c-50.7,17.4-57.4,23.9-108.9,38.8
	c-46,13.3-216.9,57.2-262.8,70.8C238.6,0.9,19.8-2.9-5.7,50.9c-23.6,49.8,134.2,122.7,182.5,149.4c69.5,38.4,239.9-16.1,317.6,0
	c55,11.4,152.1,74.6,206.4,89.1c105.4,28.1,461.4,49.5,461.4,49.5"/>
<rect y="-6374.9" class="st0" width="1162.6" height="1179.2"/>
<path class="st2" d="M441.7-6371.1c312.8,0,587.9,160.1,720.9,393.9v-1062.7H0v788.2C127.1-6327.2,277.8-6371.1,441.7-6371.1z"/>
<g>
	<defs>
		<rect id="SVGID_1_" y="-1768" width="1162.6" height="1822.1"/>
	</defs>
	<clipPath id="SVGID_2_">
		<use xlink:href="#SVGID_1_"  style="overflow:visible;"/>
	</clipPath>
	<g class="st3">
		
			<linearGradient id="SVGID_3_" gradientUnits="userSpaceOnUse" x1="575.0919" y1="-4579.6396" x2="575.0919" y2="-6562.3394" gradientTransform="matrix(0.8464 0 0 -0.8464 94.5631 -5512.2808)">
			<stop  offset="0" style="stop-color:#FEF8C0;stop-opacity:0"/>
			<stop  offset="2.000000e-02" style="stop-color:#FEF8C0;stop-opacity:5.000000e-02"/>
			<stop  offset="9.000000e-02" style="stop-color:#FEF8C0;stop-opacity:0.27"/>
			<stop  offset="0.17" style="stop-color:#FEF8C0;stop-opacity:0.47"/>
			<stop  offset="0.25" style="stop-color:#FEF8C0;stop-opacity:0.63"/>
			<stop  offset="0.33" style="stop-color:#FEF8C0;stop-opacity:0.76"/>
			<stop  offset="0.41" style="stop-color:#FEF8C0;stop-opacity:0.87"/>
			<stop  offset="0.49" style="stop-color:#FEF8C0;stop-opacity:0.94"/>
			<stop  offset="0.57" style="stop-color:#FEF8C0;stop-opacity:0.99"/>
			<stop  offset="0.67" style="stop-color:#FEF8C0"/>
		</linearGradient>
		<rect y="-1636.2" class="st4" width="1162.6" height="1678.1"/>
		
			<linearGradient id="SVGID_4_" gradientUnits="userSpaceOnUse" x1="575.0919" y1="-4579.6396" x2="575.0919" y2="-6780.1392" gradientTransform="matrix(0.8464 0 0 -0.8464 94.5631 -5512.2808)">
			<stop  offset="0" style="stop-color:#FEF8C0;stop-opacity:0"/>
			<stop  offset="0" style="stop-color:#FEF8C0;stop-opacity:0"/>
			<stop  offset="8.000000e-02" style="stop-color:#FEF8C0;stop-opacity:0.23"/>
			<stop  offset="0.16" style="stop-color:#FEF8C0;stop-opacity:0.44"/>
			<stop  offset="0.25" style="stop-color:#FEF8C0;stop-opacity:0.61"/>
			<stop  offset="0.33" style="stop-color:#FEF8C0;stop-opacity:0.75"/>
			<stop  offset="0.41" style="stop-color:#FEF8C0;stop-opacity:0.86"/>
			<stop  offset="0.5" style="stop-color:#FEF8C0;stop-opacity:0.94"/>
			<stop  offset="0.58" style="stop-color:#FEF8C0;stop-opacity:0.98"/>
			<stop  offset="0.67" style="stop-color:#FEF8C0"/>
			<stop  offset="1" style="stop-color:#F78D36"/>
		</linearGradient>
		<rect y="-1636.2" class="st5" width="1162.6" height="1862.4"/>
	</g>
</g>
<path class="st2" d="M1162.6-1742.4v-2471.5H0v2963.1c0,0,406.5-21.7,511.8-49.8c54.3-14.5,151.4-77.7,206.4-89.1
	c77.8-16.1,338.2,29.9,401.4-18.3C1219.4-1484.2,1201.6-1781.4,1162.6-1742.4z"/>
<g id="background_details_1_">
	<path class="st6" d="M865.4-5612.6c-45.9-13.6-216.8-57.6-262.8-70.8c-51.5-14.9-58.2-21.4-108.9-38.8
		c-48.4-16.6-139.4-89.3-188.1-105.1c-62.9-20.4-235.7,28.4-303.1,7.1v586.9c77.7-5.4,447.4-31.8,541.5-56.9
		c54.3-14.5,151.4-77.7,206.4-89.1c77.8-16.1,257.4,38.4,327,0c22.9-12.6,55.5-47.6,81.3-86.3v-138.6
		C1081.6-5623.1,911.5-5598.9,865.4-5612.6z"/>
</g>
<title>spheregoblin</title>
<g id="background_details_7_">
	
		<linearGradient id="SVGID_5_" gradientUnits="userSpaceOnUse" x1="-111.0298" y1="76.2958" x2="1257.1302" y2="76.2958" gradientTransform="matrix(0.8464 0 0 -0.8464 94.5631 -5512.2808)">
		<stop  offset="0" style="stop-color:#50C6DF"/>
		<stop  offset="1.000000e-02" style="stop-color:#50C4DE"/>
		<stop  offset="0.25" style="stop-color:#4490C3"/>
		<stop  offset="0.48" style="stop-color:#3A67AE"/>
		<stop  offset="0.69" style="stop-color:#34499F"/>
		<stop  offset="0.87" style="stop-color:#2F3795"/>
		<stop  offset="1" style="stop-color:#2E3192"/>
	</linearGradient>
	<path class="st7" d="M1158.6-5642.3c-84-9.9-226.4,8.5-268-3.8c-45.9-13.6-126.2-70.5-172.2-83.8c-18.6-5.4-45-7.7-73.4-9.2
		c7.2-7.3,11-13.8,9.1-16.2c-2.6-3.2-14.7,2.2-27,12.1c-1.2,1-2.4,2-3.6,3c-8.5-0.4-17.1-0.8-25.6-1.2c4.5-5.2,8.2-10.9,11.3-17
		c7.3-14,10.2-27,6.5-28.9c-3.6-1.9-12.6,7.9-19.8,22c-4.8,9.2-7.7,17.9-8.1,23.4c-6.2-0.3-12.3-0.7-18.2-1.2
		c2.6-6,4.4-12.3,5.6-18.8c2.9-15.5,2-28.8-2.1-29.5c-4.1-0.8-9.7,11.2-12.7,26.8c-1.5,7.9-2,15.2-1.5,20.6
		c-9.3-0.8-18.1-1.9-26.3-3.1c-0.7-5.3-1.9-10.6-3.6-15.7c-4.7-15.1-11.8-26.3-15.7-25.1s-3.3,14.5,1.4,29.6c0.9,2.9,1.9,5.7,3,8.3
		c-4.2-1-8.4-2.1-12.5-3.5c-48.4-16.6-125.7-91.6-174.4-107.4c-76.7-24.9-317.1,53.3-330-18.8L2.4-5274c0,0,461.3-21.8,566.7-49.9
		c54.3-14.5,168.3-101.3,223.2-89.1c147,32.8,302.2,4.4,310.2,0c15.8-8.7,36.4-28.2,56.1-52.3V-5642.3z"/>
</g>
<g id="About_Page">
	<g id="grass_shadow">
		<g id="clump_3">
			<g class="st8">
				
					<ellipse transform="matrix(0.805 -0.5933 0.5933 0.805 3428.3384 -1037.7714)" class="st2" cx="135.5" cy="-5734.1" rx="6.1" ry="23.3"/>
			</g>
			<g class="st8">
				
					<ellipse transform="matrix(0.2608 -0.9654 0.9654 0.2608 5605.0088 -4040.6138)" class="st2" cx="163.9" cy="-5680.5" rx="7.5" ry="28.6"/>
			</g>
			
				<ellipse transform="matrix(0.2419 -0.9703 0.9703 0.2419 5606.6138 -4092.6841)" class="st2" cx="184.1" cy="-5634.4" rx="5" ry="18.9"/>
			<g class="st8">
				
					<ellipse transform="matrix(0.886 -0.4636 0.4636 0.886 2686.1323 -585.406)" class="st2" cx="152.3" cy="-5756.6" rx="7.5" ry="28.6"/>
			</g>
			
				<ellipse transform="matrix(0.4198 -0.9076 0.9076 0.4198 5232.8462 -3114.9302)" class="st2" cx="180.1" cy="-5650.2" rx="7.5" ry="28.6"/>
			<g class="st8">
				
					<ellipse transform="matrix(0.6828 -0.7306 0.7306 0.6828 4285.4888 -1621.5045)" class="st2" cx="275.5" cy="-5745.8" rx="28.6" ry="7.5"/>
			</g>
			
				<ellipse transform="matrix(0.8263 -0.5632 0.5632 0.8263 3222.8894 -839.3191)" class="st2" cx="250.7" cy="-5644.8" rx="28.6" ry="7.5"/>
		</g>
		<g id="clump_2">
			
				<ellipse transform="matrix(0.1663 -0.9861 0.9861 0.1663 5867.4082 -4594.8511)" class="st2" cx="216.5" cy="-5767.2" rx="28.3" ry="7.1"/>
			
				<ellipse transform="matrix(0.4187 -0.9081 0.9081 0.4187 5366.0024 -3142.0608)" class="st2" cx="228.8" cy="-5762.3" rx="21.9" ry="5.5"/>
			
				<ellipse transform="matrix(0.6547 -0.7559 0.7559 0.6547 4446.6724 -1805.1245)" class="st2" cx="247.4" cy="-5770" rx="28.3" ry="7.1"/>
			
				<ellipse transform="matrix(0.6144 -0.789 0.789 0.6144 4629.9414 -2008.9026)" class="st2" cx="259.6" cy="-5741.4" rx="28.3" ry="7.1"/>
			
				<ellipse transform="matrix(0.7085 -0.7057 0.7057 0.7085 4118.8467 -1478.1394)" class="st2" cx="270.3" cy="-5724.5" rx="21.9" ry="5.5"/>
			
				<ellipse transform="matrix(0.8768 -0.4808 0.4808 0.8768 2788.6494 -565.6284)" class="st2" cx="290.4" cy="-5725.2" rx="28.3" ry="7.1"/>
		</g>
		<g id="clump_1">
			
				<ellipse transform="matrix(0.4005 -0.9163 0.9163 0.4005 5299.3589 -3321.1333)" class="st2" cx="111.6" cy="-5710.5" rx="7.1" ry="28.3"/>
			
				<ellipse transform="matrix(0.6263 -0.7796 0.7796 0.6263 4504.7476 -2044.8823)" class="st2" cx="119.3" cy="-5721.4" rx="5.5" ry="21.9"/>
			
				<ellipse transform="matrix(0.8211 -0.5708 0.5708 0.8211 3295.2925 -963.5673)" class="st2" cx="110.5" cy="-5738.8" rx="7.1" ry="28.3"/>
			
				<ellipse transform="matrix(0.7874 -0.6165 0.6165 0.7874 3573.7097 -1131.276)" class="st2" cx="146.9" cy="-5746.2" rx="7.1" ry="28.3"/>
			
				<ellipse transform="matrix(0.8585 -0.5128 0.5128 0.8585 2973.2314 -728.733)" class="st2" cx="166" cy="-5752.3" rx="5.5" ry="21.9"/>
			
				<ellipse transform="matrix(0.9672 -0.2539 0.2539 0.9672 1471.2863 -145.9585)" class="st2" cx="170.3" cy="-5772.2" rx="7.1" ry="28.3"/>
		</g>
		<path class="st6" d="M302.7-5653.8c1.8,23.9-20.6,46-39.2,56.2c-61.4,33.7-162.8-17-163.6-56.2c-0.6-28.9,53.5-59.5,101.4-59.8
			C244.8-5713.9,300-5689.3,302.7-5653.8z"/>
	</g>
	<g id="pyramid_goblin">
		<path class="st9" d="M265.5-5705.5c0,0,5.9-31.8,5.3-41.6c-0.3-5.9-9-18.8-20.3-18.8c-11.3,0-104.7,22.2-117.9,30.9
			s-12.4,21.6-8.7,26.4c7.7,9.8,28.4,21.8,44.2,25.8C205.5-5673.5,265.6-5705.5,265.5-5705.5"/>
		<path class="st9" d="M275.2-5647.6c-9.4,0-10.8-10.9-20.3-7.2c-13.1,5.1-5.2,15.5-11.3,26.8c-3.3,6.1-20.2,15.8-32.4,9.4
			c-19.7-10.3-42.6-49.7-50.5-92.3s20-58.8,20-58.8s8.4-6.6,2.4-28.5c-1-3.3-1.6-6.6-2.1-10l4.4,2.3l0.6-5.6
			c1.9,3.4,4.1,6.6,6.6,9.7c12.5,16,3.6,24.8,3.6,24.8c32.7-5,58.6,40.1,71.6,62.6c0.7,1.3,1.4,2.4,2,3.5l0,0
			c0.8,1.4,1.6,2.7,2.3,3.8l1,0.3c14.3,4.2,13.5,6.8,27.1,38.1C303.6-5660.7,284.6-5647.6,275.2-5647.6z"/>
		<path class="st10" d="M233.1-5763.1c0,0,26.4,5,34.3,48C259.7-5728.8,248.1-5749.6,233.1-5763.1"/>
		<path class="st10" d="M163.4-5698.8c-1-4-1.9-8-2.6-12c-2.7-14.6-1.2-26.1,1.9-34.9c0,0-11.3,7-10.2,24.5
			c0.8,13.6,11.4,24.5,11.4,24.5"/>
		<path class="st10" d="M273.1-5706.7c-0.2,0.4-0.7,0.7-1.1,0.6c-23.2-3.9-50-0.4-69.5,12.5c-0.5,0.3-1.2,0.1-1.4-0.4
			c-0.2-0.4-0.1-0.9,0.2-1.3c17.9-14.7,53-27.1,68.7-15.4l0,0c0.8,1.4,1.6,2.7,2.3,3.8L273.1-5706.7z"/>
		
			<ellipse transform="matrix(0.9526 -0.3042 0.3042 0.9526 1724.1687 -198.7564)" class="st10" cx="224.2" cy="-5633" rx="17.8" ry="10.7"/>
		<path class="st10" d="M272.2-5707c3.9,1,7.7,2.6,11.1,4.8c8.3,5.4,10.8,19.3,17,33.6c3.4,7.9-15.6,21-25,21s-10.8-10.9-20.3-7.2
			c-2.5,0.8-4.7,2.4-6.3,4.5c-1.3,2-2,4.2-2,6.6c-0.2,0-3.8-20.7,6.2-40.7C257.5-5693.3,264.1-5701.1,272.2-5707z"/>
		<path class="st2" d="M217.9-5738.8c1.2,1,2.5,1.7,4,2.1c2.2,0.7,4.6-0.4,5.5-2.5c0.7-1.4,1-2.9,1-4.4c1.5,1.3,2.2,3.2,2,5.2
			c-0.1,1.1-0.5,2.1-1.1,3c-0.6,0.9-1.5,1.7-2.5,2.1c-2,0.9-4.4,0.7-6.2-0.6C218.9-5735.1,217.9-5736.9,217.9-5738.8z"/>
		<path class="st2" d="M191.8-5731.4c1.2,1,2.5,1.7,4,2.1c2.2,0.7,4.6-0.4,5.5-2.5c0.7-1.4,1-2.9,1-4.4c1.5,1.3,2.2,3.2,2,5.2
			c-0.1,1.1-0.5,2.1-1.1,2.9c-0.6,0.9-1.5,1.7-2.5,2.1c-2,0.9-4.4,0.7-6.2-0.6C192.8-5727.6,191.8-5729.4,191.8-5731.4z"/>
		<polygon class="st9" points="141.4,-5830.9 170.4,-5832.1 188.6,-5856.4 158.8,-5855.2 		"/>
		<polyline class="st10" points="183.7,-5809 170.4,-5832.1 141.4,-5830.9 		"/>
		<polyline class="st11" points="188.6,-5856.4 170.4,-5832.1 183.7,-5809 		"/>
	</g>
	<g id="log">
		<g id="log-2">
			<path class="st2" d="M501.5-5625.7c-34.7,6.3-71.5-1.4-105.6,6.3c-16.1,3.6-31,18.7-46.6,21.4c-8.1,1.4-17.2-4.9-25.5-4
				c-8.6,0.9-19.6,8.8-27.4,12.8c-17.4-7-26.7-33.1-30.3-49.8c-4-18.3-1.7-44.2,10.3-60.3c27.7-1.8,50.1-13.4,78-14.3
				c22.1-0.7,20.2-5.5,38.3-10.8c12.3-3.6,24.8-0.3,37.2-3.6c17.8-4.8,22.4-19.4,44-11.5c13.4,4.9,15.3,14,21.2,24.9
				C510.3-5685.4,505.5-5657.6,501.5-5625.7z"/>
			<path class="st11" d="M296.4-5589.2c-35.9-11.8-49.3-84.2-20.1-110C305.8-5673.6,333.2-5616.4,296.4-5589.2z"/>
			<path class="st10" d="M298-5648.5c-1.2,12.6,2.8,24.4-5.6,35.1c-12.5-9.1-26.2-29.5-22-46.6
				C276.4-5684.1,294.4-5667.8,298-5648.5z"/>
		</g>
		<g id="whorls">
			<path class="st0" d="M302.9-5692.4c7.7,1,15.2,2.2,22.6,3.3c3.7,0.6,7.4,1.1,11.1,1.6c3.7,0.4,7.4,1,11.1,1.5s7.4,1.2,11.1,1.6
				c3.7,0.4,7.5,0.5,11.3,0.2c7.5-0.6,14.6-3.2,20.8-7.4c0.8-0.5,1.4-1.1,2.2-1.7l2.2-1.8c0.8-0.6,1.5-1.3,2.4-1.8l2.5-1.7
				c3.3-2.2,6.8-4.1,10.5-5.7c3.6-1.6,7.3-3.1,11.1-4.3c3.7-1.2,7.6-2.2,11.4-3c3.9-0.7,7.7-1.3,11.6-1.6c3.9-0.3,7.8-0.5,11.7-0.5
				c3.9,0,7.8,0.2,11.7,0.6c3.9,0.3,7.7,1,11.5,1.9l-0.1,0.8c-15.2,2-30.2,4.2-44.6,7.5c-3.6,0.8-7.2,1.7-10.8,2.6
				c-3.6,0.9-7.1,2-10.6,3.2c-3.5,1.2-6.8,2.7-10.2,4.2c-1.7,0.8-3.3,1.6-4.9,2.5l-1.2,0.6l-1.4,0.7c-0.9,0.4-1.8,1-2.7,1.3
				l-2.8,1.2l-2.8,1c-0.9,0.4-1.9,0.6-2.8,0.8l-1.4,0.4c-0.5,0.1-0.9,0.2-1.4,0.4c-3.8,1-7.6,1.7-11.4,2.4
				c-3.8,0.7-7.7,1.3-11.6,1.8c-3.9,0.5-7.8,0.8-11.8,0.8c-3.9,0-7.8-0.4-11.7-1.1c-7.7-1.3-15.2-3.4-22.4-6.3
				c-3.6-1.4-7.1-3.2-10.5-5.2L302.9-5692.4z"/>
			<path class="st0" d="M481.4-5723.7c-6.6,1.4-13.1,2.4-19.6,3.4c-3.2,0.4-6.5,0.9-9.7,1.3c-3.2,0.4-6.4,0.9-9.7,1.3
				c-3.2,0.3-6.5,0.6-9.7,0.8s-6.5,0.5-9.8,1c-6.5,0.9-12.7,3.1-18.3,6.4c-5.8,3.5-11.8,6.9-18.1,9.2c-3.2,1.1-6.4,2.1-9.6,3.1
				s-6.5,1.8-9.8,2.4c-6.6,1.2-13.2,2-19.9,2.2c-6.7,0.3-13.4-0.1-20.1-1l-0.1-0.8c6.4-2,12.9-3.6,19.3-5.1
				c6.4-1.5,12.8-2.9,19.1-4.1c6.4-1.2,12.8-2.2,19.1-3.7c3.1-0.7,6.3-1.3,9.5-2.1c3.2-0.7,6.3-1.6,9.3-2.8
				c6.2-2.7,12.5-4.8,18.8-7.1c6.3-2.3,12.7-4.6,19.3-5.7c3.3-0.6,6.6-0.9,10-1.1c3.3-0.2,6.7-0.3,10-0.3c3.3,0,6.7,0.2,10,0.5
				c3.4,0.3,6.7,0.8,10,1.5L481.4-5723.7z"/>
			<path class="st0" d="M318.6-5661.8c3.9-1,7.9-1.8,11.8-2.6l5.9-1.2l5.9-1c2-0.3,3.9-0.8,5.9-1.3c1.9-0.4,3.9-0.6,5.9-0.5
				c2,0.1,4.1,0.3,6.1,0.8c2.1,0.4,4.2,1.1,6.2,2.1l0.1,0.8c-1.8,1.2-3.7,2.3-5.8,3c-1.9,0.7-3.9,1.3-5.9,1.7
				c-1.9,0.4-3.9,0.5-5.9,0.4c-2-0.1-4-0.3-6-0.3l-6-0.1l-6-0.2c-4-0.2-8-0.4-12-0.7L318.6-5661.8z"/>
			<path class="st0" d="M417.1-5681c0.2-1.3,0.9-2.5,1.9-3.3c0.9-0.8,1.9-1.6,3-2.3c1-0.7,2.1-1.3,3.2-1.8s2.2-1.1,3.3-1.6
				c4.5-2.1,9.3-3.7,14.1-4.7c2.5-0.5,4.9-0.8,7.4-1.1c2.6-0.2,5.2-0.2,7.8,0c1.4,0.1,2.8,0.4,4.1,0.8c1.7,0.5,3.2,1.4,4.4,2.7
				c0.7,0.8,1.2,1.8,1.5,2.8c0.2,0.9,0.3,1.9,0.3,2.8c-0.1,1.6-0.5,3.1-1.1,4.6c-0.5,1.3-1.2,2.6-1.9,3.8c-0.7,1.2-1.5,2.3-2.4,3.4
				c-1.7,2.1-3.7,4.1-5.8,5.8c-1.1,0.8-2.3,1.6-3.5,2.3c-1.2,0.7-2.5,1.3-3.9,1.8c-1.3,0.5-2.7,0.9-4.1,1.1
				c-1.4,0.2-2.8,0.4-4.2,0.4c-2.8,0-5.6-0.5-8.2-1.4c-2.5-0.9-4.9-2.2-7.1-3.8c-2.1-1.5-4-3.3-5.7-5.3c-0.8-1-1.6-2-2.2-3.2
				C417.4-5678.3,417-5679.6,417.1-5681z M418-5680.9c0,0.5,0.1,1.1,0.3,1.6c0.2,0.5,0.5,1,0.8,1.4c0.7,0.9,1.6,1.7,2.5,2.3
				c1.9,1.3,4.1,2.2,6.3,2.8c4.2,1,8.6,1.3,12.9,0.8c2-0.2,4-0.7,5.9-1.3c1.9-0.7,3.8-1.6,5.5-2.6c1.8-1.1,3.5-2.4,5-3.9
				c1.5-1.4,2.7-3.1,3.7-4.9c0.4-0.8,0.7-1.6,0.8-2.4c0-0.3,0-0.6,0-0.8c0-0.1,0-0.3-0.1-0.4c-0.5-0.5-1-0.9-1.7-1.1
				c-0.9-0.4-1.9-0.7-2.9-0.8c-2.2-0.4-4.5-0.6-6.8-0.6c-2.4,0-4.7,0.1-7,0.3c-4.8,0.4-9.5,1.1-14.2,2.2c-2.3,0.6-4.6,1.4-6.7,2.5
				c-1.1,0.5-2,1.2-2.9,2.1C418.7-5683.1,418.1-5682.1,418-5680.9L418-5680.9z"/>
		</g>
		<g id="mushrooms">
			<path class="st11" d="M439.9-5632.5c1.4,6.1,17.6,5.6,34.6,1.8c17-3.9,21.3-8,19.9-14.2c-1.4-6.1-8.9-16-25.9-12.1
				C451.5-5653.1,438.5-5638.6,439.9-5632.5z"/>
			<path class="st11" d="M475-5667c2.8,5.8,17,8.8,28.6,3.4c11.5-5.4,19.5-19.1,16.8-24.9c-2.8-5.8-14.4,0-26,5.5
				C482.8-5677.6,472.2-5672.8,475-5667z"/>
			<path class="st11" d="M417.3-5647.3c1.2,4,8.8,6.1,16.4,3.7c7.6-2.3,11.8-7.9,10.5-12c-1.2-4-7.8-6.3-15.4-4
				C421.3-5657.2,416.1-5651.4,417.3-5647.3z"/>
			<path class="st11" d="M397.6-5635.6c0.4,2.4,4.5,4.2,9,3.5c4.5-0.7,7.3-3.5,6.9-5.9c-0.4-2.4-3.9-4.2-8.4-3.5
				S397.3-5638,397.6-5635.6z"/>
			<path class="st11" d="M383.3-5642c0.3,1.8,2.4,3.3,5.8,2.8s4.9-2.5,4.6-4.4c-0.3-1.8-2-1.3-5.4-0.8
				C384.9-5644,383-5643.8,383.3-5642z"/>
		</g>
		<path class="st11" d="M290.4-5646.6c0.3,1.2,0.6,2.4,1,3.7c0.4,1.3,0.6,2.6,0.8,4c0.1,1.5-0.2,3-0.8,4.3c-0.2,0.4-0.4,0.7-0.6,1
			c-0.3,0.3-0.6,0.7-0.9,0.9c-0.7,0.6-1.6,1-2.5,1.2c-0.9,0.2-1.8,0.1-2.6-0.2c-0.4-0.1-0.7-0.3-1.1-0.5c-0.3-0.2-0.6-0.4-0.9-0.7
			c-1-0.9-1.9-2-2.6-3.1c-1.4-2.1-2.7-4.4-3.8-6.8c-0.5-1.2-1-2.5-1.2-3.8c-0.3-1.4-0.3-2.8-0.2-4.2c0.1-1.5,0.5-3,1.2-4.4
			c0.2-0.4,0.4-0.7,0.7-1.1c0.3-0.4,0.6-0.7,0.9-1c0.7-0.7,1.6-1.2,2.6-1.4c1-0.2,2-0.2,2.9,0.1c0.4,0.1,0.9,0.3,1.3,0.5
			c0.4,0.2,0.7,0.4,1.1,0.7c1.2,0.9,2.1,2.1,2.8,3.5c0.5,1.2,1,2.5,1.3,3.8L290.4-5646.6z M290-5646.5c-0.3-1.2-0.9-2.3-1.6-3.3
			c-0.7-1-1.6-1.8-2.5-2.5c-0.8-0.6-1.7-1.2-2.6-1.6c-0.6-0.3-1.2-0.4-1.8-0.2c-0.6,0.2-1,0.7-1.3,1.2c-0.5,0.8-0.9,1.7-1.1,2.7
			c-0.4,2.2-0.5,4.5-0.4,6.8c0.1,1.2,0.4,2.4,0.8,3.5c0.4,1.1,1,2.2,1.8,3.1c0.7,0.9,1.7,1.5,2.8,1.9c0.8,0.3,1.7,0.3,2.4-0.1
			c0.6-0.4,1.1-0.9,1.5-1.5c0.6-0.9,1-1.8,1.4-2.8c0.5-1.1,0.8-2.3,0.9-3.5C290.4-5644.1,290.3-5645.3,290-5646.5z"/>
	</g>
</g>
<g id="background_details">
	<path class="st6" d="M2.4-5479.9v246.3c77.7-5.4,447.4-31.8,541.5-56.9c54.3-14.5,151.4-77.7,206.4-89.1
		c77.8-16.1,257.4,38.4,327,0c21.3-11.8,54.4-60.6,81.3-108v-76C949-5484.5,10.7-5405,2.4-5479.9z"/>
</g>
<g id="background_details_2_">
	<path class="st12" d="M1178.5-341.5c0,82.9-251.8-0.5-330.6,25.1c-48.7,15.8-139.7,88.5-188.1,105.1
		c-50.7,17.4-57.4,23.9-108.9,38.8c-46,13.3-374.8,70.5-430.4,70.8C60.9-101.2-6.5-125.6-31.9-71.8C-55.5-22,37.1,88.1,85.4,114.8
		c69.5,38.4,323.7-16.1,401.4,0c55,11.4,152.1,74.6,206.4,89.1c105.4,28.1,464.5,49.7,464.5,49.7"/>
</g>
<g id="background_details_6_">
	
		<linearGradient id="SVGID_6_" gradientUnits="userSpaceOnUse" x1="-4960.9243" y1="-6073.604" x2="-4960.2744" y2="-6073.604" gradientTransform="matrix(-0.8464 0 0 -0.8464 -3045.4658 -5512.2808)">
		<stop  offset="0" style="stop-color:#50C6DF"/>
		<stop  offset="1.000000e-02" style="stop-color:#50C4DE"/>
		<stop  offset="0.25" style="stop-color:#4490C3"/>
		<stop  offset="0.48" style="stop-color:#3A67AE"/>
		<stop  offset="0.69" style="stop-color:#34499F"/>
		<stop  offset="0.87" style="stop-color:#2F3795"/>
		<stop  offset="1" style="stop-color:#2E3192"/>
	</linearGradient>
	<path class="st13" d="M1152.8-368.6l0.6-6.3C1153.3-372.8,1153.1-370.7,1152.8-368.6z"/>
	
		<linearGradient id="SVGID_7_" gradientUnits="userSpaceOnUse" x1="-4980.3643" y1="-6441.5532" x2="-3526.3628" y2="-6441.5532" gradientTransform="matrix(-0.8464 0 0 -0.8464 -3045.4658 -5512.2808)">
		<stop  offset="0" style="stop-color:#50C6DF"/>
		<stop  offset="1.000000e-02" style="stop-color:#50C4DE"/>
		<stop  offset="0.25" style="stop-color:#4490C3"/>
		<stop  offset="0.48" style="stop-color:#3A67AE"/>
		<stop  offset="0.69" style="stop-color:#34499F"/>
		<stop  offset="0.87" style="stop-color:#2F3795"/>
		<stop  offset="1" style="stop-color:#2E3192"/>
	</linearGradient>
	<path class="st14" d="M-57.1-105.3c25.5-53.8,227.9-24.5,287.2-29.5c206.5-17.8,202.3-82.1,278.3-93.2c-7.2-7.3-11-13.8-9.1-16.2
		c2.6-3.2,14.7,2.2,27,12.1c1.2,1,2.4,2,3.6,3c8.5-0.4,17.1-0.8,25.6-1.2c-4.5-5.2-8.2-10.9-11.3-17c-7.3-14-10.2-27-6.5-28.9
		c3.6-1.9,12.6,7.9,19.8,22c4.8,9.2,7.7,17.9,8.1,23.4c6.2-0.3,12.3-0.7,18.2-1.2c-2.6-6-4.4-12.3-5.6-18.8
		c-2.9-15.5-2-28.8,2.1-29.5c4.1-0.8,9.7,11.2,12.7,26.8c1.5,7.9,2,15.2,1.5,20.6c9.3-0.8,18.1-1.9,26.3-3.1
		c0.7-5.3,1.9-10.6,3.6-15.7c4.7-15.1,11.8-26.3,15.7-25.1c4,1.2,3.3,14.5-1.4,29.6c-0.9,2.9-1.9,5.7-3,8.3c4.2-1,8.4-2.1,12.5-3.5
		C696.7-259.1,774-334,822.7-349.8c76.7-24.9,334.1,53.3,347-18.8l-3,616.5c0,0-383.9-22.3-489.3-50.4
		C486.5,60.7,363.8,81.8,294.1,81.3c-79.4-0.6-164.3,38.4-233.9,0C12,54.7-80.7-55.5-57.1-105.3z"/>
</g>
<g id="Partners">
	
		<linearGradient id="SVGID_8_" gradientUnits="userSpaceOnUse" x1="855.8897" y1="-6313.0645" x2="1018.0197" y2="-6150.9346" gradientTransform="matrix(0.8464 0 0 -0.8464 94.5631 -5512.2808)">
		<stop  offset="0" style="stop-color:#FFE381"/>
		<stop  offset="5.000000e-02" style="stop-color:#FFE587"/>
		<stop  offset="0.26" style="stop-color:#FFEDA0"/>
		<stop  offset="0.49" style="stop-color:#FEF3B2"/>
		<stop  offset="0.72" style="stop-color:#FEF7BD"/>
		<stop  offset="1" style="stop-color:#FEF8C0"/>
	</linearGradient>
	<path class="st15" d="M897.2-243.1c-7.8,0-22.6,18.1-22.6,34.2c0,16.1,8.2,34.5,41.4,37.7c11.2,1.1,61.7,23.2,97.4-27.1
		c23.7-33.3,19.7-68.9,6.8-95.3c-6-12.2-22.9-34.3-33.3-47.4c-10.2-12.7-30.1-21.8-46.6-27.5c-13.4-4.6-36.3-3.6-38.2-16
		c-1.2-7.7-9.5-14.4-18.8-15.9c0,0.4,0,0.8,0,1.3c0,1.5-0.1,3-0.4,4.5c14.1,7.6,11.7,32.8,5.8,39.2c-11.2,12.3-18.6,48.3-12.2,66
		C880-272.7,887.1-256.9,897.2-243.1z"/>
	<path class="st10" d="M952.4-232.2c-3.1,0.4-6.1,1.1-9.1,2.1c-2.9,0.9-5.8,2.2-8.5,3.7c-5.3,3-9.6,7.4-12.4,12.8
		c-1.3,2.7-2.3,5.6-2.9,8.5l-0.4,2.2c-0.1,0.8-0.2,1.5-0.3,2.3c-0.2,1.5-0.2,3-0.3,4.6c0,6.2,0.7,12.4,2,18.5c-0.5-1.5-1-3-1.5-4.5
		c-0.4-1.5-0.8-3-1.2-4.6c-0.4-1.5-0.6-3.1-0.8-4.7c-0.1-0.8-0.2-1.6-0.3-2.4c-0.1-0.8-0.2-1.6-0.2-2.4c-0.1-1.6-0.1-3.2,0-4.8
		c0.1-0.8,0.1-1.6,0.2-2.4l0.3-2.4c0.6-3.2,1.6-6.3,3-9.2c1.5-2.9,3.5-5.6,5.8-7.8c2.3-2.2,5-4.1,7.9-5.6c2.9-1.4,5.9-2.5,9-3.1
		C946.1-232,949.3-232.3,952.4-232.2z"/>
	<path class="st2" d="M1169-280.7c-22.6-0.9-42.2,6.2-56.7,20.5c0,0-39.2,39-99.1,39.2c-34.7,0.1-73.5-22.5-96.8-46.1
		c-2.9-2.9-7.6-3-10.5-0.1c-2.9,2.9-3,7.6-0.1,10.5c12,12.2,52.6,40.2,92.9,45.6c73.9,9.8,122-40.7,122-40.7
		c29.2-29.1,73.4-12.3,73.8-12.1l4.3-11C1189.2-278.4,1179.2-280.3,1169-280.7z"/>
	<g>
		<defs>
			<path id="SVGID_9_" d="M457.2,51.9c-55.5,0-101.8-2.1-138.4-6.2c-51.8-5.8-81.1-15.3-89.6-29c-3.4-5.2-3.5-11.9-0.4-17.2
				c8.5-15.2,40.6-23.5,66.4-23.5c21.7,0,36.7-9.8,44.7-29.1c6.5-15.6-0.3-37.3-4.1-59.5c-3.3-19.5-1.9-62.1-9.5-69.7l22.5,15.6
				c0,16-1.9,28.5,2,51.6c2.5,14.7,13.4,43,3.1,67.9c-10.4,25.2-30.8,38.6-58.8,38.6c-27.5,0-49.4,9.1-53.1,15.7
				c-0.5,0.5-0.5,1.3,0,1.8c2,3.3,23.7,27.9,215.1,27.9c35.5,0,76.7-0.8,124.8-2.8c97.3-4,173.5-16.6,226.5-37.3
				c41.5-16.3,68.5-37.4,80.3-62.8c21.2-45.6-12.8-83-16.6-100.6l13.7-5.3c3.8,11.4,11.4,18.4,18.4,37.9c9.3,26.2,8.8,52-1.7,74.4
				C889.1-30.7,859.3-7,814.1,10.8C759.6,32.1,681.7,45,582.7,49.1C536.7,51,494.9,51.9,457.2,51.9z"/>
		</defs>
		<clipPath id="SVGID_10_">
			<use xlink:href="#SVGID_9_"  style="overflow:visible;"/>
		</clipPath>
		<g class="st16">
			
				<radialGradient id="SVGID_11_" cx="560.2886" cy="-6435.7812" r="302.1732" gradientTransform="matrix(0.8464 0 0 -0.8464 94.5631 -5512.2808)" gradientUnits="userSpaceOnUse">
				<stop  offset="0" style="stop-color:#50C6DF;stop-opacity:0.5"/>
				<stop  offset="0.37" style="stop-color:#3F79B7;stop-opacity:0.76"/>
				<stop  offset="0.74" style="stop-color:#32449C;stop-opacity:0.94"/>
				<stop  offset="1" style="stop-color:#2E3192"/>
			</radialGradient>
			<path class="st17" d="M457.2,51.9c-55.5,0-101.8-2.1-138.4-6.2c-51.8-5.8-81.1-15.3-89.6-29c-3.4-5.2-3.5-11.9-0.4-17.2
				c8.5-15.2,40.6-23.5,66.4-23.5c21.7,0,36.7-9.8,44.7-29.1c6.5-15.6-0.3-37.3-4.1-59.5c-3.3-19.5-1.9-62.1-9.5-69.7l22.5,15.6
				c0,16-1.9,28.5,2,51.6c2.5,14.7,13.4,43,3.1,67.9c-10.4,25.2-30.8,38.6-58.8,38.6c-27.5,0-49.4,9.1-53.1,15.7
				c-0.5,0.5-0.5,1.3,0,1.8c2,3.3,23.7,27.9,215.1,27.9c35.5,0,76.7-0.8,124.8-2.8c97.3-4,173.5-16.6,226.5-37.3
				c41.5-16.3,68.5-37.4,80.3-62.8c21.2-45.6-12.8-83-16.6-100.6l13.7-5.3c3.8,11.4,11.4,18.4,18.4,37.9c9.3,26.2,8.8,52-1.7,74.4
				C889.1-30.7,859.3-7,814.1,10.8C759.6,32.1,681.7,45,582.7,49.1C536.7,51,494.9,51.9,457.2,51.9z"/>
			<path class="st2" d="M457.2,60.3c-55.5,0-101.8-2.1-138.4-6.2c-51.8-5.8-81.1-15.3-89.6-29c-3.4-5.2-3.5-11.9-0.4-17.2
				c8.5-15.2,40.6-23.5,66.4-23.5c21.7,0,36.7-9.8,44.7-29.1c6.5-15.6-0.3-37.3-4.1-59.5c-3.3-19.5-1.9-62.1-9.5-69.7l22.5,15.6
				c0,16-1.9,28.5,2,51.6c2.5,14.7,13.4,43,3.1,67.9c-10.4,25.2-30.8,38.5-58.8,38.5c-27.5,0-49.4,9.1-53.1,15.7
				c-0.5,0.5-0.5,1.3,0,1.8c2,3.3,23.7,27.9,215.1,27.9c35.5,0,76.7-0.8,124.8-2.8c97.3-4,173.5-16.6,226.5-37.3
				C850-11.3,877-32.5,888.9-57.9c21.2-45.6-12.8-83-16.6-100.6l13.7-5.3c3.8,11.4,11.4,18.4,18.4,37.9c9.3,26.2,8.8,52-1.7,74.4
				c-13.5,29.1-43.3,52.9-88.6,70.6c-54.5,21.4-132.3,34.3-231.4,38.3C536.7,59.4,494.9,60.3,457.2,60.3z"/>
		</g>
	</g>
	<path class="st10" d="M886.2-312.2c0,0,15.3,46.2-33.1,76.5c-13.5,11.5-4.1,37.8,6.6,34c6.3-2.3,46.4-27.4,49.5-57.8
		C910.3-270.2,886.2-312.2,886.2-312.2z"/>
	
		<ellipse transform="matrix(0.9103 -0.4139 0.4139 0.9103 204.4915 352.3307)" class="st2" cx="915.3" cy="-295.7" rx="3.1" ry="7.1"/>
	
		<ellipse transform="matrix(0.9103 -0.4139 0.4139 0.9103 201.9951 345.0594)" class="st2" cx="897.3" cy="-293.6" rx="3.1" ry="7.1"/>
	<polygon class="st10" points="872.5,-257.6 847.7,-308.4 844.2,-298.3 812.1,-339.5 809.7,-329.1 782.1,-362.3 784,-331.5 
		812,-304.1 815.7,-320.6 848.2,-281.7 850.4,-290.6 	"/>
	<polygon class="st10" points="903.3,-269.1 899.2,-325.5 907.3,-318.5 914.3,-370.3 921.6,-362.4 928.7,-405 942.6,-377.5 
		932.2,-339.7 920.7,-352.1 912.3,-302.1 905.8,-308.7 	"/>
	<path class="st11" d="M911.1-258.1c-0.9,0-1.9-0.4-2.5-1l-7.8-7.3c-1.4-1.5-1.3-3.9,0.2-5.3c1.4-1.3,3.5-1.3,4.9-0.2l7.8,7.3
		c1.5,1.4,1.6,3.8,0.2,5.3C913.1-258.5,912.1-258.1,911.1-258.1L911.1-258.1z"/>
	<path class="st10" d="M966.3-329.5c3.1,3.7,5.8,7.6,8.1,11.8c1.2,2.1,2.2,4.3,3.2,6.5c0.5,1.1,0.8,2.3,1.3,3.4
		c0.4,1.1,0.8,2.3,1.1,3.5c1.4,4.8,2,9.7,2,14.6c-0.1,5-0.9,9.9-2.5,14.7c-3.2,9.5-9.2,17.7-16.4,24.2c-7.2,6.5-15.6,11.4-24.8,14.4
		c8.1-4.8,15.4-10.6,21.9-17.4c6.3-6.7,11.5-14.4,14.3-22.9c1.4-4.3,2.3-8.7,2.5-13.2c0.2-4.5-0.1-9.1-1-13.5l-0.3-1.7
		c-0.1-0.6-0.3-1.1-0.4-1.7c-0.3-1.1-0.6-2.2-0.8-3.3c-0.7-2.2-1.4-4.4-2.3-6.6C970.5-321.1,968.3-325.2,966.3-329.5z"/>
	<path class="st9" d="M941.5-343.2c0,0,30.5,37.3-8,67.7c-38.5,30.4-4.2,43,4.6,39.2c17.4-7.5,63.9-39.2,28.2-93.2"/>
	<path class="st2" d="M878.6-163.4c-3.3,0-6.2-2.2-7.2-5.4c-2.2-7.5-3.9-15.1-5.2-22.9c-3.2-18.5-3.9-37.4-2.1-56.1
		c0.4-4.1,4-7.1,8.1-6.8c4.1,0.4,7.1,4,6.8,8.1c0,0,0,0.1,0,0.1c-2.3,24.7,0,49.6,6.8,73.4c1.1,3.9-1.1,8.1-5.1,9.2
		C880-163.5,879.3-163.4,878.6-163.4z"/>
	<path class="st11" d="M871.5-243.3h-0.3c-2-0.2-3.6-2-3.4-4c0,0,0,0,0,0l0.9-10.6c0.2-2,2-3.6,4-3.4s3.6,2,3.4,4l0,0l-1,10.6
		C875.1-244.8,873.5-243.3,871.5-243.3z"/>
	
		<ellipse transform="matrix(0.9239 -0.3827 0.3827 0.9239 217.7528 296.4207)" class="st11" cx="854" cy="-399.1" rx="26.7" ry="26.7"/>
	<path class="st10" d="M834.1-396.2c-1.6,0-3-1.3-3-3c0-12.6,10.2-22.9,22.9-22.9l0,0c1.6,0.1,2.9,1.5,2.8,3.1
		c-0.1,1.5-1.3,2.7-2.8,2.8c-9.3,0-16.8,7.5-16.9,16.9C837.2-397.5,835.9-396.2,834.1-396.2C834.2-396.2,834.2-396.2,834.1-396.2z"
		/>
	<path class="st10" d="M950.4-324.9c0,0,7.4,2.6,1.5,22.5c-3.3,10.6-9.7,20-18.4,26.8c-4.7,3.6-8.9,7.7-12.6,12.4
		c9.9-17,30.7-21.7,26.6-46.8C945.3-323.6,950.4-324.9,950.4-324.9z"/>
	<path class="st2" d="M323.8-191.2h30.5c5,0,9.1,4.1,9.1,9.1v1.5c0,5-4.1,9.1-9.1,9.1h-30.5c-5,0-9.1-4.1-9.1-9.1v-1.5
		C314.7-187.1,318.8-191.2,323.8-191.2z"/>
	<path class="st2" d="M331.5-177.5h19c2.9,0,5.3,2.4,5.3,5.3v0c0,2.9-2.4,5.3-5.3,5.3h-19c-2.9,0-5.3-2.4-5.3-5.3v0
		C326.1-175.1,328.5-177.5,331.5-177.5z"/>
</g>
<g id="background_details_4_">
	<circle class="st18" cx="600" cy="-3880.8" r="161.9"/>
</g>
<g id="background_details_3_">
	<circle class="st19" cx="242.7" cy="-3931.2" r="323.4"/>
</g>
<g id="background_details_5_">
	
		<linearGradient id="SVGID_12_" gradientUnits="userSpaceOnUse" x1="-46.0016" y1="-4672.1045" x2="1454.4705" y2="-4672.1045" gradientTransform="matrix(0.8464 0 0 -0.8464 94.5631 -5512.2808)">
		<stop  offset="0" style="stop-color:#50C6DF"/>
		<stop  offset="0.29" style="stop-color:#4FC4DE"/>
		<stop  offset="0.45" style="stop-color:#4EBCDA"/>
		<stop  offset="0.58" style="stop-color:#4BAED3"/>
		<stop  offset="0.69" style="stop-color:#469AC8"/>
		<stop  offset="0.8" style="stop-color:#4081BB"/>
		<stop  offset="0.89" style="stop-color:#3962AB"/>
		<stop  offset="0.97" style="stop-color:#313E99"/>
		<stop  offset="1" style="stop-color:#2E3192"/>
	</linearGradient>
	<path class="st20" d="M-36.5-1509.4c163-89.9,709.4,156.9,1224.3-221.7c31.2-31.2-46.5,255.2-179.8,244.5
		c-189.7-15.2-301.4-42.3-468.2,77c-71,50.8-567.9,14.4-567.9,14.4S-128.5-1458.7-36.5-1509.4z"/>
	<path class="st1" d="M47.3-1625.8c179-6.1,444.1,151.6,628.4,72.4c-184.3,92.2-387-28.9-686.3,4.6
		C-191.8-1621.3,28.1-1625.1,47.3-1625.8z"/>
</g>
<g id="Schedule">
	<ellipse class="st6" cx="185.2" cy="-1292.7" rx="185.9" ry="48.8"/>
	<path class="st10" d="M297.5-1388.7c11.7,30.9,78.1,90.4,23.7,106.3c-55.2,16.1-28.1-74.2-46.8-104.3
		C281.3-1387.3,290.8-1389.8,297.5-1388.7z"/>
	<path class="st10" d="M272-1257.6c55.4-3.2,34.8-96.6-16.8-75.2C224.1-1319.8,239.5-1255.6,272-1257.6"/>
	<path class="st9" d="M272-1257.6c2.4-0.2,4.7-0.7,7-1.3c2.3-0.6,4.5-1.4,6.6-2.5c4.2-2.1,7.9-5.1,10.7-8.8c2.8-3.7,4.8-8,5.8-12.5
		c1.1-4.5,1.4-9.2,1.1-13.8c-0.8-9.2-4-18.4-9.7-25.5c-2.8-3.6-6.3-6.6-10.3-8.8c-4-2.1-8.4-3.2-12.9-3.3c-2.3,0-4.5,0.2-6.8,0.6
		c-1.1,0.2-2.2,0.5-3.3,0.8c-1.1,0.3-2.2,0.7-3.3,1.1c-2.1,0.8-4.1,1.8-5.9,3.1c-0.5,0.3-0.8,0.7-1.3,1c-0.4,0.3-0.9,0.7-1.2,1.1
		l-1.1,1.2c-0.4,0.4-0.8,0.8-1.1,1.3c-2.8,3.6-4.7,7.8-5.6,12.3c-0.9,4.5-1.2,9.2-0.9,13.8c0.3,4.7,1.2,9.3,2.7,13.7
		c1.4,4.5,3.4,8.7,6.1,12.6c2.6,3.9,5.9,7.3,9.8,9.9C262.6-1258.9,267.2-1257.6,272-1257.6l-1.8,0c-0.6,0.1-1.2,0.1-1.8,0
		c-1.2,0-2.4-0.2-3.5-0.4c-0.6-0.1-1.2-0.2-1.8-0.4l-1.7-0.6l-0.8-0.3l-0.8-0.4l-1.7-0.8c-4.2-2.5-7.9-5.8-10.8-9.8
		c-5.7-8-9.3-17.4-10.2-27.2c-0.5-4.9-0.3-9.9,0.6-14.8c0.9-5,3-9.7,6-13.8c0.8-1,1.6-2,2.5-2.9c0.5-0.5,0.9-0.9,1.4-1.3
		c0.5-0.4,1-0.8,1.5-1.2l1.6-1.1l0.8-0.5c0.3-0.2,0.6-0.3,0.8-0.4c1.1-0.6,2.3-1.1,3.5-1.6c1.1-0.5,2.3-0.8,3.5-1.2
		c1.2-0.4,2.4-0.7,3.6-0.9c2.5-0.5,5-0.8,7.5-0.7c5.1,0.1,10.1,1.4,14.6,3.8c4.4,2.4,8.3,5.8,11.3,9.8c3,4,5.4,8.4,7,13.1
		c1.6,4.7,2.6,9.5,2.8,14.5c0.3,4.9-0.3,9.9-1.6,14.6c-1.3,4.8-3.6,9.2-6.8,13c-3.2,3.8-7.2,6.7-11.8,8.6c-2.2,0.9-4.6,1.6-6.9,2.1
		C276.9-1257.8,274.4-1257.6,272-1257.6z"/>
	<path class="st9" d="M148.4-1322.9c0,0,8.8,36.7,54.2,72.3c49.8,28.3,62.9-44.4,62.9-44.4s21.8-2.5,42.9-29.4
		c8.9-11.3,17.7-27.1,24.6-48.7c21.9-68.6-17.9-83.5-17.9-83.5c2-0.2,11.8-2.4,18.5-13.7c7.5-12.8-0.3-27.3-2.7-31.7
		c-1-1.9-2.2-3.8-3.6-5.5l-6.8,5.2l-6.7-1.5c0.3,4.1-0.3,8.2-1.6,12.1c-5.9,16.8-25.5,22.3-43.8,30c-45.2,19-79,50.4-95.2,73.2
		C163.5-1375.4,143.6-1346.2,148.4-1322.9z"/>
	<path class="st10" d="M213.6-1253.5c27.3,12.9,38.9-16.2,42.6-29.2c0.2-0.6-0.2-1.2-0.8-1.4c-0.4-0.1-0.9,0-1.2,0.4
		c-6.2,8.5-20.7,25-40.4,28c-0.6,0.1-1,0.7-0.9,1.3C213.1-1254,213.3-1253.7,213.6-1253.5z"/>
	<path class="st10" d="M201.4-1316.5c0.6,0.7,19.6,24.5,64,21.6c0,0,20.1,0.2,43-29.5c-7.5,5.8-15.8,10.4-24.6,13.7
		C256.7-1300.5,224.2-1301.1,201.4-1316.5z"/>
	<path class="st10" d="M177.6-1274.4c0,0,16.1-7.3,18.3-25.9c5.3-44.9,17-71.9,17-71.9S167.4-1336.8,177.6-1274.4z"/>
	<path class="st9" d="M186.8-1291.8c-4.6,41.2-86.5,31.1-45.5-34.7c17-27.2,60.5-57.7,64.4-89.5c5.8,1.3,18.9,7.8,23.3,11.6
		C207-1371.9,191.2-1330.6,186.8-1291.8z"/>
	
		<ellipse transform="matrix(0.4139 -0.9103 0.9103 0.4139 1421.8879 -533.8861)" class="st2" cx="296.3" cy="-1371.2" rx="10.3" ry="4.5"/>
	<polygon class="st9" points="345.9,-1574.9 311.1,-1546.4 265,-1555.9 300.8,-1585.2 	"/>
	<polygon class="st10" points="319.5,-1506 311.1,-1546.4 345.9,-1574.9 355.3,-1535.3 	"/>
	<polygon class="st11" points="274.4,-1516.3 265,-1555.9 311.1,-1546.4 319.5,-1506 	"/>
</g>
<linearGradient id="SVGID_13_" gradientUnits="userSpaceOnUse" x1="575.0919" y1="-2224.0305" x2="575.0919" y2="-497.7006" gradientTransform="matrix(0.8464 0 0 -0.8464 94.5631 -5512.2808)">
	<stop  offset="0" style="stop-color:#FEF8C0"/>
	<stop  offset="0.39" style="stop-color:#FEF8C2"/>
	<stop  offset="0.59" style="stop-color:#FEF9CA"/>
	<stop  offset="0.75" style="stop-color:#FEFBD8"/>
	<stop  offset="0.89" style="stop-color:#FFFDEB"/>
	<stop  offset="1" style="stop-color:#FFFFFF"/>
</linearGradient>
<path class="st21" d="M0-5091c29.4,40.3,1162.6,0,1162.6,0v1059.7c-126.8-75.5-288.8-119.4-452.3-119.4
	c-308.9,0-576.1,290.9-710.3,520.8C0-4197.4,2.6-4853.5,0-5091z"/>
<linearGradient id="SVGID_14_" gradientUnits="userSpaceOnUse" x1="575.0919" y1="-53.036" x2="575.0919" y2="-1479.766" gradientTransform="matrix(0.8464 0 0 -0.8464 94.5631 -5512.2808)">
	<stop  offset="0" style="stop-color:#FEF8C0"/>
	<stop  offset="0.11" style="stop-color:#FEF0A9"/>
	<stop  offset="0.23" style="stop-color:#FFEA97"/>
	<stop  offset="0.38" style="stop-color:#FFE68A"/>
	<stop  offset="0.57" style="stop-color:#FFE483"/>
	<stop  offset="1" style="stop-color:#FFE381"/>
</linearGradient>
<path class="st22" d="M1162.6-5467.4c-29.4,40.3-77.9,78.9-106.5,93.3c-8.9,4.4-77.3,32.8-239.5,0c-60.5-12.2-186.3,74.6-246.2,89.1
	C454.2-5256.9,0-5235.5,0-5235.5v574.3c126.9-75.5,278.9-119.4,442.4-119.4c308.9,0,586,290.9,720.2,520.8
	C1162.6-4827.3,1160-5229.8,1162.6-5467.4z"/>
<g id="Layer_12">
	<circle class="st2" cx="627.7" cy="-6328.8" r="27.5"/>
</g>
<g id="Layer_12_1_">
	<circle class="st6" cx="296.4" cy="-6139.6" r="23.6"/>
</g>
<g id="Layer_12_2_">
	<circle class="st6" cx="85.9" cy="-6207.5" r="39.2"/>
</g>
<g id="Layer_12_3_">
	<circle class="st2" cx="85.4" cy="-5966.9" r="32.4"/>
</g>
<g id="Layer_12_15_">
	<circle class="st9" cx="185.6" cy="-4187.3" r="21.9"/>
</g>
<g id="Layer_12_16_">
	<circle class="st23" cx="504.8" cy="-3914.4" r="20.6"/>
</g>
<g id="Layer_12_17_">
	<circle class="st9" cx="92.1" cy="-4065.1" r="20.9"/>
</g>
<g id="Layer_12_18_">
	<circle class="st24" cx="313.8" cy="-3905.4" r="26.9"/>
</g>
<g id="Layer_12_19_">
	<circle class="st25" cx="127.1" cy="-3836.9" r="59.7"/>
</g>
<g id="Layer_12_20_">
	<circle class="st25" cx="389.9" cy="-4014" r="27.2"/>
</g>
<g id="Layer_12_21_">
	<circle class="st9" cx="405.8" cy="-5129.9" r="20"/>
</g>
<g id="Layer_12_22_">
	<circle class="st9" cx="164.1" cy="-5090.8" r="52.2"/>
</g>
<g id="Layer_12_23_">
	<circle class="st25" cx="178.5" cy="-5227.1" r="37.8"/>
</g>
<g id="SVGgroupcirc">
	<circle class="st25" cx="434.4" cy="-3946.6" r="20"/>
	<circle class="st25" cx="267.6" cy="-3775.2" r="20"/>
	<ellipse class="st9" cx="55.9" cy="-3945" rx="49.7" ry="49.4"/>
	
		<ellipse transform="matrix(3.936908e-03 -1 1 3.936908e-03 3925.6453 -3761.4373)" class="st25" cx="74.7" cy="-3851.3" rx="27.2" ry="27.2"/>
	<circle class="st9" cx="153.1" cy="-3966.6" r="40"/>
	<circle class="st25" cx="256.9" cy="-3901" r="56.3"/>
	<circle class="st25" cx="207.2" cy="-4043.8" r="37.8"/>
	
		<ellipse transform="matrix(0.9996 -2.937369e-02 2.937369e-02 0.9996 122.6049 0.384)" class="st25" cx="74.4" cy="-4172.9" rx="38.8" ry="38.8"/>
	<circle class="st25" cx="381.6" cy="-3863.8" r="27.2"/>
</g>
<g id="Layer_12_24_">
	<circle class="st2" cx="390.9" cy="-6314.3" r="27.5"/>
</g>
<g id="SVGgroupcirc_1_">
	<circle class="st9" cx="484.5" cy="-5089.2" r="20.6"/>
	<ellipse class="st9" cx="34.3" cy="-5140.5" rx="49.7" ry="49.4"/>
	<circle class="st25" cx="46" cy="-5034.5" r="27.2"/>
	<circle class="st9" cx="124.5" cy="-5149.9" r="40"/>
	<circle class="st25" cx="228.2" cy="-5084.2" r="56.3"/>
	<circle class="st9" cx="352.9" cy="-5196.4" r="27.2"/>
	<circle class="st25" cx="63.5" cy="-5283.3" r="38.8"/>
	
		<ellipse transform="matrix(2.172370e-02 -0.9998 0.9998 2.172370e-02 5272.5801 -5089.6035)" class="st9" cx="35.6" cy="-5239" rx="20.9" ry="20.9"/>
	<circle class="st9" cx="285.1" cy="-5088.6" r="26.9"/>
	
		<ellipse transform="matrix(2.628851e-02 -0.9997 0.9997 2.628851e-02 5114.3633 -4789.6938)" class="st25" cx="98.5" cy="-5020.2" rx="59.7" ry="59.7"/>
	<circle class="st9" cx="352.9" cy="-5047" r="27.2"/>
	<circle class="st9" cx="666.6" cy="-5227.3" r="24.4"/>
	<circle class="st9" cx="961" cy="-5274.9" r="63.6"/>
	<ellipse class="st9" cx="1085.2" cy="-5214.4" rx="60.6" ry="60.2"/>
	<circle class="st25" cx="1105" cy="-5343.5" r="33.1"/>
	<circle class="st9" cx="1009.4" cy="-5202.9" r="48.8"/>
	<circle class="st25" cx="883" cy="-5282.9" r="68.6"/>
	<circle class="st9" cx="731" cy="-5146.2" r="33.1"/>
	<circle class="st25" cx="943.5" cy="-5108.9" r="46.1"/>
	<circle class="st25" cx="1105.4" cy="-4951.6" r="47.2"/>
	<circle class="st9" cx="969.8" cy="-4934" r="26.7"/>
	<circle class="st9" cx="731" cy="-5328.2" r="33.1"/>
</g>
<g id="SVGgroupcirc_2_">
	
		<rect x="261.7" y="-6376.3" transform="matrix(0.8439 -0.5366 0.5366 0.8439 3456.6919 -845.2378)" class="st26" width="28.8" height="28.8"/>
	<circle class="st2" cx="276.1" cy="-6362" r="14.4"/>
	<circle class="st2" cx="352.7" cy="-6372.9" r="20.5"/>
	
		<rect x="174.9" y="-6379.9" transform="matrix(0.8439 -0.5366 0.5366 0.8439 3446.0532 -894.1482)" class="st26" width="23.5" height="23.5"/>
	<circle class="st2" cx="186.7" cy="-6368.2" r="11.8"/>
	
		<rect x="363.3" y="-6341.7" transform="matrix(0.8439 -0.5366 0.5366 0.8439 3448.9822 -776.2153)" class="st26" width="55.1" height="55.1"/>
	<circle class="st6" cx="308.8" cy="-6353.7" r="36.4"/>
	
		<rect x="186.1" y="-6380.2" transform="matrix(0.8439 -0.5366 0.5366 0.8439 3444.6838 -882.1703)" class="st26" width="40.9" height="40.9"/>
	<circle class="st2" cx="206.6" cy="-6359.8" r="20.5"/>
	
		<rect x="358" y="-6399.5" transform="matrix(0.8439 -0.5366 0.5366 0.8439 3477.9924 -785.9141)" class="st26" width="61.2" height="61.2"/>
	<circle class="st2" cx="388.7" cy="-6368.9" r="30.6"/>
	
		<rect x="216.5" y="-6359.8" transform="matrix(0.8439 -0.5366 0.5366 0.8439 3441.3772 -868.0241)" class="st26" width="25.5" height="25.5"/>
	<circle class="st2" cx="229.3" cy="-6347.1" r="12.7"/>
	
		<rect x="280.4" y="-6380.1" transform="matrix(0.8412 -0.5408 0.5408 0.8412 3487.719 -849.0326)" class="st26" width="36.1" height="36.1"/>
	<circle class="st2" cx="297.3" cy="-6358.4" r="18.1"/>
	
		<rect x="149.8" y="-6385" transform="matrix(0.8439 -0.5366 0.5366 0.8439 3442.9043 -904.8817)" class="st26" width="33.8" height="33.8"/>
	<circle class="st2" cx="166.7" cy="-6368.1" r="16.9"/>
	
		<rect x="887.8" y="-6371" transform="matrix(0.8439 -0.5366 0.5366 0.8439 3551.5793 -508.4207)" class="st26" width="28.8" height="28.8"/>
	<circle class="st2" cx="902.2" cy="-6356.7" r="14.4"/>
	<circle class="st2" cx="978.8" cy="-6367.6" r="20.5"/>
	
		<rect x="801.1" y="-6374.5" transform="matrix(0.8439 -0.5366 0.5366 0.8439 3540.9407 -557.3311)" class="st26" width="23.5" height="23.5"/>
	<circle class="st2" cx="812.9" cy="-6362.8" r="11.8"/>
	
		<rect x="989.4" y="-6336.3" transform="matrix(0.8439 -0.5366 0.5366 0.8439 3543.8652 -439.3969)" class="st26" width="55.1" height="55.1"/>
	<circle class="st2" cx="1017" cy="-6308.9" r="27.5"/>
	<circle class="st2" cx="934.9" cy="-6348.4" r="36.4"/>
	
		<rect x="812.3" y="-6374.9" transform="matrix(0.8439 -0.5366 0.5366 0.8439 3539.5715 -545.3532)" class="st26" width="40.9" height="40.9"/>
	<circle class="st2" cx="832.8" cy="-6354.5" r="20.5"/>
	<circle class="st2" cx="1014.8" cy="-6363.6" r="30.6"/>
	
		<rect x="842.7" y="-6354.4" transform="matrix(0.8439 -0.5366 0.5366 0.8439 3536.26 -531.2057)" class="st26" width="25.5" height="25.5"/>
	<circle class="st2" cx="855.4" cy="-6341.7" r="12.7"/>
	
		<rect x="905.3" y="-6371.1" transform="matrix(0.8439 -0.5366 0.5366 0.8439 3552.9802 -496.4838)" class="st26" width="36.2" height="36.2"/>
	<circle class="st2" cx="923.4" cy="-6353.1" r="18.1"/>
	
		<rect x="775.9" y="-6379.6" transform="matrix(0.8439 -0.5366 0.5366 0.8439 3537.7917 -568.0646)" class="st26" width="33.8" height="33.8"/>
	<circle class="st2" cx="792.9" cy="-6362.8" r="16.9"/>
	
		<rect x="498.6" y="-6390.8" transform="matrix(0.8439 -0.5366 0.5366 0.8439 3501.4412 -720.3793)" class="st26" width="28.8" height="28.8"/>
	<circle class="st2" cx="513" cy="-6376.5" r="14.4"/>
	<circle class="st2" cx="423.6" cy="-6382.6" r="11.8"/>
	
		<rect x="600.2" y="-6356.2" transform="matrix(0.8439 -0.5366 0.5366 0.8439 3493.7268 -651.3555)" class="st26" width="55.1" height="55.1"/>
	
		<rect x="509.2" y="-6404.5" transform="matrix(0.8439 -0.5366 0.5366 0.8439 3502.0835 -701.534)" class="st26" width="72.8" height="72.8"/>
	<circle class="st6" cx="545.7" cy="-6368.2" r="36.4"/>
	
		<rect x="423" y="-6394.7" transform="matrix(0.8439 -0.5366 0.5366 0.8439 3489.4331 -757.3118)" class="st26" width="40.9" height="40.9"/>
	
		<ellipse transform="matrix(0.9239 -0.3827 0.3827 0.9239 2473.1016 -315.4851)" class="st2" cx="443.5" cy="-6374.3" rx="20.5" ry="20.5"/>
	
		<rect x="453.4" y="-6374.2" transform="matrix(0.8439 -0.5366 0.5366 0.8439 3486.1265 -743.1656)" class="st26" width="25.5" height="25.5"/>
	<circle class="st2" cx="466.2" cy="-6361.5" r="12.7"/>
	
		<rect x="516.1" y="-6390.9" transform="matrix(0.8439 -0.5366 0.5366 0.8439 3502.842 -708.4424)" class="st26" width="36.2" height="36.2"/>
	<circle class="st2" cx="534.2" cy="-6372.9" r="18.1"/>
	
		<rect x="386.7" y="-6399.5" transform="matrix(0.8439 -0.5366 0.5366 0.8439 3487.6533 -780.0233)" class="st26" width="33.8" height="33.8"/>
	<circle class="st2" cx="403.6" cy="-6382.6" r="16.9"/>
	<rect x="921.4" y="-6387" class="st26" width="39.2" height="39.2"/>
	<circle class="st2" cx="941" cy="-6367.5" r="19.6"/>
	<rect x="718.5" y="-6369.1" class="st26" width="46.8" height="46.8"/>
	<circle class="st2" cx="741.9" cy="-6345.7" r="23.4"/>
	<rect x="200.7" y="-6359.1" class="st26" width="46" height="46"/>
	<circle class="st2" cx="223.7" cy="-6336.1" r="23"/>
	<rect x="333.4" y="-6309" class="st26" width="23.9" height="23.9"/>
	<circle class="st2" cx="345.4" cy="-6297.1" r="12"/>
	<rect x="347" y="-6275.3" class="st26" width="44.9" height="44.9"/>
	<circle class="st2" cx="369.4" cy="-6252.8" r="22.5"/>
	<rect x="409.3" y="-6224.5" class="st26" width="28.6" height="28.6"/>
	<circle class="st2" cx="423.6" cy="-6210.2" r="14.3"/>
	<rect x="446" y="-6402" class="st26" width="75.3" height="75.3"/>
	<circle class="st2" cx="483.7" cy="-6364.3" r="37.7"/>
	<rect x="663.2" y="-6320" class="st26" width="39.2" height="39.2"/>
	<circle class="st2" cx="682.8" cy="-6300.4" r="19.6"/>
	<rect x="460.3" y="-6302" class="st26" width="46.8" height="46.8"/>
	<circle class="st2" cx="483.7" cy="-6278.6" r="23.4"/>
	<rect x="107.9" y="-6346.3" class="st26" width="23.9" height="23.9"/>
	<circle class="st2" cx="119.9" cy="-6334.4" r="12"/>
	<rect x="121.5" y="-6312.6" class="st26" width="44.9" height="44.9"/>
	<circle class="st2" cx="143.9" cy="-6290.1" r="22.5"/>
	<rect x="183.9" y="-6261.9" class="st26" width="28.6" height="28.6"/>
	<circle class="st2" cx="198.2" cy="-6247.6" r="14.3"/>
	
		<rect x="96.1" y="-6327.4" transform="matrix(0.8617 -0.5074 0.5074 0.8617 3205.4465 -794.2048)" class="st26" width="99.2" height="99.2"/>
	
		<ellipse transform="matrix(0.9985 -5.530037e-02 5.530037e-02 0.9985 347.3893 -1.5523)" class="st6" cx="145.6" cy="-6277.8" rx="49.6" ry="49.6"/>
	
		<rect x="256.6" y="-6292.6" transform="matrix(0.8617 -0.5074 0.5074 0.8617 3217.9753 -721.9811)" class="st26" width="55.7" height="55.7"/>
	<circle class="st6" cx="284.4" cy="-6264.7" r="27.9"/>
	<rect x="114.2" y="-6353.9" class="st26" width="68.8" height="68.8"/>
	<circle class="st6" cx="148.7" cy="-6319.4" r="34.4"/>
	<rect x="188.2" y="-6372" class="st26" width="52.5" height="52.5"/>
	<circle class="st6" cx="214.4" cy="-6345.8" r="26.2"/>
	<rect x="347.4" y="-6252" class="st26" width="44.3" height="44.3"/>
	<circle class="st6" cx="369.5" cy="-6229.8" r="22.1"/>
	<rect x="233.7" y="-6268.4" class="st26" width="43.7" height="43.7"/>
	<circle class="st6" cx="255.5" cy="-6246.6" r="21.8"/>
	<rect x="318.9" y="-6358.9" class="st26" width="39.2" height="39.2"/>
	<circle class="st2" cx="338.5" cy="-6339.3" r="19.6"/>
	<rect x="116" y="-6340.9" class="st26" width="46.8" height="46.8"/>
	<circle class="st2" cx="139.4" cy="-6317.5" r="23.4"/>
	<circle class="st6" cx="70.9" cy="-6086.1" r="63.2"/>
	<circle class="st6" cx="160.9" cy="-6118" r="53.3"/>
	
		<ellipse transform="matrix(3.327792e-02 -0.9994 0.9994 3.327792e-02 6147.0835 -5594.1953)" class="st6" cx="181.8" cy="-5974.7" rx="38.5" ry="38.5"/>
	<circle class="st6" cx="45.2" cy="-5936.5" r="35"/>
	<circle class="st6" cx="1071.5" cy="-6197.9" r="62.8"/>
	<circle class="st6" cx="77.4" cy="-6295.4" r="62.8"/>
	<circle class="st6" cx="1098.9" cy="-6280.9" r="35.4"/>
	<circle class="st6" cx="832.7" cy="-6272.9" r="27.4"/>
	
		<ellipse transform="matrix(3.327792e-02 -0.9994 0.9994 3.327792e-02 6199.5947 -5737.8555)" class="st2" cx="133.8" cy="-6073.7" rx="35.4" ry="35.4"/>
	<circle class="st2" cx="115" cy="-5994.4" r="19"/>
	<circle class="st2" cx="224.8" cy="-6144.9" r="18.3"/>
	<circle class="st2" cx="764.9" cy="-6326.2" r="51.8"/>
	<circle class="st2" cx="832.7" cy="-6290.4" r="17.5"/>
	<circle class="st2" cx="716.5" cy="-6335" r="15.6"/>
	<circle class="st2" cx="173.9" cy="-6182.3" r="38.5"/>
	
		<ellipse transform="matrix(4.302802e-03 -1 1 4.302802e-03 6186.4399 -6156.5342)" class="st2" cx="1.7" cy="-6184.8" rx="38.5" ry="38.5"/>
	<circle class="st6" cx="989.2" cy="-6271" r="43"/>
	<circle class="st2" cx="1049" cy="-6203.6" r="24.4"/>
	<circle class="st2" cx="983.1" cy="-6315.2" r="31.6"/>
</g>
<g id="Layer_12_9_">
	<circle class="st2" cx="987.5" cy="-6676.2" r="24.2"/>
</g>
<g id="Layer_12_10_">
	<circle class="st2" cx="1083.5" cy="-6743.7" r="18.4"/>
</g>
<g id="Layer_12_11_">
	<circle class="st2" cx="1090.1" cy="-6806.1" r="24.7"/>
</g>
<g id="Layer_12_12_">
	<circle class="st2" cx="974.4" cy="-6714" r="11.4"/>
</g>
<g id="Layer_12_13_">
	<circle class="st2" cx="1148.1" cy="-6705.5" r="20.3"/>
</g>
<g id="Layer_12_14_">
	<circle class="st6" cx="822.9" cy="-6735" r="15.7"/>
</g>
<g id="Layer_12_4_">
	<circle class="st2" cx="68.7" cy="-6636" r="20.6"/>
</g>
<g id="Layer_12_5_">
	
		<ellipse transform="matrix(6.172423e-03 -1 1 6.172423e-03 6647.8125 -6595.6494)" class="st2" cx="5.7" cy="-6642.3" rx="13.1" ry="13.1"/>
</g>
<g id="Layer_12_6_">
	<circle class="st2" cx="196.8" cy="-6577.2" r="21"/>
</g>
<g id="Layer_12_7_">
	<circle class="st6" cx="292.2" cy="-6777.1" r="8.8"/>
</g>
<g id="Layer_12_8_">
	<circle class="st6" cx="155.4" cy="-6664" r="38.8"/>
</g>
<g id="background_details_8_">
	
		<linearGradient id="background_30_1_" gradientUnits="userSpaceOnUse" x1="24.529" y1="1554.5396" x2="24.529" y2="1951.7791" gradientTransform="matrix(0.84 0.104 0.104 -0.84 367.8118 -5325.5884)">
		<stop  offset="0" style="stop-color:#2E3192"/>
		<stop  offset="5.000000e-02" style="stop-color:#3550A2"/>
		<stop  offset="0.1" style="stop-color:#3C6FB2"/>
		<stop  offset="0.17" style="stop-color:#428BC0"/>
		<stop  offset="0.24" style="stop-color:#47A1CC"/>
		<stop  offset="0.33" style="stop-color:#4BB2D4"/>
		<stop  offset="0.44" style="stop-color:#4EBDDB"/>
		<stop  offset="0.58" style="stop-color:#50C4DE"/>
		<stop  offset="1" style="stop-color:#50C6DF"/>
	</linearGradient>
	<path id="background_30" class="st27" d="M1169.7-6849.7c-22.7-2.8-56.9,11.7-56.9,11.7c2.3-4.8,5.8-12.1,2.7-15
		c-2.2-2.1-10.6,2.9-16.7,6.1c15.1-10.3,24.3-20.7,21.8-25.3c-2.7-4.8-21.1,3.5-36.5,15.7c2.9-3.3,5.8-6.8,8.7-10.6
		c13.9-18.6,20.4-26.4,16.7-30.9c-2.5-3-19.8,7.5-34.3,25.6c1.7-10.5,0.3-18.7-4.2-20.3c-4.1-1.5-8.8,32.8-16.9,28.9
		c-138.6-66.9-263.8-68.7-353.2-28.6c-14-17.9-54.7-19.6-83.3-20c-16-0.3-27.9,12.5-36.4,22.6c0.7-11.4-2.9-21.5-9.7-26.9
		c0.9-1.7,2.1-3.3,3.3-4.8c2.1-2.4,4.6-4.4,7.4-5.9c1.8,5.3,7.5,8.2,12.8,6.5c5.3-1.8,8.2-7.5,6.5-12.8s-7.5-8.2-12.8-6.5
		c-3.7,1.2-6.4,4.5-6.9,8.4c-0.1,0.6-0.1,1.1-0.1,1.7c-7.1,0.8-13.7,4.2-18.4,9.7c-12.8-2.5-27.4,8.4-34.2,25.8l0,0
		c-1.7-2-7.6-8.8-14.6-8.1c-6,0.6-10.5,6.4-13.7,12.3c-4.1,0.3-12.1,1.2-13.8,5.8c-1.3,3.4,1.6,7.1,8.3,16
		c14.2,19,14.3,41.7,13.4,42.9c-5.4-13.5-15.6-30.8-19.5-24c-3.3,5.8-2.2,24.7,3.7,32.3c-10.4-5.6-23.7-8.1-7.3,11
		c-6.9-3.1-51.1-16.1-62.6-12c-6,2.2-11.4,5.9-15.5,10.8c-8.2-0.7-16.5-0.4-24.6,1c-10,1.7-19.6,5-28.5,9.7
		c-21.5,0.5-42,9.3-57.1,24.7c-17.6-4.6-36.4-1.4-51.4,8.9c-18.1-5.2-24.7-102.8-42.7-108c-4.3-12.1-14.1-21.2-26-23.7
		c-14.8-3-28.5,5.2-35.8,13.7c-15.6-5.2-39-2.5-54.6,15.8c-12.2-36.1-70.9-48.6-94.3-50.3l-11.8,216.7l1156.1,126.1 M550.2-6900.6
		c-1.7,3.2-4.2,5.1-5.7,4.4s-1.3-4,0.3-7.2c1.7-3.2,4.2-5.1,5.7-4.4C552-6907,551.9-6903.8,550.2-6900.6z M565.7-6895.5
		c-1.7,3.2-4.2,5.1-5.7,4.4s-1.3-4,0.3-7.2c1.7-3.2,4.2-5.1,5.7-4.4C567.5-6901.9,567.3-6898.7,565.7-6895.5L565.7-6895.5z"/>
</g>
<g id="background_details_9_">
	
		<linearGradient id="SVGID_15_" gradientUnits="userSpaceOnUse" x1="508.6528" y1="1181.5109" x2="508.6528" y2="1692.4487" gradientTransform="matrix(0.8464 0 0 -0.8464 94.5631 -5512.2808)">
		<stop  offset="0" style="stop-color:#2E3192"/>
		<stop  offset="0.15" style="stop-color:#32419B"/>
		<stop  offset="0.46" style="stop-color:#3C6DB1"/>
		<stop  offset="0.88" style="stop-color:#4BB1D4"/>
		<stop  offset="1" style="stop-color:#50C6DF"/>
	</linearGradient>
	<path class="st28" d="M1162.8-6855.9c0,0-46.6-74.5-201.4-47.4c-7.2,1.3-46,11.2-79.7,21.9c-22.3-7-30.3-2.4-30.3-2.4
		c6.1-24.8,0-34.7-4.4-35.3c-4.8-0.6-10.4,4.9-14.8,14.6c-2.2-23-8.4-40.7-14.6-40.3c-6.7,0.4-10.7,21.5-9.1,47.1
		c0.3,4.8,0.8,9.4,1.4,13.7c-10.2-16.8-21-27.4-25.9-24.9c-4.7,2.4-2.7,16.1,4.2,33h0c-6.4-4-11.4-5.5-13.7-3.4
		c-1.3,1.2-1.6,3.4-1,6.3c-28.9-4.3-86.6-9.8-140.6,34.8c-24.5,20.3-35.5,22-45.3,28.1c-1.5-0.6-3.1-1.1-4.6-1.5
		c-11.1-2.8-22.6,0.7-27.4,4.2c-15.5-3-30.1,28.4-136.8,28.4c-75.3,0-93.9-63.5-127.1-71.1c3.6-3.4,4.6-8.8,4-9.2
		c-2-1.6-6.9-0.1-13.3,3.7c7.9-14.7,10.9-26.4,6.7-28.2c-4.5-1.9-15.5,7.7-26.6,22.4c0.9-3.7,1.8-7.6,2.4-11.6
		c3.6-21.7,1.4-39.3-4.9-39.3c-5.8,0-13.2,15.2-17.1,34.8c-3.3-8-8.3-12.8-12.8-11.6c-2.9,0.8-1,7.8,0.2,14.5
		c-7.1-17-35.5-46.5-58.7-46.5c-32.3,0-15.1,47.7-71.9,72.8c-37.8,16.7-56.5,0.5-56.5,0.5c-4-8.2-9-13.1-13.3-12.1
		c-4.7,1.1-7.1,9.1-6.7,19.7c-12.2-19.7-25.6-32.7-30.9-29.6c-5.8,3.3-0.1,24,12.8,46.2c2.4,4.1,4.9,8.1,7.3,11.6
		c-16.6-10.5-31-15.2-34.3-10.8c-3.1,4.2,4.7,15.6,18.4,27.7l0,0c-7.5-0.8-12.6,0.2-13.8,3c-0.8,2,0.4,4.6,3.1,7.6
		c-18.2,17.5-56.4,70.7-77.7,82.9c-8.3,4.7-14.5-2.3-17.5-2.2v122.6l-4.3,68.9l1277.2-10.2l-3.4-79.1"/>
</g>
<g id="SVGgroupcirc_3_">
	
		<rect x="201.4" y="-6664.5" transform="matrix(0.8439 -0.5366 0.5366 0.8439 3599.3157 -917.8835)" class="st26" width="42.3" height="42.3"/>
	
		<rect x="98.1" y="-6624.6" transform="matrix(0.8439 -0.5366 0.5366 0.8439 3565.6624 -974.1356)" class="st26" width="22" height="22"/>
	<circle class="st2" cx="109.1" cy="-6613.7" r="11"/>
	
		<rect x="48" y="-6656.7" transform="matrix(0.8439 -0.5366 0.5366 0.8439 3571.3745 -999.3298)" class="st26" width="41.2" height="41.2"/>
	
		<rect x="-7.5" y="-6655.5" transform="matrix(0.8439 -0.5366 0.5366 0.8439 3564.9158 -1034.1145)" class="st26" width="26.3" height="26.3"/>
	
		<rect x="152" y="-6637.6" transform="matrix(0.8439 -0.5366 0.5366 0.8439 3579.272 -944.0222)" class="st26" width="31.3" height="31.3"/>
	<circle class="st2" cx="167.6" cy="-6622" r="15.6"/>
	
		<rect x="116.9" y="-6647.9" transform="matrix(0.8439 -0.5366 0.5366 0.8439 3581.2434 -967.9478)" class="st26" width="21.2" height="21.2"/>
	<circle class="st2" cx="127.5" cy="-6637.3" r="10.6"/>
	
		<rect x="31.8" y="-6627.3" transform="matrix(0.8439 -0.5366 0.5366 0.8439 3557.5337 -1011.505)" class="st26" width="18" height="18"/>
	<circle class="st2" cx="40.8" cy="-6618.4" r="9"/>
	
		<rect x="183.7" y="-6665.4" transform="matrix(0.8439 -0.5366 0.5366 0.8439 3601.6951 -935.9484)" class="st26" width="18" height="18"/>
	<circle class="st2" cx="192.7" cy="-6656.5" r="9"/>
	<g class="st8">
		
			<rect x="175.7" y="-6598.2" transform="matrix(0.8439 -0.5366 0.5366 0.8439 3559.7678 -921.3956)" class="st26" width="42.1" height="42.1"/>
		
			<rect x="106.2" y="-6635.1" transform="matrix(0.8439 -0.5366 0.5366 0.8439 3566.1538 -959.7406)" class="st26" width="55.6" height="55.6"/>
		<circle class="st2" cx="134.1" cy="-6607.3" r="27.8"/>
		
			<rect x="40.4" y="-6627.6" transform="matrix(0.8439 -0.5366 0.5366 0.8439 3556.4868 -1002.3547)" class="st26" width="31.3" height="31.3"/>
		<circle class="st2" cx="56" cy="-6612" r="15.6"/>
	</g>
	<g class="st8">
		
			<rect x="171.7" y="-6642.3" transform="matrix(0.8439 -0.5366 0.5366 0.8439 3581.938 -928.8032)" class="st26" width="46.8" height="46.8"/>
		<circle class="st2" cx="195.1" cy="-6619" r="23.4"/>
	</g>
	
		<rect x="63.6" y="-6612" transform="matrix(0.8439 -0.5366 0.5366 0.8439 3553.9597 -991.5386)" class="st26" width="19.5" height="19.5"/>
	<circle class="st2" cx="73.3" cy="-6602.3" r="9.7"/>
	
		<rect x="111.4" y="-6624.7" transform="matrix(0.8439 -0.5366 0.5366 0.8439 3566.7297 -965.0109)" class="st26" width="27.6" height="27.6"/>
	<circle class="st2" cx="125.3" cy="-6610.9" r="13.8"/>
	
		<rect x="240.4" y="-6688.8" transform="matrix(0.8439 -0.5366 0.5366 0.8439 3620.4961 -904.4319)" class="st26" width="31.6" height="31.6"/>
	<circle class="st2" cx="256.3" cy="-6673" r="15.8"/>
	<g class="st8">
		
			<rect x="245.9" y="-6714.1" transform="matrix(0.8439 -0.5366 0.5366 0.8439 3630.5439 -897.4649)" class="st26" width="54.6" height="54.6"/>
		<circle class="st2" cx="273.2" cy="-6686.8" r="27.3"/>
		
			<rect x="219.6" y="-6662" transform="matrix(0.8439 -0.5366 0.5366 0.8439 3600.9661 -907.9415)" class="st26" width="41.6" height="41.6"/>
		<circle class="st2" cx="240.5" cy="-6641.2" r="20.8"/>
		
			<rect x="150.2" y="-6671.9" transform="matrix(0.8439 -0.5366 0.5366 0.8439 3598.3755 -952.1064)" class="st26" width="26.2" height="26.2"/>
		<circle class="st2" cx="163.3" cy="-6658.9" r="13.1"/>
		
			<rect x="69.8" y="-6670.3" transform="matrix(0.8439 -0.5366 0.5366 0.8439 3583.2625 -991.9186)" class="st26" width="35.1" height="35.1"/>
		<circle class="st2" cx="87.3" cy="-6652.8" r="17.6"/>
		
			<rect x="12.6" y="-6631.2" transform="matrix(0.8439 -0.5366 0.5366 0.8439 3555.127 -1019.7058)" class="st26" width="25.8" height="25.8"/>
		
			<ellipse transform="matrix(0.9997 -2.378933e-02 2.378933e-02 0.9997 157.4528 -1.266)" class="st2" cx="25.5" cy="-6618.3" rx="12.9" ry="12.9"/>
		
			<rect x="12.7" y="-6667.4" transform="matrix(0.8439 -0.5366 0.5366 0.8439 3572.8884 -1022.2165)" class="st26" width="34.6" height="34.6"/>
		<circle class="st2" cx="30.1" cy="-6650.1" r="17.3"/>
		
			<rect x="184.5" y="-6693.3" transform="matrix(0.8439 -0.5366 0.5366 0.8439 3613.5791 -934.1085)" class="st26" width="34.6" height="34.6"/>
		
			<ellipse transform="matrix(0.1602 -0.9871 0.9871 0.1602 6759.269 -5407.3994)" class="st2" cx="201.8" cy="-6676" rx="17.3" ry="17.3"/>
	</g>
	<circle class="st6" cx="239.2" cy="-6735.6" r="16.8"/>
	<circle class="st6" cx="343.5" cy="-6753.2" r="4.6"/>
	<circle class="st2" cx="40.4" cy="-6586.3" r="38.8"/>
</g>
<g id="SVGgroupcirc_4_">
	
		<rect x="1127.5" y="-6775.4" transform="matrix(9.462958e-02 -0.9955 0.9955 9.462958e-02 7763.6143 -4964.6509)" class="st26" width="49.6" height="49.6"/>
	<circle class="st2" cx="1152.4" cy="-6750.6" r="24.8"/>
	
		<rect x="1004.9" y="-6734.1" transform="matrix(9.462958e-02 -0.9955 0.9955 9.462958e-02 7612.4688 -5071.9287)" class="st26" width="25.8" height="25.8"/>
	<circle class="st2" cx="1017.8" cy="-6721.1" r="12.9"/>
	
		<rect x="963.2" y="-6700.4" transform="matrix(9.462958e-02 -0.9955 0.9955 9.462958e-02 7540.1782 -5061.3755)" class="st26" width="48.4" height="48.4"/>
	
		<rect x="909.5" y="-6651.4" transform="matrix(9.462958e-02 -0.9955 0.9955 9.462958e-02 7443.5635 -5087.2441)" class="st26" width="30.8" height="30.8"/>
	<circle class="st2" cx="924.9" cy="-6635.9" r="15.4"/>
	
		<rect x="1065.1" y="-6762" transform="matrix(9.462958e-02 -0.9955 0.9955 9.462958e-02 7694.3442 -5026.9077)" class="st26" width="36.7" height="36.7"/>
	
		<rect x="1037.3" y="-6718.6" transform="matrix(9.462958e-02 -0.9955 0.9955 9.462958e-02 7626.4829 -5026.6235)" class="st26" width="24.8" height="24.8"/>
	<circle class="st2" cx="1049.7" cy="-6706.2" r="12.4"/>
	
		<rect x="938.3" y="-6690.4" transform="matrix(9.462958e-02 -0.9955 0.9955 9.462958e-02 7508.9175 -5103.0859)" class="st26" width="21.1" height="21.1"/>
	<circle class="st2" cx="948.9" cy="-6679.8" r="10.5"/>
	
		<rect x="1117.6" y="-6731.5" transform="matrix(9.462958e-02 -0.9955 0.9955 9.462958e-02 7712.1748 -4961.9302)" class="st26" width="21.1" height="21.1"/>
	<circle class="st2" cx="1128.2" cy="-6721" r="10.5"/>
	<g class="st8">
		
			<rect x="1065.3" y="-6830.8" transform="matrix(9.462958e-02 -0.9955 0.9955 9.462958e-02 7762.4478 -5076.8979)" class="st26" width="49.4" height="49.4"/>
		
			<rect x="1007.9" y="-6773.8" transform="matrix(9.462958e-02 -0.9955 0.9955 9.462958e-02 7652.9443 -5067.3594)" class="st26" width="65.3" height="65.3"/>
		<circle class="st2" cx="1040.6" cy="-6741.1" r="32.7"/>
		
			<rect x="943" y="-6712.9" transform="matrix(9.462958e-02 -0.9955 0.9955 9.462958e-02 7534.9473 -5104.0034)" class="st26" width="36.7" height="36.7"/>
		<circle class="st2" cx="961.4" cy="-6694.6" r="18.3"/>
	</g>
	<g class="st8">
		
			<rect x="1083.1" y="-6789" transform="matrix(9.462958e-02 -0.9955 0.9955 9.462958e-02 7736.6543 -5016.042)" class="st26" width="54.9" height="54.9"/>
		<circle class="st2" cx="1110.6" cy="-6761.5" r="27.5"/>
	</g>
	
		<rect x="881.9" y="-6630.5" transform="matrix(9.462958e-02 -0.9955 0.9955 9.462958e-02 7398.103 -5103.7617)" class="st26" width="22.5" height="22.5"/>
	<circle class="st2" cx="893.1" cy="-6619.2" r="11.2"/>
	
		<rect x="962.9" y="-6725.4" transform="matrix(9.462958e-02 -0.9955 0.9955 9.462958e-02 7565.9775 -5108.7378)" class="st26" width="22.9" height="22.9"/>
	
		<rect x="1017.1" y="-6748.9" transform="matrix(9.462958e-02 -0.9955 0.9955 9.462958e-02 7637.9468 -5066.8965)" class="st26" width="32.5" height="32.5"/>
	<circle class="st2" cx="1033.3" cy="-6732.6" r="16.2"/>
	<g class="st8">
		
			<rect x="1145.5" y="-6786.8" transform="matrix(9.462958e-02 -0.9955 0.9955 9.462958e-02 7791.2778 -4957.813)" class="st26" width="48.9" height="48.9"/>
		<circle class="st2" cx="1170" cy="-6762.4" r="24.4"/>
		
			<rect x="1083.2" y="-6718.2" transform="matrix(9.462958e-02 -0.9955 0.9955 9.462958e-02 7667.354 -4974.8428)" class="st26" width="30.8" height="30.8"/>
		<circle class="st2" cx="1098.6" cy="-6702.8" r="15.4"/>
		
			<rect x="995.3" y="-6689.2" transform="matrix(9.462958e-02 -0.9955 0.9955 9.462958e-02 7558.4585 -5026.2329)" class="st26" width="41.2" height="41.2"/>
		<circle class="st2" cx="1015.9" cy="-6668.6" r="20.6"/>
		
			<rect x="917.7" y="-6686.9" transform="matrix(9.462958e-02 -0.9955 0.9955 9.462958e-02 7486.3413 -5111.6704)" class="st26" width="30.4" height="30.4"/>
		<circle class="st2" cx="932.9" cy="-6671.7" r="15.2"/>
		
			<rect x="934.3" y="-6661.2" transform="matrix(9.462958e-02 -0.9955 0.9955 9.462958e-02 7475.3379 -5062.145)" class="st26" width="40.7" height="40.7"/>
		<circle class="st2" cx="954.6" cy="-6640.9" r="20.3"/>
		
			<rect x="1127.7" y="-6725.8" transform="matrix(9.462958e-02 -0.9955 0.9955 9.462958e-02 7714.7446 -4928.0117)" class="st26" width="40.7" height="40.7"/>
	</g>
	<circle class="st6" cx="1077.4" cy="-6639.7" r="72.2"/>
	<circle class="st6" cx="870.6" cy="-6663.3" r="44.9"/>
</g>
<g id="background_details_10_">
	<path id="highlight" class="st9" d="M128.3-6976.2c0,26.1-21.1,47.2-47.2,47.2c-6.6,0-13.1-1.4-19.2-4.1
		c-2.6,10.9-13.5,17.6-24.3,15c-10.9-2.6-17.6-13.5-15-24.3c1.8-7.5,7.7-13.3,15.2-15c-10.3-23.9,0.7-51.7,24.6-62.1
		c23.9-10.3,51.7,0.7,62.1,24.6C127-6989,128.4-6982.6,128.3-6976.2L128.3-6976.2z"/>
</g>
<g id="background_details_11_">
	
		<linearGradient id="SVGID_16_" gradientUnits="userSpaceOnUse" x1="603.2765" y1="-7404.4434" x2="603.2765" y2="-6865.6626" gradientTransform="matrix(0.8464 0 0 -0.8464 94.5631 -5512.2808)">
		<stop  offset="0" style="stop-color:#50C6DF;stop-opacity:0.5"/>
		<stop  offset="0.44" style="stop-color:#50C6DF;stop-opacity:0.51"/>
		<stop  offset="0.6" style="stop-color:#50C6DF;stop-opacity:0.54"/>
		<stop  offset="0.71" style="stop-color:#50C6DF;stop-opacity:0.59"/>
		<stop  offset="0.8" style="stop-color:#50C6DF;stop-opacity:0.67"/>
		<stop  offset="0.88" style="stop-color:#50C6DF;stop-opacity:0.77"/>
		<stop  offset="0.95" style="stop-color:#50C6DF;stop-opacity:0.89"/>
		<stop  offset="1" style="stop-color:#50C6DF"/>
	</linearGradient>
	<path class="st29" d="M1004.7,754.6c59.4-351.2-163.8-426.3-264-411.9c-2.1,0.3-4.2,0.6-6.3,1c3.1-4.7,4.3-8.5,3-9.8
		c-1.4-1.3-5.4,0.2-10.4,3.7c7.7-19.1,10.4-35.5,6-37.5c-4.2-1.8-13.3,9.9-21.4,26.9c3.4-14.4,3.2-26.1-0.5-27.2
		c-4.1-1.1-11.1,11.3-15.6,27.7c-0.8,2.8-1.4,5.6-1.9,8.2c-1.1-8-3.2-13.5-5.6-13.5c-2.2,0-4,4.7-4.9,11.5c-2.9-0.4-5.9-0.6-8.8-0.6
		c-0.3,0-0.5,0-0.8,0c-2.7-13.3-7.1-22.9-10.8-22.4s-5.3,11.1-4.1,24.7c-5.2,1.4-10.2,3.3-15,5.7c0.1-4.2-0.1-8.4-0.4-12.6
		c-1.5-16.9-6.2-30.4-10.4-30s-6.5,14.4-5,31.3c0.3,2.9,0.6,5.7,1,8.4c-3.8-7.2-7.7-11.6-10-10.7c-3.1,1.2-1.7,12.1,3,24.3
		c0.3,0.8,0.6,1.5,0.9,2.2c-0.7-1-1.4-2-2.2-3c-8.5-11.5-17.6-19.7-22.3-20.5c-1.5-1.1-2.8-1.5-3.7-1.1c-3.1,1.6-0.6,13,5.7,25.5
		c1.1,2.2,2.2,4.2,3.3,6.1c-5.1-4.3-9.4-6.5-10.9-5.2c-2,1.8,2.4,9.7,9.7,17.7c0.2,0.3,0.5,0.5,0.7,0.7c-1.1,1.4-2.3,2.8-3.4,4.2
		l-0.2,0.2c-1.6-1.5-3.3-3-5.1-4.6c-10.7-9-21.3-14.1-23.5-11.4c-2.3,2.7,4.6,12.2,15.4,21.2c2.2,1.8,4.3,3.5,6.4,4.9
		c-1,1.7-2,3.3-2.9,5c-2.6-3.9-9-9.3-17-14.2c-11.9-7.3-23.1-10.9-24.9-7.9c-1.8,3,6.3,11.4,18.2,18.7c2,1.3,4.1,2.4,6,3.4
		c-6.6-1-11.5-0.6-12,1.3c-0.7,2.6,7.1,7.1,17.5,9.9l-0.7,0.5h-0.4c-14-0.1-25.3,2.7-25.4,6.2c0,2,3.8,3.9,9.8,5.1
		c-29.9,22.3-165.7,196.1-365.3,227.3L1004.7,754.6z"/>
</g>
<g id="background_details_12_">
	
		<linearGradient id="SVGID_17_" gradientUnits="userSpaceOnUse" x1="551.0173" y1="-7618.5225" x2="551.0173" y2="-6923.2529" gradientTransform="matrix(0.8464 0 0 -0.8464 94.5631 -5512.2808)">
		<stop  offset="0" style="stop-color:#50C6DF"/>
		<stop  offset="1.000000e-02" style="stop-color:#50C4DE"/>
		<stop  offset="0.25" style="stop-color:#4490C3"/>
		<stop  offset="0.48" style="stop-color:#3A67AE"/>
		<stop  offset="0.69" style="stop-color:#34499F"/>
		<stop  offset="0.87" style="stop-color:#2F3795"/>
		<stop  offset="1" style="stop-color:#2E3192"/>
	</linearGradient>
	<path class="st30" d="M1123.2,610.6c-25.5-53.8-179.1-12.7-236.1-29.7c-45.9-13.6-126.2-70.5-172.2-83.8c-18.6-5.4-45-7.7-73.4-9.3
		c7.2-7.3,11-13.8,9.1-16.2c-2.6-3.2-14.7,2.2-27,12.1c-1.2,1-2.4,2-3.6,3c-8.5-0.4-17.1-0.8-25.6-1.2c4.4-5.2,8.2-10.9,11.3-17
		c7.3-14,10.2-27,6.5-28.9c-3.6-1.9-12.6,7.9-19.8,22c-4.8,9.2-7.7,17.9-8.1,23.4c-6.2-0.3-12.3-0.7-18.2-1.2
		c2.6-6,4.4-12.3,5.6-18.8c2.9-15.5,2-28.8-2.1-29.5c-4.1-0.8-9.7,11.2-12.7,26.8c-1.4,6.8-1.9,13.7-1.5,20.6
		c-9.3-0.8-18.1-1.9-26.3-3.1c-0.7-5.3-1.9-10.6-3.6-15.7c-4.7-15.1-11.8-26.3-15.7-25.1c-4,1.2-3.3,14.5,1.4,29.6
		c0.9,2.9,1.9,5.7,3,8.3c-4.2-1-8.4-2.1-12.5-3.5c-48.4-16.6-125.7-91.6-174.4-107.4c-76.7-24.9-317.1,53.3-330-18.8l-2.3,588.5
		c0,0,465.4-21.3,570.8-49.4C619.9,871.9,734,785,788.8,797.3c147,32.8,209.1,4.4,217.1,0C1054.1,770.6,1146.8,660.5,1123.2,610.6z"
		/>
</g>
<g id="background_details_13_">
	
		<linearGradient id="SVGID_18_" gradientUnits="userSpaceOnUse" x1="766.3278" y1="-7744.6997" x2="766.3278" y2="-7205.9185" gradientTransform="matrix(0.8464 0 0 -0.8464 94.5631 -5512.2808)">
		<stop  offset="0" style="stop-color:#50C6DF;stop-opacity:0.5"/>
		<stop  offset="0.44" style="stop-color:#50C6DF;stop-opacity:0.51"/>
		<stop  offset="0.6" style="stop-color:#50C6DF;stop-opacity:0.54"/>
		<stop  offset="0.71" style="stop-color:#50C6DF;stop-opacity:0.59"/>
		<stop  offset="0.8" style="stop-color:#50C6DF;stop-opacity:0.67"/>
		<stop  offset="0.88" style="stop-color:#50C6DF;stop-opacity:0.77"/>
		<stop  offset="0.95" style="stop-color:#50C6DF;stop-opacity:0.89"/>
		<stop  offset="1" style="stop-color:#50C6DF"/>
	</linearGradient>
	<path class="st31" d="M1142.7,1042.6c59.4-351.2-163.8-426.3-264-411.9c-2.1,0.3-4.2,0.6-6.3,1c3.1-4.7,4.3-8.5,3-9.8
		c-1.4-1.3-5.4,0.2-10.4,3.7c7.7-19.1,10.4-35.5,6-37.5c-4.2-1.8-13.3,9.9-21.4,26.9c3.4-14.4,3.2-26.1-0.5-27.2
		c-4.1-1.1-11.1,11.3-15.6,27.7c-0.8,2.8-1.4,5.6-1.9,8.2c-1.1-8-3.2-13.5-5.6-13.5c-2.2,0-4,4.7-4.9,11.5c-2.9-0.4-5.9-0.6-8.8-0.6
		c-0.3,0-0.5,0-0.8,0c-2.7-13.3-7.1-22.9-10.8-22.4c-3.6,0.5-5.3,11.1-4.1,24.7c-5.2,1.4-10.2,3.3-15,5.7c0.1-4.2-0.1-8.4-0.4-12.6
		c-1.5-16.9-6.2-30.4-10.4-30c-4.3,0.4-6.5,14.4-5,31.3c0.3,2.9,0.6,5.7,1,8.4c-3.8-7.2-7.7-11.6-10-10.7c-3.1,1.2-1.7,12.1,3,24.3
		c0.3,0.8,0.6,1.5,0.9,2.2c-0.7-1-1.4-2-2.2-3c-8.5-11.5-17.6-19.7-22.3-20.5c-1.5-1.1-2.8-1.5-3.7-1.1c-3.1,1.6-0.6,13,5.7,25.5
		c1.1,2.2,2.2,4.2,3.3,6.1c-5.1-4.3-9.4-6.5-10.9-5.2c-2,1.8,2.4,9.7,9.7,17.7c0.2,0.3,0.5,0.5,0.7,0.7c-1.1,1.4-2.3,2.8-3.4,4.2
		l-0.2,0.2c-1.6-1.5-3.3-3-5.1-4.6c-10.7-9-21.3-14.1-23.5-11.4c-2.3,2.7,4.6,12.2,15.4,21.2c2.2,1.8,4.3,3.5,6.4,4.9
		c-1,1.7-2,3.3-2.9,5c-2.6-3.9-9-9.3-17-14.2c-11.9-7.3-23.1-10.9-24.9-7.9c-1.8,3,6.3,11.4,18.2,18.7c2,1.3,4.1,2.4,6,3.4
		c-6.6-1-11.5-0.6-12,1.3c-0.7,2.6,7.1,7.1,17.5,9.9l-0.7,0.5h-0.4c-14-0.1-25.3,2.7-25.4,6.2c0,2,3.8,3.9,9.8,5.1
		c-29.9,22.3-165.7,196.1-365.3,227.3L1142.7,1042.6z"/>
</g>
</svg>
