<?xml version="1.0" encoding="utf-8"?>
<!-- Generator: Adobe Illustrator 22.0.1, SVG Export Plug-In . SVG Version: 6.00 Build 0)  -->
<svg version="1.1" id="Layer_1" xmlns="http://www.w3.org/2000/svg" xmlns:xlink="http://www.w3.org/1999/xlink" x="0px" y="0px"
	 viewBox="0 0 1153.8 1537" style="enable-background:new 0 0 1153.8 1537;" xml:space="preserve">
<style type="text/css">
	.st0{fill:#50C6DF;}
	.st1{opacity:0.5;fill:#50C6DF;enable-background:new    ;}
	.st2{fill:#2E3192;}
	.st3{clip-path:url(#SVGID_2_);}
	.st4{fill:url(#SVGID_3_);}
	.st5{fill:url(#SVGID_4_);}
	.st6{opacity:0.5;fill:#2E3192;enable-background:new    ;}
	.st7{opacity:0.5;fill:url(#SVGID_5_);enable-background:new    ;}
	.st8{opacity:0.3;}
	.st9{fill:#FEF8C0;}
	.st10{fill:#FFE381;}
	.st11{fill:#F78D36;}
	.st12{opacity:0.75;fill:#2E3192;enable-background:new    ;}
	.st13{opacity:0.5;fill:url(#SVGID_6_);enable-background:new    ;}
	.st14{opacity:0.5;fill:url(#SVGID_7_);enable-background:new    ;}
	.st15{fill:url(#SVGID_8_);stroke:#FFE381;stroke-width:2.7;stroke-miterlimit:10;}
	.st16{clip-path:url(#SVGID_10_);}
	.st17{fill:url(#SVGID_11_);}
	.st18{opacity:0.5;fill:#F78D36;enable-background:new    ;}
	.st19{opacity:0.5;fill:#FFE381;enable-background:new    ;}
	.st20{opacity:0.85;fill:url(#SVGID_12_);enable-background:new    ;}
	.st21{fill:url(#SVGID_13_);}
	.st22{fill:url(#SVGID_14_);}
	.st23{opacity:0.25;fill:#FEF8C0;enable-background:new    ;}
	.st24{opacity:0.75;fill:#FEF8C0;enable-background:new    ;}
	.st25{opacity:0.5;fill:#FEF8C0;enable-background:new    ;}
	.st26{fill:none;}
	.st27{opacity:0.3;fill:url(#background_30_1_);enable-background:new    ;}
	.st28{fill:url(#SVGID_15_);}
	.st29{fill:url(#SVGID_16_);}
	.st30{opacity:0.5;fill:url(#SVGID_17_);enable-background:new    ;}
	.st31{fill:url(#SVGID_18_);}
</style>
<rect x="-6" y="5444.5" class="st0" width="1162.6" height="1158"/>
<path class="st1" d="M1156.6,5188.4c0,82.9-228.2-0.5-307.1,25.1c-48.7,15.8-139.7,88.5-188.1,105.1
	c-50.7,17.4-57.4,23.9-108.9,38.8c-46,13.3-216.9,57.2-262.8,70.8c-57,16.9-275.8,13.2-301.3,66.9
	c-23.6,49.8,134.2,122.7,182.5,149.4c69.5,38.4,239.9-16.1,317.6,0c55,11.4,152.1,74.6,206.4,89.1c105.4,28.1,461.4,49.5,461.4,49.5
	"/>
<rect x="-6" y="-930.5" class="st0" width="1162.6" height="1179.2"/>
<path class="st2" d="M435.6-926.7c312.8,0,587.9,160.1,720.9,393.9v-1062.7H-6v788.2C121.1-882.7,271.7-926.7,435.6-926.7z"/>
<g>
	<g>
		<defs>
			<rect id="SVGID_1_" x="-6" y="3676.5" width="1162.6" height="1822.1"/>
		</defs>
		<clipPath id="SVGID_2_">
			<use xlink:href="#SVGID_1_"  style="overflow:visible;"/>
		</clipPath>
		<g class="st3">
			
				<linearGradient id="SVGID_3_" gradientUnits="userSpaceOnUse" x1="581.2761" y1="95.0858" x2="581.2761" y2="2077.718" gradientTransform="matrix(0.8464 0 0 0.8464 83.3505 3727.7192)">
				<stop  offset="0" style="stop-color:#FEF8C0;stop-opacity:0"/>
				<stop  offset="2.000000e-02" style="stop-color:#FEF8C0;stop-opacity:5.000000e-02"/>
				<stop  offset="9.000000e-02" style="stop-color:#FEF8C0;stop-opacity:0.27"/>
				<stop  offset="0.17" style="stop-color:#FEF8C0;stop-opacity:0.47"/>
				<stop  offset="0.25" style="stop-color:#FEF8C0;stop-opacity:0.63"/>
				<stop  offset="0.33" style="stop-color:#FEF8C0;stop-opacity:0.76"/>
				<stop  offset="0.41" style="stop-color:#FEF8C0;stop-opacity:0.87"/>
				<stop  offset="0.49" style="stop-color:#FEF8C0;stop-opacity:0.94"/>
				<stop  offset="0.57" style="stop-color:#FEF8C0;stop-opacity:0.99"/>
				<stop  offset="0.67" style="stop-color:#FEF8C0"/>
			</linearGradient>
			<rect x="-6" y="3808.2" class="st4" width="1162.6" height="1678.1"/>
			
				<linearGradient id="SVGID_4_" gradientUnits="userSpaceOnUse" x1="581.2761" y1="95.0858" x2="581.2761" y2="2295.4641" gradientTransform="matrix(0.8464 0 0 0.8464 83.3505 3727.7192)">
				<stop  offset="0" style="stop-color:#FEF8C0;stop-opacity:0"/>
				<stop  offset="0" style="stop-color:#FEF8C0;stop-opacity:0"/>
				<stop  offset="8.000000e-02" style="stop-color:#FEF8C0;stop-opacity:0.23"/>
				<stop  offset="0.16" style="stop-color:#FEF8C0;stop-opacity:0.44"/>
				<stop  offset="0.25" style="stop-color:#FEF8C0;stop-opacity:0.61"/>
				<stop  offset="0.33" style="stop-color:#FEF8C0;stop-opacity:0.75"/>
				<stop  offset="0.41" style="stop-color:#FEF8C0;stop-opacity:0.86"/>
				<stop  offset="0.5" style="stop-color:#FEF8C0;stop-opacity:0.94"/>
				<stop  offset="0.58" style="stop-color:#FEF8C0;stop-opacity:0.98"/>
				<stop  offset="0.67" style="stop-color:#FEF8C0"/>
				<stop  offset="1" style="stop-color:#F78D36"/>
			</linearGradient>
			<rect x="-6" y="3808.2" class="st5" width="1162.6" height="1862.4"/>
		</g>
	</g>
</g>
<path class="st2" d="M1156.5,3702V1230.5H-6v2963.1c0,0,406.5-21.7,511.8-49.8c54.3-14.5,151.4-77.7,206.4-89.1
	c77.8-16.1,338.2,29.9,401.4-18.3C1213.4,3960.2,1195.5,3663,1156.5,3702z"/>
<g id="background_details_1_">
	<path class="st6" d="M859.4-168.2c-45.9-13.6-216.8-57.6-262.8-70.8c-51.5-14.9-58.2-21.4-108.9-38.8
		c-48.4-16.6-139.4-89.3-188.1-105.1c-62.9-20.4-235.7,28.4-303.1,7.1V211c77.7-5.4,447.4-31.8,541.5-56.9
		c54.3-14.5,151.4-77.7,206.4-89.1c77.8-16.1,257.4,38.4,327,0c22.9-12.6,55.5-47.6,81.3-86.3V-160
		C1075.6-178.6,905.5-154.5,859.4-168.2z"/>
</g>
<title>spheregoblin</title>
<g id="background_details_7_">
	
		<linearGradient id="SVGID_5_" gradientUnits="userSpaceOnUse" x1="-104.688" y1="-4560.6914" x2="1263.2231" y2="-4560.6914" gradientTransform="matrix(0.8464 0 0 0.8464 83.3505 3727.7192)">
		<stop  offset="0" style="stop-color:#50C6DF"/>
		<stop  offset="1.000000e-02" style="stop-color:#50C4DE"/>
		<stop  offset="0.25" style="stop-color:#4490C3"/>
		<stop  offset="0.48" style="stop-color:#3A67AE"/>
		<stop  offset="0.69" style="stop-color:#34499F"/>
		<stop  offset="0.87" style="stop-color:#2F3795"/>
		<stop  offset="1" style="stop-color:#2E3192"/>
	</linearGradient>
	<path class="st7" d="M1152.5-197.9c-84-9.9-226.4,8.5-268-3.8c-45.9-13.6-126.2-70.5-172.2-83.8c-18.6-5.4-45-7.7-73.4-9.2
		c7.2-7.3,11-13.8,9.1-16.2c-2.6-3.2-14.7,2.2-27,12.1c-1.2,1-2.4,2-3.6,3c-8.5-0.4-17.1-0.8-25.6-1.2c4.5-5.2,8.2-10.9,11.3-17
		c7.3-14,10.2-27,6.5-28.9c-3.6-1.9-12.6,7.9-19.8,22c-4.8,9.2-7.7,17.9-8.1,23.4c-6.2-0.3-12.3-0.7-18.2-1.2
		c2.6-6,4.4-12.3,5.6-18.8c2.9-15.5,2-28.8-2.1-29.5c-4.1-0.8-9.7,11.2-12.7,26.8c-1.5,7.9-2,15.2-1.5,20.6
		c-9.3-0.8-18.1-1.9-26.3-3.1c-0.7-5.3-1.9-10.6-3.6-15.7c-4.7-15.1-11.8-26.3-15.7-25.1c-4,1.2-3.3,14.5,1.4,29.6
		c0.9,2.9,1.9,5.7,3,8.3c-4.2-1-8.4-2.1-12.5-3.5c-48.4-16.6-125.7-91.6-174.4-107.4C248-441.4,7.6-363.2-5.3-435.3l1.8,605.7
		c0,0,461.3-21.8,566.7-49.9c54.2-14.5,168.2-101.3,223-89.1c147,32.8,302.2,4.4,310.2,0c15.8-8.7,36.4-28.2,56.1-52.3V-197.9z"/>
</g>
<g id="About_Page">
	<g id="grass_shadow">
		<g id="clump_3">
			<g class="st8">
				
					<ellipse transform="matrix(0.805 -0.5933 0.5933 0.805 197.1016 20.3812)" class="st2" cx="129.6" cy="-289.6" rx="6.1" ry="23.3"/>
			</g>
			<g class="st8">
				
					<ellipse transform="matrix(0.2608 -0.9654 0.9654 0.2608 344.5492 -22.1161)" class="st2" cx="157.8" cy="-236" rx="7.5" ry="28.6"/>
			</g>
			
				<ellipse transform="matrix(0.2419 -0.9703 0.9703 0.2419 319.3497 28.7461)" class="st2" cx="178.1" cy="-190" rx="5" ry="18.9"/>
			<g class="st8">
				
					<ellipse transform="matrix(0.886 -0.4636 0.4636 0.886 161.347 32.2405)" class="st2" cx="146.3" cy="-312.1" rx="7.5" ry="28.6"/>
			</g>
			
				<ellipse transform="matrix(0.4198 -0.9076 0.9076 0.4198 287.7991 38.6514)" class="st2" cx="174.1" cy="-205.8" rx="7.5" ry="28.6"/>
			<g class="st8">
				
					<ellipse transform="matrix(0.6828 -0.7306 0.7306 0.6828 305.61 101.3287)" class="st2" cx="269.5" cy="-301.3" rx="28.6" ry="7.5"/>
			</g>
			
				<ellipse transform="matrix(0.8263 -0.5632 0.5632 0.8263 155.3291 103.0525)" class="st2" cx="244.7" cy="-200.3" rx="28.6" ry="7.5"/>
		</g>
		<g id="clump_2">
			
				<ellipse transform="matrix(0.1663 -0.9861 0.9861 0.1663 493.7664 -61.4867)" class="st2" cx="210.5" cy="-322.7" rx="28.3" ry="7.1"/>
			
				<ellipse transform="matrix(0.4187 -0.9081 0.9081 0.4187 418.2091 17.6373)" class="st2" cx="222.9" cy="-317.9" rx="21.9" ry="5.5"/>
			
				<ellipse transform="matrix(0.6547 -0.7559 0.7559 0.6547 329.4239 70.0817)" class="st2" cx="241.4" cy="-325.5" rx="28.3" ry="7.1"/>
			
				<ellipse transform="matrix(0.6144 -0.789 0.789 0.6144 332.0817 85.6476)" class="st2" cx="253.7" cy="-296.9" rx="28.3" ry="7.1"/>
			
				<ellipse transform="matrix(0.7085 -0.7057 0.7057 0.7085 274.6902 104.942)" class="st2" cx="264.4" cy="-280" rx="21.9" ry="5.5"/>
			
				<ellipse transform="matrix(0.8768 -0.4808 0.4808 0.8768 169.9993 102.1977)" class="st2" cx="284.5" cy="-280.7" rx="28.3" ry="7.1"/>
		</g>
		<g id="clump_1">
			
				<ellipse transform="matrix(0.4005 -0.9163 0.9163 0.4005 307.0053 -62.7048)" class="st2" cx="105.6" cy="-266" rx="7.1" ry="28.3"/>
			
				<ellipse transform="matrix(0.6263 -0.7796 0.7796 0.6263 258.251 -15.114)" class="st2" cx="113.4" cy="-276.9" rx="5.5" ry="21.9"/>
			
				<ellipse transform="matrix(0.8211 -0.5708 0.5708 0.8211 186.6696 6.9703)" class="st2" cx="104.5" cy="-294.3" rx="7.1" ry="28.3"/>
			
				<ellipse transform="matrix(0.7874 -0.6165 0.6165 0.7874 216.0323 22.6987)" class="st2" cx="140.9" cy="-301.8" rx="7.1" ry="28.3"/>
			
				<ellipse transform="matrix(0.8585 -0.5128 0.5128 0.8585 180.5284 38.4913)" class="st2" cx="160" cy="-307.9" rx="5.5" ry="21.9"/>
			
				<ellipse transform="matrix(0.9672 -0.2539 0.2539 0.9672 88.5841 30.9655)" class="st2" cx="164.2" cy="-327.7" rx="7.1" ry="28.3"/>
		</g>
		<path class="st6" d="M296.7-209.3c1.8,23.9-20.6,46-39.2,56.2c-61.4,33.7-162.8-17-163.6-56.2c-0.6-28.9,53.5-59.5,101.4-59.8
			C238.7-269.4,293.9-244.8,296.7-209.3z"/>
	</g>
	<g id="pyramid_goblin">
		<path class="st9" d="M259.5-261c0,0,5.9-31.8,5.3-41.6c-0.3-5.9-9-18.8-20.3-18.8s-104.7,22.2-117.9,30.9
			c-13.2,8.7-12.4,21.6-8.7,26.4c7.7,9.8,28.4,21.8,44.2,25.8C199.5-229.1,259.5-261,259.5-261"/>
		<path class="st9" d="M269.2-203.2c-9.4,0-10.8-10.9-20.3-7.2c-13.1,5.1-5.2,15.5-11.3,26.8c-3.3,6.1-20.2,15.8-32.4,9.4
			c-19.7-10.3-42.6-49.7-50.5-92.3c-7.9-42.5,20-58.8,20-58.8s8.4-6.6,2.4-28.5c-1-3.3-1.6-6.6-2.1-10l4.4,2.3l0.6-5.6
			c1.9,3.4,4.1,6.6,6.6,9.7c12.5,16,3.6,24.8,3.6,24.8c32.7-5,58.6,40.1,71.6,62.6c0.7,1.3,1.4,2.4,2,3.5l0,0
			c0.8,1.4,1.6,2.7,2.3,3.8l1,0.3c14.3,4.2,13.5,6.8,27.1,38.1C297.6-216.3,278.6-203.2,269.2-203.2z"/>
		<path class="st10" d="M227.1-318.7c0,0,26.4,5,34.3,48C253.7-284.3,242-305.1,227.1-318.7"/>
		<path class="st10" d="M157.4-254.4c-1-4-1.9-8-2.6-12c-2.7-14.6-1.2-26.1,1.9-34.9c0,0-11.3,7-10.2,24.5
			c0.8,13.6,11.4,24.5,11.4,24.5"/>
		<path class="st10" d="M267.1-262.3c-0.2,0.4-0.7,0.7-1.1,0.6c-23.2-3.9-50-0.4-69.5,12.5c-0.5,0.3-1.2,0.1-1.4-0.4
			c-0.2-0.4-0.1-0.9,0.2-1.3c17.9-14.7,53-27.1,68.7-15.4l0,0c0.8,1.4,1.6,2.7,2.3,3.8L267.1-262.3z"/>
		
			<ellipse transform="matrix(0.9526 -0.3042 0.3042 0.9526 67.6757 57.4276)" class="st10" cx="218.1" cy="-188.5" rx="17.8" ry="10.7"/>
		<path class="st10" d="M266.1-262.5c3.9,1,7.7,2.6,11.1,4.8c8.3,5.4,10.8,19.3,17,33.6c3.4,7.9-15.6,21-25,21s-10.8-10.9-20.3-7.2
			c-2.5,0.8-4.7,2.4-6.3,4.5c-1.3,2-2,4.2-2,6.6c-0.2,0-3.8-20.7,6.2-40.7C251.4-248.9,258-256.6,266.1-262.5z"/>
		<path class="st2" d="M211.8-294.4c1.2,1,2.5,1.7,4,2.1c2.2,0.7,4.6-0.4,5.5-2.5c0.7-1.4,1-2.9,1-4.4c1.5,1.3,2.2,3.2,2,5.2
			c-0.1,1.1-0.5,2.1-1.1,3s-1.5,1.7-2.5,2.1c-2,0.9-4.4,0.7-6.2-0.6C212.8-290.6,211.8-292.4,211.8-294.4z"/>
		<path class="st2" d="M185.8-286.9c1.2,1,2.5,1.7,4,2.1c2.2,0.7,4.6-0.4,5.5-2.5c0.7-1.4,1-2.9,1-4.4c1.5,1.3,2.2,3.2,2,5.2
			c-0.1,1.1-0.5,2.1-1.1,2.9c-0.6,0.9-1.5,1.7-2.5,2.1c-2,0.9-4.4,0.7-6.2-0.6C186.8-283.2,185.8-285,185.8-286.9z"/>
		<polygon class="st9" points="135.4,-386.5 164.4,-387.6 182.6,-411.9 152.7,-410.8 		"/>
		<polyline class="st10" points="177.7,-364.5 164.4,-387.6 135.4,-386.5 		"/>
		<polyline class="st11" points="182.6,-411.9 164.4,-387.6 177.7,-364.5 		"/>
	</g>
	<g id="log">
		<g id="log-2">
			<path class="st2" d="M495.5-181.2c-34.7,6.3-71.5-1.4-105.6,6.3c-16.1,3.6-31,18.7-46.6,21.4c-8.1,1.4-17.2-4.9-25.5-4
				c-8.6,0.9-19.6,8.8-27.4,12.8c-17.4-7-26.7-33.1-30.3-49.8c-4-18.3-1.7-44.2,10.3-60.3c27.7-1.8,50.1-13.4,78-14.3
				c22.1-0.7,20.2-5.5,38.3-10.8c12.3-3.6,24.8-0.3,37.2-3.6c17.8-4.8,22.4-19.4,44-11.5c13.4,4.9,15.3,14,21.2,24.9
				C504.3-241,499.4-213.2,495.5-181.2z"/>
			<path class="st11" d="M290.4-144.8c-35.9-11.8-49.3-84.2-20.1-110C299.7-229.2,327.1-171.9,290.4-144.8z"/>
			<path class="st10" d="M292-204c-1.2,12.6,2.8,24.4-5.6,35.1c-12.5-9.1-26.2-29.5-22-46.6C270.3-239.6,288.4-223.4,292-204z"/>
		</g>
		<g id="whorls">
			<path class="st0" d="M296.9-247.9c7.7,1,15.2,2.2,22.6,3.3c3.7,0.6,7.4,1.1,11.1,1.6c3.7,0.4,7.4,1,11.1,1.5s7.4,1.2,11.1,1.6
				c3.7,0.4,7.5,0.5,11.3,0.2c7.5-0.6,14.6-3.2,20.8-7.4c0.8-0.5,1.4-1.1,2.2-1.7l2.2-1.8c0.8-0.6,1.5-1.3,2.4-1.8l2.5-1.7
				c3.3-2.2,6.8-4.1,10.5-5.7c3.6-1.6,7.3-3.1,11.1-4.3c3.7-1.2,7.6-2.2,11.4-3c3.9-0.7,7.7-1.3,11.6-1.6c3.9-0.3,7.8-0.5,11.7-0.5
				c3.9,0,7.8,0.2,11.7,0.6c3.9,0.3,7.7,1,11.5,1.9l-0.1,0.8c-15.2,2-30.2,4.2-44.6,7.5c-3.6,0.8-7.2,1.7-10.8,2.6
				c-3.6,0.9-7.1,2-10.6,3.2s-6.8,2.7-10.2,4.2c-1.7,0.8-3.3,1.6-4.9,2.5l-1.2,0.6l-1.4,0.7c-0.9,0.4-1.8,1-2.7,1.3l-2.8,1.2l-2.8,1
				c-0.9,0.4-1.9,0.6-2.8,0.8l-1.4,0.4c-0.5,0.1-0.9,0.2-1.4,0.4c-3.8,1-7.6,1.7-11.4,2.4s-7.7,1.3-11.6,1.8s-7.8,0.8-11.8,0.8
				c-3.9,0-7.8-0.4-11.7-1.1c-7.7-1.3-15.2-3.4-22.4-6.3c-3.6-1.4-7.1-3.2-10.5-5.2L296.9-247.9z"/>
			<path class="st0" d="M475.3-279.2c-6.6,1.4-13.1,2.4-19.6,3.4c-3.2,0.4-6.5,0.9-9.7,1.3s-6.4,0.9-9.7,1.3
				c-3.2,0.3-6.5,0.6-9.7,0.8c-3.3,0.3-6.5,0.5-9.8,1c-6.5,0.9-12.7,3.1-18.3,6.4c-5.8,3.5-11.8,6.9-18.1,9.2
				c-3.2,1.1-6.4,2.1-9.6,3.1c-3.2,0.9-6.5,1.8-9.8,2.4c-6.6,1.2-13.2,2-19.9,2.2c-6.7,0.3-13.4-0.1-20.1-1l-0.1-0.8
				c6.4-2,12.9-3.6,19.3-5.1c6.4-1.5,12.8-2.9,19.1-4.1c6.4-1.2,12.8-2.2,19.1-3.7c3.1-0.7,6.3-1.3,9.5-2.1c3.2-0.7,6.3-1.6,9.3-2.8
				c6.2-2.7,12.5-4.8,18.8-7.1c6.3-2.3,12.7-4.6,19.3-5.7c3.3-0.6,6.6-0.9,10-1.1c3.3-0.2,6.7-0.3,10-0.3s6.7,0.2,10,0.5
				c3.4,0.3,6.7,0.8,10,1.5L475.3-279.2z"/>
			<path class="st0" d="M312.5-217.3c3.9-1,7.9-1.8,11.8-2.6l5.9-1.2l5.9-1c2-0.3,3.9-0.8,5.9-1.3c1.9-0.4,3.9-0.6,5.9-0.5
				s4.1,0.3,6.1,0.8c2.1,0.4,4.2,1.1,6.2,2.1l0.1,0.8c-1.8,1.2-3.7,2.3-5.8,3c-1.9,0.7-3.9,1.3-5.9,1.7c-1.9,0.4-3.9,0.5-5.9,0.4
				s-4-0.3-6-0.3l-6-0.1l-6-0.2c-4-0.2-8-0.4-12-0.7L312.5-217.3z"/>
			<path class="st0" d="M411.1-236.5c0.2-1.3,0.9-2.5,1.9-3.3c0.9-0.8,1.9-1.6,3-2.3c1-0.7,2.1-1.3,3.2-1.8s2.2-1.1,3.3-1.6
				c4.5-2.1,9.3-3.7,14.1-4.7c2.5-0.5,4.9-0.8,7.4-1.1c2.6-0.2,5.2-0.2,7.8,0c1.4,0.1,2.8,0.4,4.1,0.8c1.7,0.5,3.2,1.4,4.4,2.7
				c0.7,0.8,1.2,1.8,1.5,2.8c0.2,0.9,0.3,1.9,0.3,2.8c-0.1,1.6-0.5,3.1-1.1,4.6c-0.5,1.3-1.2,2.6-1.9,3.8c-0.7,1.2-1.5,2.3-2.4,3.4
				c-1.7,2.1-3.7,4.1-5.8,5.8c-1.1,0.8-2.3,1.6-3.5,2.3s-2.5,1.3-3.9,1.8c-1.3,0.5-2.7,0.9-4.1,1.1c-1.4,0.2-2.8,0.4-4.2,0.4
				c-2.8,0-5.6-0.5-8.2-1.4c-2.5-0.9-4.9-2.2-7.1-3.8c-2.1-1.5-4-3.3-5.7-5.3c-0.8-1-1.6-2-2.2-3.2
				C411.3-233.8,411-235.2,411.1-236.5z M411.9-236.5c0,0.5,0.1,1.1,0.3,1.6c0.2,0.5,0.5,1,0.8,1.4c0.7,0.9,1.6,1.7,2.5,2.3
				c1.9,1.3,4.1,2.2,6.3,2.8c4.2,1,8.6,1.3,12.9,0.8c2-0.2,4-0.7,5.9-1.3c1.9-0.7,3.8-1.6,5.5-2.6c1.8-1.1,3.5-2.4,5-3.9
				c1.5-1.4,2.7-3.1,3.7-4.9c0.4-0.8,0.7-1.6,0.8-2.4c0-0.3,0-0.6,0-0.8c0-0.1,0-0.3-0.1-0.4c-0.5-0.5-1-0.9-1.7-1.1
				c-0.9-0.4-1.9-0.7-2.9-0.8c-2.2-0.4-4.5-0.6-6.8-0.6c-2.4,0-4.7,0.1-7,0.3c-4.8,0.4-9.5,1.1-14.2,2.2c-2.3,0.6-4.6,1.4-6.7,2.5
				c-1.1,0.6-2,1.2-2.9,2.1C412.6-238.6,412.1-237.6,411.9-236.5L411.9-236.5z"/>
		</g>
		<g id="mushrooms">
			<path class="st11" d="M433.9-188c1.4,6.1,17.6,5.6,34.6,1.8c17-3.9,21.3-8,19.9-14.2s-8.9-16-25.9-12.1S432.5-194.1,433.9-188z"
				/>
			<path class="st11" d="M468.9-222.5c2.8,5.8,17,8.8,28.6,3.4c11.5-5.4,19.5-19.1,16.8-24.9c-2.8-5.8-14.4,0-26,5.5
				C476.7-233.1,466.2-228.4,468.9-222.5z"/>
			<path class="st11" d="M411.3-202.9c1.2,4,8.8,6.1,16.4,3.7c7.6-2.3,11.8-7.9,10.5-12c-1.2-4-7.8-6.3-15.4-4
				C415.3-212.7,410-206.9,411.3-202.9z"/>
			<path class="st11" d="M391.6-191.1c0.4,2.4,4.5,4.2,9,3.5s7.3-3.5,6.9-5.9s-3.9-4.2-8.4-3.5C394.7-196.4,391.2-193.5,391.6-191.1
				z"/>
			<path class="st11" d="M377.3-197.5c0.3,1.8,2.4,3.3,5.8,2.8s4.9-2.5,4.6-4.4s-2-1.3-5.4-0.8S377-199.4,377.3-197.5z"/>
		</g>
		<path class="st11" d="M284.4-202.2c0.3,1.2,0.6,2.4,1,3.7s0.6,2.6,0.8,4c0.1,1.5-0.2,3-0.8,4.3c-0.2,0.4-0.4,0.7-0.6,1
			c-0.3,0.3-0.6,0.7-0.9,0.9c-0.7,0.6-1.6,1-2.5,1.2s-1.8,0.1-2.6-0.2c-0.4-0.1-0.7-0.3-1.1-0.5c-0.3-0.2-0.6-0.4-0.9-0.7
			c-1-0.9-1.9-2-2.6-3.1c-1.4-2.1-2.7-4.4-3.8-6.8c-0.5-1.2-1-2.5-1.2-3.8c-0.3-1.4-0.3-2.8-0.2-4.2c0.1-1.5,0.5-3,1.2-4.4
			c0.2-0.4,0.4-0.7,0.7-1.1c0.3-0.4,0.6-0.7,0.9-1c0.7-0.7,1.6-1.2,2.6-1.4s2-0.2,2.9,0.1c0.4,0.1,0.9,0.3,1.3,0.5s0.7,0.4,1.1,0.7
			c1.2,0.9,2.1,2.1,2.8,3.5c0.5,1.2,1,2.5,1.3,3.8L284.4-202.2z M284-202.1c-0.3-1.2-0.9-2.3-1.6-3.3s-1.6-1.8-2.5-2.5
			c-0.8-0.6-1.7-1.2-2.6-1.6c-0.6-0.3-1.2-0.4-1.8-0.2c-0.6,0.2-1,0.7-1.3,1.2c-0.5,0.8-0.9,1.7-1.1,2.7c-0.4,2.2-0.5,4.5-0.4,6.8
			c0.1,1.2,0.4,2.4,0.8,3.5s1,2.2,1.8,3.1c0.7,0.9,1.7,1.5,2.8,1.9c0.8,0.3,1.7,0.3,2.4-0.1c0.6-0.4,1.1-0.9,1.5-1.5
			c0.6-0.9,1-1.8,1.4-2.8c0.5-1.1,0.8-2.3,0.9-3.5C284.4-199.6,284.3-200.9,284-202.1z"/>
	</g>
</g>
<g id="background_details">
	<path class="st6" d="M-3.6-35.4v246.3c77.7-5.4,447.4-31.8,541.5-56.9c54.3-14.5,151.4-77.7,206.4-89.1c77.8-16.1,257.4,38.4,327,0
		c21.3-11.8,54.4-60.6,81.3-108v-76C943-40.1,4.7,39.4-3.6-35.4z"/>
</g>
<g id="background_details_2_">
	<path class="st12" d="M1172.4,5103c0,82.9-251.8-0.5-330.6,25.1c-48.7,15.8-139.7,88.5-188.1,105.1
		c-50.7,17.4-57.4,23.9-108.9,38.8c-46,13.3-374.8,70.5-430.4,70.8c-59.5,0.4-126.9-24.1-152.3,29.7
		c-23.6,49.8,69.1,160,117.3,186.6c69.5,38.4,323.7-16.1,401.4,0c55,11.4,152.1,74.6,206.4,89.1c105.4,28.1,464.5,49.7,464.5,49.7"
		/>
</g>
<g id="background_details_6_">
	
		<linearGradient id="SVGID_6_" gradientUnits="userSpaceOnUse" x1="-5113.0825" y1="1589.1194" x2="-5112.4326" y2="1589.1194" gradientTransform="matrix(-0.8464 0 0 0.8464 -3180.252 3727.7192)">
		<stop  offset="0" style="stop-color:#50C6DF"/>
		<stop  offset="1.000000e-02" style="stop-color:#50C4DE"/>
		<stop  offset="0.25" style="stop-color:#4490C3"/>
		<stop  offset="0.48" style="stop-color:#3A67AE"/>
		<stop  offset="0.69" style="stop-color:#34499F"/>
		<stop  offset="0.87" style="stop-color:#2F3795"/>
		<stop  offset="1" style="stop-color:#2E3192"/>
	</linearGradient>
	<path class="st13" d="M1146.7,5075.9l0.6-6.3C1147.3,5071.6,1147.1,5073.8,1146.7,5075.9z"/>
	
		<linearGradient id="SVGID_7_" gradientUnits="userSpaceOnUse" x1="-5132.2002" y1="1957.0299" x2="-3678.415" y2="1957.0299" gradientTransform="matrix(-0.8464 0 0 0.8464 -3180.252 3727.7192)">
		<stop  offset="0" style="stop-color:#50C6DF"/>
		<stop  offset="1.000000e-02" style="stop-color:#50C4DE"/>
		<stop  offset="0.25" style="stop-color:#4490C3"/>
		<stop  offset="0.48" style="stop-color:#3A67AE"/>
		<stop  offset="0.69" style="stop-color:#34499F"/>
		<stop  offset="0.87" style="stop-color:#2F3795"/>
		<stop  offset="1" style="stop-color:#2E3192"/>
	</linearGradient>
	<path class="st14" d="M-63.1,5339.2c25.5-53.8,227.9-24.5,287.2-29.5c206.5-17.8,202.3-82.1,278.3-93.2c-7.2-7.3-11-13.8-9.1-16.2
		c2.6-3.2,14.7,2.2,27,12.1c1.2,1,2.4,2,3.6,3c8.5-0.4,17.1-0.8,25.6-1.2c-4.5-5.2-8.2-10.9-11.3-17c-7.3-14-10.2-27-6.5-28.9
		c3.6-1.9,12.6,7.9,19.8,22c4.8,9.2,7.7,17.9,8.1,23.4c6.2-0.3,12.3-0.7,18.2-1.2c-2.6-6-4.4-12.3-5.6-18.8
		c-2.9-15.5-2-28.8,2.1-29.5s9.7,11.2,12.7,26.8c1.5,7.9,2,15.2,1.5,20.6c9.3-0.8,18.1-1.9,26.3-3.1c0.7-5.3,1.9-10.6,3.6-15.7
		c4.7-15.1,11.8-26.3,15.7-25.1c4,1.2,3.3,14.5-1.4,29.6c-0.9,2.9-1.9,5.7-3,8.3c4.2-1,8.4-2.1,12.5-3.5
		c48.4-16.6,125.7-91.6,174.4-107.4c76.7-24.9,334.1,53.3,347-18.8l-3,616.5c0,0-383.9-22.3-489.3-50.4
		c-190.9-136.9-313.6-115.7-383.4-116.2c-79.4-0.6-164.3,38.4-233.9,0C5.9,5499.1-86.7,5389-63.1,5339.2z"/>
</g>
<g id="Partners">
	
		<linearGradient id="SVGID_8_" gradientUnits="userSpaceOnUse" x1="862.1322" y1="1828.6033" x2="1024.2622" y2="1666.4734" gradientTransform="matrix(0.8464 0 0 0.8464 83.3505 3727.7192)">
		<stop  offset="0" style="stop-color:#FFE381"/>
		<stop  offset="5.000000e-02" style="stop-color:#FFE587"/>
		<stop  offset="0.26" style="stop-color:#FFEDA0"/>
		<stop  offset="0.49" style="stop-color:#FEF3B2"/>
		<stop  offset="0.72" style="stop-color:#FEF7BD"/>
		<stop  offset="1" style="stop-color:#FEF8C0"/>
	</linearGradient>
	<path class="st15" d="M891.2,5201.4c-7.8,0-22.6,18.1-22.6,34.2s8.2,34.5,41.4,37.7c11.2,1.1,61.7,23.2,97.4-27.1
		c23.7-33.3,19.7-68.9,6.8-95.3c-6-12.2-22.9-34.3-33.3-47.4c-10.2-12.7-30.1-21.8-46.6-27.5c-13.4-4.6-36.3-3.6-38.2-16
		c-1.2-7.7-9.5-14.4-18.8-15.9c0,0.4,0,0.8,0,1.3c0,1.5-0.1,3-0.4,4.5c14.1,7.6,11.7,32.8,5.8,39.2c-11.2,12.3-18.6,48.3-12.2,66
		C873.9,5171.7,881,5187.6,891.2,5201.4z"/>
	<path class="st10" d="M946.4,5212.3c-3.1,0.4-6.1,1.1-9.1,2.1c-2.9,0.9-5.8,2.2-8.5,3.7c-5.3,3-9.6,7.4-12.4,12.8
		c-1.3,2.7-2.3,5.6-2.9,8.5l-0.4,2.2c-0.1,0.8-0.2,1.5-0.3,2.3c-0.2,1.5-0.2,3-0.3,4.6c0,6.2,0.7,12.4,2,18.5c-0.5-1.5-1-3-1.5-4.5
		c-0.4-1.5-0.8-3-1.2-4.6c-0.4-1.5-0.6-3.1-0.8-4.7c-0.1-0.8-0.2-1.6-0.3-2.4s-0.2-1.6-0.2-2.4c-0.1-1.6-0.1-3.2,0-4.8
		c0.1-0.8,0.1-1.6,0.2-2.4l0.3-2.4c0.6-3.2,1.6-6.3,3-9.2c1.5-2.9,3.5-5.6,5.8-7.8c2.3-2.2,5-4.1,7.9-5.6c2.9-1.4,5.9-2.5,9-3.1
		C940,5212.4,943.2,5212.1,946.4,5212.3z"/>
	<path class="st2" d="M1162.9,5163.7c-22.6-0.9-42.2,6.2-56.7,20.5c0,0-39.2,39-99.1,39.2c-34.7,0.1-73.5-22.5-96.8-46.1
		c-2.9-2.9-7.6-3-10.5-0.1s-3,7.6-0.1,10.5c12,12.2,52.6,40.2,92.9,45.6c73.9,9.8,122-40.7,122-40.7c29.2-29.1,73.4-12.3,73.8-12.1
		l4.3-11C1183.2,5166.1,1173.1,5164.1,1162.9,5163.7z"/>
	<g>
		<g>
			<defs>
				<path id="SVGID_9_" d="M451.1,5496.4c-55.5,0-101.8-2.1-138.4-6.2c-51.8-5.8-81.1-15.3-89.6-29c-3.4-5.2-3.5-11.9-0.4-17.2
					c8.5-15.2,40.6-23.5,66.4-23.5c21.7,0,36.7-9.8,44.7-29.1c6.5-15.6-0.3-37.3-4.1-59.5c-3.3-19.5-1.9-62.1-9.5-69.7l22.5,15.6
					c0,16-1.9,28.5,2,51.6c2.5,14.7,13.4,43,3.1,67.9c-10.4,25.2-30.8,38.6-58.8,38.6c-27.5,0-49.4,9.1-53.1,15.7
					c-0.5,0.5-0.5,1.3,0,1.8c2,3.3,23.7,27.9,215.1,27.9c35.5,0,76.7-0.8,124.8-2.8c97.3-4,173.5-16.6,226.5-37.3
					c41.5-16.3,68.5-37.4,80.3-62.8c21.2-45.6-12.8-83-16.6-100.6l13.7-5.3c3.8,11.4,11.4,18.4,18.4,37.9c9.3,26.2,8.8,52-1.7,74.4
					c-13.5,29.1-43.3,52.9-88.6,70.6c-54.5,21.4-132.3,34.3-231.4,38.3C530.7,5495.5,488.9,5496.4,451.1,5496.4z"/>
			</defs>
			<clipPath id="SVGID_10_">
				<use xlink:href="#SVGID_9_"  style="overflow:visible;"/>
			</clipPath>
			<g class="st16">
				
					<radialGradient id="SVGID_11_" cx="566.2458" cy="1951.2999" r="302.0953" gradientTransform="matrix(0.8464 0 0 0.8464 83.3505 3727.7192)" gradientUnits="userSpaceOnUse">
					<stop  offset="0" style="stop-color:#50C6DF;stop-opacity:0.5"/>
					<stop  offset="0.37" style="stop-color:#3F79B7;stop-opacity:0.76"/>
					<stop  offset="0.74" style="stop-color:#32449C;stop-opacity:0.94"/>
					<stop  offset="1" style="stop-color:#2E3192"/>
				</radialGradient>
				<path class="st17" d="M451.1,5496.4c-55.5,0-101.8-2.1-138.4-6.2c-51.8-5.8-81.1-15.3-89.6-29c-3.4-5.2-3.5-11.9-0.4-17.2
					c8.5-15.2,40.6-23.5,66.4-23.5c21.7,0,36.7-9.8,44.7-29.1c6.5-15.6-0.3-37.3-4.1-59.5c-3.3-19.5-1.9-62.1-9.5-69.7l22.5,15.6
					c0,16-1.9,28.5,2,51.6c2.5,14.7,13.4,43,3.1,67.9c-10.4,25.2-30.8,38.6-58.8,38.6c-27.5,0-49.4,9.1-53.1,15.7
					c-0.5,0.5-0.5,1.3,0,1.8c2,3.3,23.7,27.9,215.1,27.9c35.5,0,76.7-0.8,124.8-2.8c97.3-4,173.5-16.6,226.5-37.3
					c41.5-16.3,68.5-37.4,80.3-62.8c21.2-45.6-12.8-83-16.6-100.6l13.7-5.3c3.8,11.4,11.4,18.4,18.4,37.9c9.3,26.2,8.8,52-1.7,74.4
					c-13.5,29.1-43.3,52.9-88.6,70.6c-54.5,21.4-132.3,34.3-231.4,38.3C530.7,5495.5,488.9,5496.4,451.1,5496.4z"/>
				<path class="st2" d="M451.1,5504.8c-55.5,0-101.8-2.1-138.4-6.2c-51.8-5.8-81.1-15.3-89.6-29c-3.4-5.2-3.5-11.9-0.4-17.2
					c8.5-15.2,40.6-23.5,66.4-23.5c21.7,0,36.7-9.8,44.7-29.1c6.5-15.6-0.3-37.3-4.1-59.5c-3.3-19.5-1.9-62.1-9.5-69.7l22.7,15.4
					c0,16-1.9,28.5,2,51.6c2.5,14.7,13.4,43,3.1,67.9c-10.4,25.2-30.8,38.5-58.8,38.5c-27.5,0-49.4,9.1-53.1,15.7
					c-0.5,0.5-0.5,1.3,0,1.8c2,3.3,23.7,27.9,215.1,27.9c35.5,0,76.7-0.8,124.8-2.8c97.3-4,173.5-16.6,226.5-37.3
					c41.5-16.3,68.5-37.4,80.3-62.8c21.2-45.6-12.8-83-16.6-100.6l13.7-5.3c3.8,11.4,11.4,18.4,18.4,37.9c9.3,26.2,8.8,52-1.7,74.4
					c-13.5,29.1-43.3,52.9-88.6,70.6c-54.5,21.4-132.3,34.3-231.4,38.3C530.7,5503.8,488.9,5504.8,451.1,5504.8z"/>
			</g>
		</g>
	</g>
	<path class="st10" d="M880.2,5132.3c0,0,15.3,46.2-33.1,76.5c-13.5,11.5-4.1,37.9,6.6,34c6.3-2.3,46.4-27.4,49.5-57.8
		C904.2,5174.3,880.2,5132.3,880.2,5132.3z"/>
	
		<ellipse transform="matrix(0.9103 -0.4139 0.4139 0.9103 -2049.4895 838.1075)" class="st2" cx="909.3" cy="5148.6" rx="3.1" ry="7.1"/>
	
		<ellipse transform="matrix(0.9103 -0.4139 0.4139 0.9103 -2051.9702 830.8392)" class="st2" cx="891.3" cy="5150.7" rx="3.1" ry="7.1"/>
	<polygon class="st10" points="866.4,5186.8 841.6,5136.1 838.2,5146.1 806.1,5104.9 803.7,5115.4 776.1,5082.2 777.9,5113 
		806,5140.3 809.6,5123.9 842.1,5162.8 844.4,5153.9 	"/>
	<polygon class="st10" points="897.3,5175.3 893.2,5119 901.2,5125.9 908.3,5074.2 915.6,5082 922.7,5039.4 936.6,5067 
		926.1,5104.7 914.7,5092.3 906.2,5142.3 899.8,5135.8 	"/>
	<path class="st11" d="M905.1,5186.4c-0.9,0-1.9-0.4-2.5-1l-7.8-7.3c-1.4-1.5-1.3-3.9,0.2-5.3c1.4-1.3,3.5-1.3,4.9-0.2l7.8,7.3
		c1.5,1.4,1.6,3.8,0.2,5.3C907.1,5185.9,906.1,5186.4,905.1,5186.4L905.1,5186.4z"/>
	<path class="st10" d="M960.2,5114.9c3.1,3.7,5.8,7.6,8.1,11.8c1.2,2.1,2.2,4.3,3.2,6.5c0.5,1.1,0.8,2.3,1.3,3.4
		c0.4,1.1,0.8,2.3,1.1,3.5c1.4,4.8,2,9.7,2,14.6c-0.1,5-0.9,9.9-2.5,14.7c-3.2,9.5-9.2,17.7-16.4,24.2s-15.6,11.4-24.8,14.4
		c8.1-4.8,15.4-10.6,21.9-17.4c6.3-6.7,11.5-14.4,14.3-22.9c1.4-4.3,2.3-8.7,2.5-13.2s-0.1-9.1-1-13.5l-0.3-1.7
		c-0.1-0.6-0.3-1.1-0.4-1.7c-0.3-1.1-0.6-2.2-0.8-3.3c-0.7-2.2-1.4-4.4-2.3-6.6C964.4,5123.4,962.3,5119.2,960.2,5114.9z"/>
	<path class="st9" d="M935.5,5101.2c0,0,30.5,37.3-8,67.7s-4.2,43,4.6,39.2c17.4-7.5,63.9-39.2,28.2-93.2"/>
	<path class="st2" d="M872.6,5281.1c-3.3,0-6.2-2.2-7.2-5.4c-2.2-7.5-3.9-15.1-5.2-22.9c-3.2-18.5-3.9-37.4-2.1-56.1
		c0.4-4.1,4-7.1,8.1-6.8s7.1,4,6.8,8.1v0.1c-2.3,24.7,0,49.6,6.8,73.4c1.1,3.9-1.1,8.1-5.1,9.2
		C874,5280.9,873.3,5281.1,872.6,5281.1z"/>
	<path class="st11" d="M865.5,5201.2h-0.3c-2-0.2-3.6-2-3.4-4l0,0l0.9-10.6c0.2-2,2-3.6,4-3.4s3.6,2,3.4,4l0,0l-1,10.6
		C869,5199.7,867.4,5201.2,865.5,5201.2z"/>
	
		<ellipse transform="matrix(0.9239 -0.3827 0.3827 0.9239 -1866.2712 708.6116)" class="st11" cx="848" cy="5045.4" rx="26.7" ry="26.7"/>
	<path class="st10" d="M828.1,5048.3c-1.6,0-3-1.3-3-3c0-12.6,10.2-22.9,22.9-22.9l0,0c1.6,0.1,2.9,1.5,2.8,3.1
		c-0.1,1.5-1.3,2.7-2.8,2.8c-9.3,0-16.8,7.5-16.9,16.9C831.1,5046.9,829.8,5048.3,828.1,5048.3
		C828.2,5048.3,828.1,5048.3,828.1,5048.3z"/>
	<path class="st10" d="M944.3,5119.6c0,0,7.4,2.6,1.5,22.5c-3.3,10.6-9.7,20-18.4,26.8c-4.7,3.6-8.9,7.7-12.6,12.4
		c9.9-17,30.7-21.7,26.6-46.8C939.3,5120.9,944.3,5119.6,944.3,5119.6z"/>
	<path class="st2" d="M317.8,5253.2h30.5c5,0,9.1,4.1,9.1,9.1v1.5c0,5-4.1,9.1-9.1,9.1h-30.5c-5,0-9.1-4.1-9.1-9.1v-1.5
		C308.7,5257.3,312.8,5253.2,317.8,5253.2z"/>
	<path class="st2" d="M325.4,5266.9h19c2.9,0,5.3,2.4,5.3,5.3l0,0c0,2.9-2.4,5.3-5.3,5.3h-19c-2.9,0-5.3-2.4-5.3-5.3l0,0
		C320.1,5269.3,322.5,5266.9,325.4,5266.9z"/>
</g>
<g id="background_details_4_">
	<circle class="st18" cx="593.9" cy="1563.6" r="161.9"/>
</g>
<g id="background_details_3_">
	<circle class="st19" cx="236.6" cy="1513.3" r="323.4"/>
</g>
<g id="background_details_5_">
	
		<linearGradient id="SVGID_12_" gradientUnits="userSpaceOnUse" x1="-39.8421" y1="187.5662" x2="1460.6174" y2="187.5662" gradientTransform="matrix(0.8464 0 0 0.8464 83.3505 3727.7192)">
		<stop  offset="0" style="stop-color:#50C6DF"/>
		<stop  offset="0.29" style="stop-color:#4FC4DE"/>
		<stop  offset="0.45" style="stop-color:#4EBCDA"/>
		<stop  offset="0.58" style="stop-color:#4BAED3"/>
		<stop  offset="0.69" style="stop-color:#469AC8"/>
		<stop  offset="0.8" style="stop-color:#4081BB"/>
		<stop  offset="0.89" style="stop-color:#3962AB"/>
		<stop  offset="0.97" style="stop-color:#313E99"/>
		<stop  offset="1" style="stop-color:#2E3192"/>
	</linearGradient>
	<path class="st20" d="M-42.5,3935.1c163-89.9,709.4,156.9,1224.3-221.7c31.2-31.2-46.5,255.2-179.8,244.5
		c-189.7-15.2-301.4-42.3-468.2,77c-71,50.8-567.9,14.4-567.9,14.4S-134.5,3985.8-42.5,3935.1z"/>
	<path class="st1" d="M41.3,3818.7c179-6.1,444.1,151.6,628.4,72.4c-184.3,92.2-387-28.9-686.3,4.6
		C-197.9,3823.1,22.1,3819.3,41.3,3818.7z"/>
</g>
<g id="Schedule">
	<ellipse class="st6" cx="179.2" cy="4151.8" rx="185.9" ry="48.8"/>
	<path class="st10" d="M291.5,4055.7c11.7,30.9,78.1,90.4,23.7,106.3c-55.2,16.1-28.1-74.2-46.8-104.3
		C275.3,4057.2,284.8,4054.6,291.5,4055.7z"/>
	<path class="st10" d="M265.9,4186.9c55.4-3.2,34.8-96.6-16.8-75.2C218,4124.7,233.4,4188.8,265.9,4186.9"/>
	<path class="st9" d="M265.9,4186.9c2.4-0.2,4.7-0.7,7-1.3c2.3-0.6,4.5-1.4,6.6-2.5c4.2-2.1,7.9-5.1,10.7-8.8
		c2.8-3.7,4.8-8,5.8-12.5c1.1-4.5,1.4-9.2,1.1-13.8c-0.8-9.2-4-18.4-9.7-25.5c-2.8-3.6-6.3-6.6-10.3-8.8c-4-2.1-8.4-3.2-12.9-3.3
		c-2.3,0-4.5,0.2-6.8,0.6c-1.1,0.2-2.2,0.5-3.3,0.8s-2.2,0.7-3.3,1.1c-2.1,0.8-4.1,1.8-5.9,3.1c-0.5,0.3-0.8,0.7-1.3,1
		c-0.4,0.3-0.9,0.7-1.2,1.1l-1.1,1.2c-0.4,0.4-0.8,0.8-1.1,1.3c-2.8,3.6-4.7,7.8-5.6,12.3c-0.9,4.5-1.2,9.2-0.9,13.8
		c0.3,4.7,1.2,9.3,2.7,13.7c1.4,4.5,3.4,8.7,6.1,12.6c2.6,3.9,5.9,7.3,9.8,9.9C256.5,4185.5,261.2,4186.9,265.9,4186.9h-1.8
		c-0.6,0.1-1.2,0.1-1.8,0c-1.2,0-2.4-0.2-3.5-0.4c-0.6-0.1-1.2-0.2-1.8-0.4l-1.7-0.6l-0.8-0.3l-0.8-0.4l-1.7-0.8
		c-4.2-2.5-7.9-5.8-10.8-9.8c-5.7-8-9.3-17.4-10.2-27.2c-0.5-4.9-0.3-9.9,0.6-14.8c0.9-5,3-9.7,6-13.8c0.8-1,1.6-2,2.5-2.9
		c0.5-0.5,0.9-0.9,1.4-1.3s1-0.8,1.5-1.2l1.6-1.1l0.8-0.5c0.3-0.2,0.6-0.3,0.8-0.4c1.1-0.6,2.3-1.1,3.5-1.6c1.1-0.5,2.3-0.8,3.5-1.2
		c1.2-0.4,2.4-0.7,3.6-0.9c2.5-0.5,5-0.8,7.5-0.7c5.1,0.1,10.1,1.4,14.6,3.8c4.4,2.4,8.3,5.8,11.3,9.8s5.4,8.4,7,13.1
		s2.6,9.5,2.8,14.5c0.3,4.9-0.3,9.9-1.6,14.6c-1.3,4.8-3.6,9.2-6.8,13c-3.2,3.8-7.2,6.7-11.8,8.6c-2.2,0.9-4.6,1.6-6.9,2.1
		C270.8,4186.6,268.4,4186.9,265.9,4186.9z"/>
	<path class="st9" d="M142.3,4121.5c0,0,8.8,36.7,54.2,72.3c49.8,28.3,62.9-44.4,62.9-44.4s21.8-2.5,42.9-29.4
		c8.9-11.3,17.7-27.1,24.6-48.7c21.9-68.6-17.9-83.5-17.9-83.5c2-0.2,11.8-2.4,18.5-13.7c7.5-12.8-0.3-27.3-2.7-31.7
		c-1-1.9-2.2-3.8-3.6-5.5l-6.8,5.2l-6.7-1.5c0.3,4.1-0.3,8.2-1.6,12.1c-5.9,16.8-25.5,22.3-43.8,30c-45.2,19-79,50.4-95.2,73.2
		C157.5,4069.1,137.5,4098.3,142.3,4121.5z"/>
	<path class="st10" d="M207.6,4190.9c27.3,12.9,38.9-16.2,42.6-29.2c0.2-0.6-0.2-1.2-0.8-1.4c-0.4-0.1-0.9,0-1.2,0.4
		c-6.2,8.5-20.7,25-40.4,28c-0.6,0.1-1,0.7-0.9,1.3C207,4190.5,207.3,4190.8,207.6,4190.9z"/>
	<path class="st10" d="M195.3,4127.9c0.6,0.7,19.6,24.5,64,21.6c0,0,20.1,0.2,43-29.5c-7.5,5.8-15.8,10.4-24.6,13.7
		C250.7,4143.9,218.2,4143.3,195.3,4127.9z"/>
	<path class="st10" d="M171.6,4170.1c0,0,16.1-7.3,18.3-25.9c5.3-44.9,17-71.9,17-71.9S161.4,4107.6,171.6,4170.1z"/>
	<path class="st9" d="M180.8,4152.7c-4.6,41.2-86.5,31.1-45.5-34.7c17-27.2,60.5-57.7,64.4-89.5c5.8,1.3,18.9,7.8,23.3,11.6
		C201,4072.6,185.2,4113.9,180.8,4152.7z"/>
	
		<ellipse transform="matrix(0.4139 -0.9103 0.9103 0.4139 -3537.8755 2651.5508)" class="st2" cx="290.3" cy="4073.3" rx="10.3" ry="4.5"/>
	<polygon class="st9" points="339.9,3869.6 305.1,3898.1 259,3888.6 294.8,3859.3 	"/>
	<polygon class="st10" points="313.4,3938.4 305.1,3898.1 339.9,3869.6 349.2,3909.2 	"/>
	<polygon class="st11" points="268.3,3928.1 259,3888.6 305.1,3898.1 313.4,3938.4 	"/>
</g>
<linearGradient id="SVGID_13_" gradientUnits="userSpaceOnUse" x1="581.276" y1="-2260.4197" x2="581.276" y2="-3986.6721" gradientTransform="matrix(0.8464 0 0 0.8464 83.3505 3727.7192)">
	<stop  offset="0" style="stop-color:#FEF8C0"/>
	<stop  offset="0.39" style="stop-color:#FEF8C2"/>
	<stop  offset="0.59" style="stop-color:#FEF9CA"/>
	<stop  offset="0.75" style="stop-color:#FEFBD8"/>
	<stop  offset="0.89" style="stop-color:#FFFDEB"/>
	<stop  offset="1" style="stop-color:#FFFFFF"/>
</linearGradient>
<path class="st21" d="M-6,353.4c29.4,40.3,1162.6,0,1162.6,0v1059.7c-126.8-75.5-288.8-119.4-452.3-119.4
	c-308.9,0-576.1,290.9-710.3,520.8C-6,1247.1-3.5,591-6,353.4z"/>
<linearGradient id="SVGID_14_" gradientUnits="userSpaceOnUse" x1="581.2761" y1="-4431.2607" x2="581.2761" y2="-3004.6306" gradientTransform="matrix(0.8464 0 0 0.8464 83.3505 3727.7192)">
	<stop  offset="0" style="stop-color:#FEF8C0"/>
	<stop  offset="0.11" style="stop-color:#FEF0A9"/>
	<stop  offset="0.23" style="stop-color:#FFEA97"/>
	<stop  offset="0.38" style="stop-color:#FFE68A"/>
	<stop  offset="0.57" style="stop-color:#FFE483"/>
	<stop  offset="1" style="stop-color:#FFE381"/>
</linearGradient>
<path class="st22" d="M1156.6-22.9c-29.4,40.3-77.9,78.9-106.5,93.3c-8.9,4.4-77.3,32.8-239.5,0c-60.5-12.2-186.3,74.6-246.2,89.1
	C448.2,187.5-6,208.9-6,208.9v574.3c126.8-75.5,278.9-119.4,442.4-119.4c308.9,0,586,290.9,720.2,520.8
	C1156.5,617.2,1154,214.7,1156.6-22.9z"/>
<g id="Layer_12">
	<circle class="st2" cx="621.7" cy="-884.3" r="27.5"/>
</g>
<g id="Layer_12_1_">
	<circle class="st6" cx="290.4" cy="-695.2" r="23.6"/>
</g>
<g id="Layer_12_2_">
	
		<ellipse transform="matrix(3.327794e-02 -0.9994 0.9994 3.327794e-02 839.8596 -657.7106)" class="st6" cx="79.9" cy="-763" rx="39.2" ry="39.2"/>
</g>
<g id="Layer_12_3_">
	<circle class="st2" cx="79.4" cy="-522.4" r="32.4"/>
</g>
<g id="Layer_12_15_">
	<circle class="st9" cx="179.5" cy="1257.2" r="21.9"/>
</g>
<g id="Layer_12_16_">
	
		<ellipse transform="matrix(0.9239 -0.3827 0.3827 0.9239 -547.5795 307.3325)" class="st23" cx="498.7" cy="1530.1" rx="20.6" ry="20.6"/>
</g>
<g id="Layer_12_17_">
	<circle class="st9" cx="86.1" cy="1379.4" r="20.9"/>
</g>
<g id="Layer_12_18_">
	<circle class="st24" cx="307.7" cy="1539.1" r="26.9"/>
</g>
<g id="Layer_12_19_">
	<circle class="st25" cx="121.1" cy="1607.6" r="59.7"/>
</g>
<g id="Layer_12_20_">
	<circle class="st25" cx="383.9" cy="1430.5" r="27.2"/>
</g>
<g id="Layer_12_21_">
	<circle class="st9" cx="399.7" cy="314.6" r="20"/>
</g>
<g id="Layer_12_22_">
	<circle class="st9" cx="158.1" cy="353.7" r="52.2"/>
</g>
<g id="Layer_12_23_">
	<circle class="st25" cx="172.5" cy="217.4" r="37.8"/>
</g>
<g id="SVGgroupcirc">
	<circle class="st25" cx="428.4" cy="1497.9" r="20"/>
	<circle class="st25" cx="261.5" cy="1669.2" r="20"/>
	<ellipse class="st9" cx="49.9" cy="1499.4" rx="49.7" ry="49.4"/>
	
		<ellipse transform="matrix(1 -6.265727e-03 6.265727e-03 1 -9.9813 0.4619)" class="st25" cx="68.7" cy="1593.2" rx="27.2" ry="27.2"/>
	<circle class="st9" cx="147.1" cy="1477.8" r="40"/>
	
		<ellipse transform="matrix(3.327795e-02 -0.9994 0.9994 3.327795e-02 -1300.1501 1742.8391)" class="st25" cx="250.8" cy="1543.5" rx="56.3" ry="56.3"/>
	<circle class="st25" cx="201.2" cy="1400.7" r="37.8"/>
	
		<ellipse transform="matrix(0.9998 -2.028569e-02 2.028569e-02 0.9998 -25.782 1.6481)" class="st25" cx="68.3" cy="1271.6" rx="38.8" ry="38.8"/>
	<circle class="st25" cx="375.5" cy="1580.7" r="27.2"/>
</g>
<g id="Layer_12_24_">
	<circle class="st2" cx="384.8" cy="-869.8" r="27.5"/>
</g>
<g id="SVGgroupcirc_1_">
	<circle class="st9" cx="478.5" cy="355.2" r="20.6"/>
	<ellipse class="st9" cx="28.3" cy="304" rx="49.7" ry="49.4"/>
	
		<ellipse transform="matrix(0.9985 -5.530040e-02 5.530040e-02 0.9985 -22.6064 2.8416)" class="st25" cx="40" cy="409.9" rx="27.2" ry="27.2"/>
	<circle class="st9" cx="118.4" cy="294.6" r="40"/>
	<circle class="st25" cx="222.2" cy="360.2" r="56.3"/>
	<circle class="st9" cx="346.9" cy="248" r="27.2"/>
	<circle class="st25" cx="57.4" cy="161.1" r="38.8"/>
	<ellipse class="st9" cx="29.6" cy="205.4" rx="20.9" ry="20.9"/>
	<circle class="st9" cx="279.1" cy="355.8" r="26.9"/>
	<ellipse class="st25" cx="92.6" cy="424.3" rx="59.7" ry="59.7"/>
	<circle class="st9" cx="346.9" cy="397.4" r="27.2"/>
	<circle class="st9" cx="660.6" cy="217.2" r="24.4"/>
	<circle class="st9" cx="955" cy="169.5" r="63.6"/>
	<ellipse class="st9" cx="1079.1" cy="230.1" rx="60.6" ry="60.2"/>
	<circle class="st25" cx="1099" cy="101" r="33.1"/>
	
		<ellipse transform="matrix(0.1735 -0.9848 0.9848 0.1735 591.5051 1187.8228)" class="st9" cx="1003.4" cy="241.5" rx="48.8" ry="48.8"/>
	<circle class="st25" cx="876.9" cy="161.5" r="68.6"/>
	<circle class="st9" cx="724.9" cy="298.3" r="33.1"/>
	<circle class="st25" cx="937.5" cy="335.6" r="46.1"/>
	<circle class="st25" cx="1099.3" cy="492.9" r="47.2"/>
	<circle class="st9" cx="963.7" cy="510.4" r="26.7"/>
	<circle class="st9" cx="724.9" cy="116.2" r="33.1"/>
</g>
<g id="SVGgroupcirc_2_">
	
		<rect x="255.6" y="-931.9" transform="matrix(0.8439 -0.5366 0.5366 0.8439 534.4895 1.6148)" class="st26" width="28.8" height="28.8"/>
	<circle class="st2" cx="270" cy="-917.5" r="14.4"/>
	<circle class="st2" cx="346.7" cy="-928.5" r="20.5"/>
	
		<rect x="168.9" y="-935.4" transform="matrix(0.8439 -0.5366 0.5366 0.8439 523.842 -47.2842)" class="st26" width="23.5" height="23.5"/>
	<circle class="st2" cx="180.7" cy="-923.7" r="11.8"/>
	
		<rect x="357.2" y="-897.4" transform="matrix(0.8439 -0.5366 0.5366 0.8439 526.7892 70.6416)" class="st26" width="55.1" height="55.1"/>
	<circle class="st6" cx="302.7" cy="-909.2" r="36.4"/>
	
		<rect x="180.1" y="-935.8" transform="matrix(0.8439 -0.5366 0.5366 0.8439 522.4902 -35.3216)" class="st26" width="40.9" height="40.9"/>
	<circle class="st2" cx="200.6" cy="-915.4" r="20.5"/>
	
		<rect x="352" y="-955.1" transform="matrix(0.8439 -0.5366 0.5366 0.8439 555.788 60.9636)" class="st26" width="61.2" height="61.2"/>
	<circle class="st2" cx="382.6" cy="-924.5" r="30.6"/>
	
		<rect x="210.5" y="-915.4" transform="matrix(0.8439 -0.5366 0.5366 0.8439 519.1871 -21.1381)" class="st26" width="25.5" height="25.5"/>
	<circle class="st2" cx="223.2" cy="-902.6" r="12.7"/>
	
		<rect x="274.4" y="-935.7" transform="matrix(0.8412 -0.5408 0.5408 0.8412 542.674 12.4143)" class="st26" width="36.1" height="36.1"/>
	<circle class="st2" cx="291.2" cy="-914" r="18.1"/>
	
		<rect x="143.7" y="-940.5" transform="matrix(0.8439 -0.5366 0.5366 0.8439 520.6763 -58.0279)" class="st26" width="33.8" height="33.8"/>
	<circle class="st2" cx="160.7" cy="-923.7" r="16.9"/>
	
		<rect x="881.9" y="-926.6" transform="matrix(0.8439 -0.5366 0.5366 0.8439 629.3997 338.4709)" class="st26" width="28.8" height="28.8"/>
	<circle class="st2" cx="896.2" cy="-912.2" r="14.4"/>
	<circle class="st2" cx="972.8" cy="-923.1" r="20.5"/>
	
		<rect x="795.1" y="-930.2" transform="matrix(0.8439 -0.5366 0.5366 0.8439 618.7891 289.5299)" class="st26" width="23.5" height="23.5"/>
	<circle class="st2" cx="806.8" cy="-918.4" r="11.8"/>
	
		<rect x="983.4" y="-892" transform="matrix(0.8439 -0.5366 0.5366 0.8439 621.6979 407.4955)" class="st26" width="55.1" height="55.1"/>
	<circle class="st2" cx="1010.9" cy="-864.5" r="27.5"/>
	<circle class="st2" cx="928.9" cy="-903.9" r="36.4"/>
	
		<rect x="806.3" y="-930.5" transform="matrix(0.8439 -0.5366 0.5366 0.8439 617.4003 301.5345)" class="st26" width="40.9" height="40.9"/>
	<circle class="st2" cx="826.7" cy="-910" r="20.5"/>
	<circle class="st2" cx="1008.8" cy="-919.2" r="30.6"/>
	
		<rect x="836.7" y="-910" transform="matrix(0.8439 -0.5366 0.5366 0.8439 614.0538 315.6788)" class="st26" width="25.5" height="25.5"/>
	<circle class="st2" cx="849.4" cy="-897.3" r="12.7"/>
	
		<rect x="899.3" y="-926.8" transform="matrix(0.8439 -0.5366 0.5366 0.8439 630.8193 350.3788)" class="st26" width="36.2" height="36.2"/>
	<circle class="st2" cx="917.4" cy="-908.7" r="18.1"/>
	
		<rect x="769.9" y="-935.3" transform="matrix(0.8439 -0.5366 0.5366 0.8439 615.6233 278.7863)" class="st26" width="33.8" height="33.8"/>
	<circle class="st2" cx="786.8" cy="-918.3" r="16.9"/>
	
		<rect x="492.6" y="-946.4" transform="matrix(0.8439 -0.5366 0.5366 0.8439 579.2211 126.5004)" class="st26" width="28.8" height="28.8"/>
	
		<ellipse transform="matrix(0.9239 -0.3827 0.3827 0.9239 395.2495 123.0542)" class="st2" cx="506.9" cy="-932" rx="14.4" ry="14.4"/>
	<circle class="st2" cx="417.6" cy="-938.2" r="11.8"/>
	
		<rect x="594.2" y="-911.8" transform="matrix(0.8439 -0.5366 0.5366 0.8439 571.5194 195.525)" class="st26" width="55.1" height="55.1"/>
	
		<rect x="503.3" y="-960.1" transform="matrix(0.8439 -0.5366 0.5366 0.8439 579.8707 145.3382)" class="st26" width="72.8" height="72.8"/>
	
		<ellipse transform="matrix(0.9239 -0.3827 0.3827 0.9239 394.5625 136.1998)" class="st6" cx="539.6" cy="-923.7" rx="36.4" ry="36.4"/>
	
		<rect x="417" y="-950.3" transform="matrix(0.8439 -0.5366 0.5366 0.8439 567.2218 89.564)" class="st26" width="40.9" height="40.9"/>
	<ellipse class="st2" cx="437.6" cy="-929.8" rx="20.5" ry="20.5"/>
	
		<rect x="447.4" y="-929.9" transform="matrix(0.8439 -0.5366 0.5366 0.8439 563.9556 103.7056)" class="st26" width="25.5" height="25.5"/>
	<circle class="st2" cx="460.1" cy="-917.1" r="12.7"/>
	
		<rect x="510" y="-946.5" transform="matrix(0.8439 -0.5366 0.5366 0.8439 580.6408 138.4082)" class="st26" width="36.2" height="36.2"/>
	<circle class="st2" cx="528.1" cy="-928.5" r="18.1"/>
	
		<rect x="380.6" y="-955" transform="matrix(0.8439 -0.5366 0.5366 0.8439 565.4448 66.8157)" class="st26" width="33.8" height="33.8"/>
	<circle class="st2" cx="397.6" cy="-938.1" r="16.9"/>
	<rect x="915.4" y="-942.6" class="st26" width="39.2" height="39.2"/>
	<circle class="st2" cx="935" cy="-923" r="19.6"/>
	<rect x="712.5" y="-924.6" class="st26" width="46.8" height="46.8"/>
	<circle class="st2" cx="735.9" cy="-901.2" r="23.4"/>
	<rect x="194.7" y="-914.6" class="st26" width="46" height="46"/>
	<circle class="st2" cx="217.7" cy="-891.6" r="23"/>
	<rect x="327.3" y="-864.6" class="st26" width="23.9" height="23.9"/>
	<circle class="st2" cx="339.3" cy="-852.6" r="12"/>
	<rect x="340.9" y="-830.8" class="st26" width="44.9" height="44.9"/>
	<circle class="st2" cx="363.4" cy="-808.4" r="22.5"/>
	<rect x="403.3" y="-780.1" class="st26" width="28.6" height="28.6"/>
	<circle class="st2" cx="417.6" cy="-765.8" r="14.3"/>
	<rect x="440" y="-957.5" class="st26" width="75.3" height="75.3"/>
	<circle class="st2" cx="477.6" cy="-919.8" r="37.7"/>
	<rect x="657.2" y="-875.6" class="st26" width="39.2" height="39.2"/>
	<circle class="st2" cx="676.8" cy="-856" r="19.6"/>
	<rect x="454.2" y="-857.6" class="st26" width="46.8" height="46.8"/>
	<circle class="st2" cx="477.6" cy="-834.2" r="23.4"/>
	<rect x="101.9" y="-901.9" class="st26" width="23.9" height="23.9"/>
	<circle class="st2" cx="113.8" cy="-889.9" r="12"/>
	<rect x="115.4" y="-868.2" class="st26" width="44.9" height="44.9"/>
	<circle class="st2" cx="137.9" cy="-845.7" r="22.5"/>
	<rect x="177.8" y="-817.4" class="st26" width="28.6" height="28.6"/>
	<circle class="st2" cx="192.1" cy="-803.1" r="14.3"/>
	
		<rect x="90" y="-883" transform="matrix(0.8617 -0.5074 0.5074 0.8617 442.1668 -44.4002)" class="st26" width="99.2" height="99.2"/>
	
		<ellipse transform="matrix(0.9939 -0.1104 0.1104 0.9939 92.8891 10.3238)" class="st6" cx="139.6" cy="-833.4" rx="49.6" ry="49.6"/>
	
		<rect x="250.5" y="-848.1" transform="matrix(0.8617 -0.5074 0.5074 0.8617 454.6825 27.8273)" class="st26" width="55.7" height="55.7"/>
	<circle class="st6" cx="278.4" cy="-820.3" r="27.9"/>
	<rect x="108.2" y="-909.4" class="st26" width="68.8" height="68.8"/>
	
		<ellipse transform="matrix(0.9985 -5.530040e-02 5.530040e-02 0.9985 48.6061 6.5492)" class="st6" cx="142.6" cy="-875" rx="34.4" ry="34.4"/>
	<rect x="182.1" y="-927.5" class="st26" width="52.5" height="52.5"/>
	<circle class="st6" cx="208.3" cy="-901.3" r="26.2"/>
	<rect x="341.3" y="-807.5" class="st26" width="44.3" height="44.3"/>
	<circle class="st6" cx="363.4" cy="-785.4" r="22.1"/>
	<rect x="227.7" y="-824" class="st26" width="43.7" height="43.7"/>
	<circle class="st6" cx="249.5" cy="-802.1" r="21.8"/>
	<rect x="312.9" y="-914.4" class="st26" width="39.2" height="39.2"/>
	<circle class="st2" cx="332.5" cy="-894.8" r="19.6"/>
	<rect x="109.9" y="-896.4" class="st26" width="46.8" height="46.8"/>
	
		<ellipse transform="matrix(3.327795e-02 -0.9994 0.9994 3.327795e-02 1001.4216 -710.6796)" class="st2" cx="133.3" cy="-873" rx="23.4" ry="23.4"/>
	<circle class="st6" cx="64.8" cy="-641.7" r="63.2"/>
	<circle class="st6" cx="154.9" cy="-673.5" r="53.3"/>
	<ellipse class="st6" cx="175.8" cy="-530.2" rx="38.5" ry="38.5"/>
	
		<ellipse transform="matrix(4.531443e-02 -0.999 0.999 4.531443e-02 529.0588 -430.5985)" class="st6" cx="39.2" cy="-492.1" rx="35" ry="35"/>
	
		<ellipse transform="matrix(0.1602 -0.9871 0.9871 0.1602 1638.4493 418.9662)" class="st6" cx="1065.4" cy="-753.4" rx="62.8" ry="62.8"/>
	<circle class="st6" cx="71.4" cy="-850.9" r="62.8"/>
	<circle class="st6" cx="1092.8" cy="-836.4" r="35.4"/>
	<circle class="st6" cx="826.6" cy="-828.4" r="27.4"/>
	
		<ellipse transform="matrix(0.9998 -2.204125e-02 2.204125e-02 0.9998 13.899 2.6637)" class="st2" cx="127.8" cy="-629.2" rx="35.4" ry="35.4"/>
	<circle class="st2" cx="109" cy="-549.9" r="19"/>
	<circle class="st2" cx="218.8" cy="-700.5" r="18.3"/>
	<circle class="st2" cx="758.8" cy="-881.8" r="51.8"/>
	<circle class="st2" cx="826.6" cy="-846" r="17.5"/>
	<circle class="st2" cx="710.5" cy="-890.5" r="15.6"/>
	<circle class="st2" cx="167.8" cy="-737.9" r="38.5"/>
	<ellipse class="st2" cx="-4.4" cy="-740.3" rx="38.5" ry="38.5"/>
	
		<ellipse transform="matrix(0.1602 -0.9871 0.9871 0.1602 1641.5724 276.437)" class="st6" cx="983.2" cy="-826.5" rx="43" ry="43"/>
	<circle class="st2" cx="1043" cy="-759.1" r="24.4"/>
	<circle class="st2" cx="977.1" cy="-870.7" r="31.6"/>
</g>
<g id="Layer_12_9_">
	<circle class="st2" cx="981.4" cy="-1231.7" r="24.2"/>
</g>
<g id="Layer_12_10_">
	<circle class="st2" cx="1077.5" cy="-1299.2" r="18.4"/>
</g>
<g id="Layer_12_11_">
	<circle class="st2" cx="1084" cy="-1361.7" r="24.7"/>
</g>
<g id="Layer_12_12_">
	<circle class="st2" cx="968.3" cy="-1269.6" r="11.4"/>
</g>
<g id="Layer_12_13_">
	<circle class="st2" cx="1142" cy="-1261" r="20.3"/>
</g>
<g id="Layer_12_14_">
	<circle class="st6" cx="816.9" cy="-1290.6" r="15.7"/>
</g>
<g id="Layer_12_4_">
	<circle class="st2" cx="62.6" cy="-1191.6" r="20.6"/>
</g>
<g id="Layer_12_5_">
	
		<ellipse transform="matrix(1.222028e-03 -1 1 1.222028e-03 1197.4348 -1196.7751)" class="st2" cx="-0.4" cy="-1197.8" rx="13.1" ry="13.1"/>
</g>
<g id="Layer_12_6_">
	<circle class="st2" cx="190.7" cy="-1132.7" r="21"/>
</g>
<g id="Layer_12_7_">
	<circle class="st6" cx="286.1" cy="-1332.6" r="8.8"/>
</g>
<g id="Layer_12_8_">
	<circle class="st6" cx="149.4" cy="-1219.5" r="38.8"/>
</g>
<g id="background_details_8_">
	
		<linearGradient id="background_30_1_" gradientUnits="userSpaceOnUse" x1="-7.9393" y1="-6046.4326" x2="-7.9393" y2="-6443.9297" gradientTransform="matrix(0.84 0.104 -0.104 0.84 -77.8409 3895.2126)">
		<stop  offset="0" style="stop-color:#2E3192"/>
		<stop  offset="5.000000e-02" style="stop-color:#3550A2"/>
		<stop  offset="0.1" style="stop-color:#3C6FB2"/>
		<stop  offset="0.17" style="stop-color:#428BC0"/>
		<stop  offset="0.24" style="stop-color:#47A1CC"/>
		<stop  offset="0.33" style="stop-color:#4BB2D4"/>
		<stop  offset="0.44" style="stop-color:#4EBDDB"/>
		<stop  offset="0.58" style="stop-color:#50C4DE"/>
		<stop  offset="1" style="stop-color:#50C6DF"/>
	</linearGradient>
	<path id="background_30" class="st27" d="M1163.6-1405.2c-22.7-2.8-56.9,11.7-56.9,11.7c2.3-4.8,5.8-12.1,2.7-15
		c-2.2-2.1-10.6,2.9-16.7,6.1c15.1-10.3,24.3-20.7,21.8-25.3c-2.7-4.8-21.1,3.5-36.5,15.7c2.9-3.3,5.8-6.8,8.7-10.6
		c13.9-18.6,20.4-26.4,16.7-30.9c-2.5-3-19.8,7.5-34.3,25.6c1.7-10.5,0.3-18.7-4.2-20.3c-4.1-1.5-8.8,32.8-16.9,28.9
		c-138.6-66.9-263.8-68.7-353.2-28.6c-14-17.9-54.7-19.6-83.3-20c-16-0.3-27.9,12.5-36.4,22.6c0.7-11.4-2.9-21.5-9.7-26.9
		c0.9-1.7,2.1-3.3,3.3-4.8c2.1-2.4,4.6-4.4,7.4-5.9c1.8,5.3,7.5,8.2,12.8,6.5c5.3-1.8,8.2-7.5,6.5-12.8c-1.8-5.3-7.5-8.2-12.8-6.5
		c-3.7,1.2-6.4,4.5-6.9,8.4c-0.1,0.6-0.1,1.1-0.1,1.7c-7.1,0.8-13.7,4.2-18.4,9.7c-12.8-2.5-27.4,8.4-34.2,25.8l0,0
		c-1.7-2-7.6-8.8-14.6-8.1c-6,0.6-10.5,6.4-13.7,12.3c-4.1,0.3-12.1,1.2-13.8,5.8c-1.3,3.4,1.6,7.1,8.3,16
		c14.2,19,14.3,41.7,13.4,42.9c-5.4-13.5-15.6-30.8-19.5-24c-3.3,5.8-2.2,24.7,3.7,32.3c-10.4-5.6-23.7-8.1-7.3,11
		c-6.9-3.1-51.1-16.1-62.6-12c-6,2.2-11.4,5.9-15.5,10.8c-8.2-0.7-16.5-0.4-24.6,1c-10,1.7-19.6,5-28.5,9.7
		c-21.5,0.5-42,9.3-57.1,24.7c-17.6-4.6-36.4-1.4-51.4,8.9c-18.1-5.2-24.7-102.8-42.7-108c-4.3-12.1-14.1-21.2-26-23.7
		c-14.8-3-28.5,5.2-35.8,13.7c-15.6-5.2-39-2.5-54.6,15.8c-12.2-36.1-70.9-48.6-94.3-50.3l-11.8,216.7l1156.1,126.1 M544.2-1456.2
		c-1.7,3.2-4.2,5.1-5.7,4.4c-1.4-0.8-1.3-4,0.3-7.2c1.7-3.2,4.2-5.1,5.7-4.4C545.9-1462.5,545.8-1459.4,544.2-1456.2z M559.6-1451
		c-1.7,3.2-4.2,5.1-5.7,4.4c-1.5-0.8-1.3-4,0.3-7.2c1.7-3.2,4.2-5.1,5.7-4.4C561.5-1457.4,561.3-1454.2,559.6-1451L559.6-1451z"/>
</g>
<g id="background_details_9_">
	
		<linearGradient id="SVGID_15_" gradientUnits="userSpaceOnUse" x1="514.6409" y1="-5665.7837" x2="514.6409" y2="-6176.7793" gradientTransform="matrix(0.8464 0 0 0.8464 83.3505 3727.7192)">
		<stop  offset="0" style="stop-color:#2E3192"/>
		<stop  offset="0.15" style="stop-color:#32419B"/>
		<stop  offset="0.46" style="stop-color:#3C6DB1"/>
		<stop  offset="0.88" style="stop-color:#4BB1D4"/>
		<stop  offset="1" style="stop-color:#50C6DF"/>
	</linearGradient>
	<path class="st28" d="M1156.8-1411.4c0,0-46.6-74.5-201.4-47.4c-7.2,1.3-46,11.2-79.7,21.9c-22.3-7-30.3-2.4-30.3-2.4
		c6.1-24.8,0-34.7-4.4-35.3c-4.8-0.6-10.4,4.9-14.8,14.6c-2.2-23-8.4-40.7-14.6-40.3c-6.7,0.4-10.7,21.5-9.1,47.1
		c0.3,4.8,0.8,9.4,1.4,13.7c-10.2-16.8-21-27.4-25.9-24.9c-4.7,2.4-2.7,16.1,4.2,33l0,0c-6.4-4-11.4-5.5-13.7-3.4
		c-1.3,1.2-1.6,3.4-1,6.3c-28.9-4.3-86.6-9.8-140.6,34.8c-24.5,20.3-35.5,22-45.3,28.1c-1.5-0.6-3.1-1.1-4.6-1.5
		c-11.1-2.8-22.6,0.7-27.4,4.2c-15.5-3-30.1,28.4-136.8,28.4c-75.3,0-93.9-63.5-127.1-71.1c3.6-3.4,4.6-8.8,4-9.2
		c-2-1.6-6.9-0.1-13.3,3.7c7.9-14.7,10.9-26.4,6.7-28.2c-4.5-1.9-15.5,7.7-26.6,22.4c0.9-3.7,1.8-7.6,2.4-11.6
		c3.6-21.7,1.4-39.3-4.9-39.3c-5.8,0-13.2,15.2-17.1,34.8c-3.3-8-8.3-12.8-12.8-11.6c-2.9,0.8-1,7.8,0.2,14.5
		c-7.1-17-35.5-46.5-58.7-46.5c-32.3,0-15.1,47.7-71.9,72.8c-37.8,16.7-56.5,0.5-56.5,0.5c-4-8.2-9-13.1-13.3-12.1
		c-4.7,1.1-7.1,9.1-6.7,19.7c-12.2-19.7-25.6-32.7-30.9-29.6c-5.8,3.3-0.1,24,12.8,46.2c2.4,4.1,4.9,8.1,7.3,11.6
		c-16.6-10.5-31-15.2-34.3-10.8c-3.1,4.2,4.7,15.6,18.4,27.7l0,0c-7.5-0.8-12.6,0.2-13.8,3c-0.8,2,0.4,4.6,3.1,7.6
		c-18.2,17.5-56.4,70.7-77.7,82.9c-8.3,4.7-14.5-2.3-17.5-2.2v122.6l-4.3,68.9l1277.2-10.2l-3.4-79.1"/>
</g>
<g id="SVGgroupcirc_3_">
	
		<rect x="195.4" y="-1220.1" transform="matrix(0.8439 -0.5366 0.5366 0.8439 677.1317 -71.0062)" class="st26" width="42.3" height="42.3"/>
	
		<rect x="92" y="-1180.2" transform="matrix(0.8439 -0.5366 0.5366 0.8439 643.4622 -127.3059)" class="st26" width="22" height="22"/>
	<circle class="st2" cx="103" cy="-1169.2" r="11"/>
	
		<rect x="42" y="-1212.3" transform="matrix(0.8439 -0.5366 0.5366 0.8439 649.1831 -152.4847)" class="st26" width="41.2" height="41.2"/>
	
		<rect x="-13.5" y="-1211.1" transform="matrix(0.8439 -0.5366 0.5366 0.8439 642.7256 -187.235)" class="st26" width="26.3" height="26.3"/>
	
		<rect x="145.9" y="-1193.2" transform="matrix(0.8439 -0.5366 0.5366 0.8439 657.0468 -97.1573)" class="st26" width="31.3" height="31.3"/>
	<circle class="st2" cx="161.6" cy="-1177.5" r="15.6"/>
	
		<rect x="110.9" y="-1203.5" transform="matrix(0.8439 -0.5366 0.5366 0.8439 659.0483 -121.0573)" class="st26" width="21.2" height="21.2"/>
	
		<ellipse transform="matrix(3.327789e-02 -0.9994 0.9994 3.327789e-02 1309.7372 -1031.7275)" class="st2" cx="121.5" cy="-1192.9" rx="10.6" ry="10.6"/>
	
		<rect x="25.8" y="-1183" transform="matrix(0.8439 -0.5366 0.5366 0.8439 635.3555 -164.6427)" class="st26" width="18" height="18"/>
	<circle class="st2" cx="34.8" cy="-1173.9" r="9"/>
	
		<rect x="177.7" y="-1221.1" transform="matrix(0.8439 -0.5366 0.5366 0.8439 679.5211 -89.0847)" class="st26" width="18" height="18"/>
	<circle class="st2" cx="186.7" cy="-1212" r="9"/>
	<g class="st8">
		
			<rect x="169.7" y="-1153.8" transform="matrix(0.8439 -0.5366 0.5366 0.8439 637.5833 -74.5119)" class="st26" width="42.1" height="42.1"/>
		
			<rect x="100.2" y="-1190.7" transform="matrix(0.8439 -0.5366 0.5366 0.8439 643.9456 -112.8829)" class="st26" width="55.6" height="55.6"/>
		<circle class="st2" cx="128" cy="-1162.9" r="27.8"/>
		
			<rect x="34.3" y="-1183.2" transform="matrix(0.8439 -0.5366 0.5366 0.8439 634.2973 -155.5198)" class="st26" width="31.3" height="31.3"/>
		<circle class="st2" cx="50" cy="-1167.5" r="15.6"/>
	</g>
	<g class="st8">
		
			<rect x="165.7" y="-1198" transform="matrix(0.8439 -0.5366 0.5366 0.8439 659.771 -81.9459)" class="st26" width="46.8" height="46.8"/>
		<circle class="st2" cx="189.1" cy="-1174.5" r="23.4"/>
	</g>
	
		<rect x="57.5" y="-1167.5" transform="matrix(0.8439 -0.5366 0.5366 0.8439 631.7433 -144.6898)" class="st26" width="19.5" height="19.5"/>
	<circle class="st2" cx="67.3" cy="-1157.8" r="9.7"/>
	
		<rect x="105.4" y="-1180.3" transform="matrix(0.8439 -0.5366 0.5366 0.8439 644.5355 -118.197)" class="st26" width="27.6" height="27.6"/>
	<circle class="st2" cx="119.2" cy="-1166.5" r="13.8"/>
	
		<rect x="234.4" y="-1244.5" transform="matrix(0.8439 -0.5366 0.5366 0.8439 698.3224 -57.6093)" class="st26" width="31.6" height="31.6"/>
	
		<ellipse transform="matrix(3.327800e-02 -0.9994 0.9994 3.327800e-02 1469.8345 -937.6107)" class="st2" cx="250.2" cy="-1228.6" rx="15.8" ry="15.8"/>
	<g class="st8">
		
			<rect x="239.9" y="-1269.7" transform="matrix(0.8439 -0.5366 0.5366 0.8439 708.3435 -50.6064)" class="st26" width="54.6" height="54.6"/>
		
			<ellipse transform="matrix(3.327797e-02 -0.9994 0.9994 3.327797e-02 1500.0612 -933.9609)" class="st2" cx="267.2" cy="-1242.4" rx="27.3" ry="27.3"/>
		
			<rect x="213.6" y="-1217.6" transform="matrix(0.8439 -0.5366 0.5366 0.8439 678.7898 -61.1208)" class="st26" width="41.6" height="41.6"/>
		
			<ellipse transform="matrix(3.327798e-02 -0.9994 0.9994 3.327798e-02 1422.778 -922.6603)" class="st2" cx="234.4" cy="-1196.8" rx="20.8" ry="20.8"/>
		
			<rect x="144.1" y="-1227.5" transform="matrix(0.8439 -0.5366 0.5366 0.8439 676.1774 -105.2824)" class="st26" width="26.2" height="26.2"/>
		<circle class="st2" cx="157.2" cy="-1214.4" r="13.1"/>
		
			<rect x="63.7" y="-1225.9" transform="matrix(0.8439 -0.5366 0.5366 0.8439 661.0711 -145.0965)" class="st26" width="35.1" height="35.1"/>
		<circle class="st2" cx="81.3" cy="-1208.3" r="17.6"/>
		
			<rect x="6.5" y="-1186.8" transform="matrix(0.8439 -0.5366 0.5366 0.8439 632.9167 -172.8976)" class="st26" width="25.8" height="25.8"/>
		
			<ellipse transform="matrix(0.9997 -2.378972e-02 2.378972e-02 0.9997 27.9318 0.1327)" class="st2" cx="19.5" cy="-1173.9" rx="12.9" ry="12.9"/>
		
			<rect x="6.7" y="-1223" transform="matrix(0.8439 -0.5366 0.5366 0.8439 650.7028 -175.4081)" class="st26" width="34.6" height="34.6"/>
		
			<ellipse transform="matrix(1 -4.950320e-03 4.950320e-03 1 5.9689 0.1042)" class="st2" cx="24" cy="-1205.7" rx="17.3" ry="17.3"/>
		
			<rect x="178.4" y="-1248.8" transform="matrix(0.8439 -0.5366 0.5366 0.8439 691.3627 -87.2836)" class="st26" width="34.6" height="34.6"/>
		
			<ellipse transform="matrix(0.1602 -0.9871 0.9871 0.1602 1380.1355 -840.9696)" class="st2" cx="195.8" cy="-1231.6" rx="17.3" ry="17.3"/>
	</g>
	<circle class="st6" cx="233.1" cy="-1291.2" r="16.8"/>
	<circle class="st6" cx="337.5" cy="-1308.7" r="4.6"/>
	
		<ellipse transform="matrix(9.089788e-03 -1 1 9.089788e-03 1175.8832 -1097.1792)" class="st2" cx="34.3" cy="-1141.9" rx="38.8" ry="38.8"/>
</g>
<g id="SVGgroupcirc_4_">
	
		<rect x="1121.5" y="-1331" transform="matrix(9.463076e-02 -0.9955 0.9955 9.463076e-02 2338.1431 -41.3892)" class="st26" width="49.6" height="49.6"/>
	<circle class="st2" cx="1146.3" cy="-1306.1" r="24.8"/>
	
		<rect x="998.9" y="-1289.6" transform="matrix(9.463076e-02 -0.9955 0.9955 9.463076e-02 2186.9819 -148.5852)" class="st26" width="25.8" height="25.8"/>
	<circle class="st2" cx="1011.8" cy="-1276.7" r="12.9"/>
	
		<rect x="957.2" y="-1255.9" transform="matrix(9.463076e-02 -0.9955 0.9955 9.463076e-02 2114.7212 -138.0901)" class="st26" width="48.4" height="48.4"/>
	
		<rect x="903.5" y="-1206.8" transform="matrix(9.463076e-02 -0.9955 0.9955 9.463076e-02 2018.0446 -163.8846)" class="st26" width="30.8" height="30.8"/>
	<circle class="st2" cx="918.9" cy="-1191.5" r="15.4"/>
	
		<rect x="1059.1" y="-1317.6" transform="matrix(9.463076e-02 -0.9955 0.9955 9.463076e-02 2268.8835 -103.6622)" class="st26" width="36.7" height="36.7"/>
	
		<rect x="1031.3" y="-1274.1" transform="matrix(9.463076e-02 -0.9955 0.9955 9.463076e-02 2200.9402 -103.3194)" class="st26" width="24.8" height="24.8"/>
	<circle class="st2" cx="1043.7" cy="-1261.7" r="12.4"/>
	
		<rect x="932.3" y="-1245.9" transform="matrix(9.463076e-02 -0.9955 0.9955 9.463076e-02 2083.4885 -179.7908)" class="st26" width="21.1" height="21.1"/>
	<circle class="st2" cx="942.9" cy="-1235.3" r="10.5"/>
	
		<rect x="1111.5" y="-1287" transform="matrix(9.463076e-02 -0.9955 0.9955 9.463076e-02 2286.6833 -38.6381)" class="st26" width="21.1" height="21.1"/>
	<circle class="st2" cx="1122.1" cy="-1276.5" r="10.5"/>
	<g class="st8">
		
			<rect x="1059.4" y="-1386.3" transform="matrix(9.463076e-02 -0.9955 0.9955 9.463076e-02 2337.0388 -153.5437)" class="st26" width="49.4" height="49.4"/>
		
			<rect x="1001.9" y="-1329.3" transform="matrix(9.463076e-02 -0.9955 0.9955 9.463076e-02 2227.4717 -143.9958)" class="st26" width="65.3" height="65.3"/>
		
			<ellipse transform="matrix(0.9239 -0.3827 0.3827 0.9239 574.9756 297.1969)" class="st2" cx="1034.5" cy="-1296.7" rx="32.7" ry="32.7"/>
		
			<rect x="937" y="-1268.5" transform="matrix(9.463076e-02 -0.9955 0.9955 9.463076e-02 2109.4827 -180.7321)" class="st26" width="36.7" height="36.7"/>
		<circle class="st2" cx="955.4" cy="-1250.1" r="18.3"/>
	</g>
	<g class="st8">
		
			<rect x="1077.2" y="-1344.5" transform="matrix(9.463076e-02 -0.9955 0.9955 9.463076e-02 2311.1855 -92.7425)" class="st26" width="54.9" height="54.9"/>
		<circle class="st2" cx="1104.6" cy="-1317" r="27.5"/>
	</g>
	
		<rect x="875.9" y="-1186" transform="matrix(9.463076e-02 -0.9955 0.9955 9.463076e-02 1972.663 -180.4359)" class="st26" width="22.5" height="22.5"/>
	<circle class="st2" cx="887.1" cy="-1174.7" r="11.2"/>
	
		<rect x="956.9" y="-1281" transform="matrix(9.463076e-02 -0.9955 0.9955 9.463076e-02 2140.5215 -185.4272)" class="st26" width="22.9" height="22.9"/>
	
		<rect x="1011.1" y="-1304.4" transform="matrix(9.463076e-02 -0.9955 0.9955 9.463076e-02 2212.5408 -143.5442)" class="st26" width="32.5" height="32.5"/>
	
		<ellipse transform="matrix(0.9239 -0.3827 0.3827 0.9239 571.1749 295.0887)" class="st2" cx="1027.3" cy="-1288.2" rx="16.2" ry="16.2"/>
	<g class="st8">
		
			<rect x="1139.5" y="-1342.4" transform="matrix(9.463076e-02 -0.9955 0.9955 9.463076e-02 2365.7947 -34.4745)" class="st26" width="48.9" height="48.9"/>
		<circle class="st2" cx="1163.9" cy="-1317.9" r="24.4"/>
		
			<rect x="1077.3" y="-1273.8" transform="matrix(9.463076e-02 -0.9955 0.9955 9.463076e-02 2241.9792 -51.5299)" class="st26" width="30.8" height="30.8"/>
		<circle class="st2" cx="1092.6" cy="-1258.3" r="15.4"/>
		
			<rect x="989.3" y="-1244.7" transform="matrix(9.463076e-02 -0.9955 0.9955 9.463076e-02 2132.918 -102.9211)" class="st26" width="41.2" height="41.2"/>
		<circle class="st2" cx="1009.9" cy="-1224.1" r="20.6"/>
		
			<rect x="911.7" y="-1242.4" transform="matrix(9.463076e-02 -0.9955 0.9955 9.463076e-02 2060.8916 -188.309)" class="st26" width="30.4" height="30.4"/>
		<circle class="st2" cx="926.9" cy="-1227.2" r="15.2"/>
		
			<rect x="928.2" y="-1216.8" transform="matrix(9.463076e-02 -0.9955 0.9955 9.463076e-02 2049.8625 -138.8696)" class="st26" width="40.7" height="40.7"/>
		<circle class="st2" cx="948.6" cy="-1196.4" r="20.3"/>
		
			<rect x="1121.7" y="-1281.4" transform="matrix(9.463076e-02 -0.9955 0.9955 9.463076e-02 2289.3682 -4.7166)" class="st26" width="40.7" height="40.7"/>
	</g>
	
		<ellipse transform="matrix(0.7071 -0.7071 0.7071 0.7071 1158.9523 407.5583)" class="st6" cx="1071.4" cy="-1195.2" rx="72.2" ry="72.2"/>
	<circle class="st6" cx="864.6" cy="-1218.8" r="44.9"/>
</g>
<g id="background_details_10_">
	<path id="highlight" class="st9" d="M122.3-1531.7c0,26.1-21.1,47.2-47.2,47.2c-6.6,0-13.1-1.4-19.2-4.1
		c-2.6,10.9-13.5,17.6-24.3,15s-17.6-13.5-15-24.3c1.8-7.5,7.7-13.3,15.2-15c-10.3-23.9,0.7-51.7,24.6-62.1s51.7,0.7,62.1,24.6
		C121-1544.5,122.3-1538.1,122.3-1531.7L122.3-1531.7z"/>
</g>
<g id="background_details_11_">
	
		<linearGradient id="SVGID_16_" gradientUnits="userSpaceOnUse" x1="609.3348" y1="2919.8733" x2="609.3348" y2="2380.9937" gradientTransform="matrix(0.8464 0 0 0.8464 83.3505 3727.7192)">
		<stop  offset="0" style="stop-color:#50C6DF;stop-opacity:0.5"/>
		<stop  offset="0.44" style="stop-color:#50C6DF;stop-opacity:0.51"/>
		<stop  offset="0.6" style="stop-color:#50C6DF;stop-opacity:0.54"/>
		<stop  offset="0.71" style="stop-color:#50C6DF;stop-opacity:0.59"/>
		<stop  offset="0.8" style="stop-color:#50C6DF;stop-opacity:0.67"/>
		<stop  offset="0.88" style="stop-color:#50C6DF;stop-opacity:0.77"/>
		<stop  offset="0.95" style="stop-color:#50C6DF;stop-opacity:0.89"/>
		<stop  offset="1" style="stop-color:#50C6DF"/>
	</linearGradient>
	<path class="st29" d="M998.7,6199.1c59.4-351.2-163.8-426.3-264-411.9c-2.1,0.3-4.2,0.6-6.3,1c3.1-4.7,4.3-8.5,3-9.8
		c-1.4-1.3-5.4,0.2-10.4,3.7c7.7-19.1,10.4-35.5,6-37.5c-4.2-1.8-13.3,9.9-21.4,26.9c3.4-14.4,3.2-26.1-0.5-27.2
		c-4.1-1.1-11.1,11.3-15.6,27.7c-0.8,2.8-1.4,5.6-1.9,8.2c-1.1-8-3.2-13.5-5.6-13.5c-2.2,0-4,4.7-4.9,11.5c-2.9-0.4-5.9-0.6-8.8-0.6
		c-0.3,0-0.5,0-0.8,0c-2.7-13.3-7.1-22.9-10.8-22.4c-3.6,0.5-5.3,11.1-4.1,24.7c-5.2,1.4-10.2,3.3-15,5.7c0.1-4.2-0.1-8.4-0.4-12.6
		c-1.5-16.9-6.2-30.4-10.4-30c-4.3,0.4-6.5,14.4-5,31.3c0.3,2.9,0.6,5.7,1,8.4c-3.8-7.2-7.7-11.6-10-10.7c-3.1,1.2-1.7,12.1,3,24.3
		c0.3,0.8,0.6,1.5,0.9,2.2c-0.7-1-1.4-2-2.2-3c-8.5-11.5-17.6-19.7-22.3-20.5c-1.5-1.1-2.8-1.5-3.7-1.1c-3.1,1.6-0.6,13,5.7,25.5
		c1.1,2.2,2.2,4.2,3.3,6.1c-5.1-4.3-9.4-6.5-10.9-5.2c-2,1.8,2.4,9.7,9.7,17.7c0.2,0.3,0.5,0.5,0.7,0.7c-1.1,1.4-2.3,2.8-3.4,4.2
		l-0.2,0.2c-1.6-1.5-3.3-3-5.1-4.6c-10.7-9-21.3-14.1-23.5-11.4c-2.3,2.7,4.6,12.2,15.4,21.2c2.2,1.8,4.3,3.5,6.4,4.9
		c-1,1.7-2,3.3-2.9,5c-2.6-3.9-9-9.3-17-14.2c-11.9-7.3-23.1-10.9-24.9-7.9c-1.8,3,6.3,11.4,18.2,18.7c2,1.3,4.1,2.4,6,3.4
		c-6.6-1-11.5-0.6-12,1.3c-0.7,2.6,7.1,7.1,17.5,9.9l-0.7,0.5h-0.4c-14-0.1-25.3,2.7-25.4,6.2c0,2,3.8,3.9,9.8,5.1
		c-29.9,22.3-165.7,196.1-365.3,227.3L998.7,6199.1z"/>
</g>
<g id="background_details_12_">
	
		<linearGradient id="SVGID_17_" gradientUnits="userSpaceOnUse" x1="557.2654" y1="3133.8379" x2="557.2654" y2="2438.54" gradientTransform="matrix(0.8464 0 0 0.8464 83.3505 3727.7192)">
		<stop  offset="0" style="stop-color:#50C6DF"/>
		<stop  offset="1.000000e-02" style="stop-color:#50C4DE"/>
		<stop  offset="0.25" style="stop-color:#4490C3"/>
		<stop  offset="0.48" style="stop-color:#3A67AE"/>
		<stop  offset="0.69" style="stop-color:#34499F"/>
		<stop  offset="0.87" style="stop-color:#2F3795"/>
		<stop  offset="1" style="stop-color:#2E3192"/>
	</linearGradient>
	<path class="st30" d="M1117.2,6055.1c-25.5-53.8-179.1-12.7-236.1-29.7c-45.9-13.6-126.2-70.5-172.2-83.8
		c-18.6-5.4-45-7.7-73.4-9.3c7.2-7.3,11-13.8,9.1-16.2c-2.6-3.2-14.7,2.2-27,12.1c-1.2,1-2.4,2-3.6,3c-8.5-0.4-17.1-0.8-25.6-1.2
		c4.4-5.2,8.2-10.9,11.3-17c7.3-14,10.2-27,6.5-28.9c-3.6-1.9-12.6,7.9-19.8,22c-4.8,9.2-7.7,17.9-8.1,23.4
		c-6.2-0.3-12.3-0.7-18.2-1.2c2.6-6,4.4-12.3,5.6-18.8c2.9-15.5,2-28.8-2.1-29.5c-4.1-0.8-9.7,11.2-12.7,26.8
		c-1.4,6.8-1.9,13.7-1.5,20.6c-9.3-0.8-18.1-1.9-26.3-3.1c-0.7-5.3-1.9-10.6-3.6-15.7c-4.7-15.1-11.8-26.3-15.7-25.1
		c-4,1.2-3.3,14.5,1.4,29.6c0.9,2.9,1.9,5.7,3,8.3c-4.2-1-8.4-2.1-12.5-3.5c-48.4-16.6-125.7-91.6-174.4-107.4
		c-76.7-24.9-317.1,53.3-330-18.8l-2.3,588.5c0,0,465.4-21.3,570.8-49.4c54.3-14.5,168.3-101.3,223.2-89.1
		c147,32.8,209.1,4.4,217.1,0C1048.1,6215.1,1140.7,6104.9,1117.2,6055.1z"/>
</g>
<g id="background_details_13_">
	
		<linearGradient id="SVGID_18_" gradientUnits="userSpaceOnUse" x1="772.3784" y1="3260.0195" x2="772.3784" y2="2721.1399" gradientTransform="matrix(0.8464 0 0 0.8464 83.3505 3727.7192)">
		<stop  offset="0" style="stop-color:#50C6DF;stop-opacity:0.5"/>
		<stop  offset="0.44" style="stop-color:#50C6DF;stop-opacity:0.51"/>
		<stop  offset="0.6" style="stop-color:#50C6DF;stop-opacity:0.54"/>
		<stop  offset="0.71" style="stop-color:#50C6DF;stop-opacity:0.59"/>
		<stop  offset="0.8" style="stop-color:#50C6DF;stop-opacity:0.67"/>
		<stop  offset="0.88" style="stop-color:#50C6DF;stop-opacity:0.77"/>
		<stop  offset="0.95" style="stop-color:#50C6DF;stop-opacity:0.89"/>
		<stop  offset="1" style="stop-color:#50C6DF"/>
	</linearGradient>
	<path class="st31" d="M1136.7,6487c59.4-351.2-163.8-426.3-264-411.9c-2.1,0.3-4.2,0.6-6.3,1c3.1-4.7,4.3-8.5,3-9.8
		c-1.4-1.3-5.4,0.2-10.4,3.7c7.7-19.1,10.4-35.5,6-37.5c-4.2-1.8-13.3,9.9-21.4,26.9c3.4-14.4,3.2-26.1-0.5-27.2
		c-4.1-1.1-11.1,11.3-15.6,27.7c-0.8,2.8-1.4,5.6-1.9,8.2c-1.1-8-3.2-13.5-5.6-13.5c-2.2,0-4,4.7-4.9,11.5c-2.9-0.4-5.9-0.6-8.8-0.6
		c-0.3,0-0.5,0-0.8,0c-2.7-13.3-7.1-22.9-10.8-22.4c-3.6,0.5-5.3,11.1-4.1,24.7c-5.2,1.4-10.2,3.3-15,5.7c0.1-4.2-0.1-8.4-0.4-12.6
		c-1.5-16.9-6.2-30.4-10.4-30c-4.3,0.4-6.5,14.4-5,31.3c0.3,2.9,0.6,5.7,1,8.4c-3.8-7.2-7.7-11.6-10-10.7c-3.1,1.2-1.7,12.1,3,24.3
		c0.3,0.8,0.6,1.5,0.9,2.2c-0.7-1-1.4-2-2.2-3c-8.5-11.5-17.6-19.7-22.3-20.5c-1.5-1.1-2.8-1.5-3.7-1.1c-3.1,1.6-0.6,13,5.7,25.5
		c1.1,2.2,2.2,4.2,3.3,6.1c-5.1-4.3-9.4-6.5-10.9-5.2c-2,1.8,2.4,9.7,9.7,17.7c0.2,0.3,0.5,0.5,0.7,0.7c-1.1,1.4-2.3,2.8-3.4,4.2
		l-0.2,0.2c-1.6-1.5-3.3-3-5.1-4.6c-10.7-9-21.3-14.1-23.5-11.4c-2.3,2.7,4.6,12.2,15.4,21.2c2.2,1.8,4.3,3.5,6.4,4.9
		c-1,1.7-2,3.3-2.9,5c-2.6-3.9-9-9.3-17-14.2c-11.9-7.3-23.1-10.9-24.9-7.9c-1.8,3,6.3,11.4,18.2,18.7c2,1.3,4.1,2.4,6,3.4
		c-6.6-1-11.5-0.6-12,1.3c-0.7,2.6,7.1,7.1,17.5,9.9l-0.7,0.5h-0.4c-14-0.1-25.3,2.7-25.4,6.2c0,2,3.8,3.9,9.8,5.1
		c-29.9,22.3-165.7,196.1-365.3,227.3L1136.7,6487z"/>
</g>
</svg>
