<?xml version="1.0" encoding="utf-8"?>
<!-- Generator: Adobe Illustrator 22.0.1, SVG Export Plug-In . SVG Version: 6.00 Build 0)  -->
<svg version="1.1" id="Layer_1" xmlns="http://www.w3.org/2000/svg" xmlns:xlink="http://www.w3.org/1999/xlink" x="0px" y="0px"
	 viewBox="0 0 1153.8 1594.2" style="enable-background:new 0 0 1153.8 1594.2;" xml:space="preserve">
<style type="text/css">
	.st0{fill:#50C6DF;}
	.st1{opacity:0.5;fill:#50C6DF;enable-background:new    ;}
	.st2{fill:#2E3192;}
	.st3{clip-path:url(#SVGID_2_);}
	.st4{fill:url(#SVGID_3_);}
	.st5{fill:url(#SVGID_4_);}
	.st6{opacity:0.5;fill:#2E3192;enable-background:new    ;}
	.st7{opacity:0.5;fill:url(#SVGID_5_);enable-background:new    ;}
	.st8{opacity:0.3;}
	.st9{fill:#FEF8C0;}
	.st10{fill:#FFE381;}
	.st11{fill:#F78D36;}
	.st12{opacity:0.75;fill:#2E3192;enable-background:new    ;}
	.st13{opacity:0.5;fill:url(#SVGID_6_);enable-background:new    ;}
	.st14{opacity:0.5;fill:url(#SVGID_7_);enable-background:new    ;}
	.st15{fill:url(#SVGID_8_);stroke:#FFE381;stroke-width:2.7;stroke-miterlimit:10;}
	.st16{clip-path:url(#SVGID_10_);}
	.st17{fill:url(#SVGID_11_);}
	.st18{opacity:0.5;fill:#F78D36;enable-background:new    ;}
	.st19{opacity:0.5;fill:#FFE381;enable-background:new    ;}
	.st20{opacity:0.85;fill:url(#SVGID_12_);enable-background:new    ;}
	.st21{fill:url(#SVGID_13_);}
	.st22{fill:url(#SVGID_14_);}
	.st23{opacity:0.25;fill:#FEF8C0;enable-background:new    ;}
	.st24{opacity:0.75;fill:#FEF8C0;enable-background:new    ;}
	.st25{opacity:0.5;fill:#FEF8C0;enable-background:new    ;}
	.st26{fill:none;}
	.st27{opacity:0.3;fill:url(#background_30_1_);enable-background:new    ;}
	.st28{fill:url(#SVGID_15_);}
	.st29{fill:url(#SVGID_16_);}
	.st30{opacity:0.5;fill:url(#SVGID_17_);enable-background:new    ;}
	.st31{fill:url(#SVGID_18_);}
</style>
<rect x="-6" y="3907.5" class="st0" width="1162.6" height="1158"/>
<path class="st1" d="M1156.6,3651.4c0,82.9-228.2-0.5-307.1,25.1c-48.7,15.8-139.7,88.5-188.1,105.1
	c-50.7,17.4-57.4,23.9-108.9,38.8c-46,13.3-216.9,57.2-262.8,70.8c-57,16.9-275.8,13.2-301.3,66.9
	c-23.6,49.8,134.2,122.7,182.5,149.4c69.5,38.4,239.9-16.1,317.6,0c55,11.4,152.1,74.6,206.4,89.1c105.4,28.1,461.4,49.5,461.4,49.5
	"/>
<rect x="-6" y="-2467.5" class="st0" width="1162.6" height="1179.2"/>
<path class="st2" d="M435.6-2463.7c312.8,0,587.9,160.1,720.9,393.9v-1062.7H-6v788.2C121.1-2419.7,271.7-2463.7,435.6-2463.7z"/>
<g>
	<g>
		<g>
			<defs>
				<rect id="SVGID_1_" x="-6" y="2139.5" width="1162.6" height="1822.1"/>
			</defs>
			<clipPath id="SVGID_2_">
				<use xlink:href="#SVGID_1_"  style="overflow:visible;"/>
			</clipPath>
			<g class="st3">
				
					<linearGradient id="SVGID_3_" gradientUnits="userSpaceOnUse" x1="593.929" y1="-45.9952" x2="593.929" y2="-2028.6273" gradientTransform="matrix(0.8464 0 0 -0.8464 72.5985 2232.2695)">
					<stop  offset="0" style="stop-color:#FEF8C0;stop-opacity:0"/>
					<stop  offset="2.000000e-02" style="stop-color:#FEF8C0;stop-opacity:5.000000e-02"/>
					<stop  offset="9.000000e-02" style="stop-color:#FEF8C0;stop-opacity:0.27"/>
					<stop  offset="0.17" style="stop-color:#FEF8C0;stop-opacity:0.47"/>
					<stop  offset="0.25" style="stop-color:#FEF8C0;stop-opacity:0.63"/>
					<stop  offset="0.33" style="stop-color:#FEF8C0;stop-opacity:0.76"/>
					<stop  offset="0.41" style="stop-color:#FEF8C0;stop-opacity:0.87"/>
					<stop  offset="0.49" style="stop-color:#FEF8C0;stop-opacity:0.94"/>
					<stop  offset="0.57" style="stop-color:#FEF8C0;stop-opacity:0.99"/>
					<stop  offset="0.67" style="stop-color:#FEF8C0"/>
				</linearGradient>
				<rect x="-6" y="2271.2" class="st4" width="1162.6" height="1678.1"/>
				
					<linearGradient id="SVGID_4_" gradientUnits="userSpaceOnUse" x1="593.929" y1="-45.9952" x2="593.929" y2="-2246.3733" gradientTransform="matrix(0.8464 0 0 -0.8464 72.5985 2232.2695)">
					<stop  offset="0" style="stop-color:#FEF8C0;stop-opacity:0"/>
					<stop  offset="0" style="stop-color:#FEF8C0;stop-opacity:0"/>
					<stop  offset="8.000000e-02" style="stop-color:#FEF8C0;stop-opacity:0.23"/>
					<stop  offset="0.16" style="stop-color:#FEF8C0;stop-opacity:0.44"/>
					<stop  offset="0.25" style="stop-color:#FEF8C0;stop-opacity:0.61"/>
					<stop  offset="0.33" style="stop-color:#FEF8C0;stop-opacity:0.75"/>
					<stop  offset="0.41" style="stop-color:#FEF8C0;stop-opacity:0.86"/>
					<stop  offset="0.5" style="stop-color:#FEF8C0;stop-opacity:0.94"/>
					<stop  offset="0.58" style="stop-color:#FEF8C0;stop-opacity:0.98"/>
					<stop  offset="0.67" style="stop-color:#FEF8C0"/>
					<stop  offset="1" style="stop-color:#F78D36"/>
				</linearGradient>
				<rect x="-6" y="2271.2" class="st5" width="1162.6" height="1862.4"/>
			</g>
		</g>
	</g>
</g>
<path class="st2" d="M1156.5,2165V-306.5H-6v2963.1c0,0,406.5-21.7,511.8-49.8c54.3-14.5,151.4-77.7,206.4-89.1
	c77.8-16.1,338.2,29.9,401.4-18.3C1213.4,2423.2,1195.5,2126,1156.5,2165z"/>
<g id="background_details_1_">
	<path class="st6" d="M859.4-1705.2c-45.9-13.6-216.8-57.6-262.8-70.8c-51.5-14.9-58.2-21.4-108.9-38.8
		c-48.4-16.6-139.4-89.3-188.1-105.1c-62.9-20.4-235.7,28.4-303.1,7.1v586.8c77.7-5.4,447.4-31.8,541.5-56.9
		c54.3-14.5,151.4-77.7,206.4-89.1c77.8-16.1,257.4,38.4,327,0c22.9-12.6,55.5-47.6,81.3-86.3V-1697
		C1075.6-1715.6,905.5-1691.5,859.4-1705.2z"/>
</g>
<title>spheregoblin</title>
<g id="background_details_7_">
	
		<linearGradient id="SVGID_5_" gradientUnits="userSpaceOnUse" x1="-92.0351" y1="4609.7822" x2="1275.876" y2="4609.7822" gradientTransform="matrix(0.8464 0 0 -0.8464 72.5985 2232.2695)">
		<stop  offset="0" style="stop-color:#50C6DF"/>
		<stop  offset="1.000000e-02" style="stop-color:#50C4DE"/>
		<stop  offset="0.25" style="stop-color:#4490C3"/>
		<stop  offset="0.48" style="stop-color:#3A67AE"/>
		<stop  offset="0.69" style="stop-color:#34499F"/>
		<stop  offset="0.87" style="stop-color:#2F3795"/>
		<stop  offset="1" style="stop-color:#2E3192"/>
	</linearGradient>
	<path class="st7" d="M1152.5-1734.9c-84-9.9-226.4,8.5-268-3.8c-45.9-13.6-126.2-70.5-172.2-83.8c-18.6-5.4-45-7.7-73.4-9.2
		c7.2-7.3,11-13.8,9.1-16.2c-2.6-3.2-14.7,2.2-27,12.1c-1.2,1-2.4,2-3.6,3c-8.5-0.4-17.1-0.8-25.6-1.2c4.5-5.2,8.2-10.9,11.3-17
		c7.3-14,10.2-27,6.5-28.9c-3.6-1.9-12.6,7.9-19.8,22c-4.8,9.2-7.7,17.9-8.1,23.4c-6.2-0.3-12.3-0.7-18.2-1.2
		c2.6-6,4.4-12.3,5.6-18.8c2.9-15.5,2-28.8-2.1-29.5c-4.1-0.8-9.7,11.2-12.7,26.8c-1.5,7.9-2,15.2-1.5,20.6
		c-9.3-0.8-18.1-1.9-26.3-3.1c-0.7-5.3-1.9-10.6-3.6-15.7c-4.7-15.1-11.8-26.3-15.7-25.1c-4,1.2-3.3,14.5,1.4,29.6
		c0.9,2.9,1.9,5.7,3,8.3c-4.2-1-8.4-2.1-12.5-3.5c-48.4-16.6-125.7-91.6-174.4-107.4c-76.7-24.9-317.1,53.3-330-18.8l1.8,605.7
		c0,0,461.3-21.8,566.7-49.9c54.2-14.5,168.2-101.3,223-89.1c147,32.8,302.2,4.4,310.2,0c15.8-8.7,36.4-28.2,56.1-52.3V-1734.9z"/>
</g>
<g id="About_Page">
	<g id="grass_shadow">
		<g id="clump_3">
			<g class="st8">
				
					<ellipse transform="matrix(0.805 -0.5933 0.5933 0.805 1109.004 -279.3201)" class="st2" cx="129.6" cy="-1826.6" rx="6.1" ry="23.3"/>
			</g>
			<g class="st8">
				
					<ellipse transform="matrix(0.2608 -0.9654 0.9654 0.2608 1828.3444 -1158.2028)" class="st2" cx="157.9" cy="-1773" rx="7.5" ry="28.6"/>
			</g>
			
				<ellipse transform="matrix(0.2419 -0.9703 0.9703 0.2419 1810.7333 -1136.4709)" class="st2" cx="178.1" cy="-1727" rx="5" ry="18.9"/>
			<g class="st8">
				
					<ellipse transform="matrix(0.886 -0.4636 0.4636 0.886 873.9496 -142.9155)" class="st2" cx="146.3" cy="-1849.1" rx="7.5" ry="28.6"/>
			</g>
			
				<ellipse transform="matrix(0.4198 -0.9076 0.9076 0.4198 1682.7628 -853.1188)" class="st2" cx="174.1" cy="-1742.8" rx="7.5" ry="28.6"/>
			<g class="st8">
				
					<ellipse transform="matrix(0.6828 -0.7306 0.7306 0.6828 1428.5471 -386.2088)" class="st2" cx="269.5" cy="-1838.3" rx="28.6" ry="7.5"/>
			</g>
			
				<ellipse transform="matrix(0.8263 -0.5632 0.5632 0.8263 1020.9511 -163.9132)" class="st2" cx="244.7" cy="-1737.3" rx="28.6" ry="7.5"/>
		</g>
		<g id="clump_2">
			
				<ellipse transform="matrix(0.1663 -0.9861 0.9861 0.1663 2009.3739 -1342.8347)" class="st2" cx="210.6" cy="-1859.7" rx="28.3" ry="7.1"/>
			
				<ellipse transform="matrix(0.4187 -0.9081 0.9081 0.4187 1813.9988 -875.8493)" class="st2" cx="222.9" cy="-1854.9" rx="21.9" ry="5.5"/>
			
				<ellipse transform="matrix(0.6547 -0.7559 0.7559 0.6547 1491.2147 -460.6406)" class="st2" cx="241.4" cy="-1862.5" rx="28.3" ry="7.1"/>
			
				<ellipse transform="matrix(0.6144 -0.789 0.789 0.6144 1544.798 -507.0016)" class="st2" cx="253.7" cy="-1833.9" rx="28.3" ry="7.1"/>
			
				<ellipse transform="matrix(0.7085 -0.7057 0.7057 0.7085 1359.3618 -343.0492)" class="st2" cx="264.4" cy="-1817" rx="21.9" ry="5.5"/>
			
				<ellipse transform="matrix(0.8768 -0.4808 0.4808 0.8768 909.0194 -87.1136)" class="st2" cx="284.5" cy="-1817.7" rx="28.3" ry="7.1"/>
		</g>
		<g id="clump_1">
			
				<ellipse transform="matrix(0.4005 -0.9163 0.9163 0.4005 1715.3679 -984.1736)" class="st2" cx="105.6" cy="-1803" rx="7.1" ry="28.3"/>
			
				<ellipse transform="matrix(0.6263 -0.7796 0.7796 0.6263 1456.5098 -589.4793)" class="st2" cx="113.4" cy="-1813.9" rx="5.5" ry="21.9"/>
			
				<ellipse transform="matrix(0.8211 -0.5708 0.5708 0.8211 1064.0063 -267.9967)" class="st2" cx="104.5" cy="-1831.3" rx="7.1" ry="28.3"/>
			
				<ellipse transform="matrix(0.7874 -0.6165 0.6165 0.7874 1163.545 -304.1086)" class="st2" cx="140.9" cy="-1838.8" rx="7.1" ry="28.3"/>
			
				<ellipse transform="matrix(0.8585 -0.5128 0.5128 0.8585 968.7042 -178.9936)" class="st2" cx="160" cy="-1844.9" rx="5.5" ry="21.9"/>
			
				<ellipse transform="matrix(0.9672 -0.2539 0.2539 0.9672 478.8362 -19.4178)" class="st2" cx="164.2" cy="-1864.7" rx="7.1" ry="28.3"/>
		</g>
		<path class="st6" d="M296.7-1746.3c1.8,23.9-20.6,46-39.2,56.2c-61.4,33.7-162.8-17-163.6-56.2c-0.6-28.9,53.5-59.5,101.4-59.8
			C238.7-1806.4,293.9-1781.8,296.7-1746.3z"/>
	</g>
	<g id="pyramid_goblin">
		<path class="st9" d="M259.5-1798c0,0,5.9-31.8,5.3-41.6c-0.3-5.9-9-18.8-20.3-18.8s-104.7,22.2-117.9,30.9s-12.4,21.6-8.7,26.4
			c7.7,9.8,28.4,21.8,44.2,25.8C199.5-1766.1,259.5-1798,259.5-1798"/>
		<path class="st9" d="M269.2-1740.2c-9.4,0-10.8-10.9-20.3-7.2c-13.1,5.1-5.2,15.5-11.3,26.8c-3.3,6.1-20.2,15.8-32.4,9.4
			c-19.7-10.3-42.6-49.7-50.5-92.3c-7.9-42.5,20-58.8,20-58.8s8.4-6.6,2.4-28.5c-1-3.3-1.6-6.6-2.1-10l4.4,2.3l0.6-5.6
			c1.9,3.4,4.1,6.6,6.6,9.7c12.5,16,3.6,24.8,3.6,24.8c32.7-5,58.6,40.1,71.6,62.6c0.7,1.3,1.4,2.4,2,3.5l0,0
			c0.8,1.4,1.6,2.7,2.3,3.8l1,0.3c14.3,4.2,13.5,6.8,27.1,38.1C297.6-1753.3,278.6-1740.2,269.2-1740.2z"/>
		<path class="st10" d="M227.1-1855.7c0,0,26.4,5,34.3,48C253.7-1821.3,242-1842.1,227.1-1855.7"/>
		<path class="st10" d="M157.4-1791.4c-1-4-1.9-8-2.6-12c-2.7-14.6-1.2-26.1,1.9-34.9c0,0-11.3,7-10.2,24.5
			c0.8,13.6,11.4,24.5,11.4,24.5"/>
		<path class="st10" d="M267.1-1799.3c-0.2,0.4-0.7,0.7-1.1,0.6c-23.2-3.9-50-0.4-69.5,12.5c-0.5,0.3-1.2,0.1-1.4-0.4
			c-0.2-0.4-0.1-0.9,0.2-1.3c17.9-14.7,53-27.1,68.7-15.4l0,0c0.8,1.4,1.6,2.7,2.3,3.8L267.1-1799.3z"/>
		
			<ellipse transform="matrix(0.9526 -0.3042 0.3042 0.9526 535.2323 -15.4298)" class="st10" cx="218.1" cy="-1725.5" rx="17.8" ry="10.7"/>
		<path class="st10" d="M266.1-1799.5c3.9,1,7.7,2.6,11.1,4.8c8.3,5.4,10.8,19.3,17,33.6c3.4,7.9-15.6,21-25,21s-10.8-10.9-20.3-7.2
			c-2.5,0.8-4.7,2.4-6.3,4.5c-1.3,2-2,4.2-2,6.6c-0.2,0-3.8-20.7,6.2-40.7C251.4-1785.9,258-1793.6,266.1-1799.5z"/>
		<path class="st2" d="M211.8-1831.4c1.2,1,2.5,1.7,4,2.1c2.2,0.7,4.6-0.4,5.5-2.5c0.7-1.4,1-2.9,1-4.4c1.5,1.3,2.2,3.2,2,5.2
			c-0.1,1.1-0.5,2.1-1.1,3c-0.6,0.9-1.5,1.7-2.5,2.1c-2,0.9-4.4,0.7-6.2-0.6C212.8-1827.6,211.8-1829.4,211.8-1831.4z"/>
		<path class="st2" d="M185.8-1823.9c1.2,1,2.5,1.7,4,2.1c2.2,0.7,4.6-0.4,5.5-2.5c0.7-1.4,1-2.9,1-4.4c1.5,1.3,2.2,3.2,2,5.2
			c-0.1,1.1-0.5,2.1-1.1,2.9c-0.6,0.9-1.5,1.7-2.5,2.1c-2,0.9-4.4,0.7-6.2-0.6C186.8-1820.2,185.8-1822,185.8-1823.9z"/>
		<polygon class="st9" points="135.4,-1923.5 164.4,-1924.6 182.6,-1948.9 152.7,-1947.8 		"/>
		<polyline class="st10" points="177.7,-1901.5 164.4,-1924.6 135.4,-1923.5 		"/>
		<polyline class="st11" points="182.6,-1948.9 164.4,-1924.6 177.7,-1901.5 		"/>
	</g>
	<g id="log">
		<g id="log-2">
			<path class="st2" d="M495.5-1718.2c-34.7,6.3-71.5-1.4-105.6,6.3c-16.1,3.6-31,18.7-46.6,21.4c-8.1,1.4-17.2-4.9-25.5-4
				c-8.6,0.9-19.6,8.8-27.4,12.8c-17.4-7-26.7-33.1-30.3-49.8c-4-18.3-1.7-44.2,10.3-60.3c27.7-1.8,50.1-13.4,78-14.3
				c22.1-0.7,20.2-5.5,38.3-10.8c12.3-3.6,24.8-0.3,37.2-3.6c17.8-4.8,22.4-19.4,44-11.5c13.4,4.9,15.3,14,21.2,24.9
				C504.3-1778,499.4-1750.2,495.5-1718.2z"/>
			<path class="st11" d="M290.4-1681.8c-35.9-11.8-49.3-84.2-20.1-110C299.7-1766.2,327.1-1708.9,290.4-1681.8z"/>
			<path class="st10" d="M292-1741c-1.2,12.6,2.8,24.4-5.6,35.1c-12.5-9.1-26.2-29.5-22-46.6C270.3-1776.6,288.4-1760.4,292-1741z"
				/>
		</g>
		<g id="whorls">
			<path class="st0" d="M296.9-1784.9c7.7,1,15.2,2.2,22.6,3.3c3.7,0.6,7.4,1.1,11.1,1.6c3.7,0.4,7.4,1,11.1,1.5s7.4,1.2,11.1,1.6
				s7.5,0.5,11.3,0.2c7.5-0.6,14.6-3.2,20.8-7.4c0.8-0.5,1.4-1.1,2.2-1.7l2.2-1.8c0.8-0.6,1.5-1.3,2.4-1.8l2.5-1.7
				c3.3-2.2,6.8-4.1,10.5-5.7c3.6-1.6,7.3-3.1,11.1-4.3c3.7-1.2,7.6-2.2,11.4-3c3.9-0.7,7.7-1.3,11.6-1.6s7.8-0.5,11.7-0.5
				c3.9,0,7.8,0.2,11.7,0.6c3.9,0.3,7.7,1,11.5,1.9l-0.1,0.8c-15.2,2-30.2,4.2-44.6,7.5c-3.6,0.8-7.2,1.7-10.8,2.6
				c-3.6,0.9-7.1,2-10.6,3.2c-3.5,1.2-6.8,2.7-10.2,4.2c-1.7,0.8-3.3,1.6-4.9,2.5l-1.2,0.6l-1.4,0.7c-0.9,0.4-1.8,1-2.7,1.3
				l-2.8,1.2l-2.8,1c-0.9,0.4-1.9,0.6-2.8,0.8l-1.4,0.4c-0.5,0.1-0.9,0.2-1.4,0.4c-3.8,1-7.6,1.7-11.4,2.4
				c-3.8,0.7-7.7,1.3-11.6,1.8s-7.8,0.8-11.8,0.8c-3.9,0-7.8-0.4-11.7-1.1c-7.7-1.3-15.2-3.4-22.4-6.3c-3.6-1.4-7.1-3.2-10.5-5.2
				L296.9-1784.9z"/>
			<path class="st0" d="M475.3-1816.2c-6.6,1.4-13.1,2.4-19.6,3.4c-3.2,0.4-6.5,0.9-9.7,1.3c-3.2,0.4-6.4,0.9-9.7,1.3
				c-3.2,0.3-6.5,0.6-9.7,0.8c-3.3,0.3-6.5,0.5-9.8,1c-6.5,0.9-12.7,3.1-18.3,6.4c-5.8,3.5-11.8,6.9-18.1,9.2
				c-3.2,1.1-6.4,2.1-9.6,3.1c-3.2,0.9-6.5,1.8-9.8,2.4c-6.6,1.2-13.2,2-19.9,2.2c-6.7,0.3-13.4-0.1-20.1-1l-0.1-0.8
				c6.4-2,12.9-3.6,19.3-5.1c6.4-1.5,12.8-2.9,19.1-4.1c6.4-1.2,12.8-2.2,19.1-3.7c3.1-0.7,6.3-1.3,9.5-2.1c3.2-0.7,6.3-1.6,9.3-2.8
				c6.2-2.7,12.5-4.8,18.8-7.1s12.7-4.6,19.3-5.7c3.3-0.6,6.6-0.9,10-1.1c3.3-0.2,6.7-0.3,10-0.3s6.7,0.2,10,0.5
				c3.4,0.3,6.7,0.8,10,1.5L475.3-1816.2z"/>
			<path class="st0" d="M312.5-1754.3c3.9-1,7.9-1.8,11.8-2.6l5.9-1.2l5.9-1c2-0.3,3.9-0.8,5.9-1.3c1.9-0.4,3.9-0.6,5.9-0.5
				s4.1,0.3,6.1,0.8c2.1,0.4,4.2,1.1,6.2,2.1l0.1,0.8c-1.8,1.2-3.7,2.3-5.8,3c-1.9,0.7-3.9,1.3-5.9,1.7c-1.9,0.4-3.9,0.5-5.9,0.4
				s-4-0.3-6-0.3l-6-0.1l-6-0.2c-4-0.2-8-0.4-12-0.7L312.5-1754.3z"/>
			<path class="st0" d="M411.1-1773.5c0.2-1.3,0.9-2.5,1.9-3.3c0.9-0.8,1.9-1.6,3-2.3c1-0.7,2.1-1.3,3.2-1.8s2.2-1.1,3.3-1.6
				c4.5-2.1,9.3-3.7,14.1-4.7c2.5-0.5,4.9-0.8,7.4-1.1c2.6-0.2,5.2-0.2,7.8,0c1.4,0.1,2.8,0.4,4.1,0.8c1.7,0.5,3.2,1.4,4.4,2.7
				c0.7,0.8,1.2,1.8,1.5,2.8c0.2,0.9,0.3,1.9,0.3,2.8c-0.1,1.6-0.5,3.1-1.1,4.6c-0.5,1.3-1.2,2.6-1.9,3.8c-0.7,1.2-1.5,2.3-2.4,3.4
				c-1.7,2.1-3.7,4.1-5.8,5.8c-1.1,0.8-2.3,1.6-3.5,2.3c-1.2,0.7-2.5,1.3-3.9,1.8c-1.3,0.5-2.7,0.9-4.1,1.1
				c-1.4,0.2-2.8,0.4-4.2,0.4c-2.8,0-5.6-0.5-8.2-1.4c-2.5-0.9-4.9-2.2-7.1-3.8c-2.1-1.5-4-3.3-5.7-5.3c-0.8-1-1.6-2-2.2-3.2
				C411.3-1770.8,411-1772.2,411.1-1773.5z M411.9-1773.5c0,0.5,0.1,1.1,0.3,1.6c0.2,0.5,0.5,1,0.8,1.4c0.7,0.9,1.6,1.7,2.5,2.3
				c1.9,1.3,4.1,2.2,6.3,2.8c4.2,1,8.6,1.3,12.9,0.8c2-0.2,4-0.7,5.9-1.3c1.9-0.7,3.8-1.6,5.5-2.6c1.8-1.1,3.5-2.4,5-3.9
				c1.5-1.4,2.7-3.1,3.7-4.9c0.4-0.8,0.7-1.6,0.8-2.4c0-0.3,0-0.6,0-0.8c0-0.1,0-0.3-0.1-0.4c-0.5-0.5-1-0.9-1.7-1.1
				c-0.9-0.4-1.9-0.7-2.9-0.8c-2.2-0.4-4.5-0.6-6.8-0.6c-2.4,0-4.7,0.1-7,0.3c-4.8,0.4-9.5,1.1-14.2,2.2c-2.3,0.6-4.6,1.4-6.7,2.5
				c-1.1,0.6-2,1.2-2.9,2.1C412.6-1775.6,412.1-1774.6,411.9-1773.5L411.9-1773.5z"/>
		</g>
		<g id="mushrooms">
			<path class="st11" d="M433.9-1725c1.4,6.1,17.6,5.6,34.6,1.8c17-3.9,21.3-8,19.9-14.2c-1.4-6.2-8.9-16-25.9-12.1
				S432.5-1731.1,433.9-1725z"/>
			<path class="st11" d="M468.9-1759.5c2.8,5.8,17,8.8,28.6,3.4c11.5-5.4,19.5-19.1,16.8-24.9c-2.8-5.8-14.4,0-26,5.5
				C476.7-1770.1,466.2-1765.4,468.9-1759.5z"/>
			<path class="st11" d="M411.3-1739.9c1.2,4,8.8,6.1,16.4,3.7c7.6-2.3,11.8-7.9,10.5-12c-1.2-4-7.8-6.3-15.4-4
				C415.3-1749.7,410-1743.9,411.3-1739.9z"/>
			<path class="st11" d="M391.6-1728.1c0.4,2.4,4.5,4.2,9,3.5c4.5-0.7,7.3-3.5,6.9-5.9s-3.9-4.2-8.4-3.5
				C394.7-1733.4,391.2-1730.5,391.6-1728.1z"/>
			<path class="st11" d="M377.3-1734.5c0.3,1.8,2.4,3.3,5.8,2.8s4.9-2.5,4.6-4.4s-2-1.3-5.4-0.8S377-1736.4,377.3-1734.5z"/>
		</g>
		<path class="st11" d="M284.4-1739.2c0.3,1.2,0.6,2.4,1,3.7s0.6,2.6,0.8,4c0.1,1.5-0.2,3-0.8,4.3c-0.2,0.4-0.4,0.7-0.6,1
			c-0.3,0.3-0.6,0.7-0.9,0.9c-0.7,0.6-1.6,1-2.5,1.2c-0.9,0.2-1.8,0.1-2.6-0.2c-0.4-0.1-0.7-0.3-1.1-0.5c-0.3-0.2-0.6-0.4-0.9-0.7
			c-1-0.9-1.9-2-2.6-3.1c-1.4-2.1-2.7-4.4-3.8-6.8c-0.5-1.2-1-2.5-1.2-3.8c-0.3-1.4-0.3-2.8-0.2-4.2c0.1-1.5,0.5-3,1.2-4.4
			c0.2-0.4,0.4-0.7,0.7-1.1c0.3-0.4,0.6-0.7,0.9-1c0.7-0.7,1.6-1.2,2.6-1.4c1-0.2,2-0.2,2.9,0.1c0.4,0.1,0.9,0.3,1.3,0.5
			c0.4,0.2,0.7,0.4,1.1,0.7c1.2,0.9,2.1,2.1,2.8,3.5c0.5,1.2,1,2.5,1.3,3.8L284.4-1739.2z M284-1739.1c-0.3-1.2-0.9-2.3-1.6-3.3
			s-1.6-1.8-2.5-2.5c-0.8-0.6-1.7-1.2-2.6-1.6c-0.6-0.3-1.2-0.4-1.8-0.2c-0.6,0.2-1,0.7-1.3,1.2c-0.5,0.8-0.9,1.7-1.1,2.7
			c-0.4,2.2-0.5,4.5-0.4,6.8c0.1,1.2,0.4,2.4,0.8,3.5s1,2.2,1.8,3.1c0.7,0.9,1.7,1.5,2.8,1.9c0.8,0.3,1.7,0.3,2.4-0.1
			c0.6-0.4,1.1-0.9,1.5-1.5c0.6-0.9,1-1.8,1.4-2.8c0.5-1.1,0.8-2.3,0.9-3.5C284.4-1736.6,284.3-1737.9,284-1739.1z"/>
	</g>
</g>
<g id="background_details">
	<path class="st6" d="M-3.6-1572.4v246.3c77.7-5.4,447.4-31.8,541.5-56.9c54.3-14.5,151.4-77.7,206.4-89.1
		c77.8-16.1,257.4,38.4,327,0c21.3-11.8,54.4-60.6,81.3-108v-76C943-1577.1,4.7-1497.6-3.6-1572.4z"/>
</g>
<g id="background_details_2_">
	<path class="st12" d="M1172.4,3566c0,82.9-251.8-0.5-330.6,25.1c-48.7,15.8-139.7,88.5-188.1,105.1
		c-50.7,17.4-57.4,23.9-108.9,38.8c-46,13.3-374.8,70.5-430.4,70.8c-59.5,0.4-126.9-24.1-152.3,29.7
		c-23.6,49.8,69.1,160,117.3,186.6c69.5,38.4,323.7-16.1,401.4,0c55,11.4,152.1,74.6,206.4,89.1c105.4,28.1,464.5,49.7,464.5,49.7"
		/>
</g>
<g id="background_details_6_">
	
		<linearGradient id="SVGID_6_" gradientUnits="userSpaceOnUse" x1="-5265.7856" y1="-1540.0288" x2="-5265.1357" y2="-1540.0288" gradientTransform="matrix(-0.8464 0 0 -0.8464 -3309.5 2232.2695)">
		<stop  offset="0" style="stop-color:#50C6DF"/>
		<stop  offset="1.000000e-02" style="stop-color:#50C4DE"/>
		<stop  offset="0.25" style="stop-color:#4490C3"/>
		<stop  offset="0.48" style="stop-color:#3A67AE"/>
		<stop  offset="0.69" style="stop-color:#34499F"/>
		<stop  offset="0.87" style="stop-color:#2F3795"/>
		<stop  offset="1" style="stop-color:#2E3192"/>
	</linearGradient>
	<path class="st13" d="M1146.7,3538.9l0.6-6.3C1147.3,3534.6,1147.1,3536.8,1146.7,3538.9z"/>
	
		<linearGradient id="SVGID_7_" gradientUnits="userSpaceOnUse" x1="-5284.853" y1="-1907.9392" x2="-3831.0681" y2="-1907.9392" gradientTransform="matrix(-0.8464 0 0 -0.8464 -3309.5 2232.2695)">
		<stop  offset="0" style="stop-color:#50C6DF"/>
		<stop  offset="1.000000e-02" style="stop-color:#50C4DE"/>
		<stop  offset="0.25" style="stop-color:#4490C3"/>
		<stop  offset="0.48" style="stop-color:#3A67AE"/>
		<stop  offset="0.69" style="stop-color:#34499F"/>
		<stop  offset="0.87" style="stop-color:#2F3795"/>
		<stop  offset="1" style="stop-color:#2E3192"/>
	</linearGradient>
	<path class="st14" d="M-63.1,3802.2c25.5-53.8,227.9-24.5,287.2-29.5c206.5-17.8,202.3-82.1,278.3-93.2c-7.2-7.3-11-13.8-9.1-16.2
		c2.6-3.2,14.7,2.2,27,12.1c1.2,1,2.4,2,3.6,3c8.5-0.4,17.1-0.8,25.6-1.2c-4.5-5.2-8.2-10.9-11.3-17c-7.3-14-10.2-27-6.5-28.9
		c3.6-1.9,12.6,7.9,19.8,22c4.8,9.2,7.7,17.9,8.1,23.4c6.2-0.3,12.3-0.7,18.2-1.2c-2.6-6-4.4-12.3-5.6-18.8
		c-2.9-15.5-2-28.8,2.1-29.5s9.7,11.2,12.7,26.8c1.5,7.9,2,15.2,1.5,20.6c9.3-0.8,18.1-1.9,26.3-3.1c0.7-5.3,1.9-10.6,3.6-15.7
		c4.7-15.1,11.8-26.3,15.7-25.1c4,1.2,3.3,14.5-1.4,29.6c-0.9,2.9-1.9,5.7-3,8.3c4.2-1,8.4-2.1,12.5-3.5
		c48.4-16.6,125.7-91.6,174.4-107.4c76.7-24.9,334.1,53.3,347-18.8l-3,616.5c0,0-383.9-22.3-489.3-50.4
		c-190.9-136.9-313.6-115.7-383.4-116.2c-79.4-0.6-164.3,38.4-233.9,0C5.9,3962.1-86.7,3852-63.1,3802.2z"/>
</g>
<g id="Partners">
	
		<linearGradient id="SVGID_8_" gradientUnits="userSpaceOnUse" x1="874.8103" y1="-1779.4874" x2="1036.9403" y2="-1617.3575" gradientTransform="matrix(0.8464 0 0 -0.8464 72.5985 2232.2695)">
		<stop  offset="0" style="stop-color:#FFE381"/>
		<stop  offset="5.000000e-02" style="stop-color:#FFE587"/>
		<stop  offset="0.26" style="stop-color:#FFEDA0"/>
		<stop  offset="0.49" style="stop-color:#FEF3B2"/>
		<stop  offset="0.72" style="stop-color:#FEF7BD"/>
		<stop  offset="1" style="stop-color:#FEF8C0"/>
	</linearGradient>
	<path class="st15" d="M891.2,3664.4c-7.8,0-22.6,18.1-22.6,34.2s8.2,34.5,41.4,37.7c11.2,1.1,61.7,23.2,97.4-27.1
		c23.7-33.3,19.7-68.9,6.8-95.3c-6-12.2-22.9-34.3-33.3-47.4c-10.2-12.7-30.1-21.8-46.6-27.5c-13.4-4.6-36.3-3.6-38.2-16
		c-1.2-7.7-9.5-14.4-18.8-15.9c0,0.4,0,0.8,0,1.3c0,1.5-0.1,3-0.4,4.5c14.1,7.6,11.7,32.8,5.8,39.2c-11.2,12.3-18.6,48.3-12.2,66
		C873.9,3634.7,881,3650.6,891.2,3664.4z"/>
	<path class="st10" d="M946.4,3675.3c-3.1,0.4-6.1,1.1-9.1,2.1c-2.9,0.9-5.8,2.2-8.5,3.7c-5.3,3-9.6,7.4-12.4,12.8
		c-1.3,2.7-2.3,5.6-2.9,8.5l-0.4,2.2c-0.1,0.8-0.2,1.5-0.3,2.3c-0.2,1.5-0.2,3-0.3,4.6c0,6.2,0.7,12.4,2,18.5c-0.5-1.5-1-3-1.5-4.5
		c-0.4-1.5-0.8-3-1.2-4.6c-0.4-1.5-0.6-3.1-0.8-4.7c-0.1-0.8-0.2-1.6-0.3-2.4s-0.2-1.6-0.2-2.4c-0.1-1.6-0.1-3.2,0-4.8
		c0.1-0.8,0.1-1.6,0.2-2.4l0.3-2.4c0.6-3.2,1.6-6.3,3-9.2c1.5-2.9,3.5-5.6,5.8-7.8c2.3-2.2,5-4.1,7.9-5.6c2.9-1.4,5.9-2.5,9-3.1
		C940,3675.4,943.2,3675.1,946.4,3675.3z"/>
	<path class="st2" d="M1162.9,3626.7c-22.6-0.9-42.2,6.2-56.7,20.5c0,0-39.2,39-99.1,39.2c-34.7,0.1-73.5-22.5-96.8-46.1
		c-2.9-2.9-7.6-3-10.5-0.1s-3,7.6-0.1,10.5c12,12.2,52.6,40.2,92.9,45.6c73.9,9.8,122-40.7,122-40.7c29.2-29.1,73.4-12.3,73.8-12.1
		l4.3-11C1183.2,3629.1,1173.1,3627.1,1162.9,3626.7z"/>
	<g>
		<g>
			<g>
				<defs>
					<path id="SVGID_9_" d="M451.1,3959.4c-55.5,0-101.8-2.1-138.4-6.2c-51.8-5.8-81.1-15.3-89.6-29c-3.4-5.2-3.5-11.9-0.4-17.2
						c8.5-15.2,40.6-23.5,66.4-23.5c21.7,0,36.7-9.8,44.7-29.1c6.5-15.6-0.3-37.3-4.1-59.5c-3.3-19.5-1.9-62.1-9.5-69.7l22.5,15.6
						c0,16-1.9,28.5,2,51.6c2.5,14.7,13.4,43,3.1,67.9c-10.4,25.2-30.8,38.6-58.8,38.6c-27.5,0-49.4,9.1-53.1,15.7
						c-0.5,0.5-0.5,1.3,0,1.8c2,3.3,23.7,27.9,215.1,27.9c35.5,0,76.7-0.8,124.8-2.8c97.3-4,173.5-16.6,226.5-37.3
						c41.5-16.3,68.5-37.4,80.3-62.8c21.2-45.6-12.8-83-16.6-100.6l13.7-5.3c3.8,11.4,11.4,18.4,18.4,37.9c9.3,26.2,8.8,52-1.7,74.4
						c-13.5,29.1-43.3,52.9-88.6,70.6c-54.5,21.4-132.3,34.3-231.4,38.3C530.7,3958.5,488.9,3959.4,451.1,3959.4z"/>
				</defs>
				<clipPath id="SVGID_10_">
					<use xlink:href="#SVGID_9_"  style="overflow:visible;"/>
				</clipPath>
				<g class="st16">
					
						<radialGradient id="SVGID_11_" cx="578.8988" cy="-1902.2092" r="302.0953" gradientTransform="matrix(0.8464 0 0 -0.8464 72.5985 2232.2695)" gradientUnits="userSpaceOnUse">
						<stop  offset="0" style="stop-color:#50C6DF;stop-opacity:0.5"/>
						<stop  offset="0.37" style="stop-color:#3F79B7;stop-opacity:0.76"/>
						<stop  offset="0.74" style="stop-color:#32449C;stop-opacity:0.94"/>
						<stop  offset="1" style="stop-color:#2E3192"/>
					</radialGradient>
					<path class="st17" d="M451.1,3959.4c-55.5,0-101.8-2.1-138.4-6.2c-51.8-5.8-81.1-15.3-89.6-29c-3.4-5.2-3.5-11.9-0.4-17.2
						c8.5-15.2,40.6-23.5,66.4-23.5c21.7,0,36.7-9.8,44.7-29.1c6.5-15.6-0.3-37.3-4.1-59.5c-3.3-19.5-1.9-62.1-9.5-69.7l22.5,15.6
						c0,16-1.9,28.5,2,51.6c2.5,14.7,13.4,43,3.1,67.9c-10.4,25.2-30.8,38.6-58.8,38.6c-27.5,0-49.4,9.1-53.1,15.7
						c-0.5,0.5-0.5,1.3,0,1.8c2,3.3,23.7,27.9,215.1,27.9c35.5,0,76.7-0.8,124.8-2.8c97.3-4,173.5-16.6,226.5-37.3
						c41.5-16.3,68.5-37.4,80.3-62.8c21.2-45.6-12.8-83-16.6-100.6l13.7-5.3c3.8,11.4,11.4,18.4,18.4,37.9c9.3,26.2,8.8,52-1.7,74.4
						c-13.5,29.1-43.3,52.9-88.6,70.6c-54.5,21.4-132.3,34.3-231.4,38.3C530.7,3958.5,488.9,3959.4,451.1,3959.4z"/>
					<path class="st2" d="M451.1,3967.8c-55.5,0-101.8-2.1-138.4-6.2c-51.8-5.8-81.1-15.3-89.6-29c-3.4-5.2-3.5-11.9-0.4-17.2
						c8.5-15.2,40.6-23.5,66.4-23.5c21.7,0,36.7-9.8,44.7-29.1c6.5-15.6-0.3-37.3-4.1-59.5c-3.3-19.5-1.9-62.1-9.5-69.7l22.7,15.4
						c0,16-1.9,28.5,2,51.6c2.5,14.7,13.4,43,3.1,67.9c-10.4,25.2-30.8,38.5-58.8,38.5c-27.5,0-49.4,9.1-53.1,15.7
						c-0.5,0.5-0.5,1.3,0,1.8c2,3.3,23.7,27.9,215.1,27.9c35.5,0,76.7-0.8,124.8-2.8c97.3-4,173.5-16.6,226.5-37.3
						c41.5-16.3,68.5-37.4,80.3-62.8c21.2-45.6-12.8-83-16.6-100.6l13.7-5.3c3.8,11.4,11.4,18.4,18.4,37.9c9.3,26.2,8.8,52-1.7,74.4
						c-13.5,29.1-43.3,52.9-88.6,70.6c-54.5,21.4-132.3,34.3-231.4,38.3C530.7,3966.8,488.9,3967.8,451.1,3967.8z"/>
				</g>
			</g>
		</g>
	</g>
	<path class="st10" d="M880.2,3595.3c0,0,15.3,46.2-33.1,76.5c-13.5,11.5-4.1,37.9,6.6,34c6.3-2.3,46.4-27.4,49.5-57.8
		C904.2,3637.3,880.2,3595.3,880.2,3595.3z"/>
	
		<ellipse transform="matrix(0.9103 -0.4139 0.4139 0.9103 -1413.295 700.2333)" class="st2" cx="909.3" cy="3611.5" rx="3.1" ry="7.1"/>
	
		<ellipse transform="matrix(0.9103 -0.4139 0.4139 0.9103 -1415.7756 692.972)" class="st2" cx="891.3" cy="3613.6" rx="3.1" ry="7.1"/>
	<polygon class="st10" points="866.4,3649.8 841.6,3599.1 838.2,3609.1 806.1,3567.9 803.7,3578.4 776.1,3545.2 777.9,3576 
		806,3603.3 809.6,3586.9 842.1,3625.8 844.4,3616.9 	"/>
	<polygon class="st10" points="897.3,3638.3 893.2,3582 901.2,3588.9 908.3,3537.2 915.6,3545 922.7,3502.4 936.6,3530 
		926.1,3567.7 914.7,3555.3 906.2,3605.3 899.8,3598.8 	"/>
	<path class="st11" d="M905.1,3649.4c-0.9,0-1.9-0.4-2.5-1l-7.8-7.3c-1.4-1.5-1.3-3.9,0.2-5.3c1.4-1.3,3.5-1.3,4.9-0.2l7.8,7.3
		c1.5,1.4,1.6,3.8,0.2,5.3C907.1,3648.9,906.1,3649.4,905.1,3649.4L905.1,3649.4z"/>
	<path class="st10" d="M960.2,3577.9c3.1,3.7,5.8,7.6,8.1,11.8c1.2,2.1,2.2,4.3,3.2,6.5c0.5,1.1,0.8,2.3,1.3,3.4
		c0.4,1.1,0.8,2.3,1.1,3.5c1.4,4.8,2,9.7,2,14.6c-0.1,5-0.9,9.9-2.5,14.7c-3.2,9.5-9.2,17.7-16.4,24.2s-15.6,11.4-24.8,14.4
		c8.1-4.8,15.4-10.6,21.9-17.4c6.3-6.7,11.5-14.4,14.3-22.9c1.4-4.3,2.3-8.7,2.5-13.2s-0.1-9.1-1-13.5l-0.3-1.7
		c-0.1-0.6-0.3-1.1-0.4-1.7c-0.3-1.1-0.6-2.2-0.8-3.3c-0.7-2.2-1.4-4.4-2.3-6.6C964.4,3586.4,962.3,3582.2,960.2,3577.9z"/>
	<path class="st9" d="M935.5,3564.2c0,0,30.5,37.3-8,67.7s-4.2,43,4.6,39.2c17.4-7.5,63.9-39.2,28.2-93.2"/>
	<path class="st2" d="M872.6,3744.1c-3.3,0-6.2-2.2-7.2-5.4c-2.2-7.5-3.9-15.1-5.2-22.9c-3.2-18.5-3.9-37.4-2.1-56.1
		c0.4-4.1,4-7.1,8.1-6.8s7.1,4,6.8,8.1v0.1c-2.3,24.7,0,49.6,6.8,73.4c1.1,3.9-1.1,8.1-5.1,9.2
		C874,3743.9,873.3,3744.1,872.6,3744.1z"/>
	<path class="st11" d="M865.5,3664.2h-0.3c-2-0.2-3.6-2-3.4-4l0,0l0.9-10.6c0.2-2,2-3.6,4-3.4s3.6,2,3.4,4l0,0l-1,10.6
		C869,3662.7,867.4,3664.2,865.5,3664.2z"/>
	
		<ellipse transform="matrix(0.9239 -0.3827 0.3827 0.9239 -1278.1215 591.6291)" class="st11" cx="848.1" cy="3508.5" rx="26.7" ry="26.7"/>
	<path class="st10" d="M828.1,3511.3c-1.6,0-3-1.3-3-3c0-12.6,10.2-22.9,22.9-22.9l0,0c1.6,0.1,2.9,1.5,2.8,3.1
		c-0.1,1.5-1.3,2.7-2.8,2.8c-9.3,0-16.8,7.5-16.9,16.9C831.1,3509.9,829.8,3511.3,828.1,3511.3
		C828.2,3511.3,828.1,3511.3,828.1,3511.3z"/>
	<path class="st10" d="M944.3,3582.6c0,0,7.4,2.6,1.5,22.5c-3.3,10.6-9.7,20-18.4,26.8c-4.7,3.6-8.9,7.7-12.6,12.4
		c9.9-17,30.7-21.7,26.6-46.8C939.3,3583.9,944.3,3582.6,944.3,3582.6z"/>
	<path class="st2" d="M317.8,3716.2h30.5c5,0,9.1,4.1,9.1,9.1v1.5c0,5-4.1,9.1-9.1,9.1h-30.5c-5,0-9.1-4.1-9.1-9.1v-1.5
		C308.7,3720.3,312.8,3716.2,317.8,3716.2z"/>
	<path class="st2" d="M325.4,3729.9h19c2.9,0,5.3,2.4,5.3,5.3l0,0c0,2.9-2.4,5.3-5.3,5.3h-19c-2.9,0-5.3-2.4-5.3-5.3l0,0
		C320.1,3732.3,322.5,3729.9,325.4,3729.9z"/>
</g>
<g id="background_details_4_">
	<circle class="st18" cx="593.9" cy="26.6" r="161.9"/>
</g>
<g id="background_details_3_">
	<circle class="st19" cx="236.6" cy="-23.7" r="323.4"/>
</g>
<g id="background_details_5_">
	
		<linearGradient id="SVGID_12_" gradientUnits="userSpaceOnUse" x1="-27.1389" y1="-138.4756" x2="1473.3206" y2="-138.4756" gradientTransform="matrix(0.8464 0 0 -0.8464 72.5985 2232.2695)">
		<stop  offset="0" style="stop-color:#50C6DF"/>
		<stop  offset="0.29" style="stop-color:#4FC4DE"/>
		<stop  offset="0.45" style="stop-color:#4EBCDA"/>
		<stop  offset="0.58" style="stop-color:#4BAED3"/>
		<stop  offset="0.69" style="stop-color:#469AC8"/>
		<stop  offset="0.8" style="stop-color:#4081BB"/>
		<stop  offset="0.89" style="stop-color:#3962AB"/>
		<stop  offset="0.97" style="stop-color:#313E99"/>
		<stop  offset="1" style="stop-color:#2E3192"/>
	</linearGradient>
	<path class="st20" d="M-42.5,2398.1c163-89.9,709.4,156.9,1224.3-221.7c31.2-31.2-46.5,255.2-179.8,244.5
		c-189.7-15.2-301.4-42.3-468.2,77c-71,50.8-567.9,14.4-567.9,14.4S-134.5,2448.8-42.5,2398.1z"/>
	<path class="st1" d="M41.3,2281.7c179-6.1,444.1,151.6,628.4,72.4c-184.3,92.2-387-28.9-686.3,4.6
		C-197.9,2286.1,22.1,2282.3,41.3,2281.7z"/>
</g>
<g id="Schedule">
	<ellipse class="st6" cx="179.2" cy="2614.8" rx="185.9" ry="48.8"/>
	<path class="st10" d="M291.5,2518.7c11.7,30.9,78.1,90.4,23.7,106.3c-55.2,16.1-28.1-74.2-46.8-104.3
		C275.3,2520.2,284.8,2517.6,291.5,2518.7z"/>
	<path class="st10" d="M265.9,2649.9c55.4-3.2,34.8-96.6-16.8-75.2C218,2587.7,233.4,2651.8,265.9,2649.9"/>
	<path class="st9" d="M265.9,2649.9c2.4-0.2,4.7-0.7,7-1.3c2.3-0.6,4.5-1.4,6.6-2.5c4.2-2.1,7.9-5.1,10.7-8.8
		c2.8-3.7,4.8-8,5.8-12.5c1.1-4.5,1.4-9.2,1.1-13.8c-0.8-9.2-4-18.4-9.7-25.5c-2.8-3.6-6.3-6.6-10.3-8.8c-4-2.1-8.4-3.2-12.9-3.3
		c-2.3,0-4.5,0.2-6.8,0.6c-1.1,0.2-2.2,0.5-3.3,0.8s-2.2,0.7-3.3,1.1c-2.1,0.8-4.1,1.8-5.9,3.1c-0.5,0.3-0.8,0.7-1.3,1
		c-0.4,0.3-0.9,0.7-1.2,1.1l-1.1,1.2c-0.4,0.4-0.8,0.8-1.1,1.3c-2.8,3.6-4.7,7.8-5.6,12.3c-0.9,4.5-1.2,9.2-0.9,13.8
		c0.3,4.7,1.2,9.3,2.7,13.7c1.4,4.5,3.4,8.7,6.1,12.6c2.6,3.9,5.9,7.3,9.8,9.9C256.5,2648.5,261.2,2649.9,265.9,2649.9h-1.8
		c-0.6,0.1-1.2,0.1-1.8,0c-1.2,0-2.4-0.2-3.5-0.4c-0.6-0.1-1.2-0.2-1.8-0.4l-1.7-0.6l-0.8-0.3l-0.8-0.4l-1.7-0.8
		c-4.2-2.5-7.9-5.8-10.8-9.8c-5.7-8-9.3-17.4-10.2-27.2c-0.5-4.9-0.3-9.9,0.6-14.8c0.9-5,3-9.7,6-13.8c0.8-1,1.6-2,2.5-2.9
		c0.5-0.5,0.9-0.9,1.4-1.3s1-0.8,1.5-1.2l1.6-1.1l0.8-0.5c0.3-0.2,0.6-0.3,0.8-0.4c1.1-0.6,2.3-1.1,3.5-1.6c1.1-0.5,2.3-0.8,3.5-1.2
		c1.2-0.4,2.4-0.7,3.6-0.9c2.5-0.5,5-0.8,7.5-0.7c5.1,0.1,10.1,1.4,14.6,3.8c4.4,2.4,8.3,5.8,11.3,9.8s5.4,8.4,7,13.1
		s2.6,9.5,2.8,14.5c0.3,4.9-0.3,9.9-1.6,14.6c-1.3,4.8-3.6,9.2-6.8,13c-3.2,3.8-7.2,6.7-11.8,8.6c-2.2,0.9-4.6,1.6-6.9,2.1
		C270.8,2649.6,268.4,2649.9,265.9,2649.9z"/>
	<path class="st9" d="M142.3,2584.5c0,0,8.8,36.7,54.2,72.3c49.8,28.3,62.9-44.4,62.9-44.4s21.8-2.5,42.9-29.4
		c8.9-11.3,17.7-27.1,24.6-48.7c21.9-68.6-17.9-83.5-17.9-83.5c2-0.2,11.8-2.4,18.5-13.7c7.5-12.8-0.3-27.3-2.7-31.7
		c-1-1.9-2.2-3.8-3.6-5.5l-6.8,5.2l-6.7-1.5c0.3,4.1-0.3,8.2-1.6,12.1c-5.9,16.8-25.5,22.3-43.8,30c-45.2,19-79,50.4-95.2,73.2
		C157.5,2532.1,137.5,2561.3,142.3,2584.5z"/>
	<path class="st10" d="M207.6,2653.9c27.3,12.9,38.9-16.2,42.6-29.2c0.2-0.6-0.2-1.2-0.8-1.4c-0.4-0.1-0.9,0-1.2,0.4
		c-6.2,8.5-20.7,25-40.4,28c-0.6,0.1-1,0.7-0.9,1.3C207,2653.5,207.3,2653.8,207.6,2653.9z"/>
	<path class="st10" d="M195.3,2590.9c0.6,0.7,19.6,24.5,64,21.6c0,0,20.1,0.2,43-29.5c-7.5,5.8-15.8,10.4-24.6,13.7
		C250.7,2606.9,218.2,2606.3,195.3,2590.9z"/>
	<path class="st10" d="M171.6,2633.1c0,0,16.1-7.3,18.3-25.9c5.3-44.9,17-71.9,17-71.9S161.4,2570.6,171.6,2633.1z"/>
	<path class="st9" d="M180.8,2615.7c-4.6,41.2-86.5,31.1-45.5-34.7c17-27.2,60.5-57.7,64.4-89.5c5.8,1.3,18.9,7.8,23.3,11.6
		C201,2535.6,185.2,2576.9,180.8,2615.7z"/>
	
		<ellipse transform="matrix(0.4139 -0.9103 0.9103 0.4139 -2138.6902 1750.6416)" class="st2" cx="290.2" cy="2536.2" rx="10.3" ry="4.5"/>
	<polygon class="st9" points="339.9,2332.6 305.1,2361.1 259,2351.6 294.8,2322.3 	"/>
	<polygon class="st10" points="313.4,2401.4 305.1,2361.1 339.9,2332.6 349.2,2372.2 	"/>
	<polygon class="st11" points="268.3,2391.1 259,2351.6 305.1,2361.1 313.4,2401.4 	"/>
</g>
<linearGradient id="SVGID_13_" gradientUnits="userSpaceOnUse" x1="593.929" y1="2309.5103" x2="593.929" y2="4035.7627" gradientTransform="matrix(0.8464 0 0 -0.8464 72.5985 2232.2695)">
	<stop  offset="0" style="stop-color:#FEF8C0"/>
	<stop  offset="0.39" style="stop-color:#FEF8C2"/>
	<stop  offset="0.59" style="stop-color:#FEF9CA"/>
	<stop  offset="0.75" style="stop-color:#FEFBD8"/>
	<stop  offset="0.89" style="stop-color:#FFFDEB"/>
	<stop  offset="1" style="stop-color:#FFFFFF"/>
</linearGradient>
<path class="st21" d="M-6-1183.6c29.4,40.3,1162.6,0,1162.6,0v1059.7c-126.8-75.5-288.8-119.4-452.3-119.4
	C395.4-243.3,128.2,47.6-6,277.5C-6-289.9-3.5-946-6-1183.6z"/>
<linearGradient id="SVGID_14_" gradientUnits="userSpaceOnUse" x1="593.929" y1="4480.3516" x2="593.929" y2="3053.7212" gradientTransform="matrix(0.8464 0 0 -0.8464 72.5985 2232.2695)">
	<stop  offset="0" style="stop-color:#FEF8C0"/>
	<stop  offset="0.11" style="stop-color:#FEF0A9"/>
	<stop  offset="0.23" style="stop-color:#FFEA97"/>
	<stop  offset="0.38" style="stop-color:#FFE68A"/>
	<stop  offset="0.57" style="stop-color:#FFE483"/>
	<stop  offset="1" style="stop-color:#FFE381"/>
</linearGradient>
<path class="st22" d="M1156.6-1559.9c-29.4,40.3-77.9,78.9-106.5,93.3c-8.9,4.4-77.3,32.8-239.5,0c-60.5-12.2-186.3,74.6-246.2,89.1
	C448.2-1349.5-6-1328.1-6-1328.1v574.3c126.8-75.5,278.9-119.4,442.4-119.4c308.9,0,586,290.9,720.2,520.8
	C1156.5-919.8,1154-1322.3,1156.6-1559.9z"/>
<g id="Layer_12">
	<circle class="st2" cx="621.7" cy="-2421.3" r="27.5"/>
</g>
<g id="Layer_12_1_">
	<circle class="st6" cx="290.4" cy="-2232.2" r="23.6"/>
</g>
<g id="Layer_12_2_">
	
		<ellipse transform="matrix(0.9998 -2.204118e-02 2.204118e-02 0.9998 50.7131 1.204)" class="st6" cx="80" cy="-2300" rx="39.2" ry="39.2"/>
</g>
<g id="Layer_12_3_">
	<circle class="st2" cx="79.4" cy="-2059.4" r="32.4"/>
</g>
<g id="Layer_12_15_">
	<circle class="st9" cx="179.5" cy="-279.8" r="21.9"/>
</g>
<g id="Layer_12_16_">
	
		<ellipse transform="matrix(0.7071 -0.7071 0.7071 0.7071 150.9284 350.6521)" class="st23" cx="498.7" cy="-6.9" rx="20.6" ry="20.6"/>
</g>
<g id="Layer_12_17_">
	<circle class="st9" cx="86.1" cy="-157.6" r="20.9"/>
</g>
<g id="Layer_12_18_">
	<circle class="st24" cx="307.7" cy="2.1" r="26.9"/>
</g>
<g id="Layer_12_19_">
	
		<ellipse transform="matrix(9.089778e-03 -1 1 9.089778e-03 49.4022 191.0532)" class="st25" cx="121.1" cy="70.6" rx="59.7" ry="59.7"/>
</g>
<g id="Layer_12_20_">
	<circle class="st25" cx="383.9" cy="-106.5" r="27.2"/>
</g>
<g id="Layer_12_21_">
	<circle class="st9" cx="399.7" cy="-1222.4" r="20"/>
</g>
<g id="Layer_12_22_">
	<circle class="st9" cx="158.1" cy="-1183.3" r="52.2"/>
</g>
<g id="Layer_12_23_">
	<circle class="st25" cx="172.5" cy="-1319.6" r="37.8"/>
</g>
<g id="SVGgroupcirc">
	<circle class="st25" cx="428.4" cy="-39.1" r="20"/>
	<circle class="st25" cx="261.5" cy="132.2" r="20"/>
	<ellipse class="st9" cx="49.9" cy="-37.6" rx="49.7" ry="49.4"/>
	
		<ellipse transform="matrix(0.9999 -1.646755e-02 1.646755e-02 0.9999 -0.9167 1.139)" class="st25" cx="68.7" cy="56.2" rx="27.2" ry="27.2"/>
	<circle class="st9" cx="147.1" cy="-59.2" r="40"/>
	
		<ellipse transform="matrix(3.327949e-02 -0.9994 0.9994 3.327949e-02 235.8739 256.967)" class="st25" cx="250.8" cy="6.6" rx="56.3" ry="56.3"/>
	<circle class="st25" cx="201.2" cy="-136.3" r="37.8"/>
	
		<ellipse transform="matrix(0.9995 -3.048492e-02 3.048492e-02 0.9995 8.1222 1.9588)" class="st25" cx="68.3" cy="-265.4" rx="38.8" ry="38.8"/>
	<circle class="st25" cx="375.5" cy="43.7" r="27.2"/>
</g>
<g id="Layer_12_24_">
	<circle class="st2" cx="384.8" cy="-2406.8" r="27.5"/>
</g>
<g id="SVGgroupcirc_1_">
	<circle class="st9" cx="478.5" cy="-1181.8" r="20.6"/>
	<ellipse class="st9" cx="28.3" cy="-1233" rx="49.7" ry="49.4"/>
	
		<ellipse transform="matrix(0.9998 -2.204106e-02 2.204106e-02 0.9998 24.8519 0.6079)" class="st25" cx="40" cy="-1127.1" rx="27.2" ry="27.2"/>
	<circle class="st9" cx="118.4" cy="-1242.4" r="40"/>
	<circle class="st25" cx="222.2" cy="-1176.8" r="56.3"/>
	<circle class="st9" cx="346.9" cy="-1289" r="27.2"/>
	<circle class="st25" cx="57.4" cy="-1375.9" r="38.8"/>
	<ellipse class="st9" cx="29.6" cy="-1331.6" rx="20.9" ry="20.9"/>
	<circle class="st9" cx="279.1" cy="-1181.2" r="26.9"/>
	<ellipse class="st25" cx="92.6" cy="-1112.7" rx="59.7" ry="59.7"/>
	<circle class="st9" cx="346.9" cy="-1139.6" r="27.2"/>
	<circle class="st9" cx="660.6" cy="-1319.8" r="24.4"/>
	<circle class="st9" cx="955" cy="-1367.5" r="63.6"/>
	<ellipse class="st9" cx="1079.1" cy="-1306.9" rx="60.6" ry="60.2"/>
	<circle class="st25" cx="1099" cy="-1436" r="33.1"/>
	
		<ellipse transform="matrix(0.3417 -0.9398 0.9398 0.3417 1877.9393 90.2912)" class="st9" cx="1003.4" cy="-1295.4" rx="48.8" ry="48.8"/>
	<circle class="st25" cx="876.9" cy="-1375.5" r="68.6"/>
	<circle class="st9" cx="724.9" cy="-1238.7" r="33.1"/>
	<circle class="st25" cx="937.5" cy="-1201.4" r="46.1"/>
	<circle class="st25" cx="1099.3" cy="-1044.1" r="47.2"/>
	<circle class="st9" cx="963.7" cy="-1026.6" r="26.7"/>
	<circle class="st9" cx="724.9" cy="-1420.8" r="33.1"/>
</g>
<g id="SVGgroupcirc_2_">
	
		<rect x="255.6" y="-2468.9" transform="matrix(0.8439 -0.5366 0.5366 0.8439 1359.1998 -238.3844)" class="st26" width="28.8" height="28.8"/>
	<circle class="st2" cx="270" cy="-2454.5" r="14.4"/>
	<circle class="st2" cx="346.7" cy="-2465.5" r="20.5"/>
	
		<rect x="168.9" y="-2472.4" transform="matrix(0.8439 -0.5366 0.5366 0.8439 1348.5448 -287.2864)" class="st26" width="23.5" height="23.5"/>
	<circle class="st2" cx="180.7" cy="-2460.7" r="11.8"/>
	
		<rect x="357.2" y="-2434.4" transform="matrix(0.8439 -0.5366 0.5366 0.8439 1351.5356 -169.3939)" class="st26" width="55.1" height="55.1"/>
	<circle class="st6" cx="302.7" cy="-2446.2" r="36.4"/>
	
		<rect x="180.1" y="-2472.9" transform="matrix(0.8439 -0.5366 0.5366 0.8439 1347.204 -275.3168)" class="st26" width="40.9" height="40.9"/>
	<circle class="st2" cx="200.6" cy="-2452.4" r="20.5"/>
	
		<rect x="352" y="-2492.1" transform="matrix(0.8439 -0.5366 0.5366 0.8439 1380.5214 -179.0748)" class="st26" width="61.2" height="61.2"/>
	<circle class="st2" cx="382.6" cy="-2461.5" r="30.6"/>
	
		<rect x="210.5" y="-2452.4" transform="matrix(0.8439 -0.5366 0.5366 0.8439 1343.9182 -261.1674)" class="st26" width="25.5" height="25.5"/>
	<circle class="st2" cx="223.2" cy="-2439.6" r="12.7"/>
	
		<rect x="274.4" y="-2472.7" transform="matrix(0.8412 -0.5408 0.5408 0.8412 1373.877 -231.7532)" class="st26" width="36.1" height="36.1"/>
	<circle class="st2" cx="291.2" cy="-2451" r="18.1"/>
	
		<rect x="143.7" y="-2477.5" transform="matrix(0.8439 -0.5366 0.5366 0.8439 1345.382 -298.0406)" class="st26" width="33.8" height="33.8"/>
	<circle class="st2" cx="160.7" cy="-2460.7" r="16.9"/>
	
		<rect x="881.9" y="-2463.7" transform="matrix(0.8439 -0.5366 0.5366 0.8439 1454.1714 98.485)" class="st26" width="28.8" height="28.8"/>
	<circle class="st2" cx="896.2" cy="-2449.2" r="14.4"/>
	<circle class="st2" cx="972.8" cy="-2460.1" r="20.5"/>
	
		<rect x="795.1" y="-2467.3" transform="matrix(0.8439 -0.5366 0.5366 0.8439 1443.5396 49.5173)" class="st26" width="23.5" height="23.5"/>
	<circle class="st2" cx="806.8" cy="-2455.4" r="11.8"/>
	
		<rect x="983.4" y="-2429" transform="matrix(0.8439 -0.5366 0.5366 0.8439 1446.4292 167.4794)" class="st26" width="55.1" height="55.1"/>
	<circle class="st2" cx="1010.9" cy="-2401.5" r="27.5"/>
	<circle class="st2" cx="928.9" cy="-2440.9" r="36.4"/>
	
		<rect x="806.3" y="-2467.5" transform="matrix(0.8439 -0.5366 0.5366 0.8439 1442.1335 61.5156)" class="st26" width="40.9" height="40.9"/>
	<circle class="st2" cx="826.7" cy="-2447" r="20.5"/>
	
		<ellipse transform="matrix(0.1602 -0.9871 0.9871 0.1602 3271.6924 -1066.9867)" class="st2" cx="1008.8" cy="-2456.2" rx="30.6" ry="30.6"/>
	
		<rect x="836.7" y="-2447.1" transform="matrix(0.8439 -0.5366 0.5366 0.8439 1438.8251 75.6775)" class="st26" width="25.5" height="25.5"/>
	<circle class="st2" cx="849.4" cy="-2434.3" r="12.7"/>
	
		<rect x="899.3" y="-2463.9" transform="matrix(0.8439 -0.5366 0.5366 0.8439 1455.5675 110.3614)" class="st26" width="36.2" height="36.2"/>
	<circle class="st2" cx="917.4" cy="-2445.7" r="18.1"/>
	
		<rect x="769.9" y="-2472.3" transform="matrix(0.8439 -0.5366 0.5366 0.8439 1440.3766 38.7631)" class="st26" width="33.8" height="33.8"/>
	<circle class="st2" cx="786.8" cy="-2455.3" r="16.9"/>
	
		<rect x="492.6" y="-2483.5" transform="matrix(0.8439 -0.5366 0.5366 0.8439 1403.9929 -113.509)" class="st26" width="28.8" height="28.8"/>
	
		<ellipse transform="matrix(0.9239 -0.3827 0.3827 0.9239 983.4535 6.0356)" class="st2" cx="506.9" cy="-2469" rx="14.4" ry="14.4"/>
	<circle class="st2" cx="417.6" cy="-2475.2" r="11.8"/>
	
		<rect x="594.2" y="-2448.9" transform="matrix(0.8439 -0.5366 0.5366 0.8439 1396.2928 -44.4776)" class="st26" width="55.1" height="55.1"/>
	
		<rect x="503.3" y="-2497.2" transform="matrix(0.8439 -0.5366 0.5366 0.8439 1404.6477 -94.6685)" class="st26" width="72.8" height="72.8"/>
	
		<ellipse transform="matrix(0.7071 -0.7071 0.7071 0.7071 1898.0308 -339.1717)" class="st6" cx="539.6" cy="-2460.7" rx="36.4" ry="36.4"/>
	
		<rect x="417" y="-2487.3" transform="matrix(0.8439 -0.5366 0.5366 0.8439 1391.9551 -150.4783)" class="st26" width="40.9" height="40.9"/>
	<ellipse class="st2" cx="437.6" cy="-2466.8" rx="20.5" ry="20.5"/>
	
		<rect x="447.4" y="-2466.9" transform="matrix(0.8439 -0.5366 0.5366 0.8439 1388.6976 -136.3157)" class="st26" width="25.5" height="25.5"/>
	<circle class="st2" cx="460.1" cy="-2454.1" r="12.7"/>
	
		<rect x="510" y="-2483.5" transform="matrix(0.8439 -0.5366 0.5366 0.8439 1405.3523 -101.5906)" class="st26" width="36.2" height="36.2"/>
	
		<ellipse transform="matrix(0.9239 -0.3827 0.3827 0.9239 983.7055 14.42)" class="st2" cx="528.1" cy="-2465.5" rx="18.1" ry="18.1"/>
	
		<rect x="380.6" y="-2492" transform="matrix(0.8439 -0.5366 0.5366 0.8439 1390.1614 -173.1889)" class="st26" width="33.8" height="33.8"/>
	<circle class="st2" cx="397.6" cy="-2475.1" r="16.9"/>
	<rect x="915.4" y="-2479.6" class="st26" width="39.2" height="39.2"/>
	<circle class="st2" cx="935" cy="-2460" r="19.6"/>
	<rect x="712.5" y="-2461.6" class="st26" width="46.8" height="46.8"/>
	<circle class="st2" cx="735.9" cy="-2438.2" r="23.4"/>
	<rect x="194.7" y="-2451.6" class="st26" width="46" height="46"/>
	<circle class="st2" cx="217.7" cy="-2428.6" r="23"/>
	<rect x="327.3" y="-2401.6" class="st26" width="23.9" height="23.9"/>
	<circle class="st2" cx="339.3" cy="-2389.6" r="12"/>
	<rect x="340.9" y="-2367.8" class="st26" width="44.9" height="44.9"/>
	<circle class="st2" cx="363.4" cy="-2345.4" r="22.5"/>
	<rect x="403.3" y="-2317.1" class="st26" width="28.6" height="28.6"/>
	<circle class="st2" cx="417.6" cy="-2302.8" r="14.3"/>
	<rect x="440" y="-2494.5" class="st26" width="75.3" height="75.3"/>
	
		<ellipse transform="matrix(0.1602 -0.9871 0.9871 0.1602 2826.1733 -1591.8312)" class="st2" cx="477.6" cy="-2456.8" rx="37.7" ry="37.7"/>
	<rect x="657.2" y="-2412.6" class="st26" width="39.2" height="39.2"/>
	<circle class="st2" cx="676.8" cy="-2393" r="19.6"/>
	<rect x="454.2" y="-2394.6" class="st26" width="46.8" height="46.8"/>
	<circle class="st2" cx="477.6" cy="-2371.2" r="23.4"/>
	<rect x="101.9" y="-2438.9" class="st26" width="23.9" height="23.9"/>
	<circle class="st2" cx="113.8" cy="-2426.9" r="12"/>
	<rect x="115.4" y="-2405.2" class="st26" width="44.9" height="44.9"/>
	<circle class="st2" cx="137.9" cy="-2382.7" r="22.5"/>
	<rect x="177.8" y="-2354.4" class="st26" width="28.6" height="28.6"/>
	<circle class="st2" cx="192.1" cy="-2340.1" r="14.3"/>
	
		<rect x="90" y="-2420" transform="matrix(0.8617 -0.5074 0.5074 0.8617 1222.0433 -256.9738)" class="st26" width="99.2" height="99.2"/>
	
		<ellipse transform="matrix(0.997 -7.726294e-02 7.726294e-02 0.997 183.5618 3.7025)" class="st6" cx="139.6" cy="-2370.4" rx="49.6" ry="49.6"/>
	
		<rect x="250.5" y="-2385.1" transform="matrix(0.8617 -0.5074 0.5074 0.8617 1234.5553 -184.7525)" class="st26" width="55.7" height="55.7"/>
	<circle class="st6" cx="278.4" cy="-2357.3" r="27.9"/>
	<rect x="108.2" y="-2446.4" class="st26" width="68.8" height="68.8"/>
	
		<ellipse transform="matrix(0.9998 -2.204107e-02 2.204107e-02 0.9998 53.1982 2.5572)" class="st6" cx="142.6" cy="-2412" rx="34.4" ry="34.4"/>
	<rect x="182.1" y="-2464.5" class="st26" width="52.5" height="52.5"/>
	<circle class="st6" cx="208.3" cy="-2438.3" r="26.2"/>
	<rect x="341.3" y="-2344.5" class="st26" width="44.3" height="44.3"/>
	<circle class="st6" cx="363.4" cy="-2322.4" r="22.1"/>
	<rect x="227.7" y="-2361" class="st26" width="43.7" height="43.7"/>
	<circle class="st6" cx="249.5" cy="-2339.1" r="21.8"/>
	<rect x="312.9" y="-2451.4" class="st26" width="39.2" height="39.2"/>
	<circle class="st2" cx="332.5" cy="-2431.8" r="19.6"/>
	<rect x="109.9" y="-2433.4" class="st26" width="46.8" height="46.8"/>
	
		<ellipse transform="matrix(6.652058e-02 -0.9978 0.9978 6.652058e-02 2529.1221 -2116.554)" class="st2" cx="133.4" cy="-2410" rx="23.4" ry="23.4"/>
	<circle class="st6" cx="64.8" cy="-2178.7" r="63.2"/>
	<circle class="st6" cx="154.9" cy="-2210.5" r="53.3"/>
	<ellipse class="st6" cx="175.8" cy="-2067.2" rx="38.5" ry="38.5"/>
	<ellipse class="st6" cx="39.2" cy="-2029.1" rx="35" ry="35"/>
	
		<ellipse transform="matrix(0.3162 -0.9487 0.9487 0.3162 2901.345 -555.303)" class="st6" cx="1065.4" cy="-2290.4" rx="62.8" ry="62.8"/>
	<circle class="st6" cx="71.4" cy="-2387.9" r="62.8"/>
	<circle class="st6" cx="1092.8" cy="-2373.4" r="35.4"/>
	<circle class="st6" cx="826.6" cy="-2365.4" r="27.4"/>
	
		<ellipse transform="matrix(0.997 -7.729355e-02 7.729355e-02 0.997 167.8177 3.398)" class="st2" cx="127.8" cy="-2166.2" rx="35.4" ry="35.4"/>
	<circle class="st2" cx="109" cy="-2086.9" r="19"/>
	<circle class="st2" cx="218.8" cy="-2237.5" r="18.3"/>
	<circle class="st2" cx="758.8" cy="-2418.8" r="51.8"/>
	<circle class="st2" cx="826.6" cy="-2383" r="17.5"/>
	<circle class="st2" cx="710.5" cy="-2427.5" r="15.6"/>
	<circle class="st2" cx="167.8" cy="-2274.9" r="38.5"/>
	<ellipse class="st2" cx="-4.4" cy="-2277.3" rx="38.5" ry="38.5"/>
	
		<ellipse transform="matrix(0.3162 -0.9487 0.9487 0.3162 2914.4868 -683.2693)" class="st6" cx="983.2" cy="-2363.5" rx="43" ry="43"/>
	<circle class="st2" cx="1043" cy="-2296.1" r="24.4"/>
	<circle class="st2" cx="977.1" cy="-2407.7" r="31.6"/>
</g>
<g id="Layer_12_9_">
	<circle class="st2" cx="981.4" cy="-2768.7" r="24.2"/>
</g>
<g id="Layer_12_10_">
	<circle class="st2" cx="1077.5" cy="-2836.2" r="18.4"/>
</g>
<g id="Layer_12_11_">
	<circle class="st2" cx="1084" cy="-2898.7" r="24.7"/>
</g>
<g id="Layer_12_12_">
	<circle class="st2" cx="968.3" cy="-2806.6" r="11.4"/>
</g>
<g id="Layer_12_13_">
	<circle class="st2" cx="1142" cy="-2798" r="20.3"/>
</g>
<g id="Layer_12_14_">
	<circle class="st6" cx="816.9" cy="-2827.6" r="15.7"/>
</g>
<g id="Layer_12_4_">
	<circle class="st2" cx="62.6" cy="-2728.6" r="20.6"/>
</g>
<g id="Layer_12_5_">
	
		<ellipse transform="matrix(5.097880e-03 -1 1 5.097880e-03 2734.4395 -2721.2627)" class="st2" cx="-0.4" cy="-2734.8" rx="13.1" ry="13.1"/>
</g>
<g id="Layer_12_6_">
	<circle class="st2" cx="190.7" cy="-2669.7" r="21"/>
</g>
<g id="Layer_12_7_">
	<circle class="st6" cx="286.1" cy="-2869.6" r="8.8"/>
</g>
<g id="Layer_12_8_">
	<circle class="st6" cx="149.4" cy="-2756.5" r="38.8"/>
</g>
<g id="background_details_8_">
	
		<linearGradient id="background_30_1_" gradientUnits="userSpaceOnUse" x1="-34.3832" y1="6103.3076" x2="-34.3832" y2="6500.8047" gradientTransform="matrix(0.84 0.104 0.104 -0.84 -61.5849 2408.7327)">
		<stop  offset="0" style="stop-color:#2E3192"/>
		<stop  offset="5.000000e-02" style="stop-color:#3550A2"/>
		<stop  offset="0.1" style="stop-color:#3C6FB2"/>
		<stop  offset="0.17" style="stop-color:#428BC0"/>
		<stop  offset="0.24" style="stop-color:#47A1CC"/>
		<stop  offset="0.33" style="stop-color:#4BB2D4"/>
		<stop  offset="0.44" style="stop-color:#4EBDDB"/>
		<stop  offset="0.58" style="stop-color:#50C4DE"/>
		<stop  offset="1" style="stop-color:#50C6DF"/>
	</linearGradient>
	<path id="background_30" class="st27" d="M1163.6-2942.2c-22.7-2.8-56.9,11.7-56.9,11.7c2.3-4.8,5.8-12.1,2.7-15
		c-2.2-2.1-10.6,2.9-16.7,6.1c15.1-10.3,24.3-20.7,21.8-25.3c-2.7-4.8-21.1,3.5-36.5,15.7c2.9-3.3,5.8-6.8,8.7-10.6
		c13.9-18.6,20.4-26.4,16.7-30.9c-2.5-3-19.8,7.5-34.3,25.6c1.7-10.5,0.3-18.7-4.2-20.3c-4.1-1.5-8.8,32.8-16.9,28.9
		c-138.6-66.9-263.8-68.7-353.2-28.6c-14-17.9-54.7-19.6-83.3-20c-16-0.3-27.9,12.5-36.4,22.6c0.7-11.4-2.9-21.5-9.7-26.9
		c0.9-1.7,2.1-3.3,3.3-4.8c2.1-2.4,4.6-4.4,7.4-5.9c1.8,5.3,7.5,8.2,12.8,6.5c5.3-1.8,8.2-7.5,6.5-12.8c-1.8-5.3-7.5-8.2-12.8-6.5
		c-3.7,1.2-6.4,4.5-6.9,8.4c-0.1,0.6-0.1,1.1-0.1,1.7c-7.1,0.8-13.7,4.2-18.4,9.7c-12.8-2.5-27.4,8.4-34.2,25.8l0,0
		c-1.7-2-7.6-8.8-14.6-8.1c-6,0.6-10.5,6.4-13.7,12.3c-4.1,0.3-12.1,1.2-13.8,5.8c-1.3,3.4,1.6,7.1,8.3,16
		c14.2,19,14.3,41.7,13.4,42.9c-5.4-13.5-15.6-30.8-19.5-24c-3.3,5.8-2.2,24.7,3.7,32.3c-10.4-5.6-23.7-8.1-7.3,11
		c-6.9-3.1-51.1-16.1-62.6-12c-6,2.2-11.4,5.9-15.5,10.8c-8.2-0.7-16.5-0.4-24.6,1c-10,1.7-19.6,5-28.5,9.7
		c-21.5,0.5-42,9.3-57.1,24.7c-17.6-4.6-36.4-1.4-51.4,8.9c-18.1-5.2-24.7-102.8-42.7-108c-4.3-12.1-14.1-21.2-26-23.7
		c-14.8-3-28.5,5.2-35.8,13.7c-15.6-5.2-39-2.5-54.6,15.8c-12.2-36.1-70.9-48.6-94.3-50.3l-11.8,216.7l1156.1,126.1 M544.2-2993.2
		c-1.7,3.2-4.2,5.1-5.7,4.4c-1.4-0.8-1.3-4,0.3-7.2c1.7-3.2,4.2-5.1,5.7-4.4C545.9-2999.5,545.8-2996.4,544.2-2993.2z M559.6-2988
		c-1.7,3.2-4.2,5.1-5.7,4.4c-1.5-0.8-1.3-4,0.3-7.2c1.7-3.2,4.2-5.1,5.7-4.4C561.5-2994.4,561.3-2991.2,559.6-2988L559.6-2988z"/>
</g>
<g id="background_details_9_">
	
		<linearGradient id="SVGID_15_" gradientUnits="userSpaceOnUse" x1="527.2938" y1="5714.8745" x2="527.2938" y2="6225.8701" gradientTransform="matrix(0.8464 0 0 -0.8464 72.5985 2232.2695)">
		<stop  offset="0" style="stop-color:#2E3192"/>
		<stop  offset="0.15" style="stop-color:#32419B"/>
		<stop  offset="0.46" style="stop-color:#3C6DB1"/>
		<stop  offset="0.88" style="stop-color:#4BB1D4"/>
		<stop  offset="1" style="stop-color:#50C6DF"/>
	</linearGradient>
	<path class="st28" d="M1156.8-2948.4c0,0-46.6-74.5-201.4-47.4c-7.2,1.3-46,11.2-79.7,21.9c-22.3-7-30.3-2.4-30.3-2.4
		c6.1-24.8,0-34.7-4.4-35.3c-4.8-0.6-10.4,4.9-14.8,14.6c-2.2-23-8.4-40.7-14.6-40.3c-6.7,0.4-10.7,21.5-9.1,47.1
		c0.3,4.8,0.8,9.4,1.4,13.7c-10.2-16.8-21-27.4-25.9-24.9c-4.7,2.4-2.7,16.1,4.2,33l0,0c-6.4-4-11.4-5.5-13.7-3.4
		c-1.3,1.2-1.6,3.4-1,6.3c-28.9-4.3-86.6-9.8-140.6,34.8c-24.5,20.3-35.5,22-45.3,28.1c-1.5-0.6-3.1-1.1-4.6-1.5
		c-11.1-2.8-22.6,0.7-27.4,4.2c-15.5-3-30.1,28.4-136.8,28.4c-75.3,0-93.9-63.5-127.1-71.1c3.6-3.4,4.6-8.8,4-9.2
		c-2-1.6-6.9-0.1-13.3,3.7c7.9-14.7,10.9-26.4,6.7-28.2c-4.5-1.9-15.5,7.7-26.6,22.4c0.9-3.7,1.8-7.6,2.4-11.6
		c3.6-21.7,1.4-39.3-4.9-39.3c-5.8,0-13.2,15.2-17.1,34.8c-3.3-8-8.3-12.8-12.8-11.6c-2.9,0.8-1,7.8,0.2,14.5
		c-7.1-17-35.5-46.5-58.7-46.5c-32.3,0-15.1,47.7-71.9,72.8c-37.8,16.7-56.5,0.5-56.5,0.5c-4-8.2-9-13.1-13.3-12.1
		c-4.7,1.1-7.1,9.1-6.7,19.7c-12.2-19.7-25.6-32.7-30.9-29.6c-5.8,3.3-0.1,24,12.8,46.2c2.4,4.1,4.9,8.1,7.3,11.6
		c-16.6-10.5-31-15.2-34.3-10.8c-3.1,4.2,4.7,15.6,18.4,27.7l0,0c-7.5-0.8-12.6,0.2-13.8,3c-0.8,2,0.4,4.6,3.1,7.6
		c-18.2,17.5-56.4,70.7-77.7,82.9c-8.3,4.7-14.5-2.3-17.5-2.2v122.6l-4.3,68.9l1277.2-10.2l-3.4-79.1"/>
</g>
<g id="SVGgroupcirc_3_">
	
		<rect x="195.4" y="-2757.2" transform="matrix(0.8439 -0.5366 0.5366 0.8439 1501.8684 -311.0336)" class="st26" width="42.3" height="42.3"/>
	
		<rect x="92" y="-2717.3" transform="matrix(0.8439 -0.5366 0.5366 0.8439 1468.1851 -367.3075)" class="st26" width="22" height="22"/>
	<circle class="st2" cx="103" cy="-2706.2" r="11"/>
	
		<rect x="41.9" y="-2749.4" transform="matrix(0.8439 -0.5366 0.5366 0.8439 1473.936 -392.5212)" class="st26" width="41.2" height="41.2"/>
	
		<rect x="-13.5" y="-2748.1" transform="matrix(0.8439 -0.5366 0.5366 0.8439 1467.4602 -427.2654)" class="st26" width="26.3" height="26.3"/>
	
		<rect x="145.9" y="-2730.2" transform="matrix(0.8439 -0.5366 0.5366 0.8439 1481.7838 -337.2088)" class="st26" width="31.3" height="31.3"/>
	<circle class="st2" cx="161.6" cy="-2714.5" r="15.6"/>
	
		<rect x="110.9" y="-2740.5" transform="matrix(0.8439 -0.5366 0.5366 0.8439 1483.7762 -361.0886)" class="st26" width="21.2" height="21.2"/>
	
		<ellipse transform="matrix(6.652044e-02 -0.9978 0.9978 6.652044e-02 2837.313 -2426.9341)" class="st2" cx="121.6" cy="-2729.9" rx="10.6" ry="10.6"/>
	
		<rect x="25.8" y="-2720.1" transform="matrix(0.8439 -0.5366 0.5366 0.8439 1460.1012 -404.6693)" class="st26" width="18" height="18"/>
	<circle class="st2" cx="34.8" cy="-2710.9" r="9"/>
	
		<rect x="177.7" y="-2758.2" transform="matrix(0.8439 -0.5366 0.5366 0.8439 1504.2667 -329.1088)" class="st26" width="18" height="18"/>
	<circle class="st2" cx="186.7" cy="-2749" r="9"/>
	<g class="st8">
		
			<rect x="169.7" y="-2690.8" transform="matrix(0.8439 -0.5366 0.5366 0.8439 1462.3167 -314.5386)" class="st26" width="42.1" height="42.1"/>
		
			<rect x="100.2" y="-2727.7" transform="matrix(0.8439 -0.5366 0.5366 0.8439 1468.6891 -352.9263)" class="st26" width="55.6" height="55.6"/>
		<circle class="st2" cx="128" cy="-2699.9" r="27.8"/>
		
			<rect x="34.3" y="-2720.3" transform="matrix(0.8439 -0.5366 0.5366 0.8439 1459.019 -395.5149)" class="st26" width="31.3" height="31.3"/>
		<circle class="st2" cx="50" cy="-2704.5" r="15.6"/>
	</g>
	<g class="st8">
		
			<rect x="165.7" y="-2735.1" transform="matrix(0.8439 -0.5366 0.5366 0.8439 1484.5212 -321.9672)" class="st26" width="46.8" height="46.8"/>
		<circle class="st2" cx="189.1" cy="-2711.5" r="23.4"/>
	</g>
	
		<rect x="57.5" y="-2704.6" transform="matrix(0.8439 -0.5366 0.5366 0.8439 1456.4535 -384.6971)" class="st26" width="19.5" height="19.5"/>
	
		<ellipse transform="matrix(0.9999 -1.020246e-02 1.020246e-02 0.9999 27.4971 0.5464)" class="st2" cx="67.3" cy="-2694.8" rx="9.7" ry="9.7"/>
	
		<rect x="105.4" y="-2717.4" transform="matrix(0.8439 -0.5366 0.5366 0.8439 1469.2678 -358.1979)" class="st26" width="27.6" height="27.6"/>
	<circle class="st2" cx="119.2" cy="-2703.5" r="13.8"/>
	
		<rect x="234.3" y="-2781.6" transform="matrix(0.8439 -0.5366 0.5366 0.8439 1523.0901 -297.6397)" class="st26" width="31.6" height="31.6"/>
	
		<ellipse transform="matrix(3.327953e-02 -0.9994 0.9994 3.327953e-02 3005.9822 -2423.3508)" class="st2" cx="250.3" cy="-2765.5" rx="15.8" ry="15.8"/>
	<g class="st8">
		
			<rect x="239.9" y="-2806.7" transform="matrix(0.8439 -0.5366 0.5366 0.8439 1533.0878 -290.6455)" class="st26" width="54.6" height="54.6"/>
		
			<ellipse transform="matrix(6.652060e-02 -0.9978 0.9978 6.652060e-02 3022.7065 -2327.7551)" class="st2" cx="267.3" cy="-2779.3" rx="27.3" ry="27.3"/>
		
			<rect x="213.6" y="-2754.7" transform="matrix(0.8439 -0.5366 0.5366 0.8439 1503.5212 -301.1109)" class="st26" width="41.6" height="41.6"/>
		
			<ellipse transform="matrix(3.327951e-02 -0.9994 0.9994 3.327951e-02 2958.9248 -2408.4026)" class="st2" cx="234.5" cy="-2733.7" rx="20.8" ry="20.8"/>
		
			<rect x="144.1" y="-2764.6" transform="matrix(0.8439 -0.5366 0.5366 0.8439 1500.9036 -345.2837)" class="st26" width="26.2" height="26.2"/>
		<circle class="st2" cx="157.2" cy="-2751.4" r="13.1"/>
		
			<rect x="63.7" y="-2763" transform="matrix(0.8439 -0.5366 0.5366 0.8439 1485.7996 -385.0944)" class="st26" width="35.1" height="35.1"/>
		<circle class="st2" cx="81.3" cy="-2745.3" r="17.6"/>
		
			<rect x="6.5" y="-2723.9" transform="matrix(0.8439 -0.5366 0.5366 0.8439 1457.6495 -412.9079)" class="st26" width="25.8" height="25.8"/>
		
			<ellipse transform="matrix(0.9994 -3.398848e-02 3.398848e-02 0.9994 92.1499 -0.9035)" class="st2" cx="19.5" cy="-2710.9" rx="12.9" ry="12.9"/>
		
			<rect x="6.7" y="-2760.1" transform="matrix(0.8439 -0.5366 0.5366 0.8439 1475.4395 -415.4052)" class="st26" width="34.6" height="34.6"/>
		
			<ellipse transform="matrix(1 -4.950261e-03 4.950261e-03 1 13.5774 8.520232e-02)" class="st2" cx="24" cy="-2742.7" rx="17.3" ry="17.3"/>
		
			<rect x="178.4" y="-2785.9" transform="matrix(0.8439 -0.5366 0.5366 0.8439 1516.0857 -327.2946)" class="st26" width="34.6" height="34.6"/>
		
			<ellipse transform="matrix(0.1602 -0.9871 0.9871 0.1602 2897.2153 -2131.77)" class="st2" cx="195.8" cy="-2768.5" rx="17.3" ry="17.3"/>
	</g>
	<circle class="st6" cx="233.1" cy="-2828.2" r="16.8"/>
	<circle class="st6" cx="337.5" cy="-2845.7" r="4.6"/>
	
		<ellipse transform="matrix(9.089402e-03 -1 1 9.089402e-03 2712.7314 -2620.2161)" class="st2" cx="34.3" cy="-2678.9" rx="38.8" ry="38.8"/>
</g>
<g id="SVGgroupcirc_4_">
	
		<rect x="1121.5" y="-2867.9" transform="matrix(9.463193e-02 -0.9955 0.9955 9.463193e-02 3868.1985 -1432.934)" class="st26" width="49.6" height="49.6"/>
	<circle class="st2" cx="1146.3" cy="-2843.1" r="24.8"/>
	
		<rect x="998.9" y="-2826.5" transform="matrix(9.463193e-02 -0.9955 0.9955 9.463193e-02 3717.0488 -1540.1523)" class="st26" width="25.8" height="25.8"/>
	
		<ellipse transform="matrix(0.1602 -0.9871 0.9871 0.1602 3627.0952 -1364.2596)" class="st2" cx="1011.8" cy="-2813.7" rx="12.9" ry="12.9"/>
	
		<rect x="957.2" y="-2792.8" transform="matrix(9.463193e-02 -0.9955 0.9955 9.463193e-02 3644.7651 -1529.5996)" class="st26" width="48.4" height="48.4"/>
	
		<rect x="903.6" y="-2743.8" transform="matrix(9.463193e-02 -0.9955 0.9955 9.463193e-02 3548.1475 -1555.3616)" class="st26" width="30.8" height="30.8"/>
	<circle class="st2" cx="918.9" cy="-2728.5" r="15.4"/>
	
		<rect x="1059.1" y="-2854.6" transform="matrix(9.463193e-02 -0.9955 0.9955 9.463193e-02 3798.9646 -1495.2115)" class="st26" width="36.7" height="36.7"/>
	
		<rect x="1031.3" y="-2811.1" transform="matrix(9.463193e-02 -0.9955 0.9955 9.463193e-02 3731.0769 -1494.8701)" class="st26" width="24.8" height="24.8"/>
	<circle class="st2" cx="1043.7" cy="-2798.7" r="12.4"/>
	
		<rect x="932.4" y="-2782.8" transform="matrix(9.463193e-02 -0.9955 0.9955 9.463193e-02 3613.5488 -1571.2633)" class="st26" width="21.1" height="21.1"/>
	<circle class="st2" cx="942.9" cy="-2772.3" r="10.5"/>
	
		<rect x="1111.6" y="-2824" transform="matrix(9.463193e-02 -0.9955 0.9955 9.463193e-02 3816.7705 -1430.0681)" class="st26" width="21.1" height="21.1"/>
	<circle class="st2" cx="1122.1" cy="-2813.5" r="10.5"/>
	<g class="st8">
		
			<rect x="1059.5" y="-2923.3" transform="matrix(9.463193e-02 -0.9955 0.9955 9.463193e-02 3867.166 -1545.0232)" class="st26" width="49.4" height="49.4"/>
		
			<rect x="1001.9" y="-2866.2" transform="matrix(9.463193e-02 -0.9955 0.9955 9.463193e-02 3757.5317 -1535.5309)" class="st26" width="65.3" height="65.3"/>
		
			<ellipse transform="matrix(0.7071 -0.7071 0.7071 0.7071 2306.7468 -98.4754)" class="st2" cx="1034.5" cy="-2833.7" rx="32.7" ry="32.7"/>
		
			<rect x="937" y="-2805.4" transform="matrix(9.463193e-02 -0.9955 0.9955 9.463193e-02 3639.5339 -1572.262)" class="st26" width="36.7" height="36.7"/>
		<circle class="st2" cx="955.4" cy="-2787.1" r="18.3"/>
	</g>
	<g class="st8">
		
			<rect x="1077.1" y="-2881.5" transform="matrix(9.463193e-02 -0.9955 0.9955 9.463193e-02 3841.313 -1484.3312)" class="st26" width="54.9" height="54.9"/>
		<circle class="st2" cx="1104.6" cy="-2854" r="27.5"/>
	</g>
	
		<rect x="875.9" y="-2723" transform="matrix(9.463193e-02 -0.9955 0.9955 9.463193e-02 3502.79 -1571.9723)" class="st26" width="22.5" height="22.5"/>
	<circle class="st2" cx="887.1" cy="-2711.7" r="11.2"/>
	
		<rect x="956.9" y="-2818" transform="matrix(9.463193e-02 -0.9955 0.9955 9.463193e-02 3670.6494 -1576.9935)" class="st26" width="22.9" height="22.9"/>
	
		<rect x="1011.2" y="-2841.4" transform="matrix(9.463193e-02 -0.9955 0.9955 9.463193e-02 3742.6721 -1535.0228)" class="st26" width="32.5" height="32.5"/>
	
		<ellipse transform="matrix(0.7071 -0.7071 0.7071 0.7071 2298.6272 -101.0767)" class="st2" cx="1027.3" cy="-2825.2" rx="16.2" ry="16.2"/>
	<g class="st8">
		
			<rect x="1139.5" y="-2879.4" transform="matrix(9.463193e-02 -0.9955 0.9955 9.463193e-02 3895.8704 -1426.0426)" class="st26" width="48.9" height="48.9"/>
		<circle class="st2" cx="1163.9" cy="-2854.9" r="24.4"/>
		
			<rect x="1077.2" y="-2810.8" transform="matrix(9.463193e-02 -0.9955 0.9955 9.463193e-02 3772.0974 -1443.1208)" class="st26" width="30.8" height="30.8"/>
		<circle class="st2" cx="1092.6" cy="-2795.3" r="15.4"/>
		
			<rect x="989.3" y="-2781.7" transform="matrix(9.463193e-02 -0.9955 0.9955 9.463193e-02 3663.0488 -1494.4625)" class="st26" width="41.2" height="41.2"/>
		<circle class="st2" cx="1009.9" cy="-2761.1" r="20.6"/>
		
			<rect x="911.7" y="-2779.4" transform="matrix(9.463193e-02 -0.9955 0.9955 9.463193e-02 3590.9746 -1579.8228)" class="st26" width="30.4" height="30.4"/>
		<circle class="st2" cx="926.9" cy="-2764.2" r="15.2"/>
		
			<rect x="928.2" y="-2753.7" transform="matrix(9.463193e-02 -0.9955 0.9955 9.463193e-02 3579.9001 -1530.4062)" class="st26" width="40.7" height="40.7"/>
		<circle class="st2" cx="948.6" cy="-2733.4" r="20.3"/>
		
			<rect x="1121.7" y="-2818.3" transform="matrix(9.463193e-02 -0.9955 0.9955 9.463193e-02 3819.395 -1396.2443)" class="st26" width="40.7" height="40.7"/>
	</g>
	
		<ellipse transform="matrix(0.7071 -0.7071 0.7071 0.7071 2245.7346 -42.6259)" class="st6" cx="1071.4" cy="-2732.2" rx="72.2" ry="72.2"/>
	<circle class="st6" cx="864.6" cy="-2755.8" r="44.9"/>
</g>
<g id="background_details_10_">
	<path id="highlight" class="st9" d="M122.3-3068.7c0,26.1-21.1,47.2-47.2,47.2c-6.6,0-13.1-1.4-19.2-4.1
		c-2.6,10.9-13.5,17.6-24.3,15c-10.8-2.6-17.6-13.5-15-24.3c1.8-7.5,7.7-13.3,15.2-15c-10.3-23.9,0.7-51.7,24.6-62.1
		s51.7,0.7,62.1,24.6C121-3081.5,122.3-3075.1,122.3-3068.7L122.3-3068.7z"/>
</g>
<g id="background_details_11_">
	
		<linearGradient id="SVGID_16_" gradientUnits="userSpaceOnUse" x1="621.9877" y1="-2870.7827" x2="621.9877" y2="-2331.9028" gradientTransform="matrix(0.8464 0 0 -0.8464 72.5985 2232.2695)">
		<stop  offset="0" style="stop-color:#50C6DF;stop-opacity:0.5"/>
		<stop  offset="0.44" style="stop-color:#50C6DF;stop-opacity:0.51"/>
		<stop  offset="0.6" style="stop-color:#50C6DF;stop-opacity:0.54"/>
		<stop  offset="0.71" style="stop-color:#50C6DF;stop-opacity:0.59"/>
		<stop  offset="0.8" style="stop-color:#50C6DF;stop-opacity:0.67"/>
		<stop  offset="0.88" style="stop-color:#50C6DF;stop-opacity:0.77"/>
		<stop  offset="0.95" style="stop-color:#50C6DF;stop-opacity:0.89"/>
		<stop  offset="1" style="stop-color:#50C6DF"/>
	</linearGradient>
	<path class="st29" d="M998.7,4662.1c59.4-351.2-163.8-426.3-264-411.9c-2.1,0.3-4.2,0.6-6.3,1c3.1-4.7,4.3-8.5,3-9.8
		c-1.4-1.3-5.4,0.2-10.4,3.7c7.7-19.1,10.4-35.5,6-37.5c-4.2-1.8-13.3,9.9-21.4,26.9c3.4-14.4,3.2-26.1-0.5-27.2
		c-4.1-1.1-11.1,11.3-15.6,27.7c-0.8,2.8-1.4,5.6-1.9,8.2c-1.1-8-3.2-13.5-5.6-13.5c-2.2,0-4,4.7-4.9,11.5c-2.9-0.4-5.9-0.6-8.8-0.6
		c-0.3,0-0.5,0-0.8,0c-2.7-13.3-7.1-22.9-10.8-22.4c-3.6,0.5-5.3,11.1-4.1,24.7c-5.2,1.4-10.2,3.3-15,5.7c0.1-4.2-0.1-8.4-0.4-12.6
		c-1.5-16.9-6.2-30.4-10.4-30c-4.3,0.4-6.5,14.4-5,31.3c0.3,2.9,0.6,5.7,1,8.4c-3.8-7.2-7.7-11.6-10-10.7c-3.1,1.2-1.7,12.1,3,24.3
		c0.3,0.8,0.6,1.5,0.9,2.2c-0.7-1-1.4-2-2.2-3c-8.5-11.5-17.6-19.7-22.3-20.5c-1.5-1.1-2.8-1.5-3.7-1.1c-3.1,1.6-0.6,13,5.7,25.5
		c1.1,2.2,2.2,4.2,3.3,6.1c-5.1-4.3-9.4-6.5-10.9-5.2c-2,1.8,2.4,9.7,9.7,17.7c0.2,0.3,0.5,0.5,0.7,0.7c-1.1,1.4-2.3,2.8-3.4,4.2
		l-0.2,0.2c-1.6-1.5-3.3-3-5.1-4.6c-10.7-9-21.3-14.1-23.5-11.4c-2.3,2.7,4.6,12.2,15.4,21.2c2.2,1.8,4.3,3.5,6.4,4.9
		c-1,1.7-2,3.3-2.9,5c-2.6-3.9-9-9.3-17-14.2c-11.9-7.3-23.1-10.9-24.9-7.9c-1.8,3,6.3,11.4,18.2,18.7c2,1.3,4.1,2.4,6,3.4
		c-6.6-1-11.5-0.6-12,1.3c-0.7,2.6,7.1,7.1,17.5,9.9l-0.7,0.5h-0.4c-14-0.1-25.3,2.7-25.4,6.2c0,2,3.8,3.9,9.8,5.1
		c-29.9,22.3-165.7,196.1-365.3,227.3L998.7,4662.1z"/>
</g>
<g id="background_details_12_">
	
		<linearGradient id="SVGID_17_" gradientUnits="userSpaceOnUse" x1="569.9182" y1="-3084.7471" x2="569.9182" y2="-2389.4495" gradientTransform="matrix(0.8464 0 0 -0.8464 72.5985 2232.2695)">
		<stop  offset="0" style="stop-color:#50C6DF"/>
		<stop  offset="1.000000e-02" style="stop-color:#50C4DE"/>
		<stop  offset="0.25" style="stop-color:#4490C3"/>
		<stop  offset="0.48" style="stop-color:#3A67AE"/>
		<stop  offset="0.69" style="stop-color:#34499F"/>
		<stop  offset="0.87" style="stop-color:#2F3795"/>
		<stop  offset="1" style="stop-color:#2E3192"/>
	</linearGradient>
	<path class="st30" d="M1117.2,4518.1c-25.5-53.8-179.1-12.7-236.1-29.7c-45.9-13.6-126.2-70.5-172.2-83.8
		c-18.6-5.4-45-7.7-73.4-9.3c7.2-7.3,11-13.8,9.1-16.2c-2.6-3.2-14.7,2.2-27,12.1c-1.2,1-2.4,2-3.6,3c-8.5-0.4-17.1-0.8-25.6-1.2
		c4.4-5.2,8.2-10.9,11.3-17c7.3-14,10.2-27,6.5-28.9c-3.6-1.9-12.6,7.9-19.8,22c-4.8,9.2-7.7,17.9-8.1,23.4
		c-6.2-0.3-12.3-0.7-18.2-1.2c2.6-6,4.4-12.3,5.6-18.8c2.9-15.5,2-28.8-2.1-29.5c-4.1-0.8-9.7,11.2-12.7,26.8
		c-1.4,6.8-1.9,13.7-1.5,20.6c-9.3-0.8-18.1-1.9-26.3-3.1c-0.7-5.3-1.9-10.6-3.6-15.7c-4.7-15.1-11.8-26.3-15.7-25.1
		c-4,1.2-3.3,14.5,1.4,29.6c0.9,2.9,1.9,5.7,3,8.3c-4.2-1-8.4-2.1-12.5-3.5c-48.4-16.6-125.7-91.6-174.4-107.4
		c-76.7-24.9-317.1,53.3-330-18.8l-2.3,588.5c0,0,465.4-21.3,570.8-49.4c54.3-14.5,168.3-101.3,223.2-89.1
		c147,32.8,209.1,4.4,217.1,0C1048.1,4678.1,1140.7,4567.9,1117.2,4518.1z"/>
</g>
<g id="background_details_13_">
	
		<linearGradient id="SVGID_18_" gradientUnits="userSpaceOnUse" x1="785.0311" y1="-3210.929" x2="785.0311" y2="-2672.0493" gradientTransform="matrix(0.8464 0 0 -0.8464 72.5985 2232.2695)">
		<stop  offset="0" style="stop-color:#50C6DF;stop-opacity:0.5"/>
		<stop  offset="0.44" style="stop-color:#50C6DF;stop-opacity:0.51"/>
		<stop  offset="0.6" style="stop-color:#50C6DF;stop-opacity:0.54"/>
		<stop  offset="0.71" style="stop-color:#50C6DF;stop-opacity:0.59"/>
		<stop  offset="0.8" style="stop-color:#50C6DF;stop-opacity:0.67"/>
		<stop  offset="0.88" style="stop-color:#50C6DF;stop-opacity:0.77"/>
		<stop  offset="0.95" style="stop-color:#50C6DF;stop-opacity:0.89"/>
		<stop  offset="1" style="stop-color:#50C6DF"/>
	</linearGradient>
	<path class="st31" d="M1136.7,4950c59.4-351.2-163.8-426.3-264-411.9c-2.1,0.3-4.2,0.6-6.3,1c3.1-4.7,4.3-8.5,3-9.8
		c-1.4-1.3-5.4,0.2-10.4,3.7c7.7-19.1,10.4-35.5,6-37.5c-4.2-1.8-13.3,9.9-21.4,26.9c3.4-14.4,3.2-26.1-0.5-27.2
		c-4.1-1.1-11.1,11.3-15.6,27.7c-0.8,2.8-1.4,5.6-1.9,8.2c-1.1-8-3.2-13.5-5.6-13.5c-2.2,0-4,4.7-4.9,11.5c-2.9-0.4-5.9-0.6-8.8-0.6
		c-0.3,0-0.5,0-0.8,0c-2.7-13.3-7.1-22.9-10.8-22.4c-3.6,0.5-5.3,11.1-4.1,24.7c-5.2,1.4-10.2,3.3-15,5.7c0.1-4.2-0.1-8.4-0.4-12.6
		c-1.5-16.9-6.2-30.4-10.4-30c-4.3,0.4-6.5,14.4-5,31.3c0.3,2.9,0.6,5.7,1,8.4c-3.8-7.2-7.7-11.6-10-10.7c-3.1,1.2-1.7,12.1,3,24.3
		c0.3,0.8,0.6,1.5,0.9,2.2c-0.7-1-1.4-2-2.2-3c-8.5-11.5-17.6-19.7-22.3-20.5c-1.5-1.1-2.8-1.5-3.7-1.1c-3.1,1.6-0.6,13,5.7,25.5
		c1.1,2.2,2.2,4.2,3.3,6.1c-5.1-4.3-9.4-6.5-10.9-5.2c-2,1.8,2.4,9.7,9.7,17.7c0.2,0.3,0.5,0.5,0.7,0.7c-1.1,1.4-2.3,2.8-3.4,4.2
		l-0.2,0.2c-1.6-1.5-3.3-3-5.1-4.6c-10.7-9-21.3-14.1-23.5-11.4c-2.3,2.7,4.6,12.2,15.4,21.2c2.2,1.8,4.3,3.5,6.4,4.9
		c-1,1.7-2,3.3-2.9,5c-2.6-3.9-9-9.3-17-14.2c-11.9-7.3-23.1-10.9-24.9-7.9c-1.8,3,6.3,11.4,18.2,18.7c2,1.3,4.1,2.4,6,3.4
		c-6.6-1-11.5-0.6-12,1.3c-0.7,2.6,7.1,7.1,17.5,9.9l-0.7,0.5h-0.4c-14-0.1-25.3,2.7-25.4,6.2c0,2,3.8,3.9,9.8,5.1
		c-29.9,22.3-165.7,196.1-365.3,227.3L1136.7,4950z"/>
</g>
</svg>
