<?xml version="1.0" encoding="utf-8"?>
<!-- Generator: Adobe Illustrator 22.0.1, SVG Export Plug-In . SVG Version: 6.00 Build 0)  -->
<svg version="1.1" id="Layer_1" xmlns="http://www.w3.org/2000/svg" xmlns:xlink="http://www.w3.org/1999/xlink" x="0px" y="0px"
	 viewBox="0 0 1153.8 971.1" style="enable-background:new 0 0 1153.8 971.1;" xml:space="preserve">
<style type="text/css">
	.st0{fill:#50C6DF;}
	.st1{opacity:0.5;fill:#50C6DF;enable-background:new    ;}
	.st2{fill:#2E3192;}
	.st3{clip-path:url(#SVGID_2_);}
	.st4{fill:url(#SVGID_3_);}
	.st5{fill:url(#SVGID_4_);}
	.st6{opacity:0.5;fill:#2E3192;enable-background:new    ;}
	.st7{opacity:0.5;fill:url(#SVGID_5_);enable-background:new    ;}
	.st8{opacity:0.3;}
	.st9{fill:#FEF8C0;}
	.st10{fill:#FFE381;}
	.st11{fill:#F78D36;}
	.st12{opacity:0.75;fill:#2E3192;enable-background:new    ;}
	.st13{opacity:0.5;fill:url(#SVGID_6_);enable-background:new    ;}
	.st14{opacity:0.5;fill:url(#SVGID_7_);enable-background:new    ;}
	.st15{fill:url(#SVGID_8_);stroke:#FFE381;stroke-width:2.7;stroke-miterlimit:10;}
	.st16{clip-path:url(#SVGID_10_);}
	.st17{fill:url(#SVGID_11_);}
	.st18{opacity:0.5;fill:#F78D36;enable-background:new    ;}
	.st19{opacity:0.5;fill:#FFE381;enable-background:new    ;}
	.st20{opacity:0.85;fill:url(#SVGID_12_);enable-background:new    ;}
	.st21{fill:url(#SVGID_13_);}
	.st22{fill:url(#SVGID_14_);}
	.st23{opacity:0.25;fill:#FEF8C0;enable-background:new    ;}
	.st24{opacity:0.75;fill:#FEF8C0;enable-background:new    ;}
	.st25{opacity:0.5;fill:#FEF8C0;enable-background:new    ;}
	.st26{fill:none;}
	.st27{opacity:0.3;fill:url(#background_30_1_);enable-background:new    ;}
	.st28{fill:url(#SVGID_15_);}
	.st29{fill:url(#SVGID_16_);}
	.st30{opacity:0.5;fill:url(#SVGID_17_);enable-background:new    ;}
	.st31{fill:url(#SVGID_18_);}
</style>
<rect x="-6" y="2708.3" class="st0" width="1162.6" height="1158"/>
<path class="st1" d="M1156.6,2452.2c0,82.9-228.2-0.5-307.1,25.1c-48.7,15.8-139.7,88.5-188.1,105.1
	c-50.7,17.4-57.4,23.9-108.9,38.8c-46,13.3-216.9,57.2-262.8,70.8c-57,16.9-275.8,13.2-301.3,66.9
	c-23.6,49.8,134.2,122.7,182.5,149.4c69.5,38.4,239.9-16.1,317.6,0c55,11.4,152.1,74.6,206.4,89.1c105.4,28.1,461.4,49.5,461.4,49.5
	"/>
<rect x="-6" y="-3666.7" class="st0" width="1162.6" height="1179.2"/>
<path class="st2" d="M435.6-3662.9c312.8,0,587.9,160.1,720.9,393.9v-1062.7H-6v788.2C121.1-3618.9,271.7-3662.9,435.6-3662.9z"/>
<g>
	<g>
		<g>
			<defs>
				<rect id="SVGID_1_" x="-6" y="940.3" width="1162.6" height="1822.1"/>
			</defs>
			<clipPath id="SVGID_2_">
				<use xlink:href="#SVGID_1_"  style="overflow:visible;"/>
			</clipPath>
			<g class="st3">
				
					<linearGradient id="SVGID_3_" gradientUnits="userSpaceOnUse" x1="593.929" y1="-1245.2013" x2="593.929" y2="-3227.8335" gradientTransform="matrix(0.8464 0 0 -0.8464 72.5985 18.0554)">
					<stop  offset="0" style="stop-color:#FEF8C0;stop-opacity:0"/>
					<stop  offset="2.000000e-02" style="stop-color:#FEF8C0;stop-opacity:5.000000e-02"/>
					<stop  offset="9.000000e-02" style="stop-color:#FEF8C0;stop-opacity:0.27"/>
					<stop  offset="0.17" style="stop-color:#FEF8C0;stop-opacity:0.47"/>
					<stop  offset="0.25" style="stop-color:#FEF8C0;stop-opacity:0.63"/>
					<stop  offset="0.33" style="stop-color:#FEF8C0;stop-opacity:0.76"/>
					<stop  offset="0.41" style="stop-color:#FEF8C0;stop-opacity:0.87"/>
					<stop  offset="0.49" style="stop-color:#FEF8C0;stop-opacity:0.94"/>
					<stop  offset="0.57" style="stop-color:#FEF8C0;stop-opacity:0.99"/>
					<stop  offset="0.67" style="stop-color:#FEF8C0"/>
				</linearGradient>
				<rect x="-6" y="1072" class="st4" width="1162.6" height="1678.1"/>
				
					<linearGradient id="SVGID_4_" gradientUnits="userSpaceOnUse" x1="593.929" y1="-1245.2013" x2="593.929" y2="-3445.5796" gradientTransform="matrix(0.8464 0 0 -0.8464 72.5985 18.0554)">
					<stop  offset="0" style="stop-color:#FEF8C0;stop-opacity:0"/>
					<stop  offset="0" style="stop-color:#FEF8C0;stop-opacity:0"/>
					<stop  offset="8.000000e-02" style="stop-color:#FEF8C0;stop-opacity:0.23"/>
					<stop  offset="0.16" style="stop-color:#FEF8C0;stop-opacity:0.44"/>
					<stop  offset="0.25" style="stop-color:#FEF8C0;stop-opacity:0.61"/>
					<stop  offset="0.33" style="stop-color:#FEF8C0;stop-opacity:0.75"/>
					<stop  offset="0.41" style="stop-color:#FEF8C0;stop-opacity:0.86"/>
					<stop  offset="0.5" style="stop-color:#FEF8C0;stop-opacity:0.94"/>
					<stop  offset="0.58" style="stop-color:#FEF8C0;stop-opacity:0.98"/>
					<stop  offset="0.67" style="stop-color:#FEF8C0"/>
					<stop  offset="1" style="stop-color:#F78D36"/>
				</linearGradient>
				<rect x="-6" y="1072" class="st5" width="1162.6" height="1862.4"/>
			</g>
		</g>
	</g>
</g>
<path class="st2" d="M1156.5,965.8v-2471.5H-6v2963.1c0,0,406.5-21.7,511.8-49.8c54.3-14.5,151.4-77.7,206.4-89.1
	c77.8-16.1,338.2,29.9,401.4-18.3C1213.4,1224,1195.5,926.8,1156.5,965.8z"/>
<g id="background_details_1_">
	<path class="st6" d="M859.4-2904.4c-45.9-13.6-216.8-57.6-262.8-70.8c-51.5-14.9-58.2-21.4-108.9-38.8
		c-48.4-16.6-139.4-89.3-188.1-105.1c-62.9-20.4-235.7,28.4-303.1,7.1v586.8c77.7-5.4,447.4-31.8,541.5-56.9
		c54.3-14.5,151.4-77.7,206.4-89.1c77.8-16.1,257.4,38.4,327,0c22.9-12.6,55.5-47.6,81.3-86.3v-138.7
		C1075.6-2914.8,905.5-2890.7,859.4-2904.4z"/>
</g>
<title>spheregoblin</title>
<g id="background_details_7_">
	
		<linearGradient id="SVGID_5_" gradientUnits="userSpaceOnUse" x1="-92.0351" y1="3410.5759" x2="1275.876" y2="3410.5759" gradientTransform="matrix(0.8464 0 0 -0.8464 72.5985 18.0554)">
		<stop  offset="0" style="stop-color:#50C6DF"/>
		<stop  offset="1.000000e-02" style="stop-color:#50C4DE"/>
		<stop  offset="0.25" style="stop-color:#4490C3"/>
		<stop  offset="0.48" style="stop-color:#3A67AE"/>
		<stop  offset="0.69" style="stop-color:#34499F"/>
		<stop  offset="0.87" style="stop-color:#2F3795"/>
		<stop  offset="1" style="stop-color:#2E3192"/>
	</linearGradient>
	<path class="st7" d="M1152.5-2934.1c-84-9.9-226.4,8.5-268-3.8c-45.9-13.6-126.2-70.5-172.2-83.8c-18.6-5.4-45-7.7-73.4-9.2
		c7.2-7.3,11-13.8,9.1-16.2c-2.6-3.2-14.7,2.2-27,12.1c-1.2,1-2.4,2-3.6,3c-8.5-0.4-17.1-0.8-25.6-1.2c4.5-5.2,8.2-10.9,11.3-17
		c7.3-14,10.2-27,6.5-28.9c-3.6-1.9-12.6,7.9-19.8,22c-4.8,9.2-7.7,17.9-8.1,23.4c-6.2-0.3-12.3-0.7-18.2-1.2
		c2.6-6,4.4-12.3,5.6-18.8c2.9-15.5,2-28.8-2.1-29.5c-4.1-0.8-9.7,11.2-12.7,26.8c-1.5,7.9-2,15.2-1.5,20.6
		c-9.3-0.8-18.1-1.9-26.3-3.1c-0.7-5.3-1.9-10.6-3.6-15.7c-4.7-15.1-11.8-26.3-15.7-25.1c-4,1.2-3.3,14.5,1.4,29.6
		c0.9,2.9,1.9,5.7,3,8.3c-4.2-1-8.4-2.1-12.5-3.5c-48.4-16.6-125.7-91.6-174.4-107.4c-76.7-24.9-317.1,53.3-330-18.8l1.8,605.7
		c0,0,461.3-21.8,566.7-49.9c54.2-14.5,168.2-101.3,223-89.1c147,32.8,302.2,4.4,310.2,0c15.8-8.7,36.4-28.2,56.1-52.3V-2934.1z"/>
</g>
<g id="About_Page">
	<g id="grass_shadow">
		<g id="clump_3">
			<g class="st8">
				
					<ellipse transform="matrix(0.805 -0.5933 0.5933 0.805 1820.4824 -513.1798)" class="st2" cx="129.6" cy="-3025.8" rx="6.1" ry="23.3"/>
			</g>
			<g class="st8">
				
					<ellipse transform="matrix(0.2608 -0.9654 0.9654 0.2608 2986.0498 -2044.6581)" class="st2" cx="157.9" cy="-2972.2" rx="7.5" ry="28.6"/>
			</g>
			
				<ellipse transform="matrix(0.2419 -0.9703 0.9703 0.2419 2974.3242 -2045.5889)" class="st2" cx="178.1" cy="-2926.2" rx="5" ry="18.9"/>
			<g class="st8">
				
					<ellipse transform="matrix(0.886 -0.4636 0.4636 0.886 1429.9236 -279.583)" class="st2" cx="146.3" cy="-3048.3" rx="7.5" ry="28.6"/>
			</g>
			
				<ellipse transform="matrix(0.4198 -0.9076 0.9076 0.4198 2771.1787 -1548.8905)" class="st2" cx="174.1" cy="-2942" rx="7.5" ry="28.6"/>
			<g class="st8">
				
					<ellipse transform="matrix(0.6828 -0.7306 0.7306 0.6828 2304.6904 -766.5938)" class="st2" cx="269.5" cy="-3037.5" rx="28.6" ry="7.5"/>
			</g>
			
				<ellipse transform="matrix(0.8263 -0.5632 0.5632 0.8263 1696.3555 -372.1984)" class="st2" cx="244.7" cy="-2936.5" rx="28.6" ry="7.5"/>
		</g>
		<g id="clump_2">
			
				<ellipse transform="matrix(0.1663 -0.9861 0.9861 0.1663 3191.8821 -2342.6177)" class="st2" cx="210.6" cy="-3058.9" rx="28.3" ry="7.1"/>
			
				<ellipse transform="matrix(0.4187 -0.9081 0.9081 0.4187 2903.0222 -1572.9366)" class="st2" cx="222.9" cy="-3054.1" rx="21.9" ry="5.5"/>
			
				<ellipse transform="matrix(0.6547 -0.7559 0.7559 0.6547 2397.687 -874.7332)" class="st2" cx="241.4" cy="-3061.7" rx="28.3" ry="7.1"/>
			
				<ellipse transform="matrix(0.6144 -0.789 0.789 0.6144 2490.9675 -969.4185)" class="st2" cx="253.7" cy="-3033.1" rx="28.3" ry="7.1"/>
			
				<ellipse transform="matrix(0.7085 -0.7057 0.7057 0.7085 2205.6479 -692.6113)" class="st2" cx="264.4" cy="-3016.2" rx="21.9" ry="5.5"/>
			
				<ellipse transform="matrix(0.8768 -0.4808 0.4808 0.8768 1485.613 -234.8279)" class="st2" cx="284.5" cy="-3016.9" rx="28.3" ry="7.1"/>
		</g>
		<g id="clump_1">
			
				<ellipse transform="matrix(0.4005 -0.9163 0.9163 0.4005 2814.1973 -1703.0991)" class="st2" cx="105.6" cy="-3002.2" rx="7.1" ry="28.3"/>
			
				<ellipse transform="matrix(0.6263 -0.7796 0.7796 0.6263 2391.3979 -1037.6331)" class="st2" cx="113.4" cy="-3013.1" rx="5.5" ry="21.9"/>
			
				<ellipse transform="matrix(0.8211 -0.5708 0.5708 0.8211 1748.5072 -482.5435)" class="st2" cx="104.5" cy="-3030.5" rx="7.1" ry="28.3"/>
			
				<ellipse transform="matrix(0.7874 -0.6165 0.6165 0.7874 1902.8293 -559.0934)" class="st2" cx="140.9" cy="-3038" rx="7.1" ry="28.3"/>
			
				<ellipse transform="matrix(0.8585 -0.5128 0.5128 0.8585 1583.6614 -348.674)" class="st2" cx="160" cy="-3044.1" rx="5.5" ry="21.9"/>
			
				<ellipse transform="matrix(0.9672 -0.2539 0.2539 0.9672 783.3236 -58.7176)" class="st2" cx="164.2" cy="-3063.9" rx="7.1" ry="28.3"/>
		</g>
		<path class="st6" d="M296.7-2945.5c1.8,23.9-20.6,46-39.2,56.2c-61.4,33.7-162.8-17-163.6-56.2c-0.6-28.9,53.5-59.5,101.4-59.8
			C238.7-3005.6,293.9-2981,296.7-2945.5z"/>
	</g>
	<g id="pyramid_goblin">
		<path class="st9" d="M259.5-2997.2c0,0,5.9-31.8,5.3-41.6c-0.3-5.9-9-18.8-20.3-18.8s-104.7,22.2-117.9,30.9s-12.4,21.6-8.7,26.4
			c7.7,9.8,28.4,21.8,44.2,25.8C199.5-2965.3,259.5-2997.2,259.5-2997.2"/>
		<path class="st9" d="M269.2-2939.4c-9.4,0-10.8-10.9-20.3-7.2c-13.1,5.1-5.2,15.5-11.3,26.8c-3.3,6.1-20.2,15.8-32.4,9.4
			c-19.7-10.3-42.6-49.7-50.5-92.3c-7.9-42.5,20-58.8,20-58.8s8.4-6.6,2.4-28.5c-1-3.3-1.6-6.6-2.1-10l4.4,2.3l0.6-5.6
			c1.9,3.4,4.1,6.6,6.6,9.7c12.5,16,3.6,24.8,3.6,24.8c32.7-5,58.6,40.1,71.6,62.6c0.7,1.3,1.4,2.4,2,3.5l0,0
			c0.8,1.4,1.6,2.7,2.3,3.8l1,0.3c14.3,4.2,13.5,6.8,27.1,38.1C297.6-2952.5,278.6-2939.4,269.2-2939.4z"/>
		<path class="st10" d="M227.1-3054.9c0,0,26.4,5,34.3,48C253.7-3020.5,242-3041.3,227.1-3054.9"/>
		<path class="st10" d="M157.4-2990.6c-1-4-1.9-8-2.6-12c-2.7-14.6-1.2-26.1,1.9-34.9c0,0-11.3,7-10.2,24.5
			c0.8,13.6,11.4,24.5,11.4,24.5"/>
		<path class="st10" d="M267.1-2998.5c-0.2,0.4-0.7,0.7-1.1,0.6c-23.2-3.9-50-0.4-69.5,12.5c-0.5,0.3-1.2,0.1-1.4-0.4
			c-0.2-0.4-0.1-0.9,0.2-1.3c17.9-14.7,53-27.1,68.7-15.4l0,0c0.8,1.4,1.6,2.7,2.3,3.8L267.1-2998.5z"/>
		
			<ellipse transform="matrix(0.9526 -0.3042 0.3042 0.9526 900.0336 -72.2632)" class="st10" cx="218.1" cy="-2924.7" rx="17.8" ry="10.7"/>
		<path class="st10" d="M266.1-2998.7c3.9,1,7.7,2.6,11.1,4.8c8.3,5.4,10.8,19.3,17,33.6c3.4,7.9-15.6,21-25,21s-10.8-10.9-20.3-7.2
			c-2.5,0.8-4.7,2.4-6.3,4.5c-1.3,2-2,4.2-2,6.6c-0.2,0-3.8-20.7,6.2-40.7C251.4-2985.1,258-2992.8,266.1-2998.7z"/>
		<path class="st2" d="M211.8-3030.6c1.2,1,2.5,1.7,4,2.1c2.2,0.7,4.6-0.4,5.5-2.5c0.7-1.4,1-2.9,1-4.4c1.5,1.3,2.2,3.2,2,5.2
			c-0.1,1.1-0.5,2.1-1.1,3c-0.6,0.9-1.5,1.7-2.5,2.1c-2,0.9-4.4,0.7-6.2-0.6C212.8-3026.8,211.8-3028.6,211.8-3030.6z"/>
		<path class="st2" d="M185.8-3023.1c1.2,1,2.5,1.7,4,2.1c2.2,0.7,4.6-0.4,5.5-2.5c0.7-1.4,1-2.9,1-4.4c1.5,1.3,2.2,3.2,2,5.2
			c-0.1,1.1-0.5,2.1-1.1,2.9c-0.6,0.9-1.5,1.7-2.5,2.1c-2,0.9-4.4,0.7-6.2-0.6C186.8-3019.4,185.8-3021.2,185.8-3023.1z"/>
		<polygon class="st9" points="135.4,-3122.7 164.4,-3123.8 182.6,-3148.1 152.7,-3147 		"/>
		<polyline class="st10" points="177.7,-3100.7 164.4,-3123.8 135.4,-3122.7 		"/>
		<polyline class="st11" points="182.6,-3148.1 164.4,-3123.8 177.7,-3100.7 		"/>
	</g>
	<g id="log">
		<g id="log-2">
			<path class="st2" d="M495.5-2917.4c-34.7,6.3-71.5-1.4-105.6,6.3c-16.1,3.6-31,18.7-46.6,21.4c-8.1,1.4-17.2-4.9-25.5-4
				c-8.6,0.9-19.6,8.8-27.4,12.8c-17.4-7-26.7-33.1-30.3-49.8c-4-18.3-1.7-44.2,10.3-60.3c27.7-1.8,50.1-13.4,78-14.3
				c22.1-0.7,20.2-5.5,38.3-10.8c12.3-3.6,24.8-0.3,37.2-3.6c17.8-4.8,22.4-19.4,44-11.5c13.4,4.9,15.3,14,21.2,24.9
				C504.3-2977.2,499.4-2949.4,495.5-2917.4z"/>
			<path class="st11" d="M290.4-2881c-35.9-11.8-49.3-84.2-20.1-110C299.7-2965.4,327.1-2908.1,290.4-2881z"/>
			<path class="st10" d="M292-2940.2c-1.2,12.6,2.8,24.4-5.6,35.1c-12.5-9.1-26.2-29.5-22-46.6
				C270.3-2975.8,288.4-2959.6,292-2940.2z"/>
		</g>
		<g id="whorls">
			<path class="st0" d="M296.9-2984.1c7.7,1,15.2,2.2,22.6,3.3c3.7,0.6,7.4,1.1,11.1,1.6c3.7,0.4,7.4,1,11.1,1.5s7.4,1.2,11.1,1.6
				c3.7,0.4,7.5,0.5,11.3,0.2c7.5-0.6,14.6-3.2,20.8-7.4c0.8-0.5,1.4-1.1,2.2-1.7l2.2-1.8c0.8-0.6,1.5-1.3,2.4-1.8l2.5-1.7
				c3.3-2.2,6.8-4.1,10.5-5.7c3.6-1.6,7.3-3.1,11.1-4.3c3.7-1.2,7.6-2.2,11.4-3c3.9-0.7,7.7-1.3,11.6-1.6c3.9-0.3,7.8-0.5,11.7-0.5
				c3.9,0,7.8,0.2,11.7,0.6c3.9,0.3,7.7,1,11.5,1.9l-0.1,0.8c-15.2,2-30.2,4.2-44.6,7.5c-3.6,0.8-7.2,1.7-10.8,2.6
				c-3.6,0.9-7.1,2-10.6,3.2s-6.8,2.7-10.2,4.2c-1.7,0.8-3.3,1.6-4.9,2.5l-1.2,0.6l-1.4,0.7c-0.9,0.4-1.8,1-2.7,1.3l-2.8,1.2l-2.8,1
				c-0.9,0.4-1.9,0.6-2.8,0.8l-1.4,0.4c-0.5,0.1-0.9,0.2-1.4,0.4c-3.8,1-7.6,1.7-11.4,2.4s-7.7,1.3-11.6,1.8s-7.8,0.8-11.8,0.8
				c-3.9,0-7.8-0.4-11.7-1.1c-7.7-1.3-15.2-3.4-22.4-6.3c-3.6-1.4-7.1-3.2-10.5-5.2L296.9-2984.1z"/>
			<path class="st0" d="M475.3-3015.4c-6.6,1.4-13.1,2.4-19.6,3.4c-3.2,0.4-6.5,0.9-9.7,1.3c-3.2,0.4-6.4,0.9-9.7,1.3
				c-3.2,0.3-6.5,0.6-9.7,0.8c-3.3,0.3-6.5,0.5-9.8,1c-6.5,0.9-12.7,3.1-18.3,6.4c-5.8,3.5-11.8,6.9-18.1,9.2
				c-3.2,1.1-6.4,2.1-9.6,3.1c-3.2,0.9-6.5,1.8-9.8,2.4c-6.6,1.2-13.2,2-19.9,2.2c-6.7,0.3-13.4-0.1-20.1-1l-0.1-0.8
				c6.4-2,12.9-3.6,19.3-5.1s12.8-2.9,19.1-4.1c6.4-1.2,12.8-2.2,19.1-3.7c3.1-0.7,6.3-1.3,9.5-2.1c3.2-0.7,6.3-1.6,9.3-2.8
				c6.2-2.7,12.5-4.8,18.8-7.1c6.3-2.3,12.7-4.6,19.3-5.7c3.3-0.6,6.6-0.9,10-1.1c3.3-0.2,6.7-0.3,10-0.3s6.7,0.2,10,0.5
				c3.4,0.3,6.7,0.8,10,1.5L475.3-3015.4z"/>
			<path class="st0" d="M312.5-2953.5c3.9-1,7.9-1.8,11.8-2.6l5.9-1.2l5.9-1c2-0.3,3.9-0.8,5.9-1.3c1.9-0.4,3.9-0.6,5.9-0.5
				c2,0.1,4.1,0.3,6.1,0.8c2.1,0.4,4.2,1.1,6.2,2.1l0.1,0.8c-1.8,1.2-3.7,2.3-5.8,3c-1.9,0.7-3.9,1.3-5.9,1.7
				c-1.9,0.4-3.9,0.5-5.9,0.4s-4-0.3-6-0.3l-6-0.1l-6-0.2c-4-0.2-8-0.4-12-0.7L312.5-2953.5z"/>
			<path class="st0" d="M411.1-2972.7c0.2-1.3,0.9-2.5,1.9-3.3c0.9-0.8,1.9-1.6,3-2.3c1-0.7,2.1-1.3,3.2-1.8s2.2-1.1,3.3-1.6
				c4.5-2.1,9.3-3.7,14.1-4.7c2.5-0.5,4.9-0.8,7.4-1.1c2.6-0.2,5.2-0.2,7.8,0c1.4,0.1,2.8,0.4,4.1,0.8c1.7,0.5,3.2,1.4,4.4,2.7
				c0.7,0.8,1.2,1.8,1.5,2.8c0.2,0.9,0.3,1.9,0.3,2.8c-0.1,1.6-0.5,3.1-1.1,4.6c-0.5,1.3-1.2,2.6-1.9,3.8c-0.7,1.2-1.5,2.3-2.4,3.4
				c-1.7,2.1-3.7,4.1-5.8,5.8c-1.1,0.8-2.3,1.6-3.5,2.3s-2.5,1.3-3.9,1.8c-1.3,0.5-2.7,0.9-4.1,1.1c-1.4,0.2-2.8,0.4-4.2,0.4
				c-2.8,0-5.6-0.5-8.2-1.4c-2.5-0.9-4.9-2.2-7.1-3.8c-2.1-1.5-4-3.3-5.7-5.3c-0.8-1-1.6-2-2.2-3.2
				C411.3-2970,411-2971.4,411.1-2972.7z M411.9-2972.7c0,0.5,0.1,1.1,0.3,1.6c0.2,0.5,0.5,1,0.8,1.4c0.7,0.9,1.6,1.7,2.5,2.3
				c1.9,1.3,4.1,2.2,6.3,2.8c4.2,1,8.6,1.3,12.9,0.8c2-0.2,4-0.7,5.9-1.3c1.9-0.7,3.8-1.6,5.5-2.6c1.8-1.1,3.5-2.4,5-3.9
				c1.5-1.4,2.7-3.1,3.7-4.9c0.4-0.8,0.7-1.6,0.8-2.4c0-0.3,0-0.6,0-0.8c0-0.1,0-0.3-0.1-0.4c-0.5-0.5-1-0.9-1.7-1.1
				c-0.9-0.4-1.9-0.7-2.9-0.8c-2.2-0.4-4.5-0.6-6.8-0.6c-2.4,0-4.7,0.1-7,0.3c-4.8,0.4-9.5,1.1-14.2,2.2c-2.3,0.6-4.6,1.4-6.7,2.5
				c-1.1,0.6-2,1.2-2.9,2.1C412.6-2974.8,412.1-2973.8,411.9-2972.7L411.9-2972.7z"/>
		</g>
		<g id="mushrooms">
			<path class="st11" d="M433.9-2924.2c1.4,6.1,17.6,5.6,34.6,1.8c17-3.9,21.3-8,19.9-14.2c-1.4-6.2-8.9-16-25.9-12.1
				C445.5-2944.8,432.5-2930.3,433.9-2924.2z"/>
			<path class="st11" d="M468.9-2958.7c2.8,5.8,17,8.8,28.6,3.4c11.5-5.4,19.5-19.1,16.8-24.9c-2.8-5.8-14.4,0-26,5.5
				C476.7-2969.3,466.2-2964.6,468.9-2958.7z"/>
			<path class="st11" d="M411.3-2939.1c1.2,4,8.8,6.1,16.4,3.7c7.6-2.3,11.8-7.9,10.5-12c-1.2-4-7.8-6.3-15.4-4
				C415.3-2948.9,410-2943.1,411.3-2939.1z"/>
			<path class="st11" d="M391.6-2927.3c0.4,2.4,4.5,4.2,9,3.5s7.3-3.5,6.9-5.9c-0.4-2.4-3.9-4.2-8.4-3.5
				C394.7-2932.6,391.2-2929.7,391.6-2927.3z"/>
			<path class="st11" d="M377.3-2933.7c0.3,1.8,2.4,3.3,5.8,2.8s4.9-2.5,4.6-4.4c-0.3-1.9-2-1.3-5.4-0.8S377-2935.6,377.3-2933.7z"
				/>
		</g>
		<path class="st11" d="M284.4-2938.4c0.3,1.2,0.6,2.4,1,3.7s0.6,2.6,0.8,4c0.1,1.5-0.2,3-0.8,4.3c-0.2,0.4-0.4,0.7-0.6,1
			c-0.3,0.3-0.6,0.7-0.9,0.9c-0.7,0.6-1.6,1-2.5,1.2s-1.8,0.1-2.6-0.2c-0.4-0.1-0.7-0.3-1.1-0.5c-0.3-0.2-0.6-0.4-0.9-0.7
			c-1-0.9-1.9-2-2.6-3.1c-1.4-2.1-2.7-4.4-3.8-6.8c-0.5-1.2-1-2.5-1.2-3.8c-0.3-1.4-0.3-2.8-0.2-4.2c0.1-1.5,0.5-3,1.2-4.4
			c0.2-0.4,0.4-0.7,0.7-1.1c0.3-0.4,0.6-0.7,0.9-1c0.7-0.7,1.6-1.2,2.6-1.4s2-0.2,2.9,0.1c0.4,0.1,0.9,0.3,1.3,0.5
			c0.4,0.2,0.7,0.4,1.1,0.7c1.2,0.9,2.1,2.1,2.8,3.5c0.5,1.2,1,2.5,1.3,3.8L284.4-2938.4z M284-2938.3c-0.3-1.2-0.9-2.3-1.6-3.3
			s-1.6-1.8-2.5-2.5c-0.8-0.6-1.7-1.2-2.6-1.6c-0.6-0.3-1.2-0.4-1.8-0.2c-0.6,0.2-1,0.7-1.3,1.2c-0.5,0.8-0.9,1.7-1.1,2.7
			c-0.4,2.2-0.5,4.5-0.4,6.8c0.1,1.2,0.4,2.4,0.8,3.5c0.4,1.1,1,2.2,1.8,3.1c0.7,0.9,1.7,1.5,2.8,1.9c0.8,0.3,1.7,0.3,2.4-0.1
			c0.6-0.4,1.1-0.9,1.5-1.5c0.6-0.9,1-1.8,1.4-2.8c0.5-1.1,0.8-2.3,0.9-3.5C284.4-2935.8,284.3-2937.1,284-2938.3z"/>
	</g>
</g>
<g id="background_details">
	<path class="st6" d="M-3.6-2771.6v246.3c77.7-5.4,447.4-31.8,541.5-56.9c54.3-14.5,151.4-77.7,206.4-89.1
		c77.8-16.1,257.4,38.4,327,0c21.3-11.8,54.4-60.6,81.3-108v-76C943-2776.3,4.7-2696.8-3.6-2771.6z"/>
</g>
<g id="background_details_2_">
	<path class="st12" d="M1172.4,2366.8c0,82.9-251.8-0.5-330.6,25.1c-48.7,15.8-139.7,88.5-188.1,105.1
		c-50.7,17.4-57.4,23.9-108.9,38.8c-46,13.3-374.8,70.5-430.4,70.8c-59.5,0.4-126.9-24.1-152.3,29.7
		c-23.6,49.8,69.1,160,117.3,186.6c69.5,38.4,323.7-16.1,401.4,0c55,11.4,152.1,74.6,206.4,89.1c105.4,28.1,464.5,49.7,464.5,49.7"
		/>
</g>
<g id="background_details_6_">
	
		<linearGradient id="SVGID_6_" gradientUnits="userSpaceOnUse" x1="-5265.7856" y1="-2739.2349" x2="-5265.1357" y2="-2739.2349" gradientTransform="matrix(-0.8464 0 0 -0.8464 -3309.5 18.0554)">
		<stop  offset="0" style="stop-color:#50C6DF"/>
		<stop  offset="1.000000e-02" style="stop-color:#50C4DE"/>
		<stop  offset="0.25" style="stop-color:#4490C3"/>
		<stop  offset="0.48" style="stop-color:#3A67AE"/>
		<stop  offset="0.69" style="stop-color:#34499F"/>
		<stop  offset="0.87" style="stop-color:#2F3795"/>
		<stop  offset="1" style="stop-color:#2E3192"/>
	</linearGradient>
	<path class="st13" d="M1146.7,2339.7l0.6-6.3C1147.3,2335.4,1147.1,2337.6,1146.7,2339.7z"/>
	
		<linearGradient id="SVGID_7_" gradientUnits="userSpaceOnUse" x1="-5284.853" y1="-3107.1453" x2="-3831.0681" y2="-3107.1453" gradientTransform="matrix(-0.8464 0 0 -0.8464 -3309.5 18.0554)">
		<stop  offset="0" style="stop-color:#50C6DF"/>
		<stop  offset="1.000000e-02" style="stop-color:#50C4DE"/>
		<stop  offset="0.25" style="stop-color:#4490C3"/>
		<stop  offset="0.48" style="stop-color:#3A67AE"/>
		<stop  offset="0.69" style="stop-color:#34499F"/>
		<stop  offset="0.87" style="stop-color:#2F3795"/>
		<stop  offset="1" style="stop-color:#2E3192"/>
	</linearGradient>
	<path class="st14" d="M-63.1,2603c25.5-53.8,227.9-24.5,287.2-29.5c206.5-17.8,202.3-82.1,278.3-93.2c-7.2-7.3-11-13.8-9.1-16.2
		c2.6-3.2,14.7,2.2,27,12.1c1.2,1,2.4,2,3.6,3c8.5-0.4,17.1-0.8,25.6-1.2c-4.5-5.2-8.2-10.9-11.3-17c-7.3-14-10.2-27-6.5-28.9
		c3.6-1.9,12.6,7.9,19.8,22c4.8,9.2,7.7,17.9,8.1,23.4c6.2-0.3,12.3-0.7,18.2-1.2c-2.6-6-4.4-12.3-5.6-18.8
		c-2.9-15.5-2-28.8,2.1-29.5s9.7,11.2,12.7,26.8c1.5,7.9,2,15.2,1.5,20.6c9.3-0.8,18.1-1.9,26.3-3.1c0.7-5.3,1.9-10.6,3.6-15.7
		c4.7-15.1,11.8-26.3,15.7-25.1c4,1.2,3.3,14.5-1.4,29.6c-0.9,2.9-1.9,5.7-3,8.3c4.2-1,8.4-2.1,12.5-3.5
		c48.4-16.6,125.7-91.6,174.4-107.4c76.7-24.9,334.1,53.3,347-18.8l-3,616.5c0,0-383.9-22.3-489.3-50.4
		c-190.9-136.9-313.6-115.7-383.4-116.2c-79.4-0.6-164.3,38.4-233.9,0C5.9,2762.9-86.7,2652.8-63.1,2603z"/>
</g>
<g id="Partners">
	
		<linearGradient id="SVGID_8_" gradientUnits="userSpaceOnUse" x1="874.8103" y1="-2978.6936" x2="1036.9403" y2="-2816.5637" gradientTransform="matrix(0.8464 0 0 -0.8464 72.5985 18.0554)">
		<stop  offset="0" style="stop-color:#FFE381"/>
		<stop  offset="5.000000e-02" style="stop-color:#FFE587"/>
		<stop  offset="0.26" style="stop-color:#FFEDA0"/>
		<stop  offset="0.49" style="stop-color:#FEF3B2"/>
		<stop  offset="0.72" style="stop-color:#FEF7BD"/>
		<stop  offset="1" style="stop-color:#FEF8C0"/>
	</linearGradient>
	<path class="st15" d="M891.2,2465.2c-7.8,0-22.6,18.1-22.6,34.2s8.2,34.5,41.4,37.7c11.2,1.1,61.7,23.2,97.4-27.1
		c23.7-33.3,19.7-68.9,6.8-95.3c-6-12.2-22.9-34.3-33.3-47.4c-10.2-12.7-30.1-21.8-46.6-27.5c-13.4-4.6-36.3-3.6-38.2-16
		c-1.2-7.7-9.5-14.4-18.8-15.9c0,0.4,0,0.8,0,1.3c0,1.5-0.1,3-0.4,4.5c14.1,7.6,11.7,32.8,5.8,39.2c-11.2,12.3-18.6,48.3-12.2,66
		C873.9,2435.5,881,2451.4,891.2,2465.2z"/>
	<path class="st10" d="M946.4,2476.1c-3.1,0.4-6.1,1.1-9.1,2.1c-2.9,0.9-5.8,2.2-8.5,3.7c-5.3,3-9.6,7.4-12.4,12.8
		c-1.3,2.7-2.3,5.6-2.9,8.5l-0.4,2.2c-0.1,0.8-0.2,1.5-0.3,2.3c-0.2,1.5-0.2,3-0.3,4.6c0,6.2,0.7,12.4,2,18.5c-0.5-1.5-1-3-1.5-4.5
		c-0.4-1.5-0.8-3-1.2-4.6c-0.4-1.5-0.6-3.1-0.8-4.7c-0.1-0.8-0.2-1.6-0.3-2.4s-0.2-1.6-0.2-2.4c-0.1-1.6-0.1-3.2,0-4.8
		c0.1-0.8,0.1-1.6,0.2-2.4l0.3-2.4c0.6-3.2,1.6-6.3,3-9.2c1.5-2.9,3.5-5.6,5.8-7.8c2.3-2.2,5-4.1,7.9-5.6c2.9-1.4,5.9-2.5,9-3.1
		C940,2476.2,943.2,2475.9,946.4,2476.1z"/>
	<path class="st2" d="M1162.9,2427.5c-22.6-0.9-42.2,6.2-56.7,20.5c0,0-39.2,39-99.1,39.2c-34.7,0.1-73.5-22.5-96.8-46.1
		c-2.9-2.9-7.6-3-10.5-0.1s-3,7.6-0.1,10.5c12,12.2,52.6,40.2,92.9,45.6c73.9,9.8,122-40.7,122-40.7c29.2-29.1,73.4-12.3,73.8-12.1
		l4.3-11C1183.2,2429.9,1173.1,2427.9,1162.9,2427.5z"/>
	<g>
		<g>
			<g>
				<defs>
					<path id="SVGID_9_" d="M451.1,2760.2c-55.5,0-101.8-2.1-138.4-6.2c-51.8-5.8-81.1-15.3-89.6-29c-3.4-5.2-3.5-11.9-0.4-17.2
						c8.5-15.2,40.6-23.5,66.4-23.5c21.7,0,36.7-9.8,44.7-29.1c6.5-15.6-0.3-37.3-4.1-59.5c-3.3-19.5-1.9-62.1-9.5-69.7l22.5,15.6
						c0,16-1.9,28.5,2,51.6c2.5,14.7,13.4,43,3.1,67.9c-10.4,25.2-30.8,38.6-58.8,38.6c-27.5,0-49.4,9.1-53.1,15.7
						c-0.5,0.5-0.5,1.3,0,1.8c2,3.3,23.7,27.9,215.1,27.9c35.5,0,76.7-0.8,124.8-2.8c97.3-4,173.5-16.6,226.5-37.3
						c41.5-16.3,68.5-37.4,80.3-62.8c21.2-45.6-12.8-83-16.6-100.6l13.7-5.3c3.8,11.4,11.4,18.4,18.4,37.9c9.3,26.2,8.8,52-1.7,74.4
						c-13.5,29.1-43.3,52.9-88.6,70.6c-54.5,21.4-132.3,34.3-231.4,38.3C530.7,2759.3,488.9,2760.2,451.1,2760.2z"/>
				</defs>
				<clipPath id="SVGID_10_">
					<use xlink:href="#SVGID_9_"  style="overflow:visible;"/>
				</clipPath>
				<g class="st16">
					
						<radialGradient id="SVGID_11_" cx="578.8988" cy="-3101.4153" r="302.0953" gradientTransform="matrix(0.8464 0 0 -0.8464 72.5985 18.0554)" gradientUnits="userSpaceOnUse">
						<stop  offset="0" style="stop-color:#50C6DF;stop-opacity:0.5"/>
						<stop  offset="0.37" style="stop-color:#3F79B7;stop-opacity:0.76"/>
						<stop  offset="0.74" style="stop-color:#32449C;stop-opacity:0.94"/>
						<stop  offset="1" style="stop-color:#2E3192"/>
					</radialGradient>
					<path class="st17" d="M451.1,2760.2c-55.5,0-101.8-2.1-138.4-6.2c-51.8-5.8-81.1-15.3-89.6-29c-3.4-5.2-3.5-11.9-0.4-17.2
						c8.5-15.2,40.6-23.5,66.4-23.5c21.7,0,36.7-9.8,44.7-29.1c6.5-15.6-0.3-37.3-4.1-59.5c-3.3-19.5-1.9-62.1-9.5-69.7l22.5,15.6
						c0,16-1.9,28.5,2,51.6c2.5,14.7,13.4,43,3.1,67.9c-10.4,25.2-30.8,38.6-58.8,38.6c-27.5,0-49.4,9.1-53.1,15.7
						c-0.5,0.5-0.5,1.3,0,1.8c2,3.3,23.7,27.9,215.1,27.9c35.5,0,76.7-0.8,124.8-2.8c97.3-4,173.5-16.6,226.5-37.3
						c41.5-16.3,68.5-37.4,80.3-62.8c21.2-45.6-12.8-83-16.6-100.6l13.7-5.3c3.8,11.4,11.4,18.4,18.4,37.9c9.3,26.2,8.8,52-1.7,74.4
						c-13.5,29.1-43.3,52.9-88.6,70.6c-54.5,21.4-132.3,34.3-231.4,38.3C530.7,2759.3,488.9,2760.2,451.1,2760.2z"/>
					<path class="st2" d="M451.1,2768.6c-55.5,0-101.8-2.1-138.4-6.2c-51.8-5.8-81.1-15.3-89.6-29c-3.4-5.2-3.5-11.9-0.4-17.2
						c8.5-15.2,40.6-23.5,66.4-23.5c21.7,0,36.7-9.8,44.7-29.1c6.5-15.6-0.3-37.3-4.1-59.5c-3.3-19.5-1.9-62.1-9.5-69.7l22.7,15.4
						c0,16-1.9,28.5,2,51.6c2.5,14.7,13.4,43,3.1,67.9c-10.4,25.2-30.8,38.5-58.8,38.5c-27.5,0-49.4,9.1-53.1,15.7
						c-0.5,0.5-0.5,1.3,0,1.8c2,3.3,23.7,27.9,215.1,27.9c35.5,0,76.7-0.8,124.8-2.8c97.3-4,173.5-16.6,226.5-37.3
						c41.5-16.3,68.5-37.4,80.3-62.8c21.2-45.6-12.8-83-16.6-100.6l13.7-5.3c3.8,11.4,11.4,18.4,18.4,37.9c9.3,26.2,8.8,52-1.7,74.4
						c-13.5,29.1-43.3,52.9-88.6,70.6c-54.5,21.4-132.3,34.3-231.4,38.3C530.7,2767.6,488.9,2768.6,451.1,2768.6z"/>
				</g>
			</g>
		</g>
	</g>
	<path class="st10" d="M880.2,2396.1c0,0,15.3,46.2-33.1,76.5c-13.5,11.5-4.1,37.9,6.6,34c6.3-2.3,46.4-27.4,49.5-57.8
		C904.2,2438.1,880.2,2396.1,880.2,2396.1z"/>
	
		<ellipse transform="matrix(0.9103 -0.4139 0.4139 0.9103 -916.9335 592.6867)" class="st2" cx="909.3" cy="2412.3" rx="3.1" ry="7.1"/>
	
		<ellipse transform="matrix(0.9103 -0.4139 0.4139 0.9103 -919.4141 585.4254)" class="st2" cx="891.3" cy="2414.4" rx="3.1" ry="7.1"/>
	<polygon class="st10" points="866.4,2450.6 841.6,2399.9 838.2,2409.9 806.1,2368.7 803.7,2379.2 776.1,2346 777.9,2376.8 
		806,2404.1 809.6,2387.7 842.1,2426.6 844.4,2417.7 	"/>
	<polygon class="st10" points="897.3,2439.1 893.2,2382.8 901.2,2389.7 908.3,2338 915.6,2345.8 922.7,2303.2 936.6,2330.8 
		926.1,2368.5 914.7,2356.1 906.2,2406.1 899.8,2399.6 	"/>
	<path class="st11" d="M905.1,2450.2c-0.9,0-1.9-0.4-2.5-1l-7.8-7.3c-1.4-1.5-1.3-3.9,0.2-5.3c1.4-1.3,3.5-1.3,4.9-0.2l7.8,7.3
		c1.5,1.4,1.6,3.8,0.2,5.3C907.1,2449.7,906.1,2450.2,905.1,2450.2L905.1,2450.2z"/>
	<path class="st10" d="M960.2,2378.7c3.1,3.7,5.8,7.6,8.1,11.8c1.2,2.1,2.2,4.3,3.2,6.5c0.5,1.1,0.8,2.3,1.3,3.4
		c0.4,1.1,0.8,2.3,1.1,3.5c1.4,4.8,2,9.7,2,14.6c-0.1,5-0.9,9.9-2.5,14.7c-3.2,9.5-9.2,17.7-16.4,24.2s-15.6,11.4-24.8,14.4
		c8.1-4.8,15.4-10.6,21.9-17.4c6.3-6.7,11.5-14.4,14.3-22.9c1.4-4.3,2.3-8.7,2.5-13.2s-0.1-9.1-1-13.5l-0.3-1.7
		c-0.1-0.6-0.3-1.1-0.4-1.7c-0.3-1.1-0.6-2.2-0.8-3.3c-0.7-2.2-1.4-4.4-2.3-6.6C964.4,2387.2,962.3,2383,960.2,2378.7z"/>
	<path class="st9" d="M935.5,2365c0,0,30.5,37.3-8,67.7s-4.2,43,4.6,39.2c17.4-7.5,63.9-39.2,28.2-93.2"/>
	<path class="st2" d="M872.6,2544.9c-3.3,0-6.2-2.2-7.2-5.4c-2.2-7.5-3.9-15.1-5.2-22.9c-3.2-18.5-3.9-37.4-2.1-56.1
		c0.4-4.1,4-7.1,8.1-6.8s7.1,4,6.8,8.1v0.1c-2.3,24.7,0,49.6,6.8,73.4c1.1,3.9-1.1,8.1-5.1,9.2
		C874,2544.7,873.3,2544.9,872.6,2544.9z"/>
	<path class="st11" d="M865.5,2465h-0.3c-2-0.2-3.6-2-3.4-4l0,0l0.9-10.6c0.2-2,2-3.6,4-3.4s3.6,2,3.4,4l0,0l-1,10.6
		C869,2463.5,867.4,2465,865.5,2465z"/>
	
		<ellipse transform="matrix(0.9239 -0.3827 0.3827 0.9239 -819.1968 500.3416)" class="st11" cx="848.1" cy="2309.3" rx="26.7" ry="26.7"/>
	<path class="st10" d="M828.1,2312.1c-1.6,0-3-1.3-3-3c0-12.6,10.2-22.9,22.9-22.9l0,0c1.6,0.1,2.9,1.5,2.8,3.1
		c-0.1,1.5-1.3,2.7-2.8,2.8c-9.3,0-16.8,7.5-16.9,16.9C831.1,2310.7,829.8,2312.1,828.1,2312.1
		C828.2,2312.1,828.1,2312.1,828.1,2312.1z"/>
	<path class="st10" d="M944.3,2383.4c0,0,7.4,2.6,1.5,22.5c-3.3,10.6-9.7,20-18.4,26.8c-4.7,3.6-8.9,7.7-12.6,12.4
		c9.9-17,30.7-21.7,26.6-46.8C939.3,2384.7,944.3,2383.4,944.3,2383.4z"/>
	<path class="st2" d="M317.8,2517h30.5c5,0,9.1,4.1,9.1,9.1v1.5c0,5-4.1,9.1-9.1,9.1h-30.5c-5,0-9.1-4.1-9.1-9.1v-1.5
		C308.7,2521.1,312.8,2517,317.8,2517z"/>
	<path class="st2" d="M325.4,2530.7h19c2.9,0,5.3,2.4,5.3,5.3l0,0c0,2.9-2.4,5.3-5.3,5.3h-19c-2.9,0-5.3-2.4-5.3-5.3l0,0
		C320.1,2533.1,322.5,2530.7,325.4,2530.7z"/>
</g>
<g id="background_details_4_">
	<circle class="st18" cx="593.9" cy="-1172.6" r="161.9"/>
</g>
<g id="background_details_3_">
	<circle class="st19" cx="236.6" cy="-1222.9" r="323.4"/>
</g>
<g id="background_details_5_">
	
		<linearGradient id="SVGID_12_" gradientUnits="userSpaceOnUse" x1="-27.1389" y1="-1337.6816" x2="1473.3206" y2="-1337.6816" gradientTransform="matrix(0.8464 0 0 -0.8464 72.5985 18.0554)">
		<stop  offset="0" style="stop-color:#50C6DF"/>
		<stop  offset="0.29" style="stop-color:#4FC4DE"/>
		<stop  offset="0.45" style="stop-color:#4EBCDA"/>
		<stop  offset="0.58" style="stop-color:#4BAED3"/>
		<stop  offset="0.69" style="stop-color:#469AC8"/>
		<stop  offset="0.8" style="stop-color:#4081BB"/>
		<stop  offset="0.89" style="stop-color:#3962AB"/>
		<stop  offset="0.97" style="stop-color:#313E99"/>
		<stop  offset="1" style="stop-color:#2E3192"/>
	</linearGradient>
	<path class="st20" d="M-42.5,1198.9c163-89.9,709.4,156.9,1224.3-221.7c31.2-31.2-46.5,255.2-179.8,244.5
		c-189.7-15.2-301.4-42.3-468.2,77c-71,50.8-567.9,14.4-567.9,14.4S-134.5,1249.6-42.5,1198.9z"/>
	<path class="st1" d="M41.3,1082.5c179-6.1,444.1,151.6,628.4,72.4c-184.3,92.2-387-28.9-686.3,4.6
		C-197.9,1086.9,22.1,1083.1,41.3,1082.5z"/>
</g>
<g id="Schedule">
	<ellipse class="st6" cx="179.2" cy="1415.6" rx="185.9" ry="48.8"/>
	<path class="st10" d="M291.5,1319.5c11.7,30.9,78.1,90.4,23.7,106.3c-55.2,16.1-28.1-74.2-46.8-104.3
		C275.3,1321,284.8,1318.4,291.5,1319.5z"/>
	<path class="st10" d="M265.9,1450.7c55.4-3.2,34.8-96.6-16.8-75.2C218,1388.5,233.4,1452.6,265.9,1450.7"/>
	<path class="st9" d="M265.9,1450.7c2.4-0.2,4.7-0.7,7-1.3c2.3-0.6,4.5-1.4,6.6-2.5c4.2-2.1,7.9-5.1,10.7-8.8
		c2.8-3.7,4.8-8,5.8-12.5c1.1-4.5,1.4-9.2,1.1-13.8c-0.8-9.2-4-18.4-9.7-25.5c-2.8-3.6-6.3-6.6-10.3-8.8c-4-2.1-8.4-3.2-12.9-3.3
		c-2.3,0-4.5,0.2-6.8,0.6c-1.1,0.2-2.2,0.5-3.3,0.8s-2.2,0.7-3.3,1.1c-2.1,0.8-4.1,1.8-5.9,3.1c-0.5,0.3-0.8,0.7-1.3,1
		c-0.4,0.3-0.9,0.7-1.2,1.1l-1.1,1.2c-0.4,0.4-0.8,0.8-1.1,1.3c-2.8,3.6-4.7,7.8-5.6,12.3c-0.9,4.5-1.2,9.2-0.9,13.8
		c0.3,4.7,1.2,9.3,2.7,13.7c1.4,4.5,3.4,8.7,6.1,12.6c2.6,3.9,5.9,7.3,9.8,9.9C256.5,1449.3,261.2,1450.7,265.9,1450.7h-1.8
		c-0.6,0.1-1.2,0.1-1.8,0c-1.2,0-2.4-0.2-3.5-0.4c-0.6-0.1-1.2-0.2-1.8-0.4l-1.7-0.6l-0.8-0.3l-0.8-0.4l-1.7-0.8
		c-4.2-2.5-7.9-5.8-10.8-9.8c-5.7-8-9.3-17.4-10.2-27.2c-0.5-4.9-0.3-9.9,0.6-14.8c0.9-5,3-9.7,6-13.8c0.8-1,1.6-2,2.5-2.9
		c0.5-0.5,0.9-0.9,1.4-1.3s1-0.8,1.5-1.2l1.6-1.1l0.8-0.5c0.3-0.2,0.6-0.3,0.8-0.4c1.1-0.6,2.3-1.1,3.5-1.6c1.1-0.5,2.3-0.8,3.5-1.2
		c1.2-0.4,2.4-0.7,3.6-0.9c2.5-0.5,5-0.8,7.5-0.7c5.1,0.1,10.1,1.4,14.6,3.8c4.4,2.4,8.3,5.8,11.3,9.8s5.4,8.4,7,13.1
		s2.6,9.5,2.8,14.5c0.3,4.9-0.3,9.9-1.6,14.6c-1.3,4.8-3.6,9.2-6.8,13c-3.2,3.8-7.2,6.7-11.8,8.6c-2.2,0.9-4.6,1.6-6.9,2.1
		C270.8,1450.4,268.4,1450.7,265.9,1450.7z"/>
	<path class="st9" d="M142.3,1385.3c0,0,8.8,36.7,54.2,72.3c49.8,28.3,62.9-44.4,62.9-44.4s21.8-2.5,42.9-29.4
		c8.9-11.3,17.7-27.1,24.6-48.7c21.9-68.6-17.9-83.5-17.9-83.5c2-0.2,11.8-2.4,18.5-13.7c7.5-12.8-0.3-27.3-2.7-31.7
		c-1-1.9-2.2-3.8-3.6-5.5l-6.8,5.2l-6.7-1.5c0.3,4.1-0.3,8.2-1.6,12.1c-5.9,16.8-25.5,22.3-43.8,30c-45.2,19-79,50.4-95.2,73.2
		C157.5,1332.9,137.5,1362.1,142.3,1385.3z"/>
	<path class="st10" d="M207.6,1454.7c27.3,12.9,38.9-16.2,42.6-29.2c0.2-0.6-0.2-1.2-0.8-1.4c-0.4-0.1-0.9,0-1.2,0.4
		c-6.2,8.5-20.7,25-40.4,28c-0.6,0.1-1,0.7-0.9,1.3C207,1454.3,207.3,1454.6,207.6,1454.7z"/>
	<path class="st10" d="M195.3,1391.7c0.6,0.7,19.6,24.5,64,21.6c0,0,20.1,0.2,43-29.5c-7.5,5.8-15.8,10.4-24.6,13.7
		C250.7,1407.7,218.2,1407.1,195.3,1391.7z"/>
	<path class="st10" d="M171.6,1433.9c0,0,16.1-7.3,18.3-25.9c5.3-44.9,17-71.9,17-71.9S161.4,1371.4,171.6,1433.9z"/>
	<path class="st9" d="M180.8,1416.5c-4.6,41.2-86.5,31.1-45.5-34.7c17-27.2,60.5-57.7,64.4-89.5c5.8,1.3,18.9,7.8,23.3,11.6
		C201,1336.4,185.2,1377.7,180.8,1416.5z"/>
	
		<ellipse transform="matrix(0.4139 -0.9103 0.9103 0.4139 -1047.0306 1047.797)" class="st2" cx="290.2" cy="1337" rx="10.3" ry="4.5"/>
	<polygon class="st9" points="339.9,1133.4 305.1,1161.9 259,1152.4 294.8,1123.1 	"/>
	<polygon class="st10" points="313.4,1202.2 305.1,1161.9 339.9,1133.4 349.2,1173 	"/>
	<polygon class="st11" points="268.3,1191.9 259,1152.4 305.1,1161.9 313.4,1202.2 	"/>
</g>
<linearGradient id="SVGID_13_" gradientUnits="userSpaceOnUse" x1="593.929" y1="1110.3042" x2="593.929" y2="2836.5566" gradientTransform="matrix(0.8464 0 0 -0.8464 72.5985 18.0554)">
	<stop  offset="0" style="stop-color:#FEF8C0"/>
	<stop  offset="0.39" style="stop-color:#FEF8C2"/>
	<stop  offset="0.59" style="stop-color:#FEF9CA"/>
	<stop  offset="0.75" style="stop-color:#FEFBD8"/>
	<stop  offset="0.89" style="stop-color:#FFFDEB"/>
	<stop  offset="1" style="stop-color:#FFFFFF"/>
</linearGradient>
<path class="st21" d="M-6-2382.8c29.4,40.3,1162.6,0,1162.6,0v1059.7c-126.8-75.5-288.8-119.4-452.3-119.4
	c-308.9,0-576.1,290.9-710.3,520.8C-6-1489.1-3.5-2145.2-6-2382.8z"/>
<linearGradient id="SVGID_14_" gradientUnits="userSpaceOnUse" x1="593.929" y1="3281.1455" x2="593.929" y2="1854.5151" gradientTransform="matrix(0.8464 0 0 -0.8464 72.5985 18.0554)">
	<stop  offset="0" style="stop-color:#FEF8C0"/>
	<stop  offset="0.11" style="stop-color:#FEF0A9"/>
	<stop  offset="0.23" style="stop-color:#FFEA97"/>
	<stop  offset="0.38" style="stop-color:#FFE68A"/>
	<stop  offset="0.57" style="stop-color:#FFE483"/>
	<stop  offset="1" style="stop-color:#FFE381"/>
</linearGradient>
<path class="st22" d="M1156.6-2759.1c-29.4,40.3-77.9,78.9-106.5,93.3c-8.9,4.4-77.3,32.8-239.5,0c-60.5-12.2-186.3,74.6-246.2,89.1
	C448.2-2548.7-6-2527.3-6-2527.3v574.3c126.8-75.5,278.9-119.4,442.4-119.4c308.9,0,586,290.9,720.2,520.8
	C1156.5-2119,1154-2521.5,1156.6-2759.1z"/>
<g id="Layer_12">
	<circle class="st2" cx="621.7" cy="-3620.5" r="27.5"/>
</g>
<g id="Layer_12_1_">
	<circle class="st6" cx="290.4" cy="-3431.4" r="23.6"/>
</g>
<g id="Layer_12_2_">
	
		<ellipse transform="matrix(0.9998 -2.204118e-02 2.204118e-02 0.9998 77.1451 0.9127)" class="st6" cx="80" cy="-3499.2" rx="39.2" ry="39.2"/>
</g>
<g id="Layer_12_3_">
	<circle class="st2" cx="79.4" cy="-3258.6" r="32.4"/>
</g>
<g id="Layer_12_15_">
	<circle class="st9" cx="179.5" cy="-1479" r="21.9"/>
</g>
<g id="Layer_12_16_">
	
		<ellipse transform="matrix(0.7071 -0.7071 0.7071 0.7071 998.8951 -0.5873)" class="st23" cx="498.7" cy="-1206.1" rx="20.6" ry="20.6"/>
</g>
<g id="Layer_12_17_">
	<circle class="st9" cx="86.1" cy="-1356.8" r="20.9"/>
</g>
<g id="Layer_12_18_">
	<circle class="st24" cx="307.7" cy="-1197.1" r="26.9"/>
</g>
<g id="Layer_12_19_">
	
		<ellipse transform="matrix(9.089778e-03 -1 1 9.089778e-03 1248.5587 -997.2524)" class="st25" cx="121.1" cy="-1128.6" rx="59.7" ry="59.7"/>
</g>
<g id="Layer_12_20_">
	<circle class="st25" cx="383.9" cy="-1305.7" r="27.2"/>
</g>
<g id="Layer_12_21_">
	<circle class="st9" cx="399.7" cy="-2421.6" r="20"/>
</g>
<g id="Layer_12_22_">
	<circle class="st9" cx="158.1" cy="-2382.5" r="52.2"/>
</g>
<g id="Layer_12_23_">
	<circle class="st25" cx="172.5" cy="-2518.8" r="37.8"/>
</g>
<g id="SVGgroupcirc">
	<circle class="st25" cx="428.4" cy="-1238.3" r="20"/>
	<circle class="st25" cx="261.5" cy="-1067" r="20"/>
	<ellipse class="st9" cx="49.9" cy="-1236.8" rx="49.7" ry="49.4"/>
	
		<ellipse transform="matrix(0.9999 -1.646755e-02 1.646755e-02 0.9999 18.8313 0.9764)" class="st25" cx="68.7" cy="-1143" rx="27.2" ry="27.2"/>
	<circle class="st9" cx="147.1" cy="-1258.4" r="40"/>
	
		<ellipse transform="matrix(3.327949e-02 -0.9994 0.9994 3.327949e-02 1434.4158 -902.3302)" class="st25" cx="250.8" cy="-1192.7" rx="56.3" ry="56.3"/>
	<circle class="st25" cx="201.2" cy="-1335.5" r="37.8"/>
	
		<ellipse transform="matrix(0.9995 -3.048492e-02 3.048492e-02 0.9995 44.6799 1.4014)" class="st25" cx="68.3" cy="-1464.6" rx="38.8" ry="38.8"/>
	<circle class="st25" cx="375.5" cy="-1155.5" r="27.2"/>
</g>
<g id="Layer_12_24_">
	<circle class="st2" cx="384.8" cy="-3606" r="27.5"/>
</g>
<g id="SVGgroupcirc_1_">
	<circle class="st9" cx="478.5" cy="-2381" r="20.6"/>
	<ellipse class="st9" cx="28.3" cy="-2432.2" rx="49.7" ry="49.4"/>
	
		<ellipse transform="matrix(0.9998 -2.204106e-02 2.204106e-02 0.9998 51.2837 0.3165)" class="st25" cx="40" cy="-2326.3" rx="27.2" ry="27.2"/>
	<circle class="st9" cx="118.4" cy="-2441.6" r="40"/>
	<circle class="st25" cx="222.2" cy="-2376" r="56.3"/>
	<circle class="st9" cx="346.9" cy="-2488.2" r="27.2"/>
	<circle class="st25" cx="57.4" cy="-2575.1" r="38.8"/>
	<ellipse class="st9" cx="29.6" cy="-2530.8" rx="20.9" ry="20.9"/>
	<circle class="st9" cx="279.1" cy="-2380.4" r="26.9"/>
	<ellipse class="st25" cx="92.6" cy="-2311.9" rx="59.7" ry="59.7"/>
	<circle class="st9" cx="346.9" cy="-2338.8" r="27.2"/>
	<circle class="st9" cx="660.6" cy="-2519" r="24.4"/>
	<circle class="st9" cx="955" cy="-2566.7" r="63.6"/>
	<ellipse class="st9" cx="1079.1" cy="-2506.1" rx="60.6" ry="60.2"/>
	<circle class="st25" cx="1099" cy="-2635.2" r="33.1"/>
	
		<ellipse transform="matrix(0.3417 -0.9398 0.9398 0.3417 3004.9441 -699.0914)" class="st9" cx="1003.4" cy="-2494.6" rx="48.8" ry="48.8"/>
	<circle class="st25" cx="876.9" cy="-2574.7" r="68.6"/>
	<circle class="st9" cx="724.9" cy="-2437.9" r="33.1"/>
	<circle class="st25" cx="937.5" cy="-2400.6" r="46.1"/>
	<circle class="st25" cx="1099.3" cy="-2243.3" r="47.2"/>
	<circle class="st9" cx="963.7" cy="-2225.8" r="26.7"/>
	<circle class="st9" cx="724.9" cy="-2620" r="33.1"/>
</g>
<g id="SVGgroupcirc_2_">
	
		<rect x="255.6" y="-3668.2" transform="matrix(0.8439 -0.5366 0.5366 0.8439 2002.6594 -425.6345)" class="st26" width="28.8" height="28.8"/>
	<circle class="st2" cx="270" cy="-3653.7" r="14.4"/>
	<circle class="st2" cx="346.7" cy="-3664.7" r="20.5"/>
	
		<rect x="168.9" y="-3671.6" transform="matrix(0.8439 -0.5366 0.5366 0.8439 1992.0044 -474.5365)" class="st26" width="23.5" height="23.5"/>
	<circle class="st2" cx="180.7" cy="-3659.9" r="11.8"/>
	
		<rect x="357.2" y="-3633.6" transform="matrix(0.8439 -0.5366 0.5366 0.8439 1994.9952 -356.644)" class="st26" width="55.1" height="55.1"/>
	<circle class="st6" cx="302.7" cy="-3645.4" r="36.4"/>
	
		<rect x="180.1" y="-3672.1" transform="matrix(0.8439 -0.5366 0.5366 0.8439 1990.6636 -462.5668)" class="st26" width="40.9" height="40.9"/>
	<circle class="st2" cx="200.6" cy="-3651.6" r="20.5"/>
	
		<rect x="352" y="-3691.3" transform="matrix(0.8439 -0.5366 0.5366 0.8439 2023.9811 -366.3249)" class="st26" width="61.2" height="61.2"/>
	<circle class="st2" cx="382.6" cy="-3660.7" r="30.6"/>
	
		<rect x="210.5" y="-3651.6" transform="matrix(0.8439 -0.5366 0.5366 0.8439 1987.3778 -448.4175)" class="st26" width="25.5" height="25.5"/>
	<circle class="st2" cx="223.2" cy="-3638.8" r="12.7"/>
	
		<rect x="274.4" y="-3671.9" transform="matrix(0.8412 -0.5408 0.5408 0.8412 2022.381 -422.2285)" class="st26" width="36.1" height="36.1"/>
	<circle class="st2" cx="291.2" cy="-3650.2" r="18.1"/>
	
		<rect x="143.7" y="-3676.7" transform="matrix(0.8439 -0.5366 0.5366 0.8439 1988.8416 -485.2906)" class="st26" width="33.8" height="33.8"/>
	<circle class="st2" cx="160.7" cy="-3659.9" r="16.9"/>
	
		<rect x="881.9" y="-3662.9" transform="matrix(0.8439 -0.5366 0.5366 0.8439 2097.6311 -88.7651)" class="st26" width="28.8" height="28.8"/>
	<circle class="st2" cx="896.2" cy="-3648.4" r="14.4"/>
	<circle class="st2" cx="972.8" cy="-3659.3" r="20.5"/>
	
		<rect x="795.1" y="-3666.5" transform="matrix(0.8439 -0.5366 0.5366 0.8439 2086.9993 -137.7328)" class="st26" width="23.5" height="23.5"/>
	<circle class="st2" cx="806.8" cy="-3654.6" r="11.8"/>
	
		<rect x="983.4" y="-3628.2" transform="matrix(0.8439 -0.5366 0.5366 0.8439 2089.8889 -19.7707)" class="st26" width="55.1" height="55.1"/>
	<circle class="st2" cx="1010.9" cy="-3600.7" r="27.5"/>
	<circle class="st2" cx="928.9" cy="-3640.1" r="36.4"/>
	
		<rect x="806.3" y="-3666.7" transform="matrix(0.8439 -0.5366 0.5366 0.8439 2085.5933 -125.7345)" class="st26" width="40.9" height="40.9"/>
	<circle class="st2" cx="826.7" cy="-3646.2" r="20.5"/>
	
		<ellipse transform="matrix(0.1602 -0.9871 0.9871 0.1602 4455.4136 -2074.1013)" class="st2" cx="1008.8" cy="-3655.4" rx="30.6" ry="30.6"/>
	
		<rect x="836.7" y="-3646.3" transform="matrix(0.8439 -0.5366 0.5366 0.8439 2082.2847 -111.5726)" class="st26" width="25.5" height="25.5"/>
	<circle class="st2" cx="849.4" cy="-3633.5" r="12.7"/>
	
		<rect x="899.3" y="-3663.1" transform="matrix(0.8439 -0.5366 0.5366 0.8439 2099.0271 -76.8887)" class="st26" width="36.2" height="36.2"/>
	<circle class="st2" cx="917.4" cy="-3644.9" r="18.1"/>
	
		<rect x="769.9" y="-3671.6" transform="matrix(0.8439 -0.5366 0.5366 0.8439 2083.8362 -148.487)" class="st26" width="33.8" height="33.8"/>
	<circle class="st2" cx="786.8" cy="-3654.5" r="16.9"/>
	
		<rect x="492.6" y="-3682.7" transform="matrix(0.8439 -0.5366 0.5366 0.8439 2047.4526 -300.7591)" class="st26" width="28.8" height="28.8"/>
	
		<ellipse transform="matrix(0.9239 -0.3827 0.3827 0.9239 1442.3781 -85.2519)" class="st2" cx="506.9" cy="-3668.2" rx="14.4" ry="14.4"/>
	<circle class="st2" cx="417.6" cy="-3674.4" r="11.8"/>
	
		<rect x="594.2" y="-3648.1" transform="matrix(0.8439 -0.5366 0.5366 0.8439 2039.7524 -231.7277)" class="st26" width="55.1" height="55.1"/>
	
		<rect x="503.3" y="-3696.4" transform="matrix(0.8439 -0.5366 0.5366 0.8439 2048.1072 -281.9185)" class="st26" width="72.8" height="72.8"/>
	
		<ellipse transform="matrix(0.7071 -0.7071 0.7071 0.7071 2745.9976 -690.411)" class="st6" cx="539.6" cy="-3659.9" rx="36.4" ry="36.4"/>
	
		<rect x="417" y="-3686.5" transform="matrix(0.8439 -0.5366 0.5366 0.8439 2035.4148 -337.7284)" class="st26" width="40.9" height="40.9"/>
	<ellipse class="st2" cx="437.6" cy="-3666" rx="20.5" ry="20.5"/>
	
		<rect x="447.4" y="-3666.2" transform="matrix(0.8439 -0.5366 0.5366 0.8439 2032.1572 -323.5658)" class="st26" width="25.5" height="25.5"/>
	<circle class="st2" cx="460.1" cy="-3653.3" r="12.7"/>
	
		<rect x="510" y="-3682.8" transform="matrix(0.8439 -0.5366 0.5366 0.8439 2048.812 -288.8407)" class="st26" width="36.2" height="36.2"/>
	
		<ellipse transform="matrix(0.9239 -0.3827 0.3827 0.9239 1442.6219 -76.8641)" class="st2" cx="528.1" cy="-3664.7" rx="18.1" ry="18.1"/>
	
		<rect x="380.6" y="-3691.3" transform="matrix(0.8439 -0.5366 0.5366 0.8439 2033.6211 -360.439)" class="st26" width="33.8" height="33.8"/>
	<circle class="st2" cx="397.6" cy="-3674.3" r="16.9"/>
	<rect x="915.4" y="-3678.8" class="st26" width="39.2" height="39.2"/>
	<circle class="st2" cx="935" cy="-3659.2" r="19.6"/>
	<rect x="712.5" y="-3660.8" class="st26" width="46.8" height="46.8"/>
	<circle class="st2" cx="735.9" cy="-3637.4" r="23.4"/>
	<rect x="194.7" y="-3650.8" class="st26" width="46" height="46"/>
	<circle class="st2" cx="217.7" cy="-3627.8" r="23"/>
	<rect x="327.3" y="-3600.8" class="st26" width="23.9" height="23.9"/>
	<circle class="st2" cx="339.3" cy="-3588.8" r="12"/>
	<rect x="340.9" y="-3567" class="st26" width="44.9" height="44.9"/>
	<circle class="st2" cx="363.4" cy="-3544.6" r="22.5"/>
	<rect x="403.3" y="-3516.3" class="st26" width="28.6" height="28.6"/>
	<circle class="st2" cx="417.6" cy="-3502" r="14.3"/>
	<rect x="440" y="-3693.7" class="st26" width="75.3" height="75.3"/>
	
		<ellipse transform="matrix(0.1602 -0.9871 0.9871 0.1602 4009.8948 -2598.9458)" class="st2" cx="477.6" cy="-3656" rx="37.7" ry="37.7"/>
	<rect x="657.2" y="-3611.8" class="st26" width="39.2" height="39.2"/>
	<circle class="st2" cx="676.8" cy="-3592.2" r="19.6"/>
	<rect x="454.2" y="-3593.8" class="st26" width="46.8" height="46.8"/>
	<circle class="st2" cx="477.6" cy="-3570.4" r="23.4"/>
	<rect x="101.9" y="-3638.1" class="st26" width="23.9" height="23.9"/>
	<circle class="st2" cx="113.8" cy="-3626.1" r="12"/>
	<rect x="115.4" y="-3604.4" class="st26" width="44.9" height="44.9"/>
	<circle class="st2" cx="137.9" cy="-3581.9" r="22.5"/>
	<rect x="177.8" y="-3553.6" class="st26" width="28.6" height="28.6"/>
	<circle class="st2" cx="192.1" cy="-3539.3" r="14.3"/>
	
		<rect x="90" y="-3619.2" transform="matrix(0.8617 -0.5074 0.5074 0.8617 1830.5261 -422.8145)" class="st26" width="99.2" height="99.2"/>
	
		<ellipse transform="matrix(0.997 -7.726294e-02 7.726294e-02 0.997 276.216 0.1178)" class="st6" cx="139.6" cy="-3569.6" rx="49.6" ry="49.6"/>
	
		<rect x="250.5" y="-3584.3" transform="matrix(0.8617 -0.5074 0.5074 0.8617 1843.038 -350.5932)" class="st26" width="55.7" height="55.7"/>
	<circle class="st6" cx="278.4" cy="-3556.5" r="27.9"/>
	<rect x="108.2" y="-3645.6" class="st26" width="68.8" height="68.8"/>
	
		<ellipse transform="matrix(0.9998 -2.204107e-02 2.204107e-02 0.9998 79.63 2.2659)" class="st6" cx="142.6" cy="-3611.2" rx="34.4" ry="34.4"/>
	<rect x="182.1" y="-3663.7" class="st26" width="52.5" height="52.5"/>
	<circle class="st6" cx="208.3" cy="-3637.5" r="26.2"/>
	<rect x="341.3" y="-3543.7" class="st26" width="44.3" height="44.3"/>
	<circle class="st6" cx="363.4" cy="-3521.6" r="22.1"/>
	<rect x="227.7" y="-3560.2" class="st26" width="43.7" height="43.7"/>
	<circle class="st6" cx="249.5" cy="-3538.3" r="21.8"/>
	<rect x="312.9" y="-3650.6" class="st26" width="39.2" height="39.2"/>
	<circle class="st2" cx="332.5" cy="-3631" r="19.6"/>
	<rect x="109.9" y="-3632.6" class="st26" width="46.8" height="46.8"/>
	
		<ellipse transform="matrix(6.652058e-02 -0.9978 0.9978 6.652058e-02 3725.6721 -3235.9883)" class="st2" cx="133.4" cy="-3609.2" rx="23.4" ry="23.4"/>
	<circle class="st6" cx="64.8" cy="-3377.9" r="63.2"/>
	<circle class="st6" cx="154.9" cy="-3409.7" r="53.3"/>
	<ellipse class="st6" cx="175.8" cy="-3266.4" rx="38.5" ry="38.5"/>
	<ellipse class="st6" cx="39.2" cy="-3228.3" rx="35" ry="35"/>
	
		<ellipse transform="matrix(0.3162 -0.9487 0.9487 0.3162 4039.0059 -1375.2693)" class="st6" cx="1065.4" cy="-3489.6" rx="62.8" ry="62.8"/>
	<circle class="st6" cx="71.4" cy="-3587.1" r="62.8"/>
	<circle class="st6" cx="1092.8" cy="-3572.6" r="35.4"/>
	<circle class="st6" cx="826.6" cy="-3564.6" r="27.4"/>
	
		<ellipse transform="matrix(0.997 -7.729355e-02 7.729355e-02 0.997 260.5086 -0.1896)" class="st2" cx="127.8" cy="-3365.4" rx="35.4" ry="35.4"/>
	<circle class="st2" cx="109" cy="-3286.1" r="19"/>
	<circle class="st2" cx="218.8" cy="-3436.7" r="18.3"/>
	<circle class="st2" cx="758.8" cy="-3618" r="51.8"/>
	<circle class="st2" cx="826.6" cy="-3582.2" r="17.5"/>
	<circle class="st2" cx="710.5" cy="-3626.7" r="15.6"/>
	<circle class="st2" cx="167.8" cy="-3474.1" r="38.5"/>
	<ellipse class="st2" cx="-4.4" cy="-3476.5" rx="38.5" ry="38.5"/>
	
		<ellipse transform="matrix(0.3162 -0.9487 0.9487 0.3162 4052.1477 -1503.2354)" class="st6" cx="983.2" cy="-3562.7" rx="43" ry="43"/>
	<circle class="st2" cx="1043" cy="-3495.3" r="24.4"/>
	<circle class="st2" cx="977.1" cy="-3606.9" r="31.6"/>
</g>
<g id="Layer_12_9_">
	<circle class="st2" cx="981.4" cy="-3967.9" r="24.2"/>
</g>
<g id="Layer_12_10_">
	<circle class="st2" cx="1077.5" cy="-4035.4" r="18.4"/>
</g>
<g id="Layer_12_11_">
	<circle class="st2" cx="1084" cy="-4097.9" r="24.7"/>
</g>
<g id="Layer_12_12_">
	<circle class="st2" cx="968.3" cy="-4005.8" r="11.4"/>
</g>
<g id="Layer_12_13_">
	<circle class="st2" cx="1142" cy="-3997.2" r="20.3"/>
</g>
<g id="Layer_12_14_">
	<circle class="st6" cx="816.9" cy="-4026.8" r="15.7"/>
</g>
<g id="Layer_12_4_">
	<circle class="st2" cx="62.6" cy="-3927.8" r="20.6"/>
</g>
<g id="Layer_12_5_">
	
		<ellipse transform="matrix(5.097880e-03 -1 1 5.097880e-03 3933.6301 -3914.3555)" class="st2" cx="-0.4" cy="-3934" rx="13.1" ry="13.1"/>
</g>
<g id="Layer_12_6_">
	<circle class="st2" cx="190.7" cy="-3868.9" r="21"/>
</g>
<g id="Layer_12_7_">
	<circle class="st6" cx="286.1" cy="-4068.8" r="8.8"/>
</g>
<g id="Layer_12_8_">
	<circle class="st6" cx="149.4" cy="-3955.7" r="38.8"/>
</g>
<g id="background_details_8_">
	
		<linearGradient id="background_30_1_" gradientUnits="userSpaceOnUse" x1="-34.3832" y1="4904.1016" x2="-34.3832" y2="5301.5986" gradientTransform="matrix(0.84 0.104 0.104 -0.84 63.1325 202.1934)">
		<stop  offset="0" style="stop-color:#2E3192"/>
		<stop  offset="5.000000e-02" style="stop-color:#3550A2"/>
		<stop  offset="0.1" style="stop-color:#3C6FB2"/>
		<stop  offset="0.17" style="stop-color:#428BC0"/>
		<stop  offset="0.24" style="stop-color:#47A1CC"/>
		<stop  offset="0.33" style="stop-color:#4BB2D4"/>
		<stop  offset="0.44" style="stop-color:#4EBDDB"/>
		<stop  offset="0.58" style="stop-color:#50C4DE"/>
		<stop  offset="1" style="stop-color:#50C6DF"/>
	</linearGradient>
	<path id="background_30" class="st27" d="M1163.6-4141.4c-22.7-2.8-56.9,11.7-56.9,11.7c2.3-4.8,5.8-12.1,2.7-15
		c-2.2-2.1-10.6,2.9-16.7,6.1c15.1-10.3,24.3-20.7,21.8-25.3c-2.7-4.8-21.1,3.5-36.5,15.7c2.9-3.3,5.8-6.8,8.7-10.6
		c13.9-18.6,20.4-26.4,16.7-30.9c-2.5-3-19.8,7.5-34.3,25.6c1.7-10.5,0.3-18.7-4.2-20.3c-4.1-1.5-8.8,32.8-16.9,28.9
		c-138.6-66.9-263.8-68.7-353.2-28.6c-14-17.9-54.7-19.6-83.3-20c-16-0.3-27.9,12.5-36.4,22.6c0.7-11.4-2.9-21.5-9.7-26.9
		c0.9-1.7,2.1-3.3,3.3-4.8c2.1-2.4,4.6-4.4,7.4-5.9c1.8,5.3,7.5,8.2,12.8,6.5c5.3-1.8,8.2-7.5,6.5-12.8c-1.8-5.3-7.5-8.2-12.8-6.5
		c-3.7,1.2-6.4,4.5-6.9,8.4c-0.1,0.6-0.1,1.1-0.1,1.7c-7.1,0.8-13.7,4.2-18.4,9.7c-12.8-2.5-27.4,8.4-34.2,25.8l0,0
		c-1.7-2-7.6-8.8-14.6-8.1c-6,0.6-10.5,6.4-13.7,12.3c-4.1,0.3-12.1,1.2-13.8,5.8c-1.3,3.4,1.6,7.1,8.3,16
		c14.2,19,14.3,41.7,13.4,42.9c-5.4-13.5-15.6-30.8-19.5-24c-3.3,5.8-2.2,24.7,3.7,32.3c-10.4-5.6-23.7-8.1-7.3,11
		c-6.9-3.1-51.1-16.1-62.6-12c-6,2.2-11.4,5.9-15.5,10.8c-8.2-0.7-16.5-0.4-24.6,1c-10,1.7-19.6,5-28.5,9.7
		c-21.5,0.5-42,9.3-57.1,24.7c-17.6-4.6-36.4-1.4-51.4,8.9c-18.1-5.2-24.7-102.8-42.7-108c-4.3-12.1-14.1-21.2-26-23.7
		c-14.8-3-28.5,5.2-35.8,13.7c-15.6-5.2-39-2.5-54.6,15.8c-12.2-36.1-70.9-48.6-94.3-50.3l-11.8,216.7l1156.1,126.1 M544.2-4192.4
		c-1.7,3.2-4.2,5.1-5.7,4.4c-1.4-0.8-1.3-4,0.3-7.2c1.7-3.2,4.2-5.1,5.7-4.4C545.9-4198.7,545.8-4195.6,544.2-4192.4z M559.6-4187.2
		c-1.7,3.2-4.2,5.1-5.7,4.4c-1.5-0.8-1.3-4,0.3-7.2c1.7-3.2,4.2-5.1,5.7-4.4C561.5-4193.6,561.3-4190.4,559.6-4187.2L559.6-4187.2z"
		/>
</g>
<g id="background_details_9_">
	
		<linearGradient id="SVGID_15_" gradientUnits="userSpaceOnUse" x1="527.2938" y1="4515.6685" x2="527.2938" y2="5026.6636" gradientTransform="matrix(0.8464 0 0 -0.8464 72.5985 18.0554)">
		<stop  offset="0" style="stop-color:#2E3192"/>
		<stop  offset="0.15" style="stop-color:#32419B"/>
		<stop  offset="0.46" style="stop-color:#3C6DB1"/>
		<stop  offset="0.88" style="stop-color:#4BB1D4"/>
		<stop  offset="1" style="stop-color:#50C6DF"/>
	</linearGradient>
	<path class="st28" d="M1156.8-4147.6c0,0-46.6-74.5-201.4-47.4c-7.2,1.3-46,11.2-79.7,21.9c-22.3-7-30.3-2.4-30.3-2.4
		c6.1-24.8,0-34.7-4.4-35.3c-4.8-0.6-10.4,4.9-14.8,14.6c-2.2-23-8.4-40.7-14.6-40.3c-6.7,0.4-10.7,21.5-9.1,47.1
		c0.3,4.8,0.8,9.4,1.4,13.7c-10.2-16.8-21-27.4-25.9-24.9c-4.7,2.4-2.7,16.1,4.2,33l0,0c-6.4-4-11.4-5.5-13.7-3.4
		c-1.3,1.2-1.6,3.4-1,6.3c-28.9-4.3-86.6-9.8-140.6,34.8c-24.5,20.3-35.5,22-45.3,28.1c-1.5-0.6-3.1-1.1-4.6-1.5
		c-11.1-2.8-22.6,0.7-27.4,4.2c-15.5-3-30.1,28.4-136.8,28.4c-75.3,0-93.9-63.5-127.1-71.1c3.6-3.4,4.6-8.8,4-9.2
		c-2-1.6-6.9-0.1-13.3,3.7c7.9-14.7,10.9-26.4,6.7-28.2c-4.5-1.9-15.5,7.7-26.6,22.4c0.9-3.7,1.8-7.6,2.4-11.6
		c3.6-21.7,1.4-39.3-4.9-39.3c-5.8,0-13.2,15.2-17.1,34.8c-3.3-8-8.3-12.8-12.8-11.6c-2.9,0.8-1,7.8,0.2,14.5
		c-7.1-17-35.5-46.5-58.7-46.5c-32.3,0-15.1,47.7-71.9,72.8c-37.8,16.7-56.5,0.5-56.5,0.5c-4-8.2-9-13.1-13.3-12.1
		c-4.7,1.1-7.1,9.1-6.7,19.7c-12.2-19.7-25.6-32.7-30.9-29.6c-5.8,3.3-0.1,24,12.8,46.2c2.4,4.1,4.9,8.1,7.3,11.6
		c-16.6-10.5-31-15.2-34.3-10.8c-3.1,4.2,4.7,15.6,18.4,27.7l0,0c-7.5-0.8-12.6,0.2-13.8,3c-0.8,2,0.4,4.6,3.1,7.6
		c-18.2,17.5-56.4,70.7-77.7,82.9c-8.3,4.7-14.5-2.3-17.5-2.2v122.6l-4.3,68.9l1277.2-10.2l-3.4-79.1"/>
</g>
<g id="SVGgroupcirc_3_">
	
		<rect x="195.4" y="-3956.4" transform="matrix(0.8439 -0.5366 0.5366 0.8439 2145.3281 -498.2837)" class="st26" width="42.3" height="42.3"/>
	
		<rect x="92" y="-3916.5" transform="matrix(0.8439 -0.5366 0.5366 0.8439 2111.6448 -554.5576)" class="st26" width="22" height="22"/>
	<circle class="st2" cx="103" cy="-3905.4" r="11"/>
	
		<rect x="41.9" y="-3948.6" transform="matrix(0.8439 -0.5366 0.5366 0.8439 2117.3955 -579.7712)" class="st26" width="41.2" height="41.2"/>
	
		<rect x="-13.5" y="-3947.4" transform="matrix(0.8439 -0.5366 0.5366 0.8439 2110.9199 -614.5154)" class="st26" width="26.3" height="26.3"/>
	
		<rect x="145.9" y="-3929.4" transform="matrix(0.8439 -0.5366 0.5366 0.8439 2125.2434 -524.4589)" class="st26" width="31.3" height="31.3"/>
	<circle class="st2" cx="161.6" cy="-3913.7" r="15.6"/>
	
		<rect x="110.9" y="-3939.7" transform="matrix(0.8439 -0.5366 0.5366 0.8439 2127.2358 -548.3387)" class="st26" width="21.2" height="21.2"/>
	
		<ellipse transform="matrix(6.652044e-02 -0.9978 0.9978 6.652044e-02 4033.8628 -3546.3684)" class="st2" cx="121.6" cy="-3929.1" rx="10.6" ry="10.6"/>
	
		<rect x="25.8" y="-3919.3" transform="matrix(0.8439 -0.5366 0.5366 0.8439 2103.5608 -591.9194)" class="st26" width="18" height="18"/>
	<circle class="st2" cx="34.8" cy="-3910.1" r="9"/>
	
		<rect x="177.7" y="-3957.4" transform="matrix(0.8439 -0.5366 0.5366 0.8439 2147.7263 -516.3589)" class="st26" width="18" height="18"/>
	<circle class="st2" cx="186.7" cy="-3948.2" r="9"/>
	<g class="st8">
		
			<rect x="169.7" y="-3890.1" transform="matrix(0.8439 -0.5366 0.5366 0.8439 2105.7764 -501.7887)" class="st26" width="42.1" height="42.1"/>
		
			<rect x="100.2" y="-3926.9" transform="matrix(0.8439 -0.5366 0.5366 0.8439 2112.1487 -540.1764)" class="st26" width="55.6" height="55.6"/>
		<circle class="st2" cx="128" cy="-3899.1" r="27.8"/>
		
			<rect x="34.3" y="-3919.5" transform="matrix(0.8439 -0.5366 0.5366 0.8439 2102.4788 -582.765)" class="st26" width="31.3" height="31.3"/>
		<circle class="st2" cx="50" cy="-3903.7" r="15.6"/>
	</g>
	<g class="st8">
		
			<rect x="165.7" y="-3934.3" transform="matrix(0.8439 -0.5366 0.5366 0.8439 2127.9807 -509.2173)" class="st26" width="46.8" height="46.8"/>
		<circle class="st2" cx="189.1" cy="-3910.7" r="23.4"/>
	</g>
	
		<rect x="57.5" y="-3903.8" transform="matrix(0.8439 -0.5366 0.5366 0.8439 2099.9131 -571.9472)" class="st26" width="19.5" height="19.5"/>
	
		<ellipse transform="matrix(0.9999 -1.020246e-02 1.020246e-02 0.9999 39.732 0.484)" class="st2" cx="67.3" cy="-3894" rx="9.7" ry="9.7"/>
	
		<rect x="105.4" y="-3916.6" transform="matrix(0.8439 -0.5366 0.5366 0.8439 2112.7275 -545.448)" class="st26" width="27.6" height="27.6"/>
	<circle class="st2" cx="119.2" cy="-3902.7" r="13.8"/>
	
		<rect x="234.3" y="-3980.8" transform="matrix(0.8439 -0.5366 0.5366 0.8439 2166.5498 -484.8898)" class="st26" width="31.6" height="31.6"/>
	
		<ellipse transform="matrix(3.327953e-02 -0.9994 0.9994 3.327953e-02 4204.5239 -3582.6477)" class="st2" cx="250.3" cy="-3964.8" rx="15.8" ry="15.8"/>
	<g class="st8">
		
			<rect x="239.9" y="-4006" transform="matrix(0.8439 -0.5366 0.5366 0.8439 2176.5474 -477.8956)" class="st26" width="54.6" height="54.6"/>
		
			<ellipse transform="matrix(6.652060e-02 -0.9978 0.9978 6.652060e-02 4219.2563 -3447.1892)" class="st2" cx="267.3" cy="-3978.6" rx="27.3" ry="27.3"/>
		
			<rect x="213.6" y="-3953.9" transform="matrix(0.8439 -0.5366 0.5366 0.8439 2146.981 -488.361)" class="st26" width="41.6" height="41.6"/>
		
			<ellipse transform="matrix(3.327951e-02 -0.9994 0.9994 3.327951e-02 4157.4668 -3567.6997)" class="st2" cx="234.5" cy="-3933" rx="20.8" ry="20.8"/>
		
			<rect x="144.1" y="-3963.8" transform="matrix(0.8439 -0.5366 0.5366 0.8439 2144.3633 -532.5338)" class="st26" width="26.2" height="26.2"/>
		<circle class="st2" cx="157.2" cy="-3950.6" r="13.1"/>
		
			<rect x="63.7" y="-3962.2" transform="matrix(0.8439 -0.5366 0.5366 0.8439 2129.259 -572.3444)" class="st26" width="35.1" height="35.1"/>
		<circle class="st2" cx="81.3" cy="-3944.5" r="17.6"/>
		
			<rect x="6.5" y="-3923.1" transform="matrix(0.8439 -0.5366 0.5366 0.8439 2101.1091 -600.158)" class="st26" width="25.8" height="25.8"/>
		
			<ellipse transform="matrix(0.9994 -3.398848e-02 3.398848e-02 0.9994 132.9091 -1.5964)" class="st2" cx="19.5" cy="-3910.1" rx="12.9" ry="12.9"/>
		
			<rect x="6.7" y="-3959.3" transform="matrix(0.8439 -0.5366 0.5366 0.8439 2118.8992 -602.6553)" class="st26" width="34.6" height="34.6"/>
		
			<ellipse transform="matrix(1 -4.950261e-03 4.950261e-03 1 19.5138 7.050890e-02)" class="st2" cx="24" cy="-3941.9" rx="17.3" ry="17.3"/>
		
			<rect x="178.4" y="-3985.1" transform="matrix(0.8439 -0.5366 0.5366 0.8439 2159.5454 -514.5447)" class="st26" width="34.6" height="34.6"/>
		
			<ellipse transform="matrix(0.1602 -0.9871 0.9871 0.1602 4080.9338 -3138.8662)" class="st2" cx="195.8" cy="-3967.8" rx="17.3" ry="17.3"/>
	</g>
	<circle class="st6" cx="233.1" cy="-4027.4" r="16.8"/>
	<circle class="st6" cx="337.5" cy="-4044.9" r="4.6"/>
	
		<ellipse transform="matrix(9.089402e-03 -1 1 9.089402e-03 3911.8879 -3808.5222)" class="st2" cx="34.3" cy="-3878.1" rx="38.8" ry="38.8"/>
</g>
<g id="SVGgroupcirc_4_">
	
		<rect x="1121.5" y="-4067.1" transform="matrix(9.463193e-02 -0.9955 0.9955 9.463193e-02 5062.0229 -2518.657)" class="st26" width="49.6" height="49.6"/>
	<circle class="st2" cx="1146.3" cy="-4042.3" r="24.8"/>
	
		<rect x="998.9" y="-4025.8" transform="matrix(9.463193e-02 -0.9955 0.9955 9.463193e-02 4910.8735 -2625.8752)" class="st26" width="25.8" height="25.8"/>
	
		<ellipse transform="matrix(0.1602 -0.9871 0.9871 0.1602 4810.8164 -2371.374)" class="st2" cx="1011.8" cy="-4012.9" rx="12.9" ry="12.9"/>
	
		<rect x="957.2" y="-3992" transform="matrix(9.463193e-02 -0.9955 0.9955 9.463193e-02 4838.5898 -2615.3225)" class="st26" width="48.4" height="48.4"/>
	
		<rect x="903.6" y="-3943" transform="matrix(9.463193e-02 -0.9955 0.9955 9.463193e-02 4741.9717 -2641.0845)" class="st26" width="30.8" height="30.8"/>
	<circle class="st2" cx="918.9" cy="-3927.7" r="15.4"/>
	
		<rect x="1059.1" y="-4053.8" transform="matrix(9.463193e-02 -0.9955 0.9955 9.463193e-02 4992.7891 -2580.9346)" class="st26" width="36.7" height="36.7"/>
	
		<rect x="1031.3" y="-4010.3" transform="matrix(9.463193e-02 -0.9955 0.9955 9.463193e-02 4924.9014 -2580.593)" class="st26" width="24.8" height="24.8"/>
	<circle class="st2" cx="1043.7" cy="-3997.9" r="12.4"/>
	
		<rect x="932.4" y="-3982.1" transform="matrix(9.463193e-02 -0.9955 0.9955 9.463193e-02 4807.373 -2656.9863)" class="st26" width="21.1" height="21.1"/>
	<circle class="st2" cx="942.9" cy="-3971.5" r="10.5"/>
	
		<rect x="1111.6" y="-4023.2" transform="matrix(9.463193e-02 -0.9955 0.9955 9.463193e-02 5010.5947 -2515.791)" class="st26" width="21.1" height="21.1"/>
	<circle class="st2" cx="1122.1" cy="-4012.7" r="10.5"/>
	<g class="st8">
		
			<rect x="1059.5" y="-4122.5" transform="matrix(9.463193e-02 -0.9955 0.9955 9.463193e-02 5060.9902 -2630.7461)" class="st26" width="49.4" height="49.4"/>
		
			<rect x="1001.9" y="-4065.4" transform="matrix(9.463193e-02 -0.9955 0.9955 9.463193e-02 4951.3564 -2621.2539)" class="st26" width="65.3" height="65.3"/>
		
			<ellipse transform="matrix(0.7071 -0.7071 0.7071 0.7071 3154.7136 -449.7147)" class="st2" cx="1034.5" cy="-4032.9" rx="32.7" ry="32.7"/>
		
			<rect x="937" y="-4004.6" transform="matrix(9.463193e-02 -0.9955 0.9955 9.463193e-02 4833.3584 -2657.9849)" class="st26" width="36.7" height="36.7"/>
		<circle class="st2" cx="955.4" cy="-3986.3" r="18.3"/>
	</g>
	<g class="st8">
		
			<rect x="1077.1" y="-4080.7" transform="matrix(9.463193e-02 -0.9955 0.9955 9.463193e-02 5035.1377 -2570.0542)" class="st26" width="54.9" height="54.9"/>
		<circle class="st2" cx="1104.6" cy="-4053.2" r="27.5"/>
	</g>
	
		<rect x="875.9" y="-3922.2" transform="matrix(9.463193e-02 -0.9955 0.9955 9.463193e-02 4696.6143 -2657.6953)" class="st26" width="22.5" height="22.5"/>
	<circle class="st2" cx="887.1" cy="-3910.9" r="11.2"/>
	
		<rect x="956.9" y="-4017.2" transform="matrix(9.463193e-02 -0.9955 0.9955 9.463193e-02 4864.4736 -2662.7166)" class="st26" width="22.9" height="22.9"/>
	
		<rect x="1011.2" y="-4040.6" transform="matrix(9.463193e-02 -0.9955 0.9955 9.463193e-02 4936.4966 -2620.7458)" class="st26" width="32.5" height="32.5"/>
	
		<ellipse transform="matrix(0.7071 -0.7071 0.7071 0.7071 3146.594 -452.316)" class="st2" cx="1027.3" cy="-4024.4" rx="16.2" ry="16.2"/>
	<g class="st8">
		
			<rect x="1139.5" y="-4078.6" transform="matrix(9.463193e-02 -0.9955 0.9955 9.463193e-02 5089.6948 -2511.7656)" class="st26" width="48.9" height="48.9"/>
		<circle class="st2" cx="1163.9" cy="-4054.1" r="24.4"/>
		
			<rect x="1077.2" y="-4010" transform="matrix(9.463193e-02 -0.9955 0.9955 9.463193e-02 4965.9219 -2528.8438)" class="st26" width="30.8" height="30.8"/>
		<circle class="st2" cx="1092.6" cy="-3994.5" r="15.4"/>
		
			<rect x="989.3" y="-3980.9" transform="matrix(9.463193e-02 -0.9955 0.9955 9.463193e-02 4856.8735 -2580.1855)" class="st26" width="41.2" height="41.2"/>
		<circle class="st2" cx="1009.9" cy="-3960.3" r="20.6"/>
		
			<rect x="911.7" y="-3978.6" transform="matrix(9.463193e-02 -0.9955 0.9955 9.463193e-02 4784.7988 -2665.5457)" class="st26" width="30.4" height="30.4"/>
		<circle class="st2" cx="926.9" cy="-3963.4" r="15.2"/>
		
			<rect x="928.2" y="-3952.9" transform="matrix(9.463193e-02 -0.9955 0.9955 9.463193e-02 4773.7246 -2616.1292)" class="st26" width="40.7" height="40.7"/>
		<circle class="st2" cx="948.6" cy="-3932.6" r="20.3"/>
		
			<rect x="1121.7" y="-4017.5" transform="matrix(9.463193e-02 -0.9955 0.9955 9.463193e-02 5013.2197 -2481.9673)" class="st26" width="40.7" height="40.7"/>
	</g>
	
		<ellipse transform="matrix(0.7071 -0.7071 0.7071 0.7071 3093.7014 -393.8652)" class="st6" cx="1071.4" cy="-3931.4" rx="72.2" ry="72.2"/>
	<circle class="st6" cx="864.6" cy="-3955" r="44.9"/>
</g>
<g id="background_details_10_">
	<path id="highlight" class="st9" d="M122.3-4267.9c0,26.1-21.1,47.2-47.2,47.2c-6.6,0-13.1-1.4-19.2-4.1
		c-2.6,10.9-13.5,17.6-24.3,15s-17.6-13.5-15-24.3c1.8-7.5,7.7-13.3,15.2-15c-10.3-23.9,0.7-51.7,24.6-62.1s51.7,0.7,62.1,24.6
		C121-4280.7,122.3-4274.3,122.3-4267.9L122.3-4267.9z"/>
</g>
<g id="background_details_11_">
	
		<linearGradient id="SVGID_16_" gradientUnits="userSpaceOnUse" x1="621.9877" y1="-4069.9888" x2="621.9877" y2="-3531.1091" gradientTransform="matrix(0.8464 0 0 -0.8464 72.5985 18.0554)">
		<stop  offset="0" style="stop-color:#50C6DF;stop-opacity:0.5"/>
		<stop  offset="0.44" style="stop-color:#50C6DF;stop-opacity:0.51"/>
		<stop  offset="0.6" style="stop-color:#50C6DF;stop-opacity:0.54"/>
		<stop  offset="0.71" style="stop-color:#50C6DF;stop-opacity:0.59"/>
		<stop  offset="0.8" style="stop-color:#50C6DF;stop-opacity:0.67"/>
		<stop  offset="0.88" style="stop-color:#50C6DF;stop-opacity:0.77"/>
		<stop  offset="0.95" style="stop-color:#50C6DF;stop-opacity:0.89"/>
		<stop  offset="1" style="stop-color:#50C6DF"/>
	</linearGradient>
	<path class="st29" d="M998.7,3462.9c59.4-351.2-163.8-426.3-264-411.9c-2.1,0.3-4.2,0.6-6.3,1c3.1-4.7,4.3-8.5,3-9.8
		c-1.4-1.3-5.4,0.2-10.4,3.7c7.7-19.1,10.4-35.5,6-37.5c-4.2-1.8-13.3,9.9-21.4,26.9c3.4-14.4,3.2-26.1-0.5-27.2
		c-4.1-1.1-11.1,11.3-15.6,27.7c-0.8,2.8-1.4,5.6-1.9,8.2c-1.1-8-3.2-13.5-5.6-13.5c-2.2,0-4,4.7-4.9,11.5c-2.9-0.4-5.9-0.6-8.8-0.6
		c-0.3,0-0.5,0-0.8,0c-2.7-13.3-7.1-22.9-10.8-22.4c-3.6,0.5-5.3,11.1-4.1,24.7c-5.2,1.4-10.2,3.3-15,5.7c0.1-4.2-0.1-8.4-0.4-12.6
		c-1.5-16.9-6.2-30.4-10.4-30c-4.3,0.4-6.5,14.4-5,31.3c0.3,2.9,0.6,5.7,1,8.4c-3.8-7.2-7.7-11.6-10-10.7c-3.1,1.2-1.7,12.1,3,24.3
		c0.3,0.8,0.6,1.5,0.9,2.2c-0.7-1-1.4-2-2.2-3c-8.5-11.5-17.6-19.7-22.3-20.5c-1.5-1.1-2.8-1.5-3.7-1.1c-3.1,1.6-0.6,13,5.7,25.5
		c1.1,2.2,2.2,4.2,3.3,6.1c-5.1-4.3-9.4-6.5-10.9-5.2c-2,1.8,2.4,9.7,9.7,17.7c0.2,0.3,0.5,0.5,0.7,0.7c-1.1,1.4-2.3,2.8-3.4,4.2
		l-0.2,0.2c-1.6-1.5-3.3-3-5.1-4.6c-10.7-9-21.3-14.1-23.5-11.4c-2.3,2.7,4.6,12.2,15.4,21.2c2.2,1.8,4.3,3.5,6.4,4.9
		c-1,1.7-2,3.3-2.9,5c-2.6-3.9-9-9.3-17-14.2c-11.9-7.3-23.1-10.9-24.9-7.9c-1.8,3,6.3,11.4,18.2,18.7c2,1.3,4.1,2.4,6,3.4
		c-6.6-1-11.5-0.6-12,1.3c-0.7,2.6,7.1,7.1,17.5,9.9l-0.7,0.5h-0.4c-14-0.1-25.3,2.7-25.4,6.2c0,2,3.8,3.9,9.8,5.1
		c-29.9,22.3-165.7,196.1-365.3,227.3L998.7,3462.9z"/>
</g>
<g id="background_details_12_">
	
		<linearGradient id="SVGID_17_" gradientUnits="userSpaceOnUse" x1="569.9182" y1="-4283.9531" x2="569.9182" y2="-3588.6555" gradientTransform="matrix(0.8464 0 0 -0.8464 72.5985 18.0554)">
		<stop  offset="0" style="stop-color:#50C6DF"/>
		<stop  offset="1.000000e-02" style="stop-color:#50C4DE"/>
		<stop  offset="0.25" style="stop-color:#4490C3"/>
		<stop  offset="0.48" style="stop-color:#3A67AE"/>
		<stop  offset="0.69" style="stop-color:#34499F"/>
		<stop  offset="0.87" style="stop-color:#2F3795"/>
		<stop  offset="1" style="stop-color:#2E3192"/>
	</linearGradient>
	<path class="st30" d="M1117.2,3318.9c-25.5-53.8-179.1-12.7-236.1-29.7c-45.9-13.6-126.2-70.5-172.2-83.8
		c-18.6-5.4-45-7.7-73.4-9.3c7.2-7.3,11-13.8,9.1-16.2c-2.6-3.2-14.7,2.2-27,12.1c-1.2,1-2.4,2-3.6,3c-8.5-0.4-17.1-0.8-25.6-1.2
		c4.4-5.2,8.2-10.9,11.3-17c7.3-14,10.2-27,6.5-28.9c-3.6-1.9-12.6,7.9-19.8,22c-4.8,9.2-7.7,17.9-8.1,23.4
		c-6.2-0.3-12.3-0.7-18.2-1.2c2.6-6,4.4-12.3,5.6-18.8c2.9-15.5,2-28.8-2.1-29.5c-4.1-0.8-9.7,11.2-12.7,26.8
		c-1.4,6.8-1.9,13.7-1.5,20.6c-9.3-0.8-18.1-1.9-26.3-3.1c-0.7-5.3-1.9-10.6-3.6-15.7c-4.7-15.1-11.8-26.3-15.7-25.1
		c-4,1.2-3.3,14.5,1.4,29.6c0.9,2.9,1.9,5.7,3,8.3c-4.2-1-8.4-2.1-12.5-3.5c-48.4-16.6-125.7-91.6-174.4-107.4
		c-76.7-24.9-317.1,53.3-330-18.8L-11,3644c0,0,465.4-21.3,570.8-49.4c54.3-14.5,168.3-101.3,223.2-89.1c147,32.8,209.1,4.4,217.1,0
		C1048.1,3478.9,1140.7,3368.7,1117.2,3318.9z"/>
</g>
<g id="background_details_13_">
	
		<linearGradient id="SVGID_18_" gradientUnits="userSpaceOnUse" x1="785.0311" y1="-4410.1353" x2="785.0311" y2="-3871.2554" gradientTransform="matrix(0.8464 0 0 -0.8464 72.5985 18.0554)">
		<stop  offset="0" style="stop-color:#50C6DF;stop-opacity:0.5"/>
		<stop  offset="0.44" style="stop-color:#50C6DF;stop-opacity:0.51"/>
		<stop  offset="0.6" style="stop-color:#50C6DF;stop-opacity:0.54"/>
		<stop  offset="0.71" style="stop-color:#50C6DF;stop-opacity:0.59"/>
		<stop  offset="0.8" style="stop-color:#50C6DF;stop-opacity:0.67"/>
		<stop  offset="0.88" style="stop-color:#50C6DF;stop-opacity:0.77"/>
		<stop  offset="0.95" style="stop-color:#50C6DF;stop-opacity:0.89"/>
		<stop  offset="1" style="stop-color:#50C6DF"/>
	</linearGradient>
	<path class="st31" d="M1136.7,3750.8c59.4-351.2-163.8-426.3-264-411.9c-2.1,0.3-4.2,0.6-6.3,1c3.1-4.7,4.3-8.5,3-9.8
		c-1.4-1.3-5.4,0.2-10.4,3.7c7.7-19.1,10.4-35.5,6-37.5c-4.2-1.8-13.3,9.9-21.4,26.9c3.4-14.4,3.2-26.1-0.5-27.2
		c-4.1-1.1-11.1,11.3-15.6,27.7c-0.8,2.8-1.4,5.6-1.9,8.2c-1.1-8-3.2-13.5-5.6-13.5c-2.2,0-4,4.7-4.9,11.5c-2.9-0.4-5.9-0.6-8.8-0.6
		c-0.3,0-0.5,0-0.8,0c-2.7-13.3-7.1-22.9-10.8-22.4c-3.6,0.5-5.3,11.1-4.1,24.7c-5.2,1.4-10.2,3.3-15,5.7c0.1-4.2-0.1-8.4-0.4-12.6
		c-1.5-16.9-6.2-30.4-10.4-30c-4.3,0.4-6.5,14.4-5,31.3c0.3,2.9,0.6,5.7,1,8.4c-3.8-7.2-7.7-11.6-10-10.7c-3.1,1.2-1.7,12.1,3,24.3
		c0.3,0.8,0.6,1.5,0.9,2.2c-0.7-1-1.4-2-2.2-3c-8.5-11.5-17.6-19.7-22.3-20.5c-1.5-1.1-2.8-1.5-3.7-1.1c-3.1,1.6-0.6,13,5.7,25.5
		c1.1,2.2,2.2,4.2,3.3,6.1c-5.1-4.3-9.4-6.5-10.9-5.2c-2,1.8,2.4,9.7,9.7,17.7c0.2,0.3,0.5,0.5,0.7,0.7c-1.1,1.4-2.3,2.8-3.4,4.2
		l-0.2,0.2c-1.6-1.5-3.3-3-5.1-4.6c-10.7-9-21.3-14.1-23.5-11.4c-2.3,2.7,4.6,12.2,15.4,21.2c2.2,1.8,4.3,3.5,6.4,4.9
		c-1,1.7-2,3.3-2.9,5c-2.6-3.9-9-9.3-17-14.2c-11.9-7.3-23.1-10.9-24.9-7.9c-1.8,3,6.3,11.4,18.2,18.7c2,1.3,4.1,2.4,6,3.4
		c-6.6-1-11.5-0.6-12,1.3c-0.7,2.6,7.1,7.1,17.5,9.9l-0.7,0.5h-0.4c-14-0.1-25.3,2.7-25.4,6.2c0,2,3.8,3.9,9.8,5.1
		c-29.9,22.3-165.7,196.1-365.3,227.3L1136.7,3750.8z"/>
</g>
</svg>
