<?xml version="1.0" encoding="utf-8"?>
<!-- Generator: Adobe Illustrator 22.0.1, SVG Export Plug-In . SVG Version: 6.00 Build 0)  -->
<svg version="1.1" id="Layer_1" xmlns="http://www.w3.org/2000/svg" xmlns:xlink="http://www.w3.org/1999/xlink" x="0px" y="0px"
	 viewBox="0 0 1160.9 2146.1" style="enable-background:new 0 0 1160.9 2146.1;" xml:space="preserve">
<style type="text/css">
	.st0{fill:#50C6DF;}
	.st1{opacity:0.5;fill:#50C6DF;enable-background:new    ;}
	.st2{fill:#2E3192;}
	.st3{clip-path:url(#SVGID_2_);}
	.st4{fill:url(#SVGID_3_);}
	.st5{fill:url(#SVGID_4_);}
	.st6{opacity:0.5;fill:#2E3192;enable-background:new    ;}
	.st7{opacity:0.5;fill:url(#SVGID_5_);enable-background:new    ;}
	.st8{opacity:0.3;}
	.st9{fill:#FEF8C0;}
	.st10{fill:#FFE381;}
	.st11{fill:#F78D36;}
	.st12{opacity:0.75;fill:#2E3192;enable-background:new    ;}
	.st13{opacity:0.5;fill:url(#SVGID_6_);enable-background:new    ;}
	.st14{opacity:0.5;fill:url(#SVGID_7_);enable-background:new    ;}
	.st15{fill:url(#SVGID_8_);stroke:#FFE381;stroke-width:2.7;stroke-miterlimit:10;}
	.st16{clip-path:url(#SVGID_10_);}
	.st17{fill:url(#SVGID_11_);}
	.st18{opacity:0.5;fill:#F78D36;enable-background:new    ;}
	.st19{opacity:0.5;fill:#FFE381;enable-background:new    ;}
	.st20{opacity:0.85;fill:url(#SVGID_12_);enable-background:new    ;}
	.st21{fill:url(#SVGID_13_);}
	.st22{fill:url(#SVGID_14_);}
	.st23{opacity:0.25;fill:#FEF8C0;enable-background:new    ;}
	.st24{opacity:0.75;fill:#FEF8C0;enable-background:new    ;}
	.st25{opacity:0.5;fill:#FEF8C0;enable-background:new    ;}
	.st26{fill:none;}
	.st27{opacity:0.3;fill:url(#background_30_1_);enable-background:new    ;}
	.st28{fill:url(#SVGID_15_);}
	.st29{fill:url(#SVGID_16_);}
	.st30{opacity:0.5;fill:url(#SVGID_17_);enable-background:new    ;}
	.st31{fill:url(#SVGID_18_);}
</style>
<rect x="1.1" y="3907.4" class="st0" width="1162.6" height="1158"/>
<path class="st1" d="M1163.7,3651.4c0,82.9-228.2-0.5-307.1,25.1c-48.7,15.8-139.7,88.5-188.1,105.1
	c-50.7,17.4-57.4,23.9-108.9,38.8c-46,13.3-216.9,57.2-262.8,70.8c-57,16.9-275.8,13.2-301.3,66.9
	c-23.6,49.8,134.2,122.7,182.5,149.4c69.5,38.4,239.9-16.1,317.6,0c55,11.4,152.1,74.6,206.4,89.1c105.4,28.1,461.4,49.5,461.4,49.5
	"/>
<rect x="1.1" y="-2467.5" class="st0" width="1162.6" height="1179.2"/>
<path class="st2" d="M442.7-2463.7c312.8,0,587.9,160.1,720.9,393.9v-1062.7H1.1v788.2C128.2-2419.8,278.8-2463.7,442.7-2463.7z"/>
<g>
	<defs>
		<rect id="SVGID_1_" x="1.1" y="2139.4" width="1162.6" height="1822.1"/>
	</defs>
	<clipPath id="SVGID_2_">
		<use xlink:href="#SVGID_1_"  style="overflow:visible;"/>
	</clipPath>
	<g class="st3">
		
			<linearGradient id="SVGID_3_" gradientUnits="userSpaceOnUse" x1="576.1501" y1="-672.2081" x2="576.1501" y2="-2654.9077" gradientTransform="matrix(0.8464 0 0 -0.8464 94.7257 1702.277)">
			<stop  offset="0" style="stop-color:#FEF8C0;stop-opacity:0"/>
			<stop  offset="2.000000e-02" style="stop-color:#FEF8C0;stop-opacity:5.000000e-02"/>
			<stop  offset="9.000000e-02" style="stop-color:#FEF8C0;stop-opacity:0.27"/>
			<stop  offset="0.17" style="stop-color:#FEF8C0;stop-opacity:0.47"/>
			<stop  offset="0.25" style="stop-color:#FEF8C0;stop-opacity:0.63"/>
			<stop  offset="0.33" style="stop-color:#FEF8C0;stop-opacity:0.76"/>
			<stop  offset="0.41" style="stop-color:#FEF8C0;stop-opacity:0.87"/>
			<stop  offset="0.49" style="stop-color:#FEF8C0;stop-opacity:0.94"/>
			<stop  offset="0.57" style="stop-color:#FEF8C0;stop-opacity:0.99"/>
			<stop  offset="0.67" style="stop-color:#FEF8C0"/>
		</linearGradient>
		<rect x="1.1" y="2271.2" class="st4" width="1162.6" height="1678.1"/>
		
			<linearGradient id="SVGID_4_" gradientUnits="userSpaceOnUse" x1="576.1501" y1="-672.2081" x2="576.1501" y2="-2872.7075" gradientTransform="matrix(0.8464 0 0 -0.8464 94.7257 1702.277)">
			<stop  offset="0" style="stop-color:#FEF8C0;stop-opacity:0"/>
			<stop  offset="0" style="stop-color:#FEF8C0;stop-opacity:0"/>
			<stop  offset="8.000000e-02" style="stop-color:#FEF8C0;stop-opacity:0.23"/>
			<stop  offset="0.16" style="stop-color:#FEF8C0;stop-opacity:0.44"/>
			<stop  offset="0.25" style="stop-color:#FEF8C0;stop-opacity:0.61"/>
			<stop  offset="0.33" style="stop-color:#FEF8C0;stop-opacity:0.75"/>
			<stop  offset="0.41" style="stop-color:#FEF8C0;stop-opacity:0.86"/>
			<stop  offset="0.5" style="stop-color:#FEF8C0;stop-opacity:0.94"/>
			<stop  offset="0.58" style="stop-color:#FEF8C0;stop-opacity:0.98"/>
			<stop  offset="0.67" style="stop-color:#FEF8C0"/>
			<stop  offset="1" style="stop-color:#F78D36"/>
		</linearGradient>
		<rect x="1.1" y="2271.2" class="st5" width="1162.6" height="1862.4"/>
	</g>
</g>
<path class="st2" d="M1163.6,2165V-306.5H1.1v2963.1c0,0,406.5-21.7,511.8-49.8c54.3-14.5,151.4-77.7,206.4-89.1
	c77.8-16.1,338.2,29.9,401.4-18.3C1220.5,2423.2,1202.6,2126,1163.6,2165z"/>
<g id="background_details_1_">
	<path class="st6" d="M866.5-1705.2c-45.9-13.6-216.8-57.6-262.8-70.8c-51.5-14.9-58.2-21.4-108.9-38.8
		c-48.4-16.6-139.4-89.3-188.1-105.1c-62.9-20.4-235.7,28.4-303.1,7.1v586.9c77.7-5.4,447.4-31.8,541.5-56.9
		c54.3-14.5,151.4-77.7,206.4-89.1c77.8-16.1,257.4,38.4,327,0c22.9-12.6,55.5-47.6,81.3-86.3V-1697
		C1082.7-1715.7,912.6-1691.5,866.5-1705.2z"/>
</g>
<title>spheregoblin</title>
<g id="background_details_7_">
	
		<linearGradient id="SVGID_5_" gradientUnits="userSpaceOnUse" x1="-109.9716" y1="3983.7271" x2="1258.1885" y2="3983.7271" gradientTransform="matrix(0.8464 0 0 -0.8464 94.7257 1702.277)">
		<stop  offset="0" style="stop-color:#50C6DF"/>
		<stop  offset="1.000000e-02" style="stop-color:#50C4DE"/>
		<stop  offset="0.25" style="stop-color:#4490C3"/>
		<stop  offset="0.48" style="stop-color:#3A67AE"/>
		<stop  offset="0.69" style="stop-color:#34499F"/>
		<stop  offset="0.87" style="stop-color:#2F3795"/>
		<stop  offset="1" style="stop-color:#2E3192"/>
	</linearGradient>
	<path class="st7" d="M1159.6-1734.9c-84-9.9-226.4,8.5-268-3.8c-45.9-13.6-126.2-70.5-172.2-83.8c-18.6-5.4-45-7.7-73.4-9.2
		c7.2-7.3,11-13.8,9.1-16.2c-2.6-3.2-14.7,2.2-27,12.1c-1.2,1-2.4,2-3.6,3c-8.5-0.4-17.1-0.8-25.6-1.2c4.5-5.2,8.2-10.9,11.3-17
		c7.3-14,10.2-27,6.5-28.9c-3.6-1.9-12.6,7.9-19.8,22c-4.8,9.2-7.7,17.9-8.1,23.4c-6.2-0.3-12.3-0.7-18.2-1.2
		c2.6-6,4.4-12.3,5.6-18.8c2.9-15.5,2-28.8-2.1-29.5c-4.1-0.8-9.7,11.2-12.7,26.8c-1.5,7.9-2,15.2-1.5,20.6
		c-9.3-0.8-18.1-1.9-26.3-3.1c-0.7-5.3-1.9-10.6-3.6-15.7c-4.7-15.1-11.8-26.3-15.7-25.1c-4,1.2-3.3,14.5,1.4,29.6
		c0.9,2.9,1.9,5.7,3,8.3c-4.2-1-8.4-2.1-12.5-3.5c-48.4-16.6-125.7-91.6-174.4-107.4c-76.7-24.9-317.1,53.3-330-18.8l1.8,605.7
		c0,0,461.3-21.8,566.7-49.9c54.3-14.5,168.3-101.3,223.2-89.1c147,32.8,302.2,4.4,310.2,0c15.8-8.7,36.4-28.2,56.1-52.3V-1734.9z"
		/>
</g>
<g id="About_Page">
	<g id="grass_shadow">
		<g id="clump_3">
			<g class="st8">
				
					<ellipse transform="matrix(0.805 -0.5933 0.5933 0.805 1110.3501 -275.1841)" class="st2" cx="136.6" cy="-1826.7" rx="6.1" ry="23.3"/>
			</g>
			<g class="st8">
				
					<ellipse transform="matrix(0.2608 -0.9654 0.9654 0.2608 1833.6283 -1151.3813)" class="st2" cx="164.9" cy="-1773.1" rx="7.5" ry="28.6"/>
			</g>
			
				<ellipse transform="matrix(0.2419 -0.9703 0.9703 0.2419 1816.0518 -1129.519)" class="st2" cx="185.2" cy="-1727" rx="5" ry="18.9"/>
			<g class="st8">
				
					<ellipse transform="matrix(0.886 -0.4636 0.4636 0.886 874.7468 -139.6316)" class="st2" cx="153.3" cy="-1849.1" rx="7.5" ry="28.6"/>
			</g>
			
				<ellipse transform="matrix(0.4198 -0.9076 0.9076 0.4198 1686.9541 -846.7566)" class="st2" cx="181.2" cy="-1742.8" rx="7.5" ry="28.6"/>
			<g class="st8">
				
					<ellipse transform="matrix(0.6828 -0.7306 0.7306 0.6828 1430.9022 -381.1529)" class="st2" cx="276.5" cy="-1838.4" rx="28.6" ry="7.5"/>
			</g>
			
				<ellipse transform="matrix(0.8263 -0.5632 0.5632 0.8263 1022.261 -159.9826)" class="st2" cx="251.8" cy="-1737.3" rx="28.6" ry="7.5"/>
		</g>
		<g id="clump_2">
			
				<ellipse transform="matrix(0.1663 -0.9861 0.9861 0.1663 2015.2379 -1335.9962)" class="st2" cx="217.6" cy="-1859.7" rx="28.3" ry="7.1"/>
			
				<ellipse transform="matrix(0.4187 -0.9081 0.9081 0.4187 1818.1102 -869.5525)" class="st2" cx="229.9" cy="-1854.9" rx="21.9" ry="5.5"/>
			
				<ellipse transform="matrix(0.6547 -0.7559 0.7559 0.6547 1493.5919 -455.2481)" class="st2" cx="248.5" cy="-1862.5" rx="28.3" ry="7.1"/>
			
				<ellipse transform="matrix(0.6144 -0.789 0.789 0.6144 1547.4767 -501.4518)" class="st2" cx="260.7" cy="-1834" rx="28.3" ry="7.1"/>
			
				<ellipse transform="matrix(0.7085 -0.7057 0.7057 0.7085 1361.4937 -338.2319)" class="st2" cx="271.4" cy="-1817.1" rx="21.9" ry="5.5"/>
			
				<ellipse transform="matrix(0.8768 -0.4808 0.4808 0.8768 909.947 -83.7658)" class="st2" cx="291.5" cy="-1817.7" rx="28.3" ry="7.1"/>
		</g>
		<g id="clump_1">
			
				<ellipse transform="matrix(0.4005 -0.9163 0.9163 0.4005 1719.6421 -977.6935)" class="st2" cx="112.6" cy="-1803" rx="7.1" ry="28.3"/>
			
				<ellipse transform="matrix(0.6263 -0.7796 0.7796 0.6263 1459.079 -583.9742)" class="st2" cx="120.4" cy="-1814" rx="5.5" ry="21.9"/>
			
				<ellipse transform="matrix(0.8211 -0.5708 0.5708 0.8211 1065.233 -263.96)" class="st2" cx="111.5" cy="-1831.4" rx="7.1" ry="28.3"/>
			
				<ellipse transform="matrix(0.7874 -0.6165 0.6165 0.7874 1165.0566 -299.7693)" class="st2" cx="148" cy="-1838.8" rx="7.1" ry="28.3"/>
			
				<ellipse transform="matrix(0.8585 -0.5128 0.5128 0.8585 969.6807 -175.3385)" class="st2" cx="167.1" cy="-1844.9" rx="5.5" ry="21.9"/>
			
				<ellipse transform="matrix(0.9672 -0.2539 0.2539 0.9672 479.1196 -17.6177)" class="st2" cx="171.3" cy="-1864.7" rx="7.1" ry="28.3"/>
		</g>
		<path class="st6" d="M303.8-1746.3c1.8,23.9-20.6,46-39.2,56.2c-61.4,33.7-162.8-17-163.6-56.2c-0.6-28.9,53.5-59.5,101.4-59.8
			C245.8-1806.5,301-1781.8,303.8-1746.3z"/>
	</g>
	<g id="pyramid_goblin">
		<path class="st9" d="M266.6-1798.1c0,0,5.9-31.8,5.3-41.6c-0.3-5.9-9-18.8-20.3-18.8c-11.3,0-104.7,22.2-117.9,30.9
			c-13.2,8.7-12.4,21.6-8.7,26.4c7.7,9.8,28.4,21.8,44.2,25.8C206.6-1766.1,266.6-1798.1,266.6-1798.1"/>
		<path class="st9" d="M276.3-1740.2c-9.4,0-10.8-10.9-20.3-7.2c-13.1,5.1-5.2,15.5-11.3,26.8c-3.3,6.1-20.2,15.8-32.4,9.4
			c-19.7-10.3-42.6-49.7-50.5-92.3c-7.9-42.5,20-58.8,20-58.8s8.4-6.6,2.4-28.5c-1-3.3-1.6-6.6-2.1-10l4.4,2.3l0.6-5.6
			c1.9,3.4,4.1,6.6,6.6,9.7c12.5,16,3.6,24.8,3.6,24.8c32.7-5,58.6,40.1,71.6,62.6c0.7,1.3,1.4,2.4,2,3.5l0,0
			c0.8,1.4,1.6,2.7,2.3,3.8l1,0.3c14.3,4.2,13.5,6.8,27.1,38.1C304.7-1753.3,285.7-1740.2,276.3-1740.2z"/>
		<path class="st10" d="M234.2-1855.7c0,0,26.4,5,34.3,48C260.8-1821.3,249.1-1842.2,234.2-1855.7"/>
		<path class="st10" d="M164.5-1791.4c-1-4-1.9-8-2.6-12c-2.7-14.6-1.2-26.1,1.9-34.9c0,0-11.3,7-10.2,24.5
			c0.8,13.6,11.4,24.5,11.4,24.5"/>
		<path class="st10" d="M274.2-1799.3c-0.2,0.4-0.7,0.7-1.1,0.6c-23.2-3.9-50-0.4-69.5,12.5c-0.5,0.3-1.2,0.1-1.4-0.4
			c-0.2-0.4-0.1-0.9,0.2-1.3c17.9-14.7,53-27.1,68.7-15.4l0,0c0.8,1.4,1.6,2.7,2.3,3.8L274.2-1799.3z"/>
		
			<ellipse transform="matrix(0.9526 -0.3042 0.3042 0.9526 535.5803 -13.2549)" class="st10" cx="225.2" cy="-1725.5" rx="17.8" ry="10.7"/>
		<path class="st10" d="M273.2-1799.5c3.9,1,7.7,2.6,11.1,4.8c8.3,5.4,10.8,19.3,17,33.6c3.4,7.9-15.6,21-25,21s-10.8-10.9-20.3-7.2
			c-2.5,0.8-4.7,2.4-6.3,4.5c-1.3,2-2,4.2-2,6.6c-0.2,0-3.8-20.7,6.2-40.7C258.5-1785.9,265.1-1793.6,273.2-1799.5z"/>
		<path class="st2" d="M218.9-1831.4c1.2,1,2.5,1.7,4,2.1c2.2,0.7,4.6-0.4,5.5-2.5c0.7-1.4,1-2.9,1-4.4c1.5,1.3,2.2,3.2,2,5.2
			c-0.1,1.1-0.5,2.1-1.1,3c-0.6,0.9-1.5,1.7-2.5,2.1c-2,0.9-4.4,0.7-6.2-0.6C219.9-1827.6,218.9-1829.4,218.9-1831.4z"/>
		<path class="st2" d="M192.9-1823.9c1.2,1,2.5,1.7,4,2.1c2.2,0.7,4.6-0.4,5.5-2.5c0.7-1.4,1-2.9,1-4.4c1.5,1.3,2.2,3.2,2,5.2
			c-0.1,1.1-0.5,2.1-1.1,2.9c-0.6,0.9-1.5,1.7-2.5,2.1c-2,0.9-4.4,0.7-6.2-0.6C193.9-1820.2,192.9-1822,192.9-1823.9z"/>
		<polygon class="st9" points="142.5,-1923.5 171.5,-1924.6 189.7,-1949 159.8,-1947.8 		"/>
		<polyline class="st10" points="184.8,-1901.6 171.5,-1924.6 142.5,-1923.5 		"/>
		<polyline class="st11" points="189.7,-1949 171.5,-1924.6 184.8,-1901.6 		"/>
	</g>
	<g id="log">
		<g id="log-2">
			<path class="st2" d="M502.6-1718.3c-34.7,6.3-71.5-1.4-105.6,6.3c-16.1,3.6-31,18.7-46.6,21.4c-8.1,1.4-17.2-4.9-25.5-4
				c-8.6,0.9-19.6,8.8-27.4,12.8c-17.4-7-26.7-33.1-30.3-49.8c-4-18.3-1.7-44.2,10.3-60.3c27.7-1.8,50.1-13.4,78-14.3
				c22.1-0.7,20.2-5.5,38.3-10.8c12.3-3.6,24.8-0.3,37.2-3.6c17.8-4.8,22.4-19.4,44-11.5c13.4,4.9,15.3,14,21.2,24.9
				C511.4-1778,506.5-1750.2,502.6-1718.3z"/>
			<path class="st11" d="M297.5-1681.8c-35.9-11.8-49.3-84.2-20.1-110C306.8-1766.2,334.2-1708.9,297.5-1681.8z"/>
			<path class="st10" d="M299.1-1741c-1.2,12.6,2.8,24.4-5.6,35.1c-12.5-9.1-26.2-29.5-22-46.6
				C277.4-1776.7,295.5-1760.4,299.1-1741z"/>
		</g>
		<g id="whorls">
			<path class="st0" d="M304-1784.9c7.7,1,15.2,2.2,22.6,3.3c3.7,0.6,7.4,1.1,11.1,1.6c3.7,0.4,7.4,1,11.1,1.5
				c3.7,0.5,7.4,1.2,11.1,1.6c3.7,0.4,7.5,0.5,11.3,0.2c7.5-0.6,14.6-3.2,20.8-7.4c0.8-0.5,1.4-1.1,2.2-1.7l2.2-1.8
				c0.8-0.6,1.5-1.3,2.4-1.8l2.5-1.7c3.3-2.2,6.8-4.1,10.5-5.7c3.6-1.6,7.3-3.1,11.1-4.3c3.7-1.2,7.6-2.2,11.4-3
				c3.9-0.7,7.7-1.3,11.6-1.6c3.9-0.3,7.8-0.5,11.7-0.5c3.9,0,7.8,0.2,11.7,0.6c3.9,0.3,7.7,1,11.5,1.9l-0.1,0.8
				c-15.2,2-30.2,4.2-44.6,7.5c-3.6,0.8-7.2,1.7-10.8,2.6s-7.1,2-10.6,3.2c-3.5,1.2-6.8,2.7-10.2,4.2c-1.7,0.8-3.3,1.6-4.9,2.5
				l-1.2,0.6l-1.4,0.7c-0.9,0.4-1.8,1-2.7,1.3l-2.8,1.2l-2.8,1c-0.9,0.4-1.9,0.6-2.8,0.8l-1.4,0.4c-0.5,0.1-0.9,0.2-1.4,0.4
				c-3.8,1-7.6,1.7-11.4,2.4c-3.8,0.7-7.7,1.3-11.6,1.8c-3.9,0.5-7.8,0.8-11.8,0.8c-3.9,0-7.8-0.4-11.7-1.1
				c-7.7-1.3-15.2-3.4-22.4-6.3c-3.6-1.4-7.1-3.2-10.5-5.2L304-1784.9z"/>
			<path class="st0" d="M482.4-1816.2c-6.6,1.4-13.1,2.4-19.6,3.4c-3.2,0.4-6.5,0.9-9.7,1.3c-3.2,0.4-6.4,0.9-9.7,1.3
				s-6.5,0.6-9.7,0.8s-6.5,0.5-9.8,1c-6.5,0.9-12.7,3.1-18.3,6.4c-5.8,3.5-11.8,6.9-18.1,9.2c-3.2,1.1-6.4,2.1-9.6,3.1
				c-3.2,0.9-6.5,1.8-9.8,2.4c-6.6,1.2-13.2,2-19.9,2.2c-6.7,0.3-13.4-0.1-20.1-1l-0.1-0.8c6.4-2,12.9-3.6,19.3-5.1
				c6.4-1.5,12.8-2.9,19.1-4.1c6.4-1.2,12.8-2.2,19.1-3.7c3.1-0.7,6.3-1.3,9.5-2.1c3.2-0.7,6.3-1.6,9.3-2.8
				c6.2-2.7,12.5-4.8,18.8-7.1c6.3-2.3,12.7-4.6,19.3-5.7c3.3-0.6,6.6-0.9,10-1.1c3.3-0.2,6.7-0.3,10-0.3c3.3,0,6.7,0.2,10,0.5
				c3.4,0.3,6.7,0.8,10,1.5L482.4-1816.2z"/>
			<path class="st0" d="M319.6-1754.3c3.9-1,7.9-1.8,11.8-2.6l5.9-1.2l5.9-1c2-0.3,3.9-0.8,5.9-1.3c1.9-0.4,3.9-0.6,5.9-0.5
				c2,0.1,4.1,0.3,6.1,0.8c2.1,0.4,4.2,1.1,6.2,2.1l0.1,0.8c-1.8,1.2-3.7,2.3-5.8,3c-1.9,0.7-3.9,1.3-5.9,1.7
				c-1.9,0.4-3.9,0.5-5.9,0.4c-2-0.1-4-0.3-6-0.3l-6-0.1l-6-0.2c-4-0.2-8-0.4-12-0.7L319.6-1754.3z"/>
			<path class="st0" d="M418.2-1773.6c0.2-1.3,0.9-2.5,1.9-3.3c0.9-0.8,1.9-1.6,3-2.3c1-0.7,2.1-1.3,3.2-1.8
				c1.1-0.6,2.2-1.1,3.3-1.6c4.5-2.1,9.3-3.7,14.1-4.7c2.5-0.5,4.9-0.8,7.4-1.1c2.6-0.2,5.2-0.2,7.8,0c1.4,0.1,2.8,0.4,4.1,0.8
				c1.7,0.5,3.2,1.4,4.4,2.7c0.7,0.8,1.2,1.8,1.5,2.8c0.2,0.9,0.3,1.9,0.3,2.8c-0.1,1.6-0.5,3.1-1.1,4.6c-0.5,1.3-1.2,2.6-1.9,3.8
				c-0.7,1.2-1.5,2.3-2.4,3.4c-1.7,2.1-3.7,4.1-5.8,5.8c-1.1,0.8-2.3,1.6-3.5,2.3c-1.2,0.7-2.5,1.3-3.9,1.8
				c-1.3,0.5-2.7,0.9-4.1,1.1c-1.4,0.2-2.8,0.4-4.2,0.4c-2.8,0-5.6-0.5-8.2-1.4c-2.5-0.9-4.9-2.2-7.1-3.8c-2.1-1.5-4-3.3-5.7-5.3
				c-0.8-1-1.6-2-2.2-3.2C418.4-1770.9,418.1-1772.2,418.2-1773.6z M419-1773.5c0,0.5,0.1,1.1,0.3,1.6c0.2,0.5,0.5,1,0.8,1.4
				c0.7,0.9,1.6,1.7,2.5,2.3c1.9,1.3,4.1,2.2,6.3,2.8c4.2,1,8.6,1.3,12.9,0.8c2-0.2,4-0.7,5.9-1.3c1.9-0.7,3.8-1.6,5.5-2.6
				c1.8-1.1,3.5-2.4,5-3.9c1.5-1.4,2.7-3.1,3.7-4.9c0.4-0.8,0.7-1.6,0.8-2.4c0-0.3,0-0.6,0-0.8c0-0.1,0-0.3-0.1-0.4
				c-0.5-0.5-1-0.9-1.7-1.1c-0.9-0.4-1.9-0.7-2.9-0.8c-2.2-0.4-4.5-0.6-6.8-0.6c-2.4,0-4.7,0.1-7,0.3c-4.8,0.4-9.5,1.1-14.2,2.2
				c-2.3,0.6-4.6,1.4-6.7,2.5c-1.1,0.6-2,1.2-2.9,2.1C419.7-1775.7,419.2-1774.6,419-1773.5L419-1773.5z"/>
		</g>
		<g id="mushrooms">
			<path class="st11" d="M441-1725c1.4,6.1,17.6,5.6,34.6,1.8c17-3.9,21.3-8,19.9-14.2s-8.9-16-25.9-12.1S439.6-1731.2,441-1725z"/>
			<path class="st11" d="M476-1759.6c2.8,5.8,17,8.8,28.6,3.4c11.5-5.4,19.5-19.1,16.8-24.9c-2.8-5.8-14.4,0-26,5.5
				C483.8-1770.1,473.3-1765.4,476-1759.6z"/>
			<path class="st11" d="M418.4-1739.9c1.2,4,8.8,6.1,16.4,3.7c7.6-2.3,11.8-7.9,10.5-12c-1.2-4-7.8-6.3-15.4-4
				S417.1-1743.9,418.4-1739.9z"/>
			<path class="st11" d="M398.7-1728.2c0.4,2.4,4.5,4.2,9,3.5s7.3-3.5,6.9-5.9c-0.4-2.4-3.9-4.2-8.4-3.5
				C401.8-1733.4,398.3-1730.5,398.7-1728.2z"/>
			<path class="st11" d="M384.4-1734.6c0.3,1.8,2.4,3.3,5.8,2.8c3.4-0.5,4.9-2.5,4.6-4.4c-0.3-1.8-2-1.3-5.4-0.8
				C386-1736.5,384.1-1736.4,384.4-1734.6z"/>
		</g>
		<path class="st11" d="M291.5-1739.2c0.3,1.2,0.6,2.4,1,3.7c0.4,1.3,0.6,2.6,0.8,4c0.1,1.5-0.2,3-0.8,4.3c-0.2,0.4-0.4,0.7-0.6,1
			c-0.3,0.3-0.6,0.7-0.9,0.9c-0.7,0.6-1.6,1-2.5,1.2c-0.9,0.2-1.8,0.1-2.6-0.2c-0.4-0.1-0.7-0.3-1.1-0.5c-0.3-0.2-0.6-0.4-0.9-0.7
			c-1-0.9-1.9-2-2.6-3.1c-1.4-2.1-2.7-4.4-3.8-6.8c-0.5-1.2-1-2.5-1.2-3.8c-0.3-1.4-0.3-2.8-0.2-4.2c0.1-1.5,0.5-3,1.2-4.4
			c0.2-0.4,0.4-0.7,0.7-1.1c0.3-0.4,0.6-0.7,0.9-1c0.7-0.7,1.6-1.2,2.6-1.4c1-0.2,2-0.2,2.9,0.1c0.4,0.1,0.9,0.3,1.3,0.5
			c0.4,0.2,0.7,0.4,1.1,0.7c1.2,0.9,2.1,2.1,2.8,3.5c0.5,1.2,1,2.5,1.3,3.8L291.5-1739.2z M291.1-1739.1c-0.3-1.2-0.9-2.3-1.6-3.3
			c-0.7-1-1.6-1.8-2.5-2.5c-0.8-0.6-1.7-1.2-2.6-1.6c-0.6-0.3-1.2-0.4-1.8-0.2c-0.6,0.2-1,0.7-1.3,1.2c-0.5,0.8-0.9,1.7-1.1,2.7
			c-0.4,2.2-0.5,4.5-0.4,6.8c0.1,1.2,0.4,2.4,0.8,3.5c0.4,1.1,1,2.2,1.8,3.1c0.7,0.9,1.7,1.5,2.8,1.9c0.8,0.3,1.7,0.3,2.4-0.1
			c0.6-0.4,1.1-0.9,1.5-1.5c0.6-0.9,1-1.8,1.4-2.8c0.5-1.1,0.8-2.3,0.9-3.5C291.5-1736.7,291.4-1737.9,291.1-1739.1z"/>
	</g>
</g>
<g id="background_details">
	<path class="st6" d="M3.5-1572.4v246.3c77.7-5.4,447.4-31.8,541.5-56.9c54.3-14.5,151.4-77.7,206.4-89.1
		c77.8-16.1,257.4,38.4,327,0c21.3-11.8,54.4-60.6,81.3-108v-76C950.1-1577.1,11.8-1497.6,3.5-1572.4z"/>
</g>
<g id="background_details_2_">
	<path class="st12" d="M1179.5,3565.9c0,82.9-251.8-0.5-330.6,25.1c-48.7,15.8-139.7,88.5-188.1,105.1
		c-50.7,17.4-57.4,23.9-108.9,38.8c-46,13.3-374.8,70.5-430.4,70.8c-59.5,0.4-126.9-24.1-152.3,29.7
		c-23.6,49.8,69.1,160,117.3,186.6c69.5,38.4,323.7-16.1,401.4,0c55,11.4,152.1,74.6,206.4,89.1c105.4,28.1,464.5,49.7,464.5,49.7"
		/>
</g>
<g id="background_details_6_">
	
		<linearGradient id="SVGID_6_" gradientUnits="userSpaceOnUse" x1="-4959.8662" y1="-2166.1724" x2="-4959.2163" y2="-2166.1724" gradientTransform="matrix(-0.8464 0 0 -0.8464 -3043.5122 1702.277)">
		<stop  offset="0" style="stop-color:#50C6DF"/>
		<stop  offset="1.000000e-02" style="stop-color:#50C4DE"/>
		<stop  offset="0.25" style="stop-color:#4490C3"/>
		<stop  offset="0.48" style="stop-color:#3A67AE"/>
		<stop  offset="0.69" style="stop-color:#34499F"/>
		<stop  offset="0.87" style="stop-color:#2F3795"/>
		<stop  offset="1" style="stop-color:#2E3192"/>
	</linearGradient>
	<path class="st13" d="M1153.8,3538.8l0.6-6.3C1154.4,3534.6,1154.2,3536.7,1153.8,3538.8z"/>
	
		<linearGradient id="SVGID_7_" gradientUnits="userSpaceOnUse" x1="-4979.3062" y1="-2534.1216" x2="-3525.3047" y2="-2534.1216" gradientTransform="matrix(-0.8464 0 0 -0.8464 -3043.5122 1702.277)">
		<stop  offset="0" style="stop-color:#50C6DF"/>
		<stop  offset="1.000000e-02" style="stop-color:#50C4DE"/>
		<stop  offset="0.25" style="stop-color:#4490C3"/>
		<stop  offset="0.48" style="stop-color:#3A67AE"/>
		<stop  offset="0.69" style="stop-color:#34499F"/>
		<stop  offset="0.87" style="stop-color:#2F3795"/>
		<stop  offset="1" style="stop-color:#2E3192"/>
	</linearGradient>
	<path class="st14" d="M-56,3802.1c25.5-53.8,227.9-24.5,287.2-29.5c206.5-17.8,202.3-82.1,278.3-93.2c-7.2-7.3-11-13.8-9.1-16.2
		c2.6-3.2,14.7,2.2,27,12.1c1.2,1,2.4,2,3.6,3c8.5-0.4,17.1-0.8,25.6-1.2c-4.5-5.2-8.2-10.9-11.3-17c-7.3-14-10.2-27-6.5-28.9
		c3.6-1.9,12.6,7.9,19.8,22c4.8,9.2,7.7,17.9,8.1,23.4c6.2-0.3,12.3-0.7,18.2-1.2c-2.6-6-4.4-12.3-5.6-18.8
		c-2.9-15.5-2-28.8,2.1-29.5c4.1-0.8,9.7,11.2,12.7,26.8c1.5,7.9,2,15.2,1.5,20.6c9.3-0.8,18.1-1.9,26.3-3.1
		c0.7-5.3,1.9-10.6,3.6-15.7c4.7-15.1,11.8-26.3,15.7-25.1c4,1.2,3.3,14.5-1.4,29.6c-0.9,2.9-1.9,5.7-3,8.3c4.2-1,8.4-2.1,12.5-3.5
		c48.4-16.6,125.7-91.6,174.4-107.4c76.7-24.9,334.1,53.3,347-18.8l-3,616.5c0,0-383.9-22.3-489.3-50.4
		c-190.9-136.9-313.6-115.7-383.4-116.2c-79.4-0.6-164.3,38.4-233.9,0C13,3962.1-79.6,3851.9-56,3802.1z"/>
</g>
<g id="Partners">
	
		<linearGradient id="SVGID_8_" gradientUnits="userSpaceOnUse" x1="856.9479" y1="-2405.6333" x2="1019.0779" y2="-2243.5034" gradientTransform="matrix(0.8464 0 0 -0.8464 94.7257 1702.277)">
		<stop  offset="0" style="stop-color:#FFE381"/>
		<stop  offset="5.000000e-02" style="stop-color:#FFE587"/>
		<stop  offset="0.26" style="stop-color:#FFEDA0"/>
		<stop  offset="0.49" style="stop-color:#FEF3B2"/>
		<stop  offset="0.72" style="stop-color:#FEF7BD"/>
		<stop  offset="1" style="stop-color:#FEF8C0"/>
	</linearGradient>
	<path class="st15" d="M898.3,3664.3c-7.8,0-22.6,18.1-22.6,34.2c0,16.1,8.2,34.5,41.4,37.7c11.2,1.1,61.7,23.2,97.4-27.1
		c23.7-33.3,19.7-68.9,6.8-95.3c-6-12.2-22.9-34.3-33.3-47.4c-10.2-12.7-30.1-21.8-46.6-27.5c-13.4-4.6-36.3-3.6-38.2-16
		c-1.2-7.7-9.5-14.4-18.8-15.9c0,0.4,0,0.8,0,1.3c0,1.5-0.1,3-0.4,4.5c14.1,7.6,11.7,32.8,5.8,39.2c-11.2,12.3-18.6,48.3-12.2,66
		C881,3634.7,888.1,3650.5,898.3,3664.3z"/>
	<path class="st10" d="M953.5,3675.2c-3.1,0.4-6.1,1.1-9.1,2.1c-2.9,0.9-5.8,2.2-8.5,3.7c-5.3,3-9.6,7.4-12.4,12.8
		c-1.3,2.7-2.3,5.6-2.9,8.5l-0.4,2.2c-0.1,0.8-0.2,1.5-0.3,2.3c-0.2,1.5-0.2,3-0.3,4.6c0,6.2,0.7,12.4,2,18.5c-0.5-1.5-1-3-1.5-4.5
		c-0.4-1.5-0.8-3-1.2-4.6c-0.4-1.5-0.6-3.1-0.8-4.7c-0.1-0.8-0.2-1.6-0.3-2.4s-0.2-1.6-0.2-2.4c-0.1-1.6-0.1-3.2,0-4.8
		c0.1-0.8,0.1-1.6,0.2-2.4l0.3-2.4c0.6-3.2,1.6-6.3,3-9.2c1.5-2.9,3.5-5.6,5.8-7.8c2.3-2.2,5-4.1,7.9-5.6c2.9-1.4,5.9-2.5,9-3.1
		C947.1,3675.4,950.3,3675.1,953.5,3675.2z"/>
	<path class="st2" d="M1170,3626.7c-22.6-0.9-42.2,6.2-56.7,20.5c0,0-39.2,39-99.1,39.2c-34.7,0.1-73.5-22.5-96.8-46.1
		c-2.9-2.9-7.6-3-10.5-0.1c-2.9,2.9-3,7.6-0.1,10.5c12,12.2,52.6,40.2,92.9,45.6c73.9,9.8,122-40.7,122-40.7
		c29.2-29.1,73.4-12.3,73.8-12.1l4.3-11C1190.3,3629.1,1180.2,3627.1,1170,3626.7z"/>
	<g>
		<defs>
			<path id="SVGID_9_" d="M458.2,3959.4c-55.5,0-101.8-2.1-138.4-6.2c-51.8-5.8-81.1-15.3-89.6-29c-3.4-5.2-3.5-11.9-0.4-17.2
				c8.5-15.2,40.6-23.5,66.4-23.5c21.7,0,36.7-9.8,44.7-29.1c6.5-15.6-0.3-37.3-4.1-59.5c-3.3-19.5-1.9-62.1-9.5-69.7l22.5,15.6
				c0,16-1.9,28.5,2,51.6c2.5,14.7,13.4,43,3.1,67.9c-10.4,25.2-30.8,38.6-58.8,38.6c-27.5,0-49.4,9.1-53.1,15.7
				c-0.5,0.5-0.5,1.3,0,1.8c2,3.3,23.7,27.9,215.1,27.9c35.5,0,76.7-0.8,124.8-2.8c97.3-4,173.5-16.6,226.5-37.3
				c41.5-16.3,68.5-37.4,80.3-62.8c21.2-45.6-12.8-83-16.6-100.6l13.7-5.3c3.8,11.4,11.4,18.4,18.4,37.9c9.3,26.2,8.8,52-1.7,74.4
				c-13.5,29.1-43.3,52.9-88.6,70.6c-54.5,21.4-132.3,34.3-231.4,38.3C537.8,3958.4,496,3959.4,458.2,3959.4z"/>
		</defs>
		<clipPath id="SVGID_10_">
			<use xlink:href="#SVGID_9_"  style="overflow:visible;"/>
		</clipPath>
		<g class="st16">
			
				<radialGradient id="SVGID_11_" cx="561.3469" cy="-2528.3501" r="302.1732" gradientTransform="matrix(0.8464 0 0 -0.8464 94.7257 1702.277)" gradientUnits="userSpaceOnUse">
				<stop  offset="0" style="stop-color:#50C6DF;stop-opacity:0.5"/>
				<stop  offset="0.37" style="stop-color:#3F79B7;stop-opacity:0.76"/>
				<stop  offset="0.74" style="stop-color:#32449C;stop-opacity:0.94"/>
				<stop  offset="1" style="stop-color:#2E3192"/>
			</radialGradient>
			<path class="st17" d="M458.2,3959.4c-55.5,0-101.8-2.1-138.4-6.2c-51.8-5.8-81.1-15.3-89.6-29c-3.4-5.2-3.5-11.9-0.4-17.2
				c8.5-15.2,40.6-23.5,66.4-23.5c21.7,0,36.7-9.8,44.7-29.1c6.5-15.6-0.3-37.3-4.1-59.5c-3.3-19.5-1.9-62.1-9.5-69.7l22.5,15.6
				c0,16-1.9,28.5,2,51.6c2.5,14.7,13.4,43,3.1,67.9c-10.4,25.2-30.8,38.6-58.8,38.6c-27.5,0-49.4,9.1-53.1,15.7
				c-0.5,0.5-0.5,1.3,0,1.8c2,3.3,23.7,27.9,215.1,27.9c35.5,0,76.7-0.8,124.8-2.8c97.3-4,173.5-16.6,226.5-37.3
				c41.5-16.3,68.5-37.4,80.3-62.8c21.2-45.6-12.8-83-16.6-100.6l13.7-5.3c3.8,11.4,11.4,18.4,18.4,37.9c9.3,26.2,8.8,52-1.7,74.4
				c-13.5,29.1-43.3,52.9-88.6,70.6c-54.5,21.4-132.3,34.3-231.4,38.3C537.8,3958.4,496,3959.4,458.2,3959.4z"/>
			<path class="st2" d="M458.2,3967.8c-55.5,0-101.8-2.1-138.4-6.2c-51.8-5.8-81.1-15.3-89.6-29c-3.4-5.2-3.5-11.9-0.4-17.2
				c8.5-15.2,40.6-23.5,66.4-23.5c21.7,0,36.7-9.8,44.7-29.1c6.5-15.6-0.3-37.3-4.1-59.5c-3.3-19.5-1.9-62.1-9.5-69.7L350,3749
				c0,16-1.9,28.5,2,51.6c2.5,14.7,13.4,43,3.1,67.9c-10.4,25.2-30.8,38.5-58.8,38.5c-27.5,0-49.4,9.1-53.1,15.7
				c-0.5,0.5-0.5,1.3,0,1.8c2,3.3,23.7,27.9,215.1,27.9c35.5,0,76.7-0.8,124.8-2.8c97.3-4,173.5-16.6,226.5-37.3
				c41.5-16.3,68.5-37.4,80.3-62.8c21.2-45.6-12.8-83-16.6-100.6l13.7-5.3c3.8,11.4,11.4,18.4,18.4,37.9c9.3,26.2,8.8,52-1.7,74.4
				c-13.5,29.1-43.3,52.9-88.6,70.6c-54.5,21.4-132.3,34.3-231.4,38.3C537.8,3966.8,496,3967.8,458.2,3967.8z"/>
		</g>
	</g>
	<path class="st10" d="M887.3,3595.3c0,0,15.3,46.2-33.1,76.5c-13.5,11.5-4.1,37.8,6.6,34c6.3-2.3,46.4-27.4,49.5-57.8
		C911.3,3637.2,887.3,3595.3,887.3,3595.3z"/>
	
		<ellipse transform="matrix(0.9103 -0.4139 0.4139 0.9103 -1412.6956 703.1761)" class="st2" cx="916.4" cy="3611.7" rx="3.1" ry="7.1"/>
	
		<ellipse transform="matrix(0.9103 -0.4139 0.4139 0.9103 -1415.192 695.9048)" class="st2" cx="898.4" cy="3613.8" rx="3.1" ry="7.1"/>
	<polygon class="st10" points="873.5,3649.8 848.7,3599 845.3,3609.1 813.2,3567.9 810.8,3578.4 783.2,3545.2 785,3576 
		813.1,3603.3 816.7,3586.8 849.2,3625.8 851.5,3616.9 	"/>
	<polygon class="st10" points="904.4,3638.3 900.3,3582 908.3,3588.9 915.4,3537.2 922.7,3545 929.8,3502.4 943.7,3530 
		933.2,3567.7 921.8,3555.3 913.3,3605.3 906.9,3598.7 	"/>
	<path class="st11" d="M912.2,3649.3c-0.9,0-1.9-0.4-2.5-1l-7.8-7.3c-1.4-1.5-1.3-3.9,0.2-5.3c1.4-1.3,3.5-1.3,4.9-0.2l7.8,7.3
		c1.5,1.4,1.6,3.8,0.2,5.3C914.2,3648.9,913.2,3649.3,912.2,3649.3L912.2,3649.3z"/>
	<path class="st10" d="M967.3,3577.9c3.1,3.7,5.8,7.6,8.1,11.8c1.2,2.1,2.2,4.3,3.2,6.5c0.5,1.1,0.8,2.3,1.3,3.4
		c0.4,1.1,0.8,2.3,1.1,3.5c1.4,4.8,2,9.7,2,14.6c-0.1,5-0.9,9.9-2.5,14.7c-3.2,9.5-9.2,17.7-16.4,24.2c-7.2,6.5-15.6,11.4-24.8,14.4
		c8.1-4.8,15.4-10.6,21.9-17.4c6.3-6.7,11.5-14.4,14.3-22.9c1.4-4.3,2.3-8.7,2.5-13.2c0.2-4.5-0.1-9.1-1-13.5l-0.3-1.7
		c-0.1-0.6-0.3-1.1-0.4-1.7c-0.3-1.1-0.6-2.2-0.8-3.3c-0.7-2.2-1.4-4.4-2.3-6.6C971.5,3586.4,969.4,3582.2,967.3,3577.9z"/>
	<path class="st9" d="M942.6,3564.2c0,0,30.5,37.3-8,67.7c-38.5,30.4-4.2,43,4.6,39.2c17.4-7.5,63.9-39.2,28.2-93.2"/>
	<path class="st2" d="M879.7,3744c-3.3,0-6.2-2.2-7.2-5.4c-2.2-7.5-3.9-15.1-5.2-22.9c-3.2-18.5-3.9-37.4-2.1-56.1
		c0.4-4.1,4-7.1,8.1-6.8c4.1,0.4,7.1,4,6.8,8.1c0,0,0,0.1,0,0.1c-2.3,24.7,0,49.6,6.8,73.4c1.1,3.9-1.1,8.1-5.1,9.2
		C881.1,3743.9,880.4,3744,879.7,3744z"/>
	<path class="st11" d="M872.6,3664.1h-0.3c-2-0.2-3.6-2-3.4-4c0,0,0,0,0,0l0.9-10.6c0.2-2,2-3.6,4-3.4c2,0.2,3.6,2,3.4,4l0,0
		l-1,10.6C876.1,3662.7,874.5,3664.1,872.6,3664.1z"/>
	
		<ellipse transform="matrix(0.9239 -0.3827 0.3827 0.9239 -1277.4755 594.261)" class="st11" cx="855" cy="3508.3" rx="26.7" ry="26.7"/>
	<path class="st10" d="M835.2,3511.3c-1.6,0-3-1.3-3-3c0-12.6,10.2-22.9,22.9-22.9l0,0c1.6,0.1,2.9,1.5,2.8,3.1
		c-0.1,1.5-1.3,2.7-2.8,2.8c-9.3,0-16.8,7.5-16.9,16.9C838.2,3509.9,836.9,3511.2,835.2,3511.3
		C835.3,3511.3,835.2,3511.3,835.2,3511.3z"/>
	<path class="st10" d="M951.4,3582.6c0,0,7.4,2.6,1.5,22.5c-3.3,10.6-9.7,20-18.4,26.8c-4.7,3.6-8.9,7.7-12.6,12.4
		c9.9-17,30.7-21.7,26.6-46.8C946.4,3583.8,951.4,3582.6,951.4,3582.6z"/>
	<path class="st2" d="M324.9,3716.2h30.5c5,0,9.1,4.1,9.1,9.1v1.5c0,5-4.1,9.1-9.1,9.1h-30.5c-5,0-9.1-4.1-9.1-9.1v-1.5
		C315.8,3720.3,319.9,3716.2,324.9,3716.2z"/>
	<path class="st2" d="M332.5,3729.9h19c2.9,0,5.3,2.4,5.3,5.3v0c0,2.9-2.4,5.3-5.3,5.3h-19c-2.9,0-5.3-2.4-5.3-5.3v0
		C327.2,3732.3,329.6,3729.9,332.5,3729.9z"/>
</g>
<g id="background_details_4_">
	<circle class="st18" cx="601" cy="26.6" r="161.9"/>
</g>
<g id="background_details_3_">
	<circle class="st19" cx="243.7" cy="-23.7" r="323.4"/>
</g>
<g id="background_details_5_">
	
		<linearGradient id="SVGID_12_" gradientUnits="userSpaceOnUse" x1="-44.9434" y1="-764.673" x2="1455.5286" y2="-764.673" gradientTransform="matrix(0.8464 0 0 -0.8464 94.7257 1702.277)">
		<stop  offset="0" style="stop-color:#50C6DF"/>
		<stop  offset="0.29" style="stop-color:#4FC4DE"/>
		<stop  offset="0.45" style="stop-color:#4EBCDA"/>
		<stop  offset="0.58" style="stop-color:#4BAED3"/>
		<stop  offset="0.69" style="stop-color:#469AC8"/>
		<stop  offset="0.8" style="stop-color:#4081BB"/>
		<stop  offset="0.89" style="stop-color:#3962AB"/>
		<stop  offset="0.97" style="stop-color:#313E99"/>
		<stop  offset="1" style="stop-color:#2E3192"/>
	</linearGradient>
	<path class="st20" d="M-35.4,2398c163-89.9,709.4,156.9,1224.3-221.7c31.2-31.2-46.5,255.2-179.8,244.5
		c-189.7-15.2-301.4-42.3-468.2,77c-71,50.8-567.9,14.4-567.9,14.4S-127.4,2448.8-35.4,2398z"/>
	<path class="st1" d="M48.4,2281.7c179-6.1,444.1,151.6,628.4,72.4c-184.3,92.2-387-28.9-686.3,4.6
		C-190.8,2286.1,29.2,2282.3,48.4,2281.7z"/>
</g>
<g id="Schedule">
	<ellipse class="st6" cx="186.3" cy="2614.8" rx="185.9" ry="48.8"/>
	<path class="st10" d="M298.6,2518.7c11.7,30.9,78.1,90.4,23.7,106.3c-55.2,16.1-28.1-74.2-46.8-104.3
		C282.4,2520.1,291.9,2517.6,298.6,2518.7z"/>
	<path class="st10" d="M273,2649.9c55.4-3.2,34.8-96.6-16.8-75.2C225.1,2587.6,240.5,2651.8,273,2649.9"/>
	<path class="st9" d="M273,2649.9c2.4-0.2,4.7-0.7,7-1.3c2.3-0.6,4.5-1.4,6.6-2.5c4.2-2.1,7.9-5.1,10.7-8.8c2.8-3.7,4.8-8,5.8-12.5
		c1.1-4.5,1.4-9.2,1.1-13.8c-0.8-9.2-4-18.4-9.7-25.5c-2.8-3.6-6.3-6.6-10.3-8.8c-4-2.1-8.4-3.2-12.9-3.3c-2.3,0-4.5,0.2-6.8,0.6
		c-1.1,0.2-2.2,0.5-3.3,0.8c-1.1,0.3-2.2,0.7-3.3,1.1c-2.1,0.8-4.1,1.8-5.9,3.1c-0.5,0.3-0.8,0.7-1.3,1c-0.4,0.3-0.9,0.7-1.2,1.1
		l-1.1,1.2c-0.4,0.4-0.8,0.8-1.1,1.3c-2.8,3.6-4.7,7.8-5.6,12.3c-0.9,4.5-1.2,9.2-0.9,13.8c0.3,4.7,1.2,9.3,2.7,13.7
		c1.4,4.5,3.4,8.7,6.1,12.6c2.6,3.9,5.9,7.3,9.8,9.9C263.6,2648.5,268.3,2649.9,273,2649.9l-1.8,0c-0.6,0.1-1.2,0.1-1.8,0
		c-1.2,0-2.4-0.2-3.5-0.4c-0.6-0.1-1.2-0.2-1.8-0.4l-1.7-0.6l-0.8-0.3l-0.8-0.4l-1.7-0.8c-4.2-2.5-7.9-5.8-10.8-9.8
		c-5.7-8-9.3-17.4-10.2-27.2c-0.5-4.9-0.3-9.9,0.6-14.8c0.9-5,3-9.7,6-13.8c0.8-1,1.6-2,2.5-2.9c0.5-0.5,0.9-0.9,1.4-1.3
		c0.5-0.4,1-0.8,1.5-1.2l1.6-1.1l0.8-0.5c0.3-0.2,0.6-0.3,0.8-0.4c1.1-0.6,2.3-1.1,3.5-1.6c1.1-0.5,2.3-0.8,3.5-1.2s2.4-0.7,3.6-0.9
		c2.5-0.5,5-0.8,7.5-0.7c5.1,0.1,10.1,1.4,14.6,3.8c4.4,2.4,8.3,5.8,11.3,9.8c3,4,5.4,8.4,7,13.1c1.6,4.7,2.6,9.5,2.8,14.5
		c0.3,4.9-0.3,9.9-1.6,14.6c-1.3,4.8-3.6,9.2-6.8,13c-3.2,3.8-7.2,6.7-11.8,8.6c-2.2,0.9-4.6,1.6-6.9,2.1
		C277.9,2649.6,275.5,2649.8,273,2649.9z"/>
	<path class="st9" d="M149.4,2584.5c0,0,8.8,36.7,54.2,72.3c49.8,28.3,62.9-44.4,62.9-44.4s21.8-2.5,42.9-29.4
		c8.9-11.3,17.7-27.1,24.6-48.7c21.9-68.6-17.9-83.5-17.9-83.5c2-0.2,11.8-2.4,18.5-13.7c7.5-12.8-0.3-27.3-2.7-31.7
		c-1-1.9-2.2-3.8-3.6-5.5l-6.8,5.2l-6.7-1.5c0.3,4.1-0.3,8.2-1.6,12.1c-5.9,16.8-25.5,22.3-43.8,30c-45.2,19-79,50.4-95.2,73.2
		C164.6,2532.1,144.6,2561.3,149.4,2584.5z"/>
	<path class="st10" d="M214.7,2653.9c27.3,12.9,38.9-16.2,42.6-29.2c0.2-0.6-0.2-1.2-0.8-1.4c-0.4-0.1-0.9,0-1.2,0.4
		c-6.2,8.5-20.7,25-40.4,28c-0.6,0.1-1,0.7-0.9,1.3C214.1,2653.5,214.4,2653.7,214.7,2653.9z"/>
	<path class="st10" d="M202.4,2590.9c0.6,0.7,19.6,24.5,64,21.6c0,0,20.1,0.2,43-29.5c-7.5,5.8-15.8,10.4-24.6,13.7
		C257.8,2606.9,225.3,2606.3,202.4,2590.9z"/>
	<path class="st10" d="M178.7,2633.1c0,0,16.1-7.3,18.3-25.9c5.3-44.9,17-71.9,17-71.9S168.5,2570.6,178.7,2633.1z"/>
	<path class="st9" d="M187.9,2615.7c-4.6,41.2-86.5,31.1-45.5-34.7c17-27.2,60.5-57.7,64.4-89.5c5.8,1.3,18.9,7.8,23.3,11.6
		C208.1,2535.6,192.3,2576.8,187.9,2615.7z"/>
	
		<ellipse transform="matrix(0.4139 -0.9103 0.9103 0.4139 -2134.5159 1757.2268)" class="st2" cx="297.4" cy="2536.3" rx="10.3" ry="4.5"/>
	<polygon class="st9" points="347,2332.6 312.2,2361.1 266.1,2351.5 301.9,2322.3 	"/>
	<polygon class="st10" points="320.5,2401.4 312.2,2361.1 347,2332.6 356.3,2372.1 	"/>
	<polygon class="st11" points="275.4,2391.1 266.1,2351.5 312.2,2361.1 320.5,2401.4 	"/>
</g>
<linearGradient id="SVGID_13_" gradientUnits="userSpaceOnUse" x1="576.1501" y1="1683.4009" x2="576.1501" y2="3409.7307" gradientTransform="matrix(0.8464 0 0 -0.8464 94.7257 1702.277)">
	<stop  offset="0" style="stop-color:#FEF8C0"/>
	<stop  offset="0.39" style="stop-color:#FEF8C2"/>
	<stop  offset="0.59" style="stop-color:#FEF9CA"/>
	<stop  offset="0.75" style="stop-color:#FEFBD8"/>
	<stop  offset="0.89" style="stop-color:#FFFDEB"/>
	<stop  offset="1" style="stop-color:#FFFFFF"/>
</linearGradient>
<path class="st21" d="M1.1-1183.6c29.4,40.3,1162.6,0,1162.6,0v1059.7c-126.8-75.5-288.8-119.4-452.3-119.4
	c-308.9,0-576.1,290.9-710.3,520.8C1.1-289.9,3.6-946,1.1-1183.6z"/>
<linearGradient id="SVGID_14_" gradientUnits="userSpaceOnUse" x1="576.1501" y1="3854.3953" x2="576.1501" y2="2427.6653" gradientTransform="matrix(0.8464 0 0 -0.8464 94.7257 1702.277)">
	<stop  offset="0" style="stop-color:#FEF8C0"/>
	<stop  offset="0.11" style="stop-color:#FEF0A9"/>
	<stop  offset="0.23" style="stop-color:#FFEA97"/>
	<stop  offset="0.38" style="stop-color:#FFE68A"/>
	<stop  offset="0.57" style="stop-color:#FFE483"/>
	<stop  offset="1" style="stop-color:#FFE381"/>
</linearGradient>
<path class="st22" d="M1163.7-1560c-29.4,40.3-77.9,78.9-106.5,93.3c-8.9,4.4-77.3,32.8-239.5,0c-60.5-12.2-186.3,74.6-246.2,89.1
	c-116.2,28.1-570.5,49.5-570.5,49.5v574.3C127.9-829.3,280-873.2,443.5-873.2c308.9,0,586,290.9,720.2,520.8
	C1163.6-919.9,1161.1-1322.4,1163.7-1560z"/>
<g id="Layer_12">
	<circle class="st2" cx="628.8" cy="-2421.3" r="27.5"/>
</g>
<g id="Layer_12_1_">
	<circle class="st6" cx="297.5" cy="-2232.2" r="23.6"/>
</g>
<g id="Layer_12_2_">
	<circle class="st6" cx="87" cy="-2300.1" r="39.2"/>
</g>
<g id="Layer_12_3_">
	<circle class="st2" cx="86.5" cy="-2059.4" r="32.4"/>
</g>
<g id="Layer_12_15_">
	<circle class="st9" cx="186.6" cy="-279.8" r="21.9"/>
</g>
<g id="Layer_12_16_">
	<circle class="st23" cx="505.8" cy="-6.9" r="20.6"/>
</g>
<g id="Layer_12_17_">
	<circle class="st9" cx="93.2" cy="-157.6" r="20.9"/>
</g>
<g id="Layer_12_18_">
	<circle class="st24" cx="314.8" cy="2.1" r="26.9"/>
</g>
<g id="Layer_12_19_">
	<circle class="st25" cx="128.2" cy="70.5" r="59.7"/>
</g>
<g id="Layer_12_20_">
	<circle class="st25" cx="391" cy="-106.5" r="27.2"/>
</g>
<g id="Layer_12_21_">
	<circle class="st9" cx="406.8" cy="-1222.4" r="20"/>
</g>
<g id="Layer_12_22_">
	<circle class="st9" cx="165.2" cy="-1183.4" r="52.2"/>
</g>
<g id="Layer_12_23_">
	<circle class="st25" cx="179.6" cy="-1319.6" r="37.8"/>
</g>
<g id="SVGgroupcirc">
	<circle class="st25" cx="435.5" cy="-39.2" r="20"/>
	<circle class="st25" cx="268.6" cy="132.2" r="20"/>
	<ellipse class="st9" cx="57" cy="-37.6" rx="49.7" ry="49.4"/>
	
		<ellipse transform="matrix(3.936908e-03 -1 1 3.936908e-03 19.2983 131.6691)" class="st25" cx="75.7" cy="56.1" rx="27.2" ry="27.2"/>
	<circle class="st9" cx="154.2" cy="-59.2" r="40"/>
	<circle class="st25" cx="257.9" cy="6.5" r="56.3"/>
	<circle class="st25" cx="208.3" cy="-136.4" r="37.8"/>
	
		<ellipse transform="matrix(0.9996 -2.937369e-02 2.937369e-02 0.9996 7.8297 2.1011)" class="st25" cx="75.4" cy="-265.4" rx="38.8" ry="38.8"/>
	<circle class="st25" cx="382.6" cy="43.6" r="27.2"/>
</g>
<g id="Layer_12_24_">
	<circle class="st2" cx="391.9" cy="-2406.8" r="27.5"/>
</g>
<g id="SVGgroupcirc_1_">
	<circle class="st9" cx="485.6" cy="-1181.8" r="20.6"/>
	<ellipse class="st9" cx="35.4" cy="-1233" rx="49.7" ry="49.4"/>
	<circle class="st25" cx="47.1" cy="-1127.1" r="27.2"/>
	<circle class="st9" cx="125.5" cy="-1242.4" r="40"/>
	<circle class="st25" cx="229.3" cy="-1176.8" r="56.3"/>
	<circle class="st9" cx="354" cy="-1289" r="27.2"/>
	<circle class="st25" cx="64.5" cy="-1375.9" r="38.8"/>
	
		<ellipse transform="matrix(2.172370e-02 -0.9998 0.9998 2.172370e-02 1367.1061 -1265.998)" class="st9" cx="36.7" cy="-1331.6" rx="20.9" ry="20.9"/>
	<circle class="st9" cx="286.2" cy="-1181.2" r="26.9"/>
	
		<ellipse transform="matrix(2.628851e-02 -0.9997 0.9997 2.628851e-02 1209.3129 -983.9253)" class="st25" cx="99.6" cy="-1112.7" rx="59.7" ry="59.7"/>
	<circle class="st9" cx="354" cy="-1139.6" r="27.2"/>
	<circle class="st9" cx="667.7" cy="-1319.9" r="24.4"/>
	<circle class="st9" cx="962.1" cy="-1367.5" r="63.6"/>
	<ellipse class="st9" cx="1086.2" cy="-1306.9" rx="60.6" ry="60.2"/>
	<circle class="st25" cx="1106.1" cy="-1436" r="33.1"/>
	<circle class="st9" cx="1010.5" cy="-1295.5" r="48.8"/>
	<circle class="st25" cx="884" cy="-1375.5" r="68.6"/>
	<circle class="st9" cx="732" cy="-1238.7" r="33.1"/>
	<circle class="st25" cx="944.6" cy="-1201.4" r="46.1"/>
	<circle class="st25" cx="1106.4" cy="-1044.1" r="47.2"/>
	<circle class="st9" cx="970.8" cy="-1026.6" r="26.7"/>
	<circle class="st9" cx="732" cy="-1420.8" r="33.1"/>
</g>
<g id="SVGgroupcirc_2_">
	
		<rect x="262.7" y="-2468.9" transform="matrix(0.8439 -0.5366 0.5366 0.8439 1360.2725 -234.5637)" class="st26" width="28.8" height="28.8"/>
	<circle class="st2" cx="277.1" cy="-2454.6" r="14.4"/>
	<circle class="st2" cx="353.8" cy="-2465.5" r="20.5"/>
	
		<rect x="176" y="-2472.5" transform="matrix(0.8439 -0.5366 0.5366 0.8439 1349.6338 -283.4741)" class="st26" width="23.5" height="23.5"/>
	<circle class="st2" cx="187.8" cy="-2460.7" r="11.8"/>
	
		<rect x="364.3" y="-2434.3" transform="matrix(0.8439 -0.5366 0.5366 0.8439 1352.5627 -165.5411)" class="st26" width="55.1" height="55.1"/>
	<circle class="st6" cx="309.8" cy="-2446.3" r="36.4"/>
	
		<rect x="187.2" y="-2472.8" transform="matrix(0.8439 -0.5366 0.5366 0.8439 1348.2644 -271.4962)" class="st26" width="40.9" height="40.9"/>
	<circle class="st2" cx="207.7" cy="-2452.4" r="20.5"/>
	
		<rect x="359.1" y="-2492.1" transform="matrix(0.8439 -0.5366 0.5366 0.8439 1381.573 -175.24)" class="st26" width="61.2" height="61.2"/>
	<circle class="st2" cx="389.7" cy="-2461.5" r="30.6"/>
	
		<rect x="217.6" y="-2452.3" transform="matrix(0.8439 -0.5366 0.5366 0.8439 1344.9576 -257.35)" class="st26" width="25.5" height="25.5"/>
	<circle class="st2" cx="230.3" cy="-2439.6" r="12.7"/>
	
		<rect x="281.5" y="-2472.7" transform="matrix(0.8412 -0.5408 0.5408 0.8412 1374.9137 -227.8761)" class="st26" width="36.1" height="36.1"/>
	<circle class="st2" cx="298.3" cy="-2451" r="18.1"/>
	
		<rect x="150.8" y="-2477.6" transform="matrix(0.8439 -0.5366 0.5366 0.8439 1346.4847 -294.2076)" class="st26" width="33.8" height="33.8"/>
	<circle class="st2" cx="167.8" cy="-2460.7" r="16.9"/>
	
		<rect x="888.9" y="-2463.5" transform="matrix(0.8439 -0.5366 0.5366 0.8439 1455.1599 102.2534)" class="st26" width="28.8" height="28.8"/>
	<circle class="st2" cx="903.3" cy="-2449.2" r="14.4"/>
	<circle class="st2" cx="979.9" cy="-2460.2" r="20.5"/>
	
		<rect x="802.2" y="-2467.1" transform="matrix(0.8439 -0.5366 0.5366 0.8439 1444.5212 53.343)" class="st26" width="23.5" height="23.5"/>
	<circle class="st2" cx="813.9" cy="-2455.4" r="11.8"/>
	
		<rect x="990.5" y="-2428.9" transform="matrix(0.8439 -0.5366 0.5366 0.8439 1447.4457 171.2773)" class="st26" width="55.1" height="55.1"/>
	<circle class="st2" cx="1018" cy="-2401.5" r="27.5"/>
	<circle class="st2" cx="936" cy="-2440.9" r="36.4"/>
	
		<rect x="813.4" y="-2467.4" transform="matrix(0.8439 -0.5366 0.5366 0.8439 1443.152 65.3209)" class="st26" width="40.9" height="40.9"/>
	<circle class="st2" cx="833.8" cy="-2447.1" r="20.5"/>
	<circle class="st2" cx="1015.9" cy="-2456.2" r="30.6"/>
	
		<rect x="843.7" y="-2447" transform="matrix(0.8439 -0.5366 0.5366 0.8439 1439.8406 79.4684)" class="st26" width="25.5" height="25.5"/>
	<circle class="st2" cx="856.5" cy="-2434.3" r="12.7"/>
	
		<rect x="906.4" y="-2463.7" transform="matrix(0.8439 -0.5366 0.5366 0.8439 1456.5608 114.1903)" class="st26" width="36.2" height="36.2"/>
	<circle class="st2" cx="924.5" cy="-2445.7" r="18.1"/>
	
		<rect x="777" y="-2472.2" transform="matrix(0.8439 -0.5366 0.5366 0.8439 1441.3722 42.6095)" class="st26" width="33.8" height="33.8"/>
	<circle class="st2" cx="793.9" cy="-2455.4" r="16.9"/>
	
		<rect x="499.6" y="-2483.4" transform="matrix(0.8439 -0.5366 0.5366 0.8439 1405.0216 -109.7052)" class="st26" width="28.8" height="28.8"/>
	<circle class="st2" cx="514" cy="-2469" r="14.4"/>
	<circle class="st2" cx="424.7" cy="-2475.2" r="11.8"/>
	
		<rect x="601.2" y="-2448.7" transform="matrix(0.8439 -0.5366 0.5366 0.8439 1397.3074 -40.6813)" class="st26" width="55.1" height="55.1"/>
	
		<rect x="510.3" y="-2497.1" transform="matrix(0.8439 -0.5366 0.5366 0.8439 1405.6639 -90.8599)" class="st26" width="72.8" height="72.8"/>
	<circle class="st6" cx="546.7" cy="-2460.7" r="36.4"/>
	
		<rect x="424.1" y="-2487.3" transform="matrix(0.8439 -0.5366 0.5366 0.8439 1393.0137 -146.6377)" class="st26" width="40.9" height="40.9"/>
	
		<ellipse transform="matrix(0.9239 -0.3827 0.3827 0.9239 977.8726 -17.6446)" class="st2" cx="444.6" cy="-2466.9" rx="20.5" ry="20.5"/>
	
		<rect x="454.5" y="-2466.8" transform="matrix(0.8439 -0.5366 0.5366 0.8439 1389.7069 -132.4915)" class="st26" width="25.5" height="25.5"/>
	<circle class="st2" cx="467.2" cy="-2454.1" r="12.7"/>
	
		<rect x="517.1" y="-2483.5" transform="matrix(0.8439 -0.5366 0.5366 0.8439 1406.4225 -97.7683)" class="st26" width="36.2" height="36.2"/>
	<circle class="st2" cx="535.2" cy="-2465.5" r="18.1"/>
	
		<rect x="387.7" y="-2492" transform="matrix(0.8439 -0.5366 0.5366 0.8439 1391.2339 -169.3491)" class="st26" width="33.8" height="33.8"/>
	<circle class="st2" cx="404.7" cy="-2475.2" r="16.9"/>
	<rect x="922.5" y="-2479.6" class="st26" width="39.2" height="39.2"/>
	<circle class="st2" cx="942.1" cy="-2460" r="19.6"/>
	<rect x="719.6" y="-2461.6" class="st26" width="46.8" height="46.8"/>
	<circle class="st2" cx="743" cy="-2438.2" r="23.4"/>
	<rect x="201.8" y="-2451.6" class="st26" width="46" height="46"/>
	<circle class="st2" cx="224.8" cy="-2428.6" r="23"/>
	<rect x="334.4" y="-2401.6" class="st26" width="23.9" height="23.9"/>
	<circle class="st2" cx="346.4" cy="-2389.6" r="12"/>
	<rect x="348" y="-2367.9" class="st26" width="44.9" height="44.9"/>
	<circle class="st2" cx="370.5" cy="-2345.4" r="22.5"/>
	<rect x="410.4" y="-2317.1" class="st26" width="28.6" height="28.6"/>
	<circle class="st2" cx="424.7" cy="-2302.8" r="14.3"/>
	<rect x="447.1" y="-2494.5" class="st26" width="75.3" height="75.3"/>
	<circle class="st2" cx="484.7" cy="-2456.8" r="37.7"/>
	<rect x="664.3" y="-2412.6" class="st26" width="39.2" height="39.2"/>
	<circle class="st2" cx="683.9" cy="-2393" r="19.6"/>
	<rect x="461.3" y="-2394.6" class="st26" width="46.8" height="46.8"/>
	<circle class="st2" cx="484.7" cy="-2371.2" r="23.4"/>
	<rect x="109" y="-2438.9" class="st26" width="23.9" height="23.9"/>
	<circle class="st2" cx="120.9" cy="-2426.9" r="12"/>
	<rect x="122.5" y="-2405.2" class="st26" width="44.9" height="44.9"/>
	<circle class="st2" cx="145" cy="-2382.7" r="22.5"/>
	<rect x="184.9" y="-2354.4" class="st26" width="28.6" height="28.6"/>
	<circle class="st2" cx="199.2" cy="-2340.1" r="14.3"/>
	
		<rect x="97.1" y="-2420" transform="matrix(0.8617 -0.5074 0.5074 0.8617 1223.0092 -253.3394)" class="st26" width="99.2" height="99.2"/>
	
		<ellipse transform="matrix(0.9985 -5.530037e-02 5.530037e-02 0.9985 131.3086 4.4855)" class="st6" cx="146.7" cy="-2370.4" rx="49.6" ry="49.6"/>
	
		<rect x="257.6" y="-2385.2" transform="matrix(0.8617 -0.5074 0.5074 0.8617 1235.5381 -181.1157)" class="st26" width="55.7" height="55.7"/>
	<circle class="st6" cx="285.5" cy="-2357.3" r="27.9"/>
	<rect x="115.3" y="-2446.4" class="st26" width="68.8" height="68.8"/>
	<circle class="st6" cx="149.7" cy="-2412" r="34.4"/>
	<rect x="189.2" y="-2464.6" class="st26" width="52.5" height="52.5"/>
	<circle class="st6" cx="215.4" cy="-2438.3" r="26.2"/>
	<rect x="348.4" y="-2344.5" class="st26" width="44.3" height="44.3"/>
	<circle class="st6" cx="370.5" cy="-2322.4" r="22.1"/>
	<rect x="234.8" y="-2361" class="st26" width="43.7" height="43.7"/>
	<circle class="st6" cx="256.6" cy="-2339.2" r="21.8"/>
	<rect x="320" y="-2451.4" class="st26" width="39.2" height="39.2"/>
	<circle class="st2" cx="339.6" cy="-2431.8" r="19.6"/>
	<rect x="117" y="-2433.5" class="st26" width="46.8" height="46.8"/>
	<circle class="st2" cx="140.4" cy="-2410.1" r="23.4"/>
	<circle class="st6" cx="71.9" cy="-2178.7" r="63.2"/>
	<circle class="st6" cx="162" cy="-2210.6" r="53.3"/>
	
		<ellipse transform="matrix(3.327792e-02 -0.9994 0.9994 3.327792e-02 2242.8394 -1815.7378)" class="st6" cx="182.8" cy="-2067.2" rx="38.5" ry="38.5"/>
	<circle class="st6" cx="46.3" cy="-2029.1" r="35"/>
	<circle class="st6" cx="1072.5" cy="-2290.4" r="62.8"/>
	<circle class="st6" cx="78.5" cy="-2387.9" r="62.8"/>
	<circle class="st6" cx="1099.9" cy="-2373.5" r="35.4"/>
	<circle class="st6" cx="833.7" cy="-2365.5" r="27.4"/>
	
		<ellipse transform="matrix(3.327792e-02 -0.9994 0.9994 3.327792e-02 2295.3503 -1959.3978)" class="st2" cx="134.8" cy="-2166.2" rx="35.4" ry="35.4"/>
	<circle class="st2" cx="116.1" cy="-2087" r="19"/>
	<circle class="st2" cx="225.9" cy="-2237.5" r="18.3"/>
	<circle class="st2" cx="765.9" cy="-2418.8" r="51.8"/>
	<circle class="st2" cx="833.7" cy="-2383" r="17.5"/>
	<circle class="st2" cx="717.6" cy="-2427.5" r="15.6"/>
	<circle class="st2" cx="174.9" cy="-2274.9" r="38.5"/>
	
		<ellipse transform="matrix(4.302802e-03 -1 1 4.302802e-03 2280.0981 -2264.8577)" class="st2" cx="2.7" cy="-2277.4" rx="38.5" ry="38.5"/>
	<circle class="st6" cx="990.3" cy="-2363.6" r="43"/>
	<circle class="st2" cx="1050.1" cy="-2296.1" r="24.4"/>
	<circle class="st2" cx="984.2" cy="-2407.7" r="31.6"/>
</g>
<g id="Layer_12_9_">
	<circle class="st2" cx="988.5" cy="-2768.7" r="24.2"/>
</g>
<g id="Layer_12_10_">
	<circle class="st2" cx="1084.6" cy="-2836.3" r="18.4"/>
</g>
<g id="Layer_12_11_">
	<circle class="st2" cx="1091.1" cy="-2898.7" r="24.7"/>
</g>
<g id="Layer_12_12_">
	<circle class="st2" cx="975.4" cy="-2806.6" r="11.4"/>
</g>
<g id="Layer_12_13_">
	<circle class="st2" cx="1149.1" cy="-2798" r="20.3"/>
</g>
<g id="Layer_12_14_">
	<circle class="st6" cx="824" cy="-2827.6" r="15.7"/>
</g>
<g id="Layer_12_4_">
	<circle class="st2" cx="69.7" cy="-2728.6" r="20.6"/>
</g>
<g id="Layer_12_5_">
	
		<ellipse transform="matrix(6.172423e-03 -1 1 6.172423e-03 2741.5073 -2711.2783)" class="st2" cx="6.7" cy="-2734.9" rx="13.1" ry="13.1"/>
</g>
<g id="Layer_12_6_">
	<circle class="st2" cx="197.8" cy="-2669.7" r="21"/>
</g>
<g id="Layer_12_7_">
	<circle class="st6" cx="293.2" cy="-2869.7" r="8.8"/>
</g>
<g id="Layer_12_8_">
	<circle class="st6" cx="156.5" cy="-2756.6" r="38.8"/>
</g>
<g id="background_details_8_">
	
		<linearGradient id="background_30_1_" gradientUnits="userSpaceOnUse" x1="25.5872" y1="5461.9712" x2="25.5872" y2="5859.2104" gradientTransform="matrix(0.84 0.104 0.104 -0.84 -38.4934 1863.7847)">
		<stop  offset="0" style="stop-color:#2E3192"/>
		<stop  offset="5.000000e-02" style="stop-color:#3550A2"/>
		<stop  offset="0.1" style="stop-color:#3C6FB2"/>
		<stop  offset="0.17" style="stop-color:#428BC0"/>
		<stop  offset="0.24" style="stop-color:#47A1CC"/>
		<stop  offset="0.33" style="stop-color:#4BB2D4"/>
		<stop  offset="0.44" style="stop-color:#4EBDDB"/>
		<stop  offset="0.58" style="stop-color:#50C4DE"/>
		<stop  offset="1" style="stop-color:#50C6DF"/>
	</linearGradient>
	<path id="background_30" class="st27" d="M1170.7-2942.3c-22.7-2.8-56.9,11.7-56.9,11.7c2.3-4.8,5.8-12.1,2.7-15
		c-2.2-2.1-10.6,2.9-16.7,6.1c15.1-10.3,24.3-20.7,21.8-25.3c-2.7-4.8-21.1,3.5-36.5,15.7c2.9-3.3,5.8-6.8,8.7-10.6
		c13.9-18.6,20.4-26.4,16.7-30.9c-2.5-3-19.8,7.5-34.3,25.6c1.7-10.5,0.3-18.7-4.2-20.3c-4.1-1.5-8.8,32.8-16.9,28.9
		c-138.6-66.9-263.8-68.7-353.2-28.6c-14-17.9-54.7-19.6-83.3-20c-16-0.3-27.9,12.5-36.4,22.6c0.7-11.4-2.9-21.5-9.7-26.9
		c0.9-1.7,2.1-3.3,3.3-4.8c2.1-2.4,4.6-4.4,7.4-5.9c1.8,5.3,7.5,8.2,12.8,6.5c5.3-1.8,8.2-7.5,6.5-12.8c-1.8-5.3-7.5-8.2-12.8-6.5
		c-3.7,1.2-6.4,4.5-6.9,8.4c-0.1,0.6-0.1,1.1-0.1,1.7c-7.1,0.8-13.7,4.2-18.4,9.7c-12.8-2.5-27.4,8.4-34.2,25.8l0,0
		c-1.7-2-7.6-8.8-14.6-8.1c-6,0.6-10.5,6.4-13.7,12.3c-4.1,0.3-12.1,1.2-13.8,5.8c-1.3,3.4,1.6,7.1,8.3,16
		c14.2,19,14.3,41.7,13.4,42.9c-5.4-13.5-15.6-30.8-19.5-24c-3.3,5.8-2.2,24.7,3.7,32.3c-10.4-5.6-23.7-8.1-7.3,11
		c-6.9-3.1-51.1-16.1-62.6-12c-6,2.2-11.4,5.9-15.5,10.8c-8.2-0.7-16.5-0.4-24.6,1c-10,1.7-19.6,5-28.5,9.7
		c-21.5,0.5-42,9.3-57.1,24.7c-17.6-4.6-36.4-1.4-51.4,8.9c-18.1-5.2-24.7-102.8-42.7-108c-4.3-12.1-14.1-21.2-26-23.7
		c-14.8-3-28.5,5.2-35.8,13.7c-15.6-5.2-39-2.5-54.6,15.8c-12.2-36.1-70.9-48.6-94.3-50.3l-11.8,216.7l1156.1,126.1 M551.3-2993.2
		c-1.7,3.2-4.2,5.1-5.7,4.4s-1.3-4,0.3-7.2c1.7-3.2,4.2-5.1,5.7-4.4C553-2999.6,552.9-2996.4,551.3-2993.2z M566.7-2988.1
		c-1.7,3.2-4.2,5.1-5.7,4.4s-1.3-4,0.3-7.2c1.7-3.2,4.2-5.1,5.7-4.4S568.4-2991.2,566.7-2988.1L566.7-2988.1z"/>
</g>
<g id="background_details_9_">
	
		<linearGradient id="SVGID_15_" gradientUnits="userSpaceOnUse" x1="509.711" y1="5088.9424" x2="509.711" y2="5599.8799" gradientTransform="matrix(0.8464 0 0 -0.8464 94.7257 1702.277)">
		<stop  offset="0" style="stop-color:#2E3192"/>
		<stop  offset="0.15" style="stop-color:#32419B"/>
		<stop  offset="0.46" style="stop-color:#3C6DB1"/>
		<stop  offset="0.88" style="stop-color:#4BB1D4"/>
		<stop  offset="1" style="stop-color:#50C6DF"/>
	</linearGradient>
	<path class="st28" d="M1163.9-2948.5c0,0-46.6-74.5-201.4-47.4c-7.2,1.3-46,11.2-79.7,21.9c-22.3-7-30.3-2.4-30.3-2.4
		c6.1-24.8,0-34.7-4.4-35.3c-4.8-0.6-10.4,4.9-14.8,14.6c-2.2-23-8.4-40.7-14.6-40.3c-6.7,0.4-10.7,21.5-9.1,47.1
		c0.3,4.8,0.8,9.4,1.4,13.7c-10.2-16.8-21-27.4-25.9-24.9c-4.7,2.4-2.7,16.1,4.2,33h0c-6.4-4-11.4-5.5-13.7-3.4
		c-1.3,1.2-1.6,3.4-1,6.3c-28.9-4.3-86.6-9.8-140.6,34.8c-24.5,20.3-35.5,22-45.3,28.1c-1.5-0.6-3.1-1.1-4.6-1.5
		c-11.1-2.8-22.6,0.7-27.4,4.2c-15.5-3-30.1,28.4-136.8,28.4c-75.3,0-93.9-63.5-127.1-71.1c3.6-3.4,4.6-8.8,4-9.2
		c-2-1.6-6.9-0.1-13.3,3.7c7.9-14.7,10.9-26.4,6.7-28.2c-4.5-1.9-15.5,7.7-26.6,22.4c0.9-3.7,1.8-7.6,2.4-11.6
		c3.6-21.7,1.4-39.3-4.9-39.3c-5.8,0-13.2,15.2-17.1,34.8c-3.3-8-8.3-12.8-12.8-11.6c-2.9,0.8-1,7.8,0.2,14.5
		c-7.1-17-35.5-46.5-58.7-46.5c-32.3,0-15.1,47.7-71.9,72.8c-37.8,16.7-56.5,0.5-56.5,0.5c-4-8.2-9-13.1-13.3-12.1
		c-4.7,1.1-7.1,9.1-6.7,19.7c-12.2-19.7-25.6-32.7-30.9-29.6c-5.8,3.3-0.1,24,12.8,46.2c2.4,4.1,4.9,8.1,7.3,11.6
		c-16.6-10.5-31-15.2-34.3-10.8c-3.1,4.2,4.7,15.6,18.4,27.7l0,0c-7.5-0.8-12.6,0.2-13.8,3c-0.8,2,0.4,4.6,3.1,7.6
		c-18.2,17.5-56.4,70.7-77.7,82.9c-8.3,4.7-14.5-2.3-17.5-2.2v122.6l-4.3,68.9l1277.2-10.2l-3.4-79.1"/>
</g>
<g id="SVGgroupcirc_3_">
	
		<rect x="202.5" y="-2757" transform="matrix(0.8439 -0.5366 0.5366 0.8439 1502.8962 -307.2094)" class="st26" width="42.3" height="42.3"/>
	
		<rect x="99.1" y="-2717.2" transform="matrix(0.8439 -0.5366 0.5366 0.8439 1469.2429 -363.4614)" class="st26" width="22" height="22"/>
	<circle class="st2" cx="110.1" cy="-2706.2" r="11"/>
	
		<rect x="49.1" y="-2749.2" transform="matrix(0.8439 -0.5366 0.5366 0.8439 1474.9551 -388.6557)" class="st26" width="41.2" height="41.2"/>
	
		<rect x="-6.4" y="-2748" transform="matrix(0.8439 -0.5366 0.5366 0.8439 1468.4962 -423.4404)" class="st26" width="26.3" height="26.3"/>
	
		<rect x="153" y="-2730.2" transform="matrix(0.8439 -0.5366 0.5366 0.8439 1482.8525 -333.3481)" class="st26" width="31.3" height="31.3"/>
	<circle class="st2" cx="168.7" cy="-2714.6" r="15.6"/>
	
		<rect x="118" y="-2740.5" transform="matrix(0.8439 -0.5366 0.5366 0.8439 1484.8239 -357.2737)" class="st26" width="21.2" height="21.2"/>
	<circle class="st2" cx="128.6" cy="-2729.9" r="10.6"/>
	
		<rect x="32.9" y="-2719.9" transform="matrix(0.8439 -0.5366 0.5366 0.8439 1461.1141 -400.8309)" class="st26" width="18" height="18"/>
	<circle class="st2" cx="41.9" cy="-2710.9" r="9"/>
	
		<rect x="184.8" y="-2758" transform="matrix(0.8439 -0.5366 0.5366 0.8439 1505.2755 -325.2743)" class="st26" width="18" height="18"/>
	<circle class="st2" cx="193.8" cy="-2749.1" r="9"/>
	<g class="st8">
		
			<rect x="176.8" y="-2690.7" transform="matrix(0.8439 -0.5366 0.5366 0.8439 1463.3484 -310.7215)" class="st26" width="42.1" height="42.1"/>
		
			<rect x="107.3" y="-2727.7" transform="matrix(0.8439 -0.5366 0.5366 0.8439 1469.7343 -349.0665)" class="st26" width="55.6" height="55.6"/>
		<circle class="st2" cx="135.1" cy="-2699.9" r="27.8"/>
		
			<rect x="41.4" y="-2720.2" transform="matrix(0.8439 -0.5366 0.5366 0.8439 1460.0674 -391.6806)" class="st26" width="31.3" height="31.3"/>
		<circle class="st2" cx="57.1" cy="-2704.6" r="15.6"/>
	</g>
	<g class="st8">
		
			<rect x="172.8" y="-2734.9" transform="matrix(0.8439 -0.5366 0.5366 0.8439 1485.5184 -318.1291)" class="st26" width="46.8" height="46.8"/>
		<circle class="st2" cx="196.2" cy="-2711.5" r="23.4"/>
	</g>
	
		<rect x="64.6" y="-2704.5" transform="matrix(0.8439 -0.5366 0.5366 0.8439 1457.5403 -380.8644)" class="st26" width="19.5" height="19.5"/>
	<circle class="st2" cx="74.4" cy="-2694.8" r="9.7"/>
	
		<rect x="112.5" y="-2717.3" transform="matrix(0.8439 -0.5366 0.5366 0.8439 1470.3103 -354.3368)" class="st26" width="27.6" height="27.6"/>
	<circle class="st2" cx="126.3" cy="-2703.5" r="13.8"/>
	
		<rect x="241.5" y="-2781.4" transform="matrix(0.8439 -0.5366 0.5366 0.8439 1524.0767 -293.7578)" class="st26" width="31.6" height="31.6"/>
	<circle class="st2" cx="257.3" cy="-2765.6" r="15.8"/>
	<g class="st8">
		
			<rect x="247" y="-2806.6" transform="matrix(0.8439 -0.5366 0.5366 0.8439 1534.1244 -286.7908)" class="st26" width="54.6" height="54.6"/>
		<circle class="st2" cx="274.3" cy="-2779.4" r="27.3"/>
		
			<rect x="220.7" y="-2754.6" transform="matrix(0.8439 -0.5366 0.5366 0.8439 1504.5466 -297.2674)" class="st26" width="41.6" height="41.6"/>
		<circle class="st2" cx="241.5" cy="-2733.8" r="20.8"/>
		
			<rect x="151.2" y="-2764.5" transform="matrix(0.8439 -0.5366 0.5366 0.8439 1501.9559 -341.4323)" class="st26" width="26.2" height="26.2"/>
		<circle class="st2" cx="164.3" cy="-2751.4" r="13.1"/>
		
			<rect x="70.8" y="-2762.9" transform="matrix(0.8439 -0.5366 0.5366 0.8439 1486.8429 -381.2445)" class="st26" width="35.1" height="35.1"/>
		<circle class="st2" cx="88.4" cy="-2745.4" r="17.6"/>
		
			<rect x="13.6" y="-2723.8" transform="matrix(0.8439 -0.5366 0.5366 0.8439 1458.7075 -409.0317)" class="st26" width="25.8" height="25.8"/>
		
			<ellipse transform="matrix(0.9997 -2.378933e-02 2.378933e-02 0.9997 64.498 -0.135)" class="st2" cx="26.6" cy="-2710.9" rx="12.9" ry="12.9"/>
		
			<rect x="13.8" y="-2760" transform="matrix(0.8439 -0.5366 0.5366 0.8439 1476.469 -411.5424)" class="st26" width="34.6" height="34.6"/>
		<circle class="st2" cx="31.1" cy="-2742.7" r="17.3"/>
		
			<rect x="185.5" y="-2785.8" transform="matrix(0.8439 -0.5366 0.5366 0.8439 1517.1597 -323.4344)" class="st26" width="34.6" height="34.6"/>
		
			<ellipse transform="matrix(0.1602 -0.9871 0.9871 0.1602 2903.1812 -2124.8247)" class="st2" cx="202.9" cy="-2768.6" rx="17.3" ry="17.3"/>
	</g>
	<circle class="st6" cx="240.2" cy="-2828.2" r="16.8"/>
	<circle class="st6" cx="344.6" cy="-2845.7" r="4.6"/>
	<circle class="st2" cx="41.4" cy="-2678.9" r="38.8"/>
</g>
<g id="SVGgroupcirc_4_">
	
		<rect x="1128.6" y="-2868" transform="matrix(9.462958e-02 -0.9955 0.9955 9.462958e-02 3874.6753 -1425.9244)" class="st26" width="49.6" height="49.6"/>
	<circle class="st2" cx="1153.4" cy="-2843.2" r="24.8"/>
	
		<rect x="1005.9" y="-2826.6" transform="matrix(9.462958e-02 -0.9955 0.9955 9.462958e-02 3723.53 -1533.2025)" class="st26" width="25.8" height="25.8"/>
	<circle class="st2" cx="1018.9" cy="-2813.7" r="12.9"/>
	
		<rect x="964.3" y="-2792.9" transform="matrix(9.462958e-02 -0.9955 0.9955 9.462958e-02 3651.2395 -1522.6493)" class="st26" width="48.4" height="48.4"/>
	
		<rect x="910.5" y="-2743.9" transform="matrix(9.462958e-02 -0.9955 0.9955 9.462958e-02 3554.6245 -1548.5178)" class="st26" width="30.8" height="30.8"/>
	<circle class="st2" cx="926" cy="-2728.5" r="15.4"/>
	
		<rect x="1066.2" y="-2854.6" transform="matrix(9.462958e-02 -0.9955 0.9955 9.462958e-02 3805.4055 -1488.1813)" class="st26" width="36.7" height="36.7"/>
	
		<rect x="1038.3" y="-2811.2" transform="matrix(9.462958e-02 -0.9955 0.9955 9.462958e-02 3737.5439 -1487.8971)" class="st26" width="24.8" height="24.8"/>
	<circle class="st2" cx="1050.8" cy="-2798.8" r="12.4"/>
	
		<rect x="939.4" y="-2782.9" transform="matrix(9.462958e-02 -0.9955 0.9955 9.462958e-02 3619.9785 -1564.3597)" class="st26" width="21.1" height="21.1"/>
	<circle class="st2" cx="950" cy="-2772.4" r="10.5"/>
	
		<rect x="1118.6" y="-2824.1" transform="matrix(9.462958e-02 -0.9955 0.9955 9.462958e-02 3823.2358 -1423.2039)" class="st26" width="21.1" height="21.1"/>
	<circle class="st2" cx="1129.2" cy="-2813.5" r="10.5"/>
	<g class="st8">
		
			<rect x="1066.4" y="-2923.4" transform="matrix(9.462958e-02 -0.9955 0.9955 9.462958e-02 3873.5085 -1538.1718)" class="st26" width="49.4" height="49.4"/>
		
			<rect x="1008.9" y="-2866.4" transform="matrix(9.462958e-02 -0.9955 0.9955 9.462958e-02 3764.0054 -1528.6329)" class="st26" width="65.3" height="65.3"/>
		<circle class="st2" cx="1041.6" cy="-2833.7" r="32.7"/>
		
			<rect x="944.1" y="-2805.5" transform="matrix(9.462958e-02 -0.9955 0.9955 9.462958e-02 3646.0083 -1565.2771)" class="st26" width="36.7" height="36.7"/>
		<circle class="st2" cx="962.5" cy="-2787.1" r="18.3"/>
	</g>
	<g class="st8">
		
			<rect x="1084.2" y="-2881.5" transform="matrix(9.462958e-02 -0.9955 0.9955 9.462958e-02 3847.7153 -1477.3157)" class="st26" width="54.9" height="54.9"/>
		<circle class="st2" cx="1111.7" cy="-2854.1" r="27.5"/>
	</g>
	
		<rect x="882.9" y="-2723" transform="matrix(9.462958e-02 -0.9955 0.9955 9.462958e-02 3509.1641 -1565.0356)" class="st26" width="22.5" height="22.5"/>
	<circle class="st2" cx="894.2" cy="-2711.8" r="11.2"/>
	
		<rect x="963.9" y="-2818" transform="matrix(9.462958e-02 -0.9955 0.9955 9.462958e-02 3677.0386 -1570.0115)" class="st26" width="22.9" height="22.9"/>
	
		<rect x="1018.1" y="-2841.5" transform="matrix(9.462958e-02 -0.9955 0.9955 9.462958e-02 3749.0078 -1528.1704)" class="st26" width="32.5" height="32.5"/>
	<circle class="st2" cx="1034.4" cy="-2825.2" r="16.2"/>
	<g class="st8">
		
			<rect x="1146.5" y="-2879.4" transform="matrix(9.462958e-02 -0.9955 0.9955 9.462958e-02 3902.3391 -1419.0865)" class="st26" width="48.9" height="48.9"/>
		<circle class="st2" cx="1171" cy="-2855" r="24.4"/>
		
			<rect x="1084.3" y="-2810.8" transform="matrix(9.462958e-02 -0.9955 0.9955 9.462958e-02 3778.4153 -1436.1166)" class="st26" width="30.8" height="30.8"/>
		<circle class="st2" cx="1099.7" cy="-2795.3" r="15.4"/>
		
			<rect x="996.3" y="-2781.8" transform="matrix(9.462958e-02 -0.9955 0.9955 9.462958e-02 3669.5195 -1487.5066)" class="st26" width="41.2" height="41.2"/>
		<circle class="st2" cx="1017" cy="-2761.2" r="20.6"/>
		
			<rect x="918.7" y="-2779.4" transform="matrix(9.462958e-02 -0.9955 0.9955 9.462958e-02 3597.4023 -1572.9443)" class="st26" width="30.4" height="30.4"/>
		<circle class="st2" cx="934" cy="-2764.2" r="15.2"/>
		
			<rect x="935.3" y="-2753.8" transform="matrix(9.462958e-02 -0.9955 0.9955 9.462958e-02 3586.3989 -1523.4188)" class="st26" width="40.7" height="40.7"/>
		<circle class="st2" cx="955.7" cy="-2733.4" r="20.3"/>
		
			<rect x="1128.8" y="-2818.3" transform="matrix(9.462958e-02 -0.9955 0.9955 9.462958e-02 3825.8057 -1389.2854)" class="st26" width="40.7" height="40.7"/>
	</g>
	<circle class="st6" cx="1078.5" cy="-2732.3" r="72.2"/>
	<circle class="st6" cx="871.7" cy="-2755.9" r="44.9"/>
</g>
<g id="background_details_10_">
	<path id="highlight" class="st9" d="M129.4-3068.7c0,26.1-21.1,47.2-47.2,47.2c-6.6,0-13.1-1.4-19.2-4.1
		c-2.6,10.9-13.5,17.6-24.3,15c-10.9-2.6-17.6-13.5-15-24.3c1.8-7.5,7.7-13.3,15.2-15c-10.3-23.9,0.7-51.7,24.6-62.1
		c23.9-10.3,51.7,0.7,62.1,24.6C128.1-3081.5,129.4-3075.2,129.4-3068.7L129.4-3068.7z"/>
</g>
<g id="background_details_11_">
	
		<linearGradient id="SVGID_16_" gradientUnits="userSpaceOnUse" x1="604.3347" y1="-3497.0122" x2="604.3347" y2="-2958.2312" gradientTransform="matrix(0.8464 0 0 -0.8464 94.7257 1702.277)">
		<stop  offset="0" style="stop-color:#50C6DF;stop-opacity:0.5"/>
		<stop  offset="0.44" style="stop-color:#50C6DF;stop-opacity:0.51"/>
		<stop  offset="0.6" style="stop-color:#50C6DF;stop-opacity:0.54"/>
		<stop  offset="0.71" style="stop-color:#50C6DF;stop-opacity:0.59"/>
		<stop  offset="0.8" style="stop-color:#50C6DF;stop-opacity:0.67"/>
		<stop  offset="0.88" style="stop-color:#50C6DF;stop-opacity:0.77"/>
		<stop  offset="0.95" style="stop-color:#50C6DF;stop-opacity:0.89"/>
		<stop  offset="1" style="stop-color:#50C6DF"/>
	</linearGradient>
	<path class="st29" d="M1005.8,4662c59.4-351.2-163.8-426.3-264-411.9c-2.1,0.3-4.2,0.6-6.3,1c3.1-4.7,4.3-8.5,3-9.8
		c-1.4-1.3-5.4,0.2-10.4,3.7c7.7-19.1,10.4-35.5,6-37.5c-4.2-1.8-13.3,9.9-21.4,26.9c3.4-14.4,3.2-26.1-0.5-27.2
		c-4.1-1.1-11.1,11.3-15.6,27.7c-0.8,2.8-1.4,5.6-1.9,8.2c-1.1-8-3.2-13.5-5.6-13.5c-2.2,0-4,4.7-4.9,11.5c-2.9-0.4-5.9-0.6-8.8-0.6
		c-0.3,0-0.5,0-0.8,0c-2.7-13.3-7.1-22.9-10.8-22.4c-3.6,0.5-5.3,11.1-4.1,24.7c-5.2,1.4-10.2,3.3-15,5.7c0.1-4.2-0.1-8.4-0.4-12.6
		c-1.5-16.9-6.2-30.4-10.4-30s-6.5,14.4-5,31.3c0.3,2.9,0.6,5.7,1,8.4c-3.8-7.2-7.7-11.6-10-10.7c-3.1,1.2-1.7,12.1,3,24.3
		c0.3,0.8,0.6,1.5,0.9,2.2c-0.7-1-1.4-2-2.2-3c-8.5-11.5-17.6-19.7-22.3-20.5c-1.5-1.1-2.8-1.5-3.7-1.1c-3.1,1.6-0.6,13,5.7,25.5
		c1.1,2.2,2.2,4.2,3.3,6.1c-5.1-4.3-9.4-6.5-10.9-5.2c-2,1.8,2.4,9.8,9.7,17.7c0.2,0.3,0.5,0.5,0.7,0.7c-1.1,1.4-2.3,2.8-3.4,4.2
		l-0.2,0.2c-1.6-1.5-3.3-3-5.1-4.6c-10.7-9-21.3-14.1-23.5-11.4c-2.3,2.7,4.6,12.2,15.4,21.2c2.2,1.8,4.3,3.5,6.4,4.9
		c-1,1.7-2,3.3-2.9,5c-2.6-3.9-9-9.3-17-14.2c-11.9-7.3-23.1-10.9-24.9-7.9c-1.8,3,6.3,11.4,18.2,18.7c2,1.3,4.1,2.4,6,3.4
		c-6.6-1-11.5-0.6-12,1.3c-0.7,2.6,7.1,7.1,17.5,9.9l-0.7,0.5h-0.4c-14-0.1-25.3,2.7-25.4,6.2c0,2,3.8,3.9,9.8,5.1
		c-29.9,22.3-165.7,196.1-365.3,227.3L1005.8,4662z"/>
</g>
<g id="background_details_12_">
	
		<linearGradient id="SVGID_17_" gradientUnits="userSpaceOnUse" x1="552.0755" y1="-3711.0908" x2="552.0755" y2="-3015.8213" gradientTransform="matrix(0.8464 0 0 -0.8464 94.7257 1702.277)">
		<stop  offset="0" style="stop-color:#50C6DF"/>
		<stop  offset="1.000000e-02" style="stop-color:#50C4DE"/>
		<stop  offset="0.25" style="stop-color:#4490C3"/>
		<stop  offset="0.48" style="stop-color:#3A67AE"/>
		<stop  offset="0.69" style="stop-color:#34499F"/>
		<stop  offset="0.87" style="stop-color:#2F3795"/>
		<stop  offset="1" style="stop-color:#2E3192"/>
	</linearGradient>
	<path class="st30" d="M1124.3,4518.1c-25.5-53.8-179.1-12.7-236.1-29.7c-45.9-13.6-126.2-70.5-172.2-83.8
		c-18.6-5.4-45-7.7-73.4-9.3c7.2-7.3,11-13.8,9.1-16.2c-2.6-3.2-14.7,2.2-27,12.1c-1.2,1-2.4,2-3.6,3c-8.5-0.4-17.1-0.8-25.6-1.2
		c4.4-5.2,8.2-10.9,11.3-17c7.3-14,10.2-27,6.5-28.9c-3.6-1.9-12.6,7.9-19.8,22c-4.8,9.2-7.7,17.9-8.1,23.4
		c-6.2-0.3-12.3-0.7-18.2-1.2c2.6-6,4.4-12.3,5.6-18.8c2.9-15.5,2-28.8-2.1-29.5c-4.1-0.8-9.7,11.2-12.7,26.8
		c-1.4,6.8-1.9,13.7-1.5,20.6c-9.3-0.8-18.1-1.9-26.3-3.1c-0.7-5.3-1.9-10.6-3.6-15.7c-4.7-15.1-11.8-26.3-15.7-25.1
		c-4,1.2-3.3,14.5,1.4,29.6c0.9,2.9,1.9,5.7,3,8.3c-4.2-1-8.4-2.1-12.5-3.5c-48.4-16.6-125.7-91.6-174.4-107.4
		c-76.7-24.9-317.1,53.3-330-18.8l-2.3,588.5c0,0,465.4-21.3,570.8-49.4c54.3-14.5,168.3-101.3,223.2-89.1
		c147,32.8,209.1,4.4,217.1,0C1055.2,4678,1147.8,4567.9,1124.3,4518.1z"/>
</g>
<g id="background_details_13_">
	
		<linearGradient id="SVGID_18_" gradientUnits="userSpaceOnUse" x1="767.386" y1="-3837.2681" x2="767.386" y2="-3298.4873" gradientTransform="matrix(0.8464 0 0 -0.8464 94.7257 1702.277)">
		<stop  offset="0" style="stop-color:#50C6DF;stop-opacity:0.5"/>
		<stop  offset="0.44" style="stop-color:#50C6DF;stop-opacity:0.51"/>
		<stop  offset="0.6" style="stop-color:#50C6DF;stop-opacity:0.54"/>
		<stop  offset="0.71" style="stop-color:#50C6DF;stop-opacity:0.59"/>
		<stop  offset="0.8" style="stop-color:#50C6DF;stop-opacity:0.67"/>
		<stop  offset="0.88" style="stop-color:#50C6DF;stop-opacity:0.77"/>
		<stop  offset="0.95" style="stop-color:#50C6DF;stop-opacity:0.89"/>
		<stop  offset="1" style="stop-color:#50C6DF"/>
	</linearGradient>
	<path class="st31" d="M1143.8,4950c59.4-351.2-163.8-426.3-264-411.9c-2.1,0.3-4.2,0.6-6.3,1c3.1-4.7,4.3-8.5,3-9.8
		c-1.4-1.3-5.4,0.2-10.4,3.7c7.7-19.1,10.4-35.5,6-37.5c-4.2-1.8-13.3,9.9-21.4,26.9c3.4-14.4,3.2-26.1-0.5-27.2
		c-4.1-1.1-11.1,11.3-15.6,27.7c-0.8,2.8-1.4,5.6-1.9,8.2c-1.1-8-3.2-13.5-5.6-13.5c-2.2,0-4,4.7-4.9,11.5c-2.9-0.4-5.9-0.6-8.8-0.6
		c-0.3,0-0.5,0-0.8,0c-2.7-13.3-7.1-22.9-10.8-22.4c-3.6,0.5-5.3,11.1-4.1,24.7c-5.2,1.4-10.2,3.3-15,5.7c0.1-4.2-0.1-8.4-0.4-12.6
		c-1.5-16.9-6.2-30.4-10.4-30s-6.5,14.4-5,31.3c0.3,2.9,0.6,5.7,1,8.4c-3.8-7.2-7.7-11.6-10-10.7c-3.1,1.2-1.7,12.1,3,24.3
		c0.3,0.8,0.6,1.5,0.9,2.2c-0.7-1-1.4-2-2.2-3c-8.5-11.5-17.6-19.7-22.3-20.5c-1.5-1.1-2.8-1.5-3.7-1.1c-3.1,1.6-0.6,13,5.7,25.5
		c1.1,2.2,2.2,4.2,3.3,6.1c-5.1-4.3-9.4-6.5-10.9-5.2c-2,1.8,2.4,9.8,9.7,17.7c0.2,0.3,0.5,0.5,0.7,0.7c-1.1,1.4-2.3,2.8-3.4,4.2
		l-0.2,0.2c-1.6-1.5-3.3-3-5.1-4.6c-10.7-9-21.3-14.1-23.5-11.4c-2.3,2.7,4.6,12.2,15.4,21.2c2.2,1.8,4.3,3.5,6.4,4.9
		c-1,1.7-2,3.3-2.9,5c-2.6-3.9-9-9.3-17-14.2c-11.9-7.3-23.1-10.9-24.9-7.9s6.3,11.4,18.2,18.7c2,1.3,4.1,2.4,6,3.4
		c-6.6-1-11.5-0.6-12,1.3c-0.7,2.6,7.1,7.1,17.5,9.9l-0.7,0.5h-0.4c-14-0.1-25.3,2.7-25.4,6.2c0,2,3.8,3.9,9.8,5.1
		c-29.9,22.3-165.7,196.1-365.3,227.3L1143.8,4950z"/>
</g>
</svg>
