<?xml version="1.0" encoding="utf-8"?>
<!-- Generator: Adobe Illustrator 22.0.1, SVG Export Plug-In . SVG Version: 6.00 Build 0)  -->
<svg version="1.1" id="Layer_1" xmlns="http://www.w3.org/2000/svg" xmlns:xlink="http://www.w3.org/1999/xlink" x="0px" y="0px"
	 viewBox="0 0 217.9 221.6" style="enable-background:new 0 0 217.9 221.6;" xml:space="preserve">
<style type="text/css">
	.st0{fill:#2E3192;}
	.st1{fill:url(#SVGID_1_);}
	.st2{fill:#50C6DF;}
	.st3{fill:#2E3192;stroke:url(#SVGID_2_);stroke-width:0.6;stroke-miterlimit:10;}
	.st4{fill:#FFE381;}
	.st5{font-family:'TitlingGothicFBNormal-Standard';}
	.st6{font-size:22.4542px;}
	.st7{font-family:'Arial-BoldMT';}
	
		.st8{opacity:0.5;fill:none;stroke:#50C6DF;stroke-width:11.4;stroke-linecap:round;stroke-miterlimit:10;enable-background:new    ;}
	
		.st9{opacity:0.75;fill:none;stroke:#50C6DF;stroke-width:11.4;stroke-linecap:round;stroke-miterlimit:10;enable-background:new    ;}
	.st10{opacity:0.25;fill:#50C6DF;enable-background:new    ;}
</style>
<title>button</title>
<g id="Partners">
	<circle class="st0" cx="108.9" cy="112.8" r="108.3"/>
	
		<linearGradient id="SVGID_1_" gradientUnits="userSpaceOnUse" x1="33.4927" y1="6833.2627" x2="278.6486" y2="6833.2627" gradientTransform="matrix(0.8464 0 0 0.8464 -23.0982 -5670.8735)">
		<stop  offset="0" style="stop-color:#50C6DF"/>
		<stop  offset="1.000000e-02" style="stop-color:#50C4DE"/>
		<stop  offset="0.25" style="stop-color:#4490C3"/>
		<stop  offset="0.48" style="stop-color:#3A67AE"/>
		<stop  offset="0.69" style="stop-color:#34499F"/>
		<stop  offset="0.87" style="stop-color:#2F3795"/>
		<stop  offset="1" style="stop-color:#2E3192"/>
	</linearGradient>
	<path class="st1" d="M212.8,112.8c0,57.3-46.4,103.7-103.7,103.7S5.3,170.1,5.3,112.8S51.8,9.1,108.9,9.1
		C166.2,9.2,212.7,55.5,212.8,112.8 M207.4,112.8c0-54.3-44-98.4-98.4-98.4s-98.4,44-98.4,98.4c0,54.3,44,98.4,98.4,98.4l0,0
		C163.4,211.1,207.4,167.1,207.4,112.8"/>
	<path class="st2" d="M212.8,112.8c0,57.3-46.4,103.8-103.7,103.8c-13.6,0-27.1-2.7-39.7-7.9c-53-21.9-78.2-82.6-56.2-135.6
		C35,20.2,95.7-5,148.7,16.9c25.4,10.5,45.7,30.7,56.2,56.2C210.1,85.7,212.8,99.2,212.8,112.8c0-57.2-46.3-103.5-103.4-103.6
		S5.8,55.5,5.7,112.7c0,57.2,46.3,103.5,103.4,103.6c41.8,0,79.6-25.1,95.6-63.8C210.1,139.9,212.8,126.4,212.8,112.8z"/>
	<path class="st2" d="M207.4,112.8c0.1-54.2-43.8-98.3-98-98.3C55.2,14.4,11,58.3,11,112.5c-0.1,54.2,43.8,98.3,98,98.3
		c39.7,0.1,75.5-23.8,90.8-60.4C204.8,138.5,207.4,125.7,207.4,112.8c-0.1,54.3-44.2,98.3-98.5,98.2s-98.2-44.2-98.1-98.5
		c0-54.3,44.1-98.2,98.4-98.2c39.8,0.1,75.6,24.1,90.7,60.8C204.9,87.1,207.4,99.9,207.4,112.8z"/>
	
		<linearGradient id="SVGID_2_" gradientUnits="userSpaceOnUse" x1="79.2765" y1="6910.0024" x2="232.7466" y2="6756.5229" gradientTransform="matrix(0.8464 0 0 0.8464 -23.0982 -5670.8735)">
		<stop  offset="0" style="stop-color:#50C6DF"/>
		<stop  offset="1.000000e-02" style="stop-color:#50C4DE"/>
		<stop  offset="0.25" style="stop-color:#4490C3"/>
		<stop  offset="0.48" style="stop-color:#3A67AE"/>
		<stop  offset="0.69" style="stop-color:#34499F"/>
		<stop  offset="0.87" style="stop-color:#2F3795"/>
		<stop  offset="1" style="stop-color:#2E3192"/>
	</linearGradient>
	<circle class="st3" cx="108.9" cy="112.8" r="91.6"/>
	<text transform="matrix(1 0 0 1 57.3063 94.4805)" class="st4 st5 st6">Become</text>
	<text transform="matrix(1 0 0 1 100.4964 121.4287)" class="st4 st5 st6">a</text>
	<text transform="matrix(1 0 0 1 70.9966 148.3689)" class="st4 st7 st6">Partner</text>
	<path class="st8" d="M102.9,25.5c-2.5,0.2-5,0.5-7.5,0.9"/>
	<path class="st9" d="M183.8,157.1c24.9-41,11.9-94.4-29.1-119.3c-11.9-7.2-25.4-11.5-39.3-12.4"/>
	<circle class="st10" cx="82.9" cy="31" r="4.8"/>
</g>
</svg>
