<?xml version="1.0" encoding="utf-8"?>
<!-- Generator: Adobe Illustrator 22.0.1, SVG Export Plug-In . SVG Version: 6.00 Build 0)  -->
<svg version="1.1" id="Layer_1" xmlns="http://www.w3.org/2000/svg" xmlns:xlink="http://www.w3.org/1999/xlink" x="0px" y="0px"
	 viewBox="0 0 217.9 221.6" style="enable-background:new 0 0 217.9 221.6;" xml:space="preserve">
<style type="text/css">
	.st0{fill:#2E3192;}
	.st1{fill:url(#SVGID_1_);}
	.st2{fill:#50C6DF;}
	.st3{fill:#2E3192;stroke:url(#SVGID_2_);stroke-width:0.6;stroke-miterlimit:10;}
	.st4{fill:#FFE381;}
	.st5{font-family:'Arial-BoldMT';}
	.st6{font-size:22.4542px;}
	
		.st7{opacity:0.5;fill:none;stroke:#50C6DF;stroke-width:11.4;stroke-linecap:round;stroke-miterlimit:10;enable-background:new    ;}
	
		.st8{opacity:0.75;fill:none;stroke:#50C6DF;stroke-width:11.4;stroke-linecap:round;stroke-miterlimit:10;enable-background:new    ;}
	.st9{opacity:0.25;fill:#50C6DF;enable-background:new    ;}
</style>
<title>button</title>
<g id="Partners">
	<circle class="st0" cx="108.1" cy="112.8" r="108.3"/>
	
		<linearGradient id="SVGID_1_" gradientUnits="userSpaceOnUse" x1="-65.1117" y1="-5754.3335" x2="179.9683" y2="-5754.3335" gradientTransform="matrix(0.8464 0 0 -0.8464 59.5386 -4757.4912)">
		<stop  offset="0" style="stop-color:#50C6DF"/>
		<stop  offset="1.000000e-02" style="stop-color:#50C4DE"/>
		<stop  offset="0.25" style="stop-color:#4490C3"/>
		<stop  offset="0.48" style="stop-color:#3A67AE"/>
		<stop  offset="0.69" style="stop-color:#34499F"/>
		<stop  offset="0.87" style="stop-color:#2F3795"/>
		<stop  offset="1" style="stop-color:#2E3192"/>
	</linearGradient>
	<path class="st1" d="M211.9,112.8c0,57.3-46.4,103.7-103.7,103.7S4.4,170.1,4.4,112.8C4.4,55.5,50.9,9.1,108.1,9.1
		C165.4,9.2,211.8,55.5,211.9,112.8 M206.5,112.8c0-54.3-44-98.4-98.4-98.4s-98.4,44-98.4,98.4c0,54.3,44,98.4,98.4,98.4
		c0,0,0,0,0,0C162.5,211.1,206.5,167.1,206.5,112.8"/>
	<path class="st2" d="M211.9,112.8c0,57.3-46.4,103.8-103.7,103.8c-13.6,0-27.1-2.7-39.7-7.9c-53-21.9-78.2-82.6-56.2-135.6
		C34.1,20.2,94.8-5,147.8,16.9c25.4,10.5,45.7,30.7,56.2,56.2C209.2,85.7,211.9,99.2,211.9,112.8c0-57.2-46.3-103.5-103.4-103.6
		S4.9,55.5,4.8,112.7c0,57.2,46.3,103.5,103.4,103.6c41.8,0,79.6-25.1,95.6-63.8C209.2,139.9,211.9,126.4,211.9,112.8z"/>
	<path class="st2" d="M206.5,112.8c0.1-54.2-43.8-98.3-98-98.3c-54.2-0.1-98.3,43.8-98.3,98c-0.1,54.2,43.8,98.3,98,98.3
		c39.7,0.1,75.5-23.8,90.8-60.4C203.9,138.5,206.5,125.7,206.5,112.8c-0.1,54.3-44.2,98.3-98.5,98.2S9.8,166.8,9.9,112.5
		C9.9,58.2,54,14.3,108.3,14.3c39.8,0.1,75.6,24.1,90.7,60.8C204,87.1,206.5,99.9,206.5,112.8z"/>
	
		<linearGradient id="SVGID_2_" gradientUnits="userSpaceOnUse" x1="-19.2692" y1="-5831.0356" x2="134.1257" y2="-5677.6313" gradientTransform="matrix(0.8464 0 0 -0.8464 59.5386 -4757.4912)">
		<stop  offset="0" style="stop-color:#50C6DF"/>
		<stop  offset="1.000000e-02" style="stop-color:#50C4DE"/>
		<stop  offset="0.25" style="stop-color:#4490C3"/>
		<stop  offset="0.48" style="stop-color:#3A67AE"/>
		<stop  offset="0.69" style="stop-color:#34499F"/>
		<stop  offset="0.87" style="stop-color:#2F3795"/>
		<stop  offset="1" style="stop-color:#2E3192"/>
	</linearGradient>
	<circle class="st3" cx="108.1" cy="112.8" r="91.6"/>
	<text transform="matrix(1 0 0 1 53.1469 94.4805)" class="st4 st5 st6">Become</text>
	<text transform="matrix(1 0 0 1 99.6464 121.4287)" class="st4 st5 st6">a</text>
	<text transform="matrix(1 0 0 1 56.4565 148.3691)" class="st4 st5 st6">P</text>
	<text transform="matrix(1 0 0 1 74.4672 148.3691)" class="st4 st5 st6">a</text>
	<text transform="matrix(1 0 0 1 90.9711 148.3691)" class="st4 st5 st6">r</text>
	<text transform="matrix(1 0 0 1 103.8783 148.3691)" class="st4 st5 st6">tner</text>
	<path class="st7" d="M102.1,25.5c-2.5,0.2-5,0.5-7.5,0.9"/>
	<path class="st8" d="M182.9,157.1c24.9-41,11.9-94.4-29.1-119.3c-11.9-7.2-25.4-11.5-39.3-12.4"/>
	<circle class="st9" cx="82.1" cy="31" r="4.8"/>
</g>
</svg>
