<?xml version="1.0" encoding="utf-8"?>
<!-- Generator: Adobe Illustrator 22.0.1, SVG Export Plug-In . SVG Version: 6.00 Build 0)  -->
<svg version="1.1" id="Layer_1" xmlns="http://www.w3.org/2000/svg" xmlns:xlink="http://www.w3.org/1999/xlink" x="0px" y="0px"
	 viewBox="0 0 1160.9 926.4" style="enable-background:new 0 0 1160.9 926.4;" xml:space="preserve">
<style type="text/css">
	.st0{fill:#50C6DF;}
	.st1{opacity:0.5;fill:#50C6DF;enable-background:new    ;}
	.st2{fill:#2E3192;}
	.st3{clip-path:url(#SVGID_2_);}
	.st4{fill:url(#SVGID_3_);}
	.st5{fill:url(#SVGID_4_);}
	.st6{opacity:0.5;fill:#2E3192;enable-background:new    ;}
	.st7{opacity:0.5;fill:url(#SVGID_5_);enable-background:new    ;}
	.st8{opacity:0.3;}
	.st9{fill:#FEF8C0;}
	.st10{fill:#FFE381;}
	.st11{fill:#F78D36;}
	.st12{opacity:0.75;fill:#2E3192;enable-background:new    ;}
	.st13{opacity:0.5;fill:url(#SVGID_6_);enable-background:new    ;}
	.st14{opacity:0.5;fill:url(#SVGID_7_);enable-background:new    ;}
	.st15{fill:url(#SVGID_8_);stroke:#FFE381;stroke-width:2.7;stroke-miterlimit:10;}
	.st16{clip-path:url(#SVGID_10_);}
	.st17{fill:url(#SVGID_11_);}
	.st18{opacity:0.5;fill:#F78D36;enable-background:new    ;}
	.st19{opacity:0.5;fill:#FFE381;enable-background:new    ;}
	.st20{opacity:0.85;fill:url(#SVGID_12_);enable-background:new    ;}
	.st21{fill:url(#SVGID_13_);}
	.st22{fill:url(#SVGID_14_);}
	.st23{opacity:0.25;fill:#FEF8C0;enable-background:new    ;}
	.st24{opacity:0.75;fill:#FEF8C0;enable-background:new    ;}
	.st25{opacity:0.5;fill:#FEF8C0;enable-background:new    ;}
	.st26{fill:none;}
	.st27{opacity:0.3;fill:url(#background_30_1_);enable-background:new    ;}
	.st28{fill:url(#SVGID_15_);}
	.st29{fill:url(#SVGID_16_);}
	.st30{opacity:0.5;fill:url(#SVGID_17_);enable-background:new    ;}
	.st31{fill:url(#SVGID_18_);}
</style>
<rect x="1.1" y="6370.9" class="st0" width="1162.6" height="1158"/>
<path class="st1" d="M1163.7,6114.9c0,82.9-228.2-0.5-307.1,25.1c-48.7,15.8-139.7,88.5-188.1,105.1
	c-50.7,17.4-57.4,23.9-108.9,38.8c-46,13.3-216.9,57.2-262.8,70.8c-57,16.9-275.8,13.2-301.3,66.9
	c-23.6,49.8,134.2,122.7,182.5,149.4c69.5,38.4,239.9-16.1,317.6,0c55,11.4,152.1,74.6,206.4,89.1c105.4,28.1,461.4,49.5,461.4,49.5
	"/>
<rect x="1.1" y="-4" class="st0" width="1162.6" height="1179.2"/>
<path class="st2" d="M442.7-0.2c312.8,0,587.9,160.1,720.9,393.9V-669H1.1v788.2C128.2,43.7,278.8-0.2,442.7-0.2z"/>
<g>
	<g>
		<defs>
			<rect id="SVGID_1_" x="1.1" y="4602.9" width="1162.6" height="1822.1"/>
		</defs>
		<clipPath id="SVGID_2_">
			<use xlink:href="#SVGID_1_"  style="overflow:visible;"/>
		</clipPath>
		<g class="st3">
			
				<linearGradient id="SVGID_3_" gradientUnits="userSpaceOnUse" x1="588.3335" y1="-775.9186" x2="588.3335" y2="1206.7137" gradientTransform="matrix(0.8464 0 0 0.8464 84.4345 5391.4375)">
				<stop  offset="0" style="stop-color:#FEF8C0;stop-opacity:0"/>
				<stop  offset="2.000000e-02" style="stop-color:#FEF8C0;stop-opacity:5.000000e-02"/>
				<stop  offset="9.000000e-02" style="stop-color:#FEF8C0;stop-opacity:0.27"/>
				<stop  offset="0.17" style="stop-color:#FEF8C0;stop-opacity:0.47"/>
				<stop  offset="0.25" style="stop-color:#FEF8C0;stop-opacity:0.63"/>
				<stop  offset="0.33" style="stop-color:#FEF8C0;stop-opacity:0.76"/>
				<stop  offset="0.41" style="stop-color:#FEF8C0;stop-opacity:0.87"/>
				<stop  offset="0.49" style="stop-color:#FEF8C0;stop-opacity:0.94"/>
				<stop  offset="0.57" style="stop-color:#FEF8C0;stop-opacity:0.99"/>
				<stop  offset="0.67" style="stop-color:#FEF8C0"/>
			</linearGradient>
			<rect x="1.1" y="4734.7" class="st4" width="1162.6" height="1678.1"/>
			
				<linearGradient id="SVGID_4_" gradientUnits="userSpaceOnUse" x1="588.3335" y1="-775.9186" x2="588.3335" y2="1424.4594" gradientTransform="matrix(0.8464 0 0 0.8464 84.4345 5391.4375)">
				<stop  offset="0" style="stop-color:#FEF8C0;stop-opacity:0"/>
				<stop  offset="0" style="stop-color:#FEF8C0;stop-opacity:0"/>
				<stop  offset="8.000000e-02" style="stop-color:#FEF8C0;stop-opacity:0.23"/>
				<stop  offset="0.16" style="stop-color:#FEF8C0;stop-opacity:0.44"/>
				<stop  offset="0.25" style="stop-color:#FEF8C0;stop-opacity:0.61"/>
				<stop  offset="0.33" style="stop-color:#FEF8C0;stop-opacity:0.75"/>
				<stop  offset="0.41" style="stop-color:#FEF8C0;stop-opacity:0.86"/>
				<stop  offset="0.5" style="stop-color:#FEF8C0;stop-opacity:0.94"/>
				<stop  offset="0.58" style="stop-color:#FEF8C0;stop-opacity:0.98"/>
				<stop  offset="0.67" style="stop-color:#FEF8C0"/>
				<stop  offset="1" style="stop-color:#F78D36"/>
			</linearGradient>
			<rect x="1.1" y="4734.7" class="st5" width="1162.6" height="1862.4"/>
		</g>
	</g>
</g>
<path class="st2" d="M1163.6,4628.5V2157H1.1v2963.1c0,0,406.5-21.7,511.8-49.8c54.3-14.5,151.4-77.7,206.4-89.1
	c77.8-16.1,338.2,29.9,401.4-18.3C1220.5,4886.7,1202.6,4589.5,1163.6,4628.5z"/>
<g id="background_details_1_">
	<path class="st6" d="M866.5,758.3c-45.9-13.6-216.8-57.6-262.8-70.8c-51.5-14.9-58.2-21.4-108.9-38.8
		c-48.4-16.6-139.4-89.3-188.1-105.1C243.8,523.2,71,572,3.6,550.7v586.9c77.7-5.4,447.4-31.8,541.5-56.9
		c54.3-14.5,151.4-77.7,206.4-89.1c77.8-16.1,257.4,38.4,327,0c22.9-12.6,55.5-47.6,81.3-86.3V766.5
		C1082.7,747.8,912.6,772,866.5,758.3z"/>
</g>
<title>spheregoblin</title>
<g id="background_details_7_">
	
		<linearGradient id="SVGID_5_" gradientUnits="userSpaceOnUse" x1="-97.6305" y1="-5431.6963" x2="1270.517" y2="-5431.6963" gradientTransform="matrix(0.8464 0 0 0.8464 84.4345 5391.4375)">
		<stop  offset="0" style="stop-color:#50C6DF"/>
		<stop  offset="1.000000e-02" style="stop-color:#50C4DE"/>
		<stop  offset="0.25" style="stop-color:#4490C3"/>
		<stop  offset="0.48" style="stop-color:#3A67AE"/>
		<stop  offset="0.69" style="stop-color:#34499F"/>
		<stop  offset="0.87" style="stop-color:#2F3795"/>
		<stop  offset="1" style="stop-color:#2E3192"/>
	</linearGradient>
	<path class="st7" d="M1159.6,728.6c-84-9.9-226.4,8.5-268-3.8c-45.9-13.6-126.2-70.5-172.2-83.8c-18.6-5.4-45-7.7-73.4-9.2
		c7.2-7.3,11-13.8,9.1-16.2c-2.6-3.2-14.7,2.2-27,12.1c-1.2,1-2.4,2-3.6,3c-8.5-0.4-17.1-0.8-25.6-1.2c4.5-5.2,8.2-10.9,11.3-17
		c7.3-14,10.2-27,6.5-28.9c-3.6-1.9-12.6,7.9-19.8,22c-4.8,9.2-7.7,17.9-8.1,23.4c-6.2-0.3-12.3-0.7-18.2-1.2
		c2.6-6,4.4-12.3,5.6-18.8c2.9-15.5,2-28.8-2.1-29.5c-4.1-0.8-9.7,11.2-12.7,26.8c-1.5,7.9-2,15.2-1.5,20.6
		c-9.3-0.8-18.1-1.9-26.3-3.1c-0.7-5.3-1.9-10.6-3.6-15.7c-4.7-15.1-11.8-26.3-15.7-25.1c-4,1.2-3.3,14.5,1.4,29.6
		c0.9,2.9,1.9,5.7,3,8.3c-4.2-1-8.4-2.1-12.5-3.5c-48.4-16.6-125.7-91.6-174.4-107.4c-76.7-24.9-317.1,53.3-330-18.8l1.8,605.7
		c0,0,461.3-21.8,566.7-49.9c54.3-14.5,168.3-101.3,223.2-89.1c147,32.8,302.2,4.4,310.2,0c15.8-8.7,36.4-28.2,56.1-52.3v-177
		H1159.6z"/>
</g>
<g id="About_Page">
	<g id="grass_shadow">
		<g id="clump_3">
			<g class="st8">
				
					<ellipse transform="matrix(0.805 -0.5933 0.5933 0.805 -351.1559 205.2243)" class="st2" cx="136.6" cy="636.8" rx="6.1" ry="23.3"/>
			</g>
			<g class="st8">
				
					<ellipse transform="matrix(0.2608 -0.9654 0.9654 0.2608 -544.5485 669.5751)" class="st2" cx="165" cy="690.4" rx="7.5" ry="28.6"/>
			</g>
			
				<ellipse transform="matrix(0.2419 -0.9703 0.9703 0.2419 -574.1865 737.9804)" class="st2" cx="185.2" cy="736.4" rx="5" ry="18.9"/>
			<g class="st8">
				
					<ellipse transform="matrix(0.886 -0.4636 0.4636 0.886 -267.3325 141.073)" class="st2" cx="153.3" cy="614.3" rx="7.5" ry="28.6"/>
			</g>
			
				<ellipse transform="matrix(0.4198 -0.9076 0.9076 0.4198 -548.9995 582.6216)" class="st2" cx="181.2" cy="720.7" rx="7.5" ry="28.6"/>
			<g class="st8">
				
					<ellipse transform="matrix(0.6828 -0.7306 0.7306 0.6828 -369.0406 400.2994)" class="st2" cx="276.5" cy="625.2" rx="28.6" ry="7.5"/>
			</g>
			
				<ellipse transform="matrix(0.8263 -0.5632 0.5632 0.8263 -365.2208 267.897)" class="st2" cx="251.7" cy="726.1" rx="28.6" ry="7.5"/>
		</g>
		<g id="clump_2">
			
				<ellipse transform="matrix(0.1663 -0.9861 0.9861 0.1663 -413.8961 717.9656)" class="st2" cx="217.6" cy="603.8" rx="28.3" ry="7.1"/>
			
				<ellipse transform="matrix(0.4187 -0.9081 0.9081 0.4187 -419.0801 562.5154)" class="st2" cx="229.9" cy="608.6" rx="21.9" ry="5.5"/>
			
				<ellipse transform="matrix(0.6547 -0.7559 0.7559 0.6547 -368.3812 395.3048)" class="st2" cx="248.5" cy="600.9" rx="28.3" ry="7.1"/>
			
				<ellipse transform="matrix(0.6144 -0.789 0.789 0.6144 -396.1284 448.4236)" class="st2" cx="260.7" cy="629.5" rx="28.3" ry="7.1"/>
			
				<ellipse transform="matrix(0.7085 -0.7057 0.7057 0.7085 -377.0754 379.9214)" class="st2" cx="271.4" cy="646.4" rx="21.9" ry="5.5"/>
			
				<ellipse transform="matrix(0.8768 -0.4808 0.4808 0.8768 -274.5615 219.6742)" class="st2" cx="291.5" cy="645.7" rx="28.3" ry="7.1"/>
		</g>
		<g id="clump_1">
			
				<ellipse transform="matrix(0.4005 -0.9163 0.9163 0.4005 -537.6639 499.1174)" class="st2" cx="112.6" cy="660.5" rx="7.1" ry="28.3"/>
			
				<ellipse transform="matrix(0.6263 -0.7796 0.7796 0.6263 -461.3137 336.589)" class="st2" cx="120.4" cy="649.5" rx="5.5" ry="21.9"/>
			
				<ellipse transform="matrix(0.8211 -0.5708 0.5708 0.8211 -340.8525 176.7377)" class="st2" cx="111.5" cy="632.1" rx="7.1" ry="28.3"/>
			
				<ellipse transform="matrix(0.7874 -0.6165 0.6165 0.7874 -353.6378 224.0808)" class="st2" cx="148" cy="624.7" rx="7.1" ry="28.3"/>
			
				<ellipse transform="matrix(0.8585 -0.5128 0.5128 0.8585 -293.571 173.2189)" class="st2" cx="167.1" cy="618.6" rx="5.5" ry="21.9"/>
			
				<ellipse transform="matrix(0.9672 -0.2539 0.2539 0.9672 -146.4006 63.1068)" class="st2" cx="171.3" cy="598.7" rx="7.1" ry="28.3"/>
		</g>
		<path class="st6" d="M303.8,717.1c1.8,23.9-20.6,46-39.2,56.2c-61.4,33.7-162.8-17-163.6-56.2c-0.6-28.9,53.5-59.5,101.4-59.8
			C245.8,657,301,681.6,303.8,717.1z"/>
	</g>
	<g id="pyramid_goblin">
		<path class="st9" d="M266.6,665.4c0,0,5.9-31.8,5.3-41.6c-0.3-5.9-9-18.8-20.3-18.8s-104.7,22.2-117.9,30.9
			c-13.2,8.7-12.4,21.6-8.7,26.4c7.7,9.8,28.4,21.8,44.2,25.8C206.6,697.4,266.6,665.4,266.6,665.4"/>
		<path class="st9" d="M276.3,723.3c-9.4,0-10.8-10.9-20.3-7.2c-13.1,5.1-5.2,15.5-11.3,26.8c-3.3,6.1-20.2,15.8-32.4,9.4
			c-19.7-10.3-42.6-49.7-50.5-92.3c-7.9-42.5,20-58.8,20-58.8s8.4-6.6,2.4-28.5c-1-3.3-1.6-6.6-2.1-10l4.4,2.3l0.6-5.6
			c1.9,3.4,4.1,6.6,6.6,9.7c12.5,16,3.6,24.8,3.6,24.8c32.7-5,58.6,40.1,71.6,62.6c0.7,1.3,1.4,2.4,2,3.5l0,0
			c0.8,1.4,1.6,2.7,2.3,3.8l1,0.3c14.3,4.2,13.5,6.8,27.1,38.1C304.7,710.2,285.7,723.3,276.3,723.3z"/>
		<path class="st10" d="M234.2,607.8c0,0,26.4,5,34.3,48C260.8,642.1,249.1,621.3,234.2,607.8"/>
		<path class="st10" d="M164.5,672.1c-1-4-1.9-8-2.6-12c-2.7-14.6-1.2-26.1,1.9-34.9c0,0-11.3,7-10.2,24.5
			c0.8,13.6,11.4,24.5,11.4,24.5"/>
		<path class="st10" d="M274.2,664.2c-0.2,0.4-0.7,0.7-1.1,0.6c-23.2-3.9-50-0.4-69.5,12.5c-0.5,0.3-1.2,0.1-1.4-0.4
			c-0.2-0.4-0.1-0.9,0.2-1.3c17.9-14.7,53-27.1,68.7-15.4l0,0c0.8,1.4,1.6,2.7,2.3,3.8L274.2,664.2z"/>
		
			<ellipse transform="matrix(0.9526 -0.3042 0.3042 0.9526 -213.8019 103.4743)" class="st10" cx="225.2" cy="737.9" rx="17.8" ry="10.7"/>
		<path class="st10" d="M273.2,663.9c3.9,1,7.7,2.6,11.1,4.8c8.3,5.4,10.8,19.3,17,33.6c3.4,7.9-15.6,21-25,21s-10.8-10.9-20.3-7.2
			c-2.5,0.8-4.7,2.4-6.3,4.5c-1.3,2-2,4.2-2,6.6c-0.2,0-3.8-20.7,6.2-40.7C258.5,677.6,265.1,669.8,273.2,663.9z"/>
		<path class="st2" d="M218.9,632.1c1.2,1,2.5,1.7,4,2.1c2.2,0.7,4.6-0.4,5.5-2.5c0.7-1.4,1-2.9,1-4.4c1.5,1.3,2.2,3.2,2,5.2
			c-0.1,1.1-0.5,2.1-1.1,3s-1.5,1.7-2.5,2.1c-2,0.9-4.4,0.7-6.2-0.6C219.9,635.8,218.9,634,218.9,632.1z"/>
		<path class="st2" d="M192.9,639.5c1.2,1,2.5,1.7,4,2.1c2.2,0.7,4.6-0.4,5.5-2.5c0.7-1.4,1-2.9,1-4.4c1.5,1.3,2.2,3.2,2,5.2
			c-0.1,1.1-0.5,2.1-1.1,2.9c-0.6,0.9-1.5,1.7-2.5,2.1c-2,0.9-4.4,0.7-6.2-0.6C193.9,643.3,192.9,641.5,192.9,639.5z"/>
		<polygon class="st9" points="142.5,540 171.5,538.8 189.7,514.5 159.8,515.7 		"/>
		<polyline class="st10" points="184.8,561.9 171.5,538.8 142.5,540 		"/>
		<polyline class="st11" points="189.7,514.5 171.5,538.8 184.8,561.9 		"/>
	</g>
	<g id="log">
		<g id="log-2">
			<path class="st2" d="M502.6,745.2c-34.7,6.3-71.5-1.4-105.6,6.3c-16.1,3.6-31,18.7-46.6,21.4c-8.1,1.4-17.2-4.9-25.5-4
				c-8.6,0.9-19.6,8.8-27.4,12.8c-17.4-7-26.7-33.1-30.3-49.8c-4-18.3-1.7-44.2,10.3-60.3c27.7-1.8,50.1-13.4,78-14.3
				c22.1-0.7,20.2-5.5,38.3-10.8c12.3-3.6,24.8-0.3,37.2-3.6c17.8-4.8,22.4-19.4,44-11.5c13.4,4.9,15.3,14,21.2,24.9
				C511.4,685.5,506.5,713.3,502.6,745.2z"/>
			<path class="st11" d="M297.5,781.7c-35.9-11.8-49.3-84.2-20.1-110C306.8,697.3,334.2,754.5,297.5,781.7z"/>
			<path class="st10" d="M299.1,722.4c-1.2,12.6,2.8,24.4-5.6,35.1c-12.5-9.1-26.2-29.5-22-46.6
				C277.4,686.8,295.5,703.1,299.1,722.4z"/>
		</g>
		<g id="whorls">
			<path class="st0" d="M304,678.5c7.7,1,15.2,2.2,22.6,3.3c3.7,0.6,7.4,1.1,11.1,1.6c3.7,0.4,7.4,1,11.1,1.5s7.4,1.2,11.1,1.6
				c3.7,0.4,7.5,0.5,11.3,0.2c7.5-0.6,14.6-3.2,20.8-7.4c0.8-0.5,1.4-1.1,2.2-1.7l2.2-1.8c0.8-0.6,1.5-1.3,2.4-1.8l2.5-1.7
				c3.3-2.2,6.8-4.1,10.5-5.7c3.6-1.6,7.3-3.1,11.1-4.3c3.7-1.2,7.6-2.2,11.4-3c3.9-0.7,7.7-1.3,11.6-1.6s7.8-0.5,11.7-0.5
				c3.9,0,7.8,0.2,11.7,0.6c3.9,0.3,7.7,1,11.5,1.9l-0.1,0.8c-15.2,2-30.2,4.2-44.6,7.5c-3.6,0.8-7.2,1.7-10.8,2.6
				c-3.6,0.9-7.1,2-10.6,3.2s-6.8,2.7-10.2,4.2c-1.7,0.8-3.3,1.6-4.9,2.5l-1.2,0.6L397,682c-0.9,0.4-1.8,1-2.7,1.3l-2.8,1.2l-2.8,1
				c-0.9,0.4-1.9,0.6-2.8,0.8l-1.4,0.4c-0.5,0.1-0.9,0.2-1.4,0.4c-3.8,1-7.6,1.7-11.4,2.4s-7.7,1.3-11.6,1.8s-7.8,0.8-11.8,0.8
				c-3.9,0-7.8-0.4-11.7-1.1c-7.7-1.3-15.2-3.4-22.4-6.3c-3.6-1.4-7.1-3.2-10.5-5.2L304,678.5z"/>
			<path class="st0" d="M482.4,647.2c-6.6,1.4-13.1,2.4-19.6,3.4c-3.2,0.4-6.5,0.9-9.7,1.3c-3.2,0.4-6.4,0.9-9.7,1.3
				s-6.5,0.6-9.7,0.8c-3.3,0.3-6.5,0.5-9.8,1c-6.5,0.9-12.7,3.1-18.3,6.4c-5.8,3.5-11.8,6.9-18.1,9.2c-3.2,1.1-6.4,2.1-9.6,3.1
				c-3.2,0.9-6.5,1.8-9.8,2.4c-6.6,1.2-13.2,2-19.9,2.2c-6.7,0.3-13.4-0.1-20.1-1l-0.1-0.8c6.4-2,12.9-3.6,19.3-5.1
				s12.8-2.9,19.1-4.1c6.4-1.2,12.8-2.2,19.1-3.7c3.1-0.7,6.3-1.3,9.5-2.1c3.2-0.7,6.3-1.6,9.3-2.8c6.2-2.7,12.5-4.8,18.8-7.1
				s12.7-4.6,19.3-5.7c3.3-0.6,6.6-0.9,10-1.1c3.3-0.2,6.7-0.3,10-0.3s6.7,0.2,10,0.5c3.4,0.3,6.7,0.8,10,1.5L482.4,647.2z"/>
			<path class="st0" d="M319.6,709.1c3.9-1,7.9-1.8,11.8-2.6l5.9-1.2l5.9-1c2-0.3,3.9-0.8,5.9-1.3c1.9-0.4,3.9-0.6,5.9-0.5
				s4.1,0.3,6.1,0.8c2.1,0.4,4.2,1.1,6.2,2.1l0.1,0.8c-1.8,1.2-3.7,2.3-5.8,3c-1.9,0.7-3.9,1.3-5.9,1.7c-1.9,0.4-3.9,0.5-5.9,0.4
				s-4-0.3-6-0.3l-6-0.1l-6-0.2c-4-0.2-8-0.4-12-0.7L319.6,709.1z"/>
			<path class="st0" d="M418.2,689.9c0.2-1.3,0.9-2.5,1.9-3.3c0.9-0.8,1.9-1.6,3-2.3c1-0.7,2.1-1.3,3.2-1.8c1.1-0.6,2.2-1.1,3.3-1.6
				c4.5-2.1,9.3-3.7,14.1-4.7c2.5-0.5,4.9-0.8,7.4-1.1c2.6-0.2,5.2-0.2,7.8,0c1.4,0.1,2.8,0.4,4.1,0.8c1.7,0.5,3.2,1.4,4.4,2.7
				c0.7,0.8,1.2,1.8,1.5,2.8c0.2,0.9,0.3,1.9,0.3,2.8c-0.1,1.6-0.5,3.1-1.1,4.6c-0.5,1.3-1.2,2.6-1.9,3.8c-0.7,1.2-1.5,2.3-2.4,3.4
				c-1.7,2.1-3.7,4.1-5.8,5.8c-1.1,0.8-2.3,1.6-3.5,2.3s-2.5,1.3-3.9,1.8c-1.3,0.5-2.7,0.9-4.1,1.1c-1.4,0.2-2.8,0.4-4.2,0.4
				c-2.8,0-5.6-0.5-8.2-1.4c-2.5-0.9-4.9-2.2-7.1-3.8c-2.1-1.5-4-3.3-5.7-5.3c-0.8-1-1.6-2-2.2-3.2
				C418.4,692.6,418.1,691.3,418.2,689.9z M419,690c0,0.5,0.1,1.1,0.3,1.6c0.2,0.5,0.5,1,0.8,1.4c0.7,0.9,1.6,1.7,2.5,2.3
				c1.9,1.3,4.1,2.2,6.3,2.8c4.2,1,8.6,1.3,12.9,0.8c2-0.2,4-0.7,5.9-1.3c1.9-0.7,3.8-1.6,5.5-2.6c1.8-1.1,3.5-2.4,5-3.9
				c1.5-1.4,2.7-3.1,3.7-4.9c0.4-0.8,0.7-1.6,0.8-2.4c0-0.3,0-0.6,0-0.8c0-0.1,0-0.3-0.1-0.4c-0.5-0.5-1-0.9-1.7-1.1
				c-0.9-0.4-1.9-0.7-2.9-0.8c-2.2-0.4-4.5-0.6-6.8-0.6c-2.4,0-4.7,0.1-7,0.3c-4.8,0.4-9.5,1.1-14.2,2.2c-2.3,0.6-4.6,1.4-6.7,2.5
				c-1.1,0.6-2,1.2-2.9,2.1C419.7,687.8,419.2,688.8,419,690L419,690z"/>
		</g>
		<g id="mushrooms">
			<path class="st11" d="M441,738.4c1.4,6.1,17.6,5.6,34.6,1.8c17-3.9,21.3-8,19.9-14.2c-1.4-6.1-8.9-16-25.9-12.1
				S439.6,732.3,441,738.4z"/>
			<path class="st11" d="M476,703.9c2.8,5.8,17,8.8,28.6,3.4c11.5-5.4,19.5-19.1,16.8-24.9c-2.8-5.8-14.4,0-26,5.5
				C483.8,693.3,473.3,698.1,476,703.9z"/>
			<path class="st11" d="M418.4,723.6c1.2,4,8.8,6.1,16.4,3.7c7.6-2.3,11.8-7.9,10.5-12c-1.2-4-7.8-6.3-15.4-4
				C422.4,713.7,417.1,719.5,418.4,723.6z"/>
			<path class="st11" d="M398.7,735.3c0.4,2.4,4.5,4.2,9,3.5s7.3-3.5,6.9-5.9s-3.9-4.2-8.4-3.5S398.3,732.9,398.7,735.3z"/>
			<path class="st11" d="M384.4,728.9c0.3,1.8,2.4,3.3,5.8,2.8s4.9-2.5,4.6-4.4c-0.3-1.8-2-1.3-5.4-0.8S384.1,727.1,384.4,728.9z"/>
		</g>
		<path class="st11" d="M291.5,724.3c0.3,1.2,0.6,2.4,1,3.7s0.6,2.6,0.8,4c0.1,1.5-0.2,3-0.8,4.3c-0.2,0.4-0.4,0.7-0.6,1
			c-0.3,0.3-0.6,0.7-0.9,0.9c-0.7,0.6-1.6,1-2.5,1.2s-1.8,0.1-2.6-0.2c-0.4-0.1-0.7-0.3-1.1-0.5c-0.3-0.2-0.6-0.4-0.9-0.7
			c-1-0.9-1.9-2-2.6-3.1c-1.4-2.1-2.7-4.4-3.8-6.8c-0.5-1.2-1-2.5-1.2-3.8c-0.3-1.4-0.3-2.8-0.2-4.2c0.1-1.5,0.5-3,1.2-4.4
			c0.2-0.4,0.4-0.7,0.7-1.1c0.3-0.4,0.6-0.7,0.9-1c0.7-0.7,1.6-1.2,2.6-1.4s2-0.2,2.9,0.1c0.4,0.1,0.9,0.3,1.3,0.5s0.7,0.4,1.1,0.7
			c1.2,0.9,2.1,2.1,2.8,3.5c0.5,1.2,1,2.5,1.3,3.8L291.5,724.3z M291.1,724.4c-0.3-1.2-0.9-2.3-1.6-3.3s-1.6-1.8-2.5-2.5
			c-0.8-0.6-1.7-1.2-2.6-1.6c-0.6-0.3-1.2-0.4-1.8-0.2c-0.6,0.2-1,0.7-1.3,1.2c-0.5,0.8-0.9,1.7-1.1,2.7c-0.4,2.2-0.5,4.5-0.4,6.8
			c0.1,1.2,0.4,2.4,0.8,3.5s1,2.2,1.8,3.1c0.7,0.9,1.7,1.5,2.8,1.9c0.8,0.3,1.7,0.3,2.4-0.1c0.6-0.4,1.1-0.9,1.5-1.5
			c0.6-0.9,1-1.8,1.4-2.8c0.5-1.1,0.8-2.3,0.9-3.5C291.5,726.8,291.4,725.6,291.1,724.4z"/>
	</g>
</g>
<g id="background_details">
	<path class="st6" d="M3.5,891v246.3c77.7-5.4,447.4-31.8,541.5-56.9c54.3-14.5,151.4-77.7,206.4-89.1c77.8-16.1,257.4,38.4,327,0
		c21.3-11.8,54.4-60.6,81.3-108v-76C950.1,886.4,11.8,965.9,3.5,891z"/>
</g>
<g id="background_details_2_">
	<path class="st12" d="M1179.5,6029.4c0,82.9-251.8-0.5-330.6,25.1c-48.7,15.8-139.7,88.5-188.1,105.1
		c-50.7,17.4-57.4,23.9-108.9,38.8c-46,13.3-374.8,70.5-430.4,70.8c-59.5,0.4-126.9-24.1-152.3,29.7
		c-23.6,49.8,69.1,160,117.3,186.6c69.5,38.4,323.7-16.1,401.4,0c55,11.4,152.1,74.6,206.4,89.1c105.4,28.1,464.5,49.7,464.5,49.7"
		/>
</g>
<g id="background_details_6_">
	
		<linearGradient id="SVGID_6_" gradientUnits="userSpaceOnUse" x1="-5106.0249" y1="717.9965" x2="-5105.375" y2="717.9965" gradientTransform="matrix(-0.8464 0 0 0.8464 -3167.2209 5391.4375)">
		<stop  offset="0" style="stop-color:#50C6DF"/>
		<stop  offset="1.000000e-02" style="stop-color:#50C4DE"/>
		<stop  offset="0.25" style="stop-color:#4490C3"/>
		<stop  offset="0.48" style="stop-color:#3A67AE"/>
		<stop  offset="0.69" style="stop-color:#34499F"/>
		<stop  offset="0.87" style="stop-color:#2F3795"/>
		<stop  offset="1" style="stop-color:#2E3192"/>
	</linearGradient>
	<path class="st13" d="M1153.8,6002.3l0.6-6.3C1154.4,5998.1,1154.2,6000.2,1153.8,6002.3z"/>
	
		<linearGradient id="SVGID_7_" gradientUnits="userSpaceOnUse" x1="-5125.1426" y1="1085.9069" x2="-3671.3577" y2="1085.9069" gradientTransform="matrix(-0.8464 0 0 0.8464 -3167.2209 5391.4375)">
		<stop  offset="0" style="stop-color:#50C6DF"/>
		<stop  offset="1.000000e-02" style="stop-color:#50C4DE"/>
		<stop  offset="0.25" style="stop-color:#4490C3"/>
		<stop  offset="0.48" style="stop-color:#3A67AE"/>
		<stop  offset="0.69" style="stop-color:#34499F"/>
		<stop  offset="0.87" style="stop-color:#2F3795"/>
		<stop  offset="1" style="stop-color:#2E3192"/>
	</linearGradient>
	<path class="st14" d="M-56,6265.6c25.5-53.8,227.9-24.5,287.2-29.5c206.5-17.8,202.3-82.1,278.3-93.2c-7.2-7.3-11-13.8-9.1-16.2
		c2.6-3.2,14.7,2.2,27,12.1c1.2,1,2.4,2,3.6,3c8.5-0.4,17.1-0.8,25.6-1.2c-4.5-5.2-8.2-10.9-11.3-17c-7.3-14-10.2-27-6.5-28.9
		c3.6-1.9,12.6,7.9,19.8,22c4.8,9.2,7.7,17.9,8.1,23.4c6.2-0.3,12.3-0.7,18.2-1.2c-2.6-6-4.4-12.3-5.6-18.8
		c-2.9-15.5-2-28.8,2.1-29.5s9.7,11.2,12.7,26.8c1.5,7.9,2,15.2,1.5,20.6c9.3-0.8,18.1-1.9,26.3-3.1c0.7-5.3,1.9-10.6,3.6-15.7
		c4.7-15.1,11.8-26.3,15.7-25.1c4,1.2,3.3,14.5-1.4,29.6c-0.9,2.9-1.9,5.7-3,8.3c4.2-1,8.4-2.1,12.5-3.5
		c48.4-16.6,125.7-91.6,174.4-107.4c76.7-24.9,334.1,53.3,347-18.8l-3,616.5c0,0-383.9-22.3-489.3-50.4
		c-190.9-136.9-313.6-115.7-383.4-116.2c-79.4-0.6-164.3,38.4-233.9,0C13,6425.6-79.6,6315.4-56,6265.6z"/>
</g>
<g id="Partners">
	
		<linearGradient id="SVGID_8_" gradientUnits="userSpaceOnUse" x1="869.1779" y1="957.4919" x2="1031.3079" y2="795.3622" gradientTransform="matrix(0.8464 0 0 0.8464 84.4345 5391.4375)">
		<stop  offset="0" style="stop-color:#FFE381"/>
		<stop  offset="5.000000e-02" style="stop-color:#FFE587"/>
		<stop  offset="0.26" style="stop-color:#FFEDA0"/>
		<stop  offset="0.49" style="stop-color:#FEF3B2"/>
		<stop  offset="0.72" style="stop-color:#FEF7BD"/>
		<stop  offset="1" style="stop-color:#FEF8C0"/>
	</linearGradient>
	<path class="st15" d="M898.3,6127.8c-7.8,0-22.6,18.1-22.6,34.2s8.2,34.5,41.4,37.7c11.2,1.1,61.7,23.2,97.4-27.1
		c23.7-33.3,19.7-68.9,6.8-95.3c-6-12.2-22.9-34.3-33.3-47.4c-10.2-12.7-30.1-21.8-46.6-27.5c-13.4-4.6-36.3-3.6-38.2-16
		c-1.2-7.7-9.5-14.4-18.8-15.9c0,0.4,0,0.8,0,1.3c0,1.5-0.1,3-0.4,4.5c14.1,7.6,11.7,32.8,5.8,39.2c-11.2,12.3-18.6,48.3-12.2,66
		C881,6098.2,888.1,6114,898.3,6127.8z"/>
	<path class="st10" d="M953.5,6138.7c-3.1,0.4-6.1,1.1-9.1,2.1c-2.9,0.9-5.8,2.2-8.5,3.7c-5.3,3-9.6,7.4-12.4,12.8
		c-1.3,2.7-2.3,5.6-2.9,8.5l-0.4,2.2c-0.1,0.8-0.2,1.5-0.3,2.3c-0.2,1.5-0.2,3-0.3,4.6c0,6.2,0.7,12.4,2,18.5c-0.5-1.5-1-3-1.5-4.5
		c-0.4-1.5-0.8-3-1.2-4.6c-0.4-1.5-0.6-3.1-0.8-4.7c-0.1-0.8-0.2-1.6-0.3-2.4s-0.2-1.6-0.2-2.4c-0.1-1.6-0.1-3.2,0-4.8
		c0.1-0.8,0.1-1.6,0.2-2.4l0.3-2.4c0.6-3.2,1.6-6.3,3-9.2c1.5-2.9,3.5-5.6,5.8-7.8c2.3-2.2,5-4.1,7.9-5.6c2.9-1.4,5.9-2.5,9-3.1
		C947.1,6138.9,950.3,6138.6,953.5,6138.7z"/>
	<path class="st2" d="M1170,6090.2c-22.6-0.9-42.2,6.2-56.7,20.5c0,0-39.2,39-99.1,39.2c-34.7,0.1-73.5-22.5-96.8-46.1
		c-2.9-2.9-7.6-3-10.5-0.1s-3,7.6-0.1,10.5c12,12.2,52.6,40.2,92.9,45.6c73.9,9.8,122-40.7,122-40.7c29.2-29.1,73.4-12.3,73.8-12.1
		l4.3-11C1190.3,6092.6,1180.2,6090.6,1170,6090.2z"/>
	<g>
		<g>
			<defs>
				<path id="SVGID_9_" d="M458.2,6422.8c-55.5,0-101.8-2.1-138.4-6.2c-51.8-5.8-81.1-15.3-89.6-29c-3.4-5.2-3.5-11.9-0.4-17.2
					c8.5-15.2,40.6-23.5,66.4-23.5c21.7,0,36.7-9.8,44.7-29.1c6.5-15.6-0.3-37.3-4.1-59.5c-3.3-19.5-1.9-62.1-9.5-69.7L350,6204
					c0,16-1.9,28.5,2,51.6c2.5,14.7,13.4,43,3.1,67.9c-10.4,25.2-30.8,38.6-58.8,38.6c-27.5,0-49.4,9.1-53.1,15.7
					c-0.5,0.5-0.5,1.3,0,1.8c2,3.3,23.7,27.9,215.1,27.9c35.5,0,76.7-0.8,124.8-2.8c97.3-4,173.5-16.6,226.5-37.3
					c41.5-16.3,68.5-37.4,80.3-62.8c21.2-45.6-12.8-83-16.6-100.6l13.7-5.3c3.8,11.4,11.4,18.4,18.4,37.9c9.3,26.2,8.8,52-1.7,74.4
					c-13.5,29.1-43.3,52.9-88.6,70.6c-54.5,21.4-132.3,34.3-231.4,38.3C537.8,6421.9,496,6422.8,458.2,6422.8z"/>
			</defs>
			<clipPath id="SVGID_10_">
				<use xlink:href="#SVGID_9_"  style="overflow:visible;"/>
			</clipPath>
			<g class="st16">
				
					<radialGradient id="SVGID_11_" cx="573.4214" cy="1080.1769" r="302.1743" gradientTransform="matrix(0.8464 0 0 0.8464 84.4345 5391.4375)" gradientUnits="userSpaceOnUse">
					<stop  offset="0" style="stop-color:#50C6DF;stop-opacity:0.5"/>
					<stop  offset="0.37" style="stop-color:#3F79B7;stop-opacity:0.76"/>
					<stop  offset="0.74" style="stop-color:#32449C;stop-opacity:0.94"/>
					<stop  offset="1" style="stop-color:#2E3192"/>
				</radialGradient>
				<path class="st17" d="M458.2,6422.8c-55.5,0-101.8-2.1-138.4-6.2c-51.8-5.8-81.1-15.3-89.6-29c-3.4-5.2-3.5-11.9-0.4-17.2
					c8.5-15.2,40.6-23.5,66.4-23.5c21.7,0,36.7-9.8,44.7-29.1c6.5-15.6-0.3-37.3-4.1-59.5c-3.3-19.5-1.9-62.1-9.5-69.7L350,6204
					c0,16-1.9,28.5,2,51.6c2.5,14.7,13.4,43,3.1,67.9c-10.4,25.2-30.8,38.6-58.8,38.6c-27.5,0-49.4,9.1-53.1,15.7
					c-0.5,0.5-0.5,1.3,0,1.8c2,3.3,23.7,27.9,215.1,27.9c35.5,0,76.7-0.8,124.8-2.8c97.3-4,173.5-16.6,226.5-37.3
					c41.5-16.3,68.5-37.4,80.3-62.8c21.2-45.6-12.8-83-16.6-100.6l13.7-5.3c3.8,11.4,11.4,18.4,18.4,37.9c9.3,26.2,8.8,52-1.7,74.4
					c-13.5,29.1-43.3,52.9-88.6,70.6c-54.5,21.4-132.3,34.3-231.4,38.3C537.8,6421.9,496,6422.8,458.2,6422.8z"/>
				<path class="st2" d="M458.2,6431.2c-55.5,0-101.8-2.1-138.4-6.2c-51.8-5.8-81.1-15.3-89.6-29c-3.4-5.2-3.5-11.9-0.4-17.2
					c8.5-15.2,40.6-23.5,66.4-23.5c21.7,0,36.7-9.8,44.7-29.1c6.5-15.6-0.3-37.3-4.1-59.5c-3.3-19.5-1.9-62.1-9.5-69.7l22.5,15.6
					c0,16-1.9,28.5,2,51.6c2.5,14.7,13.4,43,3.1,67.9c-10.4,25.2-30.8,38.5-58.8,38.5c-27.5,0-49.4,9.1-53.1,15.7
					c-0.5,0.5-0.5,1.3,0,1.8c2,3.3,23.7,27.9,215.1,27.9c35.5,0,76.7-0.8,124.8-2.8c97.3-4,173.5-16.6,226.5-37.3
					c41.5-16.3,68.5-37.4,80.3-62.8c21.2-45.6-12.8-83-16.6-100.6l13.7-5.3c3.8,11.4,11.4,18.4,18.4,37.9c9.3,26.2,8.8,52-1.7,74.4
					c-13.5,29.1-43.3,52.9-88.6,70.6c-54.5,21.4-132.3,34.3-231.4,38.3C537.8,6430.3,496,6431.2,458.2,6431.2z"/>
			</g>
		</g>
	</g>
	<path class="st10" d="M887.3,6058.7c0,0,15.3,46.2-33.1,76.5c-13.5,11.5-4.1,37.9,6.6,34c6.3-2.3,46.4-27.4,49.5-57.8
		C911.3,6100.7,887.3,6058.7,887.3,6058.7z"/>
	
		<ellipse transform="matrix(0.9103 -0.4139 0.4139 0.9103 -2432.3303 924.1252)" class="st2" cx="916.4" cy="6075.1" rx="3.1" ry="7.1"/>
	
		<ellipse transform="matrix(0.9103 -0.4139 0.4139 0.9103 -2434.8108 916.8571)" class="st2" cx="898.4" cy="6077.1" rx="3.1" ry="7.1"/>
	<polygon class="st10" points="873.5,6113.3 848.7,6062.5 845.3,6072.6 813.2,6031.4 810.8,6041.8 783.2,6008.6 785,6039.4 
		813.1,6066.8 816.7,6050.3 849.2,6089.2 851.5,6080.3 	"/>
	<polygon class="st10" points="904.4,6101.8 900.3,6045.4 908.3,6052.4 915.4,6000.6 922.7,6008.5 929.8,5965.9 943.7,5993.4 
		933.2,6031.2 921.8,6018.8 913.3,6068.8 906.9,6062.2 	"/>
	<path class="st11" d="M912.2,6112.8c-0.9,0-1.9-0.4-2.5-1l-7.8-7.3c-1.4-1.5-1.3-3.9,0.2-5.3c1.4-1.3,3.5-1.3,4.9-0.2l7.8,7.3
		c1.5,1.4,1.6,3.8,0.2,5.3C914.2,6112.4,913.2,6112.8,912.2,6112.8L912.2,6112.8z"/>
	<path class="st10" d="M967.3,6041.4c3.1,3.7,5.8,7.6,8.1,11.8c1.2,2.1,2.2,4.3,3.2,6.5c0.5,1.1,0.8,2.3,1.3,3.4
		c0.4,1.1,0.8,2.3,1.1,3.5c1.4,4.8,2,9.7,2,14.6c-0.1,5-0.9,9.9-2.5,14.7c-3.2,9.5-9.2,17.7-16.4,24.2s-15.6,11.4-24.8,14.4
		c8.1-4.8,15.4-10.6,21.9-17.4c6.3-6.7,11.5-14.4,14.3-22.9c1.4-4.3,2.3-8.7,2.5-13.2s-0.1-9.1-1-13.5l-0.3-1.7
		c-0.1-0.6-0.3-1.1-0.4-1.7c-0.3-1.1-0.6-2.2-0.8-3.3c-0.7-2.2-1.4-4.4-2.3-6.6C971.5,6049.8,969.4,6045.7,967.3,6041.4z"/>
	<path class="st9" d="M942.6,6027.7c0,0,30.5,37.3-8,67.7s-4.2,43,4.6,39.2c17.4-7.5,63.9-39.2,28.2-93.2"/>
	<path class="st2" d="M879.7,6207.5c-3.3,0-6.2-2.2-7.2-5.4c-2.2-7.5-3.9-15.1-5.2-22.9c-3.2-18.5-3.9-37.4-2.1-56.1
		c0.4-4.1,4-7.1,8.1-6.8s7.1,4,6.8,8.1v0.1c-2.3,24.7,0,49.6,6.8,73.4c1.1,3.9-1.1,8.1-5.1,9.2
		C881.1,6207.4,880.4,6207.5,879.7,6207.5z"/>
	<path class="st11" d="M872.6,6127.6h-0.3c-2-0.2-3.6-2-3.4-4l0,0l0.9-10.6c0.2-2,2-3.6,4-3.4s3.6,2,3.4,4l0,0l-1,10.6
		C876.1,6126.1,874.5,6127.6,872.6,6127.6z"/>
	
		<ellipse transform="matrix(0.9239 -0.3827 0.3827 0.9239 -2220.2996 781.8552)" class="st11" cx="855.1" cy="5971.9" rx="26.7" ry="26.7"/>
	<path class="st10" d="M835.2,5974.7c-1.6,0-3-1.3-3-3c0-12.6,10.2-22.9,22.9-22.9l0,0c1.6,0.1,2.9,1.5,2.8,3.1
		c-0.1,1.5-1.3,2.7-2.8,2.8c-9.3,0-16.8,7.5-16.9,16.9C838.2,5973.4,836.9,5974.7,835.2,5974.7
		C835.3,5974.7,835.2,5974.7,835.2,5974.7z"/>
	<path class="st10" d="M951.4,6046c0,0,7.4,2.6,1.5,22.5c-3.3,10.6-9.7,20-18.4,26.8c-4.7,3.6-8.9,7.7-12.6,12.4
		c9.9-17,30.7-21.7,26.6-46.8C946.4,6047.3,951.4,6046,951.4,6046z"/>
	<path class="st2" d="M324.9,6179.7h30.5c5,0,9.1,4.1,9.1,9.1v1.5c0,5-4.1,9.1-9.1,9.1h-30.5c-5,0-9.1-4.1-9.1-9.1v-1.5
		C315.8,6183.8,319.9,6179.7,324.9,6179.7z"/>
	<path class="st2" d="M332.5,6193.4h19c2.9,0,5.3,2.4,5.3,5.3l0,0c0,2.9-2.4,5.3-5.3,5.3h-19c-2.9,0-5.3-2.4-5.3-5.3l0,0
		C327.2,6195.8,329.6,6193.4,332.5,6193.4z"/>
</g>
<g id="background_details_4_">
	<circle class="st18" cx="601" cy="2490.1" r="161.9"/>
</g>
<g id="background_details_3_">
	<circle class="st19" cx="243.7" cy="2439.8" r="323.4"/>
</g>
<g id="background_details_5_">
	
		<linearGradient id="SVGID_12_" gradientUnits="userSpaceOnUse" x1="-32.7846" y1="-683.5571" x2="1467.6748" y2="-683.5571" gradientTransform="matrix(0.8464 0 0 0.8464 84.4345 5391.4375)">
		<stop  offset="0" style="stop-color:#50C6DF"/>
		<stop  offset="0.29" style="stop-color:#4FC4DE"/>
		<stop  offset="0.45" style="stop-color:#4EBCDA"/>
		<stop  offset="0.58" style="stop-color:#4BAED3"/>
		<stop  offset="0.69" style="stop-color:#469AC8"/>
		<stop  offset="0.8" style="stop-color:#4081BB"/>
		<stop  offset="0.89" style="stop-color:#3962AB"/>
		<stop  offset="0.97" style="stop-color:#313E99"/>
		<stop  offset="1" style="stop-color:#2E3192"/>
	</linearGradient>
	<path class="st20" d="M-35.4,4861.5c163-89.9,709.4,156.9,1224.3-221.7c31.2-31.2-46.5,255.2-179.8,244.5
		c-189.7-15.2-301.4-42.3-468.2,77c-71,50.8-567.9,14.4-567.9,14.4S-127.4,4912.2-35.4,4861.5z"/>
	<path class="st1" d="M48.4,4745.1c179-6.1,444.1,151.6,628.4,72.4c-184.3,92.2-387-28.9-686.3,4.6
		C-190.8,4749.6,29.2,4745.8,48.4,4745.1z"/>
</g>
<g id="Schedule">
	<ellipse class="st6" cx="186.3" cy="5078.2" rx="185.9" ry="48.8"/>
	<path class="st10" d="M298.6,4982.2c11.7,30.9,78.1,90.4,23.7,106.3c-55.2,16.1-28.1-74.2-46.8-104.3
		C282.4,4983.6,291.9,4981.1,298.6,4982.2z"/>
	<path class="st10" d="M273,5113.4c55.4-3.2,34.8-96.6-16.8-75.2C225.1,5051.1,240.5,5115.3,273,5113.4"/>
	<path class="st9" d="M273,5113.4c2.4-0.2,4.7-0.7,7-1.3c2.3-0.6,4.5-1.4,6.6-2.5c4.2-2.1,7.9-5.1,10.7-8.8c2.8-3.7,4.8-8,5.8-12.5
		c1.1-4.5,1.4-9.2,1.1-13.8c-0.8-9.2-4-18.4-9.7-25.5c-2.8-3.6-6.3-6.6-10.3-8.8c-4-2.1-8.4-3.2-12.9-3.3c-2.3,0-4.5,0.2-6.8,0.6
		c-1.1,0.2-2.2,0.5-3.3,0.8s-2.2,0.7-3.3,1.1c-2.1,0.8-4.1,1.8-5.9,3.1c-0.5,0.3-0.8,0.7-1.3,1c-0.4,0.3-0.9,0.7-1.2,1.1l-1.1,1.2
		c-0.4,0.4-0.8,0.8-1.1,1.3c-2.8,3.6-4.7,7.8-5.6,12.3c-0.9,4.5-1.2,9.2-0.9,13.8c0.3,4.7,1.2,9.3,2.7,13.7
		c1.4,4.5,3.4,8.7,6.1,12.6c2.6,3.9,5.9,7.3,9.8,9.9C263.6,5112,268.3,5113.3,273,5113.4h-1.8c-0.6,0.1-1.2,0.1-1.8,0
		c-1.2,0-2.4-0.2-3.5-0.4c-0.6-0.1-1.2-0.2-1.8-0.4l-1.7-0.6l-0.8-0.3l-0.8-0.4l-1.7-0.8c-4.2-2.5-7.9-5.8-10.8-9.8
		c-5.7-8-9.3-17.4-10.2-27.2c-0.5-4.9-0.3-9.9,0.6-14.8c0.9-5,3-9.7,6-13.8c0.8-1,1.6-2,2.5-2.9c0.5-0.5,0.9-0.9,1.4-1.3
		s1-0.8,1.5-1.2l1.6-1.1l0.8-0.5c0.3-0.2,0.6-0.3,0.8-0.4c1.1-0.6,2.3-1.1,3.5-1.6c1.1-0.5,2.3-0.8,3.5-1.2s2.4-0.7,3.6-0.9
		c2.5-0.5,5-0.8,7.5-0.7c5.1,0.1,10.1,1.4,14.6,3.8c4.4,2.4,8.3,5.8,11.3,9.8s5.4,8.4,7,13.1s2.6,9.5,2.8,14.5
		c0.3,4.9-0.3,9.9-1.6,14.6c-1.3,4.8-3.6,9.2-6.8,13c-3.2,3.8-7.2,6.7-11.8,8.6c-2.2,0.9-4.6,1.6-6.9,2.1
		C277.9,5113.1,275.5,5113.3,273,5113.4z"/>
	<path class="st9" d="M149.4,5048c0,0,8.8,36.7,54.2,72.3c49.8,28.3,62.9-44.4,62.9-44.4s21.8-2.5,42.9-29.4
		c8.9-11.3,17.7-27.1,24.6-48.7c21.9-68.6-17.9-83.5-17.9-83.5c2-0.2,11.8-2.4,18.5-13.7c7.5-12.8-0.3-27.3-2.7-31.7
		c-1-1.9-2.2-3.8-3.6-5.5l-6.8,5.2l-6.7-1.5c0.3,4.1-0.3,8.2-1.6,12.1c-5.9,16.8-25.5,22.3-43.8,30c-45.2,19-79,50.4-95.2,73.2
		C164.6,4995.5,144.6,5024.7,149.4,5048z"/>
	<path class="st10" d="M214.7,5117.4c27.3,12.9,38.9-16.2,42.6-29.2c0.2-0.6-0.2-1.2-0.8-1.4c-0.4-0.1-0.9,0-1.2,0.4
		c-6.2,8.5-20.7,25-40.4,28c-0.6,0.1-1,0.7-0.9,1.3C214.1,5116.9,214.4,5117.2,214.7,5117.4z"/>
	<path class="st10" d="M202.4,5054.4c0.6,0.7,19.6,24.5,64,21.6c0,0,20.1,0.2,43-29.5c-7.5,5.8-15.8,10.4-24.6,13.7
		C257.8,5070.4,225.3,5069.8,202.4,5054.4z"/>
	<path class="st10" d="M178.7,5096.5c0,0,16.1-7.3,18.3-25.9c5.3-44.9,17-71.9,17-71.9S168.5,5034.1,178.7,5096.5z"/>
	<path class="st9" d="M187.9,5079.1c-4.6,41.2-86.5,31.1-45.5-34.7c17-27.2,60.5-57.7,64.4-89.5c5.8,1.3,18.9,7.8,23.3,11.6
		C208.1,4999,192.3,5040.3,187.9,5079.1z"/>
	
		<ellipse transform="matrix(0.4139 -0.9103 0.9103 0.4139 -4377.124 3200.8882)" class="st2" cx="297.3" cy="4999.7" rx="10.3" ry="4.5"/>
	<polygon class="st9" points="347,4796 312.2,4824.5 266.1,4815 301.9,4785.7 	"/>
	<polygon class="st10" points="320.5,4864.9 312.2,4824.5 347,4796 356.3,4835.6 	"/>
	<polygon class="st11" points="275.4,4854.6 266.1,4815 312.2,4824.5 320.5,4864.9 	"/>
</g>
<linearGradient id="SVGID_13_" gradientUnits="userSpaceOnUse" x1="588.3335" y1="-3131.4241" x2="588.3335" y2="-4857.6768" gradientTransform="matrix(0.8464 0 0 0.8464 84.4345 5391.4375)">
	<stop  offset="0" style="stop-color:#FEF8C0"/>
	<stop  offset="0.39" style="stop-color:#FEF8C2"/>
	<stop  offset="0.59" style="stop-color:#FEF9CA"/>
	<stop  offset="0.75" style="stop-color:#FEFBD8"/>
	<stop  offset="0.89" style="stop-color:#FFFDEB"/>
	<stop  offset="1" style="stop-color:#FFFFFF"/>
</linearGradient>
<path class="st21" d="M1.1,1279.9c29.4,40.3,1162.6,0,1162.6,0v1059.7c-126.8-75.5-288.8-119.4-452.3-119.4
	c-308.9,0-576.1,290.9-710.3,520.8C1.1,2173.5,3.6,1517.5,1.1,1279.9z"/>
<linearGradient id="SVGID_14_" gradientUnits="userSpaceOnUse" x1="588.3335" y1="-5302.3838" x2="588.3335" y2="-3875.6353" gradientTransform="matrix(0.8464 0 0 0.8464 84.4345 5391.4375)">
	<stop  offset="0" style="stop-color:#FEF8C0"/>
	<stop  offset="0.11" style="stop-color:#FEF0A9"/>
	<stop  offset="0.23" style="stop-color:#FFEA97"/>
	<stop  offset="0.38" style="stop-color:#FFE68A"/>
	<stop  offset="0.57" style="stop-color:#FFE483"/>
	<stop  offset="1" style="stop-color:#FFE381"/>
</linearGradient>
<path class="st22" d="M1163.7,903.5c-29.4,40.3-77.9,78.9-106.5,93.3c-8.9,4.4-77.3,32.8-239.5,0c-60.5-12.2-186.3,74.6-246.2,89.1
	C455.3,1114,1.1,1135.4,1.1,1135.4v574.3c126.9-75.5,278.9-119.4,442.4-119.4c308.9,0,586,290.9,720.2,520.8
	C1163.6,1543.6,1161.1,1141.1,1163.7,903.5z"/>
<g id="Layer_12">
	<circle class="st2" cx="628.8" cy="42.2" r="27.5"/>
</g>
<g id="Layer_12_1_">
	<circle class="st6" cx="297.5" cy="231.3" r="23.6"/>
</g>
<g id="Layer_12_2_">
	<circle class="st6" cx="87" cy="163.4" r="39.2"/>
</g>
<g id="Layer_12_3_">
	<circle class="st2" cx="86.5" cy="404" r="32.4"/>
</g>
<g id="Layer_12_15_">
	<circle class="st9" cx="186.6" cy="2183.6" r="21.9"/>
</g>
<g id="Layer_12_16_">
	
		<ellipse transform="matrix(3.327803e-02 -0.9994 0.9994 3.327803e-02 -1966.1715 2880.2725)" class="st23" cx="505.8" cy="2456.5" rx="20.6" ry="20.6"/>
</g>
<g id="Layer_12_17_">
	<circle class="st9" cx="93.2" cy="2305.8" r="20.9"/>
</g>
<g id="Layer_12_18_">
	<circle class="st24" cx="314.8" cy="2465.5" r="26.9"/>
</g>
<g id="Layer_12_19_">
	<circle class="st25" cx="128.2" cy="2534" r="59.7"/>
</g>
<g id="Layer_12_20_">
	<circle class="st25" cx="391" cy="2357" r="27.2"/>
</g>
<g id="Layer_12_21_">
	<circle class="st9" cx="406.8" cy="1241" r="20"/>
</g>
<g id="Layer_12_22_">
	<circle class="st9" cx="165.2" cy="1280.1" r="52.2"/>
</g>
<g id="Layer_12_23_">
	<circle class="st25" cx="179.6" cy="1143.8" r="37.8"/>
</g>
<g id="SVGgroupcirc">
	<circle class="st25" cx="435.5" cy="2424.3" r="20"/>
	<circle class="st25" cx="268.6" cy="2595.7" r="20"/>
	<ellipse class="st9" cx="57" cy="2425.9" rx="49.7" ry="49.4"/>
	
		<ellipse transform="matrix(1 -6.265727e-03 6.265727e-03 1 -15.786 0.5241)" class="st25" cx="75.7" cy="2519.7" rx="27.2" ry="27.2"/>
	<circle class="st9" cx="154.2" cy="2404.3" r="40"/>
	
		<ellipse transform="matrix(3.327795e-02 -0.9994 0.9994 3.327795e-02 -2219.2144 2645.4639)" class="st25" cx="257.9" cy="2469.9" rx="56.3" ry="56.3"/>
	<circle class="st25" cx="208.3" cy="2327.1" r="37.8"/>
	
		<ellipse transform="matrix(0.9998 -2.028569e-02 2.028569e-02 0.9998 -44.5738 1.9819)" class="st25" cx="75.4" cy="2198.1" rx="38.8" ry="38.8"/>
	<circle class="st25" cx="382.6" cy="2507.1" r="27.2"/>
</g>
<g id="Layer_12_24_">
	<circle class="st2" cx="391.9" cy="56.6" r="27.5"/>
</g>
<g id="SVGgroupcirc_1_">
	<circle class="st9" cx="485.6" cy="1281.7" r="20.6"/>
	<ellipse class="st9" cx="35.4" cy="1230.4" rx="49.7" ry="49.4"/>
	
		<ellipse transform="matrix(9.089774e-03 -1 1 9.089774e-03 -1289.673 1371.3505)" class="st25" cx="47.1" cy="1336.4" rx="27.2" ry="27.2"/>
	<circle class="st9" cx="125.5" cy="1221" r="40"/>
	<circle class="st25" cx="229.3" cy="1286.7" r="56.3"/>
	<circle class="st9" cx="354" cy="1174.5" r="27.2"/>
	
		<ellipse transform="matrix(0.9999 -1.020249e-02 1.020249e-02 0.9999 -11.0929 0.7147)" class="st25" cx="64.5" cy="1087.6" rx="38.8" ry="38.8"/>
	
		<ellipse transform="matrix(3.080967e-02 -0.9995 0.9995 3.080967e-02 -1095.76 1133.6516)" class="st9" cx="36.7" cy="1131.9" rx="20.9" ry="20.9"/>
	<circle class="st9" cx="286.2" cy="1282.3" r="26.9"/>
	
		<ellipse transform="matrix(3.537287e-02 -0.9994 0.9994 3.537287e-02 -1253.795 1402.4875)" class="st25" cx="99.6" cy="1350.7" rx="59.7" ry="59.7"/>
	<circle class="st9" cx="354" cy="1323.9" r="27.2"/>
	<circle class="st9" cx="667.7" cy="1143.6" r="24.4"/>
	<circle class="st9" cx="962.1" cy="1096" r="63.6"/>
	<ellipse class="st9" cx="1086.2" cy="1156.6" rx="60.6" ry="60.2"/>
	<circle class="st25" cx="1106.1" cy="1027.4" r="33.1"/>
	
		<ellipse transform="matrix(0.9239 -0.3827 0.3827 0.9239 -370.0545 475.6102)" class="st9" cx="1010.5" cy="1168" rx="48.8" ry="48.8"/>
	<circle class="st25" cx="884" cy="1088" r="68.6"/>
	<circle class="st9" cx="732" cy="1224.7" r="33.1"/>
	<circle class="st25" cx="944.6" cy="1262.1" r="46.1"/>
	<circle class="st25" cx="1106.4" cy="1419.3" r="47.2"/>
	<circle class="st9" cx="970.8" cy="1436.9" r="26.7"/>
	<circle class="st9" cx="732" cy="1042.7" r="33.1"/>
</g>
<g id="SVGgroupcirc_2_">
	
		<rect x="262.7" y="-5.4" transform="matrix(0.8439 -0.5366 0.5366 0.8439 38.4521 150.1074)" class="st26" width="28.8" height="28.8"/>
	<circle class="st2" cx="277.1" cy="8.9" r="14.4"/>
	<circle class="st2" cx="353.8" cy="-2" r="20.5"/>
	
		<rect x="176" y="-9" transform="matrix(0.8439 -0.5366 0.5366 0.8439 27.8415 101.1664)" class="st26" width="23.5" height="23.5"/>
	<circle class="st2" cx="187.8" cy="2.7" r="11.8"/>
	
		<rect x="364.3" y="29.2" transform="matrix(0.8439 -0.5366 0.5366 0.8439 30.7518 219.1342)" class="st26" width="55.1" height="55.1"/>
	<circle class="st6" cx="309.8" cy="17.2" r="36.4"/>
	
		<rect x="187.2" y="-9.3" transform="matrix(0.8439 -0.5366 0.5366 0.8439 26.4528 113.171)" class="st26" width="40.9" height="40.9"/>
	<circle class="st2" cx="207.7" cy="11.1" r="20.5"/>
	
		<rect x="359.1" y="-28.6" transform="matrix(0.8439 -0.5366 0.5366 0.8439 59.7875 209.4141)" class="st26" width="61.2" height="61.2"/>
	<circle class="st2" cx="389.7" cy="2" r="30.6"/>
	
		<rect x="217.6" y="11.1" transform="matrix(0.8439 -0.5366 0.5366 0.8439 23.1865 127.3125)" class="st26" width="25.5" height="25.5"/>
	<circle class="st2" cx="230.3" cy="23.8" r="12.7"/>
	
		<rect x="281.5" y="-9.2" transform="matrix(0.8412 -0.5408 0.5408 0.8412 42.8054 163.3863)" class="st26" width="36.1" height="36.1"/>
	<circle class="st2" cx="298.3" cy="12.5" r="18.1"/>
	
		<rect x="150.8" y="-14.1" transform="matrix(0.8439 -0.5366 0.5366 0.8439 24.6758 90.4227)" class="st26" width="33.8" height="33.8"/>
	<circle class="st2" cx="167.8" cy="2.8" r="16.9"/>
	
		<rect x="888.9" y="-0.1" transform="matrix(0.8439 -0.5366 0.5366 0.8439 133.3991 486.9215)" class="st26" width="28.8" height="28.8"/>
	<circle class="st2" cx="903.3" cy="14.2" r="14.4"/>
	<circle class="st2" cx="979.9" cy="3.3" r="20.5"/>
	
		<rect x="802.2" y="-3.6" transform="matrix(0.8439 -0.5366 0.5366 0.8439 122.7516 438.0225)" class="st26" width="23.5" height="23.5"/>
	<circle class="st2" cx="813.9" cy="8.1" r="11.8"/>
	
		<rect x="990.6" y="34.5" transform="matrix(0.8439 -0.5366 0.5366 0.8439 125.6604 555.9881)" class="st26" width="55.1" height="55.1"/>
	<circle class="st2" cx="1018" cy="62" r="27.5"/>
	<circle class="st2" cx="936" cy="22.6" r="36.4"/>
	
		<rect x="813.4" y="-4" transform="matrix(0.8439 -0.5366 0.5366 0.8439 121.3998 449.9851)" class="st26" width="40.9" height="40.9"/>
	<circle class="st2" cx="833.8" cy="16.4" r="20.5"/>
	<circle class="st2" cx="1015.9" cy="7.3" r="30.6"/>
	
		<rect x="843.7" y="16.5" transform="matrix(0.8439 -0.5366 0.5366 0.8439 118.0532 464.1295)" class="st26" width="25.5" height="25.5"/>
	<circle class="st2" cx="856.5" cy="29.2" r="12.7"/>
	
		<rect x="906.4" y="-0.2" transform="matrix(0.8439 -0.5366 0.5366 0.8439 134.7819 498.8713)" class="st26" width="36.2" height="36.2"/>
	<circle class="st2" cx="924.5" cy="17.8" r="18.1"/>
	
		<rect x="777" y="-8.7" transform="matrix(0.8439 -0.5366 0.5366 0.8439 119.5858 427.2788)" class="st26" width="33.8" height="33.8"/>
	<circle class="st2" cx="793.9" cy="8.1" r="16.9"/>
	
		<rect x="499.6" y="-19.9" transform="matrix(0.8439 -0.5366 0.5366 0.8439 83.2206 274.951)" class="st26" width="28.8" height="28.8"/>
	
		<ellipse transform="matrix(0.2051 -0.9787 0.9787 0.2051 414.0603 498.6216)" class="st2" cx="514" cy="-5.6" rx="14.4" ry="14.4"/>
	<circle class="st2" cx="424.7" cy="-11.7" r="11.8"/>
	
		<rect x="601.2" y="14.7" transform="matrix(0.8439 -0.5366 0.5366 0.8439 75.5189 343.9756)" class="st26" width="55.1" height="55.1"/>
	
		<rect x="510.3" y="-33.6" transform="matrix(0.8439 -0.5366 0.5366 0.8439 83.8701 293.7888)" class="st26" width="72.8" height="72.8"/>
	
		<ellipse transform="matrix(0.2344 -0.9721 0.9721 0.2344 415.9291 533.5363)" class="st6" cx="546.7" cy="2.7" rx="36.4" ry="36.4"/>
	
		<rect x="424.1" y="-23.8" transform="matrix(0.8439 -0.5366 0.5366 0.8439 71.2213 238.0146)" class="st26" width="40.9" height="40.9"/>
	<ellipse class="st2" cx="444.6" cy="-3.4" rx="20.5" ry="20.5"/>
	
		<rect x="454.5" y="-3.3" transform="matrix(0.8439 -0.5366 0.5366 0.8439 67.9181 252.1981)" class="st26" width="25.5" height="25.5"/>
	<circle class="st2" cx="467.2" cy="9.4" r="12.7"/>
	
		<rect x="517.1" y="-20" transform="matrix(0.8439 -0.5366 0.5366 0.8439 84.6034 286.9008)" class="st26" width="36.2" height="36.2"/>
	<circle class="st2" cx="535.2" cy="-2" r="18.1"/>
	
		<rect x="387.7" y="-28.5" transform="matrix(0.8439 -0.5366 0.5366 0.8439 69.4073 215.3083)" class="st26" width="33.8" height="33.8"/>
	<circle class="st2" cx="404.7" cy="-11.7" r="16.9"/>
	<rect x="922.5" y="-16.1" class="st26" width="39.2" height="39.2"/>
	<circle class="st2" cx="942.1" cy="3.4" r="19.6"/>
	<rect x="719.6" y="1.8" class="st26" width="46.8" height="46.8"/>
	<circle class="st2" cx="743" cy="25.2" r="23.4"/>
	<rect x="201.8" y="11.8" class="st26" width="46" height="46"/>
	<circle class="st2" cx="224.8" cy="34.8" r="23"/>
	<rect x="334.4" y="61.9" class="st26" width="23.9" height="23.9"/>
	<circle class="st2" cx="346.4" cy="73.8" r="12"/>
	<rect x="348" y="95.6" class="st26" width="44.9" height="44.9"/>
	<circle class="st2" cx="370.5" cy="118.1" r="22.5"/>
	<rect x="410.4" y="146.4" class="st26" width="28.6" height="28.6"/>
	<circle class="st2" cx="424.7" cy="160.7" r="14.3"/>
	<rect x="447.1" y="-31" class="st26" width="75.3" height="75.3"/>
	<circle class="st2" cx="484.7" cy="6.6" r="37.7"/>
	<rect x="664.3" y="50.9" class="st26" width="39.2" height="39.2"/>
	<circle class="st2" cx="683.9" cy="70.5" r="19.6"/>
	<rect x="461.3" y="68.9" class="st26" width="46.8" height="46.8"/>
	<circle class="st2" cx="484.7" cy="92.3" r="23.4"/>
	<rect x="109" y="24.6" class="st26" width="23.9" height="23.9"/>
	<circle class="st2" cx="120.9" cy="36.5" r="12"/>
	<rect x="122.5" y="58.3" class="st26" width="44.9" height="44.9"/>
	<circle class="st2" cx="145" cy="80.8" r="22.5"/>
	<rect x="184.9" y="109" class="st26" width="28.6" height="28.6"/>
	<circle class="st2" cx="199.2" cy="123.3" r="14.3"/>
	
		<rect x="97.1" y="43.5" transform="matrix(0.8617 -0.5074 0.5074 0.8617 -26.9505 87.3238)" class="st26" width="99.2" height="99.2"/>
	<ellipse class="st6" cx="146.7" cy="93.1" rx="49.6" ry="49.6"/>
	
		<rect x="257.6" y="78.3" transform="matrix(0.8617 -0.5074 0.5074 0.8617 -14.3982 159.5137)" class="st26" width="55.7" height="55.7"/>
	<circle class="st6" cx="285.5" cy="106.2" r="27.9"/>
	<rect x="115.3" y="17" class="st26" width="68.8" height="68.8"/>
	<circle class="st6" cx="149.7" cy="51.5" r="34.4"/>
	<rect x="189.2" y="-1.1" class="st26" width="52.5" height="52.5"/>
	<circle class="st6" cx="215.4" cy="25.1" r="26.2"/>
	<rect x="348.4" y="118.9" class="st26" width="44.3" height="44.3"/>
	<circle class="st6" cx="370.5" cy="141.1" r="22.1"/>
	<rect x="234.8" y="102.5" class="st26" width="43.7" height="43.7"/>
	
		<ellipse transform="matrix(0.1602 -0.9871 0.9871 0.1602 92.8023 357.676)" class="st6" cx="256.6" cy="124.3" rx="21.8" ry="21.8"/>
	<rect x="320" y="12" class="st26" width="39.2" height="39.2"/>
	<circle class="st2" cx="339.6" cy="31.6" r="19.6"/>
	<rect x="117" y="30" class="st26" width="46.8" height="46.8"/>
	<circle class="st2" cx="140.4" cy="53.4" r="23.4"/>
	<circle class="st6" cx="71.9" cy="284.8" r="63.2"/>
	<circle class="st6" cx="162" cy="252.9" r="53.3"/>
	<ellipse class="st6" cx="182.8" cy="396.2" rx="38.5" ry="38.5"/>
	<circle class="st6" cx="46.3" cy="434.4" r="35"/>
	
		<ellipse transform="matrix(0.2298 -0.9732 0.9732 0.2298 657.718 1177.0623)" class="st6" cx="1072.5" cy="173" rx="62.8" ry="62.8"/>
	<circle class="st6" cx="78.5" cy="75.5" r="62.8"/>
	<circle class="st6" cx="1099.9" cy="90" r="35.4"/>
	<circle class="st6" cx="833.7" cy="98" r="27.4"/>
	
		<ellipse transform="matrix(0.104 -0.9946 0.9946 0.104 -174.9212 400.3559)" class="st2" cx="134.8" cy="297.3" rx="35.4" ry="35.4"/>
	<circle class="st2" cx="116.1" cy="376.5" r="19"/>
	<circle class="st2" cx="225.9" cy="226" r="18.3"/>
	<circle class="st2" cx="765.9" cy="44.7" r="51.8"/>
	<circle class="st2" cx="833.7" cy="80.5" r="17.5"/>
	<circle class="st2" cx="717.6" cy="35.9" r="15.6"/>
	<circle class="st2" cx="174.9" cy="188.6" r="38.5"/>
	<ellipse class="st2" cx="2.8" cy="186.1" rx="38.5" ry="38.5"/>
	<ellipse transform="matrix(0.1435 -0.9896 0.9896 0.1435 749.2964 1065.6077)" class="st6" cx="990.3" cy="99.9" rx="43" ry="43"/>
	<circle class="st2" cx="1050.1" cy="167.3" r="24.4"/>
	<circle class="st2" cx="984.2" cy="55.7" r="31.6"/>
</g>
<g id="Layer_12_9_">
	<circle class="st2" cx="988.5" cy="-305.2" r="24.2"/>
</g>
<g id="Layer_12_10_">
	<circle class="st2" cx="1084.6" cy="-372.8" r="18.4"/>
</g>
<g id="Layer_12_11_">
	<circle class="st2" cx="1091.1" cy="-435.2" r="24.7"/>
</g>
<g id="Layer_12_12_">
	<circle class="st2" cx="975.4" cy="-343.1" r="11.4"/>
</g>
<g id="Layer_12_13_">
	<circle class="st2" cx="1149.1" cy="-334.6" r="20.3"/>
</g>
<g id="Layer_12_14_">
	<circle class="st6" cx="824" cy="-364.1" r="15.7"/>
</g>
<g id="Layer_12_4_">
	<circle class="st2" cx="69.7" cy="-265.1" r="20.6"/>
</g>
<g id="Layer_12_5_">
	<ellipse class="st2" cx="6.7" cy="-271.4" rx="13.1" ry="13.1"/>
</g>
<g id="Layer_12_6_">
	<circle class="st2" cx="197.8" cy="-206.2" r="21"/>
</g>
<g id="Layer_12_7_">
	<circle class="st6" cx="293.2" cy="-406.2" r="8.8"/>
</g>
<g id="Layer_12_8_">
	<circle class="st6" cx="156.5" cy="-293.1" r="38.8"/>
</g>
<g id="background_details_8_">
	
		<linearGradient id="background_30_1_" gradientUnits="userSpaceOnUse" x1="43.4218" y1="-6920.2686" x2="43.4218" y2="-7317.7656" gradientTransform="matrix(0.84 0.104 -0.104 0.84 -204.8065 5550.3003)">
		<stop  offset="0" style="stop-color:#2E3192"/>
		<stop  offset="5.000000e-02" style="stop-color:#3550A2"/>
		<stop  offset="0.1" style="stop-color:#3C6FB2"/>
		<stop  offset="0.17" style="stop-color:#428BC0"/>
		<stop  offset="0.24" style="stop-color:#47A1CC"/>
		<stop  offset="0.33" style="stop-color:#4BB2D4"/>
		<stop  offset="0.44" style="stop-color:#4EBDDB"/>
		<stop  offset="0.58" style="stop-color:#50C4DE"/>
		<stop  offset="1" style="stop-color:#50C6DF"/>
	</linearGradient>
	<path id="background_30" class="st27" d="M1170.7-478.8c-22.7-2.8-56.9,11.7-56.9,11.7c2.3-4.8,5.8-12.1,2.7-15
		c-2.2-2.1-10.6,2.9-16.7,6.1c15.1-10.3,24.3-20.7,21.8-25.3c-2.7-4.8-21.1,3.5-36.5,15.7c2.9-3.3,5.8-6.8,8.7-10.6
		c13.9-18.6,20.4-26.4,16.7-30.9c-2.5-3-19.8,7.5-34.3,25.6c1.7-10.5,0.3-18.7-4.2-20.3c-4.1-1.5-8.8,32.8-16.9,28.9
		c-138.6-66.9-263.8-68.7-353.2-28.6c-14-17.9-54.7-19.6-83.3-20c-16-0.3-27.9,12.5-36.4,22.6c0.7-11.4-2.9-21.5-9.7-26.9
		c0.9-1.7,2.1-3.3,3.3-4.8c2.1-2.4,4.6-4.4,7.4-5.9c1.8,5.3,7.5,8.2,12.8,6.5c5.3-1.8,8.2-7.5,6.5-12.8c-1.8-5.3-7.5-8.2-12.8-6.5
		c-3.7,1.2-6.4,4.5-6.9,8.4c-0.1,0.6-0.1,1.1-0.1,1.7c-7.1,0.8-13.7,4.2-18.4,9.7c-12.8-2.5-27.4,8.4-34.2,25.8l0,0
		c-1.7-2-7.6-8.8-14.6-8.1c-6,0.6-10.5,6.4-13.7,12.3c-4.1,0.3-12.1,1.2-13.8,5.8c-1.3,3.4,1.6,7.1,8.3,16
		c14.2,19,14.3,41.7,13.4,42.9c-5.4-13.5-15.6-30.8-19.5-24c-3.3,5.8-2.2,24.7,3.7,32.3c-10.4-5.6-23.7-8.1-7.3,11
		c-6.9-3.1-51.1-16.1-62.6-12c-6,2.2-11.4,5.9-15.5,10.8c-8.2-0.7-16.5-0.4-24.6,1c-10,1.7-19.6,5-28.5,9.7
		c-21.5,0.5-42,9.3-57.1,24.7c-17.6-4.6-36.4-1.4-51.4,8.9c-18.1-5.2-24.7-102.8-42.7-108c-4.3-12.1-14.1-21.2-26-23.7
		c-14.8-3-28.5,5.2-35.8,13.7c-15.6-5.2-39-2.5-54.6,15.8c-12.2-36.1-70.9-48.6-94.3-50.3l-11.8,216.7l1156.1,126.1 M551.3-529.7
		c-1.7,3.2-4.2,5.1-5.7,4.4c-1.4-0.8-1.3-4,0.3-7.2c1.7-3.2,4.2-5.1,5.7-4.4C553-536.1,552.9-532.9,551.3-529.7z M566.7-524.6
		c-1.7,3.2-4.2,5.1-5.7,4.4c-1.5-0.8-1.3-4,0.3-7.2c1.7-3.2,4.2-5.1,5.7-4.4S568.4-527.8,566.7-524.6L566.7-524.6z"/>
</g>
<g id="background_details_9_">
	
		<linearGradient id="SVGID_15_" gradientUnits="userSpaceOnUse" x1="521.6984" y1="-6536.9062" x2="521.6984" y2="-7047.9019" gradientTransform="matrix(0.8464 0 0 0.8464 84.4345 5391.4375)">
		<stop  offset="0" style="stop-color:#2E3192"/>
		<stop  offset="0.15" style="stop-color:#32419B"/>
		<stop  offset="0.46" style="stop-color:#3C6DB1"/>
		<stop  offset="0.88" style="stop-color:#4BB1D4"/>
		<stop  offset="1" style="stop-color:#50C6DF"/>
	</linearGradient>
	<path class="st28" d="M1163.9-485c0,0-46.6-74.5-201.4-47.4c-7.2,1.3-46,11.2-79.7,21.9c-22.3-7-30.3-2.4-30.3-2.4
		c6.1-24.8,0-34.7-4.4-35.3c-4.8-0.6-10.4,4.9-14.8,14.6c-2.2-23-8.4-40.7-14.6-40.3c-6.7,0.4-10.7,21.5-9.1,47.1
		c0.3,4.8,0.8,9.4,1.4,13.7c-10.2-16.8-21-27.4-25.9-24.9c-4.7,2.4-2.7,16.1,4.2,33l0,0c-6.4-4-11.4-5.5-13.7-3.4
		c-1.3,1.2-1.6,3.4-1,6.3c-28.9-4.3-86.6-9.8-140.6,34.8c-24.5,20.3-35.5,22-45.3,28.1c-1.5-0.6-3.1-1.1-4.6-1.5
		c-11.1-2.8-22.6,0.7-27.4,4.2c-15.5-3-30.1,28.4-136.8,28.4c-75.3,0-93.9-63.5-127.1-71.1c3.6-3.4,4.6-8.8,4-9.2
		c-2-1.6-6.9-0.1-13.3,3.7c7.9-14.7,10.9-26.4,6.7-28.2c-4.5-1.9-15.5,7.7-26.6,22.4c0.9-3.7,1.8-7.6,2.4-11.6
		c3.6-21.7,1.4-39.3-4.9-39.3c-5.8,0-13.2,15.2-17.1,34.8c-3.3-8-8.3-12.8-12.8-11.6c-2.9,0.8-1,7.8,0.2,14.5
		c-7.1-17-35.5-46.5-58.7-46.5c-32.3,0-15.1,47.7-71.9,72.8c-37.8,16.7-56.5,0.5-56.5,0.5c-4-8.2-9-13.1-13.3-12.1
		c-4.7,1.1-7.1,9.1-6.7,19.7C12.2-489-1.2-502-6.6-498.9c-5.8,3.3-0.1,24,12.8,46.2c2.4,4.1,4.9,8.1,7.3,11.6
		c-16.6-10.5-31-15.2-34.3-10.8c-3.1,4.2,4.7,15.6,18.4,27.7l0,0c-7.5-0.8-12.6,0.2-13.8,3c-0.8,2,0.4,4.6,3.1,7.6
		c-18.2,17.5-56.4,70.7-77.7,82.9c-8.3,4.7-14.5-2.3-17.5-2.2v122.6l-4.3,68.9l1277.2-10.2l-3.4-79.1"/>
</g>
<g id="SVGgroupcirc_3_">
	
		<rect x="202.5" y="-293.6" transform="matrix(0.8439 -0.5366 0.5366 0.8439 181.1311 77.4444)" class="st26" width="42.3" height="42.3"/>
	
		<rect x="99.1" y="-253.7" transform="matrix(0.8439 -0.5366 0.5366 0.8439 147.4247 21.1866)" class="st26" width="22" height="22"/>
	<circle class="st2" cx="110.1" cy="-242.8" r="11"/>
	
		<rect x="49.1" y="-285.8" transform="matrix(0.8439 -0.5366 0.5366 0.8439 153.1825 -4.0341)" class="st26" width="41.2" height="41.2"/>
	
		<rect x="-6.4" y="-284.6" transform="matrix(0.8439 -0.5366 0.5366 0.8439 146.7251 -38.7844)" class="st26" width="26.3" height="26.3"/>
	
		<rect x="153" y="-266.7" transform="matrix(0.8439 -0.5366 0.5366 0.8439 161.0463 51.2932)" class="st26" width="31.3" height="31.3"/>
	<circle class="st2" cx="168.7" cy="-251.1" r="15.6"/>
	
		<rect x="118" y="-277" transform="matrix(0.8439 -0.5366 0.5366 0.8439 163.0477 27.3933)" class="st26" width="21.2" height="21.2"/>
	<circle class="st2" cx="128.6" cy="-266.4" r="10.6"/>
	
		<rect x="32.9" y="-256.4" transform="matrix(0.8439 -0.5366 0.5366 0.8439 139.3181 -16.1501)" class="st26" width="18" height="18"/>
	<circle class="st2" cx="41.9" cy="-247.5" r="9"/>
	
		<rect x="184.8" y="-294.6" transform="matrix(0.8439 -0.5366 0.5366 0.8439 183.4836 59.4078)" class="st26" width="18" height="18"/>
	<circle class="st2" cx="193.8" cy="-285.6" r="9"/>
	<g class="st8">
		
			<rect x="176.8" y="-227.3" transform="matrix(0.8439 -0.5366 0.5366 0.8439 141.5828 73.9388)" class="st26" width="42.1" height="42.1"/>
		
			<rect x="107.3" y="-264.2" transform="matrix(0.8439 -0.5366 0.5366 0.8439 147.945 35.5677)" class="st26" width="55.6" height="55.6"/>
		<circle class="st2" cx="135.1" cy="-236.4" r="27.8"/>
		
			<rect x="41.4" y="-256.7" transform="matrix(0.8439 -0.5366 0.5366 0.8439 138.2599 -7.0272)" class="st26" width="31.3" height="31.3"/>
		<circle class="st2" cx="57.1" cy="-241.1" r="15.6"/>
	</g>
	<g class="st8">
		
			<rect x="172.8" y="-271.5" transform="matrix(0.8439 -0.5366 0.5366 0.8439 163.7335 66.5467)" class="st26" width="46.8" height="46.8"/>
		<circle class="st2" cx="196.2" cy="-248.1" r="23.4"/>
	</g>
	
		<rect x="64.6" y="-241.1" transform="matrix(0.8439 -0.5366 0.5366 0.8439 135.7428 3.7608)" class="st26" width="19.5" height="19.5"/>
	<circle class="st2" cx="74.4" cy="-231.4" r="9.7"/>
	
		<rect x="112.5" y="-253.8" transform="matrix(0.8439 -0.5366 0.5366 0.8439 148.498 30.2955)" class="st26" width="27.6" height="27.6"/>
	<circle class="st2" cx="126.3" cy="-240" r="13.8"/>
	
		<rect x="241.5" y="-317.9" transform="matrix(0.8439 -0.5366 0.5366 0.8439 202.2849 90.8834)" class="st26" width="31.6" height="31.6"/>
	<circle class="st2" cx="257.3" cy="-302.1" r="15.8"/>
	<g class="st8">
		
			<rect x="247" y="-343.2" transform="matrix(0.8439 -0.5366 0.5366 0.8439 212.3429 97.8442)" class="st26" width="54.6" height="54.6"/>
		<circle class="st2" cx="274.3" cy="-315.9" r="27.3"/>
		
			<rect x="220.7" y="-291.1" transform="matrix(0.8439 -0.5366 0.5366 0.8439 182.7524 87.3718)" class="st26" width="41.6" height="41.6"/>
		
			<ellipse transform="matrix(0.2298 -0.9732 0.9732 0.2298 449.0838 26.8419)" class="st2" cx="241.5" cy="-270.3" rx="20.8" ry="20.8"/>
		
			<rect x="151.2" y="-301" transform="matrix(0.8439 -0.5366 0.5366 0.8439 180.1399 43.2102)" class="st26" width="26.2" height="26.2"/>
		<circle class="st2" cx="164.3" cy="-288" r="13.1"/>
		
			<rect x="70.8" y="-299.4" transform="matrix(0.8439 -0.5366 0.5366 0.8439 165.0337 3.3962)" class="st26" width="35.1" height="35.1"/>
		<circle class="st2" cx="88.4" cy="-281.9" r="17.6"/>
		
			<rect x="13.6" y="-260.3" transform="matrix(0.8439 -0.5366 0.5366 0.8439 136.8793 -24.405)" class="st26" width="25.8" height="25.8"/>
		<ellipse class="st2" cx="26.6" cy="-247.4" rx="12.9" ry="12.9"/>
		
			<rect x="13.8" y="-296.5" transform="matrix(0.8439 -0.5366 0.5366 0.8439 154.6654 -26.9156)" class="st26" width="34.6" height="34.6"/>
		
			<ellipse transform="matrix(1.850899e-02 -0.9998 0.9998 1.850899e-02 309.6765 -242.9376)" class="st2" cx="31.1" cy="-279.2" rx="17.3" ry="17.3"/>
		
			<rect x="185.5" y="-322.4" transform="matrix(0.8439 -0.5366 0.5366 0.8439 195.3622 61.1671)" class="st26" width="34.6" height="34.6"/>
		
			<ellipse transform="matrix(0.1602 -0.9871 0.9871 0.1602 471.5389 -55.9983)" class="st2" cx="202.9" cy="-305.1" rx="17.3" ry="17.3"/>
	</g>
	<circle class="st6" cx="240.2" cy="-364.7" r="16.8"/>
	<circle class="st6" cx="344.6" cy="-382.3" r="4.6"/>
	<circle class="st2" cx="41.4" cy="-215.4" r="38.8"/>
</g>
<g id="SVGgroupcirc_4_">
	
		<rect x="1128.6" y="-404.5" transform="matrix(9.463076e-02 -0.9955 0.9955 9.463076e-02 1422.2715 804.4584)" class="st26" width="49.6" height="49.6"/>
	<circle class="st2" cx="1153.4" cy="-379.7" r="24.8"/>
	
		<rect x="1005.9" y="-363.1" transform="matrix(9.463076e-02 -0.9955 0.9955 9.463076e-02 1271.0295 697.1547)" class="st26" width="25.8" height="25.8"/>
	<circle class="st2" cx="1018.9" cy="-350.2" r="12.9"/>
	
		<rect x="964.2" y="-329.4" transform="matrix(9.463076e-02 -0.9955 0.9955 9.463076e-02 1198.7689 707.6497)" class="st26" width="48.4" height="48.4"/>
	
		<rect x="910.5" y="-280.4" transform="matrix(9.463076e-02 -0.9955 0.9955 9.463076e-02 1102.0924 681.8552)" class="st26" width="30.8" height="30.8"/>
	<circle class="st2" cx="926" cy="-265" r="15.4"/>
	
		<rect x="1066.2" y="-391.1" transform="matrix(9.463076e-02 -0.9955 0.9955 9.463076e-02 1353.0121 742.1854)" class="st26" width="36.7" height="36.7"/>
	
		<rect x="1038.4" y="-347.6" transform="matrix(9.463076e-02 -0.9955 0.9955 9.463076e-02 1285.0686 742.5281)" class="st26" width="24.8" height="24.8"/>
	<circle class="st2" cx="1050.8" cy="-335.3" r="12.4"/>
	
		<rect x="939.3" y="-319.5" transform="matrix(9.463076e-02 -0.9955 0.9955 9.463076e-02 1167.5365 665.949)" class="st26" width="21.1" height="21.1"/>
	<circle class="st2" cx="950" cy="-308.9" r="10.5"/>
	
		<rect x="1118.6" y="-360.6" transform="matrix(9.463076e-02 -0.9955 0.9955 9.463076e-02 1370.8115 807.2094)" class="st26" width="21.1" height="21.1"/>
	<circle class="st2" cx="1129.2" cy="-350.1" r="10.5"/>
	<g class="st8">
		
			<rect x="1066.4" y="-459.9" transform="matrix(9.463076e-02 -0.9955 0.9955 9.463076e-02 1421.0865 692.1962)" class="st26" width="49.4" height="49.4"/>
		
			<rect x="1008.9" y="-402.8" transform="matrix(9.463076e-02 -0.9955 0.9955 9.463076e-02 1311.5195 701.744)" class="st26" width="65.3" height="65.3"/>
		
			<ellipse transform="matrix(0.1602 -0.9871 0.9871 0.1602 1240.1738 717.2498)" class="st2" cx="1041.6" cy="-370.2" rx="32.7" ry="32.7"/>
		
			<rect x="944.1" y="-342" transform="matrix(9.463076e-02 -0.9955 0.9955 9.463076e-02 1193.611 665.1154)" class="st26" width="36.7" height="36.7"/>
		<circle class="st2" cx="962.5" cy="-323.7" r="18.3"/>
	</g>
	<g class="st8">
		
			<rect x="1084.2" y="-418" transform="matrix(9.463076e-02 -0.9955 0.9955 9.463076e-02 1395.2333 752.9974)" class="st26" width="54.9" height="54.9"/>
		<circle class="st2" cx="1111.7" cy="-390.6" r="27.5"/>
	</g>
	
		<rect x="882.9" y="-259.6" transform="matrix(9.463076e-02 -0.9955 0.9955 9.463076e-02 1056.7108 665.304)" class="st26" width="22.5" height="22.5"/>
	<circle class="st2" cx="894.2" cy="-248.3" r="11.2"/>
	
		<rect x="964" y="-354.5" transform="matrix(9.463076e-02 -0.9955 0.9955 9.463076e-02 1224.6498 660.4203)" class="st26" width="22.9" height="22.9"/>
	
		<rect x="1018.1" y="-378" transform="matrix(9.463076e-02 -0.9955 0.9955 9.463076e-02 1296.5885 702.1956)" class="st26" width="32.5" height="32.5"/>
	
		<ellipse transform="matrix(0.1602 -0.9871 0.9871 0.1602 1225.7369 717.2812)" class="st2" cx="1034.4" cy="-361.7" rx="16.2" ry="16.2"/>
	<g class="st8">
		
			<rect x="1146.6" y="-415.9" transform="matrix(9.463076e-02 -0.9955 0.9955 9.463076e-02 1449.9232 811.3731)" class="st26" width="48.9" height="48.9"/>
		<circle class="st2" cx="1171" cy="-391.5" r="24.4"/>
		
			<rect x="1084.3" y="-347.3" transform="matrix(9.463076e-02 -0.9955 0.9955 9.463076e-02 1326.027 794.2099)" class="st26" width="30.8" height="30.8"/>
		<circle class="st2" cx="1099.7" cy="-331.9" r="15.4"/>
		
			<rect x="996.4" y="-318.2" transform="matrix(9.463076e-02 -0.9955 0.9955 9.463076e-02 1217.0466 742.9266)" class="st26" width="41.2" height="41.2"/>
		<circle class="st2" cx="1017" cy="-297.7" r="20.6"/>
		
			<rect x="918.7" y="-316" transform="matrix(9.463076e-02 -0.9955 0.9955 9.463076e-02 1144.9393 657.431)" class="st26" width="30.4" height="30.4"/>
		<circle class="st2" cx="934" cy="-300.8" r="15.2"/>
		
			<rect x="935.3" y="-290.3" transform="matrix(9.463076e-02 -0.9955 0.9955 9.463076e-02 1133.991 706.9781)" class="st26" width="40.7" height="40.7"/>
		<circle class="st2" cx="955.7" cy="-270" r="20.3"/>
		
			<rect x="1128.7" y="-354.9" transform="matrix(9.463076e-02 -0.9955 0.9955 9.463076e-02 1373.416 841.0234)" class="st26" width="40.7" height="40.7"/>
	</g>
	
		<ellipse transform="matrix(0.7071 -0.7071 0.7071 0.7071 505.9556 683.8849)" class="st6" cx="1078.5" cy="-268.8" rx="72.2" ry="72.2"/>
	<circle class="st6" cx="871.7" cy="-292.4" r="44.9"/>
</g>
<g id="background_details_10_">
	<path id="highlight" class="st9" d="M129.4-605.3c0,26.1-21.1,47.2-47.2,47.2c-6.6,0-13.1-1.4-19.2-4.1
		c-2.6,10.9-13.5,17.6-24.3,15c-10.9-2.6-17.6-13.5-15-24.3c1.8-7.5,7.7-13.3,15.2-15c-10.3-23.9,0.7-51.7,24.6-62.1
		s51.7,0.7,62.1,24.6C128.1-618,129.4-611.7,129.4-605.3L129.4-605.3z"/>
</g>
<g id="background_details_11_">
	
		<linearGradient id="SVGID_16_" gradientUnits="userSpaceOnUse" x1="616.3922" y1="2048.7502" x2="616.3922" y2="1509.8706" gradientTransform="matrix(0.8464 0 0 0.8464 84.4345 5391.4375)">
		<stop  offset="0" style="stop-color:#50C6DF;stop-opacity:0.5"/>
		<stop  offset="0.44" style="stop-color:#50C6DF;stop-opacity:0.51"/>
		<stop  offset="0.6" style="stop-color:#50C6DF;stop-opacity:0.54"/>
		<stop  offset="0.71" style="stop-color:#50C6DF;stop-opacity:0.59"/>
		<stop  offset="0.8" style="stop-color:#50C6DF;stop-opacity:0.67"/>
		<stop  offset="0.88" style="stop-color:#50C6DF;stop-opacity:0.77"/>
		<stop  offset="0.95" style="stop-color:#50C6DF;stop-opacity:0.89"/>
		<stop  offset="1" style="stop-color:#50C6DF"/>
	</linearGradient>
	<path class="st29" d="M1005.8,7125.5c59.4-351.2-163.8-426.3-264-411.9c-2.1,0.3-4.2,0.6-6.3,1c3.1-4.7,4.3-8.5,3-9.8
		c-1.4-1.3-5.4,0.2-10.4,3.7c7.7-19.1,10.4-35.5,6-37.5c-4.2-1.8-13.3,9.9-21.4,26.9c3.4-14.4,3.2-26.1-0.5-27.2
		c-4.1-1.1-11.1,11.3-15.6,27.7c-0.8,2.8-1.4,5.6-1.9,8.2c-1.1-8-3.2-13.5-5.6-13.5c-2.2,0-4,4.7-4.9,11.5c-2.9-0.4-5.9-0.6-8.8-0.6
		c-0.3,0-0.5,0-0.8,0c-2.7-13.3-7.1-22.9-10.8-22.4c-3.6,0.5-5.3,11.1-4.1,24.7c-5.2,1.4-10.2,3.3-15,5.7c0.1-4.2-0.1-8.4-0.4-12.6
		c-1.5-16.9-6.2-30.4-10.4-30c-4.3,0.4-6.5,14.4-5,31.3c0.3,2.9,0.6,5.7,1,8.4c-3.8-7.2-7.7-11.6-10-10.7c-3.1,1.2-1.7,12.1,3,24.3
		c0.3,0.8,0.6,1.5,0.9,2.2c-0.7-1-1.4-2-2.2-3c-8.5-11.5-17.6-19.7-22.3-20.5c-1.5-1.1-2.8-1.5-3.7-1.1c-3.1,1.6-0.6,13,5.7,25.5
		c1.1,2.2,2.2,4.2,3.3,6.1c-5.1-4.3-9.4-6.5-10.9-5.2c-2,1.8,2.4,9.7,9.7,17.7c0.2,0.3,0.5,0.5,0.7,0.7c-1.1,1.4-2.3,2.8-3.4,4.2
		l-0.2,0.2c-1.6-1.5-3.3-3-5.1-4.6c-10.7-9-21.3-14.1-23.5-11.4c-2.3,2.7,4.6,12.2,15.4,21.2c2.2,1.8,4.3,3.5,6.4,4.9
		c-1,1.7-2,3.3-2.9,5c-2.6-3.9-9-9.3-17-14.2c-11.9-7.3-23.1-10.9-24.9-7.9c-1.8,3,6.3,11.4,18.2,18.7c2,1.3,4.1,2.4,6,3.4
		c-6.6-1-11.5-0.6-12,1.3c-0.7,2.6,7.1,7.1,17.5,9.9l-0.7,0.5h-0.4c-14-0.1-25.3,2.7-25.4,6.2c0,2,3.8,3.9,9.8,5.1
		c-29.9,22.3-165.7,196.1-365.3,227.3L1005.8,7125.5z"/>
</g>
<g id="background_details_12_">
	
		<linearGradient id="SVGID_17_" gradientUnits="userSpaceOnUse" x1="564.3228" y1="2262.7148" x2="564.3228" y2="1567.4171" gradientTransform="matrix(0.8464 0 0 0.8464 84.4345 5391.4375)">
		<stop  offset="0" style="stop-color:#50C6DF"/>
		<stop  offset="1.000000e-02" style="stop-color:#50C4DE"/>
		<stop  offset="0.25" style="stop-color:#4490C3"/>
		<stop  offset="0.48" style="stop-color:#3A67AE"/>
		<stop  offset="0.69" style="stop-color:#34499F"/>
		<stop  offset="0.87" style="stop-color:#2F3795"/>
		<stop  offset="1" style="stop-color:#2E3192"/>
	</linearGradient>
	<path class="st30" d="M1124.3,6981.5c-25.5-53.8-179.1-12.7-236.1-29.7c-45.9-13.6-126.2-70.5-172.2-83.8
		c-18.6-5.4-45-7.7-73.4-9.3c7.2-7.3,11-13.8,9.1-16.2c-2.6-3.2-14.7,2.2-27,12.1c-1.2,1-2.4,2-3.6,3c-8.5-0.4-17.1-0.8-25.6-1.2
		c4.4-5.2,8.2-10.9,11.3-17c7.3-14,10.2-27,6.5-28.9c-3.6-1.9-12.6,7.9-19.8,22c-4.8,9.2-7.7,17.9-8.1,23.4
		c-6.2-0.3-12.3-0.7-18.2-1.2c2.6-6,4.4-12.3,5.6-18.8c2.9-15.5,2-28.8-2.1-29.5c-4.1-0.8-9.7,11.2-12.7,26.8
		c-1.4,6.8-1.9,13.7-1.5,20.6c-9.3-0.8-18.1-1.9-26.3-3.1c-0.7-5.3-1.9-10.6-3.6-15.7c-4.7-15.1-11.8-26.3-15.7-25.1
		c-4,1.2-3.3,14.5,1.4,29.6c0.9,2.9,1.9,5.7,3,8.3c-4.2-1-8.4-2.1-12.5-3.5c-48.4-16.6-125.7-91.6-174.4-107.4
		c-76.7-24.9-317.1,53.3-330-18.8l-2.3,588.5c0,0,465.4-21.3,570.8-49.4c54.3-14.5,168.3-101.3,223.2-89.1
		c147,32.8,209.1,4.4,217.1,0C1055.2,7141.5,1147.8,7031.4,1124.3,6981.5z"/>
</g>
<g id="background_details_13_">
	
		<linearGradient id="SVGID_18_" gradientUnits="userSpaceOnUse" x1="779.4358" y1="2389.0149" x2="779.4358" y2="1850.1353" gradientTransform="matrix(0.8464 0 0 0.8464 84.4345 5391.4375)">
		<stop  offset="0" style="stop-color:#50C6DF;stop-opacity:0.5"/>
		<stop  offset="0.44" style="stop-color:#50C6DF;stop-opacity:0.51"/>
		<stop  offset="0.6" style="stop-color:#50C6DF;stop-opacity:0.54"/>
		<stop  offset="0.71" style="stop-color:#50C6DF;stop-opacity:0.59"/>
		<stop  offset="0.8" style="stop-color:#50C6DF;stop-opacity:0.67"/>
		<stop  offset="0.88" style="stop-color:#50C6DF;stop-opacity:0.77"/>
		<stop  offset="0.95" style="stop-color:#50C6DF;stop-opacity:0.89"/>
		<stop  offset="1" style="stop-color:#50C6DF"/>
	</linearGradient>
	<path class="st31" d="M1143.8,7413.5c59.4-351.2-163.8-426.3-264-411.9c-2.1,0.3-4.2,0.6-6.3,1c3.1-4.7,4.3-8.5,3-9.8
		c-1.4-1.3-5.4,0.2-10.4,3.7c7.7-19.1,10.4-35.5,6-37.5c-4.2-1.8-13.3,9.9-21.4,26.9c3.4-14.4,3.2-26.1-0.5-27.2
		c-4.1-1.1-11.1,11.3-15.6,27.7c-0.8,2.8-1.4,5.6-1.9,8.2c-1.1-8-3.2-13.5-5.6-13.5c-2.2,0-4,4.7-4.9,11.5c-2.9-0.4-5.9-0.6-8.8-0.6
		c-0.3,0-0.5,0-0.8,0c-2.7-13.3-7.1-22.9-10.8-22.4c-3.6,0.5-5.3,11.1-4.1,24.7c-5.2,1.4-10.2,3.3-15,5.7c0.1-4.2-0.1-8.4-0.4-12.6
		c-1.5-16.9-6.2-30.4-10.4-30c-4.3,0.4-6.5,14.4-5,31.3c0.3,2.9,0.6,5.7,1,8.4c-3.8-7.2-7.7-11.6-10-10.7c-3.1,1.2-1.7,12.1,3,24.3
		c0.3,0.8,0.6,1.5,0.9,2.2c-0.7-1-1.4-2-2.2-3c-8.5-11.5-17.6-19.7-22.3-20.5c-1.5-1.1-2.8-1.5-3.7-1.1c-3.1,1.6-0.6,13,5.7,25.5
		c1.1,2.2,2.2,4.2,3.3,6.1c-5.1-4.3-9.4-6.5-10.9-5.2c-2,1.8,2.4,9.7,9.7,17.7c0.2,0.3,0.5,0.5,0.7,0.7c-1.1,1.4-2.3,2.8-3.4,4.2
		l-0.2,0.2c-1.6-1.5-3.3-3-5.1-4.6c-10.7-9-21.3-14.1-23.5-11.4c-2.3,2.7,4.6,12.2,15.4,21.2c2.2,1.8,4.3,3.5,6.4,4.9
		c-1,1.7-2,3.3-2.9,5c-2.6-3.9-9-9.3-17-14.2c-11.9-7.3-23.1-10.9-24.9-7.9c-1.8,3,6.3,11.4,18.2,18.7c2,1.3,4.1,2.4,6,3.4
		c-6.6-1-11.5-0.6-12,1.3c-0.7,2.6,7.1,7.1,17.5,9.9l-0.7,0.5h-0.4c-14-0.1-25.3,2.7-25.4,6.2c0,2,3.8,3.9,9.8,5.1
		c-29.9,22.3-165.7,196.1-365.3,227.3L1143.8,7413.5z"/>
</g>
</svg>
