<?xml version="1.0" encoding="utf-8"?>
<!-- Generator: Adobe Illustrator 22.0.1, SVG Export Plug-In . SVG Version: 6.00 Build 0)  -->
<svg version="1.1" id="Layer_1" xmlns="http://www.w3.org/2000/svg" xmlns:xlink="http://www.w3.org/1999/xlink" x="0px" y="0px"
	 viewBox="0 0 531.7 104.9" style="enable-background:new 0 0 531.7 104.9;" xml:space="preserve">
<g>
	<g>
		<g>
			<g>
				<polygon points="64.9,79.6 65,79.6 18.4,59.8 18.4,68.9 				"/>
				<polygon points="18.4,32.7 18.4,43.6 65.1,79.6 65.1,79.6 65.1,79.6 				"/>
				<polygon points="65,79.6 65.1,79.6 18.4,46.7 18.4,57.2 				"/>
				<polygon points="65.1,79.5 65.1,79.3 52.8,21.5 43.2,21.5 				"/>
				<polygon points="65.1,79.6 65.1,79.6 25.7,21.5 18.4,21.5 18.4,28.7 				"/>
				<polygon points="64.8,79.6 18.4,71.2 18.4,79.6 				"/>
				<polygon points="65.1,21.5 55.6,21.5 65.1,79.3 				"/>
				<polygon points="65.1,79.6 65.1,79.5 40.1,21.5 29.4,21.5 				"/>
			</g>
			<g>
				<g>
					<path d="M89,63.7h-9.3l-2.2,16.1h-5.3l8.5-58.1H88l8.5,58.1h-5.3L89,63.7z M84.4,25.7h-0.2l-4,33.5h8.2L84.4,25.7z"/>
					<path d="M99.2,35.9h4.7v3h0.2c1.5-2.3,3.1-3.5,5.8-3.5c1.9,0,3.6,1,4.7,2.7c1.4-1.7,3-2.7,5.2-2.7c4.1,0,6,3.1,6,6.6v37.8h-5
						v-36c0-2.4-0.6-3.8-2.5-3.8c-2,0-3.2,1.9-3.2,4v35.8h-5v-36c0-2.4-0.6-3.8-2.5-3.8c-2,0-3.2,1.9-3.2,4v35.8h-5V35.9H99.2z"/>
					<path d="M141.6,65.7h5v6.2c0,6.7-4,8.5-8.3,8.5s-8.3-1.8-8.3-8.5V44c0-6.7,4-8.5,8.3-8.5s8.3,1.8,8.3,8.5v15.2H135v12.7
						c0,3.2,1.3,4.4,3.3,4.4s3.3-1.2,3.3-4.4L141.6,65.7L141.6,65.7z M141.6,43.9c0-3.2-1.3-4.4-3.3-4.4s-3.3,1.2-3.3,4.4v10.7h6.6
						L141.6,43.9L141.6,43.9z"/>
					<path d="M150.8,35.9h4.7V39h0.2c1.5-2.3,3.5-3.5,6.7-3.5v5c-4.8,0-6.5,1.9-6.5,6.4v32.9h-5V35.9H150.8z"/>
					<path d="M164.7,35.9h5v43.9h-5V35.9z M164.6,21.7h5.3v6.1h-5.3V21.7z"/>
					<path d="M184.5,43.1c0-2.7-0.7-3.6-2.3-3.6c-1.7,0-2.7,1.1-2.7,3.6V73c0,2.3,0.6,3.3,2.5,3.3s2.6-1.3,2.6-3.3v-7.1h5v7
						c0,4.8-2.7,7.4-7.5,7.4c-4,0-7.6-2-7.6-6.6V43.9c0-6.7,4-8.5,8.3-8.5c4.4,0,6.8,2.3,6.8,7.1v7.3h-5L184.5,43.1L184.5,43.1z"/>
					<path d="M205.3,43.2c0-2.7-0.9-3.7-2.9-3.7c-2.8,0-3.2,1.7-3.2,4.3v4.1h-5v-5.2c0-4.5,3.8-7.2,8.4-7.2c4.8,0,7.7,2,7.7,7.6
						v36.7h-4.7v-2.3h-0.2c-1.4,1.7-2.8,2.8-5.8,2.8c-3.9,0-6-2.8-6-7.2V61.2c0-5.5,3.7-8.5,11.6-8.5v-9.5H205.3z M205.3,56.7
						c-2.6,0-6.6,1-6.6,4.8v10c0,3.1,0.5,4.8,3.1,4.8c2.2,0,3.5-1.6,3.5-4.5V56.7z"/>
					<path d="M214.5,35.9h4.7v3h0.2c1.1-1.9,3.2-3.5,5.8-3.5c4.1,0,6,3.1,6,6.6v37.8h-5V44c0-2.3-0.9-4-3.1-4c-2.3,0-3.5,2.3-3.5,4
						v35.8h-5V35.9H214.5z"/>
				</g>
				<g>
					<path d="M253.8,29.7c0-2.3-0.6-3.9-3.1-3.9s-3.1,1.7-3.1,3.9v6.1c0,1.9,0.3,3.7,1.2,5.2l8.5,14.5c1.2,2,1.9,4.5,1.9,7.1v9.2
						c0,5.5-3.2,8.5-8.5,8.5c-5.9,0-8.7-2.7-8.7-8.5v-8h5.3v7.7c0,2.7,1,4.3,3.4,4.3c2.2,0,3.2-1.6,3.2-4.3v-8.1
						c0-2-0.4-3.5-1.5-5.6l-7.8-13.6c-1.5-2.5-2.3-4.4-2.3-7.4v-7c0-5.7,3-8.5,8.4-8.5c6,0,8.4,2.8,8.4,8.1v7.4h-5.3V29.7z"/>
					<path d="M263.2,35.9h4.7v2.7h0.2c0.8-2,2.5-3.2,5.3-3.2c3.2,0,6.4,1.9,6.4,8.5v29.5c0,3.9-2.3,6.8-5.7,6.8
						c-2.6,0-4.7-1.2-5.7-3.2h-0.2v11.4h-5L263.2,35.9L263.2,35.9z M274.8,44.2c0-3.1-0.9-4.7-2.9-4.7s-3.7,1.3-3.7,4.8V71
						c0,2.7,1.4,4.8,3.6,4.8c2,0,3-1.9,3-5.1V44.2z"/>
					<path d="M295.5,65.7h5v6.2c0,6.7-4,8.5-8.3,8.5s-8.3-1.8-8.3-8.5V44c0-6.7,4-8.5,8.3-8.5s8.3,1.8,8.3,8.5v15.2h-11.6v12.7
						c0,3.2,1.3,4.4,3.3,4.4s3.3-1.2,3.3-4.4L295.5,65.7L295.5,65.7z M295.5,43.9c0-3.2-1.3-4.4-3.3-4.4s-3.3,1.2-3.3,4.4v10.7h6.6
						L295.5,43.9L295.5,43.9z"/>
					<path d="M314.8,43.1c0-2.7-0.7-3.6-2.3-3.6c-1.7,0-2.7,1.1-2.7,3.6V73c0,2.3,0.6,3.3,2.5,3.3s2.6-1.3,2.6-3.3v-7.1h5v7
						c0,4.8-2.7,7.4-7.5,7.4c-4,0-7.6-2-7.6-6.6V43.9c0-6.7,4-8.5,8.3-8.5s6.8,2.3,6.8,7.1v7.3h-5L314.8,43.1L314.8,43.1z"/>
					<path d="M324.5,35.9h5v43.9h-5V35.9z M324.3,21.7h5.3v6.1h-5.3V21.7z"/>
					<path d="M345.8,43.2c0-2.7-0.9-3.7-2.9-3.7c-2.8,0-3.2,1.7-3.2,4.3v4.1h-5v-5.2c0-4.5,3.8-7.2,8.4-7.2c4.8,0,7.7,2,7.7,7.6
						v36.7h-4.7v-2.3h-0.2c-1.4,1.7-2.8,2.8-5.8,2.8c-3.9,0-6-2.8-6-7.2V61.2c0-5.5,3.7-8.5,11.6-8.5v-9.5H345.8z M345.8,56.7
						c-2.6,0-6.6,1-6.6,4.8v10c0,3.1,0.5,4.8,3.1,4.8c2.2,0,3.5-1.6,3.5-4.5V56.7z"/>
					<path d="M355.6,21.7h5v58.1h-5V21.7z"/>
					<path d="M366.1,30.1l5-1.9V36h3.5v4h-3.5v33.3c0,2,1,2.5,2.5,2.5h1v4h-2.4c-4.2,0-6.1-2-6.1-5.4V39.9h-2.5v-4h2.5V30.1z"/>
					<path d="M385.3,88.5h-5l1.8-8.7l-6.4-43.9h5l3.5,29.5h0.2l4.3-29.5h5L385.3,88.5z"/>
				</g>
				<g>
					<path d="M416.7,21.7h5.3v58.1h-5.3V51.9h-8v27.9h-5.3V21.7h5.3v25.7h8V21.7z"/>
					<path d="M439,65.7h5v6.2c0,6.7-4,8.5-8.3,8.5s-8.3-1.8-8.3-8.5V44c0-6.7,4-8.5,8.3-8.5s8.3,1.8,8.3,8.5v15.2h-11.6v12.7
						c0,3.2,1.3,4.4,3.3,4.4s3.3-1.2,3.3-4.4V65.7z M439,43.9c0-3.2-1.3-4.4-3.3-4.4s-3.3,1.2-3.3,4.4v10.7h6.6V43.9z"/>
					<path d="M459.7,43.2c0-2.7-0.9-3.7-2.9-3.7c-2.8,0-3.2,1.7-3.2,4.3v4.1h-5v-5.2c0-4.5,3.8-7.2,8.4-7.2c4.8,0,7.7,2,7.7,7.6
						v36.7H460v-2.3h-0.1c-1.4,1.7-2.8,2.8-5.8,2.8c-3.9,0-6-2.8-6-7.2V61.2c0-5.5,3.7-8.5,11.6-8.5V43.2z M459.7,56.7
						c-2.6,0-6.6,1-6.6,4.8v10c0,3.1,0.5,4.8,3.1,4.8c2.2,0,3.5-1.6,3.5-4.5V56.7z"/>
					<path d="M469.5,21.7h5v58.1h-5V21.7z"/>
					<path d="M480,30.1l5-1.9V36h3.5v4H485v33.3c0,2,1,2.5,2.5,2.5h1v4h-2.4c-4.2,0-6.1-2-6.1-5.4V39.9h-2.5v-4h2.5V30.1z"/>
					<path d="M491,21.7h5v17.2h0.2c1-1.9,3.1-3.5,5.6-3.5c3.9,0,5.8,3.1,5.8,6.6v37.8h-5V44c0-2.3-0.9-4-3.1-4c-2.3,0-3.5,2.3-3.5,4
						v35.8h-5V21.7z"/>
				</g>
			</g>
		</g>
		<g>
			<path d="M517.2,69.3c2.9,0,5.2,2.4,5.2,5.3c0,3-2.3,5.3-5.2,5.3s-5.2-2.3-5.2-5.3C511.9,71.7,514.3,69.3,517.2,69.3L517.2,69.3z
				 M517.2,70.2c-2.3,0-4.2,2-4.2,4.5s1.9,4.5,4.3,4.5c2.4,0,4.2-2,4.2-4.5C521.4,72.2,519.6,70.2,517.2,70.2L517.2,70.2z
				 M516.2,77.7h-0.9v-5.9c0.5-0.1,1-0.1,1.7-0.1c0.9,0,1.5,0.2,1.8,0.4c0.4,0.3,0.5,0.7,0.5,1.2c0,0.8-0.5,1.2-1.2,1.4l0,0
				c0.5,0.1,0.9,0.6,1,1.4c0.1,0.9,0.3,1.3,0.4,1.5h-1c-0.1-0.2-0.3-0.7-0.4-1.5c-0.1-0.8-0.5-1-1.3-1h-0.7v2.6H516.2z M516.2,74.4
				h0.7c0.8,0,1.4-0.3,1.4-1c0-0.5-0.4-1-1.4-1c-0.3,0-0.5,0-0.7,0V74.4z"/>
		</g>
	</g>
</g>
</svg>
