<?xml version="1.0" encoding="utf-8"?>
<!-- Generator: Adobe Illustrator 18.0.0, SVG Export Plug-In . SVG Version: 6.00 Build 0)  -->
<!DOCTYPE svg PUBLIC "-//W3C//DTD SVG 1.1//EN" "http://www.w3.org/Graphics/SVG/1.1/DTD/svg11.dtd">
<svg version="1.1" id="Layer_1" xmlns="http://www.w3.org/2000/svg" xmlns:xlink="http://www.w3.org/1999/xlink" x="0px" y="0px"
	 viewBox="0 0 651.3 306.6" enable-background="new 0 0 651.3 306.6" xml:space="preserve">
<path d="M0.4,0h650.4c0.2,0,0.5,0.1,0.5,0.2v306.4c0,0.1-0.2,0.2-0.5,0.2H0.4c-0.3,0-0.4-0.1-0.4-0.2V0.2C0,0.1,0.2,0,0.4,0L0.4,0z"
	/>
<g>
	<path fill="#EE3424" stroke="#EE3424" stroke-width="0.4975" stroke-miterlimit="3.8637" d="M261.5,203.7
		c4.3-5.7,13.8-7.7,21.2-4.4c7.4,3.3,10,10.6,5.7,16.4c-4.3,5.7-13.8,7.7-21.2,4.4C259.7,216.7,257.2,209.4,261.5,203.7L261.5,203.7
		z"/>
	<path fill="#FFFFFF" d="M261.5,143.8c4.3-5.7,13.8-7.7,21.2-4.4c7.4,3.3,10,10.6,5.7,16.4c-4.3,5.7-13.8,7.7-21.2,4.4
		C259.7,156.9,257.2,149.6,261.5,143.8L261.5,143.8z"/>
	<path fill="#FFFFFF" d="M261.5,84c4.3-5.7,13.8-7.7,21.2-4.4c7.4,3.3,10,10.6,5.7,16.3c-4.3,5.7-13.8,7.7-21.2,4.4
		C259.7,97,257.2,89.7,261.5,84L261.5,84z"/>
	<polygon fill="#FFFFFF" points="288.8,231.2 299.8,222.7 332.8,248.1 321.8,256.6 288.8,231.2 	"/>
	<path fill="#FFFFFF" d="M290.5,189c-14.9-6.6-33.9-2.7-42.5,8.8c-8.6,11.4-3.5,26.1,11.4,32.7c4.9,2.2,10.3,3.2,15.5,3.2v12
		c-7.9,0-16-1.5-23.3-4.8c-22.3-9.9-30-31.9-17.1-49.1c12.9-17.2,41.4-23.1,63.7-13.1c14.9,6.7,23.3,18.7,23.3,31.1H306
		C306,201.4,300.4,193.4,290.5,189L290.5,189z"/>
	<path fill="#FFFFFF" d="M228.3,89.7c0-19.7,20.7-35.7,46.3-35.7c25.6,0,46.3,16,46.3,35.7c0,4.2-1,8.3-2.7,12.1h-17
		c2.7-3.5,4.3-7.7,4.3-12.1c0-13.1-13.8-23.8-30.9-23.8c-17,0-30.9,10.6-30.9,23.8c0,13.1,13.8,23.8,30.9,23.8v11.9
		C249,125.4,228.3,109.4,228.3,89.7L228.3,89.7z"/>
	<path fill="#FFFFFF" d="M320.9,149.1c0,19.7-20.7,35.7-46.3,35.7c-25.6,0-46.3-16-46.3-35.7c0-4.2,1-8.3,2.7-12.1h17
		c-2.7,3.5-4.3,7.7-4.3,12.1c0,13.1,13.8,23.8,30.9,23.8c17.1,0,30.9-10.6,30.9-23.8c0-13.1-13.8-23.8-30.9-23.8v-11.9
		C300.2,113.5,320.9,129.5,320.9,149.1L320.9,149.1z"/>
</g>
<g>
	<path fill="#FFFFFF" d="M361.7,73v88.8h-20.8V73H361.7z"/>
	<path fill="#FFFFFF" d="M412.8,163.2c-12,0-21.2-4.5-27.8-13.5s-9.8-19.8-9.8-32.6c0-13,3.3-23.8,9.9-32.5c6.6-8.7,16.1-13,28.3-13
		c12.4,0,21.7,4.6,28.1,13.9c6.3,9.3,9.5,19.9,9.5,31.8c0,12.9-3.3,23.7-9.8,32.6C434.8,158.7,425.3,163.2,412.8,163.2z M413.4,88.6
		c-10.9,0-16.4,9.6-16.4,28.8c0,19.2,5.5,28.8,16.4,28.8c10.6,0,15.8-9.6,15.8-28.8C429.3,98.2,424,88.6,413.4,88.6z"/>
	<path fill="#FFFFFF" d="M533,73v88.8h-17.8l-34.8-60c0,1.5,0.1,2.5,0.1,3c0.2,1.5,0.3,2.8,0.3,3.8v53.2h-16.2V73h22.4l30.2,52.4
		c-0.3-2.6-0.4-4.6-0.4-5.9V73H533z"/>
</g>
<g>
	<path fill="#FFFFFF" d="M129.9,93H88.3v19.9h32.9v16.6H88.3v34.7H66.7V75.4h63.2V93z"/>
	<path fill="#FFFFFF" d="M210.6,75.4v55.3c0,8.9-1,15.6-3.1,19.9c-2,4.4-5.8,7.9-11.3,10.7c-5.5,2.8-12.5,4.2-21,4.2
		c-8.5,0-15.3-1.3-20.4-3.8c-5.1-2.5-8.8-6.1-11.4-10.7c-2.5-4.6-3.8-11.4-3.8-20.4V75.4h22.6v55.3c0,4.8,0.4,8.3,1.2,10.5
		c0.8,2.3,2.4,4,4.8,5.4c2.4,1.3,5.4,2,8.9,2c3.9,0,7.1-0.7,9.5-2c2.5-1.3,4.1-3,4.9-5.2c0.8-2.1,1.2-5.7,1.2-10.8V75.4H210.6z"/>
</g>
<g>
	<path fill="#FFFFFF" d="M495.6,198.4h5.3c3,0,5.1-0.6,6.2-1.9c1.1-1.3,1.6-2.6,1.6-4c0-1.6-0.6-3-1.8-4.3c-1.2-1.2-2.9-1.9-5-1.9
		c-4.1,0-6.7,2.2-7.7,6.5l-10.4-1.7c0.9-3.9,2.9-7.1,6.3-9.6s7.4-3.8,12.2-3.8c5.1,0,9.3,1.2,12.8,3.6c3.5,2.4,5.2,5.7,5.2,9.9
		c0,5.5-2.9,9.2-8.6,11.3c6.8,1.8,10.1,5.8,10.1,11.9c0,4.4-1.7,8.1-5.2,10.9c-3.5,2.9-8.2,4.3-14.3,4.3c-5.8,0-10.4-1.5-13.9-4.4
		c-3.4-2.9-5.5-6.6-6.1-10.9l10.7-1.5c1,5.2,4,7.8,9,7.8c2.3,0,4.2-0.6,5.6-1.8c1.4-1.2,2.2-2.9,2.2-4.9c0-2.2-0.7-3.8-2-4.9
		c-1.3-1.1-3.8-1.6-7.5-1.6h-4.6V198.4z"/>
	<path fill="#FFFFFF" d="M566.4,191.1l-10.1,2.7c-1-5.2-3.5-7.7-7.5-7.7c-5.9,0-8.9,5.6-8.9,16.9c2.4-3.9,6.1-5.8,11.3-5.8
		c4.7,0,8.5,1.5,11.5,4.6c3,3.1,4.5,6.7,4.5,10.9c0,4.5-1.6,8.4-4.9,11.8c-3.3,3.4-7.7,5.1-13.2,5.1c-5.4,0-9.7-1.4-12.8-4.2
		s-5.3-6.1-6.4-9.9c-1.1-3.8-1.7-7.6-1.7-11.2c0-7.7,1.7-14.1,5.2-19.1c3.5-5,8.6-7.5,15.5-7.5c4.9,0,8.9,1.3,11.9,3.9
		C563.8,184.2,565.6,187.4,566.4,191.1z M548,221.1c2.1,0,3.9-0.7,5.4-2.2s2.1-3.5,2.1-6.1c0-2.3-0.8-4.2-2.3-5.5
		c-1.5-1.4-3.3-2-5.1-2c-2,0-3.8,0.7-5.3,2.2c-1.5,1.5-2.3,3.4-2.3,5.8c0,2.2,0.7,4.1,2.1,5.6C544,220.4,545.8,221.1,548,221.1z"/>
	<path fill="#FFFFFF" d="M591.6,229.6c-6.2,0-11-2.4-14.4-7.3c-3.4-4.9-5.1-11.1-5.1-18.6c0-7.3,1.7-13.5,5-18.5
		c3.3-5,8.2-7.5,14.6-7.5c6.3,0,11.2,2.5,14.6,7.5c3.4,5,5.1,11.1,5.1,18.4c0,7.4-1.7,13.6-5.1,18.6S598,229.6,591.6,229.6z
		 M591.7,186.1c-2.8,0-4.7,1.3-5.8,3.9c-1.1,2.6-1.6,7.1-1.6,13.5c0,6.5,0.6,11,1.7,13.5c1.1,2.5,3,3.8,5.7,3.8
		c2.6,0,4.5-1.2,5.7-3.7c1.2-2.5,1.8-6.9,1.8-13.1c0-6.9-0.6-11.6-1.7-14.1S594.4,186.1,591.7,186.1z"/>
</g>
</svg>
