<?xml version="1.0" encoding="utf-8"?>
<!-- Generator: Adobe Illustrator 22.0.1, SVG Export Plug-In . SVG Version: 6.00 Build 0)  -->
<svg version="1.1" id="Layer_1" xmlns="http://www.w3.org/2000/svg" xmlns:xlink="http://www.w3.org/1999/xlink" x="0px" y="0px"
	 viewBox="0 0 612 100" style="enable-background:new 0 0 612 100;" xml:space="preserve">
<style type="text/css">
	.st0{fill:#B2292E;}
</style>
<g>
	<path class="st0" d="M69.8,71.9H58.3l-8.5-16.5h-4.3v10.2h4.7v6.4H30.5v-6.4h5.2V40.6h-5.2v-6.4H54c7.3,0,11.3,4.8,11.3,10.5
		c0,4.3-2.1,7.4-6.5,9.4l6.1,11.4h4.9V71.9z M49.4,49.3c4.4,0,5.7-2.4,5.7-4.4c0-1.6-0.9-4.3-4.6-4.3h-5v8.7H49.4z"/>
	<path class="st0" d="M82.6,65.5h4.4V40.6h-4.4v-6.4h33.1v11.9h-7.2v-5.5H96.9v8.7h9.4v6.4h-9.4v9.9h11.7v-5.6h7.2v12H82.6V65.5z"/>
	<path class="st0" d="M130.7,65.5h5.7V40.6h-5.7v-6.4h19.7c6.8,0,11.5,1.3,15.4,5.1c3.8,3.8,5.4,8.7,5.4,13.8c0,9.8-6,18.8-18,18.8
		h-22.4V65.5z M150,65.5c7.5,0,11-4.8,11-12.3c0-8.1-4-12.6-11.3-12.6h-3.4v24.9H150z"/>
	<path d="M208.5,40.6H204v-6.4h18.7v6.4h-4.3l6.3,18.9h0.1l6.3-18.9h-4.2v-6.4h15.9v6.4h-4.4l-10.9,31.6h-7.6L208.5,40.6z"/>
	<path d="M255.8,65.5h4.4V40.6h-4.4v-6.4h33.1v11.9h-7.2v-5.5H270v8.7h9.4v6.4H270v9.9h11.7v-5.6h7.2v12h-33.1V65.5z"/>
	<path d="M303.1,65.5h5V40.6h-5v-6.4h15.8l13.8,23.5h0.1V40.6H328v-6.4h16.9v6.4h-5.3v31.3h-8.4L315,44.2h-0.1v21.3h4.7v6.4h-16.5
		V65.5z"/>
	<path d="M393,49.4h-6.6v-8.8h-5.7v24.9h5.7v6.4h-21.1v-6.4h5.7V40.6h-5.7v8.8h-6.5V34.2H393V49.4z"/>
	<path d="M406.5,34.2H424v6.4h-3.3v19.1c0,3.7,1.1,6.2,4.9,6.2c3.2,0,5.2-1.6,5.2-5.9V40.6h-3.1v-6.4h14.5v6.4h-4.7v21.1
		c0,8.8-7.7,10.7-13,10.7c-7.4,0-13.7-2.8-13.7-12V40.6h-4.4V34.2z"/>
	<path d="M495,71.9h-11.5L475,55.4h-4.3v10.2h4.7v6.4h-19.7v-6.4h5.2V40.6h-5.2v-6.4h23.5c7.3,0,11.3,4.8,11.3,10.5
		c0,4.3-2.1,7.4-6.5,9.4l6.1,11.4h4.9V71.9z M474.6,49.3c4.4,0,5.7-2.4,5.7-4.4c0-1.6-0.9-4.3-4.6-4.3h-5v8.7H474.6z"/>
	<path d="M507.8,65.5h4.4V40.6h-4.4v-6.4H541v11.9h-7.2v-5.5h-11.7v8.7h9.4v6.4h-9.4v9.9h11.7v-5.6h7.2v12h-33.1V65.5z"/>
	<path d="M556.5,59.1h6.4c-0.1,4.1,2.5,6.8,5.8,6.8c2.3,0,4.2-1.8,4.2-4.1c0-6.9-16.7-5.9-16.7-17.8c0-7.3,5.5-10.3,10.2-10.3
		c2.9,0,5.3,1.2,6.9,3.5h0.1v-3.1h6.3v11.4h-6.3c-0.5-3.4-2.6-5.6-5.4-5.6c-2.2,0-3.7,1.3-3.7,3.1c0,6.1,17.4,4.7,17.4,18
		c0,9-6.9,11.2-10.9,11.2c-3.3,0-5.9-1.2-7.5-3.7h-0.1v3.2h-6.4V59.1z"/>
	<g>
		<rect x="186.1" y="13.1" width="2.2" height="72.8"/>
	</g>
</g>
</svg>
