<?xml version="1.0" encoding="utf-8"?>
<!-- Generator: Adobe Illustrator 22.0.1, SVG Export Plug-In . SVG Version: 6.00 Build 0)  -->
<svg version="1.1" id="Layer_1" xmlns="http://www.w3.org/2000/svg" xmlns:xlink="http://www.w3.org/1999/xlink" x="0px" y="0px"
	 viewBox="0 0 287.2 123.2" style="enable-background:new 0 0 287.2 123.2;" xml:space="preserve">
<style type="text/css">
	.st0{fill:#00535E;}
</style>
<path class="st0" d="M53.4,6.4c-13.4,6.3-22.3,20.1-22.2,34.8c-0.1,14.9,9.2,29.1,22.6,35.1l5.9,2.2c0,0-1.9,0.2-2.3,0.1
	C45,78.6,33.4,72.1,26.8,61c-6.4-9.9-6.6-25.6-0.4-35.7C32,15,42.8,9,53.4,6.4z"/>
<path class="st0" d="M91,11.7c-14.2-4.2-30,0-39.7,11c-10,11.1-12.6,27.8-6.7,41.2l2.9,5.6c0,0-1.5-1.1-1.8-1.5
	c-9.3-8.4-13.5-21-11-33.6C36.6,22.8,47,11.1,58.3,7.7C69.4,3.8,81.4,6.6,91,11.7z"/>
<path class="st0" d="M90.2,102.1c-14.2,8.4-36.1,8.3-50.1-0.4c-19.7-11.5-29.5-33-25.2-55.4c1.2-5.9,3.4-11.5,6.6-16.6
	c-4.9,13.8-1.6,29.4,8.5,39.7C39.7,80,55,83.6,68.6,79.7c2.4-0.9,4.8-1.6,7.1-2.9L90.2,102.1z"/>
<path class="st0" d="M106.5,49.2l-0.1,6.4h-1.1l-0.3-3.3c-2-1.9-4.7-2.6-7.6-2c-1.9,0.4-3.5,2.2-4,4.1c-0.8,2.4-0.5,5.3,0.8,7.3
	c4.1,4.5,10.9,3.7,14.1,9.3c1.9,3.4,1.4,8.6-0.9,11.6c-4.9,5.6-12.7,5.7-19.7,4.3c0.1-2.8,0.1-4.9,0.1-7.6h1.2
	c0.5,1.5-0.2,3.5,1.2,4.7c2.6,2.4,6.5,2.8,9.7,1.5c2.3-1,4.1-3.4,4.4-5.9c0.4-2.8-0.2-5.4-2.2-7.3c-4.5-3.8-12.5-3.6-14.1-10.5
	c-0.8-3.8,0.2-7.7,3-10.4C95.1,47.6,101.5,48,106.5,49.2z"/>
<path class="st0" d="M146,49.2l18.4,25.3l3.8,4.7c0.4-9.2,0.4-19.1-0.6-28.4c-1-0.2-2.2-0.2-3.4-0.3c-0.3-0.3-0.1-0.8-0.2-1.2
	l10.6-0.1l0.1,1.2l-3.5,0.3c-1.6,11.6-1.8,24-1.5,36h-3.1l-8.3-11.9l-14.9-20.3c-0.2,9.7-0.2,20.5,0.5,30.4c1.1,0.2,2.3,0.4,3.5,0.4
	l0.1,1.2l-10.6-0.1v-1.1l3.4-0.2c1.5-10.9,1.6-22.9,1.3-34.2l-0.4-0.4c-1.5,0-2.8-0.4-4.3,0c-4.7,6.3-8,13.1-11.2,20l0.4,14.5
	l3.7,0.3c0.2,0.3,0.1,0.8,0.1,1.2h-13.5v-1.2c1.2-0.2,2.5-0.2,3.9-0.2c0.4-4.5,0.7-9.2,0.6-13.9c-3.1-7-6.4-13.9-10.2-20.6
	c-1-0.2-2.1-0.2-3.1-0.3c-0.3-0.3-0.1-0.8-0.1-1.2l12.6-0.1c0.1,0.4,0.1,0.8,0.1,1.1c-1,0.4-2.3,0.2-3.3,0.4
	c2.1,6,5.1,11.8,8.2,17.5c3.1-5.6,5.9-11.4,8-17.4c-0.9-0.3-2-0.2-3-0.4v-1.2C135.5,49.5,140.9,49.2,146,49.2z"/>
<path class="st0" d="M197.2,68.1c2.8,3.7,5.4,7.4,8.5,11l0.1-0.2c0.3-9.1,0.2-19.1-0.7-28.2c-1-0.2-2.4-0.2-3.4-0.3l-0.1-1.2
	l10.8-0.1v1.2l-3.5,0.3c-1.6,11.8-1.8,23.7-1.5,36h-3.1l-10.8-15.4l-12.4-16.8c-0.3,9.1-0.1,20.5,0.5,30.5c1.1,0.3,2.5,0.2,3.6,0.4
	v1.3c-3.3-0.2-7.1-0.2-10.5,0l-0.1-1.3l3.4-0.2c1.5-10.9,1.6-22.7,1.3-34.2l-0.4-0.4l-3.4-0.2v-1.3l8,0.1L197.2,68.1z"/>
<path class="st0" d="M236.9,49.3l-0.1,6.3l-0.9,0.1c-0.3-1.1,0-2.8-1.3-3.4c-3.7-1.4-7.9-1.7-12.1-1.5c-0.5,5.3-0.3,11-0.4,16.2
	c3.1,0.1,6.3,0.2,9-0.9c0.5-0.9,0.5-2.1,0.6-3.3h1.1l-0.2,10.5h-1.1c-0.1-1.2-0.1-2.5-0.5-3.5c-2.6-1.4-5.7-1.2-8.8-1.4
	c-0.3,5.3-0.1,11.1,0.1,16.7c4.7,0.1,9.5,0.1,13.5-1.6c0.9-1,0.6-2.5,0.8-3.9l1.2-0.1l-0.1,7.3l-25.4-0.1v-1.2l4.1-0.2l0.4-6.9
	l0.1-22.3l-0.3-5.1l-3.5-0.5c-0.3-0.4,0-0.8,0-1.2C221.6,49.6,228.5,49.4,236.9,49.3z"/>
<path class="st0" d="M254.3,49.3l0.1,1.2l-3.5,0.4l0.1,0.5c2.4,4.4,4.8,8.7,7.4,12.9c3.2-4.2,6-8.7,8.6-13.3c-0.9-0.3-1.9-0.4-3-0.4
	c-0.1-0.4-0.1-0.8-0.1-1.2c3.3,0.1,6.5,0.2,9.8-0.1c0.1,0.4,0,0.8,0.1,1.2l-2.6,0.4c-4.5,4.7-8.7,9.7-12,14.9
	c3.8,6.7,7.3,13.4,12.1,19.7l3.2,0.1v1.2l-13.4,0.1v-1.3c1-0.1,2-0.1,2.9-0.1c-1.3-3.6-3.4-7.1-5.2-10.6c-0.9-1.5-1.9-3.1-2.8-4.7
	c-2.9,3.4-5.4,7.2-7.8,10.9l-2.5,4.1c1,0.4,2.5,0.2,3.8,0.4v1.3h-11.5v-1.3l3.1-0.1c5.4-5.2,9.7-11,13.9-16.9
	c-3.3-6-6.7-11.9-10.8-17.5c-1.1-0.7-4.1,0.6-3.5-1.7C245.2,49.6,250,49.6,254.3,49.3z"/>
<path class="st0" d="M106.2,101.2l-0.4,0.6c-0.7,0.2-1.3,0.4-1.8,0.5c-0.5,0.1-1.2,0.1-2,0.1c-1.1,0-2.2-0.1-3-0.4
	c-0.7-0.2-1.3-0.5-1.8-0.8c-0.5-0.3-0.9-0.7-1.1-1.1c-0.4-0.6-0.6-1.2-0.6-1.9c0-1.1,0.6-2.1,1.7-2.8c1.2-0.7,2.8-1.1,4.9-1.1
	c0.7,0,1.4,0,2,0.1c0.6,0.1,1.3,0.2,2,0.4l0,0.1c-0.1,0.2-0.1,0.4-0.2,0.6c-0.1,0.4-0.1,0.8-0.1,1.1h-0.7c0-0.4,0-0.7-0.1-1
	c-0.4-0.3-0.8-0.4-1.2-0.6c-0.5-0.1-1-0.2-1.7-0.2c-1.3,0-2.3,0.3-3,0.8c-0.8,0.5-1.1,1.3-1.1,2.3c0,0.6,0.1,1.1,0.4,1.5
	c0.3,0.4,0.6,0.8,1,1.1c0.4,0.3,0.9,0.5,1.3,0.6c0.6,0.2,1.3,0.3,2.1,0.3c0.6,0,1.1,0,1.6-0.1c0.5-0.1,1-0.2,1.6-0.4L106.2,101.2z"
	/>
<path class="st0" d="M115.4,96.5c0.3-0.5,0.7-0.9,1.2-1.1c0.6-0.2,1.2-0.4,2-0.4c0.7,0,1.3,0.1,1.7,0.2c0.4,0.2,0.8,0.4,1.1,0.7
	c0.3,0.3,0.5,0.7,0.7,1.1c0.2,0.4,0.2,0.9,0.2,1.4c0,0.7-0.2,1.4-0.5,1.9c-0.3,0.5-0.7,0.9-1.3,1.1c-0.5,0.2-1.2,0.3-1.8,0.3
	c-0.7,0-1.4-0.1-1.9-0.3c-0.5-0.2-1-0.6-1.3-1.2c-0.3-0.6-0.5-1.3-0.5-2.1C115,97.5,115.1,97,115.4,96.5z M113.2,100.6
	c0.5,0.6,1.2,1,2.1,1.3c0.9,0.3,1.9,0.4,3.1,0.4c1.1,0,2.1-0.1,3-0.4c0.6-0.2,1.2-0.4,1.7-0.8c0.5-0.3,0.9-0.7,1.1-1.2
	c0.4-0.6,0.5-1.2,0.5-1.9c0-0.4-0.1-0.8-0.2-1.1s-0.3-0.6-0.5-0.9c-0.2-0.3-0.6-0.6-1-0.8c-0.5-0.3-1-0.5-1.6-0.6
	c-0.8-0.2-1.7-0.3-2.7-0.3c-1,0-1.9,0.1-2.7,0.3c-0.7,0.2-1.3,0.4-1.8,0.7c-0.6,0.3-1,0.8-1.3,1.3c-0.3,0.5-0.5,1.1-0.5,1.7
	C112.5,99.3,112.7,100,113.2,100.6z"/>
<path class="st0" d="M131.2,95v-0.5c0.1,0,0.6,0,1.3,0c0.4,0,0.9,0,1.5,0c0.6,0,1.1,0,1.5,0c0.7,0,1.2,0,1.7,0c0.8,0,1.5,0,1.9,0.1
	s0.8,0.3,1.1,0.5c0.3,0.3,0.4,0.6,0.4,1c0,0.5-0.2,0.9-0.6,1.2c-0.4,0.4-1,0.7-1.9,0.9c0.1,0.2,0.3,0.3,0.5,0.5
	c0.2,0.2,0.3,0.3,0.3,0.3c0,0,0.1,0.1,0.1,0.1l1.3,1.3c0.3,0.3,0.5,0.5,0.5,0.5c0.4,0.4,0.7,0.6,0.7,0.6c0.1,0.1,0.2,0.1,0.3,0.1
	s0.3,0,0.5,0v0.5c-0.8,0-1.4,0-1.8,0c-0.4,0-0.9,0-1.3,0c0-0.1-0.1-0.2-0.2-0.3l-1.7-1.9c-0.5-0.5-0.9-1-1.3-1.3
	c-0.2-0.2-0.3-0.3-0.5-0.4l0.1-0.2c0.6,0,1.1,0,1.5-0.1c0.3-0.1,0.6-0.3,0.8-0.6c0.2-0.3,0.3-0.6,0.3-0.9c0-0.3-0.1-0.6-0.4-0.8
	s-0.5-0.4-0.9-0.5c-0.2-0.1-0.6-0.1-1.2-0.1c-0.3,0-0.5,0-0.8,0c0,0.1,0,0.4,0,0.9c0,1,0,1.7,0,2.1c0,0.5,0,1.1,0,1.7
	c0,0.8,0,1.2,0,1.3c0,0.2,0,0.3,0.1,0.4c0,0,0.1,0.1,0.1,0.1c0,0,0.1,0,0.2,0.1s0.4,0,0.9,0v0.5c-0.9,0-1.9,0-2.8,0
	c-0.8,0-1.6,0-2.3,0v-0.5c0.6,0,1,0,1.1-0.1c0.1,0,0.1,0,0.1-0.1c0,0,0.1-0.1,0.1-0.2c0-0.1,0.1-0.4,0.1-0.6l0-1.6v-2l0-1.2
	c0-0.5,0-0.7-0.1-0.8c0,0-0.1-0.1-0.1-0.1C132.2,95,131.8,95,131.2,95z"/>
<path class="st0" d="M148,95v-0.5l2.4,0l3.6,0c0.7,0,1.3,0,1.7,0.1c0.4,0.1,0.8,0.3,1.1,0.5c0.3,0.3,0.4,0.6,0.4,1
	c0,0.4-0.1,0.8-0.4,1.2c-0.3,0.4-0.7,0.6-1.3,0.9c-0.6,0.2-1.3,0.3-1.9,0.3c-0.2,0-0.3,0-0.5,0c-0.2,0-0.3,0-0.5-0.1
	c-0.1-0.1-0.2-0.2-0.3-0.4l0.2-0.1c0.1,0,0.2,0,0.3,0.1c0.1,0,0.2,0,0.3,0c0.5,0,1-0.1,1.3-0.4c0.3-0.3,0.5-0.6,0.5-1.1
	c0-0.5-0.2-0.9-0.5-1.1c-0.4-0.3-0.9-0.4-1.5-0.4c-0.3,0-0.7,0-1,0.1c0,0.2,0,0.6,0,1l0,1.1v2.1c0,0.5,0,1,0,1.6
	c0,0.3,0,0.5,0.1,0.6c0,0,0.1,0.1,0.1,0.1c0.1,0,0.1,0,0.3,0.1l1.1,0v0.5c-1.4,0-2.5,0-3.2,0c-0.8,0-1.5,0-2.2,0v-0.5
	c0.6,0,1,0,1.1-0.1c0,0,0.1,0,0.1-0.1c0-0.1,0.1-0.2,0.1-0.4c0.1-0.6,0.1-1.2,0.1-1.9v-1.9l0-1c0-0.4,0-0.7,0-0.8
	c0-0.1,0-0.2-0.1-0.2c0,0-0.1-0.1-0.1-0.1c-0.1,0-0.1,0-0.3-0.1L148,95z"/>
<path class="st0" d="M166.4,96.5c0.3-0.5,0.7-0.9,1.2-1.1c0.6-0.2,1.2-0.4,2-0.4c0.7,0,1.3,0.1,1.7,0.2c0.4,0.2,0.8,0.4,1.1,0.7
	c0.3,0.3,0.5,0.7,0.7,1.1c0.2,0.4,0.2,0.9,0.2,1.4c0,0.7-0.2,1.4-0.5,1.9c-0.3,0.5-0.7,0.9-1.3,1.1c-0.5,0.2-1.2,0.3-1.8,0.3
	c-0.7,0-1.4-0.1-1.9-0.3c-0.5-0.2-1-0.6-1.3-1.2c-0.3-0.6-0.5-1.3-0.5-2.1C166,97.5,166.2,97,166.4,96.5z M164.3,100.6
	c0.5,0.6,1.2,1,2.1,1.3c0.9,0.3,1.9,0.4,3.1,0.4c1.1,0,2.1-0.1,3-0.4c0.6-0.2,1.2-0.4,1.7-0.8c0.5-0.3,0.9-0.7,1.1-1.2
	c0.4-0.6,0.5-1.2,0.5-1.9c0-0.4-0.1-0.8-0.2-1.1c-0.1-0.3-0.3-0.6-0.5-0.9c-0.2-0.3-0.6-0.6-1-0.8c-0.5-0.3-1-0.5-1.6-0.6
	c-0.8-0.2-1.7-0.3-2.7-0.3c-1,0-1.9,0.1-2.7,0.3c-0.7,0.2-1.3,0.4-1.8,0.7c-0.6,0.3-1,0.8-1.3,1.3s-0.5,1.1-0.5,1.7
	C163.5,99.3,163.8,100,164.3,100.6z"/>
<path class="st0" d="M182.2,95v-0.5c0.1,0,0.6,0,1.3,0c0.4,0,0.9,0,1.5,0c0.6,0,1.1,0,1.5,0c0.7,0,1.2,0,1.7,0c0.8,0,1.5,0,1.9,0.1
	c0.4,0.1,0.8,0.3,1.1,0.5c0.3,0.3,0.4,0.6,0.4,1c0,0.5-0.2,0.9-0.6,1.2c-0.4,0.4-1,0.7-1.9,0.9c0.1,0.2,0.3,0.3,0.5,0.5
	c0.2,0.2,0.3,0.3,0.3,0.3c0,0,0.1,0.1,0.1,0.1l1.3,1.3c0.3,0.3,0.5,0.5,0.5,0.5c0.4,0.4,0.7,0.6,0.7,0.6c0.1,0.1,0.2,0.1,0.3,0.1
	s0.3,0,0.5,0v0.5c-0.8,0-1.4,0-1.8,0c-0.4,0-0.9,0-1.3,0c0-0.1-0.1-0.2-0.2-0.3l-1.7-1.9c-0.5-0.5-0.9-1-1.3-1.3
	c-0.2-0.2-0.3-0.3-0.5-0.4l0.1-0.2c0.6,0,1.1,0,1.5-0.1c0.3-0.1,0.6-0.3,0.8-0.6c0.2-0.3,0.3-0.6,0.3-0.9c0-0.3-0.1-0.6-0.4-0.8
	c-0.2-0.2-0.5-0.4-0.9-0.5c-0.2-0.1-0.6-0.1-1.2-0.1c-0.3,0-0.5,0-0.8,0c0,0.1,0,0.4,0,0.9c0,1,0,1.7,0,2.1c0,0.5,0,1.1,0,1.7
	c0,0.8,0,1.2,0,1.3c0,0.2,0,0.3,0.1,0.4c0,0,0.1,0.1,0.1,0.1c0,0,0.1,0,0.2,0.1c0.1,0,0.4,0,0.9,0v0.5c-0.9,0-1.9,0-2.8,0
	c-0.8,0-1.6,0-2.3,0v-0.5c0.6,0,1,0,1.1-0.1c0.1,0,0.1,0,0.1-0.1c0,0,0.1-0.1,0.1-0.2c0-0.1,0.1-0.4,0.1-0.6l0-1.6v-2l0-1.2
	c0-0.5,0-0.7-0.1-0.8c0,0-0.1-0.1-0.1-0.1C183.3,95,182.9,95,182.2,95z"/>
<path class="st0" d="M204.2,96.4l1.7,2.8c-0.5,0-1,0-1.7,0c-0.6,0-1.2,0-1.7,0L204.2,96.4z M200.8,102.1l1.9,0v-0.5
	c-0.6,0-1,0-1.2-0.1c-0.1,0-0.1-0.1-0.1-0.2c0-0.1,0.1-0.4,0.4-0.9l0.4-0.6h4.2l0.7,1.2c0.1,0.2,0.2,0.4,0.2,0.4
	c0,0.1,0,0.1-0.1,0.1c-0.1,0-0.5,0.1-1.1,0.1v0.5l2.9,0l2.3,0v-0.5c-0.2,0-0.3,0-0.4,0c-0.3,0-0.4,0-0.5,0s-0.1,0-0.2-0.1
	c0,0-0.1-0.1-0.2-0.1l-0.3-0.5l-0.5-0.7l-3.6-5.7h-1.2l-0.7,1.2l-2.1,3.5c-0.4,0.7-0.7,1.1-0.8,1.3c-0.3,0.5-0.5,0.8-0.6,0.8
	c-0.1,0.1-0.1,0.1-0.2,0.2c-0.1,0-0.1,0.1-0.2,0.1c-0.1,0-0.3,0-0.8,0.1v0.5L200.8,102.1z"/>
<path class="st0" d="M217.9,102.1v-0.5c0.7,0,1.1,0,1.2-0.1c0.1,0,0.2-0.1,0.3-0.2c0.1-0.2,0.1-0.6,0.1-1.4v-3.3c0-0.9,0-1.4,0-1.5
	h-1.1c-0.6,0-1.1,0-1.5,0c-0.2,0-0.3,0-0.3,0c0,0-0.1,0.1-0.1,0.2c-0.1,0.3-0.1,0.5-0.1,0.8h-0.7c0-0.8,0-1.2,0-1.3
	c0-0.2,0-0.3-0.1-0.5l0.1-0.1c0.3,0,0.5,0,0.8,0c0.5,0,1.4,0,2.7,0h3.3c1.4,0,2.3,0,2.7,0c0.2,0,0.5,0,0.8,0l0.1,0.1
	c-0.1,0.2-0.1,0.4-0.1,0.6c0,0,0,0.4,0,1.2h-0.7c0-0.3,0-0.5-0.1-0.8c0-0.1-0.1-0.2-0.1-0.2c0,0-0.1,0-0.3,0c-0.4,0-1,0-1.6,0h-1.1
	c0,0.1,0,0.6,0,1.5v3.3c0,0.8,0,1.3,0.1,1.4c0,0.1,0.1,0.2,0.2,0.2c0.1,0,0.5,0.1,1.2,0.1v0.5c-1.1,0-1.9,0-2.7,0
	C219.8,102.1,218.9,102.1,217.9,102.1z"/>
<path class="st0" d="M237,94.5V95c-0.6,0-0.9,0-1,0c-0.1,0-0.2,0-0.2,0.1c0,0-0.1,0.1-0.1,0.1c0,0.1-0.1,0.2-0.1,0.4
	c0,0.1,0,0.3,0,0.5c0,0.9,0,1.4,0,1.5v2.2l0,1c0,0.4,0,0.6,0.1,0.7c0,0.1,0.1,0.1,0.1,0.1c0.1,0,0.1,0,0.2,0.1c0.1,0,0.4,0,1,0v0.5
	c-0.9,0-1.8,0-2.8,0c-0.9,0-1.7,0-2.3,0v-0.5c0.6,0,0.9,0,1,0c0.1,0,0.2,0,0.2-0.1c0,0,0.1-0.1,0.1-0.1c0,0,0-0.2,0.1-0.5
	c0-0.4,0-0.8,0-1.2v-2.3c0-0.7,0-1.2,0-1.4c0-0.5-0.1-0.8-0.1-0.9c0,0,0-0.1-0.1-0.1c0,0-0.1,0-0.2-0.1c-0.1,0-0.4,0-1,0v-0.5
	c0.7,0,1.5,0,2.4,0C235.2,94.5,236.2,94.5,237,94.5z"/>
<path class="st0" d="M246.3,96.5c0.3-0.5,0.7-0.9,1.2-1.1c0.6-0.2,1.2-0.4,2-0.4c0.7,0,1.3,0.1,1.7,0.2c0.4,0.2,0.8,0.4,1.1,0.7
	c0.3,0.3,0.5,0.7,0.7,1.1c0.2,0.4,0.2,0.9,0.2,1.4c0,0.7-0.2,1.4-0.5,1.9c-0.3,0.5-0.7,0.9-1.3,1.1c-0.5,0.2-1.2,0.3-1.8,0.3
	c-0.7,0-1.4-0.1-1.9-0.3c-0.5-0.2-1-0.6-1.3-1.2c-0.3-0.6-0.5-1.3-0.5-2.1C245.9,97.5,246.1,97,246.3,96.5z M244.2,100.6
	c0.5,0.6,1.2,1,2.1,1.3c0.9,0.3,1.9,0.4,3.1,0.4c1.1,0,2.1-0.1,3-0.4c0.6-0.2,1.2-0.4,1.7-0.8c0.5-0.3,0.9-0.7,1.1-1.2
	c0.4-0.6,0.5-1.2,0.5-1.9c0-0.4-0.1-0.8-0.2-1.1s-0.3-0.6-0.5-0.9c-0.2-0.3-0.6-0.6-1-0.8c-0.5-0.3-1-0.5-1.6-0.6
	c-0.8-0.2-1.7-0.3-2.7-0.3c-1,0-1.9,0.1-2.7,0.3c-0.7,0.2-1.3,0.4-1.8,0.7c-0.6,0.3-1,0.8-1.3,1.3c-0.3,0.5-0.5,1.1-0.5,1.7
	C243.4,99.3,243.7,100,244.2,100.6z"/>
<path class="st0" d="M262,101.7c0.6,0,1,0,1.1-0.1c0.1,0,0.1,0,0.1-0.1c0,0,0.1-0.1,0.1-0.2c0-0.1,0.1-0.5,0.1-1c0-0.3,0-0.7,0-1.2
	v-1.8l0-1.6c0-0.3,0-0.4,0-0.5c0-0.1-0.1-0.1-0.1-0.2c-0.1,0-0.1-0.1-0.3-0.1c-0.1,0-0.5,0-1-0.1v-0.5c0.7,0,1.2,0,1.5,0l1.2,0
	l0.7,0c1.1,1,2.5,2.1,4.1,3.4c1.1,0.9,2.1,1.6,2.9,2.2l0-1.3c0-2,0-3.1-0.1-3.5c0-0.1-0.1-0.2-0.1-0.3c-0.1-0.1-0.5-0.1-1.3-0.1
	v-0.5c0.7,0,1.3,0,1.8,0c0.5,0,1.2,0,2,0V95c-0.7,0-1.1,0-1.2,0.1c0,0-0.1,0-0.1,0.1c-0.1,0.2-0.1,0.6-0.1,1.3c0,0.7,0,1.1,0,1.4
	c0,2.4,0,3.9,0.1,4.4l-0.1,0c-0.4-0.1-0.9-0.1-1.4-0.2c-1.8-1.3-4.2-3.3-7.5-5.9v2.7c0,0.6,0,1.2,0.1,1.8c0,0.4,0.1,0.7,0.1,0.8
	c0,0,0.1,0.1,0.1,0.1c0.1,0,0.1,0,0.3,0.1c0.4,0,0.6,0,0.8,0c0,0,0.1,0,0.2,0v0.4c-1,0-1.6,0-1.8,0c-0.5,0-1.2,0-2.2,0V101.7z"/>
<path class="st0" d="M116.5,45c-6-13.5-19.6-22.7-34.3-22.9c-14.9-0.4-29.3,8.6-35.6,21.9L44.2,50c0,0-0.1-1.9-0.1-2.3
	c0.3-12.5,7.1-24,18.3-30.3c10.1-6.2,25.7-6,35.7,0.3C108.4,23.5,114.1,34.4,116.5,45z"/>
</svg>
