<?xml version="1.0" encoding="utf-8"?>
<!-- Generator: Adobe Illustrator 22.0.1, SVG Export Plug-In . SVG Version: 6.00 Build 0)  -->
<svg version="1.1" id="Layer_1" xmlns="http://www.w3.org/2000/svg" xmlns:xlink="http://www.w3.org/1999/xlink" x="0px" y="0px"
	 viewBox="0 0 442 145" style="enable-background:new 0 0 442 145;" xml:space="preserve">
<style type="text/css">
	.st0{fill-rule:evenodd;clip-rule:evenodd;fill:#FFFFFF;}
	.st1{fill-rule:evenodd;clip-rule:evenodd;fill:#C41230;}
	.st2{fill:#C41230;}
	.st3{fill-rule:evenodd;clip-rule:evenodd;}
</style>
<path class="st0" d="M308.5,97.6c0,0.6,0,1,0,1.4c0,4.2,0,8.3,0,12.5c0.1,4.3,2.4,7.2,6.6,8.3c3.5,0.9,6.6,0.2,9.4-1.9
	c0.3-0.2,0.6-0.5,1.2-0.9c0,1.2,0,2.1,0,3.1c4.1,0,8.1,0,12.1,0c-1.5-0.7-2-2-2.1-3.5c-0.1-0.6-0.1-1.1-0.1-1.7c0-6.9,0-13.8,0-20.8
	c0-0.5,0-0.9-0.1-1.5c-4.1,0.2-8,0.3-12,0.5c1.9,0.9,2.1,2.5,2.1,4.1c0.1,3.9,0,7.8,0,11.8c0,0.9-0.2,1.9-0.5,2.8
	c-0.5,1.3-1.5,2.1-2.9,2.2c-2.3,0.2-3.8-1.3-3.8-3.9c0-5.4,0-10.7,0-16.1c0-0.4,0-0.9,0-1.4c-0.5,0-0.9-0.1-1.3-0.1
	c-8.8,0-17.7,0-26.5,0c-3.1,0-6.1,0.5-8.8,2.2c-5.1,3.2-5.9,9.6-1.6,13.9c1.2,1.2,2.7,2.1,4.1,3.1c-0.8,0.2-1.7,0.5-2.6,0.8
	c-0.9,0.3-1.3,0.9-1.2,1.9c0.3,3.3,2.5,5.4,5.8,5.6c0.8,0,1.5-0.1,2.3,0c1.9,0.2,3.8,0.3,5.5,0.8c1.6,0.4,2.4,1.8,2.5,3.6
	c0.1,1.8-0.7,3.2-2.4,3.9c-2.2,0.9-4.5,1.1-6.8,0.2c-1.4-0.5-2.5-1.3-2.9-2.8c-0.3-1.5,0.3-2.6,1.8-3.4c-2.8-0.4-5.3-0.5-7.6,0.6
	c-3.5,1.7-3.9,5.7-0.7,8c1.3,0.9,2.8,1.6,4.3,2.1c4.1,1.4,8.4,1.2,12.7,0.8c3-0.3,5.9-1,8.4-2.8c5-3.6,4.6-10.8-0.7-13.8
	c-1.3-0.7-2.7-1.2-4.2-1.4c-2.8-0.3-5.6-0.2-8.4-0.3c-1,0-2.2,0-2.3-1.3c-0.1-1.3,1.2-1.1,2-1.2c3.3-0.5,6.5-1.2,9.5-2.8
	c4.5-2.6,5.6-7.7,2.5-11.9c-0.2-0.2-0.3-0.5-0.6-0.8c0.3,0,0.5-0.1,0.7-0.1C304.1,97.6,306.2,97.6,308.5,97.6z"/>
<path class="st0" d="M218.2,99.9c2.1-0.6,4.1-1.2,6.1-1.6c1.7-0.4,3.4-0.3,5,0.8c1.4,1,1.5,2.6,0,3.5c-0.9,0.5-2,0.8-3,1.1
	c-2.6,0.8-5.4,1.2-7.9,2.2c-2.7,1.1-4.3,3.3-4.4,6.3c-0.1,3,1.9,5.6,5.2,6.9c3,1.2,6.1,1,9.2,1c0.2,0,0.5-0.1,0.6-0.3
	c0.6-1.2,1.3-2.5,1.8-3.7c-1.4-0.2-2.6-0.2-3.8-0.6c-2.6-0.9-3.1-4-1.1-5.7c1.3-1.1,3-1.5,4.8-1.8c0,1.3,0,2.5,0,3.6
	c0,4.5,2.3,7.3,6.7,8.2c0.9,0.2,1.8,0.2,2.7,0.2c5.9,0,11.8,0,17.6,0c0.4,0,0.8,0,1.3,0c-1.8-1-2.2-2.7-2.2-4.4c0-4.1,0-8.2,0-12.2
	c0-0.4,0-0.8,0.1-1.2c0.4-2.3,2-3.6,4.2-3.5c2,0.1,2.9,1.4,2.9,3.9c0,4.4,0,8.9,0,13.3c0,1.3,0,2.6,0,4c4.1,0,8,0,12.1,0
	c-1.8-1.2-2.3-2-2.4-4.1c0-0.4,0-0.8,0-1.2c0-4.4,0-8.9,0-13.3c-0.1-4.6-2.6-7.6-7.1-8.5c-3.2-0.7-6.1,0.1-8.7,2
	c-0.3,0.2-0.6,0.4-1.1,0.8c0-1.1-0.1-2-0.1-3c-4.1,0.2-8,0.3-12,0.5c2,0.9,2.1,2.7,2.2,4.4c0,5.8,0,11.6,0,17.4c0,0.3-0.1,0.7-0.1,1
	c-4.1,0.8-6.4-1.1-6.4-5.2c0-2.7,0-5.4-0.1-8c-0.1-5.1-2.3-8-7.2-9.4c-4.1-1.1-8.2-0.9-12.3,0.1c-0.3,0.1-0.7,0.4-0.8,0.7
	C219.4,96.1,218.8,98,218.2,99.9z"/>
<path class="st0" d="M369.9,93.2c1.6,0.7,2,2.1,2.1,3.6c0,0.4,0,0.7,0,1.1c0,5.7,0,11.4,0,17c0,0.4,0,0.8-0.1,1.1
	c-4.3,0.8-6.5-1.1-6.5-5.3c0-2.9,0-5.8-0.2-8.6c-0.2-3.7-1.7-6.6-5.3-8.1c-4.7-1.9-9.5-1.6-14.3-0.5c-0.3,0.1-0.6,0.3-0.7,0.6
	c-0.7,2-1.3,3.9-1.9,5.9c2.1-0.6,4-1.2,6-1.6c1.6-0.3,3.3-0.3,4.8,0.6c1.7,1,1.8,2.8,0.1,3.8c-0.8,0.5-1.8,0.8-2.8,1
	c-2.2,0.6-4.5,1-6.7,1.7c-3.7,1.2-5.7,3.9-5.6,7.2c0,3,2.2,5.5,5.7,6.7c2.8,1,5.8,0.8,8.7,0.8c0.2,0,0.6-0.1,0.7-0.3
	c0.6-1.2,1.2-2.5,1.8-3.6c-1.4-0.2-2.6-0.2-3.8-0.5c-1.3-0.4-2.1-1.5-2.3-2.8c-0.2-1.3,0.4-2.5,1.5-3.1c1.4-0.7,2.9-1.2,4.6-1.9
	c0,1.9-0.1,3.3,0,4.8c0.1,3.2,1.6,5.5,4.7,6.6c1.4,0.5,2.9,0.8,4.3,0.8c6.2,0.1,12.3,0,18.5,0c0.3,0,0.6,0,0.9-0.1
	c-1.9-0.8-2.1-2.5-2.1-4.1c-0.1-3.9-0.1-7.8,0-11.8c0.1-2.8,1.8-4.6,4.6-4.9c1.1-0.1,2.1,0,3.4,0c0-1.9,0-3.8,0-5.6
	c0-0.8-0.3-1.1-1.1-1.2c-2.5-0.2-4.6,0.6-6.2,2.7c-0.2,0.2-0.4,0.4-0.8,0.9c0-1.3,0-2.3,0-3.4C377.8,92.9,373.9,93,369.9,93.2z"/>
<path class="st0" d="M409.2,94.4c-0.2,0-0.3,0-0.3,0c-0.4-0.2-0.7-0.4-1.1-0.5c-4.1-2-8.1-1.7-11.9,0.9c-6.6,4.6-7.5,15.9-1.9,21.8
	c2.7,2.9,6,4.3,10,3.9c0.6-0.1,1.4-0.2,1.7-0.6c0.9-1.4,1.7-2.9,2.5-4.4c-4.1,0-6.1-1.5-7.1-5.4c-0.7-2.5-0.7-5.1,0-7.6
	c0.3-1,0.8-2,1.4-2.7c1.9-2.2,5.1-1.6,6.1,1c0.4,1,0.5,2.1,0.5,3.2c0.1,5,0,9.9,0,14.9c0,0.4,0,0.8,0.1,1.3c4.2,0,8.2,0,12.2,0
	c-1.3-0.5-1.9-1.5-2.1-2.8c-0.1-0.7-0.2-1.3-0.2-2c0-11,0-22.1,0-33.1c0-0.5,0-0.9,0-1.5c-4.2,0.2-8.2,0.3-12.2,0.5
	c1.4,0.7,2,1.9,2.1,3.2C409.3,87.8,409.2,91.1,409.2,94.4z"/>
<path class="st0" d="M181.9,80.7c0,0.1,0,0.2-0.1,0.3c1.9,1,2.6,2.7,3.3,4.5c3,8.3,6,16.6,8.9,24.9c2.1,6,6.8,8.4,12.5,9.8
	c4.5-13.2,8.9-26.3,13.4-39.5c-3.5,0-7,0-10.6,0c2.8,2,3.2,3.1,2.2,6.2c-1.1,3.5-2.2,6.9-3.3,10.4c-1.2,3.7-2.3,7.4-3.6,11.4
	c-0.3-0.8-0.5-1.2-0.6-1.6c-2.9-8.5-5.8-16.9-8.6-25.4c-0.3-0.8-0.6-1.1-1.5-1.1c-2.8,0.1-5.6,0-8.4,0
	C184.3,80.7,183.1,80.7,181.9,80.7z"/>
<path class="st1" d="M308.5,97.6c-2.3,0-4.5,0-6.6,0c-0.2,0-0.4,0-0.7,0.1c0.2,0.3,0.4,0.6,0.6,0.8c3.1,4.2,2,9.3-2.5,11.9
	c-2.9,1.7-6.2,2.4-9.5,2.8c-0.9,0.1-2.1-0.1-2,1.2c0.1,1.2,1.3,1.2,2.3,1.3c2.8,0.1,5.6,0,8.4,0.3c1.4,0.1,2.9,0.7,4.2,1.4
	c5.4,3,5.7,10.2,0.7,13.8c-2.5,1.8-5.4,2.5-8.4,2.8c-4.3,0.4-8.6,0.6-12.7-0.8c-1.5-0.5-3-1.2-4.3-2.1c-3.1-2.2-2.7-6.2,0.7-8
	c2.4-1.2,4.9-1,7.6-0.6c-1.5,0.8-2.2,1.9-1.8,3.4c0.4,1.5,1.5,2.3,2.9,2.8c2.3,0.8,4.6,0.7,6.8-0.2c1.7-0.7,2.5-2,2.4-3.9
	c-0.1-1.7-0.9-3.1-2.5-3.6c-1.8-0.5-3.7-0.6-5.5-0.8c-0.8-0.1-1.5,0-2.3,0c-3.3-0.2-5.5-2.3-5.8-5.6c-0.1-1,0.3-1.6,1.2-1.9
	c0.9-0.3,1.8-0.5,2.6-0.8c-1.3-1-2.8-1.9-4.1-3.1c-4.3-4.2-3.5-10.7,1.6-13.9c2.7-1.7,5.7-2.2,8.8-2.2c8.8,0,17.7,0,26.5,0
	c0.4,0,0.8,0,1.3,0.1c0,0.5,0,0.9,0,1.4c0,5.4,0,10.7,0,16.1c0,2.6,1.5,4.1,3.8,3.9c1.4-0.1,2.4-0.8,2.9-2.2
	c0.3-0.9,0.5-1.9,0.5-2.8c0.1-3.9,0.1-7.8,0-11.8c0-1.6-0.3-3.2-2.1-4.1c3.9-0.2,7.9-0.3,12-0.5c0,0.5,0.1,1,0.1,1.5
	c0,6.9,0,13.8,0,20.8c0,0.6,0,1.1,0.1,1.7c0.1,1.5,0.6,2.8,2.1,3.5c-4,0-8,0-12.1,0c0-0.9,0-1.8,0-3.1c-0.6,0.4-0.9,0.6-1.2,0.9
	c-2.8,2.1-6,2.8-9.4,1.9c-4.2-1.1-6.6-3.9-6.6-8.3c-0.1-4.2,0-8.3,0-12.5C308.5,98.6,308.5,98.2,308.5,97.6z M294,102.5
	c-0.3-0.9-0.4-2.1-0.9-3c-1-2-3.7-2.2-5-0.5c-1.3,1.6-1.5,5.4-0.3,7.2c0.7,1.1,1.8,1.6,3.1,1.5c1.3-0.1,2.1-0.9,2.5-2.1
	C293.7,104.6,293.8,103.7,294,102.5z"/>
<path class="st1" d="M218.2,99.9c0.6-1.9,1.2-3.8,1.9-5.7c0.1-0.3,0.5-0.6,0.8-0.7c4.1-0.9,8.2-1.2,12.3-0.1
	c4.9,1.4,7.2,4.3,7.2,9.4c0,2.7,0.1,5.4,0.1,8c0,4,2.3,5.9,6.4,5.2c0-0.3,0.1-0.7,0.1-1c0-5.8,0-11.6,0-17.4c0-1.7-0.1-3.5-2.2-4.4
	c4-0.2,7.9-0.3,12-0.5c0,1,0.1,1.9,0.1,3c0.5-0.3,0.8-0.6,1.1-0.8c2.6-1.9,5.5-2.6,8.7-2c4.5,0.9,7,3.9,7.1,8.5
	c0.1,4.4,0,8.9,0,13.3c0,0.4,0,0.8,0,1.2c0.1,2.1,0.6,3,2.4,4.1c-4.1,0-8.1,0-12.1,0c0-1.4,0-2.7,0-4c0-4.4,0-8.9,0-13.3
	c0-2.5-0.9-3.7-2.9-3.9c-2.2-0.2-3.8,1.2-4.2,3.5c-0.1,0.4-0.1,0.8-0.1,1.2c0,4.1,0,8.2,0,12.2c0,1.8,0.4,3.4,2.2,4.4
	c-0.4,0-0.8,0-1.3,0c-5.9,0-11.8,0-17.6,0c-0.9,0-1.8,0-2.7-0.2c-4.4-0.9-6.7-3.7-6.7-8.2c0-1.2,0-2.3,0-3.6
	c-1.8,0.4-3.5,0.7-4.8,1.8c-2,1.7-1.5,4.8,1.1,5.7c1.1,0.4,2.4,0.4,3.8,0.6c-0.6,1.2-1.2,2.4-1.8,3.7c-0.1,0.2-0.4,0.3-0.6,0.3
	c-3.1,0-6.2,0.2-9.2-1c-3.4-1.3-5.3-3.9-5.2-6.9c0.1-3,1.7-5.3,4.4-6.3c2.5-1,5.3-1.5,7.9-2.2c1-0.3,2.1-0.6,3-1.1
	c1.5-0.9,1.4-2.5,0-3.5c-1.5-1-3.3-1.1-5-0.8C222.3,98.7,220.3,99.4,218.2,99.9z"/>
<path class="st1" d="M369.9,93.2c3.9-0.2,7.9-0.3,12-0.5c0,1.1,0,2,0,3.4c0.4-0.5,0.6-0.7,0.8-0.9c1.6-2.1,3.7-2.9,6.2-2.7
	c0.8,0.1,1.1,0.4,1.1,1.2c-0.1,1.9,0,3.7,0,5.6c-1.2,0-2.3-0.1-3.4,0c-2.8,0.3-4.5,2.1-4.6,4.9c-0.1,3.9-0.1,7.8,0,11.8
	c0,1.6,0.3,3.2,2.1,4.1c-0.3,0-0.6,0.1-0.9,0.1c-6.2,0-12.3,0.1-18.5,0c-1.4,0-3-0.3-4.3-0.8c-3-1.1-4.5-3.4-4.7-6.6
	c-0.1-1.5,0-2.9,0-4.8c-1.7,0.7-3.2,1.1-4.6,1.9c-1.1,0.6-1.6,1.7-1.5,3.1c0.2,1.4,0.9,2.5,2.3,2.8c1.2,0.3,2.4,0.4,3.8,0.5
	c-0.6,1.2-1.1,2.4-1.8,3.6c-0.1,0.2-0.5,0.3-0.7,0.3c-2.9,0-5.8,0.2-8.7-0.8c-3.6-1.2-5.7-3.7-5.7-6.7c0-3.3,1.9-6,5.6-7.2
	c2.2-0.7,4.5-1.1,6.7-1.7c1-0.3,2-0.5,2.8-1c1.7-1,1.6-2.8-0.1-3.8c-1.5-0.9-3.2-0.9-4.8-0.6c-2,0.4-4,1.1-6,1.6
	c0.6-1.9,1.2-3.9,1.9-5.9c0.1-0.2,0.4-0.5,0.7-0.6c4.8-1.1,9.6-1.4,14.3,0.5c3.7,1.4,5.2,4.4,5.3,8.1c0.1,2.9,0.1,5.8,0.2,8.6
	c0,4.2,2.2,6,6.5,5.3c0-0.4,0.1-0.7,0.1-1.1c0-5.7,0-11.4,0-17c0-0.4,0-0.7,0-1.1C371.9,95.3,371.5,93.9,369.9,93.2z"/>
<path class="st1" d="M409.2,94.4c0-3.4,0.1-6.7,0-10c0-1.4-0.6-2.5-2.1-3.2c4-0.2,8-0.3,12.2-0.5c0,0.5,0,1,0,1.5
	c0,11,0,22.1,0,33.1c0,0.7,0,1.4,0.2,2c0.2,1.2,0.7,2.3,2.1,2.8c-4,0-8.1,0-12.2,0c0-0.4-0.1-0.9-0.1-1.3c0-5,0-9.9,0-14.9
	c0-1.1-0.1-2.2-0.5-3.2c-1-2.7-4.3-3.2-6.1-1c-0.6,0.8-1.1,1.8-1.4,2.7c-0.7,2.5-0.7,5.1,0,7.6c1,3.9,3,5.4,7.1,5.4
	c-0.8,1.5-1.6,3-2.5,4.4c-0.3,0.4-1.1,0.5-1.7,0.6c-4,0.4-7.2-1-10-3.9c-5.6-5.9-4.7-17.1,1.9-21.8c3.8-2.7,7.7-3,11.9-0.9
	c0.4,0.2,0.7,0.4,1.1,0.5C408.9,94.4,409,94.4,409.2,94.4z"/>
<path class="st1" d="M181.9,80.7c1.2,0,2.4,0,3.7,0c2.8,0,5.6,0,8.4,0c0.9,0,1.2,0.3,1.5,1.1c2.8,8.5,5.7,17,8.6,25.4
	c0.1,0.4,0.3,0.9,0.6,1.6c1.3-4.1,2.4-7.7,3.6-11.4c1.1-3.5,2.2-6.9,3.3-10.4c1-3.2,0.6-4.3-2.2-6.2c3.6,0,7,0,10.6,0
	c-4.5,13.2-8.9,26.3-13.4,39.5c-5.7-1.5-10.4-3.8-12.5-9.8c-2.9-8.3-5.9-16.6-8.9-24.9c-0.7-1.8-1.4-3.6-3.3-4.5
	C181.8,80.9,181.8,80.8,181.9,80.7z"/>
<path class="st0" d="M294,102.5c-0.2,1.1-0.4,2.1-0.6,3c-0.4,1.2-1.2,2-2.5,2.1c-1.3,0.1-2.3-0.4-3.1-1.5c-1.2-1.7-1.1-5.5,0.3-7.2
	c1.4-1.7,4-1.4,5,0.5C293.6,100.5,293.8,101.6,294,102.5z"/>
<path class="st1" d="M427,80.1c-2.4,0-4.4,2-4.4,4.4c0,2.4,2,4.4,4.4,4.4c2.4,0,4.4-2,4.4-4.4C431.4,82.1,429.4,80.1,427,80.1z
	 M427,88.4c-2.1,0-3.8-1.7-3.8-3.8c0-2.1,1.7-3.8,3.8-3.8c2.1,0,3.8,1.7,3.8,3.8C430.8,86.7,429.1,88.4,427,88.4z"/>
<g>
	<g>
		<path class="st2" d="M425.2,86.5v-3.9h1.7c0.4,0,0.6,0,0.8,0.1c0.2,0.1,0.3,0.2,0.4,0.4c0.1,0.2,0.2,0.4,0.2,0.6
			c0,0.3-0.1,0.5-0.3,0.7c-0.2,0.2-0.5,0.3-0.8,0.4c0.1,0.1,0.2,0.1,0.3,0.2c0.2,0.1,0.3,0.3,0.4,0.5l0.7,1.1h-0.7l-0.5-0.8
			c-0.2-0.2-0.3-0.4-0.4-0.5c-0.1-0.1-0.2-0.2-0.3-0.3c-0.1-0.1-0.2-0.1-0.2-0.1c-0.1,0-0.2,0-0.3,0h-0.6v1.8H425.2z M425.8,84.3
			h1.1c0.2,0,0.4,0,0.6-0.1c0.1,0,0.2-0.1,0.3-0.2c0.1-0.1,0.1-0.2,0.1-0.4c0-0.2-0.1-0.3-0.2-0.5c-0.1-0.1-0.3-0.2-0.6-0.2h-1.2
			V84.3z"/>
	</g>
</g>
<path class="st3" d="M86.4,114.3c1.2,0,2.5,0,3.8,0c0.1-0.3,0.1-0.7,0.2-1.1c0.5,0,0.9,0,1.5,0c0.1,0.4,0.1,0.7,0.2,1.1
	c1.3,0,2.5,0,3.8,0c0.1-0.3,0.2-0.7,0.2-1c0.7-0.5,1.5,0,1.7,1c1.2,0,2.5,0,3.8,0c0.1-0.3,0.2-0.7,0.2-1c0.8-0.1,1.6-0.3,1.5,1
	c1.3,0,2.6,0,3.9,0c0.1-0.3,0.1-0.7,0.2-1c0.5,0,0.9,0,1.4,0c0.1,0.3,0.2,0.6,0.3,1.1c3.2,0.1,6.6,0.5,9.3-2.3
	c-4.4,0.9-8.6,0.5-12.8,0.5c-26.8,0-53.7,0-80.5,0.1c-1.3,0-2.1-0.2-2.4-1.6c-0.2-1-0.8-1.8-2-2c-0.2,0-0.5-0.5-0.9-1
	c3.2,0,5.9,0,8.7,0c0-0.1,0-0.2,0.1-0.4c-0.4-0.1-0.7-0.3-1.1-0.3c-1.7,0-3.4,0-5.2,0c-0.7,0-1.1-0.2-1.3-0.9
	c-0.3-0.9-0.7-1.7-1.7-2c-0.3-0.1-0.5-0.5-0.8-1c1.3,0,2.3,0,3.4,0c-0.9-1.2-1.6-2.2-2.4-3.3c-0.2-0.3-0.7-0.3-1.1-0.4
	c-3.7-0.5-7.4-1-11.2-1.5c-0.4-0.1-0.8-0.2-1.2-0.2c0-0.1,0-0.3,0-0.4c0.4,0,0.8,0,1.1,0c1.7,0.2,3.4,0.4,5.1,0.6
	c1.1,0.2,2.1,0.1,2.8-0.8c0.2-0.2,0.4-0.3,0.6-0.5c1.5-1.2,1.5-1.2,0.8-3c-3.3-8.8-3.2-17.5,1-26c0.3-0.5,0.6-1,0.9-1.6
	c2.3,1.5,4.5,3.1,6.8,4.5c0.5,0.3,1.2,0.5,1.9,0.5c2.5-0.1,5-0.3,7.6-0.7c-0.6-0.3-1.3-0.7-1.7-0.9c0.4-0.4,1-0.8,1.4-1.3
	c3.2-3.5,3.5-8.1,4.5-12.4c0.2-0.7,0.3-1.5,0.4-2c-1.4-0.6-2.7-1.2-3.8-1.7c2.2-2.2,4.8-4.1,5.9-7.1c-1.5-0.6-2.7-1.1-3.8-1.6
	c0.5-0.4,1-0.6,1.2-1c1.6-2.1,3.1-4.2,4.5-6.1c1.2,0.3,2.4,0.5,3.6,0.9c1.6,0.6,2.6,0.1,3.7-1.1c5.6-6.3,11.4-12.4,17.1-18.6
	c0.4-0.4,0.7-0.9,1-1.3c0.7,0.4,1.4,0.8,2.2,1.1c10.9,4.7,21.9,9.4,32.8,14.2c0.8,0.3,1.2,0.3,1.7-0.4c1.3-1.8,2.6-3.6,4.2-5.7
	c3.8,4,7.6,8.1,11.6,12c14.3,14.1,28.7,28.1,43,42.2c0.9,0.9,1.7,1.6,2.9,0.6c0.1-0.1,0.2,0,0.3,0c0,0,0.1,0,0,0
	c-5.5,4.6-10.1,10.1-15.1,15.2c-5.1,5.1-10,10.3-15,15.5c-0.3,0.3-0.6,0.7-0.8,1c-0.3-0.2-0.6-0.5-1-0.6c-3-0.7-6.1-1.4-9.1-2.2
	c-1.1-0.3-1.7,0.3-2.3,1c-1.2,1.6-2.2,3.3-3.5,4.8c-1,1.3-2.1,2.5-2.4,4.2c0,0.2-0.4,0.5-0.7,0.6c-0.2,0.1-0.6,0-0.8,0
	c-30.2,0-60.5,0-90.7,0c-0.4,0-0.9,0-1.2,0c-0.5-2.4,1.2-4.7-0.5-7c1.8,0,3.6,0,5.4,0c-0.2,0.3-0.4,0.7-0.7,1.1c1.4,0,2.7,0,4,0
	c0-0.1-0.1-0.1-0.1-0.2c0.4-0.3,0.8-0.7,1.3-0.8c0.3,0,0.6,0.5,0.8,1c1.2,0,2.5,0,3.8,0c0.1-0.3,0.2-0.6,0.3-1c0.4,0,0.9,0,1.4,0
	c0.1,0.3,0.1,0.7,0.2,1c1.3,0,2.5,0,3.8,0c0.1-0.3,0.2-0.6,0.3-1c0.4,0,0.9,0,1.5,0c0.1,0.3,0.1,0.6,0.2,1c1.3,0,2.5,0,3.9,0
	c0-0.3,0.1-0.7,0.1-1c0.9-0.1,1.8-0.4,1.6,1c1.3,0,2.6,0,3.9,0c0.1-0.3,0.1-0.6,0.2-0.9c0.7-0.5,1.5,0,1.7,0.9c1.3,0,2.5,0,3.8,0
	c0-0.1-0.1-0.2-0.1-0.2c0.4-0.3,0.8-0.8,1.2-0.8c0.3,0,0.7,0.5,1.1,0.8c-0.1,0.1-0.1,0.2-0.2,0.3c1.2,0,2.5,0,3.8,0
	c0.1-0.3,0.2-0.6,0.3-1c0.4,0,0.9,0,1.4,0c0.1,0.3,0.2,0.7,0.2,1c1.3,0,2.5,0,3.8,0c-0.1-1.2,0.6-1.3,1.6-1c0.1,0.3,0.2,0.6,0.3,1
	c1.3,0,2.5,0,3.9,0c0.1-0.3,0.1-0.7,0.2-1c0.5,0,0.9,0,1.4,0c0.1,0.3,0.1,0.7,0.2,1c1.3,0,2.5,0,3.8,0c-0.1-0.1-0.1-0.2-0.2-0.3
	c0.4-0.3,0.8-0.7,1.3-0.7c0.3,0,0.6,0.5,1,0.8C86.4,114.1,86.4,114.2,86.4,114.3z M137.1,94.1c0.6,0.1,1.2,0.5,1.7,0.3
	c2.2-1,4.3-2.1,6.4-3.1c0-0.1-0.1-0.2-0.1-0.3C142.4,92,139.7,93,137.1,94.1c-1,0.4-2,0.8-3.1,1.2c0.3,0.4,0.4,0.8,0.6,1.1
	C136.9,95.5,137,95.4,137.1,94.1z M121.8,106.6c0.9-0.2,1.8-0.4,2.8-0.6c0,0.8,0,1.3,0,2.1c1.6-0.4,2-1.8,3-2.7c-1,0-2,0-3,0.2
	C123.6,105.9,122.7,106.3,121.8,106.6c-2,1-4.1,2-6.4,3.2C118.2,110.2,119.7,109.4,121.8,106.6z M62,25c-0.1,0.1-0.3,0.1-0.4,0.2
	c-3.9,4.2-7.7,8.4-11.6,12.6c0,0.1,0,0.1-0.1,0.3c1.8,0.4,3.6,0.8,5.5,1.2c2.8,0.6,2.8,0.6,4.2-1.8c0.2-0.3,0.1-0.8,0.1-1.3
	c1.9-0.2,5.8-5.8,6.3-9.6C64.2,27.1,63.1,25.9,62,25c1.2-0.1,2.5-0.1,3.8-0.1c0.3,0,0.8-0.3,0.9-0.5c0.6-2,1.1-4.1,1.7-6.2
	c-1.4,1.1-2.5,2.4-3.7,3.6C63.7,22.9,62.9,24,62,25z M90.6,107.7c0.2-3.8,0.5-7.3,0.7-10.9c0-0.4-0.4-0.8-0.7-1.1
	C88.4,93.8,86,92,84,89.9c-1.9-1.9-3.8-2.4-6.5-2.3c-3.5,0.1-7,0.2-10,2.3c0,0-0.1,0-0.1,0.1c-0.6,0.2-0.8,0.6-0.8,1.3
	c0,2,0,3.9,0,5.9c0,3.1,0,6.2,0,9.3c0.5,0.2,0.9,0.3,1.3,0.6c0.4,0.2,0.6,0.6,1,0.8c0.3,0.2,0.7,0.4,1.1,0.4
	C76.8,108,83.6,108.7,90.6,107.7z M118.8,68.3c2.1,3.7,4.1,7.2,6,10.7c0.8,1.5,1.7,2.3,3.4,2c0.2,0,0.5,0.1,0.8,0.1
	c0,0.1,0,0.2,0.1,0.2c-0.6,0.3-1.1,0.5-1.8,0.9c0,0.4-0.1,0.9,0.1,1.3c2.1,3.8,4.2,7.5,6.3,11.4c5.3-2.1,10.6-4.1,16-6.3
	c-13.1-12.3-26-24.4-39-36.6c2.7,3.8,5.5,7.4,8.3,11.1c1.1,1.5,2.2,2.7,4.2,2.3c0,0,0.1,0.1,0.1,0.1
	C121.8,66.4,120.4,67.4,118.8,68.3z M117,45.1c0.4,0.5,0.8,1,1.2,1.4c11.1,12.9,22.2,25.8,33.2,38.7c1.8,2.1,1.8,2.1,4.3,0.9
	c2.3-1.2,4.7-2.3,7.1-3.5c-0.4-0.3-0.6-0.6-0.9-0.8c-14.2-12.2-28.3-24.4-42.5-36.7C118.5,44.3,117.9,44.2,117,45.1z M152.8,87.4
	c-12.1-14-24.1-28-35.9-41.7c-2.2,0.7-4.2,1.3-6.3,1.9c-0.4,0.1-0.9,0.4-0.9,0.7c-0.1,0.4,0.3,0.8,0.5,1.2c0,0.1,0,0.2,0,0.4
	c-0.2,0.1-0.4,0.3-0.7,0.5c0.3,0.3,0.5,0.5,0.7,0.7C123,63,135.8,75,148.6,87.1C150.4,88.7,150.4,88.7,152.8,87.4z M107.1,107.6
	c1.2-0.1,2.4,0.1,3.4-0.2c1.9-0.6,3.8-1.3,5.5-2.3c4.4-2.5,8.6-5.1,13.1-7.8c-0.4-0.3-0.7-0.6-1-0.8c-3-2.7-6.1-5.3-9-8.1
	c-1.2-1.1-2.3-1.6-3.9-1c-0.6,0.2-1.3,0.2-2,0.3c-2,0.2-4,0.5-6.1,0.7C107.1,94.8,107.1,101.1,107.1,107.6z M111,37.2
	c0.2,0.2,0.4,0.4,0.6,0.5c17,14.6,33.9,29.2,50.9,43.9c1,0.9,1.6,0.3,2.5-0.3c-17.4-17.1-34.8-34.1-52.1-51.1
	c-0.1,0.1-0.1,0.1-0.2,0.2c1.2,1.3,2,3.1,3.8,4.3C114.6,35.6,112.8,36.4,111,37.2z M71.6,43.7c0.1,0.1,0.2,0.1,0.3,0.2
	c8.9,2.2,17.9,2.6,26.9,0.8c0.8-0.2,1.7-0.4,2.3-0.9c1.7-1.5,3.2-3.1,4.7-4.8c0.2-0.2,0.3-0.6,0.5-1.1c-0.9,0.1-1.6,0.2-2.2,0.1
	c-3.5-0.1-7,0-10.5-0.5c-7.3-1-13.9-3.8-20.2-7.5c-0.3-0.2-0.7-0.2-1-0.3c0.1,0.4,0.2,0.8,0.4,1.1c1.3,1.6,2.6,3.1,3.9,4.7
	c0.4,0.4,0.9,0.7,1.2,1C75.9,38.7,73.8,41.2,71.6,43.7z M95.1,65.4c0-0.1,0.1-0.2,0.1-0.3c-8.4-6.6-16.7-13.2-25.1-19.9
	c0,0.4,0.2,0.7,0.4,1c2.9,4.3,5.8,8.6,8.6,13c0.9,1.5,1.8,2.7,3.8,2.2c0.1,0,0.1,0.1,0.1,0.1c-3.5,2.2-7,4.5-10.6,6.8
	c2.4,2.1,4.6,4.1,6.8,6.1c0.2,0.2,0.6,0.2,0.9,0.2c5.5-1.4,10.4-4,14.8-7.5c-0.3-0.4-0.4-0.8-0.7-1.1c-0.3-0.2-0.8-0.3-1.2-0.4
	c0-0.1,0-0.2,0.1-0.3C93.7,65.4,94.4,65.4,95.1,65.4z M73.3,28.5c0.3,0.1,0.5,0.3,0.8,0.4c5,2.3,10.2,4.1,15.6,4.9
	c3.7,0.6,7.5,0.7,11.2,0.9c1.4,0.1,2.9-0.3,3.4-2.1c-11.4-4.9-22.8-9.9-34.2-14.8c0.8,1.5,1.7,2.7,2.7,3.9c1,1.1,1.5,2.7,3,3.4
	c-0.2,0.1-0.4,0.2-0.5,0.4C74.6,26.5,74,27.5,73.3,28.5z M18.7,67.2c-5.3,8.8-4.9,20.7-0.9,28.3c1.1-0.9,2.2-1.8,3.4-2.7
	c0.7-0.5,0.9-1,0.8-1.8c-0.3-6.6-0.6-13.2-0.7-19.7C21.2,69.3,20.5,68,18.7,67.2z M72,45.8c0,0.1-0.1,0.2-0.1,0.2
	c8.1,6.4,16.2,12.9,24.4,19.3c1.5-2.1,3-4.1,4.5-6.2C91.1,54.7,81.5,50.3,72,45.8z M73.1,45.8c9.3,4.3,18.6,8.7,28.2,13.1
	c0.8-3.4,1.6-6.6,2.4-10.1C93.1,50.2,83,49.3,73.1,45.8z M22.3,69.7c0.6,7,1.2,13.7,1.9,20.7c2.7-2.1,5.2-4.1,7.5-6
	c-1.8-0.8-3.6-1.6-5.4-2.4c0-0.1,0.1-0.2,0.1-0.3c0.4,0,0.8,0,1.3,0c0.6,0,1.4,0.1,1.7-0.2c1.4-1.3,2.6-2.8,4-4.2
	C29.9,74.9,26.2,72.4,22.3,69.7z M111.2,109.3c-27.3,0-54.6,0-82.1,0c0.4,0.6,0.7,1.1,0.9,1.6c0.2-0.3,0.5-0.7,0.8-1.1
	c0.3,0,0.7,0,1.2,0c0.1,0.4,0.1,0.7,0.2,1.1c1.3,0,2.5,0,3.8,0c0.1-0.4,0.2-0.8,0.3-1.1c0.5,0,0.9,0,1.4,0c0.1,0.4,0.2,0.7,0.2,1.1
	c1.3,0,2.6,0,3.8,0c0.1-0.4,0.2-0.7,0.2-1.1c0.5,0,0.9,0,1.4,0c0.1,0.4,0.2,0.8,0.3,1.1c1.3,0,2.6,0,3.8,0c0.1-0.4,0.2-0.8,0.3-1.1
	c0.5,0,0.9,0,1.4,0c0.1,0.4,0.1,0.7,0.1,1.1c1.4,0,2.6,0,3.9,0c0.1-0.4,0.1-0.7,0.2-1c0.5,0,1,0,1.5,0c0.1,0.4,0.1,0.7,0.2,1
	c1.4,0,2.6,0,3.9,0c0.1-0.4,0.2-0.7,0.3-1.1c0.5,0,0.9,0,1.4,0c0.1,0.4,0.1,0.7,0.2,1.1c1.3,0,2.6,0,3.9,0c0.1-0.4,0.2-0.7,0.2-1.1
	c0.5,0,0.9,0,1.4,0c0.1,0.4,0.2,0.7,0.3,1.1c1.3,0,2.6,0,3.8,0c0.1-0.4,0.2-0.7,0.3-1.1c0.5,0,0.9,0,1.4,0c0.1,0.4,0.1,0.7,0.2,1.1
	c1.3,0,2.6,0,3.9,0c0.1-0.4,0.2-0.7,0.2-1.1c0.5,0,1,0,1.4,0c0.1,0.4,0.2,0.7,0.2,1c1.3,0,2.6,0,3.9,0c0.1-0.4,0.2-0.7,0.2-1.1
	c0.5,0,0.9,0,1.4,0c0.1,0.4,0.2,0.8,0.3,1.1c1.3,0,2.6,0,3.9,0c0.1-0.4,0.1-0.7,0.2-1.1c0.5,0,1,0,1.5,0c0.1,0.4,0.1,0.7,0.1,1.1
	c1.4,0,2.6,0,3.9,0c0.1-0.4,0.1-0.7,0.2-1.1c0.5,0,0.9,0,1.4,0c0.1,0.4,0.2,0.7,0.2,1.1c1.3,0,2.6,0,3.8,0c0.1-0.4,0.1-0.7,0.2-1.1
	c0.5,0,0.9,0,1.4,0c0.1,0.4,0.2,0.7,0.3,1.1c1.3,0,2.5,0,3.8,0c0.1-0.4,0.2-0.7,0.2-1.1c0.5,0,1,0,1.4,0c0.1,0.4,0.2,0.7,0.3,1.1
	c1.7,0,3.3,0,4.9,0C111.4,110.4,111.3,109.9,111.2,109.3z M80.1,61.5C76.4,56,73,50.8,69.5,45.6c-0.1,0-0.3,0-0.4,0
	c-0.2,0.5-0.5,1.1-0.5,1.6c0,2.5,0.1,5,0.1,7.5c0,2.4,0,4.8,0,7.4c1.8,0,3.3,0,4.8,0c0.2,0,0.5,0,0.6-0.1c0.5-1,1.4-0.6,2.1-0.6
	C77.4,61.4,78.6,61.5,80.1,61.5z M99.1,68.7c-1.2-0.5-2.3-1-3.5-1.5c-4.5,3.7-9.6,6.5-15.5,8c1.4,1.5,2.5,2.8,4.7,2.5
	c1.7-0.2,3.5-0.2,5.3-0.3c0.9-0.1,1.7-0.2,2.9-0.4c-1-0.9-1.8-1.6-2.7-2.3c0.1-0.1,0.2-0.2,0.3-0.3c1,0.8,2,1.5,3,2.3
	c1.4-1,2.7-1.9,4-2.8c0.2-0.2,0.5-0.5,0.5-0.7C98.4,71.6,98.7,70.1,99.1,68.7z M164.1,82.6c-0.3,0-0.4,0-0.5,0.1
	c-3.2,1.7-6.4,3.3-9.5,5c-0.3,0.2-0.6,0.5-0.9,0.8c-5.3,6.6-10.7,13.3-16,19.9c-0.6,0.8-0.6,1.6-0.4,2.7
	C145.9,101.5,154.9,92.2,164.1,82.6z M118,86.9c3.7,3.3,7.4,6.6,11,9.8c0.2,0.2,0.7,0.2,0.9,0.1c1.1-0.5,2.2-1.2,3.3-1.8
	c-1.8-3.3-3.7-6.5-5.5-9.8c-1.2-2.2-1.2-2.2-3.3-0.9c-0.6,0.4-1.3,0.8-2,1C121,85.8,119.6,86.3,118,86.9z M109,78.6
	c0,0.1,0,0.3,0.1,0.4c1.6,1.5,3,3.3,5.6,2.8c0.8-0.2,1.6,0,2.4,0c0.2,0,0.6,0.1,0.7-0.1c0.7-1.1,1.8-0.6,2.7-0.6
	c1.3-0.1,2.6,0,3.9,0c-3.7-3.2-7.4-6-11.2-8.9c-0.2-0.2-0.6-0.3-0.8-0.2c-1,0.3-1.9,0.8-2.9,1.2c-0.2,0.1-0.4,0.3-0.4,0.5
	c0,1.2,0,2.4,0,3.5c0.6,0.1,1,0.2,1.4,0.3c0,0.1,0.1,0.2,0.1,0.3C110.1,78,109.7,78.2,109,78.6z M104.2,46.4c-1-0.4-2-0.5-2.7-1
	c-0.7-0.6-1.3-0.7-2.2-0.5c-7,1.5-14,1.6-21.1,0.6c-2.2-0.3-4.4-0.8-7-1.3c0.6,0.3,0.9,0.4,1.2,0.5c9.5,3.8,19.4,5,29.6,3.9
	C104,48.4,104,48.4,104.2,46.4z M106.6,36.6c-1-0.3-1.9-0.6-2.7-0.9c-0.6-0.2-1.2-0.5-1.8-0.6c-1.7,0-3.4,0.2-5.1,0.1
	c-8-0.4-15.6-2.5-22.8-5.8c-0.3-0.2-0.7-0.3-1-0.4c0.2,0.4,0.5,0.7,0.8,0.8c2.4,1.2,4.8,2.6,7.3,3.7c7.7,3.4,15.8,4.9,24.3,4
	C106.1,37.4,106.7,37.3,106.6,36.6z M48.4,86.8c-1.4,1.3-2.6,2.7-4.2,3.8c-2,1.4-2.8,3.1-2.4,5.4c0.1,1,0,2,0,3.1
	c1.4-0.4,2.6-0.8,3.8-1.1c0.8-0.2,1.2-0.6,1.4-1.4c0.7-2.4,1.4-4.8,2.2-7.2C49.6,88.3,49.5,87.5,48.4,86.8z M32.3,84.6
	c-1.5,1.2-3.1,2.4-4.6,3.7c-1.1,0.9-2.7,1.6-3.2,2.8c-0.5,1.2,0,2.8,0.2,4.2c0.1,1.3,0.3,2.6,0.4,4.3C28.2,94.7,32.3,90.7,32.3,84.6
	z M91.3,95.7c0.3-3.1,0.5-6.1,0.7-9c-1-0.2-1.8-0.6-2.6-0.5c-2.5,0.3-5,0.9-7.6,1.4C85,90.3,88,92.9,91.3,95.7z M108.9,51.7
	c0,3.6,0,6.9,0,10.1c0,0.4,0.4,0.9,0.7,1c1.5,0.8,3.1,1.5,4.7,2.2c0.6,0.3,1.3,0.3,2.4,0.5C114,60.7,111.5,56.3,108.9,51.7z
	 M113.2,71.5c4,3.1,7.9,6.1,11.8,9.2c0.1-0.1,0.1-0.1,0.2-0.2c-2.2-3.9-4.4-7.9-6.6-11.8C116.7,69.6,115,70.5,113.2,71.5z
	 M43.5,69.4c2.3-0.6,4.4-1.1,6.7-1.6c-2.3-3.5-4.4-6.8-6.7-10.2C43.5,61.6,43.5,65.4,43.5,69.4z M69.6,75c3.1,0.5,6.2,0.6,9.4-0.2
	c-1.3-1.2-2.4-2.2-3.5-3.2c-1.1-1-2.2-2-3.3-3c-3.5,2.1-3.5,2.1-3.1,4.8c0.5,0.1,1,0.1,1.7,0.2C70.3,74.2,70,74.6,69.6,75z
	 M66.6,86.6c4.2,1.6,7.4-0.1,10.4-2.4c-0.9-1.3-2.1-1.7-3.6-1.6c-1.3,0.1-2.7,0-4.1,0c-0.9,0-1.8,0-2.7,0
	C66.6,84.1,66.6,85.4,66.6,86.6z M51.9,96.4c-1.6,0.5-3,1-4.3,1.4C47.3,98,47,98.3,47,98.5c-0.7,2.2-1.3,4.3-2,6.6
	c1.6,0.1,3,0.2,4.6,0.3C50.3,102.5,51.1,99.6,51.9,96.4z M45,45.3c1.5,1.3,3,2.8,4.7,4.2c0.2,0.2,0.7,0.2,1,0.1
	c2.5-0.7,2.6-3.2,4.2-4.7c-2.1-0.3-3.8-0.6-5.5-0.8c-0.2,0-0.4,0-0.6,0C47.5,44.5,46.3,44.9,45,45.3z M136.7,108
	c0.1,0,0.2,0.1,0.2,0.1c4.6-5.7,9.2-11.4,13.8-17.2c-4.6,4.2-9.1,8.5-13.5,12.8c-0.2,0.2-0.3,0.5-0.3,0.7
	C136.8,105.6,136.7,106.8,136.7,108z M57.7,57.6c-0.5-0.5-1.1-0.9-1.5-1.4c-0.6-0.7-1.1-0.6-1.9-0.3c-1.6,0.8-3.3,1.4-5,2
	c-0.7,0.3-1.5,0.5-2.5,0.8c2.8,0.8,5.3,1.6,7.8,2.2c0.3,0.1,0.8-0.1,1-0.3C56.3,59.7,57,58.7,57.7,57.6z M127.1,108.2
	c3.1,0.3,6,0.5,9,0.8c0-1.7,0-3.2,0-4.6C132.4,104,129.5,105.5,127.1,108.2z M63.1,61.8c1-4.5,1.9-8.7,2.9-13
	c-0.1-0.1-0.2-0.2-0.3-0.2c-0.9,0.9-2.2,1.6-2.6,2.7c-0.9,2.5-1.3,5.3-1.9,7.9c-0.1,0.3,0,0.7,0.2,0.9
	C61.8,60.7,62.3,61.2,63.1,61.8z M57.6,40.4c-2.8-0.6-5.3-1.2-7.9-1.8c-0.2,0-0.6,0.1-0.7,0.2c-0.7,0.7-1.3,1.5-2,2.2
	c0.5,0.7,0.9,1.3,1.4,1.9c0.2,0.2,0.6,0.4,0.8,0.3C52,42.8,54.7,41.8,57.6,40.4z M71.9,30.4c-1.8,1.6-3.5,3.1-2.5,5.8
	c2.3,0,4.7,0,7.3,0C75.1,34.2,73.5,32.3,71.9,30.4z M54,65.2c-3.3-2.5-6.3-4.8-9.4-7.2c1.6,2.9,3.3,5.6,5.1,8.2
	c0.9,1.4,1.3,1.6,2.8,0.8C53.1,66.8,53.5,66,54,65.2z M130.3,98.6c-0.5-0.9-1.1-1-1.9-0.4c-2.2,1.4-4.5,2.7-6.8,4.1
	c-2,1.2-4.1,2.5-6.1,3.7c0,0.1,0.1,0.2,0.1,0.3c1.2-0.2,2.6-0.1,3.7-0.6c2.9-1.4,5.7-3,8.5-4.6c-0.1-0.4-0.1-0.7-0.2-1
	C128.6,99.5,129.4,99.1,130.3,98.6z M95.7,99.7c0.1,0,0.3,0,0.4-0.1c1.6-3.8,3.2-7.6,4.8-11.4c-1.8,0.2-0.8,2.1-2,3
	c0.2-1.2,0.4-2.1,0.6-3.2c-0.7-0.1-1.3-0.1-1.8-0.2c-0.1,0.2-0.2,0.3-0.2,0.4c-0.8,3.3-1.5,6.7-2.2,10.1
	C95.1,98.7,95.5,99.3,95.7,99.7z M94.7,98.5c0.8-3.6,1.6-7.1,2.4-10.7c-0.7-0.1-1.3-0.2-1.9-0.3c-0.4,1.8-0.8,3.4-1.2,5.1
	c-0.1,0-0.2-0.1-0.3-0.1c0.3-1.7,0.7-3.4,1.1-5.2c-0.5-0.1-0.8-0.1-1.4-0.2c0,3,0.1,5.9,0,8.7C93.2,97.1,93.4,97.9,94.7,98.5z
	 M50,88.5c-0.9,3.1-1.8,6-2.7,9c0.4-0.1,0.6-0.2,0.8-0.2c4-1.3,4-1.3,4.1-5.4c0-0.4-0.1-0.8-0.3-1.1C51.3,90,50.7,89.3,50,88.5z
	 M55.9,94.4c0.5-2.2,0.9-4.2,1.4-6.3c0.6-2.7,0.6-2.7-2.2-3.6c-0.3,1.7-0.8,3.3-1,5C53.8,91.3,53.8,93.2,55.9,94.4z M55.2,55.3
	c-1-1-1.9-1.7-2.7-2.5c-0.6-0.7-1.2-0.5-1.8-0.1c-2,1.3-2.8,3.5-4.2,5.3c0.1,0.1,0.2,0.3,0.3,0.4C49.5,57.4,52.2,56.4,55.2,55.3z
	 M78,84.3c1,0.9,1.9,1.7,2.9,2.5c0.2,0.2,0.5,0.3,0.8,0.3c2.2-0.3,4.5-0.6,6.7-0.9c-2.5-1.2-5-2.2-7.6-3.2c-0.2-0.1-0.5,0-0.8,0.1
	C79.3,83.3,78.7,83.8,78,84.3z M42,92.1c2.2-2,4.2-3.8,6.2-5.7c-0.6-0.7-1.1-1.2-1.5-1.8c-4.8,2.2-5,2.6-4.8,7
	C41.9,91.7,41.9,91.8,42,92.1z M41.9,104.8c2.6,0.5,2.6,0.5,3.3-1.8c0.2-0.6,0.3-1.1,0.5-1.7c0.3-1,0.6-1.9,0.9-3
	c-1.5,0.4-2.8,0.8-4,1.2c-0.3,0.1-0.6,0.4-0.7,0.7C41.8,101.7,41.9,103.3,41.9,104.8z M75.9,38.3c-2.4,0-4.4,0-6.6,0
	c0,1.2-0.1,2.4,0,3.5c0.1,0.6,0.5,1.1,0.9,1.5c0.1,0.2,0.8,0.1,1-0.1C72.8,41.7,74.2,40.1,75.9,38.3z M115.5,44.1
	c-2-2.3-3.9-4.5-5.9-6.8c0,2.4,0,4.6,0,6.8C111.6,44.1,113.4,44.1,115.5,44.1z M120,65.2c-3.3-4.3-6.6-8.5-9.9-12.7
	c0,0.4,0.1,0.7,0.3,1c1.8,3.2,3.7,6.4,5.4,9.7C116.8,65,117.9,65.9,120,65.2z M52.5,49c0.1,0.1,0.1,0.2,0.2,0.3
	c2.2-0.7,4.4-1.4,6.6-2c1.3-0.4,1.9-1.1,1.9-2.4c-1.8,0-3.7,0-5.5,0c-0.2,0-0.5,0.1-0.6,0.3C54.2,46.4,53.4,47.7,52.5,49z
	 M29.3,100.5c1.2-0.4,2.1-0.6,2.3-1.8c0.4-2,0.9-4.1,1.3-6.1c0.3-1.6,0.7-3.3,1-4.9c-1,1.1-2.1,2.2-2.4,3.5
	C30.6,94.2,30.1,97.2,29.3,100.5z M34.1,97.7c1.3-0.5,1.9-1.2,2.1-2.4c0.1-1.3,0.5-2.6,0.8-3.9c0.5-2.4,1-4.7,1.5-7.1
	c-0.1-0.1-0.2-0.2-0.3-0.3c-0.5,0.3-1.2,0.5-1.3,0.8C35.9,89.1,35,93.3,34.1,97.7z M109.6,27.2c0,2.6,0,4.8,0,7.1c1.8,0,3.5,0,5.4,0
	C113.2,31.9,111.5,29.7,109.6,27.2z M69.2,24.8c1.8,0,3.4,0,5.3,0c-1.8-2.4-3.5-4.6-5.3-7.1C69.2,20.3,69.2,22.5,69.2,24.8z
	 M52.5,52.2c0.9,0.8,1.7,1.6,2.6,2.3c0.1,0.1,0.4,0.2,0.6,0.1c2.5-0.6,4.1-2.7,4.1-5.3C57.5,50.4,55.1,51.3,52.5,52.2z M149.4,91.3
	c0-0.1-0.1-0.1-0.1-0.2c-3.6,2.7-7.1,5.5-10.8,8.1c-1.5,1-1.7,2.3-1.5,4C141.2,99.2,145.3,95.2,149.4,91.3z M36.4,84.3
	c-0.1-0.1-0.3-0.2-0.4-0.3c-0.1,0.2-0.1,0.5-0.3,0.6c-1.2,1.3-1.3,2.9-1.6,4.4c-0.7,3.3-1.4,6.6-2.1,10c1.1-0.3,1.7-1,1.9-2.1
	c0.7-3.7,1.5-7.4,2.2-11C36.2,85.4,36.3,84.9,36.4,84.3z M22.1,92.7c-1.6,1.3-2.9,2.3-4.2,3.3c1.4,3.3,1.8,3.5,4.2,3.3
	C22.1,97.2,22.1,95.1,22.1,92.7z M52.1,71.8c0.1-0.1,0.1-0.2,0.2-0.3c0.5,0.3,1,0.6,1.6,1c0.3-1.1,0.5-2.1,0.8-3.2
	c-0.7,0.2-1.1,0.3-1.6,0.5c-0.6,0.2-1.4,0.3-1.7,0.7c-1.1,1.7-2,3.4-3,5.2c0.4,0.3,0.7,0.6,1,0.8c1.4-1.1,2.8-2.2,4.3-3.3
	C53.1,72.7,52.6,72.3,52.1,71.8z M43.6,77.7c0.5,0.1,0.8,0.2,1.1,0.2c0.6,0.1,1.5,0.5,1.8,0.2c0.6-0.5,0.9-1.4,1.3-2.2
	c0-0.1-0.1-0.3-0.2-0.4c-1.3-1.2-2.6-2.4-4-3.8C43.6,73.9,43.6,75.7,43.6,77.7z M116.7,86.7c0-0.1,0.1-0.3,0.1-0.4
	c-0.5-0.3-0.9-0.8-1.4-0.8c-2.7-0.1-5.5,0-8.2,0c0,0.9,0,1.6,0,2.5C110.4,87.6,113.5,87.1,116.7,86.7z M55.5,44.5
	c2-0.1,3.7-0.2,5.3-0.3c0.2,0,0.6-0.3,0.7-0.5c0.2-0.7,0.4-1.4,0.6-2.3c-1.2-0.3-2.3-0.6-3.5-0.8c-0.2,0-0.6,0.1-0.8,0.3
	C57.1,42,56.4,43.1,55.5,44.5z M59.2,69.4c-0.4,0.7-0.8,1.3-1,2c-0.2,0.7-0.2,1.4-0.5,2.1c-0.6,1.2-0.1,1.9,1,2.6
	c0.8,0.5,1.2,0.4,1.4-0.5c0.3-1.1,0.4-2.3,0.8-3.4C61.3,70.8,60.8,70,59.2,69.4z M149.3,90.5c0-0.1-0.1-0.1-0.1-0.2
	c-3.1,1.6-6.1,3.2-9.2,4.8c-1.8,1-2,1.3-1.4,3.5C142.1,96,145.7,93.2,149.3,90.5z M72.1,68.1c1.7-1.1,3.3-2.2,5-3.3
	c-2.9,0-5.6,0-8.3,0c0,0.1-0.1,0.2-0.1,0.3C69.9,66,71,67,72.1,68.1z M30.7,92.5c-0.1,0-0.1-0.1-0.2-0.1c-1.7,2.5-3.3,4.9-5.1,7.5
	c1.3,0.2,2.3,0.3,3.5,0.4C29.5,97.7,30.1,95.1,30.7,92.5z M51.1,50.7c0,0.2,0.1,0.4,0.1,0.6c0.5,0.1,1.2,0.3,1.6,0.2
	c2.2-0.8,4.3-1.6,6.5-2.4c0.8-0.3,1.2-0.9,1.1-1.7c-2.5,0.7-4.9,1.4-7.4,2.2C52.4,49.8,51.8,50.3,51.1,50.7z M21.8,69.3
	c-0.1,0-0.2,0-0.3,0c0.4,7.3,0.8,14.7,1.1,22c0.1,0,0.3,0,0.4,0.1c0.1-0.4,0.4-0.9,0.4-1.3c-0.5-6.6-1-13.3-1.5-19.9
	C21.9,70,21.9,69.7,21.8,69.3z M50.5,71.4c-2.2,0-4.2,0-6.3,0c0,0.1-0.1,0.2-0.1,0.3c1.3,1.2,2.7,2.5,4.1,3.8
	C49,74,49.8,72.6,50.5,71.4z M90.7,85.5c-1.2-0.5-2.2-0.8-3-1.2c-0.9-0.4-1.7-1-2.4-1.4c-0.8-0.6-1.5-1.1-2.2-1.6
	c1.6-0.5,3.4,0.4,4.8-0.7c-2.4-0.1-5-0.7-6.8,2c2.8,1,5.5,2,8.3,2.9C89.6,85.6,90,85.5,90.7,85.5z M44.2,56.5c0,0-0.2,0.2-0.4,0.4
	c0.7,0.5,1.3,1,1.9,1.5c1-1.5,2-3,3-4.5c-1.7,0-3.3,0-5,0C43.9,54.8,44.1,55.5,44.2,56.5z M41.8,58.5c-2.8,3.1-2.4,7.3-3.6,10.9
	c0.8,0.3,1.3,0.3,1.5-0.6C40.4,65.4,41.1,61.9,41.8,58.5z M55.6,95.3c-0.1-0.1-0.2-0.2-0.3-0.3c-0.5,0.4-1.4,0.8-1.4,1.2
	c-0.1,2.8-0.1,5.7-0.1,8.7c1-2.8,1.9-5.5,2.8-8.2c0.1-0.2-0.3-0.6-0.5-1.1c-0.5,2.1-0.9,3.9-1.3,5.6c-0.1,0-0.2-0.1-0.4-0.1
	C54.8,99.1,55.2,97.2,55.6,95.3z M107.1,51.7c-1.2,1.3-2.4,2.5-2.6,4.3c-0.1,0.9-0.4,1.8-0.6,2.7c-0.3,1.5-0.3,1.5,1.3,1.9
	C105.9,57.7,106.5,54.7,107.1,51.7z M56.4,94c0.1,0.1,0.2,0.1,0.3,0.2c0.3-0.2,0.8-0.4,1-0.8c0.9-2.4,1.7-4.8,2.5-7.3
	c-0.7-0.2-1.3-0.4-1.9-0.6C57.6,88.5,57,91.3,56.4,94z M43.9,50.9c1.5-0.3,2.8-0.5,4.4-0.7c-1.5-1.7-2.9-3.2-4.4-4.9
	C43.9,47.3,43.9,49,43.9,50.9z M64,36.5c1.2-0.6,2.1-0.9,2.4-2c0.6-2.2,1.1-4.3,1.6-6.6C65.2,30,64.7,33.1,64,36.5z M126,108.6
	c0,0.2,0,0.3-0.1,0.5c3.4,0.8,6.7,1.6,10.1,2.4c0-0.7,0-1.3,0-2C132.7,109.2,129.4,108.9,126,108.6z M82.4,78.3c0-0.1,0-0.2,0-0.2
	c-2.2-0.2-4.4-0.4-6.6-0.7c-2.2-0.3-4.4-0.8-6.5-1.3c1.5,1,3,2,4.6,2.8c0.6,0.3,1.8,0.4,2,0.1c0.6-0.9,1.3-0.6,2-0.6
	C79.4,78.3,80.9,78.3,82.4,78.3z M55.1,63.1c-0.9-0.6-1.7-1.1-2.7-1.7c0.6,0,1,0,1.3-0.1c0-0.1,0-0.1,0-0.2c-2-0.6-4-1.2-6.1-1.8
	c0,0.1-0.1,0.2-0.1,0.3c2.2,1.6,4.3,3.3,6.6,5C54.5,64.2,54.8,63.6,55.1,63.1z M27.2,72c0,0.1,0,0.2,0,0.3c0.8,0.6,1.6,1.1,2.5,1.6
	c0.3,0.2,0.7,0.2,1,0.1c1.5-0.5,2.9-1.2,4.3-1.8c0.3-0.1,0.5-0.2,0.8-0.2c-0.1-0.2-0.3-0.4-0.4-0.6C32.6,71.7,29.9,71.8,27.2,72z
	 M109.8,68.6c0,0.1-0.1,0.2-0.1,0.3c0.9,0.7,1.7,1.4,2.6,2c0.2,0.1,0.5,0.3,0.6,0.2c1.5-0.7,3.1-1.5,4.6-2.3c0-0.1-0.1-0.1-0.1-0.2
	C114.9,68.6,112.3,68.6,109.8,68.6z M67.4,47.6c-0.9,0.5-3.6,11.3-3.6,14.6c0.3-0.2,0.6-0.5,0.7-0.8c0.7-3.4,1.3-6.9,1.9-10.3
	c0.1-0.4,0.2-0.8,0.3-1.1c0.1,0,0.2,0.1,0.3,0.1c-0.2,1.1-0.4,2.2-0.5,3.3c0.1,0.1,0.2,0.1,0.3,0.2c0.2-0.2,0.6-0.5,0.6-0.7
	C67.4,51.1,67.4,49.4,67.4,47.6z M81.5,77.7c-1-1.8-2.3-2.8-4.3-2c-0.2,0.1-0.4,0.1-0.6,0.1c-2,0-3.9,0-5.9,0c0,0.1,0,0.2,0,0.4
	C74.3,76.6,77.9,77.1,81.5,77.7z M80.3,87.2c0-0.1,0.1-0.2,0.1-0.3c-0.8-0.7-1.6-1.4-2.5-2.1c-0.1-0.1-0.5-0.2-0.6-0.1
	c-1.4,0.8-2.8,1.6-4.3,2.5C75.6,87.2,77.9,87.2,80.3,87.2z M94.1,102.9c-0.1,0-0.2-0.1-0.3-0.1c0.2-0.8,0.3-1.7,0.6-2.5
	c0.4-1.1-0.1-1.7-1.2-2.2c0,2.9,0,5.7,0,8.7c0.9-2.2,1.8-4.1,2.5-6.1c0.1-0.3-0.2-0.8-0.3-1.2c-0.1,0-0.2,0.1-0.3,0.1
	C94.7,100.7,94.4,101.8,94.1,102.9z M52.3,90.2c0.2-2.2,0.4-4.3,0.5-6.4c-0.9,0.1-1.5,0.2-1.9,1.1C50.2,87,49.9,88.9,52.3,90.2z
	 M105.7,48.8c-0.1-0.1-0.2-0.2-0.3-0.4c-0.5,0.3-1.2,0.5-1.3,0.9c-0.7,2.4-1.2,4.9-1.8,7.5C105,54.7,105,51.6,105.7,48.8z M40.2,84
	c-0.6,0.3-1.3,0.5-1.3,0.8c-0.5,1.8-0.8,3.6-1.2,5.5c0.1,0.1,0.3,0.1,0.4,0.2c1.3-0.5,0.4-2.1,1.3-3.1c-0.1,1.2-0.1,2.1-0.2,3
	c0.1,0.1,0.3,0.1,0.4,0.2c0.2-0.3,0.6-0.5,0.6-0.8C40.2,87.9,40.2,86.1,40.2,84z M62.9,87.9c0.2-1.8,0.4-3.5,0.6-5.5
	c-0.8,0.3-1.6,0.3-1.8,0.7c-0.7,1.5-1.1,3.2-1.7,4.7c0.9,0.3,1.2,0,1.3-0.8c0.1-0.8,0.4-1.7,0.6-2.5c0.1,0,0.2,0.1,0.3,0.1
	c-0.2,1.1-0.4,2.1-0.6,3.2C62.2,87.9,62.5,87.9,62.9,87.9z M64.9,64.7c-2,0.1-2.2,0.2-2.3,1.8c0.6-0.4,1.2-0.9,1.9-1.3
	c0.1,0.1,0.1,0.2,0.2,0.2c-0.2,0.2-0.4,0.5-0.7,0.6c-1.5,0.8-2,2-2.2,3.6c-0.1,0.9,0.1,1.3,1,1.6c0.3-1.4,0.6-2.8,0.9-4.1
	c0.1,0,0.2,0,0.3,0.1c-0.1,0.5-0.1,1-0.2,1.5c0.4,0,0.7,0,1.1,0C64.9,67.3,64.9,66,64.9,64.7z M41.1,54c-0.1-0.1-0.2-0.2-0.3-0.3
	c-0.3,0.2-0.9,0.3-1,0.6c-0.7,2.9-1.4,5.8-2.1,8.9C40.5,60.5,40.1,57,41.1,54z M62.2,52.3c-0.1,0-0.1-0.1-0.2-0.1
	c-1.2,1.8-2.4,3.5-3.7,5.3c0.7,0.7,1.4,1.3,2.2,2C61.1,57,61.6,54.6,62.2,52.3z M83.6,78.1c0,0.1,0,0.1-0.1,0.2c1.2,0,2.3,0,3.5,0
	c0,0.1,0.1,0.2,0.1,0.3c-0.6,0.4-1.3,0.7-2.1,1.2c2.9,0.8,5-0.2,6.9-2.1C89.1,77.8,86.3,77.9,83.6,78.1z M104.2,66
	c0.3-1.6,0.6-3.2,1-4.8c-0.6-0.3-1-0.5-1.6-0.7c-0.4,1.9-0.8,3.7-1.2,5.5C103,66,103.5,66,104.2,66z M114.5,66
	c0-0.1,0.1-0.2,0.1-0.4c-1.8-0.8-3.6-1.7-5.5-2.6c0,1.1,0,2,0,2.9C111,66,112.7,66,114.5,66z M35.2,72.7c-1.6,0.7-3.1,1.3-4.6,1.9
	c1.3,0.9,2.4,1.6,3.7,2.4C34.5,75.5,34.8,74.2,35.2,72.7z M101.6,59.7c-0.4,1.8-0.9,3.7-1.3,5.5c0.6,0.1,1.1,0.2,1.7,0.2
	c0.3-1.3,0.5-2.6,0.9-3.9C103.3,60.4,102.8,59.9,101.6,59.7z M133.3,99.8c-1.5,1.7-2.8,3.1-4.3,4.8c2.5,0.2,3.7-1.7,5.4-2.7
	C134,101.2,133.8,100.7,133.3,99.8z M64.1,74.6c-2,0.2-3,1.5-4.4,2.3c1.1,0.8,1.9,1.4,2.9,2.2C63.1,77.5,63.5,76.2,64.1,74.6z
	 M36.3,69.9c0.7-0.3,1.4-0.4,1.5-0.7c0.6-2.2,1-4.5,1.5-7C37.2,64.3,36.9,66.9,36.3,69.9z M41.4,64.3c0.1,0,0.2,0,0.3,0
	c0,0.6-0.1,1.1-0.2,2c0.5-0.4,0.8-0.6,0.8-0.7c0-2.2,0-4.4,0-6.6c-0.1,0-0.2,0-0.3,0c-0.7,3.5-1.4,7-2.2,10.5c0.1,0,0.3,0.1,0.4,0.1
	C40.8,67.8,41.1,66,41.4,64.3z M101.1,60c-0.1-0.1-0.1-0.1-0.2-0.2c-1.3,1.8-2.6,3.5-4,5.4c1.1,0,2,0,2.9,0
	C100.3,63.5,100.7,61.7,101.1,60z M52.6,105.7c0.2-0.1,0.3-0.1,0.5-0.2c0-3.1,0-6.3,0-9.6c-0.2,0.3-0.5,0.5-0.6,0.8
	c-0.2,2.7-0.4,5.5-0.5,8.3C51.9,105.2,52.3,105.5,52.6,105.7z M50.3,43.7c0,0.1,0,0.1,0,0.2c1.5,0.2,3,0.3,4.6,0.4
	c0.1,0,0.4-0.2,0.5-0.3c0.6-0.8,1.1-1.7,1.8-2.7C54.7,42.1,52.5,42.9,50.3,43.7z M108.2,37.4c-2.6,1.8-2,4.4-2.8,6.7
	c0.5,0,1.3-0.1,1.3-0.4C107.3,41.7,107.7,39.7,108.2,37.4z M54.3,72.9c1.3-1,2.4-1.8,3.4-2.6c0.7-0.6,0.7-2,0.3-1.9
	c-1,0.3-2.2,0.7-2.8,1.4C54.6,70.4,54.6,71.7,54.3,72.9z M105.7,40.4c-1.1,1-2.5,2.3-4.1,3.7c1,0,1.7,0.1,2.5,0
	c0.3,0,0.7-0.4,0.8-0.7C105.3,42.2,105.6,41.1,105.7,40.4z M46.4,41.1c-0.8-1.1-1.6-2.2-2.5-3.3c0,2,0,3.8,0,6
	C44.9,42.7,45.6,41.9,46.4,41.1z M103.2,70.4c-2.6,0.9-2.6,2.9-2.9,4.9c1.4,0,2.2-0.5,2.3-1.9C102.7,72.5,103,71.5,103.2,70.4z
	 M60.5,106.2c0.2-1,0.3-1.9,0.5-2.8c-1.1,0-1.9,0-2.8,0c-0.2,0.9-0.3,1.7-0.5,2.6C58.7,106,59.5,106.1,60.5,106.2z M24.2,99.6
	c-0.2-2.7-0.4-5.3-0.6-7.9c-0.1,0-0.3-0.1-0.4-0.1c-0.2,0.4-0.5,0.9-0.5,1.3c0.1,2,0.2,4,0.3,6C23.1,99.7,23.4,99.8,24.2,99.6z
	 M118.2,44c-2.5-2.1-4.8-4.1-7.1-6.2c1.3,1.9,2.9,3.6,4.3,5.4C116,44.1,116.9,44.3,118.2,44z M59.8,52.2c2.2-0.8,3.4-2.3,3.3-4.7
	C60.6,48.6,60.3,49,59.8,52.2z M39,43.5c0.9,0,1.5,0.1,2.1,0c0.3-0.1,0.8-0.4,0.9-0.7c0.4-1.4,0.7-2.9,1-4.4c-0.3,0-0.4,0.2-0.5,0.3
	C41.4,40.2,40.3,41.7,39,43.5z M57.6,103.4c-3.1-0.2-2.8-0.6-3.4,2.3C57.8,106.2,56.9,106.2,57.6,103.4z M105.9,61.1
	c0.1,0,0.3,0,0.4,0c0.3-1.7,0.5-3.3,0.8-5c0.1,0,0.2,0,0.3,0.1c-0.1,0.8-0.1,1.7-0.2,2.6c0.8-0.6,0.9-7,0.4-8c0,0.5,0,1-0.1,1.5
	c-0.5,2.6-1,5.2-1.5,7.7C105.8,60.5,105.9,60.8,105.9,61.1z M105.1,32.5c0.8,0.3,1.5,0.6,2.2,1c0.4-1.9,0.8-3.6,1.2-5.3
	c-0.1,0-0.2-0.1-0.2-0.1C107.3,29.5,106.3,30.9,105.1,32.5z M92.3,97.1c-0.1,0-0.2,0.1-0.4,0.1c-0.2,3.3-0.4,6.5-0.5,9.8
	c0,0.2,0.2,0.4,0.3,0.6c0.2-0.3,0.4-0.5,0.4-0.8c0.1-2.9,0.2-5.7,0.3-8.6C92.5,97.8,92.4,97.4,92.3,97.1z M53.4,74.4
	c-0.1,0-0.1-0.1-0.2-0.1c-1.1,0.9-2.2,1.7-3.4,2.6c0.5,0.4,0.8,0.9,1.2,1.1c0.5,0.3,1.2,0.6,1.5-0.3C52.9,76.7,53.1,75.5,53.4,74.4z
	 M54.6,74.1c0,1.5,0,2.8,0,4c0.5,0.3,0.9,0.5,1.3,0.7C57,75.8,56.9,75.2,54.6,74.1z M61.5,103.4c-0.1,1-0.2,1.9-0.3,2.8
	c0.9,0.1,1.6,0.1,2.3,0.2c0.2,0,0.4,0,0.6,0C64.4,104.7,63.1,103.2,61.5,103.4z M124.4,105c3.2,0.6,5.1-1.1,6.7-3.6
	C128.8,102.6,126.7,103.8,124.4,105z M96.1,83.2c0.3,0.6,0.4,1.3,0.7,1.3c1.1,0.1,2.2,0.1,3.2,0c0.2,0,0.3-0.8,0.6-1.3
	C99,83.2,97.7,83.2,96.1,83.2z M101.2,68.6c-0.6,0-1.1,0-1.7,0c-0.3,1.4-0.7,2.8-1,4.2C100.7,72.2,101.1,70.5,101.2,68.6z
	 M102.1,75.6c-2.2,0.3-2.4,0.5-2.6,3.6c1.8,0.1,1.8,0.1,2.2-1.5C101.8,77,102,76.4,102.1,75.6z M115.8,83.2c-1.6,0-2.9,0-4.5,0
	c0.3,0.6,0.5,1.3,0.7,1.3c1.1,0.1,2.2,0.1,3.2-0.1C115.5,84.5,115.6,83.8,115.8,83.2z M115.8,83.2c0.3,0.6,0.5,1.4,0.7,1.4
	c1.1,0.1,2.2,0.1,3.2,0c0.2,0,0.4-0.6,0.4-0.9c0-0.2-0.4-0.5-0.6-0.5C118.4,83.1,117.3,83.2,115.8,83.2z M61.3,82.6
	c-0.9,0-1.6,0-2.4,0c-0.2,0.8-0.4,1.7-0.6,2.6c0.7,0.2,1.3,0.4,2,0.6C60.7,84.7,61,83.7,61.3,82.6z M106.8,83.2
	c0.3,0.7,0.5,1.4,0.8,1.4c1,0.1,2.1,0.1,3.1-0.1c0.2,0,0.3-0.6,0.4-1c0-0.1-0.5-0.4-0.7-0.4C109.3,83.1,108.3,83.2,106.8,83.2z
	 M57.3,61.6c1.1-0.5,2.2,0.6,2.9-0.7c0.4-0.9-0.2-1.7-2-2.6C57.9,59.2,57.6,60.3,57.3,61.6z M44.6,37.5c-0.1,0.1-0.1,0.1-0.2,0.2
	c0.7,1,1.5,2,2.3,3c0.7-0.8,1.3-1.5,2.1-2.3C47.2,38.1,45.9,37.8,44.6,37.5z M64.7,41.6c0.3-1.1,0.5-2.1,0.7-3.1
	c-2.1-0.4-2.2-0.3-2.6,2.6C63.4,41.3,64,41.4,64.7,41.6z M34,78.1c-0.1,0-0.1-0.1-0.2-0.1c-1.1,1.2-2.3,2.4-3.5,3.7
	c0.8,0,1.6,0,2.3,0c0.2,0,0.6-0.3,0.7-0.6C33.5,80.1,33.7,79.1,34,78.1z M67.3,38.4c-1.5-0.1-1.8,0.5-2,3.3c0.6,0.1,1.3,0.3,2,0.4
	C67.3,40.8,67.3,39.6,67.3,38.4z M69.4,80.4c0.3,0.6,0.5,1.3,0.7,1.4c1.1,0.1,2.2,0,3.4-0.1c0.2,0,0.3-0.7,0.5-1.3
	c-1.4,0-2.5,0-3.6,0C70.1,80.3,69.9,80.3,69.4,80.4z M38.7,73.4c-1.6,1.1-1.6,1.1-2.2,4.1c-0.2,0.9,0,1.4,1,1.6
	C37.9,77.2,38.3,75.3,38.7,73.4z M70.5,79c0-0.1,0.1-0.2,0.1-0.3c-1.4-0.4-1.9-2.6-4-1.7c0,0.7,0,1.3,0,2C68,79,69.2,79,70.5,79z
	 M53.2,80.4c0.3,0.6,0.4,1.2,0.6,1.3c1.1,0.1,2.2,0.1,3.3,0c0.2,0,0.3-0.8,0.5-1.3C56.1,80.4,54.8,80.4,53.2,80.4z M57.8,80.4
	c0.3,0.6,0.5,1.3,0.7,1.3c1.1,0.1,2.2,0.1,3.2-0.1c0.2,0,0.3-0.8,0.4-1.3C60.6,80.4,59.3,80.4,57.8,80.4z M112.3,71.4
	c-1.1-0.9-2.1-1.6-3.1-2.4c0,1.4,0,2.5,0,3.8C110.2,72.3,111.1,71.9,112.3,71.4z M71.6,30c-0.8-0.9-1.5-1.7-2.2-2.6c0,1.7,0,3.2,0,5
	C70.2,31.5,70.8,30.8,71.6,30z M71.8,68.3c-1-0.9-1.8-1.7-2.8-2.5c0,1.5,0,2.9,0,4.4C70,69.5,70.8,68.9,71.8,68.3z M31.9,89.1
	c1.1-1.5,2.7-2.7,2.7-5c-0.6,0.2-1.5,0.3-1.6,0.6C32.5,86.1,32.3,87.6,31.9,89.1z M99.5,76.3c-2,0.2-2.4,0.7-2.3,3.2
	C99.1,79.5,99.3,79.3,99.5,76.3z M58.4,100.7c-2.6-0.4-2.8-0.2-3.2,2.1c0.9,0,1.8,0,2.7,0C58,102,58.2,101.4,58.4,100.7z M101,81.8
	c1.5,0,2.8,0,4.1,0c0-0.9,0-1.7,0-2.6C103.8,80,102.5,80.8,101,81.8z M104.9,87.8c0.1-0.9-0.9-2.3-1.7-2.3c-1.4,0-1,1.4-1.7,2.3
	C102.8,87.8,103.9,87.8,104.9,87.8z M66.6,89.9c1.5-0.7,2.7-1.4,4-2c0-0.1,0-0.1-0.1-0.2c-1.3-0.1-2.6-0.2-4-0.4
	C66.6,88.2,66.6,88.9,66.6,89.9z M108.7,37.9c-0.1,0-0.1,0-0.2-0.1c-0.4,2.1-0.9,4.1-1.4,6.3c0.6,0,1-0.1,1.5-0.1
	C108.7,41.9,108.7,39.9,108.7,37.9z M136.1,101.1c-1.4,1.1-2.6,2-3.8,2.9c0,0.1,0.1,0.2,0.1,0.2c1.2-0.1,2.5-0.3,3.7-0.4
	C136.1,102.9,136.1,102.1,136.1,101.1z M108.8,79.3c-0.4,0.9-2.3,0.6-1.6,2.3c1.4,0,2.7,0,4.2,0C110.4,80.8,109.7,80.1,108.8,79.3z
	 M104.9,71.1c0.1,0,0.2,0,0.4,0c0-0.7,0.1-1.4,0.1-2.3c-2.7,1.4-1.8,4-2.4,5.9c1.2-1.1,0.8-2.8,1.5-4.1
	C104.7,70.8,104.8,70.9,104.9,71.1z M61.1,36.3c0.8,0,1.3,0.1,1.7,0c0.3-0.1,0.8-0.3,0.8-0.6c0.4-1.2,0.7-2.4,1-3.8
	c-0.4,0.4-0.6,0.6-0.7,0.8C63,33.8,62.2,34.9,61.1,36.3z M58.5,82.6c-0.5,0-0.8-0.1-1.1-0.1c-0.6,0-1.2,0-1.7,0
	c-0.6,1.5-0.4,1.7,2.3,2.4C58.1,84.2,58.2,83.5,58.5,82.6z M50,51.9c-0.7-0.5-1.2-1.3-1.6-1.3c-1.4,0.1-2.9,0.4-4.3,0.7
	c-0.1,0-0.1,0.2-0.3,0.5C45.8,51.9,47.7,51.9,50,51.9z M93,87c-0.2,0-0.4,0-0.6,0c-0.1,3.2-0.3,6.4-0.4,9.6c0.2,0,0.4,0,0.5,0
	C92.7,93.4,92.8,90.2,93,87z M17.4,96.4c-0.9,0.8-1.8,1.4-2.8,2.3c1.6,0.2,2.8,0.3,4.2,0.5C18.3,98.2,17.9,97.3,17.4,96.4z M97.9,76
	c2-0.2,2.3-0.6,2.4-3.5C98.8,73.1,97.8,74.1,97.9,76z M40.6,51c0.1,0.1,0.2,0.2,0.3,0.3c0.3-0.3,0.8-0.5,0.9-0.8
	c0.4-1.5,0.7-3.1,1-4.9C40.8,47.2,41.2,49.3,40.6,51z M62.3,41c0.2-1,0.5-1.8,0.7-2.7c-0.1-0.1-0.2-0.1-0.2-0.2
	c-1.2,0.7-2.3,1.3-3.7,2.1C60.2,40.6,61.1,40.8,62.3,41z M45.4,69.4c0,0.1,0,0.1,0,0.2c1.9,0,3.8,0,5.7,0c0.1-0.1,0.1-0.2,0.2-0.3
	c-0.4-0.3-0.9-1-1.3-1C48.4,68.5,46.9,69,45.4,69.4z M57.7,71.1c-0.1-0.1-0.2-0.1-0.2-0.2c-0.9,0.7-1.8,1.4-2.8,2.2
	c0.8,0.6,1.5,1.1,2.2,1.6C57.2,73.5,57.5,72.3,57.7,71.1z M58.4,102.8c0.8,0,1.4,0,2.1,0c0.8,0,1-0.6,0.7-1c-0.3-0.5-0.9-1-1.5-1.3
	c-0.9-0.3-1,0.4-1.1,1.1C58.5,102,58.5,102.3,58.4,102.8z M61.5,71.1c-0.3,1.5-0.7,3-1,4.7c0.8-0.5,1.3-0.8,1.5-1
	c0.2-0.7,0.2-1.2,0.4-1.6C62.5,72.4,62.8,71.5,61.5,71.1z M40.8,48.1c-0.1,0-0.1-0.1-0.2-0.1c-1.1,1.1-2.1,2.3-3.4,3.7
	c1-0.1,1.6-0.1,2.3-0.3c0.2,0,0.6-0.3,0.6-0.5C40.4,49.9,40.6,49,40.8,48.1z M64.6,82.7c-0.2,0-0.3-0.1-0.5-0.1
	c-0.5,1.7-0.5,3.5-0.5,5.4c0.4-0.1,1-0.4,1-0.7C64.6,85.7,64.6,84.2,64.6,82.7z M34.4,78.2c-0.3,1.2-0.5,2.3-0.8,3.5
	c0.7-0.1,1.5,0.4,1.8-0.6C36,79,36,79,34.4,78.2z M93.4,107.5c2.4,0.3,2.6,0.1,2.8-1.9C94.1,105.2,94,105.3,93.4,107.5z M64.3,102.7
	c0-0.7,0-1.4,0-2.1c-0.8,0-1.6,0-2.4,0C61.7,102.2,62.6,102.9,64.3,102.7z M108,48.6c-0.2-0.2-0.3-0.4-0.5-0.5
	c-0.5,0.4-1.2,0.6-1.3,1.1c-0.4,1.2-0.6,2.4-0.9,3.8c1.7-1.7,2.1-2.5,1.8-3.4C107.4,49.2,107.7,48.9,108,48.6z M37.1,104.6
	c0.1-0.8,0.1-1.5,0.2-2.3c-0.8-0.1-1.4-0.2-2.1-0.2c-0.1,0.8-0.3,1.5-0.4,2.3C35.6,104.5,36.2,104.6,37.1,104.6z M59,53.4
	c-1.2,0.7-2.1,1.2-3.1,1.8c0.7,0.7,1.3,1.2,2.1,1.9C58.3,55.9,58.6,54.8,59,53.4z M67.1,64.7c-0.6,0.3-0.8,4.3-0.4,6.8
	C67.4,71.1,67.7,66.5,67.1,64.7z M74.4,80.1c-0.1,0.2-0.3,0.3-0.4,0.5c0.2,0.4,0.3,1,0.6,1.2c1.1,0.6,2.2,0.5,3.3-0.4
	C76.8,80.9,75.6,80.5,74.4,80.1z M101.4,107.6c0.1-0.7,0.2-1.4,0.3-2.1c-2.3-0.2-2.3-0.2-2.4,2c0.3,0,0.6,0,0.9,0
	C100.6,107.6,101,107.6,101.4,107.6z M62,44.1c2.3-0.2,2.3-0.2,2.5-2c-0.6-0.2-1.3-0.3-1.9-0.5c-0.2,0.7-0.4,1.3-0.5,2
	C62,43.7,62,43.8,62,44.1z M52.2,69.5c2.3,0,3-0.6,3-2.4C53.1,67.3,52.8,67.5,52.2,69.5z M34.9,76c1.9-1.4,2.2-1.9,2.2-4.1
	C34.7,72.4,35.6,74.6,34.9,76z M46,79.4c-0.9-0.3-1.9-1.4-2.6-0.2c-0.7,1.2,0.7,1.6,1.4,2.4C45.2,80.8,45.6,80.1,46,79.4z
	 M46.2,79.9c-0.4,0.7-0.6,1.2-0.9,1.7c1.5,0,2.9,0,4.3,0c0-0.1,0-0.2,0.1-0.3C48.5,80.8,47.4,80.3,46.2,79.9z M33.5,101.2
	c0.7-0.3,1.4-0.4,1.5-0.7c0.3-0.9,0.4-1.9,0.6-2.9C33.9,98,33.7,99.3,33.5,101.2z M37.5,104.7c0.8,0,1.6,0,2.3,0c0-0.6,0-1.2,0-1.9
	c-0.7-0.1-1.3-0.2-2.1-0.3C37.7,103.2,37.6,103.9,37.5,104.7z M98.9,105.6c-2.1-0.3-2.2-0.2-2.4,1.9
	C98.6,107.8,98.7,107.7,98.9,105.6z M64.3,100.1c0-0.7,0-1.3,0-1.8c-0.8,0-1.4,0-2.2,0c0,0.6-0.1,1.2-0.1,1.8
	C62.8,100.1,63.5,100.1,64.3,100.1z M56.1,100c2.1,0.4,2.5,0.2,2.6-0.7c0-0.4-0.4-1-0.7-1.1C56.7,97.9,56.4,98.1,56.1,100z
	 M42.3,71.5c-0.1,0-0.2,0-0.3,0c0,2.1,0,4.1,0,6.2c0.1,0,0.2,0,0.3,0C42.3,75.7,42.3,73.6,42.3,71.5z M62.4,95.7
	c-0.1,0.6-0.1,1.2-0.2,1.9c0.8,0,1.4,0,2.1,0c0-0.7,0-1.2,0-1.9C63.7,95.7,63.1,95.7,62.4,95.7z M61.7,97.6c0.1-0.7,0.2-1.2,0.2-1.8
	c-2-0.4-2.3-0.2-2.3,1.8C60.3,97.6,60.9,97.6,61.7,97.6z M120.4,83.2c0.2,0.5,0.3,1.1,0.6,1.2c0.8,0.4,2.6-0.3,3.2-1.2
	C123,83.2,121.9,83.2,120.4,83.2z M35.6,100.8c2.1-0.4,2.3-0.6,2-2.5C35.8,98.1,35.6,98.3,35.6,100.8z M40.5,59
	c0.4-0.9,2-1.4,1.4-2.5c0.2-0.7,0.5-1.2,0.5-1.7c0-0.3-0.3-0.6-0.4-0.9c-0.2,0.3-0.5,0.5-0.6,0.8C41.1,56,40.8,57.5,40.5,59z
	 M104.2,55.8c-0.1,0-0.1-0.1-0.2-0.1c-0.5,0.7-1,1.4-1.5,2.1c-1,1.3-0.9,1.5,0.8,2C103.6,58.4,103.9,57.1,104.2,55.8z M56.6,64.1
	c-0.2,0.7-0.4,1.4-0.5,2.1c1.1-0.5,2.6,0.1,3.2-1.4C58.3,64.5,57.5,64.3,56.6,64.1z M91.6,83.2c-1.6,0-2.7,0-3.9,0
	c0.6,0.9,2.2,1.6,3.1,1.2C91.1,84.3,91.3,83.8,91.6,83.2z M93.1,77.5C92,78.3,91,79,90,79.7c0,0.1,0.1,0.2,0.1,0.3
	c1-0.1,2-0.1,3-0.2C93.1,79,93.1,78.3,93.1,77.5z M104.7,105c0-0.7,0-1.3,0-1.9c-0.7,0-1.4,0-2.1,0c-0.1,0.7-0.2,1.2-0.2,1.9
	C103.2,105,103.9,105,104.7,105z M96.3,80.1c-0.6,0-1.2,0-1.6,0.1c-0.4,0.1-0.7,0.3-1.1,0.5c0.3,0.5,0.3,1.1,1.2,1.2
	C96.1,82,96.2,81.2,96.3,80.1z M56.5,78.9c1.6,0,3,0,4.6,0c-0.9-0.7-1.5-1.2-2.2-1.7C58.2,77.8,57.5,78.3,56.5,78.9z M93.5,83.2
	c0,0.6,0,1.1,0,1.6c1.8,0.3,2.5-0.2,2.2-1.6C95,83.2,94.3,83.2,93.5,83.2z M97.1,103.1c-2.2-0.2-2.3-0.1-2.6,1.8
	C96.7,105.2,96.7,105.2,97.1,103.1z M68.4,24.8c0-1.6,0-3.1,0-4.7c0,0-0.1,0-0.1,0c-0.4,1.5-0.8,3.1-1.3,4.7
	C67.5,24.8,67.9,24.8,68.4,24.8z M98,85.5c-0.1,0.6-0.2,1.2-0.4,1.8c0.7,0.1,1.3,0.2,1.9,0.3c0.1-0.8,0.3-1.4,0.4-2.1
	C99.3,85.5,98.7,85.5,98,85.5z M62,95.2c0.1-0.7,0.2-1.3,0.2-1.9c-1.9-0.3-2-0.2-2,1.9C60.7,95.2,61.3,95.2,62,95.2z M53.5,83.7
	c-0.7,1.9-0.8,7.3,0,7.8C53.5,88.8,53.5,86.3,53.5,83.7z M104.7,100.4c-0.7,0-1.2,0.1-1.8,0.1c-0.1,0.8-0.1,1.4-0.2,2
	c0.7,0,1.3,0,2,0C104.7,101.8,104.7,101.2,104.7,100.4z M69.1,80.5c-0.9,0-1.7,0-2.5,0c0,0.6,0,1.1,0,1.6
	C68.6,82.2,69.1,81.8,69.1,80.5z M102.2,102.5c0.1-0.4,0.1-0.8,0.1-1.1c0-0.3,0.1-0.6,0.1-0.9c-1.8-0.3-1.9-0.2-2.1,2
	C101,102.5,101.6,102.5,102.2,102.5z M64.7,79c0-1.4,0-2.8,0-4.2c-0.1,0-0.1,0-0.2,0c-0.5,1.4-0.9,2.7-1.4,4.2
	C63.7,79,64.1,79,64.7,79z M67.3,60.7c-2.3-0.4-2.5-0.2-2.3,1.4c0.7,0,1.5,0,2.3,0C67.3,61.6,67.3,61.1,67.3,60.7z M88.4,80.8
	c0,0.1,0.1,0.2,0.1,0.3c1.3,0,2.5,0,3.8,0c0.3,0,0.6-0.3,0.8-0.4c-0.3-0.1-0.6-0.4-0.9-0.4c-0.9,0-1.7,0-2.6,0.1
	C89.2,80.4,88.8,80.7,88.4,80.8z M64.3,95.2c0-0.7,0-1.3,0-1.9c-0.6,0-1,0-1.6,0c-0.1,0.7-0.2,1.3-0.3,1.9
	C63.2,95.2,63.7,95.2,64.3,95.2z M33.3,101.8c-0.2,0.9-0.3,1.6-0.5,2.5c0.6,0,1.1,0,1.6,0.1c0.1-0.8,0.3-1.6,0.4-2.3
	C34.2,102,33.8,101.9,33.3,101.8z M97.1,105.1c1-0.2,2.1,0.6,2.4-0.9c0.1-0.6,0.1-1-0.6-1.1C97.3,102.7,97.5,104,97.1,105.1z
	 M53.2,80.5c-1.5,0-2.7,0-3.9,0c0.9,1,2.5,1.5,3.3,1.1C52.8,81.5,52.9,81,53.2,80.5z M104.7,65.9c0.1,0.1,0.2,0.2,0.2,0.3
	c0.3-0.2,0.6-0.3,0.7-0.5c0.6-1.5,0.5-3.6-0.1-4.1C105.3,63,105,64.4,104.7,65.9z M40.5,72.5c0,0-0.1,0-0.1,0
	c-0.3,1.7-0.6,3.5-0.9,5.2c0.1,0.1,0.2,0.2,0.3,0.3c0.2-0.2,0.7-0.5,0.7-0.7C40.6,75.6,40.5,74,40.5,72.5z M39.8,72.3
	c-0.9,1.7-1,3.6-1.2,5.5C39.5,76.1,39.6,74.2,39.8,72.3z M65.5,58.3c-0.1,0.6-0.2,1.2-0.3,1.8c0.8,0,1.4,0,2.1,0c0-0.6,0-1.2,0-1.8
	C66.6,58.3,66.1,58.3,65.5,58.3z M68.3,29.2c-0.1,0-0.1,0-0.2,0c-0.4,1.7-0.8,3.4-1.2,5.1c0.1,0,0.2,0.1,0.3,0.1
	c0.4-0.4,1-0.8,1-1.3C68.4,31.8,68.3,30.5,68.3,29.2z M104.2,66.9c-0.9,0-1.6,0-2.4,0c-0.2,0-0.4,0.4-0.6,0.6
	c0.6,0.2,1.2,0.5,1.8,0.5C103.6,68.1,104.4,68,104.2,66.9z M103.2,88.5c-1.9-0.4-1.9-0.4-2.4,1.5C102.9,90.3,103,90.3,103.2,88.5z
	 M103.4,75.3c-0.1-0.1-0.3-0.1-0.4-0.2c-0.9,1.1-0.8,2.4-1.1,3.9c0.9-0.2,1.6-0.3,2.5-0.5c-1.1-0.3-2.1-0.3-1.2-1.6
	C103.4,76.4,103.4,75.8,103.4,75.3z M40,95.7c-0.5,0-1,0-1.5,0c-0.1,0.6-0.1,1.2-0.2,1.9c0.6,0,1.1,0,1.7,0C40,97,40,96.4,40,95.7z
	 M101.8,83.2c0.7,0.5,1,0.9,1.5,1.1c0.4,0.2,1,0.3,1.3,0.2c0.3-0.2,0.3-0.8,0.5-1.3C103.9,83.2,103,83.2,101.8,83.2z M113.8,66.7
	c0,0.1-0.1,0.1-0.1,0.2c-0.2,0-0.4-0.1-0.6,0c-0.3,0.1-0.7,0.3-1,0.5c0.3,0.2,0.6,0.5,0.9,0.7c0.2,0.1,0.4,0.1,0.6,0.1
	c0.5-0.2,1-0.5,1.5-0.8C114.7,67.1,114.3,66.9,113.8,66.7z M48.1,43.4c-0.6-0.8-1-1.3-1.5-2c-0.6,0.7-1.1,1.3-1.8,2
	C46,43.4,46.9,43.4,48.1,43.4z M104.9,90.6c-1.8-0.3-1.9-0.2-2,1.6c0.6,0,1.3,0,2,0C104.9,91.8,104.9,91.2,104.9,90.6z M82.4,80.4
	c-1.3,0-2.4,0-3.9,0c0.3,0.5,0.5,1,0.8,1.2C80.1,82,81.5,81.5,82.4,80.4z M25.3,102.8c1-0.5,2-1,2.9-1.4c0-0.1,0-0.2-0.1-0.3
	c-1-0.1-2-0.2-3-0.3C25.2,101.5,25.2,102,25.3,102.8z M22.3,100.4c-0.8-0.1-1.4-0.2-2.4-0.3c0.9,1.1,1.5,2,2.4,3.1
	C22.3,102.1,22.3,101.3,22.3,100.4z M70.4,26.8c0,0.1-0.1,0.1-0.1,0.2c0.8,0.4,1.7,0.8,2.5,1.3c0.4-0.7,0.8-1.2,1.1-1.7
	C72.7,26.7,71.6,26.7,70.4,26.8z M99,79.8c0.2,0.6,0.2,1.1,0.5,1.5c0.1,0.2,0.8,0.3,0.9,0.2c0.4-0.5,0.7-1.2,1.2-2
	C100.6,79.6,100,79.7,99,79.8z M101.4,71.1c0.8-0.8,2.1-1,2.1-2.4C101.6,68.5,101.4,68.6,101.4,71.1z M71.9,63
	c-0.2,1.3,0.7,1.2,1.4,1.2c0.7,0,1.7,0.2,1.6-1.2C73.9,63,72.9,63,71.9,63z M100.3,100.5c-1-0.1-2-0.4-2,0.9c0,0.8,0.6,1.1,1.5,1.2
	C100,101.9,100.1,101.3,100.3,100.5z M97.5,85.6c-2.1-0.2-2.2-0.2-2.1,1.5c0.5,0.1,1.1,0.1,1.7,0.2C97.3,86.7,97.4,86.2,97.5,85.6z
	 M38.3,98.2c-0.1,0.7-0.2,1.3-0.2,1.9c2.1-0.4,2.1-0.4,1.9-1.9C39.4,98.2,38.9,98.2,38.3,98.2z M107.1,73.3c0.1,0,0.2,0,0.4,0.1
	c0.7-1.1,0.2-2.4,0.3-3.6c0-0.4-0.1-0.8-0.2-1.2c-0.1,0-0.3,0.1-0.4,0.1C107.1,70.2,107.1,71.8,107.1,73.3z M113.8,111.5
	c0.6-1.4-0.9-1.9-1-2.9C111.7,109.8,112,110.8,113.8,111.5z M61.7,98.3c-0.8,0-1.5,0-2.3,0c0.4,1.4,1,1.9,2.1,1.7
	C61.5,99.4,61.6,98.9,61.7,98.3z M94.2,77.2c0.9,0.7,1.6,1.2,2.4,1.9c0.2-0.9,0.3-1.6,0.5-2.4C96.2,76.9,95.3,77,94.2,77.2z
	 M103.1,99.9c0.6,0,1.1,0,1.7,0c0-0.7,0-1.3,0-1.9c-0.5,0-1,0-1.4,0C103.3,98.7,103.2,99.2,103.1,99.9z M59.4,95.7
	c-0.6,0-1.1-0.1-1.6,0c-0.2,0.1-0.6,0.6-0.5,0.6c0.4,0.5,0.9,1,1.5,1.8C59.1,97.1,59.3,96.4,59.4,95.7z M34.4,82.5
	c-0.2,1.2,0.7,1.2,1.3,1.2c0.7,0,1.6,0.1,1.5-1.2C36.3,82.5,35.4,82.5,34.4,82.5z M98.8,98c-1.6-0.2-1.8-0.1-2.1,1.9
	C98.4,100.1,98.5,100.1,98.8,98z M40.5,82.8c-0.1-0.1-0.1-0.2-0.2-0.3c-0.7,0-1.5,0-2.2,0c-0.2,0-0.3,0.5-0.4,0.7
	c0.7,0.1,1.3,0.4,2,0.4C39.9,83.5,40.2,83,40.5,82.8z M44.7,82.5c-1,0-1.9,0-2.8,0c0,1.3,0.9,1.1,1.6,1.1
	C44.1,83.6,44.9,83.6,44.7,82.5z M62.2,66.7c-0.1-0.1-0.2-0.3-0.3-0.4c-0.9,0.4-1.7,0.7-2.5,1.2c-0.2,0.1-0.3,0.6-0.3,0.9
	c0,0.1,0.5,0.3,0.6,0.3C60.5,68.1,61.3,67.4,62.2,66.7z M136,98.7c-0.6,0.4-1.2,0.7-1.9,1c0.3,0.6,0.6,1.1,0.8,1.5
	C136.3,100.8,136.3,99.9,136,98.7z M63.7,63c-1,0-2,0-2.9,0c-0.1,1.3,0.9,1.1,1.5,1.1C63,64.1,63.9,64.2,63.7,63z M63.5,49.1
	c1.1-1.5,2.1-3,3.2-4.4C65.4,45.9,63.3,46.6,63.5,49.1z M51.5,100.7c-0.1,0-0.2,0-0.2,0c-0.4,1.5-0.8,3-1.2,4.6
	c0.1,0.1,0.2,0.2,0.3,0.3c0.3-0.2,0.7-0.4,0.8-0.7C51.3,103.5,51.4,102.1,51.5,100.7z M103.8,34.3c1.2,0,2.3,0,3.3,0
	c0-0.1,0.1-0.2,0.1-0.3c-0.8-0.4-1.5-0.7-2.3-1.1C104.5,33.3,104.2,33.7,103.8,34.3z M61.7,51.9c-2.1,0.6-2.6,2-2.8,4
	C59.9,54.5,60.7,53.3,61.7,51.9z M46.6,82.2c-0.5,0.3-1,0.5-1.5,0.7c0.5,0.3,0.9,0.7,1.4,0.7c0.5,0,1-0.5,1.5-0.7
	C47.5,82.6,47.1,82.4,46.6,82.2z M98.9,99.8c1.6,0.3,1.7,0.3,1.9-1.8C99.3,97.8,99.3,97.8,98.9,99.8z M23.1,100.6
	c0.1,1,0.1,1.8,0.2,2.7c1.1,0.1,1.3-0.4,1.1-1.2C24.2,101.5,24.7,100.4,23.1,100.6z M32.8,82.1c-0.6,0.3-1,0.5-1.5,0.7
	c0.5,0.3,0.9,0.7,1.4,0.7c0.4,0,0.9-0.4,1.3-0.7C33.7,82.7,33.3,82.4,32.8,82.1z M97.5,97.4c1.8,0.2,1.8,0.1,2.1-1.9
	C97.9,94.9,98.1,96.5,97.5,97.4z M63.9,44.4c-2.2,0.1-2.2,0.1-2.4,1.8C63.2,45.8,63.8,45.3,63.9,44.4z M108.9,33.9
	c0-1.5,0-2.9,0-4.4c-0.4,1.1-0.6,2.2-1,3.3C107.7,33.6,108,33.9,108.9,33.9z M106.1,46.3c-1.5-0.2-1.7,0.1-1.6,2
	C106,48.2,106,48.2,106.1,46.3z M58.5,92.7c1.7,0.2,1.7,0.2,1.9-1.8C59,90.6,59,90.6,58.5,92.7z M107.7,66c0-0.7,0-1.3,0-1.9
	c-1.5-0.2-1.6,0-1.4,1.9C106.7,66,107.2,66,107.7,66z M97.6,74.2c-1.1,0.8-2.1,1.5-3.2,2.3C97.2,76.5,97.3,76.5,97.6,74.2z
	 M113.9,108.7c1.3-0.7,2.5-1.3,3.8-2.1C115.3,106.5,114.1,106.9,113.9,108.7z M65.8,56c-0.1,0.6-0.1,1.2-0.2,1.7c0.6,0,1.1,0,1.6,0
	c0-0.6,0-1.1,0-1.7C66.8,56,66.4,56,65.8,56z M34.5,69.4c0.1,0.1,0.1,0.3,0.2,0.4c0.5-0.2,1.1-0.4,1.3-0.7c0.3-0.8,0.4-1.7,0.6-2.5
	c-0.1-0.1-0.2-0.1-0.3-0.2c-0.1,0.1-0.1,0.3-0.2,0.4C35.6,67.7,35,68.5,34.5,69.4z M101.6,95.5c-1.4-0.2-1.5,0-1.8,1.9
	c0.4,0,0.9,0,1.3,0C101.2,96.8,101.4,96.2,101.6,95.5z M48.3,82.4c-0.1,1.4,0.9,1.2,1.6,1.2c0.7,0,1.2-0.2,0.9-1.2
	C50,82.4,49.2,82.4,48.3,82.4z M57.7,95.1c1.9,0.4,2.2,0.1,2-1.7C59,93.9,57.7,93.8,57.7,95.1z M68.8,63c0.3,1.3,1.1,1.3,2,1
	c0.3-0.1,0.6-0.6,1-1C70.6,63,69.7,63,68.8,63z M102.8,98c-1.5-0.1-1.6,0-1.7,1.9C102.8,100.1,102.8,100,102.8,98z M30.8,102.6
	c-1.9,0-2.1,0.1-2.1,1.5c0.6,0,1.1,0.1,1.7,0.1C30.6,103.6,30.7,103.1,30.8,102.6z M104.8,97.4c0-0.8,0-1.4,0-2
	c-1.3-0.1-1.4,0.2-1.2,2C104,97.4,104.4,97.4,104.8,97.4z M54.1,74.1c0,0-0.1,0-0.1,0c-0.4,1.4-0.7,2.7-1.1,4.2c0.5,0,0.8,0,1.2-0.1
	C54.1,76.8,54.1,75.5,54.1,74.1z M79.8,82.3c-1.3,0.1-2.4,0.2-3.6,0.3C77.6,84.2,77.8,84.2,79.8,82.3z M31.1,104.1
	c1.4,0.3,1.7-0.1,1.5-2C31.2,102.2,31.1,102.3,31.1,104.1z M42.7,86.5c1.2-0.8,2.3-1.4,3.5-2.2C43.7,84,43.6,84.1,42.7,86.5z
	 M93.6,77.5c0,0.9,0,1.5,0,2.3c0.8,0,1.5-0.1,2.6-0.1C95.3,78.8,94.6,78.3,93.6,77.5z M36.7,95.2c1.5,0.2,1.7-0.1,1.4-1.9
	C36.9,93.2,36.9,93.2,36.7,95.2z M100,87.7c1.7,0,1.4-1.4,2-2.1c-0.6,0-1.1,0-1.6,0C100.3,86.3,100.2,86.9,100,87.7z M109.1,66.9
	c0.6,1.1,1.3,1.5,2.3,1.1c0.2-0.1,0.4-0.4,0.4-0.6c0-0.1-0.3-0.4-0.4-0.4C110.6,66.8,109.8,66.9,109.1,66.9z M58.8,39.5
	c0.1,0.1,0.2,0.1,0.2,0.2c0.9-0.5,1.7-1,2.7-1.5c-0.6-0.4-1-0.6-1.4-1C59.8,38,59.3,38.8,58.8,39.5z M101.6,97.4c0.5,0,0.9,0,1.3,0
	c0.1-0.4,0.1-0.7,0.2-1c0-0.3,0.1-0.6,0.1-0.9C102,95.3,102,95.3,101.6,97.4z M118.2,66.9c-0.9,0-1.5,0-2.2,0
	c-0.2,0-0.4,0.2-0.5,0.4c0,0.2,0.1,0.5,0.2,0.6C116.4,68.3,117.6,67.9,118.2,66.9z M50.1,84.3c-1.1,0-2,0-3.1,0
	c0.6,0.7,1,1.2,1.5,1.7C49.1,85.4,49.5,84.9,50.1,84.3z M72.8,78.8c-1.4-0.8-2.8-1.7-4.2-2.5c-0.1,0.1-0.1,0.2-0.2,0.3
	C69.9,77.3,70.8,79.2,72.8,78.8z M98.1,66.9c0.6,1,1.8,1.4,2.4,1c0.2-0.1,0.3-0.4,0.3-0.6c0-0.2-0.3-0.3-0.5-0.4
	C99.7,66.8,99,66.9,98.1,66.9z M73.2,25.7c-1.5,0-2.7,0-4.1,0C69.9,26.5,72.2,26.5,73.2,25.7z M109.8,47.4c1.2-0.3,2.4-0.6,3.5-0.9
	c0-0.1,0-0.1,0-0.2c-1.1,0-2.3,0-3.5,0C109.8,46.6,109.8,46.9,109.8,47.4z M95.5,102.4c0.1,0.1,0.1,0.2,0.2,0.3
	c0.6-0.2,1.3-0.4,1.9-0.5c-0.4-0.5-0.7-1.1-1.2-1.8C95.9,101.3,95.7,101.8,95.5,102.4z M64.5,90.3c0-0.6,0-1.2,0-1.8
	c-0.4,0-0.8,0-1.2,0c0,0.6-0.1,1.2-0.1,1.8C63.6,90.3,64,90.3,64.5,90.3z M126.3,107.6c0.1,0.1,0.1,0.2,0.2,0.2
	c1.2-0.9,2.4-1.8,3.7-2.8C127.9,104.9,127.4,106.7,126.3,107.6z M61.6,88.4c-0.1,0.6-0.2,1.2-0.4,1.9c0.6,0,1,0,1.5-0.1
	c0.1-0.7,0.1-1.3,0.2-1.9C62.3,88.4,62,88.4,61.6,88.4z M63.6,46c-1,0.6-2.6,0.4-2.7,2.3C61.9,47.5,63.2,47.3,63.6,46z M75.3,63
	C75,63.8,75.6,64,76.2,64c0.7,0,1.6,0.1,1.7-1.1C76.9,63,76.1,63,75.3,63z M36.2,79.4c-0.1,0.8-0.3,1.5-0.4,2.3c0.5,0,0.8,0,1.2,0
	C37.3,80.7,37.7,79.8,36.2,79.4z M66.4,35.9c0.1,0.1,0.2,0.2,0.3,0.3c0.5,0,1,0,1.5,0c0-0.7,0-1.3,0-2.3
	C67.4,34.7,66.9,35.3,66.4,35.9z M59.3,90.2c1.6,0.2,1.7,0.1,1.7-1.8C59.4,88.1,59.7,89.4,59.3,90.2z M65.8,29.6
	c0.9-1.1,1.5-1.9,2.2-2.8C66.4,26.7,66.4,26.7,65.8,29.6z M131.6,96.3c-0.7,0.4-1.2,0.7-1.7,1c0.8,1.3,1.5,0.9,2.3,0.2
	C132,97.2,131.8,96.8,131.6,96.3z M58.6,77c-0.5-0.4-1-0.8-1.5-1.2c-0.2,0.9-0.4,1.6-0.6,2.6C57.3,77.9,57.9,77.5,58.6,77z M43,47
	c-0.3,1.3-0.5,2.6-0.8,4C43.2,50.8,43.2,50.8,43,47z M52.5,95.5c0.1,0,0.2,0.1,0.3,0.1c0.2-0.3,0.5-0.6,0.4-0.8
	c-0.1-0.9,0.4-2-0.6-2.7C52.7,93.2,52.6,94.4,52.5,95.5z M64.8,69.2c-1.6-0.5-1.3,0.7-1.5,1.6c0.5,0,1,0,1.5,0
	C64.8,70.2,64.8,69.7,64.8,69.2z M59.3,67.1c1.1-0.6,2.1-1.1,3-1.6C59.8,65.5,59.5,65.7,59.3,67.1z M57.9,63c0.2,0.8,0.9,1.3,1.7,1
	c0.3-0.1,0.6-0.5,0.8-0.8c-0.1-0.1-0.2-0.2-0.2-0.2C59.5,63,58.7,63,57.9,63z M36,97.4c0.1,0.1,0.1,0.2,0.2,0.3c0.5,0,1,0,1.6,0
	c0.1-0.6,0.1-1.2,0.2-1.7c-0.1,0-0.2-0.1-0.2-0.1C37.2,96.3,36.6,96.9,36,97.4z M54.5,65c0.4,0.3,0.7,0.5,1.1,0.8
	c0.7-2,0.7-2-0.2-2.5C55.2,63.9,54.9,64.4,54.5,65z M120.7,85.4c-1.3,0.1-2.6,0.1-4,0.2C117.5,86.6,118.9,86.4,120.7,85.4z
	 M98.6,94.8c1.9,0.4,1.5-1,1.9-1.8C98.9,92.6,99.1,94,98.6,94.8z M104.9,88.4c-1.5-0.4-1.3,0.7-1.5,1.6c0.5,0,1,0,1.5,0
	C104.9,89.5,104.9,89,104.9,88.4z M107.3,77.1c0.6-1,0.4-2.2,0.2-3.3C106.8,74.8,107.1,76,107.3,77.1z M50.7,84.6
	c-0.1,0-0.1-0.1-0.2-0.1c-0.5,0.6-1.1,1.2-1.7,1.9c0.3,0.4,0.6,0.7,1,1.1C50.1,86.4,50.4,85.5,50.7,84.6z M62.6,80.1
	c-0.2,1.7,0.4,2.1,2.3,1.7C64.1,81.2,63.5,80.8,62.6,80.1z M39.4,71.6c-1.7-0.1-1.9,0.2-1.8,2.2C38.2,73,38.7,72.4,39.4,71.6z
	 M107.7,67.3c0-0.1,0-0.2,0-0.3c-1.1,0-2.1,0-3.2,0c0,0.1,0,0.2,0,0.3C105.6,67.3,106.7,67.3,107.7,67.3z M36,78.2
	c0.2-1,0.4-1.8,0.5-2.6c-0.1,0-0.1-0.1-0.2-0.1c-0.5,0.6-1.1,1.2-1.7,1.9C35,77.6,35.4,77.8,36,78.2z M39.9,99.9
	c-0.8,0.5-1.4,0.9-2,1.3c0.6,0.2,1.2,0.4,2,0.7C39.9,101.1,39.9,100.7,39.9,99.9z M100.5,94.8c1.3,0.3,1.5,0.1,1.5-1.8
	C100.5,92.7,101,94.1,100.5,94.8z M108.1,47.7c-0.3-0.6-0.6-1.4-0.8-1.4c-1.1,0.1-0.6,1-0.9,1.8C106.9,47.9,107.3,47.8,108.1,47.7z
	 M40.1,92.7c0-0.7,0-1.3,0-2c-0.4,0.2-1,0.2-1,0.4c-0.2,0.5-0.1,1-0.2,1.6C39.4,92.7,39.7,92.7,40.1,92.7z M101.9,104.9
	c0.1-0.8,0.1-1.3,0.2-1.8c-0.7,0-1.3,0-2.2,0C100.7,103.8,101.2,104.2,101.9,104.9z M38.7,90.8c-1.7,0-1.2,1.1-1.5,1.9
	C39.1,93,38.3,91.6,38.7,90.8z M61,90.8c-0.1,0.5-0.2,1-0.3,1.7c1.8-0.6,1.8-0.6,1.7-1.7C62,90.8,61.6,90.8,61,90.8z M64.2,49
	c1.3-0.6,2.4-1.4,2.2-3.2C65.6,47,64.9,48,64.2,49z M42.3,43.4c1.1-0.1,1.2-1,0.9-3.7C42.8,41.1,42.6,42.2,42.3,43.4z M96.8,80.2
	c-0.1,0.6-0.2,1.1-0.3,1.6c0.8,0,1.4,0,2.2,0c-0.5-0.4-0.7-0.7-1-0.9C97.4,80.6,97.2,80.5,96.8,80.2z M104.4,79
	c-2.8,0.2-2.9,0.3-2.7,1.8C102.6,80.3,103.4,79.7,104.4,79z M114.2,44.9c-1,0-1.7,0-2.6,0C112.3,45.9,113.2,45.9,114.2,44.9z
	 M105.6,75.4c-0.4-0.8-0.6-1.3-0.8-1.8c-0.3,0.5-0.7,1-1.2,1.8C104.4,75.4,104.8,75.4,105.6,75.4z M25.5,103.5
	c1.9,0.8,2.5,0.6,2.7-0.5C27.2,103.1,26.4,103.3,25.5,103.5z M102.2,94.8c1.2,0.2,1.4-0.1,1.2-1.9C102,93,102.5,94.1,102.2,94.8z
	 M101.4,90.5c-1.6-0.1-1.3,1.1-1.8,1.9C101.4,92.7,100.9,91.3,101.4,90.5z M104.1,44.8c0,0.2-0.1,0.3-0.1,0.5
	c0.5,0.1,1.1,0.3,1.6,0.3c0.3,0,0.5-0.3,0.8-0.5c0-0.1-0.1-0.2-0.1-0.3C105.5,44.8,104.8,44.8,104.1,44.8z M59,66.3
	c-0.1-0.1-0.2-0.1-0.2-0.2c-0.6,0.2-1.3,0.3-1.9,0.5c0,0.1,0,0.2-0.1,0.3c0.5,0.2,1,0.6,1.5,0.6C58.5,67.4,58.7,66.7,59,66.3z
	 M102.1,107.5c0.7,0,1.3,0,2.2,0c-0.7-0.6-1.3-1.1-1.9-1.7C102.2,106.5,102.1,107,102.1,107.5z M43.9,81.7c0.1-0.1,0.1-0.2,0.2-0.3
	c-0.5-0.3-0.9-0.7-1.5-0.8c-0.2,0-0.6,0.6-0.9,0.9c0.1,0.1,0.1,0.2,0.2,0.3C42.6,81.7,43.3,81.7,43.9,81.7z M43.9,44.2
	c0,0.1,0,0.2,0,0.3c1,0,2.1,0,3.1,0c0-0.1,0-0.2,0-0.3C46,44.2,44.9,44.2,43.9,44.2z M104.8,92.9c-1.3,0.1-0.7,1.3-1,1.8
	C105,95,105.1,94.9,104.8,92.9z M102.7,105.5c0.7,0.6,1.2,1.1,1.9,1.7c0-0.7,0-1.2,0-1.7C104,105.5,103.5,105.5,102.7,105.5z
	 M37.7,107.3c0-0.4,0-0.7,0-1c-1.6-0.2-1.6-0.2-1.4,1C36.7,107.3,37.2,107.3,37.7,107.3z M93.5,85.5c-0.3,1.3,0.5,1.3,1.3,1.3
	c0.1-0.4,0.2-0.8,0.2-1.3C94.5,85.5,94.1,85.5,93.5,85.5z M67.3,53.9c-1.5-0.2-1.1,0.8-1.2,1.6c0.5,0,0.8,0,1.2,0
	C67.3,54.9,67.3,54.4,67.3,53.9z M108.2,63.5c-0.5-0.7-0.9-1.2-1.2-1.7c-0.1,0.1-0.2,0.1-0.3,0.2c-0.1,0.5-0.2,1-0.3,1.5
	C106.9,63.5,107.3,63.5,108.2,63.5z M33.5,98.8c-0.8,0.7-1.8,0.7-1.6,1.9c0.4,0,0.8,0.1,1.2,0.1C33.2,100.2,33.3,99.6,33.5,98.8z
	 M43.6,107.3c-0.1-0.4-0.2-0.9-0.4-1c-0.3-0.1-0.8-0.1-1.1,0c-0.2,0.1-0.1,0.6-0.2,1C42.4,107.3,42.9,107.3,43.6,107.3z M31.8,107.5
	c0.3-1.1,0.1-1.5-0.7-1.3c-0.3,0.1-0.5,0.4-0.7,0.6C30.8,107.1,31.3,107.3,31.8,107.5z M133,97.3c0.4-0.3,0.7-0.4,1.1-0.7
	c-0.2-0.4-0.4-0.8-0.7-1.2c-0.4,0.2-0.8,0.3-1.1,0.5C132.6,96.5,132.8,96.8,133,97.3z M47.7,107.2c0.5,0,1,0,1.4,0
	c0.1-0.1,0.1-0.2,0.2-0.3c-0.3-0.2-0.6-0.6-0.9-0.7C47.6,106,47.4,106.5,47.7,107.2z M92.6,84.9c0.1-0.1,0.3-0.2,0.4-0.3
	c0-0.5,0-0.9,0-1.4c-0.4,0-0.8,0-1.6,0C91.9,84,92.2,84.5,92.6,84.9z M101.2,92.4c1.7,0,1.2-1.2,1.6-2
	C101.4,90.6,101.7,91.6,101.2,92.4z M40.8,69.2c0.1,0.1,0.2,0.2,0.2,0.3c0.4,0,0.9,0,1.3,0c0.1-0.1,0.2-0.2,0.3-0.3
	c-0.3-0.3-0.6-0.9-0.8-0.8C41.4,68.5,41.1,68.9,40.8,69.2z M29,82.4c0,0.1-0.1,0.3-0.1,0.4c0.5,0.2,0.9,0.4,1.4,0.5
	c0.2,0,0.5-0.3,0.7-0.4c-0.2-0.2-0.4-0.5-0.6-0.5C30,82.3,29.5,82.4,29,82.4z M39.3,80.2c0.1-0.4,0.2-0.8,0.3-1.3
	c-0.5-0.1-1-0.3-1.4-0.4C38,79.6,38,79.6,39.3,80.2z M63.5,25.6c1.9,1,2.6,1,3,0C65.5,25.6,64.6,25.6,63.5,25.6z M57.5,67.9
	c-0.6-0.4-1-0.7-1.5-1.2c-0.2,0.7-0.3,1.2-0.5,1.9C56.2,68.3,56.7,68.1,57.5,67.9z M59.9,69.2c0.5,0.4,0.9,0.6,1.3,1
	c0.2-0.8,0.3-1.4,0.5-2.4C61,68.3,60.5,68.7,59.9,69.2z M65,42.1c-0.1,0.6-0.2,1-0.3,1.6c0.7-0.3,1.3-0.5,1.8-0.7c0-0.1,0-0.2,0-0.4
	C66.1,42.5,65.6,42.3,65,42.1z M42,84.3c0,0.8,0,1.4,0,2.4c0.5-1,0.9-1.6,1.3-2.4C42.7,84.3,42.3,84.3,42,84.3z M55.6,61.5
	c2,0,1.3-1.6,1.7-2.4C56.8,59.8,56.3,60.5,55.6,61.5z M62.7,62.1c-0.7-0.6-1.3-1.1-1.8-1.7C60.5,61.5,61.3,62.2,62.7,62.1z
	 M105.2,77.1c0-0.5,0-0.8,0-1.2c-0.5,0-0.9,0-1.4,0c-0.1,0.4-0.1,0.7-0.2,1.2C104.2,77.1,104.6,77.1,105.2,77.1z M40.3,70.7
	c0-0.2-0.1-0.4-0.1-0.6c-0.7,0.1-1.4,0.2-2.2,0.3c0,0.2,0.1,0.4,0.1,0.7C38.8,70.9,39.5,70.8,40.3,70.7z M106.7,60.8
	c1.3,0.4,1.2-0.3,1.2-0.9c0-0.3-0.2-0.5-0.4-0.7C107.2,59.7,106.9,60.2,106.7,60.8z M53.4,82.9c0-0.2-0.1-0.3-0.1-0.5
	c-0.5,0-1,0-1.5,0c-0.2,0-0.3,0.3-0.5,0.5c0.2,0.1,0.4,0.4,0.5,0.4C52.3,83.2,52.9,83,53.4,82.9z M45.5,70.3c1,1,1.7,1,2.4,0
	C47.1,70.3,46.4,70.3,45.5,70.3z M41.1,67.6c0.2,0.2,0.4,0.3,0.5,0.5c0.3-0.3,0.6-0.5,0.8-0.8c0.1-0.1-0.3-0.5-0.5-0.7
	C41.7,66.9,41.4,67.2,41.1,67.6z M64.7,72.9c0-0.6,0-1,0-1.4c-0.5,0-1,0-1.9,0C63.6,72,64.1,72.4,64.7,72.9z M55.3,94.7
	c-0.4-0.5-0.8-1-1.3-1.6c0,0.9,0,1.4,0,2C54.4,95,54.7,94.9,55.3,94.7z M105.3,71.8c-0.1-0.1-0.3-0.2-0.4-0.3
	c-0.2,0.5-0.4,1-0.7,1.6C105.7,73.2,105.2,72.3,105.3,71.8z M64.8,73.5c-0.7-0.6-1.2-0.9-1.8-1.4c-0.1,0.5-0.2,0.9-0.3,1.4
	C63.4,73.5,63.9,73.5,64.8,73.5z M22.3,104.9c-0.1,0.1-0.3,0.2-0.4,0.3c0.2,0.5-0.1,1.5,1.4,1.2C22.9,105.9,22.6,105.4,22.3,104.9z
	 M71.9,37c-0.1,0.1-0.1,0.2-0.2,0.3c0.3,0.2,0.6,0.4,0.9,0.4c0.5,0,0.9-0.2,1.4-0.3c0-0.1-0.1-0.3-0.1-0.4C73.3,37,72.6,37,71.9,37z
	 M67.3,63.4c0-0.1,0-0.2,0-0.3c-1,0-2,0-3.1,0c0,0.1,0,0.2,0,0.3C65.2,63.4,66.2,63.4,67.3,63.4z M37.5,81.6c0.7,0,1.3,0,2.1,0
	c-0.7-0.5-1.2-0.8-1.9-1.3C37.7,80.9,37.6,81.2,37.5,81.6z M64.4,91.3c-0.7,0.4-1.2,0.7-1.7,1.1c0.1,0.1,0.1,0.2,0.2,0.3
	c0.5,0,1,0,1.5,0C64.4,92.3,64.4,91.9,64.4,91.3z M63.5,37c0,0.2-0.1,0.3-0.1,0.5c0.5,0.1,1,0.3,1.5,0.3c0.3,0,0.5-0.3,0.8-0.5
	c0-0.1-0.1-0.2-0.1-0.3C64.9,37,64.2,37,63.5,37z M115.5,112.2c0.4-1.5,0.4-1.5-1.2-1.5C114.7,111.3,115,111.6,115.5,112.2z
	 M24,104.9c-0.1,0.1-0.3,0.2-0.4,0.4c0.3,0.5,0,1.4,1.5,1.1C24.6,105.8,24.3,105.4,24,104.9z M25.7,104.9c-0.1,0.1-0.3,0.2-0.4,0.4
	c0.3,0.4,0,1.4,1.5,1.1C26.3,105.8,26,105.4,25.7,104.9z M31,101.9c-1.7-0.7-1.7-0.7-1.9,0.5C29.7,102.2,30.3,102,31,101.9z M69,37
	c1.7,1,2,1,2.4,0C70.7,37,70,37,69,37z"/>
</svg>
