<?xml version="1.0" encoding="utf-8"?>
<!-- Generator: Adobe Illustrator 22.0.1, SVG Export Plug-In . SVG Version: 6.00 Build 0)  -->
<svg version="1.1" id="Layer_1" xmlns="http://www.w3.org/2000/svg" xmlns:xlink="http://www.w3.org/1999/xlink" x="0px" y="0px"
	 viewBox="0 0 365.4 402.7" style="enable-background:new 0 0 365.4 402.7;" xml:space="preserve">
<style type="text/css">
	.st0{display:none;}
	.st1{fill:none;stroke:#000000;}
</style>
<rect x="-60" y="-64.4" class="st0" width="546.7" height="590"/>
<g>
	<path d="M247.4,26.9l-59.3,161.8L128.8,26.9L247.4,26.9 M249.6,25.4H126.7l61.4,167.7L249.6,25.4L249.6,25.4z"/>
</g>
<g>
	<path d="M169.8,26.9H205l-17.6,48.4L169.8,26.9 M167.7,25.4l19.7,54.3l19.8-54.3H167.7L167.7,25.4z"/>
</g>
<g>
	<path d="M205,26.9l-59.3,161.8L86.4,26.9L205,26.9 M207.2,25.4H84.3l61.4,167.7L207.2,25.4L207.2,25.4z"/>
</g>
<g>
	<path d="M187.4,29.7l8.3,22.6l-49.9,136.4l-8.3-22.6L187.4,29.7 M187.4,25.4l-51.5,140.7l9.9,27l51.4-140.7L187.4,25.4L187.4,25.4z
		"/>
</g>
<g>
	<path d="M187.4,29.7l49.9,136.4l-8.3,22.6L179.1,52.4L187.4,29.7 M187.4,25.4l-9.9,27L229,193.1l9.9-27L187.4,25.4L187.4,25.4z"/>
</g>
<g>
	<path d="M288.3,26.9L229,188.7L169.7,26.9L288.3,26.9 M290.5,25.4H167.7l61.4,167.7L290.5,25.4L290.5,25.4z"/>
</g>
<g>
	<path d="M188.1,197.2L126.8,25.6l61.1,159.3l61.5-159.3L188.1,197.2z M187.2,35.3l29.5,71.6l-29.5-86.6l-29.1,86.6L187.2,35.3z"/>
</g>
<g>
	<path d="M40.6,367.8c-1,4.2-3.3,7-7.9,7c-5,0-8.6-3.7-8.6-11.5c0-7.3,3.2-11.5,8.6-11.5c4.2,0,6.6,2.4,7.6,6.5L38,359
		c-0.8-3.2-2.2-5.1-5.6-5.1c-3.2,0-5.8,3-5.8,9.4c0,6.5,2.5,9.4,6.3,9.4c3.4,0,4.8-2.6,5.5-5.3L40.6,367.8z"/>
	<path d="M45.2,374.5v-22.4h2.5v20.3h10.6v2.1H45.2z"/>
	<path d="M75.8,352.1v2.1H64.9v7.5h7.8v2.1h-7.8v8.6h11.6v2.1h-14v-22.4L75.8,352.1L75.8,352.1z"/>
	<path d="M98.2,374.5V354h-0.1l-6.3,20.5h-1.9L83.6,354h-0.1v20.5h-2.2v-22.4h3.8l5.7,18.1h0.1l5.6-18.1h3.9v22.4H98.2z"/>
	<path d="M117.7,357.8c-0.6-2.2-2.3-3.9-5.2-3.9c-2.6,0-4.2,1.2-4.2,3.5c-0.1,4.9,12.6,3.7,12.6,10.9c0,3.3-1.8,6.6-7.5,6.6
		c-4.9,0-6.8-3.2-8-5.8l2.3-0.8c0.9,2.4,2.6,4.5,5.9,4.5s4.9-1.7,4.9-4c0-5.7-12.6-4-12.6-11.1c0-3.2,2.7-5.8,6.7-5.8
		c3.5,0,6.2,1.8,7.4,5.5L117.7,357.8z"/>
	<path d="M133.1,351.8c5.5,0,8.7,4,8.7,11.5s-3.3,11.5-8.7,11.5c-5.5,0-8.7-4-8.7-11.5C124.3,355.8,127.6,351.8,133.1,351.8z
		 M133.1,372.7c3.9,0,6.3-3,6.3-9.4s-2.3-9.4-6.3-9.4c-3.9,0-6.3,3-6.3,9.4S129.1,372.7,133.1,372.7z"/>
	<path d="M146.8,374.5v-22.4h3.6l9.8,17.2h0.1v-17.2h2.2v22.4h-2l-11.3-20h-0.1v20H146.8z"/>
	<path d="M181.1,352.1v15.8c0,2.6,1.9,4.8,5.4,4.8s5.4-2.2,5.4-4.8v-15.8h2.5v15.6c0,4.5-3.2,7.1-7.8,7.1c-4.6,0-7.8-2.6-7.8-7.1
		v-15.6H181.1z"/>
	<path d="M201,374.5v-22.4h3.6l9.7,17.3h0.1v-17.2h2.2v22.4h-2l-11.3-20h-0.1v20L201,374.5L201,374.5z"/>
	<path d="M226.4,352.1v22.4h-2.5v-22.4H226.4z"/>
	<path d="M230.9,352.1h2.5l5.5,18.4h0.1l5.5-18.4h2.5l-6.9,22.4h-2.3L230.9,352.1z"/>
	<path d="M264.4,352.1v2.1h-10.9v7.5h7.8v2.1h-7.8v8.6h11.6v2.1h-14v-22.4L264.4,352.1L264.4,352.1z"/>
	<path d="M269.6,374.5v-22.4h7.2c4.8,0,7.5,2.2,7.5,5.9c0,3.2-1.8,5-4.5,5.8l4.7,10.7h-2.7l-4.5-10.2h-5.2v10.2H269.6z M272.1,362.2
		h4.5c3.4,0,5.2-1.3,5.2-4.1c0-3-2-3.9-5.2-3.9h-4.5V362.2z"/>
	<path d="M301.1,357.8c-0.6-2.2-2.3-3.9-5.2-3.9c-2.6,0-4.2,1.2-4.2,3.5c-0.1,4.9,12.6,3.7,12.6,10.9c0,3.3-1.8,6.6-7.5,6.6
		c-4.9,0-6.8-3.2-8-5.8l2.3-0.8c0.9,2.4,2.6,4.5,5.9,4.5s4.9-1.7,4.9-4c0-5.7-12.6-4-12.6-11.1c0-3.2,2.7-5.8,6.7-5.8
		c3.5,0,6.2,1.8,7.4,5.5L301.1,357.8z"/>
	<path d="M312.5,352.1v22.4H310v-22.4H312.5z"/>
	<path d="M326.3,354.2v20.3h-2.5v-20.3h-6.7v-2.1H333v2.1H326.3z"/>
	<path d="M341.1,365.1l-6.9-13h2.7l5.4,10.3l5.4-10.3h2.7l-6.9,13v9.4H341L341.1,365.1L341.1,365.1z"/>
</g>
<line class="st1" x1="48.8" y1="336.9" x2="326.4" y2="336.9"/>
<g>
	<path d="M56.2,278.8v-39h7.5v39H56.2z"/>
	<path d="M71.2,278.8v-39h8.2l10.4,23.1h0.1v-23.1h6.8v39h-7.1l-11.4-25.2h-0.1v25.2H71.2z"/>
	<path d="M104.2,278.8v-39h8.2l10.4,23.1h0.1v-23.1h6.8v39h-7.1l-11.4-25.2h-0.1v25.2H104.2z"/>
	<path d="M136.1,252.4c0-9.6,5.1-13.1,12.3-13.1c7.2,0,12.3,3.5,12.3,13.1v13.9c0,9.6-5.1,13.1-12.3,13.1c-7.2,0-12.3-3.5-12.3-13.1
		V252.4z M143.5,267.3c0,4.3,1.9,5.5,4.9,5.5s4.9-1.2,4.9-5.5v-15.9c0-4.3-1.9-5.5-4.9-5.5s-4.9,1.2-4.9,5.5V267.3z"/>
	<path d="M164.2,239.8h7.3l6.9,27.9h0.1l6.8-27.9h7.3l-9.9,39h-8.5L164.2,239.8z"/>
	<path d="M192.1,278.8l9.7-39h9.6l9.4,39h-7.1l-1.9-8.2h-10.3l-2.1,8.2H192.1z M202.8,264h7.4l-3.6-15.8h-0.1L202.8,264z"/>
	<path d="M244.4,239.8v6.6h-8.7v32.4h-7.4v-32.4h-8.7v-6.6H244.4z"/>
	<path d="M249.3,278.8v-39h7.5v39H249.3z"/>
	<path d="M263.2,252.4c0-9.6,5.1-13.1,12.3-13.1c7.2,0,12.3,3.5,12.3,13.1v13.9c0,9.6-5.1,13.1-12.3,13.1c-7.2,0-12.3-3.5-12.3-13.1
		V252.4z M270.6,267.3c0,4.3,1.9,5.5,4.9,5.5s4.9-1.2,4.9-5.5v-15.9c0-4.3-1.9-5.5-4.9-5.5s-4.9,1.2-4.9,5.5V267.3z"/>
	<path d="M294.3,278.8v-39h8.2l10.4,23.1h0.1v-23.1h6.8v39h-7.1l-11.4-25.2h-0.1v25.2H294.3z"/>
	<path d="M111.1,311.3c0,4.3,1.9,5.5,4.9,5.5s4.9-1.2,4.9-5.5v-2.6h7.5v1.6c0,9.6-5.1,13.1-12.3,13.1s-12.3-3.5-12.3-13.1v-13.9
		c0-9.6,5.1-13.1,12.3-13.1s12.2,3.4,12.2,13.1v0.1h-7.5v-1.1c0-4.3-1.9-5.5-4.9-5.5s-4.9,1.2-4.9,5.5L111.1,311.3L111.1,311.3z"/>
	<path d="M134.3,322.8v-39h20.4v6.6h-13v9h9.9v6.6h-9.9v10.3h13.6v6.6h-21V322.8z"/>
	<path d="M161.7,322.8v-39h8.2l10.4,23.1h0.1v-23.1h6.8v39h-7.1l-11.4-25.2h-0.1v25.2H161.7z"/>
	<path d="M216.9,283.8v6.6h-8.7v32.4h-7.5v-32.4H192v-6.6H216.9z"/>
	<path d="M221.3,322.8v-39h20.4v6.6h-13v9h9.9v6.6h-9.9v10.3h13.5v6.6h-20.9V322.8z"/>
	<path d="M265.8,322.8l-6.5-15.9h-3.6v15.9h-7.4v-39h10.8c9,0,13.2,4.3,13.2,11.7c0,4.9-1.7,8.4-5.9,9.9l7.3,17.4H265.8z
		 M255.7,300.8h3.8c3.3,0,5.3-1.6,5.3-5.4s-2-5.4-5.3-5.4h-3.8V300.8z"/>
</g>
<g>
	<path d="M84,211.8h2l3.5,15h0.1l3.6-15H95l3.7,15h0.1l3.4-15h2l-4.4,18.8H98l-3.8-15.2h-0.1l-3.6,15.2h-1.8L84,211.8z"/>
	<path d="M109.8,230.6l5.8-18.8h3.1l5.8,18.8h-2.2l-1.8-5.9h-6.7l-1.8,5.9H109.8z M114.3,223h5.7l-2.7-9.7H117L114.3,223z"/>
	<path d="M136.2,213.6v17h-2.1v-17h-5.6v-1.8h13.3v1.8H136.2z"/>
	<path d="M155.8,213.6v17h-2.1v-17h-5.6v-1.8h13.3v1.8H155.8z"/>
	<path d="M194.1,211.8v1.8h-9v6.3h6.7v1.8h-6.7v8.9H183v-18.8L194.1,211.8L194.1,211.8z"/>
	<path d="M198.7,230.6l5.8-18.8h3.1l5.8,18.8h-2.2l-1.8-5.9h-6.7l-1.8,5.9H198.7z M203.2,223h5.7l-2.7-9.7h-0.3L203.2,223z"/>
	<path d="M236.1,230.6v-17.2H236l-5.3,17.2h-1.6l-5.3-17.2h-0.1v17.2h-1.9v-18.8h3.2l4.8,15.2h0.1l4.7-15.2h3.3v18.8H236.1z"/>
	<path d="M251.4,211.8v18.8h-2.1v-18.8H251.4z"/>
	<path d="M262.7,230.6v-18.8h2.1v17h8.9v1.8H262.7z"/>
	<path d="M283.3,222.7l-5.8-10.9h2.3l4.5,8.6l4.5-8.6h2.3l-5.8,10.9v7.9h-2V222.7z"/>
</g>
</svg>
