<svg id="Layer_1" data-name="Layer 1" xmlns="http://www.w3.org/2000/svg" viewBox="0 0 160 160"><defs><style>.cls-1{fill:#f78d36;}.cls-2{isolation:isolate;}.cls-3{fill:#ffe381;}</style></defs><title>appbut</title><g id="Splash_Page" data-name="Splash Page"><circle class="cls-1" cx="80" cy="80" r="80"/><g class="cls-2"><path class="cls-3" d="M35.7,91.83H30.49L41.18,63.39h6.37L57.71,91.83H52.44L50,84.92H38.27ZM45,70.59l-.7-2.41-.7,2.45-3.7,9.83h8.55Z" transform="translate(-2.5 -1.9)"/><path class="cls-3" d="M71.85,92c-3.16,0-5.8-.82-7.1-2.77v8.86H60V72h4.61l.14,3c.91-2,3.72-3.42,7.14-3.42,5.59,0,9.18,3.42,9.18,10C81.07,88.38,77.55,92,71.85,92Zm-1.41-16c-4.08,0-5.83,2.38-5.83,6,0,3.93,1.93,6,5.83,6,4.26,0,5.84-2.41,5.84-6S74.77,75.92,70.44,75.92Z" transform="translate(-2.5 -1.9)"/><path class="cls-3" d="M96.19,92c-3.17,0-5.81-.82-7.11-2.77v8.86H84.33V72h4.61l.14,3c.92-2,3.73-3.42,7.14-3.42,5.59,0,9.18,3.42,9.18,10C105.4,88.38,101.88,92,96.19,92Zm-1.41-16c-4.08,0-5.84,2.38-5.84,6,0,3.93,1.94,6,5.84,6,4.26,0,5.84-2.41,5.84-6S99.11,75.92,94.78,75.92Z" transform="translate(-2.5 -1.9)"/><path class="cls-3" d="M108.81,91.83c-.1-.07-.14-.32-.14-1.47v-25c0-1,0-1.84-.07-2.16h4.71a9.09,9.09,0,0,1,.14,1.83V90a6.14,6.14,0,0,0,.11,1.83Z" transform="translate(-2.5 -1.9)"/><path class="cls-3" d="M126.85,98.06h-5l2.71-6.19L115.88,72H121s6.12,14.69,6.15,14.87c0-.18,6.12-14.87,6.12-14.87h4.89Z" transform="translate(-2.5 -1.9)"/></g></g></svg>