<?xml version="1.0" encoding="utf-8"?>
<!-- Generator: Adobe Illustrator 22.0.1, SVG Export Plug-In . SVG Version: 6.00 Build 0)  -->
<svg version="1.1" id="Layer_1" xmlns="http://www.w3.org/2000/svg" xmlns:xlink="http://www.w3.org/1999/xlink" x="0px" y="0px"
	 viewBox="0 0 165 165" style="enable-background:new 0 0 165 165;" xml:space="preserve">
<style type="text/css">
	.st0{fill:#F78D36;}
	.st1{enable-background:new    ;}
	.st2{fill:#FFE381;}
</style>
<title>applybutton</title>
<g id="Splash_Page">
	<circle class="st0" cx="82.5" cy="81.9" r="80"/>
	<g class="st1">
		<path class="st2" d="M35.7,91.8h-5.2l10.7-28.4h6.4l10.2,28.4h-5.3L50,84.9H38.3L35.7,91.8z M45,70.6l-0.7-2.4l-0.7,2.4l-3.7,9.8
			h8.5L45,70.6z"/>
		<path class="st2" d="M71.9,92c-3.2,0-5.8-0.8-7.1-2.8v8.9H60V72h4.6l0.1,3c0.9-2,3.7-3.4,7.1-3.4c5.6,0,9.2,3.4,9.2,10
			C81.1,88.4,77.5,92,71.9,92z M70.4,75.9c-4.1,0-5.8,2.4-5.8,6c0,3.9,1.9,6,5.8,6c4.3,0,5.8-2.4,5.8-6
			C76.3,78.3,74.8,75.9,70.4,75.9z"/>
		<path class="st2" d="M96.2,92c-3.2,0-5.8-0.8-7.1-2.8v8.9h-4.7V72h4.6l0.1,3c0.9-2,3.7-3.4,7.1-3.4c5.6,0,9.2,3.4,9.2,10
			C105.4,88.4,101.9,92,96.2,92z M94.8,75.9c-4.1,0-5.8,2.4-5.8,6c0,3.9,1.9,6,5.8,6c4.3,0,5.8-2.4,5.8-6
			C100.6,78.3,99.1,75.9,94.8,75.9z"/>
		<path class="st2" d="M108.8,91.8c-0.1-0.1-0.1-0.3-0.1-1.5c0-2.7,0-21.4,0-25c0-1,0-1.8-0.1-2.2h4.7c0.1,0.3,0.1,0.9,0.1,1.8
			c0,3.1,0,20.3,0,25c0,1,0,1.7,0.1,1.8H108.8z"/>
		<path class="st2" d="M126.9,98.1h-5l2.7-6.2L115.9,72h5.1c0,0,6.1,14.7,6.2,14.9c0-0.2,6.1-14.9,6.1-14.9h4.9L126.9,98.1z"/>
	</g>
	<g class="st1">
	</g>
</g>
</svg>
