<svg id="Layer_1" data-name="Layer 1" xmlns="http://www.w3.org/2000/svg" xmlns:xlink="http://www.w3.org/1999/xlink" viewBox="0 0 216.6 216.6"><defs><style>.cls-1,.cls-4{fill:#2e3192;}.cls-2{fill:url(#linear-gradient);}.cls-10,.cls-3{fill:#50c6df;}.cls-4,.cls-8,.cls-9{stroke-miterlimit:10;}.cls-4{stroke-width:0.6px;stroke:url(#linear-gradient-2);}.cls-10,.cls-5,.cls-6,.cls-7,.cls-8,.cls-9{isolation:isolate;}.cls-5,.cls-7{font-size:22.45px;fill:#ffe381;}.cls-5{font-family:TitlingGothicFBNormal-Standard, TitlingGothicFB Normal;}.cls-7{font-family:Arial-BoldMT, Arial;font-weight:700;}.cls-8,.cls-9{fill:none;stroke:#50c6df;stroke-linecap:round;stroke-width:11.4px;}.cls-8{opacity:0.5;}.cls-9{opacity:0.75;}.cls-10{opacity:0.25;}</style><linearGradient id="linear-gradient" x1="33.49" y1="6833.26" x2="278.65" y2="6833.26" gradientTransform="translate(-23.1 -5670.87) scale(0.85)" gradientUnits="userSpaceOnUse"><stop offset="0" stop-color="#50c6df"/><stop offset="0.01" stop-color="#50c4de"/><stop offset="0.25" stop-color="#4490c3"/><stop offset="0.48" stop-color="#3a67ae"/><stop offset="0.69" stop-color="#34499f"/><stop offset="0.87" stop-color="#2f3795"/><stop offset="1" stop-color="#2e3192"/></linearGradient><linearGradient id="linear-gradient-2" x1="79.28" y1="6910" x2="232.75" y2="6756.52" gradientTransform="translate(-23.75 -5675.37) scale(0.85)" xlink:href="#linear-gradient"/></defs><title>button-02</title><g id="Partners"><circle class="cls-1" cx="108.3" cy="108.3" r="108.3"/><path class="cls-2" d="M212.75,112.8A103.75,103.75,0,1,1,109,9.1a103.66,103.66,0,0,1,103.8,103.7m-5.4,0A98.4,98.4,0,1,0,109,211.2h0a98.46,98.46,0,0,0,98.4-98.4" transform="translate(-0.65 -4.5)"/><path class="cls-3" d="M212.75,112.8a103.82,103.82,0,1,1-7.9-39.7,103.75,103.75,0,0,1,7.9,39.7,104.05,104.05,0,1,0-8.1,39.7A100.69,100.69,0,0,0,212.75,112.8Z" transform="translate(-0.65 -4.5)"/><path class="cls-3" d="M207.35,112.8a98,98,0,1,0-7.5,37.6,98.09,98.09,0,0,0,7.5-37.6,98.5,98.5,0,1,1-7.5-37.7A98.37,98.37,0,0,1,207.35,112.8Z" transform="translate(-0.65 -4.5)"/><circle class="cls-4" cx="108.3" cy="108.3" r="91.6"/><text class="cls-5" transform="translate(56.66 89.98)">Become</text><text class="cls-5" transform="translate(99.85 116.93)">a</text><text class="cls-6" x="-0.65" y="-4.5"></text><text class="cls-6" x="-0.65" y="-4.5"></text><text class="cls-6" x="-0.65" y="-4.5"></text><text class="cls-7" transform="translate(70.35 143.87)">Partner</text><path class="cls-8" d="M103,25.5q-3.75.3-7.5.9" transform="translate(-0.65 -4.5)"/><path class="cls-9" d="M183.75,157.1a86.77,86.77,0,0,0-68.4-131.7" transform="translate(-0.65 -4.5)"/><circle class="cls-10" cx="82.3" cy="26.5" r="4.8"/></g></svg>