<?xml version="1.0" encoding="utf-8"?>
<!-- Generator: Adobe Illustrator 22.0.1, SVG Export Plug-In . SVG Version: 6.00 Build 0)  -->
<svg version="1.1" id="Layer_1" xmlns="http://www.w3.org/2000/svg" xmlns:xlink="http://www.w3.org/1999/xlink" x="0px" y="0px"
	 viewBox="0 0 619.9 282.1" style="enable-background:new 0 0 619.9 282.1;" xml:space="preserve">
<style type="text/css">
	.st0{fill:#50C6DF;}
	.st1{fill:none;stroke:#2E3192;stroke-width:12.96;stroke-linecap:round;stroke-miterlimit:10;}
	.st2{fill:#FEF8C0;}
	.st3{font-family:'TitlingGothicFBNormal-Standard';}
	.st4{font-size:68.5558px;}
	.st5{fill:#F78D36;}
	.st6{font-family:'TitlingGothicFBNormal-Light';}
	.st7{font-size:18.2816px;}
	.st8{font-size:24.3754px;}
</style>
<title>header</title>
<g id="Splash_Page">
	<circle class="st0" cx="480.3" cy="139.7" r="140.1"/>
	<path class="st1" d="M431.3,254.8c62.4,28,135.6,0,163.6-62.4c14.9-33.3,14.4-71.6-1.5-104.5"/>
	<text transform="matrix(1 0 0 1 -0.8215 164.6115)" class="st2 st3 st4">CUhackit 2020</text>
	<text transform="matrix(1 0 0 1 197.9564 233.4382)" class="st5 st6 st7">J</text>
	<text transform="matrix(1 0 0 1 206.9364 233.4382)" class="st5 st6 st7">anua</text>
	<text transform="matrix(1 0 0 1 251.616 233.4382)" class="st5 st6 st7">r</text>
	<text transform="matrix(1 0 0 1 260.1644 233.4382)" class="st5 st6 st7">y 25</text>
	<text transform="matrix(1 0 0 1 299.2923 233.4382)" class="st5 st6 st7">-</text>
	<text transform="matrix(1 0 0 1 307.3665 233.4382)" class="st5 st6 st7">26</text>
	<text transform="matrix(1 0 0 1 78.0682 208.1403)" class="st5 st3 st8">Clemson Uni</text>
	<text transform="matrix(1 0 0 1 240.4271 208.1403)" class="st5 st3 st8">v</text>
	<text transform="matrix(1 0 0 1 255.7127 208.1403)" class="st5 st3 st8">e</text>
	<text transform="matrix(1 0 0 1 271.6072 208.1403)" class="st5 st3 st8">r</text>
	<text transform="matrix(1 0 0 1 283.262 208.1403)" class="st5 st3 st8">si</text>
	<text transform="matrix(1 0 0 1 305.0984 208.1403)" class="st5 st3 st8">t</text>
	<text transform="matrix(1 0 0 1 314.95 208.1403)" class="st5 st3 st8">y</text>
</g>
</svg>
