<svg id="Layer_1" data-name="Layer 1" xmlns="http://www.w3.org/2000/svg" viewBox="0 0 116 116"><defs><style>.cls-1{fill:#ffe381;}.cls-2{isolation:isolate;}.cls-3{fill:#f78d36;}</style></defs><title>mentorbutton</title><g id="Splash_Page" data-name="Splash Page"><circle class="cls-1" cx="58" cy="58" r="58"/><g class="cls-2"><path class="cls-3" d="M36.94,64.92V53.7l-4,11.22H30L26.08,53.7V64.92h-2.7V49.12h4L31.48,61.2,35.8,49.12h3.85v15.8Z" transform="translate(-1.1 -0.8)"/><path class="cls-3" d="M51.92,64.08a6.92,6.92,0,0,1-4,1c-2.22,0-4.06-.66-5.1-2.22a5.93,5.93,0,0,1-1-3.52,5.5,5.5,0,0,1,1-3.44,5.91,5.91,0,0,1,5-2.26,5.71,5.71,0,0,1,4.94,2.18,7,7,0,0,1,1,4.52H44.48A2.46,2.46,0,0,0,45.24,62a3.78,3.78,0,0,0,2.68.92,4.67,4.67,0,0,0,2.28-.52,1.66,1.66,0,0,0,.9-1h2.64A4.36,4.36,0,0,1,51.92,64.08Zm-1.4-7.3a3.65,3.65,0,0,0-2.62-.92,3.88,3.88,0,0,0-2.66.88,2.47,2.47,0,0,0-.8,1.62h6.7A2.15,2.15,0,0,0,50.52,56.78Z" transform="translate(-1.1 -0.8)"/><path class="cls-3" d="M63.68,64.92c-.14,0-.14-.3-.14-6.48,0-1.58-.72-2.28-2.44-2.28-1.5,0-2.9.76-2.9,2.34v6.42H55.5v-11h2.62v1.66c.62-1.34,2.3-1.9,4-1.9,2.86,0,4.14,1.48,4.14,4.2,0,6.88.1,7,.06,7Z" transform="translate(-1.1 -0.8)"/><path class="cls-3" d="M72,56.28v5c0,1.16.48,1.46,1.62,1.46a8.53,8.53,0,0,0,1.48-.12v2.2a11,11,0,0,1-2.5.22c-1.78,0-3.32-.7-3.32-3v-5.8H67.46V53.92H69.2c.08-.22.1-2.36.1-2.36l2.62,0v2.38h3.24v2.36Z" transform="translate(-1.1 -0.8)"/><path class="cls-3" d="M87.06,63.38a6.19,6.19,0,0,1-4.72,1.72,6.33,6.33,0,0,1-4.76-1.68,6.37,6.37,0,0,1,0-8,6.2,6.2,0,0,1,4.74-1.74,6.18,6.18,0,0,1,4.7,1.66,5.64,5.64,0,0,1,1.42,4.06A5.52,5.52,0,0,1,87.06,63.38ZM85.14,57a3.61,3.61,0,0,0-2.78-1,3.41,3.41,0,0,0-2.78,1.12,3.35,3.35,0,0,0-.72,2.24,3.49,3.49,0,0,0,.68,2.32,3.42,3.42,0,0,0,2.84,1.08,3.37,3.37,0,0,0,2.74-1.08,3.5,3.5,0,0,0,.74-2.32A3.41,3.41,0,0,0,85.14,57Z" transform="translate(-1.1 -0.8)"/><path class="cls-3" d="M98.78,56.58a7.65,7.65,0,0,0-2.54-.34,3,3,0,0,0-3.14,3.18v5.5H90.38v-11H93V55.8c.3-1.2,2-2.14,3.72-2.14a7.72,7.72,0,0,1,2,.22Z" transform="translate(-1.1 -0.8)"/></g></g></svg>