<?xml version="1.0" encoding="utf-8"?>
<!-- Generator: Adobe Illustrator 22.0.1, SVG Export Plug-In . SVG Version: 6.00 Build 0)  -->
<svg version="1.1" id="Layer_1" xmlns="http://www.w3.org/2000/svg" xmlns:xlink="http://www.w3.org/1999/xlink" x="0px" y="0px"
	 viewBox="0 0 118 118" style="enable-background:new 0 0 118 118;" xml:space="preserve">
<style type="text/css">
	.st0{fill:#FFE381;}
	.st1{enable-background:new    ;}
	.st2{fill:#F78D36;}
</style>
<title>mentorbutton</title>
<g id="Splash_Page">
	<circle class="st0" cx="59.1" cy="58.8" r="58"/>
	<g class="st1">
		<path class="st2" d="M36.9,64.9V53.7l-4,11.2H30l-3.9-11.2v11.2h-2.7V49.1h4l4.1,12.1l4.3-12.1h3.8v15.8H36.9z"/>
		<path class="st2" d="M51.9,64.1c-0.9,0.6-2.2,1-4,1c-2.2,0-4.1-0.7-5.1-2.2c-0.6-0.9-1-2-1-3.5c0-1.4,0.4-2.6,1-3.4
			c1-1.4,2.8-2.3,5-2.3c2.4,0,4,0.9,4.9,2.2c0.8,1.2,1.1,2.8,1,4.5h-9.3c0,0.6,0.3,1.2,0.8,1.7c0.5,0.5,1.5,0.9,2.7,0.9
			c1,0,1.8-0.2,2.3-0.5c0.6-0.3,0.9-0.8,0.9-1h2.6C53.5,62.4,52.9,63.4,51.9,64.1z M50.5,56.8c-0.5-0.5-1.3-0.9-2.6-0.9
			c-1.2,0-2.1,0.4-2.7,0.9c-0.5,0.4-0.8,1.1-0.8,1.6h6.7C51.1,57.8,51,57.2,50.5,56.8z"/>
		<path class="st2" d="M63.7,64.9c-0.1,0-0.1-0.3-0.1-6.5c0-1.6-0.7-2.3-2.4-2.3c-1.5,0-2.9,0.8-2.9,2.3v6.4h-2.7v-11h2.6v1.7
			c0.6-1.3,2.3-1.9,4-1.9c2.9,0,4.1,1.5,4.1,4.2c0,6.9,0.1,7,0.1,7H63.7z"/>
		<path class="st2" d="M72,56.3c0,1.2,0,3.9,0,5c0,1.2,0.5,1.5,1.6,1.5c0.4,0,1.1,0,1.5-0.1v2.2C74.6,65,73.6,65,72.6,65
			c-1.8,0-3.3-0.7-3.3-3c0-1.4,0-4.3,0-5.8h-1.8v-2.4h1.7c0.1-0.2,0.1-2.4,0.1-2.4l2.6,0c0,0,0,2.1,0,2.4h3.2v2.4H72z"/>
		<path class="st2" d="M87.1,63.4c-1,1.1-2.6,1.7-4.7,1.7c-2.1,0-3.7-0.6-4.8-1.7c-0.9-1-1.4-2.3-1.4-4c0-1.5,0.5-3,1.4-4
			c1-1.1,2.5-1.7,4.7-1.7c2.2,0,3.7,0.6,4.7,1.7c1,1,1.4,2.5,1.4,4.1C88.5,61.1,88,62.4,87.1,63.4z M85.1,57c-0.5-0.6-1.4-1-2.8-1
			c-1.3,0-2.2,0.4-2.8,1.1c-0.5,0.6-0.7,1.4-0.7,2.2c0,1,0.2,1.8,0.7,2.3c0.6,0.7,1.5,1.1,2.8,1.1c1.2,0,2.2-0.4,2.7-1.1
			c0.5-0.5,0.7-1.3,0.7-2.3C85.9,58.4,85.7,57.6,85.1,57z"/>
		<path class="st2" d="M98.8,56.6c-0.7-0.2-1.5-0.3-2.5-0.3c-1.8,0-3.1,1.2-3.1,3.2v5.5h-2.7v-11H93v1.9c0.3-1.2,2-2.1,3.7-2.1
			c1,0,1.6,0.1,2,0.2V56.6z"/>
	</g>
</g>
</svg>
